<?xml version="1.0" encoding="UTF-8"?>
<svg id="b" data-name="圖層 2" xmlns="http://www.w3.org/2000/svg" width="389.69" height="211.61" viewBox="0 0 389.69 211.61">
  <g id="c" data-name="圖層 1">
    <g>
      <path d="M129.11,147.74c.65,1.26,1.4,2.95,1.76,3.89l-1.4,.54h.47v3.31c0,2.74-.65,5.29-5.15,6.88-.29-.58-1.04-1.51-1.51-1.91,2.12-.65,3.2-1.55,3.74-2.52h-4.46v-5.18h2.16v3.2h2.84v-3.78h1.48c-.11-.32-.25-.65-.36-1.01-5.29,.54-6.19,.72-6.7,.94-.11-.43-.4-1.48-.65-2.05,.54-.04,1.19-.4,1.91-.94,.36-.25,1.04-.83,1.91-1.66-2.09,.18-2.66,.29-3.02,.43-.11-.47-.4-1.55-.68-2.09,.36-.07,.76-.29,1.15-.65,.36-.32,1.58-1.62,2.41-2.99h-5.58v20.41h-3.17v-31.64h13.35v11.23h-3.74l1.33,.68c-.83,1.08-1.73,2.16-2.66,3.02l2.34-.11c.5-.58,1.01-1.15,1.48-1.76l1.76,1.22c-1.58,1.69-3.31,3.28-5.08,4.61l2.99-.25c-.22-.47-.43-.94-.61-1.33l1.69-.5Zm-9.68-14.43v2.23h7.06v-2.23h-7.06Zm0,6.52h7.06v-2.12h-7.06v2.12Zm26.64,18.72c0,1.73-.29,2.7-1.33,3.24-1.08,.58-2.63,.65-4.93,.65-.11-.9-.54-2.41-.97-3.28,1.44,.04,2.95,.04,3.38,.04,.5-.04,.65-.18,.65-.68v-16.34h-7.42l1.37,.72c-.79,1.08-1.73,2.12-2.59,2.99l2.27-.11c.54-.58,1.08-1.15,1.55-1.8l1.76,1.22c-1.58,1.69-3.35,3.35-5.08,4.68l2.95-.25c-.22-.47-.43-.94-.65-1.3l1.66-.58c.72,1.22,1.51,2.92,1.87,3.92l-1.73,.68c-.11-.32-.29-.72-.47-1.19-5.29,.58-6.19,.76-6.73,1.01-.07-.43-.36-1.51-.61-2.02,.54-.11,1.15-.43,1.91-1.04,.32-.25,1.04-.83,1.87-1.66-2.12,.18-2.7,.29-3.02,.47-.14-.47-.43-1.51-.68-2.09,.4-.07,.76-.29,1.15-.65,.36-.29,1.62-1.62,2.41-3.02h-2.23v-11.23h13.64v27.61Zm-8.82,.43v-1.04h-2.88v4.1h-2.41v-9.86h2.41v3.78h2.88v-3.2h2.27v6.23h-2.27Zm-1.66-25.67v2.23h7.27v-2.23h-7.27Zm7.27,6.52v-2.12h-7.27v2.12h7.27Z" style="fill: #9b877a;"/>
      <path d="M171.77,142.85s0,.97-.04,1.37c-.32,11.09-.68,15.01-1.62,16.27-.65,.86-1.26,1.15-2.2,1.3-.79,.14-2.09,.14-3.42,.11-.04-.9-.4-2.2-.83-3.02,1.15,.07,2.09,.11,2.63,.11,.47,0,.76-.11,1.04-.5,.58-.79,.86-3.96,1.19-12.6h-4.03c-.43,6.95-1.51,12.67-4.64,16.56-.54-.79-1.62-1.94-2.45-2.48,3.67-4.54,3.96-12.2,4.07-21.63h-3.24v-3.1h6.8c-.5-1.33-1.58-3.28-2.66-4.72l2.99-1.19c1.15,1.51,2.41,3.56,2.92,4.93l-2.45,.97h7.06v3.1h-8.13c-.04,1.55-.07,3.09-.11,4.54h7.13Zm11.73-12.63c-.22,.72-.43,1.48-.72,2.2,1.84,3.63,5.18,7.49,8.46,9.32-.83,.65-1.87,1.87-2.45,2.7-2.77-1.91-5.51-5.18-7.45-8.75-1.87,3.71-4.43,6.77-7.56,9.03-.5-.9-1.48-1.98-2.34-2.7,4.18-2.59,7.38-7.2,8.96-12.71l3.1,.9Zm-6.3,22.71c3.28,1.66,7.78,4.28,9.97,6.16l-2.23,2.88c-2.09-1.94-6.52-4.71-9.9-6.51l2.16-2.52Zm6.26-2.41c-1.3-1.44-4-3.6-6.16-5.11l2.2-2.12c2.09,1.37,4.9,3.38,6.26,4.75l-2.3,2.48Z" style="fill: #9b877a;"/>
      <path d="M231.96,145.73c-1.62,2.99-3.67,5.72-6.08,8.17,1.19,3.35,2.59,5.36,4.07,5.36,.86,0,1.3-1.76,1.48-6.23,.76,.79,1.91,1.58,2.81,1.87-.58,6.12-1.69,7.77-4.61,7.77-2.74,0-4.86-2.38-6.44-6.23-2.23,1.91-4.61,3.53-7.13,4.86-.54-.83-1.44-1.94-2.3-2.7,2.95-1.37,5.76-3.28,8.31-5.51-.86-2.92-1.48-6.37-1.91-10.08h-7.96v5.04l6.01-1.19,.25,2.99c-2.05,.47-4.18,.97-6.26,1.4v7.16c0,1.98-.47,2.95-1.73,3.49s-3.28,.65-6.16,.65c-.18-.94-.76-2.48-1.26-3.38,2.2,.07,4.28,.07,4.9,.04,.65-.04,.86-.22,.86-.79v-6.41c-2.56,.54-4.9,1.04-6.95,1.48l-.94-3.35c2.12-.36,4.9-.86,7.88-1.44v-5.69h-7.27v-3.17h7.27v-4.97c-2.12,.36-4.25,.65-6.19,.9-.18-.76-.61-2.05-1.04-2.77,5-.76,10.73-1.91,14.22-3.13l2.34,2.81c-1.76,.58-3.82,1.08-5.94,1.51v5.65h7.63c-.29-3.24-.43-6.62-.47-10.04h3.46c-.04,3.46,.11,6.88,.4,10.04h10.22v3.17h-9.86c.36,2.7,.76,5.11,1.29,7.31,1.62-1.84,3.02-3.82,4.1-5.87l2.99,1.26Zm-1.87-7.45c-1.01-1.69-3.35-4.28-5.36-6.08l2.52-1.73c2.02,1.73,4.43,4.18,5.54,5.87l-2.7,1.94Z" style="fill: #9b877a;"/>
      <path d="M253.92,130.5c-.79,2.38-1.73,4.79-2.81,7.09v24.91h-3.17v-19.08c-.94,1.48-1.87,2.81-2.88,3.96-.29-.83-1.15-2.7-1.66-3.53,2.99-3.49,5.76-8.82,7.42-14.22l3.1,.86Zm10.01,14.22h-6.73v17.71h-3.1v-30.96h9.83v13.25Zm-6.73-10.65v2.74h4.14v-2.74h-4.14Zm4.14,8.1v-2.92h-4.14v2.92h4.14Zm14.72,16.27c0,1.94-.43,2.92-1.73,3.46-1.33,.5-3.49,.58-6.84,.58-.14-.9-.68-2.34-1.12-3.24,2.41,.11,4.9,.11,5.62,.07,.65-.04,.9-.25,.9-.9v-13.68h-7.09v-13.25h10.26v26.96Zm-7.52-24.37v2.74h4.36v-2.74h-4.36Zm4.36,8.1v-2.92h-4.36v2.92h4.36Z" style="fill: #9b877a;"/>
    </g>
    <g>
      <g>
        <line x1="7.64" y1="86.6" x2="383.07" y2="86.6" style="fill: none; stroke: #7e292d; stroke-miterlimit: 10; stroke-width: 3.05px;"/>
        <line x1="7.64" y1="78.89" x2="383.07" y2="78.89" style="fill: none; stroke: #7e292d; stroke-miterlimit: 10; stroke-width: 1.02px;"/>
      </g>
      <g>
        <rect x="1.18" y="87.99" width="6.62" height="6.62" transform="translate(8.98 182.59) rotate(180)" style="fill: #7e292d;"/>
        <rect x="383.07" y="88.16" width="6.62" height="6.62" transform="translate(772.76 182.94) rotate(180)" style="fill: #7e292d;"/>
      </g>
    </g>
    <g>
      <g>
        <line x1="382.05" y1="203.39" x2="6.62" y2="203.39" style="fill: none; stroke: #7e292d; stroke-miterlimit: 10; stroke-width: 3.05px;"/>
        <line x1="382.05" y1="211.1" x2="6.62" y2="211.1" style="fill: none; stroke: #7e292d; stroke-miterlimit: 10; stroke-width: 1.02px;"/>
      </g>
      <g>
        <rect x="381.89" y="195.38" width="6.62" height="6.62" style="fill: #7e292d;"/>
        <rect y="195.21" width="6.62" height="6.62" style="fill: #7e292d;"/>
      </g>
    </g>
    <g>
      <path d="M176.33,.14c-4.78,7.86-8.74,16.37-7.78,21.78,.18,1,.64,1.35,1.23,1.24,1.12-.2,2.91-1.98,4.5-4.31,1.04-1.53,2.28-3.79,2.8-4.77l.26,.1c-.67,1.34-1.5,3.01-3.03,5.2-1.65,2.37-3.36,4.23-5.37,4.59-1.98,.35-2.75-.91-3.02-2.39-.43-2.39,.09-4.8,.79-7l-4.13,.74c-2.54,4.38-6.38,10.68-11.78,11.64-2.33,.42-4.77-.25-5.2-2.67-.2-1.12,.24-2.39,1.48-2.61,.77-.14,1.52,.31,1.64,1.02,.19,1.06-.41,1.63-1.44,1.81,.3,1.68,2.18,2.32,3.6,2.07,5.29-.95,9.23-7.87,11.77-12.04,3.44-5.61,7.57-11.53,13.42-14.56l.24,.14Zm-9.49,14.07c1.49-4.26,3.72-8.31,6.45-11.97l-.07-.05c-4.2,3.25-7.31,7.71-10.37,12.73l3.99-.71Z" style="fill: #7f292d;"/>
      <path d="M190.12,1c-7.94,13.73-10.86,17.5-10.71,20.13,.04,.78,.53,1.47,1.37,1.42,3.27-.18,6.11-6.71,6.01-8.57-.02-.39-.33-.46-.38-1.39-.04-.75,.45-1.56,1.26-1.6,1.38-.08,1.78,1.22,1.84,2.36,.03,.45,0,.93-.1,1.45,.51,.45,1.43,.91,2.36,.86,1.35-.08,2.39-.86,3.11-1.92l.22,.17c-.71,1.21-1.99,2.03-3.31,2.11-.96,.05-1.76-.29-2.45-.82-.94,4.2-4.6,7.5-8.79,7.73-2.22,.12-3.4-1.07-3.5-3.02-.11-1.95,1.38-4.25,9.69-18.57l3.38-.34Z" style="fill: #7f292d;"/>
      <path d="M212.8,14.61c-.84,.99-1.99,1.97-3.31,1.93-.93-.03-1.54-.47-2.09-1.21-1.06,3.96-4.86,7.19-9.03,7.05-2.19-.07-3.58-1.47-3.51-3.66,.14-4.26,5.1-7.81,9.08-7.68,2.13,.07,3.37,1.46,3.59,3.09,.17,1.21,.86,2.01,1.97,2.05,1.08,.04,2-.56,3.12-1.82l.17,.25Zm-7.75-1.58c.03-.99-.37-1.6-1.27-1.63-3.03-.1-6.37,6.48-6.46,9-.03,.99,.37,1.6,1.27,1.63,3.03,.1,6.37-6.48,6.46-9Z" style="fill: #7f292d;"/>
      <path d="M226.9,13.6c-3.77,4.79-6.38,7.31-6.6,9.03-.05,.42,.13,.68,.48,.73,.98,.12,2.95-1.11,4.59-2.39,1.98-1.57,3.93-3.44,4.83-4.36l.22,.21c-1.11,1.13-2.9,2.87-4.78,4.36-2.25,1.81-4.1,2.82-5.74,2.61-1.19-.15-1.86-1.05-1.73-2.12,.09-.74,.35-1.35,.57-1.65l-.05-.07c-1.62,1.34-3.73,3.22-6.26,2.91-1.22-.15-1.76-1.13-1.63-2.17,.19-1.52,2.29-4.07,5.63-8.28l3.17,.27c-3.72,4.4-6.27,7.17-6.46,8.69-.06,.48,.19,.87,.61,.92,1.49,.19,4.78-2.22,6.97-5l3.08-3.85,3.1,.14Z" style="fill: #7f292d;"/>
      <path d="M231.89,15.24l.31-.49,2.26,.46,2.95-3.26,3.2,.52-3.21,3.33,3.73,.75-.37,.48-3.79-.76c-4.7,5.11-6.26,6.63-6.49,7.78-.1,.5,.12,.91,.62,1.01,.97,.2,2.92-.51,5.1-1.91,1.51-.98,3.47-2.48,5.11-3.93l.15,.18c-1.12,1-2.93,2.53-4.91,3.85-2.19,1.46-4.55,2.54-6.34,2.18-1.23-.25-2.25-.97-1.97-2.38,.41-2.03,2.69-3.77,5.86-7.36l-2.21-.44Z" style="fill: #7f292d;"/>
    </g>
  </g>
</svg>