<?xml version="1.0" encoding="UTF-8"?>
<svg id="b" data-name="圖層 2" xmlns="http://www.w3.org/2000/svg" width="531.72" height="229.95" viewBox="0 0 531.72 229.95">
  <g id="c" data-name="圖層 1">
    <g>
      <rect x="200.33" y="55.49" width="33.97" height="33.97" transform="translate(12.4 174.9) rotate(-45)" style="fill: none; stroke: #c6b999; stroke-miterlimit: 10; stroke-width: .75px;"/>
      <rect x="151.89" y="55.49" width="33.97" height="33.97" transform="translate(-1.78 140.64) rotate(-45)" style="fill: none; stroke: #c6b999; stroke-miterlimit: 10; stroke-width: .75px;"/>
      <rect x="103.85" y="55.49" width="33.97" height="33.97" transform="translate(-15.86 106.67) rotate(-45)" style="fill: none; stroke: #c6b999; stroke-miterlimit: 10; stroke-width: .75px;"/>
      <rect x="345.44" y="55.49" width="33.97" height="33.97" transform="translate(54.9 277.5) rotate(-45)" style="fill: none; stroke: #c6b999; stroke-miterlimit: 10; stroke-width: .75px;"/>
      <rect x="297" y="55.49" width="33.97" height="33.97" transform="translate(40.72 243.25) rotate(-45)" style="fill: none; stroke: #c6b999; stroke-miterlimit: 10; stroke-width: .75px;"/>
      <rect x="248.95" y="55.49" width="33.97" height="33.97" transform="translate(26.64 209.27) rotate(-45)" style="fill: none; stroke: #c6b999; stroke-miterlimit: 10; stroke-width: .75px;"/>
      <rect x="345.08" y="7.57" width="33.97" height="33.97" transform="translate(88.69 263.21) rotate(-45)" style="fill: none; stroke: #c6b999; stroke-miterlimit: 10; stroke-width: .75px;"/>
      <rect x="296.64" y="7.57" width="33.97" height="33.97" transform="translate(74.5 228.96) rotate(-45)" style="fill: none; stroke: #c6b999; stroke-miterlimit: 10; stroke-width: .75px;"/>
      <rect x="248.59" y="7.57" width="33.97" height="33.97" transform="translate(60.43 194.99) rotate(-45)" style="fill: none; stroke: #c6b999; stroke-miterlimit: 10; stroke-width: .75px;"/>
      <rect x="490.18" y="7.57" width="33.97" height="33.97" transform="translate(131.18 365.81) rotate(-45)" style="fill: none; stroke: #c6b999; stroke-miterlimit: 10; stroke-width: .75px;"/>
      <rect x="441.74" y="7.57" width="33.97" height="33.97" transform="translate(117 331.56) rotate(-45)" style="fill: none; stroke: #c6b999; stroke-miterlimit: 10; stroke-width: .75px;"/>
      <rect x="393.7" y="7.57" width="33.97" height="33.97" transform="translate(102.93 297.59) rotate(-45)" style="fill: none; stroke: #c6b999; stroke-miterlimit: 10; stroke-width: .75px;"/>
      <rect x="248.79" y="188.41" width="33.97" height="33.97" transform="translate(-67.39 248.09) rotate(-45)" style="fill: none; stroke: #c6b999; stroke-miterlimit: 10; stroke-width: .75px;"/>
      <rect x="200.35" y="188.41" width="33.97" height="33.97" transform="translate(-81.58 213.84) rotate(-45)" style="fill: none; stroke: #c6b999; stroke-miterlimit: 10; stroke-width: .75px;"/>
      <rect x="152.31" y="188.41" width="33.97" height="33.97" transform="translate(-95.65 179.87) rotate(-45)" style="fill: none; stroke: #c6b999; stroke-miterlimit: 10; stroke-width: .75px;"/>
      <rect x="151.74" y="103.77" width="33.97" height="33.97" transform="translate(-35.97 154.68) rotate(-45)" style="fill: none; stroke: #c6b999; stroke-miterlimit: 10; stroke-width: .75px;"/>
      <rect x="103.7" y="103.77" width="33.97" height="33.97" transform="translate(-50.04 120.71) rotate(-45)" style="fill: none; stroke: #c6b999; stroke-miterlimit: 10; stroke-width: .75px;"/>
      <rect x="55.66" y="103.77" width="33.97" height="33.97" transform="translate(-64.11 86.73) rotate(-45)" style="fill: none; stroke: #c6b999; stroke-miterlimit: 10; stroke-width: .75px;"/>
      <rect x="7.57" y="103.77" width="33.97" height="33.97" transform="translate(-78.2 52.73) rotate(-45)" style="fill: none; stroke: #c6b999; stroke-miterlimit: 10; stroke-width: .75px;"/>
      <rect x="200.36" y="103.77" width="33.97" height="33.97" transform="translate(-21.73 189.06) rotate(-45)" style="fill: none; stroke: #c6b999; stroke-miterlimit: 10; stroke-width: .75px;"/>
    </g>
  </g>
</svg>