<?xml version="1.0" encoding="UTF-8"?>
<svg id="b" data-name="圖層 2" xmlns="http://www.w3.org/2000/svg" width="73.56" height="279.26" viewBox="0 0 73.56 279.26">
  <g id="c" data-name="圖層 1">
    <g>
      <path d="M32.65,7.61S16.11-2.87,7.89,3.3c-2.2,1.65-2.75,4.42-1.18,6.66,2.02,2.87,9.69,5.4,24.02,3.11" style="fill: none; stroke: #c6bb9e; stroke-miterlimit: 10; stroke-width: 2.7px;"/>
      <path d="M41.99,7.61S58.54-2.87,66.75,3.3c2.2,1.65,2.75,4.42,1.18,6.66-2.02,2.87-9.69,5.4-24.02,3.11" style="fill: none; stroke: #c6bb9e; stroke-miterlimit: 10; stroke-width: 2.7px;"/>
      <path d="M41.99,7.61S58.54-2.87,66.75,3.3c2.2,1.65,2.75,4.42,1.18,6.66-2.02,2.87-9.69,5.4-24.02,3.11" style="fill: none; stroke: #7f292d; stroke-miterlimit: 10; stroke-width: .34px;"/>
      <line x1="37.29" y1="6.53" x2="37.29" y2="13.95" style="fill: none; stroke: #c6bb9e; stroke-linecap: round; stroke-linejoin: round; stroke-width: 1.69px;"/>
      <line x1="39.95" y1="6.53" x2="39.95" y2="13.95" style="fill: none; stroke: #c6bb9e; stroke-linecap: round; stroke-linejoin: round; stroke-width: 1.69px;"/>
      <line x1="34.63" y1="6.53" x2="34.63" y2="13.95" style="fill: none; stroke: #c6bb9e; stroke-linecap: round; stroke-linejoin: round; stroke-width: 1.69px;"/>
      <path d="M32.65,7.61S16.11-2.87,7.89,3.3c-2.2,1.65-2.75,4.42-1.18,6.66,2.02,2.87,9.69,5.4,24.02,3.11" style="fill: none; stroke: #7f292d; stroke-miterlimit: 10; stroke-width: .34px;"/>
    </g>
    <g>
      <path d="M37.3,66.36h13.04v3.4H20.37v-3.4h12.87v-2.71h-9.44v-3.27h9.44v-2.15h-11.75v-17.53h13.57v2.97h-3.6v1.88h3.6v7.66h-3.6v2.05h3.89v2.87h1.95v2.24h9.74v3.27h-9.74v2.71Zm-12.25-22.67v1.88h3v-1.88h-3Zm6.5,4.65h-6.5v2.11h6.5v-2.11Zm-6.5,6.93h3v-2.05h-3v2.05Zm24.69-13.66c-.92,4.39-2.57,7.99-4.75,10.92,1.58,1.48,3.5,2.71,5.64,3.53-.83,.69-1.88,2.11-2.41,3.04-2.18-.96-4.09-2.28-5.71-3.86-1.42,1.29-3,2.41-4.75,3.3-.46-.92-1.52-2.41-2.31-3.17,1.65-.73,3.23-1.78,4.59-3.04-1.52-2.21-2.77-4.72-3.7-7.53l1.32-.36h-1.58v-3.56h10.56l.66-.13,2.44,.86Zm-9.8,2.84c.59,1.82,1.45,3.56,2.54,5.12,1.09-1.52,1.98-3.27,2.67-5.12h-5.21Z" style="fill: #7f292d;"/>
      <path d="M30.57,123.15c-.99,.3-1.98,.59-3,.86v7.86c0,1.81-.3,2.77-1.32,3.37-.96,.66-2.41,.79-4.52,.76-.1-.96-.53-2.57-1.02-3.6,1.22,.03,2.34,.03,2.74,0,.4,0,.53-.13,.53-.56v-6.77l-3.5,1.02-.86-3.76c1.22-.3,2.71-.66,4.36-1.09v-5.74h-3.83v-3.63h3.83v-6.21h3.6v6.21h2.71v3.63h-2.71v4.82l2.51-.69,.49,3.53Zm20.2-13.73v3.56h-8.09v2.61h6.63v3.56h-16.9v-3.56h6.54v-2.61h-8.25v-3.56h8.25v-3.63h3.73v3.63h8.09Zm-3.83,12.57h3.63v3.56h-3.63v6.8c0,1.95-.36,2.9-1.65,3.5-1.19,.56-2.97,.59-5.31,.59-.16-1.09-.66-2.61-1.12-3.66,1.48,.1,3.2,.07,3.73,.03,.46,0,.63-.1,.63-.56v-6.7h-12.14v-3.56h12.14v-2.24h3.73v2.24Zm-10.99,3.8c1.25,1.68,2.9,4.03,3.7,5.51l-3.3,1.91c-.69-1.52-2.28-3.99-3.47-5.78l3.07-1.65Z" style="fill: #7f292d;"/>
      <path d="M21.23,187.6h12.57v14.69h-3.93v-1.49h-4.92v1.65h-3.73v-14.85Zm3.73,3.76v5.68h4.92v-5.68h-4.92Zm20.17-6.5H25.78v-11.95h19.34v11.95Zm-3.99-8.19h-11.55v4.46h11.55v-4.46Zm8.45,10.92v14.72h-3.96v-1.52h-5.25v1.65h-3.76v-14.85h12.97Zm-3.96,9.44v-5.68h-5.25v5.68h5.25Z" style="fill: #7f292d;"/>
      <path d="M25.62,245.45c-.56,1.68-1.49,3.3-3.14,4.62-.5-.69-1.85-2.05-2.54-2.51,2.51-1.88,2.87-4.22,2.87-6.14v-2.21c3.43-.2,7.39-.69,9.7-1.49l2.18,2.28c-2.31,.83-5.48,1.25-8.51,1.52,0,.33,0,.69-.03,1.06h8.98v2.87h-3.17v3.37h-3.47v-3.37h-2.87Zm16.34,3.47v-3.47h-2.84c-.4,1.45-1.06,2.84-2.18,3.99h9.11v13.6h-4.36c3.1,.92,6.24,2.01,8.32,2.84l-1.81,2.74c-2.34-1.06-6.27-2.54-9.93-3.66l1.19-1.91h-8.55l2.15,1.25c-2.84,1.58-7.29,3.37-10.63,4.36-.33-.69-1.29-2.51-1.88-3.3,2.74-.53,6.07-1.35,8.52-2.31h-4.36v-13.6h11.82c-.69-.59-1.95-1.42-2.61-1.75,2.11-1.88,2.38-4.29,2.38-6.17v-2.41c3.7-.17,7.89-.66,10.2-1.45l2.44,2.18c-2.51,.86-6.04,1.35-9.34,1.58v.17c0,.33,0,.66-.03,.99h10.59v2.87h-4.65v3.47h-3.53Zm.13,2.87h-13.63v1.49h13.63v-1.49Zm0,3.66h-13.63v1.52h13.63v-1.52Zm0,3.73h-13.63v1.49h13.63v-1.49Z" style="fill: #7f292d;"/>
    </g>
    <line x1="72.06" y1="34.33" x2="72.06" y2="277.76" style="fill: none; stroke: #c6bb9e; stroke-linecap: square; stroke-linejoin: round; stroke-width: 3px;"/>
    <line x1="66.74" y1="34.33" x2="66.74" y2="277.76" style="fill: none; stroke: #c6bb9e; stroke-linecap: square; stroke-linejoin: round; stroke-width: .75px;"/>
    <line x1="1.5" y1="277.76" x2="1.5" y2="34.33" style="fill: none; stroke: #c6bb9e; stroke-linecap: square; stroke-linejoin: round; stroke-width: 3px;"/>
    <line x1="6.82" y1="277.76" x2="6.82" y2="34.33" style="fill: none; stroke: #c6bb9e; stroke-linecap: square; stroke-linejoin: round; stroke-width: .75px;"/>
  </g>
</svg>