<?xml version="1.0" encoding="UTF-8"?>
<svg id="b" data-name="圖層 2" xmlns="http://www.w3.org/2000/svg" width="660.71" height="209.97" viewBox="0 0 660.71 209.97">
  <g id="c" data-name="圖層 1">
    <g>
      <rect x="271.51" y="50.69" width="31.01" height="31.01" transform="translate(443.16 315.96) rotate(-135)" style="fill: none; stroke: #c6b999; stroke-miterlimit: 10; stroke-width: .75px;"/>
      <rect x="315.72" y="50.69" width="31.01" height="31.01" transform="translate(518.63 347.22) rotate(-135)" style="fill: none; stroke: #c6b999; stroke-miterlimit: 10; stroke-width: .75px;"/>
      <rect x="139.07" y="50.69" width="31.01" height="31.01" transform="translate(217.06 222.31) rotate(-135)" style="fill: none; stroke: #c6b999; stroke-miterlimit: 10; stroke-width: .75px;"/>
      <rect x="183.28" y="50.69" width="31.01" height="31.01" transform="translate(292.54 253.57) rotate(-135)" style="fill: none; stroke: #c6b999; stroke-miterlimit: 10; stroke-width: .75px;"/>
      <rect x="227.14" y="50.69" width="31.01" height="31.01" transform="translate(367.4 284.58) rotate(-135)" style="fill: none; stroke: #c6b999; stroke-miterlimit: 10; stroke-width: .75px;"/>
      <rect x="139.39" y="6.95" width="31.01" height="31.01" transform="translate(248.55 147.87) rotate(-135)" style="fill: none; stroke: #c6b999; stroke-miterlimit: 10; stroke-width: .75px;"/>
      <rect x="183.61" y="6.95" width="31.01" height="31.01" transform="translate(324.02 179.13) rotate(-135)" style="fill: none; stroke: #c6b999; stroke-miterlimit: 10; stroke-width: .75px;"/>
      <rect x="227.46" y="6.95" width="31.01" height="31.01" transform="translate(398.89 210.14) rotate(-135)" style="fill: none; stroke: #c6b999; stroke-miterlimit: 10; stroke-width: .75px;"/>
      <rect x="6.95" y="6.95" width="31.01" height="31.01" transform="translate(22.46 54.22) rotate(-135)" style="fill: none; stroke: #c6b999; stroke-miterlimit: 10; stroke-width: .75px;"/>
      <rect x="51.17" y="6.95" width="31.01" height="31.01" transform="translate(97.93 85.48) rotate(-135)" style="fill: none; stroke: #c6b999; stroke-miterlimit: 10; stroke-width: .75px;"/>
      <rect x="95.02" y="6.95" width="31.01" height="31.01" transform="translate(172.8 116.49) rotate(-135)" style="fill: none; stroke: #c6b999; stroke-miterlimit: 10; stroke-width: .75px;"/>
      <rect x="534.68" y="172.01" width="31.01" height="31.01" transform="translate(806.63 709.15) rotate(-135)" style="fill: none; stroke: #c6b999; stroke-miterlimit: 10; stroke-width: .75px;"/>
      <rect x="578.89" y="172.01" width="31.01" height="31.01" transform="translate(882.11 740.41) rotate(-135)" style="fill: none; stroke: #c6b999; stroke-miterlimit: 10; stroke-width: .75px;"/>
      <rect x="622.75" y="172.01" width="31.01" height="31.01" transform="translate(956.97 771.42) rotate(-135)" style="fill: none; stroke: #c6b999; stroke-miterlimit: 10; stroke-width: .75px;"/>
      <rect x="271.51" y="94.56" width="31.01" height="31.01" transform="translate(412.14 390.83) rotate(-135)" style="fill: none; stroke: #c6b999; stroke-miterlimit: 10; stroke-width: .75px;"/>
      <rect x="337.47" y="72.64" width="31.01" height="31.01" transform="translate(540.24 400.06) rotate(-135)" style="fill: none; stroke: #c6b999; stroke-miterlimit: 10; stroke-width: .75px;"/>
      <rect x="293.25" y="116.5" width="31.01" height="31.01" transform="translate(433.74 443.67) rotate(-135)" style="fill: none; stroke: #c6b999; stroke-miterlimit: 10; stroke-width: .75px;"/>
      <rect x="315.27" y="94.59" width="31.01" height="31.01" transform="translate(486.81 421.83) rotate(-135)" style="fill: none; stroke: #c6b999; stroke-miterlimit: 10; stroke-width: .75px;"/>
      <rect x="337.01" y="116.5" width="31.01" height="31.01" transform="translate(508.43 474.61) rotate(-135)" style="fill: none; stroke: #c6b999; stroke-miterlimit: 10; stroke-width: .75px;"/>
      <rect x="380.69" y="116.5" width="31.01" height="31.01" transform="translate(583.01 505.5) rotate(-135)" style="fill: none; stroke: #c6b999; stroke-miterlimit: 10; stroke-width: .75px;"/>
      <rect x="424.24" y="116.5" width="31.01" height="31.01" transform="translate(657.35 536.29) rotate(-135)" style="fill: none; stroke: #c6b999; stroke-miterlimit: 10; stroke-width: .75px;"/>
    </g>
  </g>
</svg>