<?xml version="1.0" encoding="UTF-8"?>
<svg id="b" data-name="圖層 2" xmlns="http://www.w3.org/2000/svg" width="450.77" height="83.14" viewBox="0 0 450.77 83.14">
  <g id="c" data-name="圖層 1">
    <g>
      <path d="M7.27,72.87c0,4.93,3.87,8.82,9.67,8.82,10.15,0,18.95-9.76,28.33-28.87-5.22,6.51-12.86,10.08-19.05,10.08-7.73,0-12.47-5.67-12.47-14.49,0-12.08,7.64-23.52,22.62-32.55-.58-1.68-.77-3.36-.77-5.04,0-5.04,2.42-8.71,6.86-10.18l.19,.63c-4.16,1.58-6.38,4.93-6.38,9.55,0,1.47,.29,2.94,.77,4.62,10.15-5.04,19.43-7.46,26.88-7.46,8.51,0,13.25,3.57,13.25,9.03,0,6.2-7.06,11.87-18.18,11.87-9.18,0-15.66-2.83-20.5-9.24-9.96,7.98-15.76,20.26-15.76,30.03,0,6.93,3.09,10.71,8.12,10.71,5.61,0,12.38-4.3,16.15-11.65,1.84-3.46,2.61-6.3,3.96-7.45,.87-.74,4.16-2.1,6.67-2.1,1.45,0,2.03,.42,2.03,1.47,0,1.89-1.64,3.46-3.19,6.41-1.45,2.62-3.29,7.67-6.86,13.86-8.12,14.07-20.59,21.52-33.26,21.52-9.57,0-15.86-5.67-15.86-13.12,0-4.72,2.42-7.87,5.9-7.87,2.71,0,4.45,1.89,4.45,4.62,0,2.21-1.26,3.88-3.38,4.41-.19,.95-.19,1.68-.19,2.42ZM54.83,27.3c9.86,0,16.53-5.88,16.53-12.28,0-3.67-3.09-6.2-8.12-6.2-6.96,0-15.57,3.25-24.17,10.08,3.87,5.56,9.18,8.4,15.76,8.4Z" style="fill: none; stroke: #c69d63; stroke-miterlimit: 10;"/>
      <path d="M79.78,46.31l10.83-.73c-5.61,9.13-9.86,15.22-12.38,18.58l.48,.53c4.83-6.72,10.25-12.18,16.44-16.69,1.45-2.42,3-2.94,5.99-3.15l5.12-.42c-2.9,4.72-4.54,8.4-4.54,11.65,0,2.94,1.55,4.62,3.29,4.62,3.29,0,6.38-2,9.38-6.19l.39,.42c-3.38,5.14-8.6,7.98-13.34,7.98s-7.83-3.04-7.83-7.98c0-1.89,.29-3.67,1.06-5.46-9.38,6.4-17.21,16.69-23.98,31.18l-9.47,.74,18.56-35.07Z" style="fill: none; stroke: #c69d63; stroke-miterlimit: 10;"/>
      <path d="M124.35,82.11c-4.83,0-7.83-3.57-7.83-9.34s2.51-12.39,6.96-17.74c5.7-6.93,13.54-10.6,19.14-10.6,4.06,0,6.86,2.31,7.64,6.4l2.13-4.51,9.67-.63c-10.44,17.22-16.34,27.4-16.34,32.02,0,1.58,.97,2.83,2.32,2.83,3.67,0,13.63-8.29,26.68-26.77l.58,.42c-13.54,18.37-22.91,28.24-31.13,28.24-3.48,0-5.8-2.62-5.8-6.51,0-.84,.1-1.68,.29-2.62-5.22,5.88-10.15,8.82-14.31,8.82Zm16.05-12.49c4.74-7.14,7.06-13.96,7.06-19,0-3.36-1.64-5.14-4.16-5.14-3.48,0-7.54,2.94-11.6,8.82-4.45,6.51-6.57,13.33-6.57,17.96,0,4.2,1.74,6.4,4.45,6.4,3.09,0,6.77-2.94,10.83-9.03Z" style="fill: none; stroke: #c69d63; stroke-miterlimit: 10;"/>
      <path d="M181.3,82.32c-4.45,0-6.86-2.52-6.86-6.72,0-2.83,1.35-6.82,4.06-11.86l9.28-17.53h-7.15l.68-1.16h7.25l6.38-11.55,9.67-.63-6.86,12.18h11.6l-.77,1.16h-11.7l-10.73,19.63c-3,5.57-4.35,9.76-4.35,11.86,0,1.89,.87,2.83,2.51,2.83,4.93,0,15.08-8.29,27.07-26.46l.58,.42c-12.28,18.69-22.62,27.82-30.65,27.82Z" style="fill: none; stroke: #c69d63; stroke-miterlimit: 10;"/>
      <path d="M217.26,82.22c-3.67,0-5.99-2.62-5.99-6.83,0-2.73,1.26-6.3,3.58-10.5l10.54-19.11,9.47-.32-13.92,24.36c-1.74,3.15-2.71,5.67-2.71,7.87,0,1.26,.97,2.42,2.42,2.42,4.06,0,13.73-8.08,26.1-25.83l.48,.32c-12.86,18.69-23.49,27.61-29.97,27.61Zm27.55-53.86c0,2.94-2.32,5.35-4.93,5.35s-4.93-2.52-4.93-5.35,2.22-5.35,4.93-5.35,4.93,2.42,4.93,5.35Z" style="fill: none; stroke: #c69d63; stroke-miterlimit: 10;"/>
      <path d="M253.52,82.32c-4.45,0-6.86-2.52-6.86-6.72,0-2.83,1.35-6.82,4.06-11.86l9.28-17.53h-7.15l.68-1.16h7.25l6.38-11.55,9.67-.63-6.86,12.18h11.6l-.77,1.16h-11.7l-10.73,19.63c-3,5.57-4.35,9.76-4.35,11.86,0,1.89,.87,2.83,2.51,2.83,4.93,0,15.08-8.29,27.07-26.46l.58,.42c-12.28,18.69-22.62,27.82-30.65,27.82Z" style="fill: none; stroke: #c69d63; stroke-miterlimit: 10;"/>
      <path d="M289.68,82.22c-3.77,0-6.38-2.62-6.38-6.62,0-3.15,1.64-6.72,4.25-11.55l9.57-17.95,10.05-.63c-10.54,17.01-16.24,27.19-16.24,31.18,0,1.79,.87,2.73,2.51,2.73,4.93,0,15.28-10.5,26.39-33.28l9.47-.63c-10.34,17.74-16.44,28.14-16.44,32.65,0,1.26,.97,2.2,2.13,2.2,3.87,0,13.34-8.4,25.72-26.25l.48,.42c-12.76,18.37-22.04,27.61-28.71,27.61-3.77,0-6.09-2.73-6.09-6.61,0-2.42,.58-4.94,1.74-7.04l-.48-.42c-6.96,9.45-13.34,14.17-17.98,14.17Z" style="fill: none; stroke: #c69d63; stroke-miterlimit: 10;"/>
      <path d="M350.88,82.01c-4.83,0-7.93-3.88-7.93-9.45,0-6.93,2.8-13.65,8.22-19.21,5.8-6.09,12.38-9.03,18.18-9.03,4.06,0,6.96,2.52,7.35,6.62l21.85-39.69,10.05-.52-30.84,53.34c-3.77,6.51-5.8,10.92-5.8,13.75,0,1.47,1.06,2.62,2.42,2.62,3.58,0,14.21-8.19,26.01-26.35l.58,.42c-12.28,18.69-22.91,27.72-29.68,27.72-4.06,0-6.19-2.1-6.19-6.3,0-.63,.1-1.68,.29-3.15-4.83,6.2-10.44,9.24-14.5,9.24Zm16.05-12.29c4.64-6.93,6.96-14.59,6.96-19,0-3.57-1.74-5.56-4.16-5.56-2.8,0-6.48,2.31-10.15,7.14-5.61,7.45-8.22,15.12-8.22,19.63s1.93,6.72,4.74,6.72c2.61,0,6.86-3.04,10.83-8.92Z" style="fill: none; stroke: #c69d63; stroke-miterlimit: 10;"/>
      <path d="M413.53,82.64c-6.38,0-11.02-4.83-11.02-11.45s3.48-13.86,9.96-19.53c5.41-4.73,11.99-7.35,17.02-7.35s8.31,2.52,8.31,6.2c0,6.51-8.8,11.23-26.3,15.64-.1,.94-.29,1.89-.29,2.94,0,6.41,3.19,10.08,8.51,10.08,7.25,0,18.37-7.98,29.87-24.78l.48,.32c-12.38,18.69-25.62,27.93-36.54,27.93Zm17.02-34.44c0-1.89-.97-2.83-2.61-2.83-4.06,0-12.67,7.14-16.34,19.84,12.18-3.46,18.95-11.44,18.95-17.01Z" style="fill: none; stroke: #c69d63; stroke-miterlimit: 10;"/>
    </g>
  </g>
</svg>