<?xml version="1.0" encoding="UTF-8"?>
<svg id="b" data-name="圖層 2" xmlns="http://www.w3.org/2000/svg" width="73.56" height="279.26" viewBox="0 0 73.56 279.26">
  <g id="c" data-name="圖層 1">
    <g>
      <path d="M32.65,7.61S16.11-2.87,7.89,3.3c-2.2,1.65-2.75,4.42-1.18,6.66,2.02,2.87,9.69,5.4,24.02,3.11" style="fill: none; stroke: #c6bb9e; stroke-miterlimit: 10; stroke-width: 2.7px;"/>
      <path d="M41.99,7.61S58.54-2.87,66.75,3.3c2.2,1.65,2.75,4.42,1.18,6.66-2.02,2.87-9.69,5.4-24.02,3.11" style="fill: none; stroke: #c6bb9e; stroke-miterlimit: 10; stroke-width: 2.7px;"/>
      <path d="M41.99,7.61S58.54-2.87,66.75,3.3c2.2,1.65,2.75,4.42,1.18,6.66-2.02,2.87-9.69,5.4-24.02,3.11" style="fill: none; stroke: #7f292d; stroke-miterlimit: 10; stroke-width: .34px;"/>
      <line x1="37.29" y1="6.53" x2="37.29" y2="13.95" style="fill: none; stroke: #c6bb9e; stroke-linecap: round; stroke-linejoin: round; stroke-width: 1.69px;"/>
      <line x1="39.95" y1="6.53" x2="39.95" y2="13.95" style="fill: none; stroke: #c6bb9e; stroke-linecap: round; stroke-linejoin: round; stroke-width: 1.69px;"/>
      <line x1="34.63" y1="6.53" x2="34.63" y2="13.95" style="fill: none; stroke: #c6bb9e; stroke-linecap: round; stroke-linejoin: round; stroke-width: 1.69px;"/>
      <path d="M32.65,7.61S16.11-2.87,7.89,3.3c-2.2,1.65-2.75,4.42-1.18,6.66,2.02,2.87,9.69,5.4,24.02,3.11" style="fill: none; stroke: #7f292d; stroke-miterlimit: 10; stroke-width: .34px;"/>
    </g>
    <g>
      <path d="M49.38,47.54c-1.19,3.14-2.9,5.94-4.98,8.32,.79,6.21,1.98,10.63,3,10.63,.46,0,.76-1.68,.86-5.28,.73,.89,1.95,1.75,2.9,2.15-.56,5.45-1.62,6.87-4.26,6.87-2.87,0-4.72-4.75-5.81-11.29-.63,.5-1.29,.93-1.95,1.35-.3-.4-.83-.92-1.35-1.48h-3.89c.92,1.48,2.05,3.43,2.54,4.55l-2.57,1.38c-.36-.99-1.12-2.44-1.85-3.79v5.54c0,.86,.13,.96,.96,.96h2.38c.76,0,.92-.49,.99-3.5,.5,.36,1.35,.73,2.11,.96-.46-1.12-.92-2.24-1.35-3.23l2.57-.99c1.06,2.24,2.34,5.25,2.97,7.03l-2.77,1.19c-.2-.73-.53-1.68-.92-2.71-.36,3.04-1.22,3.89-3.27,3.89h-3.2c-2.9,0-3.56-.86-3.56-3.56v-5.61h3.07l-.63-1.12,2.05-.99h-6.34v-7.62h10.76v5.64c.96-.59,1.85-1.29,2.67-2.05-.33-2.87-.53-5.94-.69-8.98h-13.56v1.42h12.64v2.61h-12.64c-.07,5.88-.66,14.79-3.5,20.7-.66-.63-2.28-1.75-3.14-2.05,2.77-5.71,3.04-13.99,3.04-19.44v-6.34h17.06c-.03-1.02-.07-2.04-.07-3.07h3.8v1.06l2.08-1.45c1.06,.76,2.54,1.85,3.3,2.54l-1.22,.92h2.64v3.1h-6.7c.07,1.68,.17,3.37,.3,4.98,.83-1.29,1.49-2.64,2.01-4.12l3.53,.89Zm-24.69,20.7c.56-2.05,1.19-5.12,1.49-7.33l2.51,.96c-.33,2.08-.86,5.35-1.29,7.39l-2.71-1.02Zm10.07-14.42h-4.49v2.38h4.49v-2.38Zm10.73-11.12c-.63-.56-1.39-1.15-2.05-1.68v1.68h2.05Z" style="fill: #7f292d;"/>
      <path d="M19.91,132.98c1.55-1.85,2.87-4.65,3.63-7.16l3.47,1.35c-.86,2.61-2.01,5.74-3.63,7.76l-3.47-1.95Zm15.91-8.85h-12.28v-17.59h23.9v17.59h-11.42c1.48,1.52,3.1,3.7,3.8,5.21l-3.4,1.72c-.59-1.48-2.18-3.79-3.66-5.45l3.07-1.49Zm-8.28-3.27h15.68v-11.09h-15.68v11.09Zm11.06,11.45c1.45,0,1.68-.53,1.88-4.19,.83,.66,2.51,1.25,3.56,1.52-.43,4.98-1.55,6.24-5.15,6.24h-5.64c-4.39,0-5.51-1.15-5.51-4.69v-5.38h3.99v5.35c0,1.02,.3,1.15,1.98,1.15h4.88Zm-1.68-17.36c1.78,1.15,3.99,2.61,5.21,3.6l-2.18,2.18c-1.09-.99-3.14-2.48-4.92-3.7-1.06,1.55-2.74,2.71-5.28,3.6-.3-.76-1.09-1.81-1.72-2.38,2.41-.76,3.76-1.85,4.55-3.3h-3.86v-2.84h4.75c.1-.56,.17-1.19,.2-1.81h3.3c-.07,.63-.13,1.22-.2,1.81h5.21v2.84h-5.08Zm8.78,10.23c1.95,2.24,4.06,5.25,4.92,7.43l-3.63,1.75c-.69-2.08-2.71-5.25-4.65-7.56l3.37-1.62Z" style="fill: #7f292d;"/>
      <path d="M49.94,176.71s0,1.32-.03,1.78c-.43,14.75-.79,20-2.15,21.75-.92,1.22-1.85,1.58-3.17,1.82-1.25,.16-3.23,.13-5.18,.06-.07-1.09-.59-2.74-1.29-3.83,2.11,.2,4.06,.2,4.92,.2,.66,0,1.02-.13,1.45-.56,.96-1.05,1.39-6.01,1.75-17.66h-7.06c-.86,1.98-1.88,3.79-2.9,5.21-.53-.5-1.65-1.26-2.54-1.85v15.41h-8.81v2.41h-3.56v-24.52h3.73c.43-1.65,.83-3.76,.96-5.31l4.29,.59c-.56,1.65-1.16,3.3-1.72,4.72h5.12v5.35c1.91-2.77,3.5-6.77,4.46-10.63l3.73,.86c-.33,1.42-.79,2.8-1.29,4.19h9.31Zm-19.77,3.66h-5.25v5.35h5.25v-5.35Zm0,15.22v-6.47h-5.25v6.47h5.25Zm10.96-1.78c-.92-1.98-2.97-5.21-4.59-7.62l3.07-1.75c1.65,2.28,3.83,5.41,4.85,7.33l-3.33,2.05Z" style="fill: #7f292d;"/>
      <path d="M26.51,249.7c-.46,4.26-1.29,9.97-2.41,13.7l-3.96-1.58c1.16-3.5,2.11-8.45,2.54-12.84l3.83,.73Zm6.2-2.67v15.31c0,1.55,.26,1.81,1.85,1.81h4.72c1.65,0,1.95-1.06,2.18-6.21,.92,.69,2.61,1.39,3.7,1.65-.46,6.27-1.52,8.22-5.58,8.22h-5.48c-4.29,0-5.48-1.32-5.48-5.48v-15.31h4.09Zm-.3-8.88c2.97,1.88,7.16,4.79,9.14,6.83l-2.9,3.07c-1.78-2.01-5.84-5.15-8.91-7.23l2.67-2.67Zm14.39,9.77c1.85,3.93,3.56,8.88,4.26,12.28l-3.99,1.65c-.5-3.37-2.21-8.58-3.93-12.44l3.66-1.49Z" style="fill: #7f292d;"/>
    </g>
    <line x1="72.06" y1="34.33" x2="72.06" y2="277.76" style="fill: none; stroke: #c6bb9e; stroke-linecap: square; stroke-linejoin: round; stroke-width: 3px;"/>
    <line x1="66.74" y1="34.33" x2="66.74" y2="277.76" style="fill: none; stroke: #c6bb9e; stroke-linecap: square; stroke-linejoin: round; stroke-width: .75px;"/>
    <line x1="1.5" y1="277.76" x2="1.5" y2="34.33" style="fill: none; stroke: #c6bb9e; stroke-linecap: square; stroke-linejoin: round; stroke-width: 3px;"/>
    <line x1="6.82" y1="277.76" x2="6.82" y2="34.33" style="fill: none; stroke: #c6bb9e; stroke-linecap: square; stroke-linejoin: round; stroke-width: .75px;"/>
  </g>
</svg>