<?xml version="1.0" encoding="UTF-8"?>
<svg id="b" data-name="圖層 2" xmlns="http://www.w3.org/2000/svg" width="366.72" height="104.42" viewBox="0 0 366.72 104.42">
  <g id="c" data-name="圖層 1">
    <g>
      <path d="M10.46,73.79c-6.57,0-9.96-1.47-9.96-4.3,0-3.15,5.8-5.67,15.37-5.67,4.83,0,10.15,.73,16.34,1.89,24.94-13.23,38.28-31.6,38.28-46.51,0-9.97-5.7-16.69-14.21-16.69-10.73,0-19.43,9.66-19.43,21.84,0,8.92,4.35,14.17,10.92,14.17,4.93,0,9.86-3.25,14.02-9.45l.58,.53c-4.64,7.24-11.41,11.23-17.79,11.23-8.12,0-13.82-5.99-13.82-14.28,0-6.62,3.67-13.33,10.54-18.79C47.29,3.02,54.35,.5,61.12,.5c11.12,0,18.18,7.03,18.18,17.85,0,15.54-15.37,32.13-46.02,47.56,6.67,1.68,12.28,2.83,17.21,2.83,14.6,0,23.11-7.14,33.45-23.1l.58,.32c-12.76,19.63-25.33,29.4-38.09,29.4-6.28,0-12.57-2.31-20.21-5.67-5.41,2.41-10.34,4.09-15.76,4.09Zm.29-8.92c-2.61,0-4.64,1.68-4.64,3.57,0,2.31,2.42,3.99,6.67,3.99s8.6-1.05,12.57-3.25c-6.09-2.73-10.83-4.3-14.6-4.3Z" style="fill: none; stroke: #c69d63; stroke-miterlimit: 10;"/>
      <path d="M90.32,73.79c-3.77,0-6.38-2.62-6.38-6.62,0-3.15,1.64-6.72,4.25-11.55l9.57-17.95,10.05-.63c-10.54,17.01-16.24,27.19-16.24,31.18,0,1.79,.87,2.73,2.51,2.73,4.93,0,15.28-10.5,26.39-33.28l9.47-.63c-10.34,17.74-16.44,28.14-16.44,32.65,0,1.26,.97,2.2,2.13,2.2,3.87,0,13.34-8.4,25.72-26.25l.48,.42c-12.76,18.37-22.04,27.61-28.71,27.61-3.77,0-6.09-2.73-6.09-6.61,0-2.42,.58-4.94,1.74-7.04l-.48-.42c-6.96,9.45-13.34,14.17-17.98,14.17Z" style="fill: none; stroke: #c69d63; stroke-miterlimit: 10;"/>
      <path d="M151.03,73.68c-4.83,0-7.83-3.57-7.83-9.34s2.51-12.39,6.96-17.74c5.71-6.93,13.54-10.6,19.14-10.6,4.06,0,6.87,2.31,7.64,6.4l2.13-4.51,9.67-.63c-10.44,17.22-16.34,27.4-16.34,32.02,0,1.58,.97,2.83,2.32,2.83,3.67,0,13.63-8.29,26.68-26.77l.58,.42c-13.54,18.37-22.91,28.24-31.13,28.24-3.48,0-5.8-2.62-5.8-6.51,0-.84,.1-1.68,.29-2.62-5.22,5.88-10.15,8.82-14.31,8.82Zm16.05-12.49c4.74-7.14,7.06-13.96,7.06-19,0-3.36-1.64-5.14-4.16-5.14-3.48,0-7.54,2.94-11.6,8.82-4.45,6.51-6.57,13.33-6.57,17.96,0,4.2,1.74,6.4,4.45,6.4,3.09,0,6.77-2.94,10.83-9.03Z" style="fill: none; stroke: #c69d63; stroke-miterlimit: 10;"/>
      <path d="M207.01,73.79c-3.87,0-6.09-2.31-6.09-6.51,0-3.78,3.09-10.5,8.8-20.79L233.7,3.12l10.34-.84c-3.09,5.25-6.09,10.5-8.99,15.54l-20.98,36.85c-4.06,7.14-6.09,11.86-6.09,14.17,0,1.79,.87,2.73,2.61,2.73,3.48,0,13.54-7.98,25.52-25.93l.58,.32c-12.28,18.69-22.91,27.82-29.68,27.82Z" style="fill: none; stroke: #c69d63; stroke-miterlimit: 10;"/>
      <path d="M242.59,73.79c-3.67,0-5.99-2.62-5.99-6.83,0-2.73,1.26-6.3,3.58-10.5l10.54-19.11,9.47-.32-13.92,24.36c-1.74,3.15-2.71,5.67-2.71,7.87,0,1.26,.97,2.42,2.42,2.42,4.06,0,13.73-8.08,26.1-25.83l.48,.32c-12.86,18.69-23.49,27.61-29.97,27.61Zm27.55-53.86c0,2.94-2.32,5.35-4.93,5.35s-4.93-2.52-4.93-5.35,2.22-5.35,4.93-5.35,4.93,2.42,4.93,5.35Z" style="fill: none; stroke: #c69d63; stroke-miterlimit: 10;"/>
      <path d="M278.85,73.89c-4.45,0-6.86-2.52-6.86-6.72,0-2.83,1.35-6.82,4.06-11.86l9.28-17.53h-7.15l.68-1.16h7.25l6.38-11.55,9.67-.63-6.87,12.18h11.6l-.77,1.16h-11.7l-10.73,19.63c-3,5.57-4.35,9.76-4.35,11.86,0,1.89,.87,2.83,2.51,2.83,4.93,0,15.08-8.29,27.07-26.46l.58,.42c-12.28,18.69-22.62,27.82-30.65,27.82Z" style="fill: none; stroke: #c69d63; stroke-miterlimit: 10;"/>
      <path d="M293.35,80.82c-4.64,0-8.31,4.51-8.31,10.81,0,6.62,4.16,11.23,10.44,11.23,7.64,0,15.76-5.56,23.4-16.69,6.38-9.34,10.44-18.9,14.98-26.46l-.58-.32c-7.15,9.66-13.92,14.28-18.66,14.28-3.67,0-5.99-2.62-5.99-6.51,0-4.41,2.42-8.5,5.32-13.96l8.41-15.75,9.76-.42c-10.34,17.11-15.95,27.19-15.95,30.97,0,1.79,1.16,3.04,2.71,3.04,4.35,0,15.86-10.6,26.01-33.49l8.89-.53-19.04,36.96c9.09-2.73,20.79-12.5,30.55-28.45l.68,.21c-9.67,16.06-21.37,26.25-31.9,29.61-10.15,18.9-24.75,28.56-40.03,28.56-10.73,0-16.82-5.04-16.82-12.39s4.93-11.65,13.92-11.65c1.06,0,2.42,.21,3.96,.42l-.1,.63c-.87-.11-1.35-.11-1.64-.11Z" style="fill: none; stroke: #c69d63; stroke-miterlimit: 10;"/>
    </g>
  </g>
</svg>