<?xml version="1.0" encoding="UTF-8"?>
<svg id="b" data-name="圖層 2" xmlns="http://www.w3.org/2000/svg" width="442.13" height="104.42" viewBox="0 0 442.13 104.42">
  <g id="c" data-name="圖層 1">
    <g>
      <path d="M22.06,51.63c4.35-9.03,11.02-13.96,17.4-13.96,6.77,0,10.92,4.83,10.92,11.87,0,5.77-3.19,12.28-9.09,17.43-5.8,4.93-14.02,7.98-22.24,7.98-11.12,0-18.56-7.98-18.56-20.79S8.81,25.49,23.99,13.73C35.5,4.8,47.78,.5,55.9,.5s12.86,4.72,12.86,11.44c0,8.5-8.31,16.27-17.98,16.27-6.28,0-9.86-3.25-9.86-8.4,0-1.89,.48-3.67,1.35-5.46l.48,.31c-.68,1.68-1.16,3.15-1.16,4.83,0,4.09,2.8,6.83,6.86,6.83,2.9,0,5.99-1.47,8.89-4.31,3.87-3.88,5.9-8.61,5.9-13.54,0-4.09-2.71-7.14-7.93-7.14-6.28,0-17.11,4.62-27.17,15.01C15.58,29.37,9.3,44.07,9.3,56.04c0,10.92,5.51,17.53,13.73,17.53,4.83,0,9.76-2.31,13.54-6.51,4.06-4.52,6.57-11.45,6.57-16.8,0-6.19-3.19-9.87-7.44-9.87s-9.38,3.99-13.05,11.65l-.58-.42Z" style="fill: none; stroke: #c69d63; stroke-miterlimit: 10;"/>
      <path d="M73.69,73.68c-4.83,0-7.83-3.57-7.83-9.34s2.51-12.39,6.96-17.74c5.7-6.93,13.54-10.6,19.14-10.6,4.06,0,6.86,2.31,7.64,6.4l2.13-4.51,9.67-.63c-10.44,17.22-16.34,27.4-16.34,32.02,0,1.58,.97,2.83,2.32,2.83,3.67,0,13.63-8.29,26.68-26.77l.58,.42c-13.54,18.37-22.91,28.24-31.13,28.24-3.48,0-5.8-2.62-5.8-6.51,0-.84,.1-1.68,.29-2.62-5.22,5.88-10.15,8.82-14.31,8.82Zm16.05-12.49c4.74-7.14,7.06-13.96,7.06-19,0-3.36-1.64-5.14-4.16-5.14-3.48,0-7.54,2.94-11.6,8.82-4.45,6.51-6.57,13.33-6.57,17.96,0,4.2,1.74,6.4,4.45,6.4,3.09,0,6.77-2.94,10.83-9.03Z" style="fill: none; stroke: #c69d63; stroke-miterlimit: 10;"/>
      <path d="M137.6,37.88l10.83-.73c-5.61,9.13-9.86,15.22-12.38,18.58l.48,.53c4.83-6.72,10.25-12.18,16.44-16.69,1.45-2.42,3-2.94,5.99-3.15l5.12-.42c-2.9,4.72-4.54,8.4-4.54,11.65,0,2.94,1.55,4.62,3.29,4.62,3.29,0,6.38-2,9.38-6.19l.39,.42c-3.38,5.14-8.6,7.98-13.34,7.98s-7.83-3.04-7.83-7.98c0-1.89,.29-3.67,1.06-5.46-9.38,6.4-17.21,16.69-23.98,31.18l-9.47,.74,18.56-35.07Z" style="fill: none; stroke: #c69d63; stroke-miterlimit: 10;"/>
      <path d="M185.46,74.21c-6.38,0-11.02-4.83-11.02-11.45s3.48-13.86,9.96-19.53c5.41-4.73,11.99-7.35,17.02-7.35s8.31,2.52,8.31,6.2c0,6.51-8.8,11.23-26.3,15.64-.1,.94-.29,1.89-.29,2.94,0,6.41,3.19,10.08,8.51,10.08,7.25,0,18.37-7.98,29.87-24.78l.48,.32c-12.38,18.69-25.62,27.93-36.54,27.93Zm17.02-34.44c0-1.89-.97-2.83-2.61-2.83-4.06,0-12.67,7.14-16.34,19.84,12.18-3.46,18.95-11.44,18.95-17.01Z" style="fill: none; stroke: #c69d63; stroke-miterlimit: 10;"/>
      <path d="M235.92,37.14l5.8-10.08c9.67-16.59,20.69-25.09,29.97-25.09,6.86,0,10.83,3.88,10.83,8.82,0,4.2-2.9,7.56-7.54,7.56-.87,0-1.84-.1-3-.31,1.45-3.46,2.13-6.51,2.13-9.24,0-3.57-1.35-5.46-4.16-5.46-4.45,0-11.12,7.77-19.43,23.41l-5.61,10.39h22.43l-.48,1.15h-22.53l-13.92,26.04c-13.54,25.41-28.23,37.8-47.18,37.8-10.54,0-17.4-5.56-17.4-13.65,0-7.14,5.41-12.29,13.15-12.29,1.93,0,4.06,.32,6.38,.95l-.19,1.05h-.87c-5.9,0-9.86,5.04-9.86,10.92,0,6.72,4.16,11.76,10.92,11.76,13.73,0,24.17-14.91,38.77-42l11.12-20.58h-8.22l.68-1.15h8.22Z" style="fill: none; stroke: #c69d63; stroke-miterlimit: 10;"/>
      <path d="M262.61,73.79c-3.77,0-6.38-2.62-6.38-6.62,0-3.15,1.64-6.72,4.25-11.55l9.57-17.95,10.05-.63c-10.54,17.01-16.24,27.19-16.24,31.18,0,1.79,.87,2.73,2.51,2.73,4.93,0,15.28-10.5,26.39-33.28l9.47-.63c-10.34,17.74-16.44,28.14-16.44,32.65,0,1.26,.97,2.2,2.13,2.2,3.87,0,13.34-8.4,25.72-26.25l.48,.42c-12.76,18.37-22.04,27.61-28.71,27.61-3.77,0-6.09-2.73-6.09-6.61,0-2.42,.58-4.94,1.74-7.04l-.48-.42c-6.96,9.45-13.34,14.17-17.98,14.17Z" style="fill: none; stroke: #c69d63; stroke-miterlimit: 10;"/>
      <path d="M319.46,73.79c-3.87,0-6.09-2.31-6.09-6.51,0-3.78,3.09-10.5,8.8-20.79L346.14,3.12l10.34-.84c-3.09,5.25-6.09,10.5-8.99,15.54l-20.98,36.85c-4.06,7.14-6.09,11.86-6.09,14.17,0,1.79,.87,2.73,2.61,2.73,3.48,0,13.54-7.98,25.52-25.93l.58,.32c-12.28,18.69-22.91,27.82-29.68,27.82Z" style="fill: none; stroke: #c69d63; stroke-miterlimit: 10;"/>
      <path d="M354.65,73.79c-3.87,0-6.09-2.31-6.09-6.51,0-3.78,3.09-10.5,8.8-20.79L381.33,3.12l10.34-.84c-3.09,5.25-6.09,10.5-8.99,15.54l-20.98,36.85c-4.06,7.14-6.09,11.86-6.09,14.17,0,1.79,.87,2.73,2.61,2.73,3.48,0,13.54-7.98,25.52-25.93l.58,.32c-12.28,18.69-22.91,27.82-29.68,27.82Z" style="fill: none; stroke: #c69d63; stroke-miterlimit: 10;"/>
      <path d="M368.77,80.82c-4.64,0-8.31,4.51-8.31,10.81,0,6.62,4.16,11.23,10.44,11.23,7.64,0,15.76-5.56,23.4-16.69,6.38-9.34,10.44-18.9,14.99-26.46l-.58-.32c-7.15,9.66-13.92,14.28-18.66,14.28-3.67,0-5.99-2.62-5.99-6.51,0-4.41,2.42-8.5,5.32-13.96l8.41-15.75,9.76-.42c-10.34,17.11-15.95,27.19-15.95,30.97,0,1.79,1.16,3.04,2.71,3.04,4.35,0,15.86-10.6,26.01-33.49l8.89-.53-19.05,36.96c9.09-2.73,20.79-12.5,30.55-28.45l.68,.21c-9.67,16.06-21.37,26.25-31.9,29.61-10.15,18.9-24.75,28.56-40.03,28.56-10.73,0-16.82-5.04-16.82-12.39s4.93-11.65,13.92-11.65c1.06,0,2.42,.21,3.96,.42l-.1,.63c-.87-.11-1.35-.11-1.64-.11Z" style="fill: none; stroke: #c69d63; stroke-miterlimit: 10;"/>
    </g>
  </g>
</svg>