<?xml version="1.0" encoding="UTF-8"?>
<svg id="b" data-name="圖層 2" xmlns="http://www.w3.org/2000/svg" width="73.56" height="279.26" viewBox="0 0 73.56 279.26">
  <g id="c" data-name="圖層 1">
    <g>
      <path d="M32.65,7.61S16.11-2.87,7.89,3.3c-2.2,1.65-2.75,4.42-1.18,6.66,2.02,2.87,9.69,5.4,24.02,3.11" style="fill: none; stroke: #c6bb9e; stroke-miterlimit: 10; stroke-width: 2.7px;"/>
      <path d="M41.99,7.61S58.54-2.87,66.75,3.3c2.2,1.65,2.75,4.42,1.18,6.66-2.02,2.87-9.69,5.4-24.02,3.11" style="fill: none; stroke: #c6bb9e; stroke-miterlimit: 10; stroke-width: 2.7px;"/>
      <path d="M41.99,7.61S58.54-2.87,66.75,3.3c2.2,1.65,2.75,4.42,1.18,6.66-2.02,2.87-9.69,5.4-24.02,3.11" style="fill: none; stroke: #7f292d; stroke-miterlimit: 10; stroke-width: .34px;"/>
      <line x1="37.29" y1="6.53" x2="37.29" y2="13.95" style="fill: none; stroke: #c6bb9e; stroke-linecap: round; stroke-linejoin: round; stroke-width: 1.69px;"/>
      <line x1="39.95" y1="6.53" x2="39.95" y2="13.95" style="fill: none; stroke: #c6bb9e; stroke-linecap: round; stroke-linejoin: round; stroke-width: 1.69px;"/>
      <line x1="34.63" y1="6.53" x2="34.63" y2="13.95" style="fill: none; stroke: #c6bb9e; stroke-linecap: round; stroke-linejoin: round; stroke-width: 1.69px;"/>
      <path d="M32.65,7.61S16.11-2.87,7.89,3.3c-2.2,1.65-2.75,4.42-1.18,6.66,2.02,2.87,9.69,5.4,24.02,3.11" style="fill: none; stroke: #7f292d; stroke-miterlimit: 10; stroke-width: .34px;"/>
    </g>
    <g>
      <path d="M48.52,65.8c0,2.11-.46,3.17-1.78,3.76-1.35,.66-3.37,.73-6.34,.69-.13-1.06-.76-2.74-1.25-3.76,1.85,.1,4.03,.07,4.62,.07,.63,0,.86-.2,.86-.79v-4.95h-6.96v9.21h-3.96v-9.21h-6.73c-.59,3.6-1.78,7.23-4.16,9.8-.63-.73-2.21-2.08-3.1-2.54,3.6-3.96,3.9-9.84,3.9-14.46v-11.78h24.92v23.96Zm-14.82-8.68v-4.06h-6.2v.59c0,1.06-.03,2.24-.1,3.46h6.3Zm-6.2-11.55v3.83h6.2v-3.83h-6.2Zm17.13,0h-6.96v3.83h6.96v-3.83Zm0,11.55v-4.06h-6.96v4.06h6.96Z" style="fill: #7f292d;"/>
      <path d="M26.51,117.7c-.46,4.26-1.29,9.97-2.41,13.7l-3.96-1.58c1.16-3.5,2.11-8.45,2.54-12.84l3.83,.73Zm6.2-2.67v15.31c0,1.55,.26,1.82,1.85,1.82h4.72c1.65,0,1.95-1.06,2.18-6.21,.92,.69,2.61,1.39,3.7,1.65-.46,6.27-1.52,8.22-5.58,8.22h-5.48c-4.29,0-5.48-1.32-5.48-5.48v-15.31h4.09Zm-.3-8.88c2.97,1.88,7.16,4.79,9.14,6.83l-2.9,3.07c-1.78-2.01-5.84-5.15-8.91-7.23l2.67-2.67Zm14.39,9.77c1.85,3.93,3.56,8.88,4.26,12.28l-3.99,1.65c-.5-3.37-2.21-8.58-3.93-12.44l3.66-1.49Z" style="fill: #7f292d;"/>
      <path d="M49.08,194.13c-1.55,1.02-3.37,2.05-5.05,2.84,1.91,.92,4.13,1.58,6.73,1.95-.73,.76-1.65,2.18-2.11,3.1-6.67-1.29-10.79-4.26-13.27-9.34-1.32,1.09-2.97,2.01-4.75,2.81v2.94l6.14-1.25c-.17,.86-.26,2.24-.26,2.94-7.86,1.78-9.01,2.11-9.67,2.54l-.03-.3c-.2-.79-.79-1.95-1.16-2.41,.59-.46,1.45-1.29,1.45-2.97v-.1c-1.62,.53-3.33,.92-5.02,1.22-.46-.83-1.39-2.11-2.08-2.84,3.6-.5,7.33-1.42,10.17-2.77h-9.64v-3.1h13.37c-.23-.59-.5-1.16-.76-1.68h-1.02c-.17-.76-.63-1.62-.92-2.24,.76,.03,1.52,.03,1.75,.03,.3,0,.4-.1,.4-.36v-1.39h-2.71v4.85h-3.33v-4.85h-2.54v4.09h-2.97v-6.47h5.51v-1.16h-6.83v-2.64h2.05c-.66-.4-1.52-.89-2.08-1.15,1.12-1.25,2.05-3.04,2.61-4.72l2.87,.73c-.17,.46-.33,.86-.53,1.32h1.91v-2.11h3.33v2.11h5.45v2.51h-5.45v1.32h6.34v2.64h-6.34v1.16h5.84v3.76c0,.83-.1,1.39-.43,1.75l.76-.2c.5,.79,.96,1.82,1.29,2.71h12.11v3.1h-3.33l2.21,1.65Zm-21.78-16.57v-1.32h-3.17c-.26,.46-.56,.92-.86,1.32h4.03Zm15.05,6.57h-3.5v-10.89h3.5v10.89Zm-3.43,8.35c.66,1.02,1.49,1.88,2.38,2.67,1.52-.79,3.17-1.78,4.39-2.67h-6.77Zm9.9-7.43c0,1.68-.33,2.48-1.52,3-1.16,.5-2.81,.53-5.05,.53-.2-.96-.73-2.25-1.16-3.1,1.49,.07,3.07,.07,3.53,.03,.46,0,.63-.13,.63-.56v-13.07h3.56v13.17Z" style="fill: #7f292d;"/>
      <path d="M31,238.94c-.86,2.31-1.95,4.65-3.17,6.87v22.61h-3.96v-16.5c-.69,.83-1.39,1.65-2.05,2.38-.36-.96-1.48-3.2-2.18-4.19,3-2.97,5.88-7.66,7.53-12.34l3.83,1.19Zm10.46,7.79v3.47h8.55v3.56h-8.55v3.73h8.98v3.63h-8.98v7.33h-4.03v-21.72h-1.25c-1.32,2.44-2.84,4.69-4.32,6.4-.63-.73-2.18-2.11-3-2.74,2.9-2.97,5.51-7.72,7-12.44l3.8,.96c-.46,1.39-.99,2.74-1.62,4.09h12.81v3.73h-9.37Z" style="fill: #7f292d;"/>
    </g>
    <line x1="72.06" y1="34.33" x2="72.06" y2="277.76" style="fill: none; stroke: #c6bb9e; stroke-linecap: square; stroke-linejoin: round; stroke-width: 3px;"/>
    <line x1="66.74" y1="34.33" x2="66.74" y2="277.76" style="fill: none; stroke: #c6bb9e; stroke-linecap: square; stroke-linejoin: round; stroke-width: .75px;"/>
    <line x1="1.5" y1="277.76" x2="1.5" y2="34.33" style="fill: none; stroke: #c6bb9e; stroke-linecap: square; stroke-linejoin: round; stroke-width: 3px;"/>
    <line x1="6.82" y1="277.76" x2="6.82" y2="34.33" style="fill: none; stroke: #c6bb9e; stroke-linecap: square; stroke-linejoin: round; stroke-width: .75px;"/>
  </g>
</svg>