<?xml version="1.0" encoding="UTF-8"?>
<svg id="b" data-name="圖層 2" xmlns="http://www.w3.org/2000/svg" width="225.08" height="48.19" viewBox="0 0 225.08 48.19">
  <g id="c" data-name="圖層 1">
    <g>
      <g>
        <path d="M61.24,17.42s-.02,.59-.02,.83c-.32,7.69-.59,10.39-1.24,11.23-.38,.52-.74,.7-1.28,.79-.49,.07-1.22,.07-2,.04-.02-.49-.22-1.22-.49-1.71,.7,.05,1.33,.07,1.66,.07,.27,0,.43-.07,.63-.32,.45-.54,.76-2.92,1.01-9.29h-2.2c-.22,4.5-.86,8.84-3.06,11.63-.31-.41-.88-.92-1.33-1.19,2.02-2.45,2.57-6.37,2.74-10.44h-2.3v-1.64h2.36c.02-1.06,.02-2.14,.02-3.17h1.69c0,1.03-.02,2.11-.04,3.17h3.85Zm7.51-1.08v13.94h-1.73v-1.15h-3.01v1.3h-1.66v-14.08h6.39Zm-1.73,11.18v-9.56h-3.01v9.56h3.01Z" style="fill: #89202a;"/>
        <path d="M87.56,15.25c0,3.26,.41,9.94,7.27,13.99-.38,.29-1.06,1.01-1.35,1.42-4.09-2.47-6.01-6.14-6.9-9.45-1.33,4.34-3.58,7.49-6.91,9.49-.32-.34-1.1-1.04-1.55-1.35,3.87-2,6.05-5.55,7.09-10.42l.92,.16c-.13-.76-.2-1.5-.23-2.14h-4.29v-1.69h5.94Z" style="fill: #89202a;"/>
        <path d="M106.53,26.84c-.45,1.48-1.22,2.95-2.03,3.91-.29-.25-.92-.67-1.26-.86,.81-.85,1.48-2.11,1.82-3.4l1.48,.36Zm2.88-.63h-5.24V14.87h5.24v11.34Zm-1.51-9.98h-2.27v2h2.27v-2Zm0,3.28h-2.27v2.04h2.27v-2.04Zm0,3.29h-2.27v2.05h2.27v-2.05Zm.59,3.66c.58,.88,1.21,2.05,1.49,2.83l-1.31,.63c-.23-.77-.88-2.02-1.44-2.92l1.26-.54Zm11.42,1.35h-.95v1.3c0,.74-.16,1.13-.68,1.37-.54,.23-1.37,.23-2.61,.23-.05-.38-.25-.97-.45-1.35,.83,.04,1.66,.04,1.89,.02,.25,0,.31-.07,.31-.29v-1.28h-5.2v2.93h-1.49v-2.93h-1.06v-1.22h1.06v-4.56h3.31v-.86h-4.3v-1.24h2.43v-.95h-1.62v-1.19h1.62v-.88h-2.07v-1.24h2.07v-1.46h1.48v1.46h2.3v-1.46h1.49v1.46h2.07v1.24h-2.07v.88h1.78v1.19h-1.78v.95h2.45v1.24h-4.38v.86h3.46v4.56h.95v1.22Zm-7.71-4.54v1.06h1.82v-1.06h-1.82Zm0,3.31h1.82v-1.15h-1.82v1.15Zm1.42-8.8h2.3v-.88h-2.3v.88Zm0,2.14h2.3v-.95h-2.3v.95Zm1.87,3.35v1.06h1.91v-1.06h-1.91Zm1.91,3.31v-1.15h-1.91v1.15h1.91Z" style="fill: #89202a;"/>
        <path d="M135.46,23.6c-.7,.23-1.4,.45-2.11,.67v6.45h-1.55v-5.96l-2.83,.86-.43-1.6c.9-.23,2.03-.54,3.26-.88v-3.78h-1.44c-.22,.95-.47,1.82-.74,2.5-.27-.22-.88-.58-1.22-.76,.63-1.46,.95-3.73,1.13-5.87l1.42,.23c-.09,.77-.18,1.55-.31,2.3h1.15v-3.57h1.55v3.57h1.67v1.58h-1.67v3.31l1.89-.54,.22,1.48Zm9.54-6.5s0,.58-.02,.79c-.4,8.08-.74,10.93-1.44,11.81-.38,.54-.74,.7-1.31,.79-.49,.09-1.24,.07-2.03,.04-.02-.49-.2-1.17-.47-1.64,.76,.07,1.42,.07,1.76,.07,.29,0,.47-.07,.65-.32,.52-.59,.9-3.15,1.22-9.99h-.5c-.92,4.65-2.84,9.38-5.76,11.72-.32-.31-.92-.74-1.39-.99,2.9-2.07,4.79-6.37,5.69-10.73h-1.21c-.79,3.02-2.36,6.32-4.27,8.01-.31-.31-.85-.72-1.3-.96,1.85-1.44,3.33-4.29,4.16-7.06h-1.28c-.56,1.3-1.21,2.43-1.94,3.31-.27-.23-.94-.74-1.3-.96,1.46-1.58,2.48-4.14,3.08-6.81l1.51,.29c-.2,.9-.47,1.78-.74,2.61h6.88Z" style="fill: #89202a;"/>
        <path d="M170.16,28.21h-7.29v2.56h-1.73v-2.56h-7.11v-1.51h7.11v-1.24h-5.28v-7.06h5.28v-1.12h-6.59v-1.53h6.59v-1.55h1.73v1.55h6.7v1.53h-6.7v1.12h5.4v7.06h-5.4v1.24h7.29v1.51Zm-12.68-6.93h3.66v-1.5h-3.66v1.5Zm3.66,2.81v-1.53h-3.66v1.53h3.66Zm1.73-4.3v1.5h3.73v-1.5h-3.73Zm3.73,2.77h-3.73v1.53h3.73v-1.53Z" style="fill: #89202a;"/>
      </g>
      <rect x="219.69" y="42.8" width="4.47" height="4.47" transform="translate(33.16 170.11) rotate(-45)" style="fill: #950a25;"/>
      <g>
        <line x1=".5" y1="45.03" x2="221.92" y2="45.03" style="fill: none; stroke: #8e1d26; stroke-miterlimit: 10;"/>
        <line x1=".5" y1=".5" x2="221.92" y2=".5" style="fill: none; stroke: #8e1d26; stroke-miterlimit: 10;"/>
        <line x1="221.92" y1="3.85" x2="221.92" y2="38.94" style="fill: none; stroke: #8e1d26; stroke-miterlimit: 10;"/>
        <line x1=".5" y1="3.85" x2=".5" y2="38.94" style="fill: none; stroke: #8e1d26; stroke-miterlimit: 10;"/>
      </g>
    </g>
  </g>
</svg>