<?xml version="1.0" encoding="UTF-8"?>
<svg id="b" data-name="圖層 2" xmlns="http://www.w3.org/2000/svg" width="328.86" height="57.71" viewBox="0 0 328.86 57.71">
  <g id="c" data-name="頁面">
    <g>
      <path d="M98.69,20.92s-.02,.73-.02,1.01c-.4,9.4-.73,12.7-1.52,13.73-.46,.64-.9,.86-1.56,.97-.59,.09-1.5,.09-2.44,.04-.02-.59-.26-1.5-.59-2.09,.86,.07,1.63,.09,2.02,.09,.33,0,.53-.09,.77-.4,.55-.66,.92-3.56,1.23-11.35h-2.68c-.26,5.5-1.06,10.8-3.74,14.21-.37-.51-1.08-1.12-1.63-1.45,2.46-2.99,3.15-7.79,3.34-12.76h-2.82v-2h2.88c.02-1.3,.02-2.62,.02-3.87h2.07c0,1.25-.02,2.57-.04,3.87h4.71Zm9.18-1.32v17.03h-2.11v-1.41h-3.67v1.58h-2.02V19.6h7.81Zm-2.11,13.66v-11.68h-3.67v11.68h3.67Z" style="fill: #89202a;"/>
      <path d="M130.85,18.26c0,3.98,.51,12.15,8.89,17.1-.46,.35-1.3,1.23-1.65,1.74-5-3.01-7.35-7.5-8.43-11.55-1.63,5.3-4.38,9.15-8.45,11.6-.4-.42-1.34-1.28-1.89-1.65,4.73-2.44,7.39-6.78,8.67-12.74l1.12,.2c-.15-.92-.24-1.83-.29-2.62h-5.24v-2.07h7.26Z" style="fill: #89202a;"/>
      <path d="M154.04,32.43c-.55,1.8-1.5,3.61-2.49,4.78-.35-.31-1.12-.81-1.54-1.06,.99-1.03,1.8-2.57,2.22-4.16l1.8,.44Zm3.52-.77h-6.4v-13.86h6.4v13.86Zm-1.85-12.19h-2.77v2.44h2.77v-2.44Zm0,4h-2.77v2.49h2.77v-2.49Zm0,4.03h-2.77v2.51h2.77v-2.51Zm.73,4.47c.7,1.08,1.47,2.51,1.83,3.45l-1.61,.77c-.29-.95-1.08-2.46-1.76-3.56l1.54-.66Zm13.95,1.65h-1.17v1.58c0,.9-.2,1.39-.84,1.67-.66,.29-1.67,.29-3.19,.29-.07-.46-.31-1.19-.55-1.65,1.01,.04,2.02,.04,2.31,.02,.31,0,.37-.09,.37-.35v-1.56h-6.36v3.59h-1.83v-3.59h-1.3v-1.5h1.3v-5.57h4.05v-1.06h-5.26v-1.52h2.97v-1.17h-1.98v-1.45h1.98v-1.08h-2.53v-1.52h2.53v-1.78h1.8v1.78h2.82v-1.78h1.83v1.78h2.53v1.52h-2.53v1.08h2.18v1.45h-2.18v1.17h2.99v1.52h-5.35v1.06h4.22v5.57h1.17v1.5Zm-9.42-5.54v1.3h2.22v-1.3h-2.22Zm0,4.05h2.22v-1.41h-2.22v1.41Zm1.74-10.76h2.82v-1.08h-2.82v1.08Zm0,2.62h2.82v-1.17h-2.82v1.17Zm2.29,4.09v1.3h2.33v-1.3h-2.33Zm2.33,4.05v-1.41h-2.33v1.41h2.33Z" style="fill: #89202a;"/>
      <path d="M189.39,28.47c-.86,.29-1.72,.55-2.57,.81v7.88h-1.89v-7.28l-3.45,1.06-.53-1.96c1.1-.29,2.49-.66,3.98-1.08v-4.62h-1.76c-.26,1.17-.57,2.22-.9,3.06-.33-.26-1.08-.7-1.5-.92,.77-1.78,1.17-4.55,1.39-7.17l1.74,.29c-.11,.95-.22,1.89-.37,2.82h1.41v-4.36h1.89v4.36h2.05v1.94h-2.05v4.05l2.31-.66,.26,1.8Zm11.66-7.94s0,.7-.02,.97c-.48,9.88-.9,13.36-1.76,14.43-.46,.66-.9,.86-1.61,.97-.59,.11-1.52,.09-2.49,.04-.02-.59-.24-1.43-.57-2,.92,.09,1.74,.09,2.16,.09,.35,0,.57-.09,.79-.4,.64-.73,1.1-3.85,1.5-12.21h-.62c-1.12,5.68-3.48,11.46-7.04,14.32-.4-.37-1.12-.9-1.69-1.21,3.54-2.53,5.85-7.79,6.95-13.11h-1.47c-.97,3.7-2.88,7.72-5.21,9.79-.37-.37-1.03-.88-1.58-1.17,2.27-1.76,4.07-5.24,5.08-8.63h-1.56c-.68,1.58-1.47,2.97-2.38,4.05-.33-.29-1.14-.9-1.58-1.17,1.78-1.94,3.04-5.06,3.76-8.32l1.85,.35c-.24,1.1-.57,2.18-.9,3.19h8.41Z" style="fill: #89202a;"/>
      <path d="M231.81,34.1h-8.91v3.12h-2.11v-3.12h-8.69v-1.85h8.69v-1.52h-6.45v-8.62h6.45v-1.36h-8.05v-1.87h8.05v-1.89h2.11v1.89h8.18v1.87h-8.18v1.36h6.6v8.62h-6.6v1.52h8.91v1.85Zm-15.49-8.47h4.47v-1.83h-4.47v1.83Zm4.47,3.43v-1.87h-4.47v1.87h4.47Zm2.11-5.26v1.83h4.55v-1.83h-4.55Zm4.55,3.39h-4.55v1.87h4.55v-1.87Z" style="fill: #89202a;"/>
    </g>
    <rect x="321.21" y="50.05" width="6.34" height="6.34" transform="translate(57.38 244.96) rotate(-45)" style="fill: #950a25;"/>
    <line x1="1.23" y1="53.22" x2="324.38" y2="53.22" style="fill: none; stroke: #8e1d26; stroke-miterlimit: 10; stroke-width: .75px;"/>
    <line x1=".63" y1=".25" x2="324.38" y2=".25" style="fill: none; stroke: #8e1d26; stroke-miterlimit: 10; stroke-width: .5px;"/>
    <line x1="324.38" y1="6.91" x2="324.38" y2="45.46" style="fill: none; stroke: #8e1d26; stroke-miterlimit: 10; stroke-width: .5px;"/>
    <line x1=".25" y1="6.91" x2=".25" y2="45.46" style="fill: none; stroke: #8e1d26; stroke-miterlimit: 10; stroke-width: .5px;"/>
  </g>
</svg>