<?xml version="1.0" encoding="UTF-8"?>
<svg id="b" data-name="圖層 2" xmlns="http://www.w3.org/2000/svg" width="225.08" height="48.19" viewBox="0 0 225.08 48.19">
  <g id="c" data-name="設計按鈕">
    <g>
      <g>
        <path d="M69.44,20.57c-.4-.99-1.35-2.52-2.23-3.62l1.46-.63c.94,1.06,1.89,2.5,2.34,3.51l-1.57,.74Zm11.52,9.79c0,.88-.16,1.37-.79,1.62-.61,.27-1.57,.31-2.95,.31-.05-.47-.31-1.19-.54-1.6,.99,.04,1.98,.02,2.27,.02,.29-.02,.38-.11,.38-.36v-7.81h-10.42v9.79h-1.66v-11.36h5.94v-5.15h1.71v5.15h6.07v9.4Zm-8.64-1.08v1.15h-1.53v-6.36h6.57v5.2h-5.04Zm0-3.8v2.39h3.49v-2.39h-3.49Zm8.66-8.7c-.81,1.33-1.8,2.83-2.61,3.78l-1.39-.58c.79-.99,1.78-2.61,2.32-3.82l1.67,.61Z" style="fill: #a48b78;"/>
        <path d="M100.99,24.67c1.6,2.18,4.2,4.25,6.64,5.31-.4,.34-.92,1.01-1.22,1.44-2.27-1.13-4.57-3.17-6.29-5.4v6.28h-1.76v-6.21c-1.71,2.21-4.02,4.16-6.27,5.31-.29-.41-.85-1.06-1.22-1.42,2.45-1.08,5.02-3.13,6.61-5.31h-6.09v-1.66h6.97v-2.74h-5.67v-1.66h5.67v-2.83h1.76v2.83h5.82v1.66h-5.82v2.74h7.08v1.66h-6.21Z" style="fill: #a48b78;"/>
        <path d="M118.72,22.65v9.67h-1.66v-15.81h6.68v6.14h-5.02Zm0-4.9v1.21h3.46v-1.21h-3.46Zm3.46,3.67v-1.31h-3.46v1.31h3.46Zm4.77,6.7v3.87h-1.49v-3.87h-2.18c-.14,1.21-.72,3.04-2.36,4.14-.23-.31-.74-.76-1.08-.99,1.33-.81,1.84-2.16,1.98-3.15h-2.05v-1.39h2.11v-1.71h-1.78v-1.33h8.73v1.33h-1.87v1.71h2.23v1.39h-2.23Zm-1.49-1.39v-1.71h-2.14v1.71h2.14Zm6.5,3.53c0,.92-.18,1.41-.77,1.69-.58,.27-1.48,.32-2.83,.31-.05-.45-.29-1.21-.54-1.66,.92,.02,1.84,.02,2.12,.02,.27-.02,.36-.11,.36-.38v-7.56h-5.17v-6.18h6.82v13.76Zm-5.22-12.51v1.21h3.56v-1.21h-3.56Zm3.56,3.71v-1.35h-3.56v1.35h3.56Z" style="fill: #a48b78;"/>
        <path d="M148.4,30.76c-1.53,.65-3.85,1.26-5.67,1.58-.29-.31-.83-.9-1.21-1.15,1.91-.23,4.12-.63,5.44-1.1l1.44,.67Zm.4-12.91h-6.79v-1.15h6.79v-.9h1.64v.9h6.91v1.15h-6.91v.72h5.83v1.04h-13v-1.04h5.53v-.72Zm7.8,5.38h-13.72v-2.99h13.72v2.99Zm-12.68,6.77v-6.14h11.74v6.14h-11.74Zm3.01-8.77h-2.56v1.01h2.56v-1.01Zm-1.37,4.38h8.41v-.79h-8.41v.79Zm0,1.71h8.41v-.81h-8.41v.81Zm0,1.75h8.41v-.83h-8.41v.83Zm5.4-7.83h-2.66v1.01h2.66v-1.01Zm1.39,8.91c1.96,.43,4.2,1.03,5.53,1.46l-1.96,.79c-1.08-.43-3.01-.99-4.99-1.44l1.42-.81Zm2.68-8.91h-2.72v1.01h2.72v-1.01Z" style="fill: #a48b78;"/>
      </g>
      <g>
        <rect x="219.69" y="42.8" width="4.47" height="4.47" transform="translate(33.16 170.11) rotate(-45)" style="fill: #a48b78;"/>
        <g>
          <line x1=".5" y1="45.03" x2="221.92" y2="45.03" style="fill: none; stroke: #a48b78; stroke-miterlimit: 10;"/>
          <line x1=".5" y1=".5" x2="221.92" y2=".5" style="fill: none; stroke: #a48b78; stroke-miterlimit: 10;"/>
          <line x1="221.92" y1="3.85" x2="221.92" y2="38.94" style="fill: none; stroke: #a48b78; stroke-miterlimit: 10;"/>
          <line x1=".5" y1="3.85" x2=".5" y2="38.94" style="fill: none; stroke: #a48b78; stroke-miterlimit: 10;"/>
        </g>
      </g>
    </g>
  </g>
</svg>