<?xml version="1.0" encoding="UTF-8"?>
<svg id="b" data-name="圖層 2" xmlns="http://www.w3.org/2000/svg" width="328.86" height="57.71" viewBox="0 0 328.86 57.71">
  <g id="c" data-name="設計按鈕">
    <g>
      <path d="M113.57,24.69c-.47-1.17-1.59-2.97-2.63-4.27l1.72-.74c1.1,1.25,2.23,2.95,2.76,4.14l-1.85,.87Zm13.59,11.55c0,1.04-.19,1.62-.93,1.91-.72,.32-1.85,.36-3.48,.36-.06-.55-.36-1.4-.64-1.89,1.17,.04,2.34,.02,2.68,.02,.34-.02,.45-.13,.45-.42v-9.22h-12.3v11.55h-1.95v-13.4h7.01v-6.08h2.02v6.08h7.16v11.09Zm-10.2-1.27v1.36h-1.81v-7.5h7.75v6.14h-5.95Zm0-4.48v2.83h4.12v-2.83h-4.12Zm10.22-10.26c-.96,1.57-2.12,3.33-3.08,4.46l-1.64-.68c.94-1.17,2.1-3.08,2.74-4.5l1.98,.72Z" style="fill: #a48b78;"/>
      <path d="M150.81,29.53c1.89,2.57,4.95,5.01,7.84,6.27-.47,.4-1.08,1.19-1.44,1.7-2.68-1.34-5.4-3.74-7.41-6.37v7.41h-2.08v-7.33c-2.02,2.61-4.74,4.91-7.39,6.27-.34-.49-1-1.25-1.44-1.68,2.89-1.27,5.93-3.7,7.79-6.27h-7.18v-1.96h8.22v-3.23h-6.69v-1.95h6.69v-3.33h2.08v3.33h6.86v1.95h-6.86v3.23h8.35v1.96h-7.33Z" style="fill: #a48b78;"/>
      <path d="M171.73,27.15v11.41h-1.95V19.91h7.88v7.24h-5.93Zm0-5.78v1.42h4.08v-1.42h-4.08Zm4.08,4.33v-1.55h-4.08v1.55h4.08Zm5.63,7.9v4.57h-1.76v-4.57h-2.57c-.17,1.42-.85,3.59-2.78,4.88-.28-.36-.87-.89-1.27-1.17,1.57-.96,2.17-2.55,2.34-3.72h-2.42v-1.64h2.49v-2.02h-2.1v-1.57h10.3v1.57h-2.21v2.02h2.63v1.64h-2.63Zm-1.76-1.64v-2.02h-2.53v2.02h2.53Zm7.67,4.16c0,1.08-.21,1.66-.91,2-.68,.32-1.74,.38-3.33,.36-.06-.53-.34-1.42-.64-1.95,1.08,.02,2.17,.02,2.51,.02,.32-.02,.42-.13,.42-.45v-8.92h-6.1v-7.29h8.05v16.23Zm-6.16-14.76v1.42h4.21v-1.42h-4.21Zm4.21,4.38v-1.59h-4.21v1.59h4.21Z" style="fill: #a48b78;"/>
      <path d="M206.75,36.71c-1.8,.76-4.54,1.49-6.69,1.87-.34-.36-.98-1.06-1.42-1.36,2.25-.28,4.86-.74,6.41-1.3l1.7,.79Zm.47-15.23h-8.01v-1.36h8.01v-1.06h1.93v1.06h8.16v1.36h-8.16v.85h6.88v1.23h-15.33v-1.23h6.52v-.85Zm9.2,6.35h-16.19v-3.53h16.19v3.53Zm-14.95,7.99v-7.24h13.85v7.24h-13.85Zm3.55-10.34h-3.02v1.19h3.02v-1.19Zm-1.61,5.16h9.92v-.93h-9.92v.93Zm0,2.02h9.92v-.96h-9.92v.96Zm0,2.06h9.92v-.98h-9.92v.98Zm6.37-9.24h-3.14v1.19h3.14v-1.19Zm1.64,10.51c2.31,.51,4.95,1.21,6.52,1.72l-2.32,.93c-1.27-.51-3.55-1.17-5.88-1.7l1.68-.96Zm3.16-10.51h-3.21v1.19h3.21v-1.19Z" style="fill: #a48b78;"/>
    </g>
    <g>
      <rect x="321.21" y="50.05" width="6.34" height="6.34" transform="translate(57.38 244.96) rotate(-45)" style="fill: #a48b78;"/>
      <line x1="1.23" y1="53.22" x2="324.38" y2="53.22" style="fill: none; stroke: #a48b78; stroke-miterlimit: 10; stroke-width: .5px;"/>
      <line x1=".63" y1=".25" x2="324.38" y2=".25" style="fill: none; stroke: #a48b78; stroke-miterlimit: 10; stroke-width: .5px;"/>
      <line x1="324.38" y1="6.91" x2="324.38" y2="45.46" style="fill: none; stroke: #a48b78; stroke-miterlimit: 10; stroke-width: .5px;"/>
      <line x1=".25" y1="6.91" x2=".25" y2="45.46" style="fill: none; stroke: #a48b78; stroke-miterlimit: 10; stroke-width: .5px;"/>
    </g>
  </g>
</svg>