<?xml version="1.0" encoding="UTF-8"?>
<svg id="b" data-name="圖層 2" xmlns="http://www.w3.org/2000/svg" width="93.14" height="17.39" viewBox="0 0 93.14 17.39">
  <g id="c" data-name="圖層 2">
    <g>
      <polyline points="88.95 17 1.98 17 13.36 12.37" style="fill: none; stroke: #80292d; stroke-miterlimit: 10; stroke-width: .77px;"/>
      <rect x="88.95" y="12.37" width="4.19" height="4.19" style="fill: #80292d;"/>
    </g>
    <g>
      <path d="M29.99,6.81c-.34,1.41-.85,2.88-1.45,4.02,.24,.15,.51,.36,.9,.6,1.02,.63,2.4,.72,4.14,.72,1.83,0,4.33-.14,6-.35-.17,.39-.41,1.07-.42,1.44-1.15,.08-3.87,.17-5.64,.17-1.95,0-3.22-.17-4.32-.79-.6-.35-1.14-.87-1.46-.87s-.85,.97-1.24,1.89l-.94-1.3c.61-.81,1.24-1.46,1.78-1.7,.4-.78,.79-1.81,1.05-2.82h-2.04c.38-.87,.82-2.07,1.21-3.21h-1.79v-1.26h3.5c-.35,1.03-.79,2.23-1.19,3.25h1.06l.21-.06,.63,.27Zm-2.49-4.02c-.18-.64-.56-1.67-.79-2.44l1.27-.34c.27,.76,.63,1.72,.83,2.35l-1.31,.43Zm4.67,2c-.06,2.07-.33,4.7-1.32,6.57-.27-.23-.87-.56-1.21-.69,1.1-2.04,1.2-4.89,1.2-6.84V.54h7.57V1.8h-6.23v1.74h5.19l.25-.04,.87,.3c-.38,1.68-1.04,3.11-1.89,4.26,.95,.84,1.8,1.66,2.35,2.32l-1.03,.96c-.51-.63-1.29-1.44-2.18-2.28-.97,1-2.11,1.77-3.36,2.29-.17-.36-.52-.9-.79-1.19,1.16-.42,2.23-1.11,3.15-2.04-.76-.67-1.54-1.33-2.25-1.9l.92-.81c.68,.53,1.41,1.12,2.15,1.74,.52-.71,.93-1.5,1.26-2.37h-4.65Z" style="fill: #80292d;"/>
      <path d="M75.99,.36V13.56h-1.5v-.81h-9.58v.81h-1.44V.36h12.52Zm-1.5,11.08V1.78h-9.58V11.44h9.58Zm-1.86-7.6v5.5h-5.91V3.84h5.91Zm-1.4,1.23h-3.19v3.06h3.19v-3.06Z" style="fill: #80292d;"/>
    </g>
  </g>
</svg>