<?xml version="1.0" encoding="UTF-8"?>
<svg id="b" data-name="圖層 2" xmlns="http://www.w3.org/2000/svg" width="184.64" height="25.94" viewBox="0 0 184.64 25.94">
  <g id="c" data-name="圖層 1">
    <g>
      <g>
        <path d="M60.95,9.08c-.46,1.88-1.14,3.84-1.94,5.36,.32,.2,.68,.48,1.2,.8,1.36,.84,3.2,.96,5.52,.96,2.44,0,5.78-.18,8-.46-.22,.52-.54,1.42-.56,1.92-1.54,.1-5.16,.22-7.52,.22-2.6,0-4.3-.22-5.76-1.06-.8-.46-1.52-1.16-1.94-1.16s-1.14,1.3-1.66,2.52l-1.26-1.74c.82-1.08,1.66-1.94,2.38-2.26,.54-1.04,1.06-2.42,1.4-3.76h-2.72c.5-1.16,1.1-2.76,1.62-4.28h-2.38v-1.68h4.66c-.46,1.38-1.06,2.98-1.58,4.34h1.42l.28-.08,.84,.36Zm-3.32-5.36c-.24-.86-.74-2.22-1.06-3.26l1.7-.46c.36,1.02,.84,2.3,1.1,3.14l-1.74,.58Zm6.22,2.66c-.08,2.76-.44,6.26-1.76,8.76-.36-.3-1.16-.74-1.62-.92,1.46-2.72,1.6-6.52,1.6-9.12V.72h10.1v1.68h-8.3v2.32h6.92l.34-.06,1.16,.4c-.5,2.24-1.38,4.14-2.52,5.68,1.26,1.12,2.4,2.22,3.14,3.1l-1.38,1.28c-.68-.84-1.72-1.92-2.9-3.04-1.3,1.34-2.82,2.36-4.48,3.06-.22-.48-.7-1.2-1.06-1.58,1.54-.56,2.98-1.48,4.2-2.72-1.02-.9-2.06-1.78-3-2.54l1.22-1.08c.9,.7,1.88,1.5,2.86,2.32,.7-.94,1.24-2,1.68-3.16h-6.2Z" style="fill: #80292d;"/>
        <path d="M139.29,.48V18.08h-2v-1.08h-12.78v1.08h-1.92V.48h16.7Zm-2,14.78V2.38h-12.78V15.26h12.78Zm-2.48-10.14v7.34h-7.88V5.12h7.88Zm-1.86,1.64h-4.26v4.08h4.26V6.76Z" style="fill: #80292d;"/>
      </g>
      <g>
        <polyline points="175.96 24.99 4.39 24.99 26.85 14.83" style="fill: none; stroke: #8a202a; stroke-miterlimit: 10; stroke-width: 1.9px;"/>
        <rect x="175.96" y="14.83" width="8.68" height="9.21" style="fill: #8a202a;"/>
      </g>
    </g>
  </g>
</svg>