<?xml version="1.0" encoding="UTF-8"?>
<svg id="b" data-name="圖層 2" xmlns="http://www.w3.org/2000/svg" width="180.1" height="62.53" viewBox="0 0 180.1 62.53">
  <g id="c" data-name="圖層 1">
    <g>
      <g>
        <line x1="179.68" y1="62.11" x2="7.12" y2="62.11" style="fill: none; stroke: #c7ba99; stroke-miterlimit: 10; stroke-width: .84px;"/>
        <line x1="179.68" y1="58.93" x2="7.12" y2="58.93" style="fill: none; stroke: #c7ba99; stroke-miterlimit: 10; stroke-width: .84px;"/>
        <line x1="172.68" y1="55.76" x2="7.12" y2="55.76" style="fill: none; stroke: #c7ba99; stroke-miterlimit: 10; stroke-width: .84px;"/>
        <line x1="175.42" y1="55.76" x2="175.42" style="fill: none; stroke: #c7ba99; stroke-miterlimit: 10; stroke-width: .84px;"/>
        <line x1="177.55" y1="55.76" x2="177.55" style="fill: none; stroke: #c7ba99; stroke-miterlimit: 10; stroke-width: .84px;"/>
        <line x1="179.68" y1="55.76" x2="179.68" style="fill: none; stroke: #c7ba99; stroke-miterlimit: 10; stroke-width: .84px;"/>
        <line x1=".42" y1="62.49" x2=".42" y2="6.73" style="fill: none; stroke: #c7ba99; stroke-miterlimit: 10; stroke-width: .84px;"/>
        <line x1="2.55" y1="62.49" x2="2.55" y2="6.73" style="fill: none; stroke: #c7ba99; stroke-miterlimit: 10; stroke-width: .84px;"/>
        <line x1="4.68" y1="62.49" x2="4.68" y2="6.73" style="fill: none; stroke: #c7ba99; stroke-miterlimit: 10; stroke-width: .84px;"/>
        <line x1="172.68" y1="7.25" x2="7.12" y2="7.25" style="fill: none; stroke: #c7ba99; stroke-miterlimit: 10; stroke-width: .84px;"/>
        <line x1="172.68" y1="4.08" x2=".42" y2="4.08" style="fill: none; stroke: #c7ba99; stroke-miterlimit: 10; stroke-width: .84px;"/>
        <line x1="172.68" y1=".91" x2=".42" y2=".91" style="fill: none; stroke: #c7ba99; stroke-miterlimit: 10; stroke-width: .84px;"/>
      </g>
      <g>
        <path d="M26.15,24.01h4.22v1.82h-8.93v-1.82h4.37c-.29-.82-.91-1.97-1.51-2.86l1.68-.82c.7,.86,1.42,2.09,1.68,2.9l-1.51,.77Zm-3.86,6.84h7.58v1.75h-7.58v-1.75Zm7.56-3.36v1.75h-7.22v-1.75h7.22Zm0,13.37h-5.11v1.15h-2.02v-7.87h7.13v6.72Zm-5.11-5.02v3.31h3.05v-3.31h-3.05Zm18.6,3.41v2.11h-12.72v-2.11h5.02v-5.67h-4.22v-2.06h4.22v-4.63h-4.63v-2.09h5.38c-.43-1.03-1.39-2.52-2.28-3.6l1.73-.94c.94,1.08,2.02,2.62,2.47,3.62l-1.54,.91h6.12v2.09h-5.02v4.63h4.46v2.06h-4.46v5.67h5.47Z" style="fill: #80292d;"/>
        <path d="M72.21,32.46h-2.14v7.32c0,1.06-.17,1.7-.84,2.11-.65,.36-1.61,.41-3,.41-.07-.58-.38-1.58-.7-2.18,.86,.05,1.7,.05,1.97,.05,.26-.02,.36-.12,.36-.43v-7.27h-3.12v9.55h-2.09v-9.55h-3.05v9.55h-2.06v-9.55h-2.9v9.91h-2.21v-9.91h-2.3v-2.21h2.3v-8.54h17.64v8.54h2.14v2.21Zm-14.67-2.21v-6.36h-2.9v6.36h2.9Zm5.11,0v-6.36h-3.05v6.36h3.05Zm5.21,0v-6.36h-3.12v6.36h3.12Z" style="fill: #80292d;"/>
        <path d="M82.88,35.6c-.6,1.68-1.56,3.6-2.42,4.82-.36-.29-1.08-.82-1.54-1.06,.89-1.13,1.7-2.76,2.21-4.3l1.75,.53Zm3.1-1.56v8.14h-2.16v-8.14h-4.61v-1.9h4.61v-2.18h-4.75v-1.87h2.62c-.1-.82-.43-2.06-.84-3l1.82-.46c.38,.94,.77,2.16,.89,2.95l-1.78,.5h3.79c.43-1.01,.94-2.47,1.18-3.48l2.06,.43c-.41,1.06-.82,2.16-1.22,3.05h2.81v1.87h-4.42v2.18h4.08v1.9h-4.08Zm4.03-9.46h-10.56v-1.85h4.39c-.26-.67-.58-1.44-.86-2.04l2.21-.58c.41,.82,.89,1.82,1.2,2.62h3.62v1.85Zm-1.7,10.3c.79,1.13,1.61,2.64,1.99,3.6l-1.56,.94c-.38-1.01-1.2-2.57-1.92-3.72l1.49-.82Zm12.63-4.56h-2.45v11.88h-2.18v-11.88h-2.81v.58c0,3.46-.31,8.26-2.45,11.31-.34-.41-1.25-1.08-1.7-1.32,1.9-2.78,2.06-6.84,2.06-9.99v-8.3c2.66-.46,5.62-1.2,7.34-1.94l1.75,1.63c-1.97,.77-4.56,1.34-7.01,1.78v4.2h7.44v2.06Z" style="fill: #80292d;"/>
        <path d="M120.4,20.86c-.12,.14-.22,.31-.36,.46,2.23,2.06,6.29,3.89,10.03,4.68-.46,.38-1.08,1.18-1.42,1.7-.58-.17-1.2-.36-1.8-.58v6.22h-16.23v-6.05c-.6,.22-1.18,.41-1.78,.58-.19-.41-.82-1.32-1.2-1.7,4.34-1.1,8.59-3.19,10.78-6l1.97,.7Zm6.36,6.24c-1.3-.46-2.62-1.01-3.84-1.7v.7h-8.3v-.58c-1.1,.62-2.28,1.13-3.48,1.58h15.63Zm-14.76,7.2h13.68v7.9h-2.28v-.65h-9.19v.74h-2.21v-7.99Zm3.26-5.59c.53,.82,1.06,1.92,1.22,2.64l-1.58,.53h2.83v-3.31h-5.21v3.31h2.3c-.17-.74-.62-1.85-1.13-2.69l1.56-.48Zm-1.06,7.13v1.32h9.19v-1.32h-9.19Zm9.19,4.2v-1.34h-9.19v1.34h9.19Zm-1.9-15.48c-.98-.6-1.87-1.3-2.64-2.02-.77,.72-1.68,1.42-2.62,2.02h5.26Zm3.38,4.01h-5.33v3.31h2.69l-1.49-.46c.43-.77,.94-1.99,1.2-2.81l1.87,.53c-.53,1.03-1.06,2.04-1.49,2.74h2.54v-3.31Z" style="fill: #80292d;"/>
        <path d="M151.57,38.29c2.4,.7,5.28,1.73,7.08,2.5l-1.97,1.56c-1.8-.82-5.04-2.04-7.56-2.76l1.75-1.3h-6.94l1.68,1.13c-1.92,1.15-4.99,2.3-7.44,2.9-.41-.46-1.13-1.2-1.68-1.61,2.28-.53,5.09-1.51,6.67-2.42h-4.15v-10.39h17.14v10.39h-4.58Zm3.65-11.55h-15.17v-5.62h15.17v5.62Zm-13.99,4.13h12.6v-1.37h-12.6v1.37Zm0,2.9h12.6v-1.39h-12.6v1.39Zm0,2.9h12.6v-1.42h-12.6v1.42Zm11.64-13.78h-10.58v2.06h10.58v-2.06Z" style="fill: #80292d;"/>
      </g>
    </g>
  </g>
</svg>