<?xml version="1.0" encoding="UTF-8"?>
<svg id="b" data-name="圖層 2" xmlns="http://www.w3.org/2000/svg" width="179.64" height="59.63" viewBox="0 0 179.64 59.63">
  <g id="c" data-name="圖層 1">
    <g>
      <g>
        <rect x="4.62" y="5.98" width="170.4" height="48.41" style="fill: #80292d;"/>
        <g>
          <line x1="179.27" y1="59.26" x2="4.77" y2="59.26" style="fill: none; stroke: #80292d; stroke-miterlimit: 10; stroke-width: .74px;"/>
          <line x1="179.27" y1="53.15" x2="179.27" y2=".72" style="fill: none; stroke: #80292d; stroke-miterlimit: 10; stroke-width: .74px;"/>
          <line x1=".37" y1="59.63" x2=".37" y2="5.97" style="fill: none; stroke: #80292d; stroke-miterlimit: 10; stroke-width: .74px;"/>
          <line x1="174.84" y1=".37" x2=".37" y2=".37" style="fill: none; stroke: #80292d; stroke-miterlimit: 10; stroke-width: .74px;"/>
        </g>
      </g>
      <g>
        <path d="M60.12,29.41c-.55,2.23-1.37,4.56-2.3,6.36,.38,.24,.82,.58,1.44,.96,1.63,1.01,3.84,1.15,6.62,1.15,2.93,0,6.94-.22,9.6-.55-.26,.62-.62,1.7-.65,2.3-1.87,.12-6.22,.26-9.05,.26-3.12,0-5.16-.26-6.91-1.27-.96-.55-1.82-1.39-2.33-1.39s-1.37,1.56-1.99,3.02l-1.51-2.09c.98-1.3,1.97-2.33,2.86-2.71,.65-1.25,1.27-2.9,1.68-4.51h-3.26c.6-1.39,1.32-3.31,1.94-5.14h-2.86v-2.02h5.59c-.55,1.66-1.27,3.58-1.9,5.21h1.7l.34-.1,.98,.43v-1.82h6v-3.1h-5.38v-2.02h3.29c-.46-.96-1.22-2.4-1.9-3.48l1.9-.74c.7,1.1,1.61,2.62,2.06,3.53l-1.58,.7h4.3c.79-1.27,1.66-3,2.16-4.3l2.26,.7c-.7,1.2-1.46,2.52-2.16,3.6h3.24v2.02h-5.88v3.1h6.62v2.04h-6.53c2.04,1.85,4.58,4.13,5.9,5.54l-1.58,1.58c-1.13-1.34-3.34-3.48-5.26-5.28-.89,1.9-2.64,3.82-5.98,5.33-.34-.48-1.03-1.27-1.56-1.7,3.89-1.51,5.3-3.55,5.78-5.47h-5.71v-.14Zm-3.98-6.5c-.26-1.03-.86-2.67-1.25-3.91l2.04-.58c.41,1.22,1.01,2.79,1.32,3.79l-2.11,.7Z" style="fill: #fff8eb;"/>
        <path d="M117.65,29.98v10.13h-2.47v-1.32h-16.66v-8.81h2.5v6.58h5.81v-7.97h-7.15v-8.4h2.35v6.24h4.8v-8.3h2.47v8.3h4.94v-6.24h2.47v8.4h-7.42v7.97h5.88v-6.58h2.47Z" style="fill: #fff8eb;"/>
      </g>
    </g>
  </g>
</svg>