<?xml version="1.0" encoding="UTF-8"?>
<svg id="b" data-name="圖層 2" xmlns="http://www.w3.org/2000/svg" width="179.64" height="59.63" viewBox="0 0 179.64 59.63">
  <g id="c" data-name="圖層 1">
    <g>
      <g>
        <rect x="4.62" y="5.98" width="170.4" height="48.41" style="fill: #80292d;"/>
        <g>
          <line x1="179.27" y1="59.26" x2="4.77" y2="59.26" style="fill: none; stroke: #80292d; stroke-miterlimit: 10; stroke-width: .74px;"/>
          <line x1="179.27" y1="53.15" x2="179.27" y2=".72" style="fill: none; stroke: #80292d; stroke-miterlimit: 10; stroke-width: .74px;"/>
          <line x1=".37" y1="59.63" x2=".37" y2="5.97" style="fill: none; stroke: #80292d; stroke-miterlimit: 10; stroke-width: .74px;"/>
          <line x1="174.84" y1=".37" x2=".37" y2=".37" style="fill: none; stroke: #80292d; stroke-miterlimit: 10; stroke-width: .74px;"/>
        </g>
      </g>
      <g>
        <path d="M78.52,23.13c-1.03,.94-2.33,1.94-3.46,2.74,1.3,1.06,2.74,1.97,4.3,2.57-.5,.43-1.18,1.3-1.54,1.9-2.06-.94-3.94-2.33-5.54-4.03v1.06h-8.42v-1.06c-1.73,1.8-3.77,3.22-5.83,4.2-.26-.48-.91-1.25-1.34-1.66,1.54-.65,3.12-1.68,4.51-2.9-.74-.74-1.87-1.63-2.86-2.26l1.22-1.22c1.03,.58,2.21,1.44,2.95,2.18,.84-.94,1.56-1.92,2.14-2.95h-6.17v-1.82h7.22l.38-.1,1.49,.72c-.7,1.85-1.73,3.5-2.95,4.97h6.91c-1.46-1.73-2.66-3.67-3.58-5.81l1.94-.6c.41,.94,.89,1.85,1.49,2.71,.98-.79,2.11-1.8,2.81-2.57l1.68,1.18c-1.08,.96-2.38,1.99-3.5,2.78,.46,.53,.89,1.06,1.39,1.56,1.1-.86,2.33-1.92,3.1-2.76l1.66,1.18Zm-5.06,12.7c-.46,.94-.96,1.9-1.42,2.71h6.46v1.92h-20.95v-1.92h6.24c-.19-.79-.7-1.82-1.15-2.62l1.99-.65c.58,.84,1.15,2.02,1.37,2.81l-1.3,.46h5.11c.53-.94,1.15-2.3,1.49-3.24l2.16,.53Zm1.34-.58h-13.83v-6.19h13.83v6.19Zm-2.38-4.39h-9.22v2.59h9.22v-2.59Z" style="fill: #fff8eb;"/>
        <path d="M113.27,20.35c0,4.34,.55,13.25,9.7,18.65-.5,.38-1.42,1.34-1.8,1.9-5.45-3.29-8.02-8.18-9.19-12.6-1.78,5.78-4.78,9.98-9.22,12.65-.43-.46-1.46-1.39-2.06-1.8,5.16-2.66,8.06-7.39,9.46-13.9l1.22,.22c-.17-1.01-.26-1.99-.31-2.86h-5.71v-2.26h7.92Z" style="fill: #fff8eb;"/>
      </g>
    </g>
  </g>
</svg>