<?xml version="1.0" encoding="UTF-8"?>
<svg id="b" data-name="圖層 2" xmlns="http://www.w3.org/2000/svg" width="179.64" height="59.63" viewBox="0 0 179.64 59.63">
  <g id="c" data-name="圖層 1">
    <g>
      <g>
        <rect x="4.62" y="5.98" width="170.4" height="48.41" style="fill: #80292d;"/>
        <g>
          <line x1="179.27" y1="59.26" x2="4.77" y2="59.26" style="fill: none; stroke: #80292d; stroke-miterlimit: 10; stroke-width: .74px;"/>
          <line x1="179.27" y1="53.15" x2="179.27" y2=".72" style="fill: none; stroke: #80292d; stroke-miterlimit: 10; stroke-width: .74px;"/>
          <line x1=".37" y1="59.63" x2=".37" y2="5.97" style="fill: none; stroke: #80292d; stroke-miterlimit: 10; stroke-width: .74px;"/>
          <line x1="174.84" y1=".37" x2=".37" y2=".37" style="fill: none; stroke: #80292d; stroke-miterlimit: 10; stroke-width: .74px;"/>
        </g>
      </g>
      <g>
        <path d="M50.18,37.62v1.8H28.74v-1.8h9.46v-1.7h-7.68v-1.75h7.68v-1.37h-6.94v-7.46h6.94v-1.22h-9.34v-1.78h9.34v-1.42c-2.4,.14-4.85,.22-7.08,.26-.02-.53-.29-1.3-.46-1.75,5.52-.14,12.12-.58,15.99-1.25l1.13,1.75c-2.06,.36-4.63,.62-7.34,.82v1.58h9.58v1.78h-9.58v1.22h7.32v7.46h-7.32v1.37h8.21v1.75h-8.21v1.7h9.75Zm-16.73-9.26h4.75v-1.49h-4.75v1.49Zm4.75,2.88v-1.46h-4.75v1.46h4.75Zm2.23-4.37v1.49h5.04v-1.49h-5.04Zm5.04,2.9h-5.04v1.46h5.04v-1.46Z" style="fill: #fff8eb;"/>
        <path d="M63.57,33.42c-.6,1.68-1.56,3.6-2.42,4.82-.36-.29-1.08-.82-1.54-1.06,.89-1.13,1.7-2.76,2.21-4.3l1.75,.53Zm3.1-1.56v8.14h-2.16v-8.14h-4.61v-1.9h4.61v-2.18h-4.75v-1.87h2.62c-.1-.82-.43-2.06-.84-3l1.82-.46c.38,.94,.77,2.16,.89,2.95l-1.78,.5h3.79c.43-1.01,.94-2.47,1.18-3.48l2.06,.43c-.41,1.06-.82,2.16-1.22,3.05h2.81v1.87h-4.42v2.18h4.08v1.9h-4.08Zm4.03-9.46h-10.56v-1.85h4.39c-.26-.67-.58-1.44-.86-2.04l2.21-.58c.41,.82,.89,1.82,1.2,2.62h3.62v1.85Zm-1.7,10.3c.79,1.13,1.61,2.64,1.99,3.6l-1.56,.94c-.38-1.01-1.2-2.57-1.92-3.72l1.49-.82Zm12.62-4.56h-2.45v11.88h-2.18v-11.88h-2.81v.58c0,3.46-.31,8.26-2.45,11.31-.34-.41-1.25-1.08-1.7-1.32,1.9-2.78,2.06-6.84,2.06-9.99v-8.3c2.66-.46,5.62-1.2,7.34-1.94l1.75,1.63c-1.97,.77-4.56,1.34-7.01,1.78v4.2h7.44v2.06Z" style="fill: #fff8eb;"/>
        <path d="M109.62,33.2h3.24v1.78h-3.24v2.98c0,1.08-.22,1.63-1.03,1.9-.79,.31-2.04,.31-3.82,.31-.1-.58-.38-1.34-.65-1.9,1.3,.05,2.52,.05,2.9,.02,.34,0,.43-.1,.43-.41v-2.9h-6.22c1.01,.86,2.16,2.04,2.71,2.86l-1.73,1.18c-.58-.89-1.85-2.28-2.93-3.26l1.27-.77h-3.6v-1.78h10.49v-1.32c-3.65,.12-7.18,.22-9.82,.26l-.19-1.73c1.75,0,4.03-.02,6.5-.07v-1.25h-5.42v-6.43h5.42v-1.15h-6.38v-1.49c-.55,1.32-1.2,2.62-1.9,3.86v16.2h-2.11v-12.89c-.67,.91-1.37,1.75-2.06,2.5-.22-.53-.86-1.73-1.22-2.26,2.26-2.23,4.39-5.74,5.69-9.24l2.09,.62c-.12,.34-.26,.67-.41,1.01h6.31v-1.54h2.18v1.54h6.48v1.68h-6.48v1.15h5.64v6.43h-1.46c1.06,.86,2.14,1.92,2.71,2.66l-1.58,.98c-.22-.29-.48-.62-.79-.98l-1.03,.05v1.39Zm-9.05-7.97h3.38v-1.25h-3.38v1.25Zm3.38,2.54v-1.27h-3.38v1.27h3.38Zm2.18-3.79v1.25h3.48v-1.25h-3.48Zm3.48,3.79v-1.27h-3.48v1.27h3.48Zm-3.48,2.54l3-.05c-.38-.36-.77-.7-1.15-1.01l.29-.17h-2.14v1.22Z" style="fill: #fff8eb;"/>
        <path d="M128.82,29.41c-.55,2.23-1.37,4.56-2.3,6.36,.38,.24,.82,.58,1.44,.96,1.63,1.01,3.84,1.15,6.62,1.15,2.93,0,6.94-.22,9.6-.55-.26,.62-.62,1.7-.65,2.3-1.87,.12-6.22,.26-9.05,.26-3.12,0-5.16-.26-6.91-1.27-.96-.55-1.82-1.39-2.33-1.39s-1.37,1.56-1.99,3.02l-1.51-2.09c.98-1.3,1.97-2.33,2.86-2.71,.65-1.25,1.27-2.9,1.68-4.51h-3.26c.6-1.39,1.32-3.31,1.94-5.14h-2.86v-2.02h5.59c-.55,1.66-1.27,3.58-1.9,5.21h1.7l.34-.1,.98,.43v-1.82h6v-3.1h-5.38v-2.02h3.29c-.46-.96-1.22-2.4-1.9-3.48l1.9-.74c.7,1.1,1.61,2.62,2.06,3.53l-1.58,.7h4.3c.79-1.27,1.66-3,2.16-4.3l2.26,.7c-.7,1.2-1.46,2.52-2.16,3.6h3.24v2.02h-5.88v3.1h6.62v2.04h-6.53c2.04,1.85,4.58,4.13,5.9,5.54l-1.58,1.58c-1.13-1.34-3.34-3.48-5.26-5.28-.89,1.9-2.64,3.82-5.98,5.33-.34-.48-1.03-1.27-1.56-1.7,3.89-1.51,5.3-3.55,5.78-5.47h-5.71v-.14Zm-3.98-6.5c-.26-1.03-.86-2.67-1.25-3.91l2.04-.58c.41,1.22,1.01,2.79,1.32,3.79l-2.11,.7Z" style="fill: #fff8eb;"/>
      </g>
    </g>
  </g>
</svg>