<?xml version="1.0" encoding="UTF-8"?>
<svg id="b" data-name="圖層 2" xmlns="http://www.w3.org/2000/svg" width="179.64" height="59.63" viewBox="0 0 179.64 59.63">
  <g id="c" data-name="圖層 1">
    <g>
      <rect x="4.62" y="5.98" width="170.4" height="48.41" style="fill: #80292d;"/>
      <g>
        <line x1="179.27" y1="59.26" x2="4.77" y2="59.26" style="fill: none; stroke: #80292d; stroke-miterlimit: 10; stroke-width: .74px;"/>
        <line x1="179.27" y1="53.15" x2="179.27" y2=".72" style="fill: none; stroke: #80292d; stroke-miterlimit: 10; stroke-width: .74px;"/>
        <line x1=".37" y1="59.63" x2=".37" y2="5.97" style="fill: none; stroke: #80292d; stroke-miterlimit: 10; stroke-width: .74px;"/>
        <line x1="174.84" y1=".37" x2=".37" y2=".37" style="fill: none; stroke: #80292d; stroke-miterlimit: 10; stroke-width: .74px;"/>
      </g>
      <g>
        <path d="M62.77,21.82h4.22v1.82h-8.93v-1.82h4.37c-.29-.82-.91-1.97-1.51-2.86l1.68-.82c.7,.86,1.42,2.09,1.68,2.9l-1.51,.77Zm-3.86,6.84h7.58v1.75h-7.58v-1.75Zm7.56-3.36v1.75h-7.22v-1.75h7.22Zm0,13.37h-5.11v1.15h-2.02v-7.87h7.13v6.72Zm-5.11-5.02v3.31h3.05v-3.31h-3.05Zm18.6,3.41v2.11h-12.72v-2.11h5.02v-5.67h-4.22v-2.06h4.22v-4.63h-4.63v-2.09h5.38c-.43-1.03-1.39-2.52-2.28-3.6l1.73-.94c.94,1.08,2.02,2.62,2.47,3.62l-1.54,.91h6.12v2.09h-5.02v4.63h4.46v2.06h-4.46v5.67h5.47Z" style="fill: #fff8eb;"/>
        <path d="M123.83,30.27h-2.14v7.32c0,1.06-.17,1.7-.84,2.11-.65,.36-1.61,.41-3,.41-.07-.58-.38-1.58-.7-2.18,.86,.05,1.7,.05,1.97,.05,.26-.02,.36-.12,.36-.43v-7.27h-3.12v9.55h-2.09v-9.55h-3.05v9.55h-2.06v-9.55h-2.9v9.91h-2.21v-9.91h-2.3v-2.21h2.3v-8.54h17.64v8.54h2.14v2.21Zm-14.67-2.21v-6.36h-2.9v6.36h2.9Zm5.11,0v-6.36h-3.05v6.36h3.05Zm5.21,0v-6.36h-3.12v6.36h3.12Z" style="fill: #fff8eb;"/>
      </g>
    </g>
  </g>
</svg>