<?xml version="1.0" encoding="UTF-8"?>
<svg id="b" data-name="圖層 2" xmlns="http://www.w3.org/2000/svg" width="46.03" height="46.03" viewBox="0 0 46.03 46.03">
  <g id="c" data-name="圖層 1">
    <g>
      <rect x="0" y="0" width="46.03" height="46.03" rx="4.13" ry="4.13" style="fill: #762f30;"/>
      <path d="M38.36,20.85c0-6.87-6.88-12.45-15.35-12.45S7.67,13.98,7.67,20.85c0,6.16,5.46,11.31,12.83,12.29,.5,.11,1.18,.33,1.35,.76,.15,.39,.1,1,.05,1.39,0,0-.18,1.08-.22,1.31-.07,.39-.31,1.52,1.33,.83,1.64-.69,8.84-5.2,12.06-8.91h0c2.22-2.44,3.29-4.91,3.29-7.66Zm-20.76,3.67c0,.16-.13,.29-.29,.29h-4.31c-.16,0-.29-.13-.29-.29h0v-6.7c0-.16,.13-.29,.29-.29h1.09c.16,0,.29,.13,.29,.29v5.32h2.93c.16,0,.29,.13,.29,.29v1.09Zm2.6,0c0,.16-.13,.29-.29,.29h-1.09c-.16,0-.29-.13-.29-.29v-6.7c0-.16,.13-.29,.29-.29h1.09c.16,0,.29,.13,.29,.29v6.7Zm7.41,0c0,.16-.13,.29-.29,.29h-1.08s-.05,0-.08-.01c0,0,0,0,0,0,0,0-.01,0-.02,0,0,0,0,0,0,0,0,0,0,0-.01,0,0,0,0,0-.01,0,0,0,0,0,0,0,0,0-.01,0-.02-.01,0,0,0,0,0,0-.03-.02-.05-.04-.08-.07l-3.07-4.14v3.98c0,.16-.13,.29-.29,.29h-1.09c-.16,0-.29-.13-.29-.29v-6.7c0-.16,.13-.29,.29-.29h1.08s0,0,.01,0c0,0,.01,0,.02,0,0,0,.01,0,.02,0,0,0,0,0,.01,0,0,0,.01,0,.02,0,0,0,0,0,.01,0,0,0,.01,0,.02,0,0,0,0,0,0,0,0,0,.01,0,.02,0,0,0,0,0,0,0,0,0,.01,0,.02,0,0,0,0,0,0,0,0,0,.01,0,.02,.01h0s.01,.01,.02,.02h0s.01,.02,.02,.02c0,0,0,0,0,0,0,0,.02,.02,.02,.03l3.06,4.14v-3.98c0-.16,.13-.29,.29-.29h1.09c.16,0,.29,.13,.29,.29v6.7Zm5.94-5.61c0,.16-.13,.29-.29,.29h-2.93v1.13h2.93c.16,0,.29,.13,.29,.29v1.09c0,.16-.13,.29-.29,.29h-2.93v1.13h2.93c.16,0,.29,.13,.29,.29v1.09c0,.16-.13,.29-.29,.29h-4.31c-.16,0-.29-.13-.29-.29h0v-6.69h0c0-.17,.13-.3,.29-.3h4.31c.16,0,.29,.13,.29,.29v1.09Z" style="fill: #fdf6e9;"/>
    </g>
  </g>
</svg>