<?xml version="1.0" encoding="UTF-8"?>
<svg id="b" data-name="圖層 2" xmlns="http://www.w3.org/2000/svg" width="267.4" height="83.14" viewBox="0 0 267.4 83.14">
  <g id="c" data-name="圖層 1">
    <g>
      <path d="M6.47,57.62h5.81v2.51H0v-2.51H6.01c-.4-1.12-1.25-2.71-2.08-3.93l2.31-1.12c.96,1.19,1.95,2.87,2.31,3.99l-2.08,1.06Zm-5.31,9.41H11.58v2.41H1.15v-2.41Zm10.4-4.62v2.41H1.62v-2.41H11.55Zm0,18.38H4.52v1.58H1.75v-10.83H11.55v9.24Zm-7.03-6.9v4.55h4.19v-4.55H4.52Zm25.58,4.69v2.9H12.61v-2.9h6.9v-7.79h-5.81v-2.84h5.81v-6.37h-6.37v-2.87h7.39c-.59-1.42-1.91-3.46-3.14-4.95l2.38-1.29c1.29,1.48,2.77,3.6,3.4,4.98l-2.11,1.25h8.42v2.87h-6.9v6.37h6.14v2.84h-6.14v7.79h7.52Z" style="fill: #80292d;"/>
      <path d="M69.8,69.24h-2.94v10.07c0,1.45-.23,2.34-1.16,2.91-.89,.5-2.21,.56-4.13,.56-.1-.79-.53-2.18-.96-3,1.19,.07,2.34,.07,2.71,.07,.36-.03,.5-.17,.5-.59v-10h-4.29v13.14h-2.87v-13.14h-4.19v13.14h-2.84v-13.14h-3.99v13.63h-3.04v-13.63h-3.17v-3.04h3.17v-11.75h24.26v11.75h2.94v3.04Zm-20.17-3.04v-8.75h-3.99v8.75h3.99Zm7.03,0v-8.75h-4.19v8.75h4.19Zm7.16,0v-8.75h-4.29v8.75h4.29Z" style="fill: #80292d;"/>
      <path d="M107.15,63.76c-1.39,4.26-3.33,7.99-5.74,11.16,1.12,2.81,2.41,4.52,3.8,4.52,.86,0,1.25-1.68,1.45-5.94,.73,.73,1.82,1.42,2.64,1.72-.5,5.81-1.62,7.36-4.32,7.36-2.41,0-4.32-1.85-5.81-4.95-1.88,1.98-3.96,3.66-6.24,5.05-.46-.66-1.55-1.95-2.24-2.51,2.74-1.52,5.18-3.43,7.19-5.78-1.19-3.73-1.95-8.45-2.34-13.6h-10.56v3.99h8.28v1.19c-.17,7.16-.33,10-1.02,10.92-.59,.69-1.22,.96-2.11,1.06-.83,.13-2.31,.13-3.89,.07-.07-.89-.36-2.08-.83-2.87,1.35,.13,2.64,.17,3.17,.17,.46,0,.79-.1,1.02-.4,.36-.46,.56-2.34,.66-7.33h-5.28c-.03,4.69-.59,11.29-3.5,15.54-.53-.63-1.88-1.72-2.57-2.11,2.64-3.96,2.87-9.64,2.87-13.9v-9.34h13.57c-.1-1.72-.17-3.5-.17-5.25h3.23c-.03,1.78,0,3.53,.1,5.25h6.37c-1.29-1.09-3.43-2.51-5.18-3.47l1.85-1.88c1.95,1.02,4.42,2.54,5.71,3.66l-1.58,1.68h3.37v3h-10.36c.33,3.93,.86,7.49,1.62,10.43,1.58-2.44,2.81-5.18,3.76-8.22l3.1,.76Z" style="fill: #80292d;"/>
      <path d="M131.94,73.4c-4.42,1.29-9.14,2.61-12.64,3.6l-.76-3.2c1.39-.26,3.14-.69,5.02-1.19v-13.47h-4.59v-2.91h12.11v2.91h-4.49v12.67l4.95-1.32,.4,2.9Zm16.24-12.18c-.5,13.4-.86,18.19-2.11,19.7-.76,.99-1.52,1.32-2.67,1.45-1.09,.13-2.94,.13-4.75,.03-.07-.86-.43-2.18-.99-3,1.88,.13,3.63,.17,4.39,.17,.59,0,.96-.1,1.32-.53,.89-.99,1.35-5.31,1.75-16.34h-5.64c-.53,8.75-2.44,15.94-9.8,20.17-.43-.83-1.42-1.92-2.18-2.48,6.73-3.63,8.45-9.9,8.91-17.69h-4.95v-2.94h5.08c.07-2.18,.07-4.39,.07-6.73h3.1c0,2.31-.03,4.55-.1,6.73h8.58v1.45Z" style="fill: #80292d;"/>
      <path d="M161.54,72.25c2.54-.96,4.03-2.48,4.19-4.46-.13,.03-.3,.03-.46,.03-1.49,0-2.77-.92-2.77-2.64s1.29-2.64,2.81-2.64c2.08,0,3.17,1.62,3.17,4.12,0,3.66-2.31,6.5-6.07,7.72l-.86-2.15Z" style="fill: #80292d;"/>
      <path d="M205.43,63.43c0,1.19-.03,2.48-.13,3.89,1.02,5.68,3.1,10.76,6.67,13.07-.66,.59-1.55,1.72-1.98,2.57-2.64-2.01-4.46-5.41-5.68-9.54-.89,3.27-2.48,6.63-5.31,9.54-.36-.56-1.19-1.35-1.88-1.82v.1h-10.69v1.55h-2.41v-10.69c-.53,.69-1.06,1.39-1.58,1.91-.26-.46-.96-1.62-1.39-2.08,1.75-1.75,3.43-4.29,4.42-6.87h-2.94v-6.01h6.57v6.01h-3.5l2.05,.63c-.26,.63-.53,1.22-.86,1.85h3.6c-.26-.56-.56-1.12-.86-1.62l1.98-.79c.53,.73,1.06,1.68,1.32,2.41h4.52v2.15h-4.69v1.65h4.03v2.05h-4.03v1.72h4.22v2.01h-4.22v1.95h4.46v1.52c5.21-5.54,5.61-12.51,5.61-17.23v-1.92h2.71v1.98Zm-19.77-6.77h-4.39v-2.28h4.39v-1.91h2.61v6.01h-2.61v-1.82Zm-1.22,6.73h2.67v-2.64h-2.67v2.64Zm5.71,6.3h-3.73v1.65h3.73v-1.65Zm0,3.7h-3.73v1.72h3.73v-1.72Zm-3.73,5.68h3.73v-1.95h-3.73v1.95Zm10.76-13.99h-6.5v-6.01h6.5v6.01Zm-3.07-6.6h-2.64v-6.01h2.64v1.91h4.32v2.24h-4.32v1.85Zm1.12,2.31h-2.67v2.58h2.67v-2.58Zm6.73-.63c-.76,2.97-1.68,5.64-2.84,7.66-.53-.5-1.75-1.45-2.41-1.88,2.01-3.17,3.14-8.25,3.73-13.47l2.84,.46c-.2,1.52-.43,3-.69,4.46h6.83l.46-.13,1.88,.59c-.63,3.04-1.49,6.53-2.34,8.75l-2.24-.73c.49-1.49,1.02-3.6,1.45-5.71h-6.67Z" style="fill: #80292d;"/>
      <path d="M229.52,68.05c-.63,2.94-1.52,6.04-2.67,8.51,.59,.36,1.32,.89,2.38,1.55,2.31,1.39,5.31,1.58,9.21,1.58s9.54-.3,13.2-.76c-.36,.83-.86,2.34-.89,3.17-2.57,.17-8.61,.36-12.44,.36-4.36,0-7.2-.36-9.57-1.75-1.35-.76-2.54-1.88-3.23-1.88-.76,0-1.88,2.11-2.81,4.13l-2.05-2.84c1.12-1.48,2.28-2.77,3.33-3.43,.86-1.78,1.62-4.13,2.15-6.4h-4.22c.79-1.95,1.78-4.62,2.61-7.2h-3.33v-2.77h7.13c-.73,2.34-1.65,5.05-2.48,7.33h1.85l.46-.13,1.39,.53Zm-4.92-9.11c-.4-1.45-1.19-3.76-1.72-5.51l2.71-.83c.59,1.72,1.39,3.93,1.78,5.35l-2.77,.99Zm14.06,10.59c0,.83,.07,2.05,.17,2.74-6.07,1.88-7.1,2.34-7.72,2.8-.2-.69-.73-1.88-1.19-2.41,.56-.33,1.32-1.06,1.32-2.44v-14.52c2.31-.83,4.95-2.11,6.47-3.23l2.18,2.28h10.03v16.8c0,1.35-.26,2.11-1.15,2.57-.92,.46-2.24,.5-4.16,.5-.13-.73-.53-1.91-.92-2.61,1.29,.03,2.54,.03,2.87,0,.4,0,.53-.13,.53-.5v-14.16h-4.49v20.92h-2.81v-23.47c-1.68,.92-3.73,1.78-5.71,2.48v13.53l4.59-1.29Z" style="fill: #80292d;"/>
      <path d="M262.32,77.99c0-1.55,1.09-2.71,2.51-2.71s2.57,1.16,2.57,2.71-1.12,2.64-2.57,2.64-2.51-1.09-2.51-2.64Zm.73-18.75l-.1-3.89h3.83l-.13,3.89-.53,13.2h-2.54l-.53-13.2Z" style="fill: #80292d;"/>
    </g>
    <g>
      <path d="M75.53,.32c-6.6,3.2-7.2,17.52-12.32,24.68l.08,.08c5.88-5.08,11.52-11.16,14.08-14.6,.8-1.08,1.44-2.72,2-3.76,2-3.8,6.28-6.48,7.32-6.48,.4,0,.6,.2,.6,.6,0,.76-2.2,1.92-3.36,3.36-4.12,5.16-3.2,14.68-9.2,22.68l.08,.08c7.68-4.16,19.76-13.64,20.2-22.84-.68-.32-1.2-.92-1.2-1.68,0-1.2,.84-2.2,2.08-2.2,1.72,0,2.4,1.44,2.4,3,0,9.96-20.44,23.4-27,25.88l-.36-.24c3.76-5.36,4.72-11.96,6.6-17.72l-.08-.08c-3.36,4.48-9.44,10.52-14.68,15.04-1.84,1.6-2.64,2.76-4.2,2.76-.28,0-.56-.2-.56-.52,0-1,1.92-.64,3.08-3.64,3.32-8.52,3.4-17.6,10.56-22.96l-.08-.08c-4.68,1.6-15.48,3.72-15.48,10.12,0,1.56,1.08,3,2.72,3,2.68,0,3.84-2.24,3.84-5.6h.48c0,3.28-1.2,6.32-5.08,6.32-2.2,0-4.28-1.52-4.28-3.88,0-7,10.8-7.64,21.6-11.64l.16,.32Z" style="fill: #80292d;"/>
      <path d="M114.77,18c-1.64,2.2-3.44,4.4-6.04,6.76-3.68,3.32-7.12,4.36-10.08,4.36s-4.92-2-4.92-4.88c0-5.12,6.92-10.48,11.92-10.48,2.28,0,3.64,.92,3.64,2.52,0,3.88-8.72,5.56-11.52,6.16-.12,.48-.2,.96-.2,1.44,0,2.28,1.36,3.88,3.64,3.88s5.04-1.4,7.76-3.92c2.08-1.96,4.08-4.28,5.52-6.12l.28,.28Zm-9.76-3.76c-2.68,0-6.48,5.12-7.16,7.8,4.36-.88,8.24-4.16,8.24-6.76,0-.72-.44-1.04-1.08-1.04Z" style="fill: #80292d;"/>
      <path d="M132.29,.52l-12.36,19.68c-2.08,3.32-3.4,5.52-3.4,6.88,0,.68,.28,1.08,.88,1.08,1.12,0,3.2-1.32,5.36-3.48,2-2,4-4.36,5.88-6.8l.36,.12c-1.32,1.76-3.36,4.36-5.16,6.2-3.12,3.16-5.24,4.68-7.8,4.68-1.8,0-2.72-.8-2.72-2.4,0-1.48,1.08-3.6,3.36-7.4L127.85,.76l4.44-.24Z" style="fill: #80292d;"/>
      <path d="M149.41,18.16c-3.92,4.84-9.2,10.96-15.92,10.96-3.2,0-4.96-1.8-4.96-5.12,0-5.12,6.68-10.24,12-10.24,2.44,0,4,1.12,4,2.56,0,2.08-1.72,3.28-3.36,3.28-.4,0-.72-.04-.92-.08,.36-1.24,.92-2.52,.92-3.8,0-.92-.48-1.48-1.2-1.48-2.8,0-7.6,4.8-7.6,9.88,0,2.04,1.32,3.64,3.48,3.64,5.24,0,10.56-6.6,13.2-9.76l.36,.16Z" style="fill: #80292d;"/>
      <path d="M172.57,18.12c-1.08,1.36-2.56,2.72-4.32,2.72-1.24,0-2.08-.56-2.84-1.52-1.24,5.32-6.16,9.8-11.72,9.8-2.92,0-4.84-1.8-4.84-4.72,0-5.68,6.44-10.64,11.76-10.64,2.84,0,4.56,1.8,4.92,3.96,.28,1.6,1.24,2.64,2.72,2.64s2.64-.84,4.08-2.56l.24,.32Zm-10.4-1.76c0-1.32-.56-2.12-1.76-2.12-4.04,0-8.2,8.92-8.2,12.28,0,1.32,.56,2.12,1.76,2.12,4.04,0,8.2-8.92,8.2-12.28Z" style="fill: #80292d;"/>
      <path d="M186.85,21.04c2.04-2.56,5.72-7.28,9.28-7.28,1.72,0,2.84,1.28,2.84,2.64,0,3.6-5.68,7.8-5.68,10.72,0,.6,.28,1.04,.84,1.04,1.12,0,2.88-1.24,5.36-3.72,2.04-2.04,4.08-4.44,5.52-6.32l.32,.16c-1.24,1.56-3.36,4.24-5.64,6.52-3.04,3.04-4.68,4.08-6.64,4.08s-2.96-1.16-2.96-2.76c0-3.44,5.68-8.2,5.68-10.24,0-.76-.52-1.16-1.08-1.16-3.44,0-10.2,10.28-12.04,13.6l-4.24,.16c3.64-5.72,7.24-10.52,7.24-12.48,0-.64-.36-1.28-1.16-1.28-3.36,0-10.32,10.28-12.2,13.6l-4.04,.16c2.92-4.68,5.84-9.36,8.6-14.16l4.68-.24-5.32,7.28,.08,.08c2.24-2.6,5.64-7.68,9.88-7.68,1.48,0,2.68,.8,2.68,2.4,0,1.48-1.2,3.48-2.08,4.8l.08,.08Z" style="fill: #80292d;"/>
      <path d="M225.81,18c-1.64,2.2-3.44,4.4-6.04,6.76-3.68,3.32-7.12,4.36-10.08,4.36s-4.92-2-4.92-4.88c0-5.12,6.92-10.48,11.92-10.48,2.28,0,3.64,.92,3.64,2.52,0,3.88-8.72,5.56-11.52,6.16-.12,.48-.2,.96-.2,1.44,0,2.28,1.36,3.88,3.64,3.88s5.04-1.4,7.76-3.92c2.08-1.96,4.08-4.28,5.52-6.12l.28,.28Zm-9.76-3.76c-2.68,0-6.48,5.12-7.16,7.8,4.36-.88,8.24-4.16,8.24-6.76,0-.72-.44-1.04-1.08-1.04Z" style="fill: #80292d;"/>
    </g>
  </g>
</svg>