<?xml version="1.0" encoding="UTF-8"?>
<svg id="b" data-name="圖層 2" xmlns="http://www.w3.org/2000/svg" width="389.69" height="207.16" viewBox="0 0 389.69 207.16">
  <g id="c" data-name="圖層 1">
    <g>
      <path d="M129.64,148.57h-18.04v8.82c0,2.75-.77,3.92-2.65,4.54-1.85,.67-4.9,.76-9.54,.72-.27-1.12-1.08-3.01-1.76-4.14,3.6,.13,7.2,.13,8.23,.09,.99,0,1.35-.32,1.35-1.26v-8.78h-18.09v-4.09h18.09v-6.39h-15.03v-4h15.03v-6.12c-4.81,.4-9.72,.72-14.26,.9-.04-1.04-.58-2.75-.99-3.64,10.62-.5,23.31-1.67,30.33-3.69l3.1,3.42c-3.92,1.12-8.68,1.89-13.81,2.52v6.61h15.48v4h-15.48v6.39h18.04v4.09Z" style="fill: #a08778;"/>
      <path d="M153.27,146.01c-.4-1.17-1.26-3.1-2.16-4.9v21.69h-3.6v-19.48c-1.08,3.92-2.34,7.61-3.69,10.04-.31-1.26-1.17-3.11-1.75-4.19,2.12-3.42,4.19-9.81,5.22-15.3h-4.14v-3.87h4.36v-8.46h3.6v8.46h3.37v3.87h-3.37v2.47c1.03,1.49,3.55,5.67,4.09,6.75l-1.94,2.92Zm27.85,3.2c-1.31,2.65-3.1,4.95-5.22,6.97,1.12,1.48,2.38,2.38,3.87,2.52,.85,.09,1.4-1.53,1.75-4.72,.63,.76,2.02,1.75,2.7,2.12-.95,5.26-2.52,6.79-4.41,6.7-2.79-.22-4.99-1.67-6.79-4.23-2.25,1.62-4.77,3.01-7.51,4.05-.5-.76-1.49-1.98-2.21-2.7,3.01-1.08,5.76-2.56,8.01-4.36-.94-2.16-1.75-4.77-2.39-7.79h-6.84c0,.45,0,.95-.04,1.39,2.07,1.62,4.68,3.78,5.94,5.17l-2.56,2.52c-.9-1.04-2.43-2.47-4-3.83-.81,3.46-2.7,7.02-6.39,9.81-.54-.72-2.02-2.02-2.79-2.47,5.22-3.78,6.25-8.77,6.3-12.6h-3.15v-3.29h12.91c-1.03-6.34-1.62-14.08-1.89-22.68h3.51c.23,8.77,.81,16.56,1.94,22.68h5.4c-.99-.85-2.2-1.75-3.24-2.43l1.85-1.67c-2.16,.41-2.75,.58-3.2,.81-.18-.63-.67-2.25-1.03-3.06,.72-.18,1.4-.9,2.21-2.02,.45-.54,1.39-1.94,2.43-3.64-2.88,.36-3.65,.58-4.09,.85-.18-.67-.68-2.21-1.04-2.97,.54-.13,1.04-.72,1.58-1.53,.49-.76,2.16-3.92,2.97-6.88l3.1,.86c-1.04,2.52-2.39,5.13-3.69,7.15l2.65-.27c.54-.99,1.04-1.94,1.44-2.97l3.1,1.12c-1.85,3.51-4.09,7.02-6.3,9.76l3.65-.45c-.31-.77-.63-1.62-.9-2.34l2.43-.68c.9,2.07,1.94,4.86,2.34,6.57l-2.61,.9c-.13-.54-.31-1.21-.5-1.93-1.71,.27-3.01,.45-4.05,.63,1.4,.9,3.24,2.16,4.14,3.06l-1.17,1.12h3.64v3.29h-10.44c.5,1.93,.99,3.74,1.62,5.17,1.39-1.53,2.61-3.24,3.46-5.04l3.51,1.31Zm-16.74-6.98c-.09-.49-.18-1.08-.31-1.71-5.98,.81-7.02,1.08-7.65,1.44-.18-.63-.63-2.21-1.04-3.01,.72-.13,1.49-.9,2.29-2.03,.45-.54,1.44-1.93,2.52-3.69-2.97,.41-3.73,.63-4.23,.9-.18-.67-.68-2.2-.99-2.97,.54-.13,1.12-.67,1.67-1.62,.58-.81,2.43-4.18,3.42-7.51l3.1,.9c-1.21,2.79-2.7,5.62-4.18,7.83l2.79-.27c.54-.95,1.03-1.93,1.48-2.92l3.01,1.12c-1.93,3.46-4.27,6.97-6.52,9.72l3.6-.45c-.27-.85-.58-1.71-.85-2.47l2.52-.67c.9,2.07,1.8,4.86,2.16,6.52l-2.79,.9Z" style="fill: #a08778;"/>
      <path d="M196.38,158.92c.9-2.56,1.62-6.79,1.94-9.72l2.25,.72c-.36,2.97-.99,7.29-1.75,9.9l-2.43-.9Zm17.68-13.68c-.31,10.84-.63,14.76-1.58,16.02-.63,.85-1.26,1.17-2.34,1.3-.81,.13-2.21,.13-3.55,.09-.09-.99-.41-2.34-.9-3.24,1.26,.18,2.34,.18,2.83,.18,.54,0,.85-.09,1.12-.5,.32-.5,.54-1.84,.77-4.86l-1.67,.67c-.45-1.57-1.4-4.05-2.2-5.89l1.62-.54c.85,1.75,1.8,4.05,2.25,5.54,.09-1.67,.18-3.92,.27-6.75h-11.92v-23.85h15.12v3.42h-5.13v3.6h4.36v1.71c4.9-2.79,9.36-7.06,11.65-11.11l3.82,1.21c-.27,.5-.54,.99-.9,1.44,2.75,2.75,6.93,5.62,10.48,7.2-.58,.94-1.35,2.7-1.66,3.73-1.31-.72-2.75-1.57-4.1-2.56v2.61h-13.27v-2.11c-1.17,.81-2.34,1.62-3.55,2.34-.54-.72-1.71-1.89-2.48-2.57v1.31h-4.36v3.37h4.46v3.24h-4.46v3.55h5.31v1.44Zm-10.93,4.63c.31,2.61,.49,5.89,.54,8.1l-2.02,.22c0-2.21-.18-5.58-.41-8.1l1.89-.22Zm-1.08-23.04v3.6h3.42v-3.6h-3.42Zm3.42,6.79h-3.42v3.37h3.42v-3.37Zm-3.42,10.17h3.42v-3.55h-3.42v3.55Zm3.69,5.54c.58,2.29,1.26,5.31,1.53,7.24l-1.89,.41c-.27-2.02-.9-5-1.49-7.33l1.85-.31Zm16.6,.72c-.27,1.26-.63,2.38-.99,3.55,1.75,1.08,3.65,2.48,4.63,3.6l-2.16,2.75c-.77-.94-2.29-2.16-3.73-3.24-1.12,2.38-2.61,4.5-4.23,6.07-.58-.58-1.98-1.8-2.79-2.38,2.88-2.47,4.77-6.52,5.71-11.02l3.55,.67Zm-6.7-12.37h9.18v10.57h-9.18v-10.57Zm2.83,7.78h3.38v-5h-3.38v5Zm13.09-14.04c-2.11-1.53-4.14-3.33-5.85-5.08-1.53,1.84-3.28,3.55-5.13,5.08h10.98Zm1.98,18.36c-.31,1.8-.76,3.46-1.3,4.99,2.07,1.44,4.36,3.24,5.58,4.5l-2.52,2.88c-.94-1.17-2.74-2.66-4.5-4-.9,1.8-2.07,3.38-3.33,4.63-.63-.63-2.16-1.8-3.06-2.38,2.83-2.52,4.59-6.61,5.4-11.2l3.73,.58Zm-6.93-12.1h9.54v10.57h-9.54v-10.57Zm2.88,7.78h3.65v-5h-3.65v5Z" style="fill: #a08778;"/>
      <path d="M265.95,132.33h-15.21v-3.33h7.69c-.72-1.67-2.16-4.23-3.42-6.08l2.88-1.75c1.31,1.8,2.75,4.18,3.46,5.76l-2.88,2.07h7.47v3.33Zm-1.17,27.85h-9.13v2.02h-3.29v-15.21h12.42v13.18Zm-.22-21.91h-12.1v-3.29h12.1v3.29Zm-12.1,2.65h12.1v3.24h-12.1v-3.24Zm3.19,9.45v6.43h5.85v-6.43h-5.85Zm17.64-14.67c-1.53,2.21-3.33,3.96-5.31,5.35-.54-.85-1.75-2.2-2.52-2.83,1.75-1.12,3.37-2.75,4.81-4.73-1.08-.99-2.61-2.07-3.91-2.88l2.25-2.65c1.17,.63,2.52,1.53,3.6,2.34,.58-1.21,1.17-2.57,1.62-3.92h-5.98v-3.33h7.33l.72-.13,2.43,.81c-.81,3.92-2.16,7.38-3.91,10.3h9.27c-2.07-3.33-3.55-7.29-4.59-11.52l3.46-.63c.27,1.12,.63,2.25,1.04,3.38,1.12-.95,2.2-1.98,3.01-2.79l2.48,2.29c-1.31,1.21-2.92,2.47-4.27,3.38,.36,.81,.76,1.58,1.12,2.25,1.3-.86,2.61-1.98,3.51-2.75l2.43,2.29c-1.39,1.08-2.92,2.12-4.27,2.92,1.44,1.98,3.1,3.55,4.99,4.68-.9,.72-2.21,2.07-2.79,3.06-2.02-1.35-3.78-3.15-5.26-5.31v2.07h-11.25v-1.67Zm13.77,16.33c-1.04,2.11-2.25,4.5-3.29,6.3h7.88v3.38h-25.38v-3.38h7.33c-.27-1.66-1.26-4.23-2.38-6.12l3.6-.99c1.21,1.93,2.34,4.54,2.65,6.21l-3.19,.9h5.67c1.04-2.02,2.34-5.17,2.97-7.33l4.14,1.04Zm-17.1-12.06h17.77v10.93h-17.77v-10.93Zm3.56,7.69h10.48v-4.46h-10.48v4.46Z" style="fill: #a08778;"/>
    </g>
    <g>
      <g>
        <line x1="7.64" y1="82.15" x2="383.07" y2="82.15" style="fill: none; stroke: #88202a; stroke-miterlimit: 10; stroke-width: 3.05px;"/>
        <line x1="7.64" y1="74.43" x2="383.07" y2="74.43" style="fill: none; stroke: #88202a; stroke-miterlimit: 10; stroke-width: 1.02px;"/>
      </g>
      <g>
        <rect x="1.18" y="83.53" width="6.62" height="6.62" transform="translate(8.98 173.69) rotate(180)" style="fill: #88202a;"/>
        <rect x="383.07" y="83.71" width="6.62" height="6.62" transform="translate(772.76 174.04) rotate(180)" style="fill: #88202a;"/>
      </g>
    </g>
    <g>
      <g>
        <line x1="382.05" y1="198.93" x2="6.62" y2="198.93" style="fill: none; stroke: #88202a; stroke-miterlimit: 10; stroke-width: 3.05px;"/>
        <line x1="382.05" y1="206.65" x2="6.62" y2="206.65" style="fill: none; stroke: #88202a; stroke-miterlimit: 10; stroke-width: 1.02px;"/>
      </g>
      <g>
        <rect x="381.89" y="190.93" width="6.62" height="6.62" style="fill: #88202a;"/>
        <rect y="190.75" width="6.62" height="6.62" style="fill: #88202a;"/>
      </g>
    </g>
    <g>
      <path d="M132.47,6.56c-.08,.46-.01,1.17,.13,1.64,.42,1.41,1.7,2.01,3.08,1.59,2.88-.87,4.47-4.82,3.64-7.57-.59-1.94-2.69-1.75-3.76-1.42-6.97,2.1-13.72,14.86-11.16,23.33,.99,3.28,3.27,5.15,6.19,4.27,3.82-1.15,6.56-6,5.31-10.16-.55-1.81-1.62-3.06-3.6-2.46-2.04,.62-3.12,3.58-3.67,5.28l-.39-.07c.85-2.74,2.11-5.5,5.16-6.42,2.31-.7,4.42,.35,5.11,2.63,1.64,5.43-3.51,10.31-8.67,11.87-4.46,1.34-7.87-.62-9.19-5.01-2.6-8.61,6.35-21.11,14.83-23.67,2.61-.79,5.31-.58,6.23,2.47,1,3.32-2.02,6.39-4.97,7.28-1.83,.59-3.92,.23-4.53-1.81-.18-.6-.17-1.41-.09-1.76h.37Z" style="fill: #940e26;"/>
      <path d="M156.83,9.97l3.55-.81c-.87,2.67-4.74,9.6-4.33,12.05,.1,.62,.49,.81,1.01,.72,1.1-.19,2.9-1.94,4.62-4.4,1.43-2.05,3.05-4.88,3.69-6.12l.26,.1c-.94,1.79-2.12,4.05-3.93,6.62-1.8,2.57-3.72,4.49-5.82,4.85-1.45,.24-2.46-.47-2.64-1.58-.06-.35-.09-.73-.01-.92h-.07c-1.15,1.84-2.8,3.43-4.83,3.77-2.24,.38-3.38-1.31-3.7-3.25-.75-4.49,3.89-10.41,8.17-11.13,1.59-.27,2.57,.28,3.4,1.63l.63-1.53Zm-6.73,12.77c2.9-.7,5.54-8.24,5.1-10.83-.21-1.24-.71-1.9-2.02-1.68-3.18,.53-5.69,7.52-5.22,10.32,.22,1.31,.73,2.43,2.14,2.2Z" style="fill: #940e26;"/>
      <path d="M177.4,.89l-7.36,12.76,.07,.07c1.79-2.45,4.03-6.19,7.45-6.39,1.68-.1,2.87,1.06,2.97,2.81,.13,2.27-.86,4.47-2.18,6.05l.07,.07c3.11-.81,5.97-3.46,7.79-5.99l.26,.23c-1.65,2.34-4.53,5.42-8.44,6.27-1.76,1.75-4.59,4.26-7.18,4.41-.98,.06-1.84-.24-1.89-1.19-.11-1.96,4.26-2.66,6.24-3.09,.74-1.16,2.14-3.7,1.99-6.29-.06-1.01-.36-2.05-1.55-1.98-4.16,.24-12.27,18.9-15.21,23.8l-3.7,.35c5.64-10.35,11.33-21.09,16.9-31.51l3.76-.39Zm-6.09,19.63c1.33-.08,2.86-2.02,3.67-3.16-1.25,.28-4.79,.87-4.7,2.44,.03,.49,.32,.75,1.02,.71Z" style="fill: #940e26;"/>
      <path d="M187.83,8.4l.26-.62,2.69,.08,2.75-4.34,3.78-.03-3.03,4.47,4.44,.12-.33,.62-4.51-.13c-4.39,6.81-5.89,8.87-5.92,10.23-.02,.59,.32,1.02,.92,1.04,1.15,.03,3.25-1.17,5.48-3.21,1.55-1.43,3.5-3.54,5.09-5.53l.21,.18c-1.09,1.37-2.86,3.49-4.88,5.4-2.23,2.11-4.73,3.83-6.86,3.77-1.47-.04-2.78-.67-2.74-2.35,.07-2.41,2.34-4.87,5.28-9.62l-2.62-.07Z" style="fill: #940e26;"/>
      <path d="M217.79,13.42c-3.87,3.84-9.03,8.67-14.88,8.03-2.78-.3-4.14-2.03-3.83-4.92,.48-4.45,6.77-8.28,11.4-7.78,2.12,.23,3.37,1.35,3.24,2.6-.2,1.81-1.8,2.69-3.23,2.54-.35-.04-.62-.1-.79-.16,.43-1.04,1.04-2.1,1.16-3.22,.09-.8-.28-1.33-.9-1.4-2.44-.26-7.06,3.46-7.54,7.88-.19,1.77,.81,3.29,2.68,3.49,4.56,.49,9.81-4.75,12.4-7.25l.3,.17Z" style="fill: #940e26;"/>
      <path d="M212.75,21.75L232.07,1.09l3.77,.61-15.14,15.56,.05,.08c2.52-1.97,6.53-5.71,10.09-4.96,1.44,.3,2.17,1.24,1.85,2.75-.52,2.5-6.27,6.02-6.74,8.24-.12,.58,.1,.88,.55,.97,2.06,.43,9.16-4.98,11.12-6.79l.16,.25c-1.52,1.29-3.73,3.12-5.93,4.58-3,2.02-4.76,2.72-6.57,2.34-1.64-.34-2.13-1.63-1.87-2.86,.66-3.15,6.2-5.71,6.64-7.76,.14-.65-.24-1.09-.68-1.18-2.95-.62-10.65,6.42-13.07,9.45l-3.55-.64Z" style="fill: #940e26;"/>
      <path d="M251.73,19.29l3.52,.93c-2,1.96-8.66,6.3-9.43,8.66-.2,.6,.06,.94,.56,1.1,1.06,.35,3.47-.37,6.13-1.75,2.22-1.15,4.97-2.9,6.11-3.71l.19,.21c-1.67,1.15-3.76,2.6-6.55,4.04-2.79,1.44-5.38,2.25-7.41,1.59-1.4-.46-1.96-1.56-1.61-2.63,.11-.33,.26-.69,.42-.82l-.07-.02c-1.86,1.08-4.06,1.73-6.03,1.08-2.16-.71-2.38-2.73-1.77-4.6,1.42-4.32,8.29-7.42,12.41-6.06,1.53,.5,2.14,1.44,2.25,3.02l1.27-1.06Zm-11.89,8.19c2.89,.73,8.73-4.73,9.55-7.22,.39-1.2,.25-2.02-1.01-2.43-3.06-1-8.54,4.02-9.42,6.71-.41,1.26-.48,2.49,.88,2.94Z" style="fill: #940e26;"/>
    </g>
  </g>
</svg>