<?xml version="1.0" encoding="UTF-8"?>
<svg id="b" data-name="圖層 2" xmlns="http://www.w3.org/2000/svg" width="389.69" height="205" viewBox="0 0 389.69 205">
  <g id="c" data-name="圖層 1">
    <g>
      <g>
        <path d="M125.54,127.38v28.54h-2.81v-6.44c-2.74,.47-5.44,.97-7.63,1.37l-.65-2.99,2.02-.29v-20.19h-1.58v-3.02h11.91v3.02h-1.26Zm-2.81,0h-3.53v4.46h3.53v-4.46Zm0,7.24h-3.53v4.54h3.53v-4.54Zm0,12.02v-4.71h-3.53v5.22l3.53-.5Zm12.49-12.71c.65,1.91,1.44,4.43,1.76,5.9l-2.09,.68c-.11-.5-.25-1.15-.43-1.8-6.08,.76-6.98,.97-7.56,1.26-.14-.68-.47-2.16-.72-2.95,.58-.14,1.26-.76,2.09-1.73,.36-.4,1.15-1.37,2.02-2.63-2.16,.22-2.77,.4-3.13,.58-.11-.68-.5-2.2-.76-3.06,.43-.11,.94-.58,1.44-1.22,.47-.68,2.23-3.24,3.2-5.87l2.48,1.08c-1.15,2.3-2.63,4.64-3.96,6.37l2.27-.11c.65-.97,1.3-2.09,1.84-3.13l2.27,1.19c-1.84,3.1-4.03,6.16-6.12,8.46l4.03-.4c-.18-.76-.43-1.44-.65-2.12l2.02-.5Zm.65,6.7v5.43c0,3.56-1.08,7.6-6.37,10.08-.32-.65-1.26-1.84-1.8-2.3,3.13-1.4,4.46-3.17,5.04-5h-4.86v-8.21h2.74v5.4h2.48v-5.4h2.77Zm9.93-.32c-.14-.5-.36-1.19-.54-1.91-6.05,.94-6.98,1.19-7.56,1.51-.11-.68-.5-2.12-.72-2.92,.54-.11,1.19-.72,1.87-1.69,.4-.43,1.19-1.51,2.02-2.88-2.52,.25-3.17,.43-3.53,.65-.14-.65-.5-2.09-.76-2.88,.47-.07,.9-.5,1.4-1.15,.54-.65,2.2-3.2,3.17-5.72l2.23,1.12c-1.08,2.16-2.38,4.28-3.6,5.9l2.41-.14c.5-.9,1.04-1.91,1.48-2.88l2.23,1.15c-1.58,3.02-3.42,6.01-5.26,8.35l3.85-.5c-.25-.76-.54-1.48-.79-2.16l1.91-.61c.83,1.87,1.8,4.43,2.23,5.94l-2.05,.83Zm-2.52,.58h2.74v9.21h-2.74v-1.26h-2.48v7.13h-2.88v-15.37h2.88v5.36h2.48v-5.08Z" style="fill: #99857a;"/>
        <path d="M168.06,144.91c-.11-.58-.25-1.26-.4-1.98-7.02,1.08-8.14,1.4-8.85,1.76-.18-.65-.68-2.2-1.01-3.02,.79-.18,1.62-1.08,2.7-2.38,.54-.58,1.55-1.87,2.74-3.56-3.38,.4-4.14,.61-4.68,.83-.18-.65-.65-2.12-.97-2.95,.58-.14,1.22-.86,2.02-1.91,.72-1.04,3.2-5.04,4.64-8.89l2.99,1.26c-1.55,3.2-3.53,6.52-5.47,9.21l3.24-.29c.94-1.51,1.84-3.17,2.63-4.79l2.84,1.69c-2.2,3.92-5,7.92-7.81,11.12l4.36-.61c-.29-1.08-.61-2.16-.97-3.17l2.38-.65c.94,2.41,1.87,5.58,2.2,7.49l-2.56,.83Zm-6.05,1.62c-.36,3.1-.97,6.48-1.73,8.71-.58-.36-1.94-.79-2.66-1.01,.83-2.12,1.33-5.33,1.62-8.21l2.77,.5Zm3.71-.58c.47,2.45,.9,5.62,1.01,7.74l-2.59,.47c-.07-2.05-.47-5.33-.9-7.74l2.48-.47Zm3.56-.9c.83,2.12,1.62,4.86,1.98,6.7l-2.45,.83c-.32-1.87-1.12-4.64-1.87-6.8l2.34-.72Zm20.12-17.57c-1.37,3.53-3.38,6.62-5.87,9.21,2.2,1.84,4.82,3.38,7.77,4.43-.68,.68-1.69,1.98-2.12,2.81l-.47-.18v11.99h-3.24v-1.12h-8.82v1.15h-3.13v-11.91c-.32,.18-.68,.32-1.01,.47-.4-.79-1.3-1.98-1.98-2.59,2.95-1.15,5.9-2.92,8.53-5.11-1.33-1.44-2.41-2.92-3.28-4.39-1.01,1.19-2.05,2.23-3.13,3.13-.5-.61-1.76-1.8-2.52-2.34,3.28-2.41,6.12-6.19,7.74-10.26l3.2,.9c-.43,.97-.9,1.94-1.4,2.88h6.91l.61-.14,2.2,1.08Zm-2.66,15.3c-2.05-1.08-3.85-2.45-5.47-3.92-1.76,1.51-3.67,2.84-5.58,3.92h11.05Zm-1.26,8.89v-5.94h-8.82v5.94h8.82Zm-7.85-21.81c.9,1.55,2.09,3.17,3.56,4.68,1.55-1.58,2.84-3.31,3.82-5.18h-7.06l-.32,.5Z" style="fill: #99857a;"/>
        <path d="M231.96,139.11c-1.62,2.99-3.67,5.72-6.08,8.17,1.19,3.35,2.59,5.36,4.07,5.36,.86,0,1.3-1.76,1.48-6.23,.76,.79,1.91,1.58,2.81,1.87-.58,6.12-1.69,7.77-4.61,7.77-2.74,0-4.86-2.38-6.44-6.23-2.23,1.91-4.61,3.53-7.13,4.86-.54-.83-1.44-1.94-2.3-2.7,2.95-1.37,5.76-3.28,8.31-5.51-.86-2.92-1.48-6.37-1.91-10.08h-7.96v5.04l6.01-1.19,.25,2.99c-2.05,.47-4.18,.97-6.26,1.4v7.16c0,1.98-.47,2.95-1.73,3.49s-3.28,.65-6.16,.65c-.18-.94-.76-2.48-1.26-3.38,2.2,.07,4.28,.07,4.9,.04,.65-.04,.86-.22,.86-.79v-6.41c-2.56,.54-4.9,1.04-6.95,1.48l-.94-3.35c2.12-.36,4.9-.86,7.88-1.44v-5.69h-7.27v-3.17h7.27v-4.97c-2.12,.36-4.25,.65-6.19,.9-.18-.76-.61-2.05-1.04-2.77,5-.76,10.73-1.91,14.22-3.13l2.34,2.81c-1.76,.58-3.82,1.08-5.94,1.51v5.65h7.63c-.29-3.24-.43-6.62-.47-10.04h3.46c-.04,3.46,.11,6.88,.4,10.04h10.22v3.17h-9.86c.36,2.7,.76,5.11,1.29,7.31,1.62-1.84,3.02-3.82,4.1-5.87l2.99,1.26Zm-1.87-7.45c-1.01-1.69-3.35-4.28-5.36-6.08l2.52-1.73c2.02,1.73,4.43,4.18,5.54,5.87l-2.7,1.94Z" style="fill: #99857a;"/>
        <path d="M253.92,123.89c-.79,2.38-1.73,4.79-2.81,7.09v24.91h-3.17v-19.08c-.94,1.48-1.87,2.81-2.88,3.96-.29-.83-1.15-2.7-1.66-3.53,2.99-3.49,5.76-8.82,7.42-14.22l3.1,.86Zm10.01,14.22h-6.73v17.71h-3.1v-30.96h9.83v13.25Zm-6.73-10.65v2.74h4.14v-2.74h-4.14Zm4.14,8.1v-2.92h-4.14v2.92h4.14Zm14.72,16.27c0,1.94-.43,2.92-1.73,3.46-1.33,.5-3.49,.58-6.84,.58-.14-.9-.68-2.34-1.12-3.24,2.41,.11,4.9,.11,5.62,.07,.65-.04,.9-.25,.9-.9v-13.68h-7.09v-13.25h10.26v26.96Zm-7.52-24.37v2.74h4.36v-2.74h-4.36Zm4.36,8.1v-2.92h-4.36v2.92h4.36Z" style="fill: #99857a;"/>
      </g>
      <g>
        <g>
          <line x1="7.64" y1="79.99" x2="383.07" y2="79.99" style="fill: none; stroke: #7d292d; stroke-miterlimit: 10; stroke-width: 3.05px;"/>
          <line x1="7.64" y1="72.27" x2="383.07" y2="72.27" style="fill: none; stroke: #7d292d; stroke-miterlimit: 10; stroke-width: 1.02px;"/>
        </g>
        <g>
          <rect x="1.18" y="81.37" width="6.62" height="6.62" transform="translate(8.98 169.37) rotate(180)" style="fill: #7d292d;"/>
          <rect x="383.07" y="81.55" width="6.62" height="6.62" transform="translate(772.76 169.72) rotate(180)" style="fill: #7d292d;"/>
        </g>
      </g>
      <g>
        <g>
          <line x1="382.05" y1="196.77" x2="6.62" y2="196.77" style="fill: none; stroke: #7d292d; stroke-miterlimit: 10; stroke-width: 3.05px;"/>
          <line x1="382.05" y1="204.49" x2="6.62" y2="204.49" style="fill: none; stroke: #7d292d; stroke-miterlimit: 10; stroke-width: 1.02px;"/>
        </g>
        <g>
          <rect x="381.89" y="188.77" width="6.62" height="6.62" style="fill: #7d292d;"/>
          <rect y="188.59" width="6.62" height="6.62" style="fill: #7d292d;"/>
        </g>
      </g>
      <g>
        <path d="M116.42,11.59c-.02,.47,.15,1.17,.35,1.61,.61,1.34,1.96,1.76,3.26,1.17,2.74-1.25,3.78-5.38,2.59-7.99-.84-1.85-2.9-1.37-3.91-.91-6.62,3.02-11.6,16.57-7.93,24.62,1.42,3.12,3.94,4.67,6.71,3.4,3.63-1.66,5.69-6.83,3.89-10.78-.78-1.72-2.01-2.81-3.89-1.96-1.94,.89-2.62,3.96-2.93,5.72h-.39c.48-2.85,1.35-5.75,4.25-7.07,2.2-1,4.43-.25,5.41,1.92,2.35,5.16-2.09,10.69-6.99,12.92-4.24,1.93-7.88,.44-9.78-3.73-3.73-8.18,3.46-21.77,11.51-25.45,2.48-1.13,5.18-1.29,6.51,1.61,1.44,3.15-1.14,6.6-3.95,7.88-1.74,.83-3.85,.76-4.73-1.19-.26-.57-.36-1.38-.33-1.74l.36-.05Z" style="fill: #89202a;"/>
        <path d="M148.69,12.46c-.54,1.42-1.42,2.94-2.89,3.4-1.04,.33-1.88,.08-2.77-.52,.36,4.77-2.57,9.8-7.21,11.26-2.44,.77-4.51-.23-5.28-2.67-1.49-4.74,2.58-10.57,7.02-11.97,2.37-.75,4.28,.31,5.15,2.01,.65,1.26,1.73,1.88,2.96,1.49,1.2-.38,1.98-1.39,2.73-3.21l.28,.2Zm-9.14,1.26c-.35-1.1-1.02-1.62-2.03-1.31-3.37,1.06-4.5,9.6-3.62,12.4,.35,1.1,1.02,1.62,2.03,1.31,3.37-1.06,4.5-9.6,3.62-12.4Z" style="fill: #89202a;"/>
        <path d="M153.05,14.92c.97-1.91,3.73-7.75,7.3-8.46,1.51-.3,2.49,.5,2.74,1.74,.62,3.09-3.39,7.64-2.88,10.18,.11,.55,.46,.87,1.08,.75,.65-.13,1.94-1.21,3.9-4.39,1.54-2.49,2.87-5.07,3.5-6.23l.38,.1c-.92,1.65-2.28,4.31-3.82,6.76-1.9,2.99-3.15,4.24-4.93,4.59-1.75,.35-2.77-.62-3.01-1.86-.62-3.09,3.37-7.74,2.95-9.87-.1-.48-.52-.79-1.13-.67-2.71,.54-7.19,10.08-8.22,13.82l-3.45,.8c1.6-4.5,3.31-8.95,4.85-13.54l3.88-.92-3.21,7.14,.08,.05Z" style="fill: #89202a;"/>
        <path d="M170.2,6.18l.17-.65,2.68-.3,2.12-4.67,3.74-.56-2.38,4.84,4.42-.49-.24,.66-4.49,.5c-3.41,7.35-4.6,9.6-4.45,10.96,.07,.59,.46,.97,1.05,.9,1.15-.13,3.06-1.61,4.99-3.94,1.33-1.63,2.97-3.99,4.28-6.18l.23,.15c-.89,1.51-2.35,3.86-4.08,6.02-1.92,2.4-4.15,4.44-6.28,4.68-1.46,.16-2.85-.28-3.04-1.95-.27-2.4,1.65-5.15,3.89-10.26l-2.61,.29Z" style="fill: #89202a;"/>
        <path d="M195.96,4.14l3.63-.29c-1.24,2.51-6.08,8.81-6.03,11.29,.01,.63,.37,.87,.89,.86,1.12-.02,3.15-1.5,5.21-3.68,1.71-1.82,3.72-4.38,4.54-5.52l.25,.13c-1.19,1.64-2.69,3.7-4.85,5.98s-4.33,3.91-6.46,3.95c-1.47,.03-2.36-.83-2.39-1.95,0-.35,.02-.74,.12-.91h-.07c-1.4,1.64-3.26,2.98-5.33,3.02-2.27,.05-3.15-1.79-3.19-3.75-.1-4.55,5.36-9.74,9.7-9.83,1.61-.03,2.5,.65,3.12,2.11l.85-1.42Zm-8.51,11.66c2.97-.27,6.67-7.35,6.62-9.97-.03-1.26-.43-1.99-1.76-1.96-3.22,.07-6.72,6.62-6.66,9.45,.03,1.33,.37,2.51,1.8,2.48Z" style="fill: #89202a;"/>
        <path d="M222.52,8.8c-3.76,3.95-8.79,8.92-14.65,8.45-2.79-.22-4.2-1.92-3.97-4.81,.36-4.46,6.54-8.46,11.18-8.09,2.13,.17,3.41,1.26,3.31,2.51-.15,1.81-1.73,2.74-3.16,2.63-.35-.03-.62-.08-.8-.13,.4-1.06,.98-2.13,1.07-3.25,.06-.8-.32-1.32-.94-1.37-2.44-.2-6.96,3.66-7.32,8.08-.14,1.78,.9,3.27,2.78,3.42,4.57,.37,9.67-5.02,12.19-7.59l.3,.17Z" style="fill: #89202a;"/>
        <path d="M224.25,6.66l.34-.58,2.66,.43,3.29-3.93,3.75,.46-3.59,4.03,4.39,.71-.41,.57-4.46-.72c-5.25,6.17-7,8.01-7.22,9.36-.1,.59,.18,1.06,.77,1.15,1.14,.18,3.38-.73,5.86-2.46,1.72-1.21,3.93-3.05,5.78-4.81l.18,.21c-1.26,1.21-3.3,3.08-5.55,4.71-2.49,1.79-5.19,3.17-7.3,2.83-1.45-.23-2.67-1.03-2.4-2.69,.38-2.38,2.96-4.52,6.5-8.84l-2.59-.42Z" style="fill: #89202a;"/>
        <path d="M264.88,16.1c-5.38,4.65-8.93,6.96-9.56,8.89-.15,.47,0,.81,.39,.94,1.1,.36,3.63-.62,5.79-1.72,2.61-1.36,5.27-3.07,6.5-3.92l.2,.29c-1.52,1.05-3.96,2.65-6.44,3.94-2.98,1.57-5.32,2.32-7.15,1.72-1.33-.43-1.9-1.61-1.51-2.81,.27-.83,.7-1.47,1.02-1.77l-.04-.09c-2.15,1.18-4.98,2.87-7.81,1.94-1.36-.45-1.77-1.68-1.39-2.85,.55-1.7,3.53-4.15,8.28-8.24l3.57,1.02c-5.24,4.22-8.78,6.82-9.33,8.52-.17,.53,.03,1.04,.49,1.19,1.66,.54,5.97-1.48,9.09-4.18l4.38-3.73,3.51,.85Z" style="fill: #89202a;"/>
        <path d="M269.37,31.38c4.78,.94,9.38-1.56,13.68-3.96l.17,.3c-5.36,3.01-10.46,5.86-16.68,3.15-2.21-.97-4.22-2.83-3.09-5.43,.59-1.35,2.08-2.57,3.58-1.91,.99,.43,1.25,1.35,.94,2.05-.39,.9-1.21,1.11-1.88,.82-.26-.11-.47-.24-.64-.47-.39,.29-.75,.67-.96,1.15-.52,1.19,.16,2.51,1.41,3.06,1.57,.69,3.75,.34,4.47-1.33,.49-1.12,.24-2.3-.04-3.41-.26-1.15-.54-2.26-.11-3.25,1.05-2.41,4.02-2.56,6.3-1.57,2.05,.9,3.22,2.51,2.52,4.11-.53,1.22-1.85,1.71-3.07,1.18-.38-.17-.7-.42-.86-.57,.81-.64,1.38-1.42,1.73-2.22,.38-.87,.22-1.81-.78-2.25-1.19-.52-2.22,.02-2.71,1.14-.52,1.19-.25,2.33,0,3.48,.28,1.11,.53,2.29-.03,3.58-.73,1.67-2.56,2.55-3.94,2.29l-.03,.06Z" style="fill: #89202a;"/>
      </g>
    </g>
  </g>
</svg>