<?xml version="1.0" encoding="UTF-8"?>
<svg id="b" data-name="圖層 2" xmlns="http://www.w3.org/2000/svg" width="213.38" height="114.3" viewBox="0 0 213.38 114.3">
  <g id="c" data-name="圖層 3">
    <g>
      <g>
        <path d="M78.96,.14c-1.2,.55-2.07,1.51-2.74,2.61,1.5,.66,2.53,1.82,3.06,3.37,1.57,4.56-1.69,8.34-6.15,9.88-1.04,.36-2.35,.6-3.31,.72-.47,.24-1,.57-1.97,.91-.94,.32-1.37,.17-1.45-.06-.09-.26,.06-.38,.54-.55,.46-.16,1.51-.25,2.81-.51,3.67-2.02,1.99-9.67,5.61-13.67-1.17-.47-2.69-.39-3.91,.03-3.61,1.24-5.94,4.78-4.64,8.56,.42,1.23,1.47,2.28,2.85,1.8,2.11-.72,2.32-3.78,1.57-6.06l.2-.07c1.12,3.71-.2,6.12-2.33,6.85-1.62,.56-3.11-.46-3.63-1.99-1.25-3.64,1.92-7.93,5.57-9.18,1.74-.6,2.88-.66,4.6-.25,.87-1.08,2.04-1.92,3.28-2.53l.05,.14Zm-3,3.03c-2.36,5.21-.4,9.6-5.8,13.28v.03c.31-.03,1.47-.2,2.83-.66,4.13-1.38,5.83-6.57,4.49-10.49-.29-.85-.73-1.69-1.52-2.16Z" style="fill: #7c282c;"/>
        <path d="M86.53,5.6c-1.46,3.94-2.12,5.5-1.97,6.22,.06,.28,.21,.45,.42,.41,.46-.1,1.22-.78,2.22-2.35,.81-1.28,1.55-2.65,1.87-3.23l.18,.07c-.42,.86-1.28,2.37-2,3.48-1.07,1.64-1.88,2.32-2.71,2.49-.77,.17-1.32-.22-1.46-.89-.2-.92,.26-1.97,1.65-5.73l1.79-.47Zm1.21-3.48c.1,.48-.24,1.03-.72,1.13-.51,.11-1.01-.06-1.12-.61s.29-1.06,.82-1.17c.44-.09,.93,.21,1.02,.65Z" style="fill: #7c282c;"/>
        <path d="M92.59,10.96c2.35-.88,3.69-3.21,4.93-5.42l.16,.09c-1.54,2.76-3.01,5.38-6.46,5.87-1.23,.17-2.61-.11-2.82-1.55-.11-.75,.22-1.68,1.05-1.8,.55-.08,.91,.25,.96,.65,.07,.5-.23,.81-.61,.87-.14,.02-.27,.02-.41-.03-.09,.23-.15,.49-.11,.76,.09,.66,.75,1.06,1.44,.96,.87-.12,1.73-.86,1.6-1.79-.09-.62-.51-1.07-.94-1.49-.42-.43-.85-.84-.92-1.4-.19-1.34,1.07-2.2,2.34-2.38,1.14-.16,2.09,.23,2.21,1.13,.1,.68-.35,1.25-1.03,1.34-.21,.03-.42,0-.53-.02,.18-.5,.22-1,.16-1.44-.07-.48-.39-.85-.95-.78-.66,.09-.97,.61-.88,1.23,.09,.66,.52,1.09,.94,1.52,.42,.41,.85,.86,.95,1.57,.13,.93-.44,1.81-1.11,2.06v.04Z" style="fill: #7c282c;"/>
        <path d="M107.01,5.17c-1.64,2.27-3.86,5.16-6.88,5.33-1.44,.08-2.27-.68-2.36-2.18-.13-2.3,2.74-4.77,5.13-4.9,1.1-.06,1.83,.4,1.86,1.05,.05,.93-.69,1.52-1.43,1.56-.18,0-.32,0-.42-.01,.13-.57,.35-1.16,.32-1.73-.02-.41-.25-.65-.58-.63-1.26,.07-3.29,2.35-3.17,4.63,.05,.92,.68,1.6,1.66,1.55,2.35-.13,4.58-3.23,5.69-4.72l.17,.06Z" style="fill: #7c282c;"/>
        <path d="M117.59,5.59c-.51,.59-1.19,1.18-1.99,1.16-.56-.02-.93-.29-1.25-.73-.64,2.37-2.92,4.31-5.42,4.22-1.31-.05-2.15-.89-2.1-2.2,.09-2.55,3.06-4.69,5.46-4.6,1.28,.04,2.02,.88,2.15,1.86,.1,.72,.52,1.21,1.18,1.23,.65,.02,1.2-.34,1.88-1.09l.1,.15Zm-4.65-.95c.02-.59-.22-.96-.76-.98-1.82-.06-3.83,3.88-3.88,5.39-.02,.59,.22,.96,.76,.98,1.82,.06,3.83-3.88,3.88-5.39Z" style="fill: #7c282c;"/>
        <path d="M126.08,5.08c-2.29,2.85-3.87,4.35-4.01,5.38-.03,.25,.07,.41,.29,.44,.59,.08,1.78-.65,2.77-1.41,1.2-.93,2.38-2.04,2.93-2.58l.13,.13c-.67,.67-1.75,1.71-2.89,2.59-1.36,1.07-2.48,1.67-3.46,1.53-.71-.1-1.11-.64-1.03-1.28,.06-.45,.22-.81,.35-.99l-.03-.04c-.98,.79-2.25,1.91-3.77,1.71-.73-.1-1.05-.69-.97-1.31,.12-.91,1.4-2.43,3.42-4.93l1.9,.18c-2.26,2.62-3.8,4.27-3.93,5.17-.04,.29,.11,.52,.36,.56,.89,.12,2.88-1.3,4.21-2.96l1.87-2.29,1.86,.1Z" style="fill: #7c282c;"/>
        <path d="M129.6,9.18c.86-.68,3.41-2.82,5.23-2.39,.77,.18,1.06,.77,.91,1.4-.37,1.58-3.23,2.84-3.53,4.14-.07,.28,.03,.51,.34,.58,.33,.08,1.16-.15,2.77-1.21,1.25-.83,2.43-1.75,2.97-2.16l.15,.13c-.78,.57-1.99,1.53-3.24,2.34-1.53,.99-2.38,1.3-3.29,1.09-.89-.21-1.16-.89-1.01-1.52,.37-1.58,3.24-2.9,3.5-3.98,.06-.25-.07-.48-.39-.55-1.38-.33-5.52,3.17-6.81,4.69l-1.78-.37c1.71-1.76,3.47-3.47,5.17-5.29l2.01,.4-3.03,2.65,.03,.04Z" style="fill: #7c282c;"/>
        <path d="M139.51,8.77l.22-.27,1.32,.43,1.99-1.74,1.87,.53-2.15,1.76,2.17,.71-.25,.26-2.21-.72c-3.16,2.72-4.19,3.52-4.41,4.19-.09,.29,0,.55,.3,.65,.57,.18,1.78-.1,3.17-.79,.97-.48,2.24-1.24,3.32-1.99l.08,.12c-.74,.52-1.92,1.31-3.19,1.95-1.41,.72-2.89,1.2-3.93,.86-.72-.23-1.27-.74-1.01-1.56,.38-1.18,1.86-2.06,4-3.98l-1.28-.42Z" style="fill: #7c282c;"/>
      </g>
      <g>
        <path d="M59.96,79.94v5.81c0,1.08-.22,1.61-.84,1.91-.66,.33-1.61,.37-3.08,.37-.07-.51-.35-1.36-.62-1.89,.92,.04,1.85,.04,2.11,.04,.31-.02,.42-.11,.42-.42v-5.26l-2.68,.75-.53-1.98c.9-.22,2-.48,3.21-.81v-4.36h-2.88v-1.89h2.88v-4.27h2v4.27h2.82v1.89h-2.82v3.81c.9-.22,1.83-.48,2.73-.75l.24,1.89-2.97,.88Zm15.01-2.79h-3.46v10.87h-2.02v-10.87h-3.65c-.04,3.83-.48,7.66-2.71,10.98-.37-.44-1.08-.99-1.65-1.32,2.09-3.19,2.35-6.82,2.35-10.14v-6.75c3.17-.4,6.87-1.06,9.13-1.8l1.23,1.74c-2.29,.71-5.46,1.25-8.36,1.61v3.74h9.13v1.96Z" style="fill: #9d8577;"/>
        <path d="M89.07,79.47c-.88,.26-1.78,.53-2.68,.79v5.5c0,1.1-.24,1.65-.88,1.96-.66,.33-1.63,.4-3.1,.37-.09-.51-.37-1.39-.64-1.94,.92,.04,1.85,.04,2.11,.02,.31,0,.42-.09,.42-.42v-4.93l-2.77,.81-.48-2c.9-.22,2.02-.51,3.26-.84v-5.1h-2.97v-1.89h2.97v-3.87h2.09v3.87h2.42v1.89h-2.42v4.55l2.42-.68,.26,1.89Zm11.07-9.73v17.54h-2.13v-1.76h-6.07v1.94h-2.05v-17.71h10.25Zm-2.13,13.84v-11.9h-6.07v11.9h6.07Z" style="fill: #9d8577;"/>
        <path d="M113.51,68.54c-.44,1.36-.97,2.75-1.54,4.09v15.49h-1.96v-11.66c-.55,.9-1.08,1.69-1.65,2.4-.18-.48-.73-1.63-1.06-2.16,1.76-2.13,3.34-5.41,4.29-8.69l1.92,.53Zm12.43,14.32c-.75,1.14-1.91,2.09-3.43,2.88,1.58,.42,3.32,.68,5.19,.84-.35,.37-.79,1.08-1.01,1.56-2.35-.26-4.53-.73-6.42-1.43-1.85,.66-4.03,1.14-6.54,1.47-.18-.46-.62-1.08-.99-1.5,2-.22,3.81-.53,5.35-.95-.64-.35-1.25-.7-1.8-1.14-.62,.4-1.32,.75-2.07,1.1-.26-.4-.77-.92-1.17-1.19,.73-.31,1.43-.62,2.05-.97-.31-.31-.55-.64-.81-.95l1.52-.57c.2,.24,.4,.46,.62,.68,.66-.48,1.23-.95,1.67-1.45-.57-.22-.75-.64-.75-1.47v-.31c-.53,.77-1.23,1.65-2.09,2.2l-1.17-.92c.86-.51,1.67-1.41,2.18-2.18l1.08,.57v-.53h1.65v1.17c0,.42,.13,.48,.79,.48h2.35c.48,0,.59-.13,.66-.86,.29,.18,.86,.33,1.28,.42-.24-.22-.48-.46-.68-.66l1.1-.66c.86,.73,1.91,1.78,2.4,2.49l-1.12,.77c-.35-.53-.99-1.23-1.63-1.89-.13,1.19-.59,1.56-1.78,1.56h-2.35c-.2,.29-.46,.55-.73,.81h5.06l.33-.09,1.28,.7Zm1.83-6.05v2.99h-1.83v-1.78h-5.24c.59,.42,1.25,.9,1.61,1.28l-1.17,.73c-.4-.44-1.23-1.12-1.91-1.56l.73-.44h-4.99v1.8h-1.76v-3.01h2.09v-5.48h3.72c.09-.33,.15-.64,.22-.97h-5.43v-1.52h13.6v1.52h-6.01l-.4,.97h4.82v5.48h1.96Zm-10.65-4.38v.81h6.78v-.81h-6.78Zm6.78,1.74h-6.78v.86h6.78v-.86Zm-6.78,2.64h6.78v-.84h-6.78v.84Zm.51,6.89c.75,.51,1.65,.97,2.64,1.36,1.14-.46,2.07-.99,2.77-1.54h-5.21l-.2,.18Z" style="fill: #9d8577;"/>
        <path d="M134.17,86.49c.88-1.03,1.63-2.66,2.05-4l1.76,.73c-.46,1.39-1.17,3.15-2.05,4.27l-1.76-.99Zm8.71-15.73h-8.12v-1.63h8.12v-1.19h2.11v1.19h8.38v1.63h-8.38v1.23h6.87v6.27h-2.84c1.69,.84,3.54,2.05,4.51,2.99l-1.39,1.12c-.33-.35-.79-.7-1.25-1.1-2.46,.07-5,.11-7.39,.15,1.25,.66,2.68,1.63,3.41,2.4l-1.39,1.21c-.7-.79-2.2-1.89-3.48-2.6l1.21-1.01c-3.17,.07-6.12,.09-8.38,.11l-.09-1.74c2.13,.02,4.99,0,8.1-.02v-1.52h-6.73v-6.27h6.73v-1.23Zm-4.8,3.74h4.8v-1.23h-4.8v1.23Zm4.8,2.49v-1.25h-4.8v1.25h4.8Zm3.89,9.13c1.03,0,1.23-.26,1.34-2.07,.44,.31,1.25,.57,1.78,.68-.26,2.49-.86,3.08-2.95,3.08h-4.67c-2.73,0-3.43-.51-3.43-2.35v-2.84h2.02v2.82c0,.59,.24,.68,1.56,.68h4.33Zm-1.78-12.85v1.23h4.84v-1.23h-4.84Zm4.84,2.46h-4.84v1.25h4.84v-1.25Zm-1.3,4c-.51-.29-.99-.53-1.47-.73l1.01-.75h-3.08v1.52l3.54-.04Zm2.73,2.82c1.03,1.28,2.09,3.01,2.46,4.18l-1.87,.66c-.35-1.14-1.36-2.9-2.35-4.25l1.76-.59Z" style="fill: #9d8577;"/>
      </g>
      <g>
        <g>
          <line x1="3.55" y1="44.51" x2="209.74" y2="44.51" style="fill: none; stroke: #80292d; stroke-miterlimit: 10; stroke-width: 2px;"/>
          <line x1="3.55" y1="40.27" x2="209.74" y2="40.27" style="fill: none; stroke: #80292d; stroke-miterlimit: 10;"/>
        </g>
        <g>
          <rect y="45.27" width="3.64" height="3.64" transform="translate(3.64 94.17) rotate(180)" style="fill: #80292d;"/>
          <rect x="209.74" y="45.36" width="3.64" height="3.64" transform="translate(423.12 94.37) rotate(180)" style="fill: #80292d;"/>
        </g>
      </g>
      <g>
        <g>
          <line x1="209.83" y1="109.56" x2="3.64" y2="109.56" style="fill: none; stroke: #80292d; stroke-miterlimit: 10; stroke-width: 2px;"/>
          <line x1="209.83" y1="113.8" x2="3.64" y2="113.8" style="fill: none; stroke: #80292d; stroke-miterlimit: 10;"/>
        </g>
        <g>
          <rect x="209.74" y="105.16" width="3.64" height="3.64" style="fill: #80292d;"/>
          <rect y="105.07" width="3.64" height="3.64" style="fill: #80292d;"/>
        </g>
      </g>
    </g>
  </g>
</svg>