<?xml version="1.0" encoding="UTF-8"?>
<svg id="b" data-name="圖層 2" xmlns="http://www.w3.org/2000/svg" width="192.37" height="72.62" viewBox="0 0 192.37 72.62">
  <g id="c" data-name="圖層 1">
    <g>
      <line x1="192.37" y1="72.12" x2="0" y2="72.12" style="fill: none; stroke: #89202a; stroke-miterlimit: 10;"/>
      <line x1="192.37" y1="20.12" x2="0" y2="20.12" style="fill: none; stroke: #89202a; stroke-miterlimit: 10;"/>
      <g>
        <path d="M92.49,5.85s-12.84-8.13-19.21-3.34c-1.7,1.28-2.13,3.43-.91,5.16,1.57,2.23,7.52,4.19,18.64,2.41" style="fill: none; stroke: #c7ba99; stroke-miterlimit: 10; stroke-width: 2px;"/>
        <path d="M99.74,5.85s12.84-8.13,19.21-3.34c1.7,1.28,2.13,3.43,.91,5.16-1.57,2.23-7.52,4.19-18.64,2.41" style="fill: none; stroke: #c7ba99; stroke-miterlimit: 10; stroke-width: 2px;"/>
        <path d="M99.74,5.85s12.84-8.13,19.21-3.34c1.7,1.28,2.13,3.43,.91,5.16-1.57,2.23-7.52,4.19-18.64,2.41" style="fill: none; stroke: #89202a; stroke-miterlimit: 10; stroke-width: .5px;"/>
        <line x1="96.09" y1="5.02" x2="96.09" y2="10.77" style="fill: none; stroke: #c7ba99; stroke-linecap: round; stroke-linejoin: round; stroke-width: 1.5px;"/>
        <line x1="98.16" y1="5.02" x2="98.16" y2="10.77" style="fill: none; stroke: #c7ba99; stroke-linecap: round; stroke-linejoin: round; stroke-width: 1.5px;"/>
        <line x1="94.03" y1="5.02" x2="94.03" y2="10.77" style="fill: none; stroke: #c7ba99; stroke-linecap: round; stroke-linejoin: round; stroke-width: 1.5px;"/>
        <path d="M92.49,5.85s-12.84-8.13-19.21-3.34c-1.7,1.28-2.13,3.43-.91,5.16,1.57,2.23,7.52,4.19,18.64,2.41" style="fill: none; stroke: #89202a; stroke-miterlimit: 10; stroke-width: .5px;"/>
        <g>
          <line x1="96.09" y1="5.02" x2="96.09" y2="10.77" style="fill: none; stroke: #89202a; stroke-miterlimit: 10; stroke-width: .5px;"/>
          <line x1="98.16" y1="5.02" x2="98.16" y2="10.77" style="fill: none; stroke: #89202a; stroke-miterlimit: 10; stroke-width: .5px;"/>
          <line x1="94.03" y1="5.02" x2="94.03" y2="10.77" style="fill: none; stroke: #89202a; stroke-miterlimit: 10; stroke-width: .5px;"/>
        </g>
      </g>
      <g>
        <path d="M30.96,47.31v7.39c0,1.37-.28,2.04-1.06,2.44-.84,.42-2.04,.48-3.92,.48-.08-.64-.45-1.74-.78-2.41,1.18,.06,2.35,.06,2.69,.06,.39-.03,.53-.14,.53-.53v-6.69l-3.42,.95-.67-2.52c1.15-.28,2.55-.62,4.09-1.04v-5.54h-3.67v-2.41h3.67v-5.43h2.55v5.43h3.58v2.41h-3.58v4.84c1.15-.28,2.32-.62,3.47-.95l.31,2.41-3.78,1.12Zm19.1-3.56h-4.4v13.83h-2.58v-13.83h-4.65c-.06,4.87-.62,9.74-3.44,13.97-.48-.56-1.37-1.26-2.1-1.68,2.66-4.06,3-8.68,3-12.91v-8.6c4.03-.5,8.74-1.34,11.62-2.3l1.57,2.21c-2.91,.9-6.94,1.6-10.64,2.04v4.76h11.62v2.49Z" style="fill: #80292d;"/>
        <path d="M73.6,46.72c-1.12,.34-2.27,.67-3.42,1.01v7c0,1.4-.31,2.1-1.12,2.49-.84,.42-2.07,.5-3.95,.48-.11-.64-.48-1.76-.81-2.46,1.18,.06,2.35,.06,2.69,.03,.39,0,.53-.11,.53-.53v-6.27l-3.53,1.04-.62-2.55c1.15-.28,2.58-.64,4.14-1.06v-6.5h-3.78v-2.41h3.78v-4.93h2.66v4.93h3.08v2.41h-3.08v5.8l3.08-.87,.34,2.41Zm14.08-12.38v22.32h-2.72v-2.24h-7.73v2.46h-2.6v-22.54h13.05Zm-2.72,17.61v-15.15h-7.73v15.15h7.73Z" style="fill: #80292d;"/>
        <path d="M110.31,32.81c-.56,1.74-1.23,3.5-1.96,5.21v19.71h-2.49v-14.84c-.7,1.15-1.37,2.16-2.1,3.05-.22-.62-.92-2.07-1.34-2.74,2.24-2.72,4.26-6.89,5.46-11.06l2.44,.67Zm15.82,18.23c-.95,1.46-2.44,2.66-4.37,3.67,2.02,.53,4.23,.87,6.61,1.06-.45,.48-1.01,1.37-1.29,1.99-3-.34-5.77-.92-8.18-1.82-2.35,.84-5.12,1.46-8.32,1.88-.22-.59-.78-1.37-1.26-1.9,2.55-.28,4.84-.67,6.8-1.2-.81-.45-1.6-.9-2.3-1.46-.78,.5-1.68,.95-2.63,1.4-.34-.5-.98-1.18-1.48-1.51,.92-.39,1.82-.78,2.6-1.23-.39-.39-.7-.81-1.04-1.2l1.93-.73c.25,.31,.5,.59,.78,.87,.84-.62,1.57-1.2,2.13-1.85-.73-.28-.95-.81-.95-1.88v-.39c-.67,.98-1.57,2.1-2.66,2.8l-1.48-1.18c1.09-.64,2.13-1.79,2.77-2.77l1.37,.73v-.67h2.1v1.48c0,.53,.17,.62,1.01,.62h3c.62,0,.76-.17,.84-1.09,.36,.22,1.09,.42,1.62,.53-.31-.28-.62-.59-.87-.84l1.4-.84c1.09,.92,2.44,2.27,3.05,3.16l-1.43,.98c-.45-.67-1.26-1.57-2.07-2.41-.17,1.51-.76,1.99-2.27,1.99h-3c-.25,.36-.59,.7-.92,1.04h6.44l.42-.11,1.62,.9Zm2.32-7.7v3.81h-2.32v-2.27h-6.66c.76,.53,1.6,1.15,2.04,1.62l-1.48,.92c-.5-.56-1.57-1.43-2.44-1.99l.92-.56h-6.36v2.3h-2.24v-3.84h2.66v-6.97h4.73c.11-.42,.2-.81,.28-1.23h-6.92v-1.93h17.3v1.93h-7.64l-.5,1.23h6.13v6.97h2.49Zm-13.55-5.57v1.04h8.62v-1.04h-8.62Zm8.62,2.21h-8.62v1.09h8.62v-1.09Zm-8.62,3.36h8.62v-1.06h-8.62v1.06Zm.64,8.76c.95,.64,2.1,1.23,3.36,1.74,1.46-.59,2.63-1.26,3.53-1.96h-6.64l-.25,.22Z" style="fill: #80292d;"/>
        <path d="M142.2,55.65c1.12-1.32,2.07-3.39,2.6-5.1l2.24,.92c-.59,1.76-1.48,4-2.6,5.43l-2.24-1.26Zm11.09-20.02h-10.33v-2.07h10.33v-1.51h2.69v1.51h10.67v2.07h-10.67v1.57h8.74v7.98h-3.61c2.16,1.06,4.51,2.6,5.74,3.81l-1.76,1.43c-.42-.45-1.01-.9-1.6-1.4-3.14,.08-6.36,.14-9.41,.2,1.6,.84,3.42,2.07,4.34,3.05l-1.76,1.54c-.9-1.01-2.8-2.41-4.42-3.3l1.54-1.29c-4.03,.08-7.78,.11-10.67,.14l-.11-2.21c2.72,.03,6.36,0,10.3-.03v-1.93h-8.57v-7.98h8.57v-1.57Zm-6.1,4.76h6.1v-1.57h-6.1v1.57Zm6.1,3.16v-1.6h-6.1v1.6h6.1Zm4.96,11.62c1.32,0,1.57-.34,1.71-2.63,.56,.39,1.6,.73,2.27,.87-.34,3.16-1.09,3.92-3.75,3.92h-5.94c-3.47,0-4.37-.64-4.37-3v-3.61h2.58v3.58c0,.76,.31,.87,1.99,.87h5.52Zm-2.27-16.35v1.57h6.16v-1.57h-6.16Zm6.16,3.14h-6.16v1.6h6.16v-1.6Zm-1.65,5.1c-.64-.36-1.26-.67-1.88-.92l1.29-.95h-3.92v1.93l4.51-.06Zm3.47,3.58c1.32,1.62,2.66,3.84,3.14,5.32l-2.38,.84c-.45-1.46-1.74-3.7-3-5.4l2.24-.76Z" style="fill: #80292d;"/>
      </g>
    </g>
  </g>
</svg>