<?xml version="1.0" encoding="UTF-8"?>
<svg id="b" data-name="圖層 2" xmlns="http://www.w3.org/2000/svg" width="38.23" height="36.29" viewBox="0 0 38.23 36.29">
  <g id="c" data-name="圖層 1">
    <g>
      <path d="M34.98,36.29H3.24c-1.79,0-3.24-1.46-3.24-3.24V7.12c0-1.79,1.46-3.24,3.24-3.24h31.74c1.79,0,3.24,1.46,3.24,3.24v25.93c0,1.79-1.46,3.24-3.24,3.24ZM3.24,4.36C1.72,4.36,.48,5.59,.48,7.12v25.93c0,1.52,1.24,2.76,2.76,2.76h31.74c1.52,0,2.76-1.24,2.76-2.76V7.12c0-1.52-1.24-2.76-2.76-2.76H3.24Z" style="fill: #fff8eb;"/>
      <path d="M37.77,11.13H.46c-.25,0-.46-.2-.46-.46v-3.5c0-1.82,1.48-3.3,3.3-3.3h31.62c1.82,0,3.3,1.48,3.3,3.3v3.5c0,.25-.2,.46-.46,.46ZM3.3,4.36C1.75,4.36,.48,5.62,.48,7.17v3.5l37.26-.03v-3.47c0-1.55-1.26-2.82-2.82-2.82H3.3Z" style="fill: #fff8eb;"/>
      <path d="M10.16,8.23c-.53,0-.97-.43-.97-.97V.97c0-.53,.43-.97,.97-.97s.97,.43,.97,.97V7.26c0,.53-.43,.97-.97,.97Z" style="fill: #fff8eb;"/>
      <path d="M28.79,8.23c-.53,0-.97-.43-.97-.97V.97c0-.53,.43-.97,.97-.97s.97,.43,.97,.97V7.26c0,.53-.43,.97-.97,.97Z" style="fill: #fff8eb;"/>
      <rect x="4.84" y="15.49" width="7.92" height="5.86" rx="1.67" ry="1.67" style="fill: #fff8eb;"/>
      <rect x="15.4" y="15.49" width="7.92" height="5.86" rx="1.67" ry="1.67" style="fill: #fff8eb;"/>
      <rect x="25.96" y="15.49" width="7.92" height="5.86" rx="1.67" ry="1.67" style="fill: #fff8eb;"/>
      <rect x="4.84" y="24.61" width="7.92" height="5.86" rx="1.67" ry="1.67" style="fill: #fff8eb;"/>
      <rect x="15.4" y="24.61" width="7.92" height="5.86" rx="1.67" ry="1.67" style="fill: #fff8eb;"/>
      <rect x="25.96" y="24.61" width="7.92" height="5.86" rx="1.67" ry="1.67" style="fill: #fff8eb;"/>
    </g>
  </g>
</svg>