<?xml version="1.0" encoding="UTF-8"?>
<svg id="b" data-name="圖層 2" xmlns="http://www.w3.org/2000/svg" width="109.16" height="37.38" viewBox="0 0 109.16 37.38">
  <g id="c" data-name="頁面">
    <line x1="109.16" y1="37.13" x2="0" y2="37.13" style="fill: none; stroke: #89202a; stroke-miterlimit: 10; stroke-width: .5px;"/>
    <line x1="109.16" y1="10.98" x2="0" y2="10.98" style="fill: none; stroke: #89202a; stroke-miterlimit: 10; stroke-width: .5px;"/>
    <g>
      <path d="M22.66,24.1v7.17h-1.75v-.94H9.11v-6.24h1.77v4.66h4.11v-5.64h-5.07v-5.95h1.67v4.42h3.4v-5.88h1.75v5.88h3.5v-4.42h1.75v5.95h-5.25v5.64h4.17v-4.66h1.75Z" style="fill: #727171;"/>
      <path d="M35.02,19c-.65,.43-1.29,.83-1.94,1.16-.24-.31-.8-.87-1.14-1.14,1.82-.78,3.76-2.07,4.9-3.43l1.41,.54c-.48,.61-1.07,1.19-1.72,1.72v3.42h-1.51v-2.26Zm3.54,10.22c-1.38,.83-3.52,1.65-5.22,2.12-.27-.32-.83-.9-1.19-1.19,1.75-.34,3.77-.93,4.95-1.6l1.46,.66Zm3.84-.68c1.73,.58,3.6,1.29,4.76,1.84l-1.36,.9c-1.04-.56-2.84-1.34-4.59-1.94l.97-.8h-7.89v-6.83h11.08v6.83h-2.97Zm-6.58-4.86h7.97v-.97h-7.97v.97Zm0,1.9h7.97v-.95h-7.97v.95Zm0,1.95h7.97v-.99h-7.97v.99Zm5.83-6.41c-1.75,0-2.19-.59-2.19-2.07v-3.32h1.58v1.28h5.29v1.27h-5.29v.78c0,.54,.12,.76,.73,.76h3.4c.54,0,1.41-.05,1.78-.12,.05,.44,.1,.94,.17,1.29-.37,.08-1.16,.12-1.85,.12h-3.62Z" style="fill: #727171;"/>
      <path d="M69.22,16.77v14.26h-1.68v-1.04h-8.01v1.11h-1.62v-14.33h11.3Zm-9.69,1.6v4.15h8.01v-4.15h-8.01Zm8.01,10.03v-4.32h-8.01v4.32h8.01Z" style="fill: #727171;"/>
      <path d="M83.23,27.89c-.61,1.27-1.6,2.58-2.52,3.42-.27-.27-.88-.71-1.26-.93,.92-.73,1.79-1.82,2.28-2.89l1.5,.41Zm4.56-.68h-8.28v-1.38h1.58v-6.63h-1.38v-1.38h1.38v-1.95h1.43v1.95h2.65v-1.95h1.46v1.95h1.22v1.38h-1.22v6.63h1.16v1.38Zm-5.27-8.01v1.28h2.65v-1.28h-2.65Zm0,3.93h2.65v-1.41h-2.65v1.41Zm0,2.7h2.65v-1.46h-2.65v1.46Zm2.87,1.6c.66,.76,1.48,1.8,1.84,2.48l-1.27,.76c-.34-.68-1.12-1.78-1.77-2.58l1.21-.66Zm9.18,1.99c0,.83-.19,1.29-.71,1.53-.51,.27-1.33,.31-2.58,.29-.05-.41-.25-1.11-.46-1.5,.8,.03,1.65,.02,1.87,.02,.26-.02,.36-.08,.36-.36v-3.77h-3.13c-.19,2.02-.59,4.18-1.56,5.73-.25-.29-.92-.75-1.26-.9,1.34-2.23,1.46-5.41,1.46-7.84v-6.12h6.02v12.92Zm-1.53-5.22v-2.48h-2.99v.9c0,.49,0,1.04-.03,1.58h3.03Zm-2.99-6.27v2.4h2.99v-2.4h-2.99Z" style="fill: #727171;"/>
    </g>
    <g>
      <path d="M52.72,3.04s-6.71-4.25-10.05-1.75c-.89,.67-1.12,1.79-.48,2.7,.82,1.16,3.93,2.19,9.75,1.26" style="fill: none; stroke: #c7ba99; stroke-miterlimit: 10;"/>
      <path d="M56.51,3.04s6.71-4.25,10.05-1.75c.89,.67,1.12,1.79,.48,2.7-.82,1.16-3.93,2.19-9.75,1.26" style="fill: none; stroke: #c7ba99; stroke-miterlimit: 10;"/>
      <path d="M56.51,3.04s6.71-4.25,10.05-1.75c.89,.67,1.12,1.79,.48,2.7-.82,1.16-3.93,2.19-9.75,1.26" style="fill: none; stroke: #89202a; stroke-miterlimit: 10; stroke-width: .25px;"/>
      <line x1="54.6" y1="2.6" x2="54.6" y2="5.61" style="fill: none; stroke: #c7ba99; stroke-linecap: round; stroke-linejoin: round; stroke-width: .75px;"/>
      <line x1="55.68" y1="2.6" x2="55.68" y2="5.61" style="fill: none; stroke: #c7ba99; stroke-linecap: round; stroke-linejoin: round; stroke-width: .75px;"/>
      <line x1="53.52" y1="2.6" x2="53.52" y2="5.61" style="fill: none; stroke: #c7ba99; stroke-linecap: round; stroke-linejoin: round; stroke-width: .75px;"/>
      <path d="M52.72,3.04s-6.71-4.25-10.05-1.75c-.89,.67-1.12,1.79-.48,2.7,.82,1.16,3.93,2.19,9.75,1.26" style="fill: none; stroke: #89202a; stroke-miterlimit: 10; stroke-width: .25px;"/>
      <g>
        <line x1="54.6" y1="2.6" x2="54.6" y2="5.61" style="fill: none; stroke: #89202a; stroke-miterlimit: 10; stroke-width: .25px;"/>
        <line x1="55.68" y1="2.6" x2="55.68" y2="5.61" style="fill: none; stroke: #89202a; stroke-miterlimit: 10; stroke-width: .25px;"/>
        <line x1="53.52" y1="2.6" x2="53.52" y2="5.61" style="fill: none; stroke: #89202a; stroke-miterlimit: 10; stroke-width: .25px;"/>
      </g>
    </g>
  </g>
</svg>