<?xml version="1.0" encoding="UTF-8"?>
<svg id="b" data-name="圖層 2" xmlns="http://www.w3.org/2000/svg" width="208.76" height="71.49" viewBox="0 0 208.76 71.49">
  <g id="c" data-name="圖層 1">
    <g>
      <line x1="208.76" y1="71.12" x2="0" y2="71.12" style="fill: none; stroke: #89202a; stroke-miterlimit: 10; stroke-width: .75px;"/>
      <line x1="208.76" y1="21.12" x2="0" y2="21.12" style="fill: none; stroke: #89202a; stroke-miterlimit: 10; stroke-width: .75px;"/>
      <g>
        <path d="M100.81,5.85s-12.84-8.13-19.21-3.34c-1.7,1.28-2.13,3.43-.91,5.16,1.57,2.23,7.52,4.19,18.64,2.41" style="fill: none; stroke: #c7ba99; stroke-miterlimit: 10; stroke-width: 2px;"/>
        <path d="M108.06,5.85s12.84-8.13,19.21-3.34c1.7,1.28,2.13,3.43,.91,5.16-1.57,2.23-7.52,4.19-18.64,2.41" style="fill: none; stroke: #c7ba99; stroke-miterlimit: 10; stroke-width: 2px;"/>
        <path d="M108.06,5.85s12.84-8.13,19.21-3.34c1.7,1.28,2.13,3.43,.91,5.16-1.57,2.23-7.52,4.19-18.64,2.41" style="fill: none; stroke: #89202a; stroke-miterlimit: 10; stroke-width: .5px;"/>
        <line x1="104.41" y1="5.02" x2="104.41" y2="10.77" style="fill: none; stroke: #c7ba99; stroke-linecap: round; stroke-linejoin: round; stroke-width: 1.5px;"/>
        <line x1="106.48" y1="5.02" x2="106.48" y2="10.77" style="fill: none; stroke: #c7ba99; stroke-linecap: round; stroke-linejoin: round; stroke-width: 1.5px;"/>
        <line x1="102.35" y1="5.02" x2="102.35" y2="10.77" style="fill: none; stroke: #c7ba99; stroke-linecap: round; stroke-linejoin: round; stroke-width: 1.5px;"/>
        <path d="M100.81,5.85s-12.84-8.13-19.21-3.34c-1.7,1.28-2.13,3.43-.91,5.16,1.57,2.23,7.52,4.19,18.64,2.41" style="fill: none; stroke: #89202a; stroke-miterlimit: 10; stroke-width: .5px;"/>
        <g>
          <line x1="104.41" y1="5.02" x2="104.41" y2="10.77" style="fill: none; stroke: #89202a; stroke-miterlimit: 10; stroke-width: .5px;"/>
          <line x1="106.48" y1="5.02" x2="106.48" y2="10.77" style="fill: none; stroke: #89202a; stroke-miterlimit: 10; stroke-width: .5px;"/>
          <line x1="102.35" y1="5.02" x2="102.35" y2="10.77" style="fill: none; stroke: #89202a; stroke-miterlimit: 10; stroke-width: .5px;"/>
        </g>
      </g>
      <g>
        <path d="M21.6,45.57c-.38,2.12-1,4.42-1.8,6.27,.42,.25,.92,.65,1.67,1.1,1.75,1.05,4.02,1.2,6.95,1.2s7.25-.22,10.02-.57c-.28,.62-.62,1.78-.67,2.4-1.95,.12-6.52,.28-9.45,.28-3.27,0-5.42-.28-7.22-1.32-1-.57-1.92-1.45-2.45-1.45-.57,0-1.42,1.62-2.1,3.15l-1.57-2.15c.9-1.2,1.82-2.22,2.7-2.68,.62-1.35,1.15-3.15,1.47-4.77h-3.22c.65-1.47,1.42-3.5,2.05-5.45h-2.6v-2.1h5.52c-.6,1.77-1.3,3.82-1.95,5.55h.92l.35-.07,1.37,.62Zm-3.62-7.15c-.27-1.1-.9-2.88-1.3-4.2l2.05-.6c.45,1.3,1.05,2.95,1.38,4.02l-2.12,.78Zm5.87,.62h-2v-4.67h15.6v4.67h-2.22v-2.9h-11.22v2h4.6v-1.15h2.25v1.15h4.27v1.68h-4.27v1.25h5.32v7.15h-5.32v1.22h6.67v1.75h-6.67v1.9h-2.25v-1.9h-6.57v-1.75h6.57v-1.22h-5.32v-7.15h5.32v-1.25h-4.75v-.78Zm1.42,4.87h3.32v-1.35h-3.32v1.35Zm3.32,2.8v-1.38h-3.32v1.38h3.32Zm2.25-4.15v1.35h3.25v-1.35h-3.25Zm3.25,2.78h-3.25v1.38h3.25v-1.38Z" style="fill: #727171;"/>
        <path d="M72.3,45.32c-.58,2.32-1.42,4.75-2.4,6.62,.4,.25,.85,.6,1.5,1,1.7,1.05,4,1.2,6.9,1.2,3.05,0,7.22-.22,10-.57-.28,.65-.65,1.78-.67,2.4-1.95,.12-6.47,.28-9.42,.28-3.25,0-5.37-.28-7.2-1.32-1-.57-1.9-1.45-2.42-1.45-.55,0-1.42,1.62-2.08,3.15l-1.57-2.17c1.02-1.35,2.05-2.42,2.97-2.82,.68-1.3,1.33-3.03,1.75-4.7h-3.4c.62-1.45,1.38-3.45,2.02-5.35h-2.97v-2.1h5.82c-.58,1.72-1.32,3.72-1.97,5.42h1.77l.35-.1,1.02,.45v-1.9h6.25v-3.22h-5.6v-2.1h3.42c-.48-1-1.28-2.5-1.97-3.62l1.97-.78c.72,1.15,1.67,2.72,2.15,3.67l-1.65,.72h4.47c.82-1.32,1.72-3.12,2.25-4.47l2.35,.72c-.72,1.25-1.52,2.62-2.25,3.75h3.37v2.1h-6.12v3.22h6.9v2.12h-6.8c2.12,1.92,4.77,4.3,6.15,5.77l-1.65,1.65c-1.17-1.4-3.47-3.62-5.47-5.5-.92,1.97-2.75,3.97-6.22,5.55-.35-.5-1.08-1.32-1.62-1.78,4.05-1.57,5.52-3.7,6.02-5.7h-5.95v-.15Zm-4.15-6.77c-.27-1.07-.9-2.77-1.3-4.07l2.12-.6c.42,1.28,1.05,2.9,1.38,3.95l-2.2,.72Z" style="fill: #727171;"/>
        <path d="M124.95,39.97c-.08,1.18-.15,2.38-.3,3.55h10.62s-.02,.72-.1,1.05c-.48,6.9-.95,9.65-1.95,10.67-.67,.68-1.32,.88-2.37,.97-.92,.08-2.55,.05-4.22-.05-.03-.68-.35-1.62-.83-2.28,1.77,.15,3.47,.18,4.17,.18,.55,0,.88-.05,1.2-.3,.7-.57,1.15-2.9,1.55-8h-8.42c-.8,4.3-2.62,8.32-7.25,10.82-.35-.62-1.07-1.42-1.7-1.9,6.2-3.15,6.77-9.22,7.02-14.72h-6.55v-2.27h10.7c-.32-1-1-2.42-1.57-3.5l2.27-.85c.65,1.12,1.42,2.62,1.77,3.62l-1.67,.72h10.27v2.27h-12.65Z" style="fill: #727171;"/>
        <path d="M180.75,40.27c.55,7.87,2.3,13.82,4.47,13.82,.6,0,.9-1.35,1.05-4.6,.52,.55,1.4,1.1,2.05,1.32-.4,4.5-1.23,5.72-3.3,5.72-4.12,0-6.1-7.27-6.72-16.27h-12.67v-2.27h12.52c-.05-1.43-.1-2.88-.1-4.32h2.5c-.03,1.45,0,2.92,.05,4.32h7.17v2.27h-7.02Zm-7.75,11.8c1.65-.3,3.35-.65,5.02-1l.17,2.1c-4.15,.95-8.62,1.93-11.82,2.62l-.67-2.35c1.35-.22,3.07-.55,4.97-.9v-6.7h-4.15v-2.25h10.85v2.25h-4.37v6.22Zm10.42-18.39c1.22,.8,2.75,2.02,3.47,2.87l-1.62,1.45c-.7-.88-2.15-2.18-3.37-3.05l1.52-1.27Z" style="fill: #727171;"/>
      </g>
    </g>
  </g>
</svg>