<?xml version="1.0" encoding="UTF-8"?>
<svg id="b" data-name="圖層 2" xmlns="http://www.w3.org/2000/svg" width="208.76" height="71.49" viewBox="0 0 208.76 71.49">
  <g id="c" data-name="圖層 1">
    <g>
      <line x1="208.76" y1="71.12" x2="0" y2="71.12" style="fill: none; stroke: #89202a; stroke-miterlimit: 10; stroke-width: .75px;"/>
      <line x1="208.76" y1="21.12" x2="0" y2="21.12" style="fill: none; stroke: #89202a; stroke-miterlimit: 10; stroke-width: .75px;"/>
      <g>
        <path d="M100.81,5.85s-12.84-8.13-19.21-3.34c-1.7,1.28-2.13,3.43-.91,5.16,1.57,2.23,7.52,4.19,18.64,2.41" style="fill: none; stroke: #c7ba99; stroke-miterlimit: 10; stroke-width: 2px;"/>
        <path d="M108.06,5.85s12.84-8.13,19.21-3.34c1.7,1.28,2.13,3.43,.91,5.16-1.57,2.23-7.52,4.19-18.64,2.41" style="fill: none; stroke: #c7ba99; stroke-miterlimit: 10; stroke-width: 2px;"/>
        <path d="M108.06,5.85s12.84-8.13,19.21-3.34c1.7,1.28,2.13,3.43,.91,5.16-1.57,2.23-7.52,4.19-18.64,2.41" style="fill: none; stroke: #89202a; stroke-miterlimit: 10; stroke-width: .5px;"/>
        <line x1="104.41" y1="5.02" x2="104.41" y2="10.77" style="fill: none; stroke: #c7ba99; stroke-linecap: round; stroke-linejoin: round; stroke-width: 1.5px;"/>
        <line x1="106.48" y1="5.02" x2="106.48" y2="10.77" style="fill: none; stroke: #c7ba99; stroke-linecap: round; stroke-linejoin: round; stroke-width: 1.5px;"/>
        <line x1="102.35" y1="5.02" x2="102.35" y2="10.77" style="fill: none; stroke: #c7ba99; stroke-linecap: round; stroke-linejoin: round; stroke-width: 1.5px;"/>
        <path d="M100.81,5.85s-12.84-8.13-19.21-3.34c-1.7,1.28-2.13,3.43-.91,5.16,1.57,2.23,7.52,4.19,18.64,2.41" style="fill: none; stroke: #89202a; stroke-miterlimit: 10; stroke-width: .5px;"/>
        <g>
          <line x1="104.41" y1="5.02" x2="104.41" y2="10.77" style="fill: none; stroke: #89202a; stroke-miterlimit: 10; stroke-width: .5px;"/>
          <line x1="106.48" y1="5.02" x2="106.48" y2="10.77" style="fill: none; stroke: #89202a; stroke-miterlimit: 10; stroke-width: .5px;"/>
          <line x1="102.35" y1="5.02" x2="102.35" y2="10.77" style="fill: none; stroke: #89202a; stroke-miterlimit: 10; stroke-width: .5px;"/>
        </g>
      </g>
      <g>
        <path d="M36.6,45.92v10.55h-2.58v-1.37H16.68v-9.17h2.6v6.85h6.05v-8.3h-7.45v-8.75h2.45v6.5h5v-8.65h2.57v8.65h5.15v-6.5h2.57v8.75h-7.72v8.3h6.12v-6.85h2.58Z" style="fill: #727171;"/>
        <path d="M69.78,38.42c-.95,.62-1.9,1.22-2.85,1.7-.35-.45-1.17-1.27-1.67-1.67,2.67-1.15,5.52-3.05,7.2-5.05l2.07,.8c-.7,.9-1.58,1.75-2.52,2.53v5.02h-2.22v-3.32Zm5.2,15.02c-2.03,1.22-5.17,2.42-7.67,3.12-.4-.48-1.22-1.33-1.75-1.75,2.57-.5,5.55-1.38,7.27-2.35l2.15,.97Zm5.65-1c2.55,.85,5.3,1.9,7,2.7l-2,1.32c-1.52-.82-4.17-1.97-6.75-2.85l1.42-1.18h-11.6v-10.05h16.3v10.05h-4.37Zm-9.67-7.15h11.72v-1.42h-11.72v1.42Zm0,2.8h11.72v-1.4h-11.72v1.4Zm0,2.88h11.72v-1.45h-11.72v1.45Zm8.57-9.42c-2.58,0-3.22-.88-3.22-3.05v-4.87h2.32v1.88h7.77v1.88h-7.77v1.15c0,.8,.17,1.12,1.08,1.12h5c.8,0,2.08-.07,2.62-.17,.08,.65,.15,1.37,.25,1.9-.55,.12-1.7,.18-2.72,.18h-5.32Z" style="fill: #727171;"/>
        <path d="M135.07,35.14v20.97h-2.47v-1.52h-11.77v1.62h-2.37v-21.07h16.62Zm-14.25,2.35v6.1h11.77v-6.1h-11.77Zm11.77,14.75v-6.35h-11.77v6.35h11.77Z" style="fill: #727171;"/>
        <path d="M170.68,51.49c-.9,1.88-2.35,3.8-3.7,5.02-.4-.4-1.3-1.05-1.85-1.38,1.35-1.07,2.62-2.67,3.35-4.25l2.2,.6Zm6.7-1h-12.17v-2.03h2.33v-9.75h-2.03v-2.03h2.03v-2.88h2.1v2.88h3.9v-2.88h2.15v2.88h1.8v2.03h-1.8v9.75h1.7v2.03Zm-7.75-11.77v1.87h3.9v-1.87h-3.9Zm0,5.77h3.9v-2.07h-3.9v2.07Zm0,3.97h3.9v-2.15h-3.9v2.15Zm4.22,2.35c.97,1.12,2.17,2.65,2.7,3.65l-1.88,1.12c-.5-1-1.65-2.62-2.6-3.8l1.77-.97Zm13.5,2.93c0,1.22-.27,1.9-1.05,2.25-.75,.4-1.95,.45-3.8,.43-.08-.6-.38-1.62-.67-2.2,1.17,.05,2.42,.02,2.75,.02,.37-.02,.52-.12,.52-.52v-5.55h-4.6c-.28,2.97-.88,6.15-2.3,8.42-.38-.42-1.35-1.1-1.85-1.32,1.97-3.27,2.15-7.95,2.15-11.52v-9h8.85v19Zm-2.25-7.67v-3.65h-4.4v1.32c0,.72,0,1.52-.05,2.32h4.45Zm-4.4-9.22v3.52h4.4v-3.52h-4.4Z" style="fill: #727171;"/>
      </g>
    </g>
  </g>
</svg>