<?xml version="1.0" encoding="UTF-8"?>
<svg id="b" data-name="圖層 2" xmlns="http://www.w3.org/2000/svg" width="109.16" height="37.38" viewBox="0 0 109.16 37.38">
  <g id="c" data-name="頁面">
    <line x1="109.16" y1="37.13" x2="0" y2="37.13" style="fill: none; stroke: #89202a; stroke-miterlimit: 10; stroke-width: .5px;"/>
    <line x1="109.16" y1="10.98" x2="0" y2="10.98" style="fill: none; stroke: #89202a; stroke-miterlimit: 10; stroke-width: .5px;"/>
    <g>
      <path d="M12.46,23.86c-.25,1.44-.68,3.01-1.22,4.27,.29,.17,.63,.44,1.14,.75,1.19,.71,2.74,.82,4.73,.82s4.93-.15,6.82-.39c-.19,.42-.42,1.21-.46,1.63-1.33,.08-4.44,.19-6.42,.19-2.23,0-3.69-.19-4.91-.9-.68-.39-1.31-.99-1.67-.99-.39,0-.97,1.1-1.43,2.14l-1.07-1.46c.61-.82,1.24-1.51,1.84-1.82,.42-.92,.78-2.14,1-3.25h-2.19c.44-1,.97-2.38,1.39-3.71h-1.77v-1.43h3.76c-.41,1.21-.88,2.6-1.33,3.77h.63l.24-.05,.94,.43Zm-2.46-4.86c-.19-.75-.61-1.95-.88-2.86l1.39-.41c.31,.88,.71,2.01,.93,2.74l-1.44,.53Zm3.99,.43h-1.36v-3.18h10.61v3.18h-1.51v-1.97h-7.63v1.36h3.13v-.78h1.53v.78h2.91v1.14h-2.91v.85h3.62v4.86h-3.62v.83h4.54v1.19h-4.54v1.29h-1.53v-1.29h-4.47v-1.19h4.47v-.83h-3.62v-4.86h3.62v-.85h-3.23v-.53Zm.97,3.31h2.26v-.92h-2.26v.92Zm2.26,1.9v-.93h-2.26v.93h2.26Zm1.53-2.82v.92h2.21v-.92h-2.21Zm2.21,1.89h-2.21v.93h2.21v-.93Z" style="fill: #727171;"/>
      <path d="M36.74,23.69c-.39,1.58-.97,3.23-1.63,4.5,.27,.17,.58,.41,1.02,.68,1.16,.71,2.72,.82,4.69,.82,2.07,0,4.91-.15,6.8-.39-.19,.44-.44,1.21-.46,1.63-1.33,.08-4.4,.19-6.41,.19-2.21,0-3.65-.19-4.9-.9-.68-.39-1.29-.99-1.65-.99-.37,0-.97,1.1-1.41,2.14l-1.07-1.48c.7-.92,1.39-1.65,2.02-1.92,.46-.88,.9-2.06,1.19-3.2h-2.31c.42-.99,.93-2.35,1.38-3.64h-2.02v-1.43h3.96c-.39,1.17-.9,2.53-1.34,3.69h1.21l.24-.07,.7,.31v-1.29h4.25v-2.19h-3.81v-1.43h2.33c-.32-.68-.87-1.7-1.34-2.46l1.34-.53c.49,.78,1.14,1.85,1.46,2.5l-1.12,.49h3.04c.56-.9,1.17-2.12,1.53-3.04l1.6,.49c-.49,.85-1.04,1.79-1.53,2.55h2.29v1.43h-4.16v2.19h4.69v1.45h-4.62c1.45,1.31,3.25,2.92,4.18,3.93l-1.12,1.12c-.8-.95-2.36-2.46-3.72-3.74-.63,1.34-1.87,2.7-4.23,3.77-.24-.34-.73-.9-1.1-1.21,2.75-1.07,3.76-2.52,4.1-3.88h-4.05v-.1Zm-2.82-4.61c-.19-.73-.61-1.89-.88-2.77l1.45-.41c.29,.87,.71,1.97,.93,2.69l-1.5,.49Z" style="fill: #727171;"/>
      <path d="M62.34,20.06c-.05,.8-.1,1.61-.2,2.41h7.22s-.02,.49-.07,.71c-.32,4.69-.65,6.56-1.33,7.26-.46,.46-.9,.59-1.62,.66-.63,.05-1.73,.03-2.87-.03-.02-.46-.24-1.11-.56-1.55,1.21,.1,2.36,.12,2.84,.12,.37,0,.59-.03,.82-.2,.48-.39,.78-1.97,1.05-5.44h-5.73c-.54,2.92-1.79,5.66-4.93,7.36-.24-.42-.73-.97-1.16-1.29,4.22-2.14,4.61-6.27,4.78-10.01h-4.45v-1.55h7.28c-.22-.68-.68-1.65-1.07-2.38l1.55-.58c.44,.76,.97,1.79,1.21,2.46l-1.14,.49h6.99v1.55h-8.6Z" style="fill: #727171;"/>
      <path d="M90.08,20.26c.37,5.35,1.56,9.4,3.04,9.4,.41,0,.61-.92,.71-3.13,.36,.37,.95,.75,1.39,.9-.27,3.06-.83,3.89-2.24,3.89-2.8,0-4.15-4.95-4.57-11.07h-8.62v-1.55h8.52c-.03-.97-.07-1.95-.07-2.94h1.7c-.02,.99,0,1.99,.03,2.94h4.88v1.55h-4.78Zm-5.27,8.02c1.12-.2,2.28-.44,3.42-.68l.12,1.43c-2.82,.65-5.86,1.31-8.04,1.79l-.46-1.6c.92-.15,2.09-.37,3.38-.61v-4.56h-2.82v-1.53h7.38v1.53h-2.98v4.23Zm7.09-12.51c.83,.54,1.87,1.38,2.36,1.96l-1.1,.99c-.48-.59-1.46-1.48-2.29-2.07l1.04-.87Z" style="fill: #727171;"/>
    </g>
    <g>
      <path d="M52.72,3.04s-6.71-4.25-10.05-1.75c-.89,.67-1.12,1.79-.48,2.7,.82,1.16,3.93,2.19,9.75,1.26" style="fill: none; stroke: #c7ba99; stroke-miterlimit: 10;"/>
      <path d="M56.51,3.04s6.71-4.25,10.05-1.75c.89,.67,1.12,1.79,.48,2.7-.82,1.16-3.93,2.19-9.75,1.26" style="fill: none; stroke: #c7ba99; stroke-miterlimit: 10;"/>
      <path d="M56.51,3.04s6.71-4.25,10.05-1.75c.89,.67,1.12,1.79,.48,2.7-.82,1.16-3.93,2.19-9.75,1.26" style="fill: none; stroke: #89202a; stroke-miterlimit: 10; stroke-width: .25px;"/>
      <line x1="54.6" y1="2.6" x2="54.6" y2="5.61" style="fill: none; stroke: #c7ba99; stroke-linecap: round; stroke-linejoin: round; stroke-width: .75px;"/>
      <line x1="55.68" y1="2.6" x2="55.68" y2="5.61" style="fill: none; stroke: #c7ba99; stroke-linecap: round; stroke-linejoin: round; stroke-width: .75px;"/>
      <line x1="53.52" y1="2.6" x2="53.52" y2="5.61" style="fill: none; stroke: #c7ba99; stroke-linecap: round; stroke-linejoin: round; stroke-width: .75px;"/>
      <path d="M52.72,3.04s-6.71-4.25-10.05-1.75c-.89,.67-1.12,1.79-.48,2.7,.82,1.16,3.93,2.19,9.75,1.26" style="fill: none; stroke: #89202a; stroke-miterlimit: 10; stroke-width: .25px;"/>
      <g>
        <line x1="54.6" y1="2.6" x2="54.6" y2="5.61" style="fill: none; stroke: #89202a; stroke-miterlimit: 10; stroke-width: .25px;"/>
        <line x1="55.68" y1="2.6" x2="55.68" y2="5.61" style="fill: none; stroke: #89202a; stroke-miterlimit: 10; stroke-width: .25px;"/>
        <line x1="53.52" y1="2.6" x2="53.52" y2="5.61" style="fill: none; stroke: #89202a; stroke-miterlimit: 10; stroke-width: .25px;"/>
      </g>
    </g>
  </g>
</svg>