<?xml version="1.0" encoding="UTF-8"?>
<svg id="b" data-name="圖層 2" xmlns="http://www.w3.org/2000/svg" width="36" height="36" viewBox="0 0 36 36">
  <g id="c" data-name="圖層 1">
    <g>
      <rect x="0" y="0" width="36" height="36" rx="4.13" ry="4.13" style="fill: #b5b5b6;"/>
      <path d="M30,16.3c0-5.37-5.38-9.74-12-9.74S6,10.93,6,16.3c0,4.81,4.27,8.85,10.04,9.61,.39,.08,.92,.26,1.06,.59,.12,.3,.08,.78,.04,1.09,0,0-.14,.85-.17,1.03-.05,.3-.24,1.19,1.04,.65,1.28-.54,6.91-4.07,9.43-6.97h0c1.74-1.91,2.57-3.84,2.57-5.99Zm-16.24,2.87c0,.13-.1,.23-.23,.23h-3.37c-.13,0-.23-.1-.23-.23h0v-5.24c0-.13,.1-.23,.23-.23h.85c.13,0,.23,.1,.23,.23v4.16h2.29c.13,0,.23,.1,.23,.23v.85Zm2.03,0c0,.13-.1,.23-.23,.23h-.85c-.13,0-.23-.1-.23-.23v-5.24c0-.13,.1-.23,.23-.23h.85c.13,0,.23,.1,.23,.23v5.24Zm5.79,0c0,.13-.1,.23-.23,.23h-.85s-.04,0-.06,0c0,0,0,0,0,0,0,0-.01,0-.02,0,0,0,0,0,0,0,0,0,0,0-.01,0,0,0,0,0-.01,0,0,0,0,0,0,0,0,0,0,0-.01,0,0,0,0,0,0,0-.02-.02-.04-.03-.06-.06l-2.4-3.24v3.11c0,.13-.1,.23-.23,.23h-.85c-.13,0-.23-.1-.23-.23v-5.24c0-.13,.1-.23,.23-.23h.85s0,0,0,0c0,0,0,0,.01,0,0,0,0,0,.01,0,0,0,0,0,0,0,0,0,0,0,.01,0,0,0,0,0,0,0,0,0,0,0,.01,0,0,0,0,0,0,0,0,0,0,0,.01,0,0,0,0,0,0,0,0,0,0,0,.01,0,0,0,0,0,0,0,0,0,0,0,.01,0h0s0,.01,.01,.02h0s0,.01,.01,.02c0,0,0,0,0,0,0,0,.01,.02,.02,.02l2.4,3.24v-3.11c0-.13,.1-.23,.23-.23h.85c.13,0,.23,.1,.23,.23v5.24Zm4.65-4.39c0,.13-.1,.23-.23,.23h-2.29v.88h2.29c.13,0,.23,.1,.23,.23v.85c0,.13-.1,.23-.23,.23h-2.29v.88h2.29c.13,0,.23,.1,.23,.23v.85c0,.13-.1,.23-.23,.23h-3.37c-.13,0-.23-.1-.23-.23h0v-5.23h0c0-.13,.1-.23,.23-.23h3.37c.13,0,.23,.1,.23,.23v.85Z" style="fill: #fff;"/>
    </g>
  </g>
</svg>