<?xml version="1.0" encoding="UTF-8"?>
<svg id="b" data-name="圖層 2" xmlns="http://www.w3.org/2000/svg" width="109.16" height="37.38" viewBox="0 0 109.16 37.38">
  <g id="c" data-name="頁面">
    <line x1="109.16" y1="37.13" x2="0" y2="37.13" style="fill: none; stroke: #89202a; stroke-miterlimit: 10; stroke-width: .5px;"/>
    <line x1="109.16" y1="10.98" x2="0" y2="10.98" style="fill: none; stroke: #89202a; stroke-miterlimit: 10; stroke-width: .5px;"/>
    <g>
      <path d="M11.36,18.53h3.38v1.26h-6.49v-1.26h3.08c-.25-.63-.76-1.6-1.22-2.29l1.24-.63c.46,.71,1.02,1.62,1.26,2.23l-1.24,.7Zm-2.38,2.26h5.29v1.24h-5.29v-1.24Zm0,2.24h5.27v1.22h-5.27v-1.22Zm5.22,7.28h-3.84v.76h-1.36v-5.75h5.2v4.98Zm-3.84-3.71v2.43h2.46v-2.43h-2.46Zm13.36-8.01h-2.41v10.5c0,.97-.24,1.48-.92,1.72-.68,.27-1.79,.29-3.42,.29-.08-.44-.36-1.19-.63-1.63,1.24,.07,2.52,.05,2.89,.05,.34-.02,.46-.12,.46-.44v-10.49h-4.59v-1.55h8.62v1.55Z" style="fill: #727171;"/>
      <path d="M47.23,29.01h-6.77v2.26h-1.62v-2.26h-6.59v-1.38h6.59v-1.11h-4.95v-6.1h11.8v6.1h-5.24v1.11h6.77v1.38Zm-8.07-9.35h-5.76v-3.33h5.76v3.33Zm-1.51-2.31h-2.84v1.31h2.84v-1.31Zm-2.19,5.52h3.4v-1.19h-3.4v1.19Zm3.4,2.4v-1.22h-3.4v1.22h3.4Zm7.31-5.61h-5.81v-3.33h5.81v3.33Zm-2.07,2.02h-3.62v1.19h3.62v-1.19Zm0,2.36h-3.62v1.22h3.62v-1.22Zm.58-6.7h-2.89v1.31h2.89v-1.31Z" style="fill: #727171;"/>
      <path d="M71.18,30.59h-6.58v.7h-1.5v-7.8c-.34,.29-.68,.58-1.04,.83-.14-.27-.46-.8-.75-1.16v6.02h-2.89v1.27h-1.34v-5.01c-.24,.39-.46,.77-.73,1.11-.15-.34-.58-1.11-.87-1.46,1.19-1.62,1.92-4.11,2.35-6.8h-1.9v-1.43h5.56v1.43h-2.14c-.22,1.22-.48,2.4-.78,3.52h2.75v1.04c1.48-1.02,2.65-2.43,3.52-4.15h-1.67v1.62h-1.34v-2.96h3.62c.19-.54,.39-1.12,.54-1.7l1.48,.32c-.14,.46-.27,.93-.44,1.38h3.89v2.91h-1.43v-1.56h-3.01c-.37,.83-.82,1.62-1.29,2.35h1.85c-.2-.44-.43-.95-.65-1.34l1.34-.53c.32,.6,.68,1.33,.88,1.87h2.09v1.33h-2.43v1.46h2.24v1.19h-2.24v1.53h2.24v1.21h-2.24v1.53h2.89v1.31Zm-11.24-7.41h-1.51v4.62h1.51v-4.62Zm6.88-.82h-2.23v1.46h2.23v-1.46Zm0,2.65h-2.23v1.53h2.23v-1.53Zm-2.23,4.27h2.23v-1.53h-2.23v1.53Z" style="fill: #727171;"/>
      <path d="M85.53,19.75h-6.02v-1.26h2.65c-.19-.61-.61-1.58-.99-2.28l1.33-.48c.42,.71,.87,1.63,1.07,2.24l-1.31,.51h3.26v1.26Zm-.46,9.35c.51-.92,.85-2.35,1.05-3.52l1.1,.32c-.2,1.29-.53,2.84-1.1,3.79l-1.05-.44v1.12h-3.79v.71h-1.33v-5.71h5.12v3.72Zm.07-7.05h-5.17v-1.24h5.17v1.24Zm-5.17,1.02h5.17v1.24h-5.17v-1.24Zm3.76,3.57h-2.45v2.46h2.45v-2.46Zm7.24-8.98c-.34,2.99-1.19,5.51-4.33,6.95-.17-.36-.56-.88-.9-1.14,1.41-.59,2.29-1.39,2.84-2.38-.65-.66-1.65-1.53-2.43-2.18l.85-.85c.65,.51,1.48,1.19,2.12,1.75,.2-.68,.32-1.39,.42-2.16h-3.4v-1.33h8.4s0,.42-.03,.63c-.17,4.25-.34,5.81-.78,6.36-.32,.36-.65,.49-1.14,.56-.42,.05-1.17,.03-1.94,0-.03-.39-.19-.97-.42-1.36,.71,.07,1.39,.07,1.67,.07,.26,0,.41-.03,.56-.19,.24-.32,.42-1.56,.56-4.74h-2.04Zm.31,12.04c.51,0,.61-.29,.66-2.18,.29,.22,.87,.44,1.24,.53-.15,2.31-.53,2.89-1.77,2.89h-2.06c-1.48,0-1.82-.41-1.82-1.75v-3.94h1.36v3.93c0,.44,.08,.53,.65,.53h1.73Zm-1.39-5.76c.7,.76,1.5,1.79,1.85,2.45l-1.02,.73c-.32-.71-1.1-1.78-1.78-2.57l.95-.61Zm3.88,.95c.63,1.14,1.26,2.62,1.5,3.55l-1.21,.46c-.2-.94-.78-2.46-1.39-3.62l1.1-.39Z" style="fill: #727171;"/>
    </g>
    <g>
      <path d="M52.72,3.04s-6.71-4.25-10.05-1.75c-.89,.67-1.12,1.79-.48,2.7,.82,1.16,3.93,2.19,9.75,1.26" style="fill: none; stroke: #c7ba99; stroke-miterlimit: 10;"/>
      <path d="M56.51,3.04s6.71-4.25,10.05-1.75c.89,.67,1.12,1.79,.48,2.7-.82,1.16-3.93,2.19-9.75,1.26" style="fill: none; stroke: #c7ba99; stroke-miterlimit: 10;"/>
      <path d="M56.51,3.04s6.71-4.25,10.05-1.75c.89,.67,1.12,1.79,.48,2.7-.82,1.16-3.93,2.19-9.75,1.26" style="fill: none; stroke: #89202a; stroke-miterlimit: 10; stroke-width: .25px;"/>
      <line x1="54.6" y1="2.6" x2="54.6" y2="5.61" style="fill: none; stroke: #c7ba99; stroke-linecap: round; stroke-linejoin: round; stroke-width: .75px;"/>
      <line x1="55.68" y1="2.6" x2="55.68" y2="5.61" style="fill: none; stroke: #c7ba99; stroke-linecap: round; stroke-linejoin: round; stroke-width: .75px;"/>
      <line x1="53.52" y1="2.6" x2="53.52" y2="5.61" style="fill: none; stroke: #c7ba99; stroke-linecap: round; stroke-linejoin: round; stroke-width: .75px;"/>
      <path d="M52.72,3.04s-6.71-4.25-10.05-1.75c-.89,.67-1.12,1.79-.48,2.7,.82,1.16,3.93,2.19,9.75,1.26" style="fill: none; stroke: #89202a; stroke-miterlimit: 10; stroke-width: .25px;"/>
      <g>
        <line x1="54.6" y1="2.6" x2="54.6" y2="5.61" style="fill: none; stroke: #89202a; stroke-miterlimit: 10; stroke-width: .25px;"/>
        <line x1="55.68" y1="2.6" x2="55.68" y2="5.61" style="fill: none; stroke: #89202a; stroke-miterlimit: 10; stroke-width: .25px;"/>
        <line x1="53.52" y1="2.6" x2="53.52" y2="5.61" style="fill: none; stroke: #89202a; stroke-miterlimit: 10; stroke-width: .25px;"/>
      </g>
    </g>
  </g>
</svg>