<?xml version="1.0" encoding="UTF-8"?>
<svg id="b" data-name="圖層 2" xmlns="http://www.w3.org/2000/svg" width="208.76" height="71.49" viewBox="0 0 208.76 71.49">
  <g id="c" data-name="圖層 1">
    <g>
      <line x1="208.76" y1="71.12" x2="0" y2="71.12" style="fill: none; stroke: #89202a; stroke-miterlimit: 10; stroke-width: .75px;"/>
      <line x1="208.76" y1="21.12" x2="0" y2="21.12" style="fill: none; stroke: #89202a; stroke-miterlimit: 10; stroke-width: .75px;"/>
      <g>
        <path d="M100.81,5.85s-12.84-8.13-19.21-3.34c-1.7,1.28-2.13,3.43-.91,5.16,1.57,2.23,7.52,4.19,18.64,2.41" style="fill: none; stroke: #c7ba99; stroke-miterlimit: 10; stroke-width: 2px;"/>
        <path d="M108.06,5.85s12.84-8.13,19.21-3.34c1.7,1.28,2.13,3.43,.91,5.16-1.57,2.23-7.52,4.19-18.64,2.41" style="fill: none; stroke: #c7ba99; stroke-miterlimit: 10; stroke-width: 2px;"/>
        <path d="M108.06,5.85s12.84-8.13,19.21-3.34c1.7,1.28,2.13,3.43,.91,5.16-1.57,2.23-7.52,4.19-18.64,2.41" style="fill: none; stroke: #89202a; stroke-miterlimit: 10; stroke-width: .5px;"/>
        <line x1="104.41" y1="5.02" x2="104.41" y2="10.77" style="fill: none; stroke: #c7ba99; stroke-linecap: round; stroke-linejoin: round; stroke-width: 1.5px;"/>
        <line x1="106.48" y1="5.02" x2="106.48" y2="10.77" style="fill: none; stroke: #c7ba99; stroke-linecap: round; stroke-linejoin: round; stroke-width: 1.5px;"/>
        <line x1="102.35" y1="5.02" x2="102.35" y2="10.77" style="fill: none; stroke: #c7ba99; stroke-linecap: round; stroke-linejoin: round; stroke-width: 1.5px;"/>
        <path d="M100.81,5.85s-12.84-8.13-19.21-3.34c-1.7,1.28-2.13,3.43-.91,5.16,1.57,2.23,7.52,4.19,18.64,2.41" style="fill: none; stroke: #89202a; stroke-miterlimit: 10; stroke-width: .5px;"/>
        <g>
          <line x1="104.41" y1="5.02" x2="104.41" y2="10.77" style="fill: none; stroke: #89202a; stroke-miterlimit: 10; stroke-width: .5px;"/>
          <line x1="106.48" y1="5.02" x2="106.48" y2="10.77" style="fill: none; stroke: #89202a; stroke-miterlimit: 10; stroke-width: .5px;"/>
          <line x1="102.35" y1="5.02" x2="102.35" y2="10.77" style="fill: none; stroke: #89202a; stroke-miterlimit: 10; stroke-width: .5px;"/>
        </g>
      </g>
      <g>
        <path d="M19.98,37.72h4.97v1.85H15.4v-1.85h4.52c-.38-.92-1.12-2.35-1.8-3.37l1.82-.92c.67,1.05,1.5,2.37,1.85,3.27l-1.82,1.02Zm-3.5,3.32h7.77v1.82h-7.77v-1.82Zm0,3.3h7.75v1.8h-7.75v-1.8Zm7.67,10.7h-5.65v1.12h-2v-8.45h7.65v7.32Zm-5.65-5.45v3.57h3.62v-3.57h-3.62Zm19.64-11.77h-3.55v15.45c0,1.42-.35,2.17-1.35,2.52-1,.4-2.62,.42-5.02,.42-.12-.65-.53-1.75-.92-2.4,1.82,.1,3.7,.08,4.25,.08,.5-.02,.67-.17,.67-.65v-15.42h-6.75v-2.27h12.67v2.27Z" style="fill: #727171;"/>
        <path d="M87.72,53.14h-9.95v3.32h-2.37v-3.32h-9.7v-2.02h9.7v-1.62h-7.27v-8.97h17.35v8.97h-7.7v1.62h9.95v2.02Zm-11.87-13.75h-8.47v-4.9h8.47v4.9Zm-2.22-3.4h-4.17v1.92h4.17v-1.92Zm-3.22,8.12h5v-1.75h-5v1.75Zm5,3.52v-1.8h-5v1.8h5Zm10.75-8.25h-8.55v-4.9h8.55v4.9Zm-3.05,2.97h-5.32v1.75h5.32v-1.75Zm0,3.47h-5.32v1.8h5.32v-1.8Zm.85-9.85h-4.25v1.92h4.25v-1.92Z" style="fill: #727171;"/>
        <path d="M137.95,55.46h-9.67v1.02h-2.2v-11.47c-.5,.42-1,.85-1.53,1.22-.2-.4-.67-1.17-1.1-1.7v8.85h-4.25v1.88h-1.97v-7.37c-.35,.57-.67,1.12-1.07,1.62-.22-.5-.85-1.62-1.27-2.15,1.75-2.37,2.82-6.05,3.45-10h-2.8v-2.1h8.17v2.1h-3.15c-.32,1.8-.7,3.52-1.15,5.17h4.05v1.52c2.17-1.5,3.9-3.57,5.17-6.1h-2.45v2.37h-1.97v-4.35h5.32c.27-.8,.57-1.65,.8-2.5l2.17,.47c-.2,.67-.4,1.38-.65,2.02h5.72v4.27h-2.1v-2.3h-4.42c-.55,1.22-1.2,2.37-1.9,3.45h2.72c-.3-.65-.62-1.4-.95-1.97l1.97-.77c.47,.87,1,1.95,1.3,2.75h3.07v1.95h-3.57v2.15h3.3v1.75h-3.3v2.25h3.3v1.77h-3.3v2.25h4.25v1.92Zm-16.52-10.9h-2.22v6.8h2.22v-6.8Zm10.12-1.2h-3.27v2.15h3.27v-2.15Zm0,3.9h-3.27v2.25h3.27v-2.25Zm-3.27,6.27h3.27v-2.25h-3.27v2.25Z" style="fill: #727171;"/>
        <path d="M174.05,39.52h-8.85v-1.85h3.9c-.28-.9-.9-2.32-1.45-3.35l1.95-.7c.62,1.05,1.27,2.4,1.57,3.3l-1.92,.75h4.8v1.85Zm-.67,13.75c.75-1.35,1.25-3.45,1.55-5.17l1.62,.48c-.3,1.9-.78,4.17-1.62,5.57l-1.55-.65v1.65h-5.57v1.05h-1.95v-8.4h7.52v5.47Zm.1-10.37h-7.6v-1.82h7.6v1.82Zm-7.6,1.5h7.6v1.82h-7.6v-1.82Zm5.52,5.25h-3.6v3.62h3.6v-3.62Zm10.65-13.2c-.5,4.4-1.75,8.1-6.37,10.22-.25-.53-.82-1.3-1.32-1.67,2.07-.88,3.37-2.05,4.17-3.5-.95-.97-2.42-2.25-3.57-3.2l1.25-1.25c.95,.75,2.17,1.75,3.12,2.57,.3-1,.47-2.05,.62-3.17h-5v-1.95h12.35s0,.62-.05,.92c-.25,6.25-.5,8.55-1.15,9.35-.48,.53-.95,.73-1.67,.83-.62,.08-1.72,.05-2.85,0-.05-.58-.27-1.42-.62-2,1.05,.1,2.05,.1,2.45,.1,.37,0,.6-.05,.82-.28,.35-.47,.62-2.3,.83-6.97h-3Zm.45,17.7c.75,0,.9-.42,.97-3.2,.42,.33,1.28,.65,1.83,.78-.23,3.4-.78,4.25-2.6,4.25h-3.02c-2.17,0-2.67-.6-2.67-2.57v-5.8h2v5.77c0,.65,.12,.77,.95,.77h2.55Zm-2.05-8.47c1.02,1.12,2.2,2.62,2.72,3.6l-1.5,1.08c-.48-1.05-1.62-2.62-2.62-3.77l1.4-.9Zm5.7,1.4c.92,1.67,1.85,3.85,2.2,5.22l-1.77,.67c-.3-1.37-1.15-3.62-2.05-5.32l1.62-.58Z" style="fill: #727171;"/>
      </g>
    </g>
  </g>
</svg>