<?xml version="1.0" encoding="UTF-8"?>
<svg id="b" data-name="圖層 2" xmlns="http://www.w3.org/2000/svg" width="208.76" height="71.49" viewBox="0 0 208.76 71.49">
  <g id="c" data-name="圖層 1">
    <g>
      <line x1="208.76" y1="71.12" x2="0" y2="71.12" style="fill: none; stroke: #89202a; stroke-miterlimit: 10; stroke-width: .75px;"/>
      <line x1="208.76" y1="21.12" x2="0" y2="21.12" style="fill: none; stroke: #89202a; stroke-miterlimit: 10; stroke-width: .75px;"/>
      <g>
        <path d="M100.81,5.85s-12.84-8.13-19.21-3.34c-1.7,1.28-2.13,3.43-.91,5.16,1.57,2.23,7.52,4.19,18.64,2.41" style="fill: none; stroke: #c7ba99; stroke-miterlimit: 10; stroke-width: 2px;"/>
        <path d="M108.06,5.85s12.84-8.13,19.21-3.34c1.7,1.28,2.13,3.43,.91,5.16-1.57,2.23-7.52,4.19-18.64,2.41" style="fill: none; stroke: #c7ba99; stroke-miterlimit: 10; stroke-width: 2px;"/>
        <path d="M108.06,5.85s12.84-8.13,19.21-3.34c1.7,1.28,2.13,3.43,.91,5.16-1.57,2.23-7.52,4.19-18.64,2.41" style="fill: none; stroke: #89202a; stroke-miterlimit: 10; stroke-width: .5px;"/>
        <line x1="104.41" y1="5.02" x2="104.41" y2="10.77" style="fill: none; stroke: #c7ba99; stroke-linecap: round; stroke-linejoin: round; stroke-width: 1.5px;"/>
        <line x1="106.48" y1="5.02" x2="106.48" y2="10.77" style="fill: none; stroke: #c7ba99; stroke-linecap: round; stroke-linejoin: round; stroke-width: 1.5px;"/>
        <line x1="102.35" y1="5.02" x2="102.35" y2="10.77" style="fill: none; stroke: #c7ba99; stroke-linecap: round; stroke-linejoin: round; stroke-width: 1.5px;"/>
        <path d="M100.81,5.85s-12.84-8.13-19.21-3.34c-1.7,1.28-2.13,3.43-.91,5.16,1.57,2.23,7.52,4.19,18.64,2.41" style="fill: none; stroke: #89202a; stroke-miterlimit: 10; stroke-width: .5px;"/>
        <g>
          <line x1="104.41" y1="5.02" x2="104.41" y2="10.77" style="fill: none; stroke: #89202a; stroke-miterlimit: 10; stroke-width: .5px;"/>
          <line x1="106.48" y1="5.02" x2="106.48" y2="10.77" style="fill: none; stroke: #89202a; stroke-miterlimit: 10; stroke-width: .5px;"/>
          <line x1="102.35" y1="5.02" x2="102.35" y2="10.77" style="fill: none; stroke: #89202a; stroke-miterlimit: 10; stroke-width: .5px;"/>
        </g>
      </g>
      <g>
        <path d="M21.08,47.19v6.6c0,1.22-.25,1.82-.95,2.17-.75,.38-1.82,.43-3.5,.43-.08-.57-.4-1.55-.7-2.15,1.05,.05,2.1,.05,2.4,.05,.35-.03,.47-.12,.47-.47v-5.97l-3.05,.85-.6-2.25c1.02-.25,2.27-.55,3.65-.93v-4.95h-3.27v-2.15h3.27v-4.85h2.27v4.85h3.2v2.15h-3.2v4.32c1.02-.25,2.07-.55,3.1-.85l.28,2.15-3.37,1Zm17.05-3.17h-3.92v12.35h-2.3v-12.35h-4.15c-.05,4.35-.55,8.7-3.07,12.47-.42-.5-1.22-1.12-1.87-1.5,2.37-3.62,2.67-7.75,2.67-11.52v-7.67c3.6-.45,7.8-1.2,10.37-2.05l1.4,1.97c-2.6,.8-6.2,1.42-9.5,1.82v4.25h10.37v2.22Z" style="fill: #727171;"/>
        <path d="M74.15,46.67c-1,.3-2.02,.6-3.05,.9v6.25c0,1.25-.27,1.88-1,2.22-.75,.38-1.85,.45-3.52,.42-.1-.57-.42-1.57-.72-2.2,1.05,.05,2.1,.05,2.4,.03,.35,0,.47-.1,.47-.47v-5.6l-3.15,.93-.55-2.28c1.03-.25,2.3-.57,3.7-.95v-5.8h-3.37v-2.15h3.37v-4.4h2.37v4.4h2.75v2.15h-2.75v5.17l2.75-.78,.3,2.15Zm12.57-11.05v19.92h-2.42v-2h-6.9v2.2h-2.32v-20.12h11.65Zm-2.42,15.72v-13.52h-6.9v13.52h6.9Z" style="fill: #727171;"/>
        <path d="M121.93,34.24c-.5,1.55-1.1,3.12-1.75,4.65v17.6h-2.22v-13.25c-.62,1.03-1.22,1.92-1.88,2.72-.2-.55-.82-1.85-1.2-2.45,2-2.43,3.8-6.15,4.87-9.87l2.17,.6Zm14.12,16.27c-.85,1.3-2.17,2.37-3.9,3.27,1.8,.47,3.77,.78,5.9,.95-.4,.43-.9,1.22-1.15,1.78-2.67-.3-5.15-.82-7.3-1.62-2.1,.75-4.57,1.3-7.42,1.68-.2-.53-.7-1.22-1.12-1.7,2.27-.25,4.32-.6,6.07-1.07-.73-.4-1.42-.8-2.05-1.3-.7,.45-1.5,.85-2.35,1.25-.3-.45-.88-1.05-1.32-1.35,.82-.35,1.62-.7,2.32-1.1-.35-.35-.62-.72-.92-1.07l1.72-.65c.22,.28,.45,.53,.7,.78,.75-.55,1.4-1.07,1.9-1.65-.65-.25-.85-.73-.85-1.68v-.35c-.6,.88-1.4,1.88-2.37,2.5l-1.33-1.05c.98-.57,1.9-1.6,2.47-2.47l1.22,.65v-.6h1.88v1.32c0,.47,.15,.55,.9,.55h2.67c.55,0,.67-.15,.75-.97,.32,.2,.97,.38,1.45,.47-.27-.25-.55-.53-.77-.75l1.25-.75c.97,.82,2.17,2.03,2.72,2.82l-1.27,.88c-.4-.6-1.12-1.4-1.85-2.15-.15,1.35-.67,1.78-2.02,1.78h-2.67c-.22,.32-.52,.62-.82,.92h5.75l.38-.1,1.45,.8Zm2.07-6.87v3.4h-2.07v-2.03h-5.95c.67,.48,1.42,1.03,1.83,1.45l-1.33,.82c-.45-.5-1.4-1.28-2.17-1.78l.83-.5h-5.67v2.05h-2v-3.42h2.37v-6.22h4.22c.1-.38,.17-.72,.25-1.1h-6.17v-1.72h15.45v1.72h-6.82l-.45,1.1h5.47v6.22h2.22Zm-12.1-4.97v.93h7.7v-.93h-7.7Zm7.7,1.97h-7.7v.97h7.7v-.97Zm-7.7,3h7.7v-.95h-7.7v.95Zm.58,7.82c.85,.57,1.88,1.1,3,1.55,1.3-.52,2.35-1.12,3.15-1.75h-5.92l-.22,.2Z" style="fill: #727171;"/>
        <path d="M165.4,54.64c1-1.17,1.85-3.02,2.32-4.55l2,.82c-.53,1.58-1.33,3.57-2.32,4.85l-2-1.12Zm9.9-17.87h-9.22v-1.85h9.22v-1.35h2.4v1.35h9.52v1.85h-9.52v1.4h7.8v7.12h-3.22c1.92,.95,4.02,2.32,5.12,3.4l-1.58,1.27c-.38-.4-.9-.8-1.42-1.25-2.8,.08-5.67,.12-8.4,.18,1.42,.75,3.05,1.85,3.87,2.72l-1.58,1.38c-.8-.9-2.5-2.15-3.95-2.95l1.37-1.15c-3.6,.07-6.95,.1-9.52,.12l-.1-1.97c2.42,.03,5.67,0,9.2-.03v-1.72h-7.65v-7.12h7.65v-1.4Zm-5.45,4.25h5.45v-1.4h-5.45v1.4Zm5.45,2.82v-1.42h-5.45v1.42h5.45Zm4.42,10.37c1.17,0,1.4-.3,1.53-2.35,.5,.35,1.42,.65,2.02,.77-.3,2.83-.98,3.5-3.35,3.5h-5.3c-3.1,0-3.9-.57-3.9-2.67v-3.22h2.3v3.2c0,.67,.28,.78,1.77,.78h4.92Zm-2.02-14.6v1.4h5.5v-1.4h-5.5Zm5.5,2.8h-5.5v1.42h5.5v-1.42Zm-1.47,4.55c-.58-.33-1.12-.6-1.67-.83l1.15-.85h-3.5v1.72l4.02-.05Zm3.1,3.2c1.17,1.45,2.38,3.42,2.8,4.75l-2.12,.75c-.4-1.3-1.55-3.3-2.67-4.82l2-.67Z" style="fill: #727171;"/>
      </g>
    </g>
  </g>
</svg>