<?xml version="1.0" encoding="UTF-8"?>
<svg id="b" data-name="圖層 2" xmlns="http://www.w3.org/2000/svg" width="121.48" height="40.32" viewBox="0 0 121.48 40.32">
  <g id="c" data-name="圖層 1">
    <rect x="3.13" y="4.04" width="115.23" height="32.74" style="fill: #80292d;"/>
    <g>
      <line x1="121.23" y1="40.07" x2="3.23" y2="40.07" style="fill: none; stroke: #80292d; stroke-miterlimit: 10; stroke-width: .5px;"/>
      <line x1="121.23" y1="35.94" x2="121.23" y2=".49" style="fill: none; stroke: #80292d; stroke-miterlimit: 10; stroke-width: .5px;"/>
      <line x1=".25" y1="40.32" x2=".25" y2="4.04" style="fill: none; stroke: #80292d; stroke-miterlimit: 10; stroke-width: .5px;"/>
      <line x1="118.23" y1=".25" x2=".25" y2=".25" style="fill: none; stroke: #80292d; stroke-miterlimit: 10; stroke-width: .5px;"/>
    </g>
    <g>
      <path d="M38.26,26.81h-6.27v.66h-1.42v-7.43c-.32,.28-.65,.55-.99,.79-.13-.26-.44-.76-.71-1.1v5.73h-2.75v1.21h-1.28v-4.78c-.23,.37-.44,.73-.7,1.05-.15-.32-.55-1.05-.83-1.39,1.13-1.54,1.83-3.92,2.23-6.48h-1.81v-1.36h5.29v1.36h-2.04c-.21,1.17-.45,2.28-.74,3.35h2.62v.99c1.41-.97,2.53-2.31,3.35-3.95h-1.59v1.54h-1.28v-2.82h3.45c.18-.52,.37-1.07,.52-1.62l1.41,.31c-.13,.44-.26,.89-.42,1.31h3.71v2.77h-1.36v-1.49h-2.87c-.36,.79-.78,1.54-1.23,2.23h1.76c-.19-.42-.4-.91-.62-1.28l1.28-.5c.31,.57,.65,1.26,.84,1.78h1.99v1.26h-2.31v1.39h2.14v1.13h-2.14v1.46h2.14v1.15h-2.14v1.46h2.75v1.25Zm-10.7-7.06h-1.44v4.4h1.44v-4.4Zm6.56-.78h-2.12v1.39h2.12v-1.39Zm0,2.53h-2.12v1.46h2.12v-1.46Zm-2.12,4.06h2.12v-1.46h-2.12v1.46Z" style="fill: #fff8eb;"/>
      <path d="M50.31,16.48h-5.73v-1.2h2.53c-.18-.58-.58-1.5-.94-2.17l1.26-.45c.41,.68,.83,1.55,1.02,2.14l-1.25,.49h3.11v1.2Zm-.44,8.9c.49-.87,.81-2.23,1-3.35l1.05,.31c-.19,1.23-.5,2.7-1.05,3.61l-1-.42v1.07h-3.61v.68h-1.26v-5.44h4.87v3.55Zm.06-6.72h-4.92v-1.18h4.92v1.18Zm-4.92,.97h4.92v1.18h-4.92v-1.18Zm3.58,3.4h-2.33v2.35h2.33v-2.35Zm6.9-8.55c-.32,2.85-1.13,5.25-4.13,6.62-.16-.34-.53-.84-.86-1.08,1.34-.57,2.19-1.33,2.7-2.27-.62-.63-1.57-1.46-2.32-2.07l.81-.81c.62,.49,1.41,1.13,2.02,1.67,.19-.65,.31-1.33,.41-2.06h-3.24v-1.26h8s0,.4-.03,.6c-.16,4.05-.32,5.54-.75,6.06-.31,.34-.62,.47-1.08,.53-.4,.05-1.12,.03-1.85,0-.03-.37-.18-.92-.4-1.3,.68,.07,1.33,.07,1.59,.07,.24,0,.39-.03,.53-.18,.23-.31,.4-1.49,.53-4.52h-1.94Zm.29,11.46c.49,0,.58-.27,.63-2.07,.28,.21,.83,.42,1.18,.5-.15,2.2-.5,2.75-1.68,2.75h-1.96c-1.41,0-1.73-.39-1.73-1.67v-3.76h1.29v3.74c0,.42,.08,.5,.62,.5h1.65Zm-1.33-5.49c.66,.73,1.42,1.7,1.76,2.33l-.97,.7c-.31-.68-1.05-1.7-1.7-2.44l.91-.58Zm3.69,.91c.6,1.08,1.2,2.49,1.42,3.38l-1.15,.44c-.19-.89-.75-2.35-1.33-3.45l1.05-.37Z" style="fill: #fff8eb;"/>
      <path d="M70.77,13.03c-.45,1.08-.99,2.2-1.6,3.25v11.25h-1.42v-9.08c-.5,.68-1.04,1.31-1.57,1.85-.15-.36-.57-1.17-.83-1.52,1.59-1.49,3.11-3.84,4.02-6.22l1.41,.47Zm5.16,8.58c-.13,1.07-.39,2.07-.99,2.96,1.55,.81,3.51,1.33,5.75,1.55-.29,.32-.7,.94-.89,1.36-2.23-.32-4.16-.92-5.73-1.85-.81,.76-1.93,1.39-3.5,1.86-.18-.34-.6-.94-.92-1.25,1.44-.34,2.48-.86,3.19-1.46-.87-.71-1.6-1.55-2.17-2.54l1.23-.39c.45,.74,1.07,1.39,1.81,1.94,.42-.68,.63-1.42,.73-2.2h-3.76v-4.55h3.85v-1.39h-4.26v-1.38h4.26v-1.6h1.49v1.6h4.47v1.38h-4.47v1.39h4v4.55h-4.1Zm-1.39-1.25v-2.06h-2.48v2.06h2.48Zm1.49-2.06v2.06h2.56v-2.06h-2.56Z" style="fill: #fff8eb;"/>
      <path d="M100.42,25.58c0,.87-.21,1.33-.79,1.55-.6,.24-1.54,.27-3.03,.26-.07-.41-.31-1.07-.5-1.46,1.04,.05,2.1,.03,2.41,.03,.29,0,.4-.1,.4-.41v-2.9h-3.92v4.63h-1.5v-4.63h-3.72c-.26,1.78-.84,3.59-2.02,4.91-.23-.29-.84-.81-1.18-.99,1.76-1.96,1.93-4.82,1.93-7.11v-5.76h11.93v11.87Zm-6.93-4.34v-2.4h-3.51v.65c0,.55-.02,1.15-.06,1.75h3.58Zm-3.51-6.09v2.28h3.51v-2.28h-3.51Zm8.94,0h-3.92v2.28h3.92v-2.28Zm0,6.09v-2.4h-3.92v2.4h3.92Z" style="fill: #fff8eb;"/>
    </g>
  </g>
</svg>