<?xml version="1.0" encoding="UTF-8"?>
<svg id="b" data-name="圖層 2" xmlns="http://www.w3.org/2000/svg" width="109.16" height="37.38" viewBox="0 0 109.16 37.38">
  <g id="c" data-name="頁面">
    <line x1="109.16" y1="37.13" x2="0" y2="37.13" style="fill: none; stroke: #89202a; stroke-miterlimit: 10; stroke-width: .5px;"/>
    <line x1="109.16" y1="10.98" x2="0" y2="10.98" style="fill: none; stroke: #89202a; stroke-miterlimit: 10; stroke-width: .5px;"/>
    <g>
      <path d="M12.1,24.97v4.49c0,.83-.17,1.24-.65,1.48-.51,.25-1.24,.29-2.38,.29-.05-.39-.27-1.05-.48-1.46,.71,.03,1.43,.03,1.63,.03,.24-.02,.32-.08,.32-.32v-4.06l-2.07,.58-.41-1.53c.7-.17,1.55-.37,2.48-.63v-3.37h-2.23v-1.46h2.23v-3.3h1.55v3.3h2.18v1.46h-2.18v2.94c.7-.17,1.41-.37,2.11-.58l.19,1.46-2.29,.68Zm11.59-2.16h-2.67v8.4h-1.56v-8.4h-2.82c-.03,2.96-.37,5.92-2.09,8.48-.29-.34-.83-.76-1.28-1.02,1.62-2.46,1.82-5.27,1.82-7.84v-5.22c2.45-.31,5.3-.82,7.05-1.39l.95,1.34c-1.77,.54-4.22,.97-6.46,1.24v2.89h7.05v1.51Z" style="fill: #727171;"/>
      <path d="M38,24.61c-.68,.2-1.38,.41-2.07,.61v4.25c0,.85-.19,1.27-.68,1.51-.51,.25-1.26,.31-2.4,.29-.07-.39-.29-1.07-.49-1.5,.71,.03,1.43,.03,1.63,.02,.24,0,.32-.07,.32-.32v-3.81l-2.14,.63-.37-1.55c.7-.17,1.56-.39,2.52-.65v-3.94h-2.29v-1.46h2.29v-2.99h1.62v2.99h1.87v1.46h-1.87v3.52l1.87-.53,.2,1.46Zm8.55-7.51v13.55h-1.65v-1.36h-4.69v1.5h-1.58v-13.68h7.92Zm-1.65,10.69v-9.2h-4.69v9.2h4.69Z" style="fill: #727171;"/>
      <path d="M60.28,16.16c-.34,1.05-.75,2.12-1.19,3.16v11.97h-1.51v-9.01c-.42,.7-.83,1.31-1.27,1.85-.14-.37-.56-1.26-.82-1.67,1.36-1.65,2.58-4.18,3.32-6.71l1.48,.41Zm9.6,11.07c-.58,.88-1.48,1.62-2.65,2.23,1.22,.32,2.57,.53,4.01,.65-.27,.29-.61,.83-.78,1.21-1.82-.2-3.5-.56-4.96-1.1-1.43,.51-3.11,.88-5.05,1.14-.14-.36-.48-.83-.76-1.16,1.55-.17,2.94-.41,4.13-.73-.49-.27-.97-.54-1.39-.88-.48,.31-1.02,.58-1.6,.85-.2-.31-.59-.71-.9-.92,.56-.24,1.11-.48,1.58-.75-.24-.24-.42-.49-.63-.73l1.17-.44c.15,.19,.31,.36,.48,.53,.51-.37,.95-.73,1.29-1.12-.44-.17-.58-.49-.58-1.14v-.24c-.41,.6-.95,1.28-1.62,1.7l-.9-.71c.66-.39,1.29-1.09,1.68-1.68l.83,.44v-.41h1.27v.9c0,.32,.1,.37,.61,.37h1.82c.37,0,.46-.1,.51-.66,.22,.14,.66,.25,.99,.32-.19-.17-.37-.36-.53-.51l.85-.51c.66,.56,1.48,1.38,1.85,1.92l-.87,.6c-.27-.41-.76-.95-1.26-1.46-.1,.92-.46,1.21-1.38,1.21h-1.82c-.15,.22-.36,.42-.56,.63h3.91l.25-.07,.99,.54Zm1.41-4.67v2.31h-1.41v-1.38h-4.04c.46,.32,.97,.7,1.24,.99l-.9,.56c-.31-.34-.95-.87-1.48-1.21l.56-.34h-3.86v1.39h-1.36v-2.33h1.62v-4.23h2.87c.07-.25,.12-.49,.17-.75h-4.2v-1.17h10.5v1.17h-4.64l-.31,.75h3.72v4.23h1.51Zm-8.23-3.38v.63h5.24v-.63h-5.24Zm5.24,1.34h-5.24v.66h5.24v-.66Zm-5.24,2.04h5.24v-.65h-5.24v.65Zm.39,5.32c.58,.39,1.27,.75,2.04,1.05,.88-.36,1.6-.77,2.14-1.19h-4.03l-.15,.14Z" style="fill: #727171;"/>
      <path d="M79.65,30.03c.68-.8,1.26-2.06,1.58-3.09l1.36,.56c-.36,1.07-.9,2.43-1.58,3.3l-1.36-.76Zm6.73-12.15h-6.27v-1.26h6.27v-.92h1.63v.92h6.48v1.26h-6.48v.95h5.3v4.84h-2.19c1.31,.65,2.74,1.58,3.48,2.31l-1.07,.87c-.25-.27-.61-.54-.97-.85-1.9,.05-3.86,.08-5.71,.12,.97,.51,2.07,1.26,2.63,1.85l-1.07,.93c-.54-.61-1.7-1.46-2.69-2.01l.94-.78c-2.45,.05-4.73,.07-6.48,.08l-.07-1.34c1.65,.02,3.86,0,6.26-.02v-1.17h-5.2v-4.84h5.2v-.95Zm-3.71,2.89h3.71v-.95h-3.71v.95Zm3.71,1.92v-.97h-3.71v.97h3.71Zm3.01,7.05c.8,0,.95-.2,1.04-1.6,.34,.24,.97,.44,1.38,.53-.2,1.92-.66,2.38-2.28,2.38h-3.6c-2.11,0-2.65-.39-2.65-1.82v-2.19h1.56v2.18c0,.46,.19,.53,1.21,.53h3.35Zm-1.38-9.93v.95h3.74v-.95h-3.74Zm3.74,1.9h-3.74v.97h3.74v-.97Zm-1,3.09c-.39-.22-.76-.41-1.14-.56l.78-.58h-2.38v1.17l2.74-.03Zm2.11,2.18c.8,.99,1.61,2.33,1.9,3.23l-1.44,.51c-.27-.88-1.05-2.24-1.82-3.28l1.36-.46Z" style="fill: #727171;"/>
    </g>
    <g>
      <path d="M52.72,3.04s-6.71-4.25-10.05-1.75c-.89,.67-1.12,1.79-.48,2.7,.82,1.16,3.93,2.19,9.75,1.26" style="fill: none; stroke: #c7ba99; stroke-miterlimit: 10;"/>
      <path d="M56.51,3.04s6.71-4.25,10.05-1.75c.89,.67,1.12,1.79,.48,2.7-.82,1.16-3.93,2.19-9.75,1.26" style="fill: none; stroke: #c7ba99; stroke-miterlimit: 10;"/>
      <path d="M56.51,3.04s6.71-4.25,10.05-1.75c.89,.67,1.12,1.79,.48,2.7-.82,1.16-3.93,2.19-9.75,1.26" style="fill: none; stroke: #89202a; stroke-miterlimit: 10; stroke-width: .25px;"/>
      <line x1="54.6" y1="2.6" x2="54.6" y2="5.61" style="fill: none; stroke: #c7ba99; stroke-linecap: round; stroke-linejoin: round; stroke-width: .75px;"/>
      <line x1="55.68" y1="2.6" x2="55.68" y2="5.61" style="fill: none; stroke: #c7ba99; stroke-linecap: round; stroke-linejoin: round; stroke-width: .75px;"/>
      <line x1="53.52" y1="2.6" x2="53.52" y2="5.61" style="fill: none; stroke: #c7ba99; stroke-linecap: round; stroke-linejoin: round; stroke-width: .75px;"/>
      <path d="M52.72,3.04s-6.71-4.25-10.05-1.75c-.89,.67-1.12,1.79-.48,2.7,.82,1.16,3.93,2.19,9.75,1.26" style="fill: none; stroke: #89202a; stroke-miterlimit: 10; stroke-width: .25px;"/>
      <g>
        <line x1="54.6" y1="2.6" x2="54.6" y2="5.61" style="fill: none; stroke: #89202a; stroke-miterlimit: 10; stroke-width: .25px;"/>
        <line x1="55.68" y1="2.6" x2="55.68" y2="5.61" style="fill: none; stroke: #89202a; stroke-miterlimit: 10; stroke-width: .25px;"/>
        <line x1="53.52" y1="2.6" x2="53.52" y2="5.61" style="fill: none; stroke: #89202a; stroke-miterlimit: 10; stroke-width: .25px;"/>
      </g>
    </g>
  </g>
</svg>