<?xml version="1.0" encoding="UTF-8"?>
<svg id="b" data-name="圖層 2" xmlns="http://www.w3.org/2000/svg" width="97.57" height="32.45" viewBox="0 0 97.57 32.45">
  <g id="c" data-name="頁面">
    <rect x="2.56" y="3.29" width="92.46" height="26.27" style="fill: #80292d;"/>
    <g>
      <line x1="97.32" y1="32.2" x2="2.64" y2="32.2" style="fill: none; stroke: #80292d; stroke-miterlimit: 10; stroke-width: .5px;"/>
      <line x1="97.32" y1="28.89" x2="97.32" y2=".44" style="fill: none; stroke: #80292d; stroke-miterlimit: 10; stroke-width: .5px;"/>
      <line x1=".25" y1="32.4" x2=".25" y2="3.29" style="fill: none; stroke: #80292d; stroke-miterlimit: 10; stroke-width: .5px;"/>
      <line x1="94.92" y1=".25" x2=".25" y2=".25" style="fill: none; stroke: #80292d; stroke-miterlimit: 10; stroke-width: .5px;"/>
    </g>
    <g>
      <path d="M26.66,22.64h-5.8v.61h-1.32v-6.88c-.3,.26-.6,.51-.92,.74-.12-.24-.41-.71-.66-1.02v5.31h-2.55v1.12h-1.18v-4.42c-.21,.34-.41,.67-.65,.97-.13-.3-.51-.97-.76-1.29,1.05-1.42,1.7-3.63,2.07-6h-1.68v-1.26h4.91v1.26h-1.89c-.2,1.08-.42,2.12-.69,3.11h2.43v.92c1.31-.9,2.34-2.15,3.11-3.66h-1.47v1.42h-1.19v-2.61h3.2c.17-.48,.34-.99,.48-1.5l1.3,.29c-.12,.4-.24,.82-.39,1.21h3.43v2.56h-1.26v-1.38h-2.65c-.33,.74-.72,1.42-1.14,2.07h1.63c-.18-.39-.38-.84-.57-1.19l1.18-.46c.29,.53,.6,1.17,.78,1.65h1.84v1.17h-2.14v1.29h1.98v1.05h-1.98v1.35h1.98v1.07h-1.98v1.35h2.55v1.16Zm-9.92-6.54h-1.33v4.08h1.33v-4.08Zm6.08-.72h-1.96v1.29h1.96v-1.29Zm0,2.34h-1.96v1.35h1.96v-1.35Zm-1.96,3.76h1.96v-1.35h-1.96v1.35Z" style="fill: #fff8eb;"/>
      <path d="M37.82,13.07h-5.31v-1.11h2.34c-.17-.54-.54-1.4-.87-2.01l1.17-.42c.38,.63,.76,1.44,.95,1.98l-1.16,.45h2.88v1.11Zm-.41,8.25c.45-.81,.75-2.07,.93-3.1l.97,.28c-.18,1.14-.46,2.5-.97,3.35l-.93-.39v.99h-3.34v.63h-1.17v-5.04h4.51v3.29Zm.06-6.22h-4.56v-1.09h4.56v1.09Zm-4.56,.9h4.56v1.1h-4.56v-1.1Zm3.32,3.15h-2.16v2.17h2.16v-2.17Zm6.39-7.92c-.3,2.64-1.05,4.86-3.83,6.13-.15-.31-.5-.78-.79-1,1.25-.53,2.03-1.23,2.5-2.1-.57-.58-1.46-1.35-2.14-1.92l.75-.75c.57,.45,1.3,1.05,1.88,1.54,.18-.6,.29-1.23,.38-1.91h-3v-1.17h7.41s0,.38-.03,.55c-.15,3.75-.3,5.13-.69,5.61-.29,.31-.57,.43-1,.5-.38,.04-1.04,.03-1.71,0-.03-.35-.17-.86-.38-1.2,.63,.06,1.23,.06,1.47,.06,.23,0,.36-.03,.5-.17,.21-.28,.38-1.38,.5-4.18h-1.8Zm.27,10.62c.45,0,.54-.26,.58-1.92,.26,.19,.77,.39,1.1,.46-.14,2.04-.46,2.55-1.56,2.55h-1.81c-1.3,0-1.61-.36-1.61-1.54v-3.48h1.2v3.46c0,.39,.08,.47,.57,.47h1.53Zm-1.23-5.08c.62,.67,1.32,1.58,1.63,2.16l-.9,.64c-.29-.63-.98-1.58-1.58-2.26l.84-.54Zm3.42,.84c.55,1,1.11,2.31,1.32,3.13l-1.07,.41c-.18-.83-.69-2.17-1.23-3.2l.97-.34Z" style="fill: #fff8eb;"/>
      <path d="M56.76,9.88c-.42,1-.92,2.04-1.49,3.01v10.42h-1.32V14.9c-.46,.63-.96,1.21-1.45,1.71-.14-.33-.53-1.08-.77-1.41,1.47-1.38,2.88-3.55,3.72-5.76l1.31,.44Zm4.78,7.95c-.12,.99-.36,1.92-.92,2.75,1.44,.75,3.25,1.23,5.33,1.44-.27,.3-.65,.87-.83,1.26-2.07-.3-3.85-.86-5.31-1.71-.75,.71-1.79,1.29-3.24,1.72-.17-.31-.55-.87-.85-1.16,1.33-.31,2.29-.79,2.96-1.35-.81-.66-1.49-1.44-2.01-2.35l1.14-.36c.42,.69,.99,1.29,1.68,1.8,.39-.63,.58-1.32,.67-2.04h-3.48v-4.21h3.57v-1.29h-3.94v-1.27h3.94v-1.49h1.38v1.49h4.14v1.27h-4.14v1.29h3.71v4.21h-3.79Zm-1.29-1.15v-1.91h-2.29v1.91h2.29Zm1.38-1.91v1.91h2.37v-1.91h-2.37Z" style="fill: #fff8eb;"/>
      <path d="M84.23,21.5c0,.81-.19,1.23-.73,1.44-.55,.22-1.42,.25-2.8,.24-.06-.38-.29-.99-.46-1.35,.96,.04,1.95,.03,2.23,.03,.27,0,.38-.09,.38-.38v-2.68h-3.63v4.29h-1.39v-4.29h-3.45c-.24,1.65-.78,3.33-1.88,4.54-.21-.27-.78-.75-1.09-.92,1.63-1.82,1.79-4.47,1.79-6.58v-5.34h11.05v10.99Zm-6.42-4.02v-2.22h-3.25v.6c0,.51-.02,1.07-.06,1.62h3.32Zm-3.25-5.64v2.12h3.25v-2.12h-3.25Zm8.28,0h-3.63v2.12h3.63v-2.12Zm0,5.64v-2.22h-3.63v2.22h3.63Z" style="fill: #fff8eb;"/>
    </g>
  </g>
</svg>