<?xml version="1.0" encoding="UTF-8"?>
<svg id="b" data-name="圖層 2" xmlns="http://www.w3.org/2000/svg" width="131.71" height="26.82" viewBox="0 0 131.71 26.82">
  <g id="c" data-name="首頁">
    <g>
      <path d="M2.39,24.47c.43,1.5,2.29,2.34,4.23,1.78,3.58-1.03,5.57-4.85,6.88-11.81-.17,.05-.35,.1-.55,.16-.06,.02-.32,.09-.69,.2l-.03-.21c.4-.12,.69-.2,.81-.23,.06-.02,.22-.1,.51-.18,1-5.31,3.34-8.92,7.17-10.9v-.12c-1.46,.36-2.92,.71-4.42,1.14C5.31,7.46,.38,11.16,1.39,14.68c.53,1.85,2.65,2.8,5.33,2.03,3.89-1.12,5.94-4.11,5.07-7.14-.09-.32-.19-.66-.39-1.04l.17-.08c.22,.34,.36,.71,.48,1.11,.34,1.18,.27,2.67-.2,3.87-.89,2.22-2.76,3.88-4.92,4.5-2.74,.79-5.03-.46-5.7-2.77C.02,10.98,5.18,5.6,17.01,2.2c2.51-.72,4.92-1.23,7.15-1.84,1.51-.4,2.25-.65,2.51,.25,.17,.61-.39,1.24-1.84,1.65-1.1,.31-2.01,.49-2.65,.67-1.85,.53-2.79,1.27-3.74,3.07-.83,1.58-1.51,3.99-2.16,7.27,1.44-.41,2.44-.86,3.04-1.5,.12-.44,.29-.83,.46-1.22,.9-.35,1.87-.66,2.88-.95-2.09,2.63-3.65,5.33-4.19,8.67l-.21-.07c.07-1.27,.36-3.19,.93-5.79-.68,.45-1.65,.79-2.95,1.16-1.37,7.2-4.8,11.56-9.53,12.91-3.32,.95-6.09-.22-6.63-2.09-.31-1.1,.22-2.16,1.09-2.4,.81-.23,1.62,.19,1.83,.94,.17,.58-.06,1.11-.65,1.43,0,.03,.02,.09,.03,.12Z" style="fill: #8a202a;"/>
      <path d="M29.48,20.03c-1.95,.33-3.6-.78-3.92-2.65-.32-1.86,.4-4.09,2.1-6.02,1.43-1.61,3.31-2.7,4.85-2.96,1.6-.27,2.67,.27,2.84,1.31,.31,1.83-2.15,3.62-7.29,5.78,.02,.27,0,.55,.05,.84,.31,1.8,1.46,2.67,3.09,2.39,2.22-.38,5.23-3.21,7.94-8.54l.16,.06c-2.88,5.91-6.49,9.21-9.83,9.78Zm3.54-10.59c-.09-.53-.43-.75-.94-.66-1.24,.21-3.53,2.67-4.04,6.45,3.56-1.61,5.24-4.22,4.98-5.78Z" style="fill: #8a202a;"/>
      <path d="M42.94,17.19c-1.5,.12-2.51-.82-2.64-2.46-.13-1.58,.49-3.59,1.74-5.23,1.6-2.12,3.94-3.36,5.68-3.5,1.26-.1,2.18,.48,2.51,1.63l.55-1.34,2.98-.42c-2.83,5.17-4.42,8.22-4.31,9.53,.04,.45,.37,.78,.78,.75,1.14-.09,4.02-2.71,7.63-8.3l.19,.1c-3.76,5.58-6.43,8.62-8.97,8.83-1.08,.09-1.86-.6-1.95-1.71-.02-.24,0-.48,.03-.75-1.48,1.81-2.94,2.77-4.22,2.87Zm4.67-3.96c1.3-2.15,1.86-4.16,1.74-5.59-.08-.96-.63-1.42-1.41-1.36-1.08,.09-2.26,1.03-3.38,2.81-1.22,1.97-1.72,3.96-1.62,5.28,.1,1.2,.69,1.78,1.52,1.71,.96-.08,2.03-1.01,3.14-2.85Z" style="fill: #8a202a;"/>
      <path d="M60.16,15.76c-1.38,.02-2.14-.69-2.16-1.89-.01-.81,.39-1.96,1.21-3.41l2.8-5.06-2.22,.04,.2-.33,2.25-.04,1.93-3.33,3-.23-2.07,3.51,3.6-.06-.23,.33-3.63,.06-3.24,5.66c-.9,1.6-1.3,2.81-1.29,3.41,0,.54,.28,.81,.79,.8,1.53-.02,4.64-2.45,8.28-7.7l.18,.12c-3.72,5.4-6.89,8.06-9.38,8.1Z" style="fill: #8a202a;"/>
      <path d="M70.95,15.1c-1.17-.08-1.92-.89-1.84-2.02,.06-.9,.64-1.88,1.55-3.2l3.32-4.91,3.12,.04c-3.6,4.62-5.57,7.4-5.65,8.53-.04,.51,.21,.8,.72,.83,1.53,.11,4.94-2.66,8.84-8.91l2.94,.03c-3.56,4.83-5.65,7.66-5.74,8.95-.03,.36,.25,.65,.61,.67,1.2,.08,4.3-2.1,8.49-6.92l.14,.13c-4.32,4.96-7.38,7.39-9.44,7.24-1.17-.08-1.83-.91-1.75-2.02,.05-.69,.28-1.39,.68-1.97l-.14-.13c-2.34,2.54-4.41,3.75-5.85,3.65Z" style="fill: #8a202a;"/>
      <path d="M92.18,6.21l3.35,.32c-2.12,2.31-3.7,3.82-4.62,4.65l.12,.17c1.78-1.66,3.68-2.94,5.78-3.92,.55-.61,1.05-.69,1.98-.6l1.59,.13c-1.1,1.19-1.77,2.15-1.91,3.07-.13,.83,.27,1.38,.8,1.46,1.01,.16,2.04-.25,3.15-1.3l.1,.14c-1.27,1.29-2.99,1.84-4.44,1.61-1.51-.24-2.27-1.24-2.05-2.63,.08-.53,.25-1.02,.57-1.49-3.16,1.35-6.02,3.88-8.74,7.64l-2.94-.25,7.25-9Z" style="fill: #8a202a;"/>
      <path d="M104.83,18.5c-1.93-.46-3-2.14-2.56-3.98,.44-1.84,1.98-3.6,4.31-4.71,1.95-.92,4.11-1.17,5.62-.81,1.58,.38,2.34,1.3,2.1,2.32-.43,1.81-3.4,2.48-8.98,2.44-.09,.26-.21,.5-.28,.8-.43,1.78,.29,3.03,1.9,3.42,2.19,.53,6.08-.89,10.67-4.72l.12,.12c-4.98,4.3-9.59,5.9-12.89,5.11Zm7.43-8.34c.13-.53-.1-.86-.6-.98-1.23-.29-4.3,1.07-6.25,4.33,3.91-.08,6.48-1.81,6.85-3.35Z" style="fill: #8a202a;"/>
      <path d="M116.44,18.53c-.35,1.08,.17,2.1,1.45,2.52,1.51,.49,3.06-.3,3.48-1.58,.26-.8,.06-1.56-.28-2.55-.36-1.03-.71-1.9-.38-2.9,.53-1.63,2.68-2.44,4.94-1.71,1.85,.6,2.73,1.89,2.33,3.12-.31,.97-1.42,1.56-2.5,1.21-.2-.06-.43-.23-.7-.48,.68-.54,1.11-1.09,1.3-1.69,.31-.94-.12-1.77-.89-2.02-.8-.26-1.72,.26-2.07,1.32-.27,.83-.1,1.58,.19,2.52,.37,1.19,.75,2.17,.4,3.25-.4,1.23-1.69,2.1-3.24,2.01l-.06,.17c3.16,.46,6.87-1.05,11.17-4.51l.11,.13c-4.92,4.08-9.26,5.51-13.25,4.22-2.54-.82-3.6-2.43-3-4.25,.44-1.37,1.67-2.04,2.78-1.68,.77,.25,1.1,.89,.87,1.6-.21,.66-.82,.96-1.39,.78-.2-.06-.31-.2-.49-.35-.38,.1-.62,.37-.79,.88Z" style="fill: #8a202a;"/>
    </g>
  </g>
</svg>