<?xml version="1.0" encoding="UTF-8"?>
<svg id="b" data-name="圖層 2" xmlns="http://www.w3.org/2000/svg" width="263.79" height="82.29" viewBox="0 0 263.79 82.29">
  <g id="c" data-name="圖層 1">
    <g>
      <path d="M14.04,55.24c-.18,.36-.3,.96-.3,1.38,0,1.26,.9,2.07,2.13,2.07,2.58,0,4.86-2.85,4.86-5.31,0-1.74-1.77-2.1-2.73-2.1-6.24,0-14.94,8.79-14.94,16.38,0,2.94,1.41,5.04,4.02,5.04,3.42,0,6.87-3.3,6.87-7.02,0-1.62-.57-2.91-2.34-2.91s-3.45,2.16-4.32,3.42l-.3-.15c1.38-2.04,3.09-3.99,5.82-3.99,2.07,0,3.54,1.38,3.54,3.42,0,4.86-5.43,7.59-10.05,7.59-3.99,0-6.3-2.46-6.3-6.39,0-7.71,10.44-15.75,18.03-15.75,2.34,0,4.5,.84,4.5,3.57,0,2.97-3.24,4.74-5.88,4.74-1.65,.03-3.27-.78-3.27-2.61,0-.54,.21-1.2,.36-1.47l.3,.09Z" style="fill: #7c282c;"/>
      <path d="M41.7,64.8c-.81,1.02-1.92,2.04-3.24,2.04-.93,0-1.56-.42-2.13-1.14-.93,3.99-4.62,7.35-8.79,7.35-2.19,0-3.63-1.35-3.63-3.54,0-4.26,4.83-7.98,8.82-7.98,2.13,0,3.42,1.35,3.69,2.97,.21,1.2,.93,1.98,2.04,1.98s1.98-.63,3.06-1.92l.18,.24Zm-7.8-1.32c0-.99-.42-1.59-1.32-1.59-3.03,0-6.15,6.69-6.15,9.21,0,.99,.42,1.59,1.32,1.59,3.03,0,6.15-6.69,6.15-9.21Z" style="fill: #7c282c;"/>
      <path d="M55.41,66.99c1.53-1.92,4.29-5.46,6.96-5.46,1.29,0,2.13,.96,2.13,1.98,0,2.7-4.26,5.85-4.26,8.04,0,.45,.21,.78,.63,.78,.84,0,2.16-.93,4.02-2.79,1.53-1.53,3.06-3.33,4.14-4.74l.24,.12c-.93,1.17-2.52,3.18-4.23,4.89-2.28,2.28-3.51,3.06-4.98,3.06s-2.22-.87-2.22-2.07c0-2.58,4.26-6.15,4.26-7.68,0-.57-.39-.87-.81-.87-2.58,0-7.65,7.71-9.03,10.2l-3.18,.12c2.73-4.29,5.43-7.89,5.43-9.36,0-.48-.27-.96-.87-.96-2.52,0-7.74,7.71-9.15,10.2l-3.03,.12c2.19-3.51,4.38-7.02,6.45-10.62l3.51-.18-3.99,5.46,.06,.06c1.68-1.95,4.23-5.76,7.41-5.76,1.11,0,2.01,.6,2.01,1.8,0,1.11-.9,2.61-1.56,3.6l.06,.06Z" style="fill: #7c282c;"/>
      <path d="M82.62,56.01l-6.93,10.56,.06,.06c1.65-2.01,3.75-5.1,6.69-5.1,1.44,0,2.4,1.05,2.4,2.55,0,1.95-.96,3.78-2.16,5.07l.06,.06c2.7-.54,5.28-2.67,6.96-4.74l.21,.21c-1.53,1.92-4.14,4.41-7.53,4.95-1.59,1.41-4.14,3.42-6.36,3.42-.84,0-1.56-.3-1.56-1.11,0-1.68,3.78-2.07,5.49-2.34,.69-.96,2.01-3.06,2.01-5.28,0-.87-.21-1.77-1.23-1.77-3.57,0-11.43,15.57-14.19,19.62l-3.18,.12c5.34-8.58,10.74-17.49,16.02-26.13l3.24-.15Zm-6.18,16.5c1.14,0,2.55-1.59,3.3-2.52-1.08,.18-4.14,.51-4.14,1.86,0,.42,.24,.66,.84,.66Z" style="fill: #7c282c;"/>
      <path d="M105.99,51.61l-9.27,14.76c-1.56,2.49-2.55,4.14-2.55,5.16,0,.51,.21,.81,.66,.81,.84,0,2.4-.99,4.02-2.61,1.5-1.5,3-3.27,4.41-5.1l.27,.09c-.99,1.32-2.52,3.27-3.87,4.65-2.34,2.37-3.93,3.51-5.85,3.51-1.35,0-2.04-.6-2.04-1.8,0-1.11,.81-2.7,2.52-5.55l8.37-13.74,3.33-.18Z" style="fill: #7c282c;"/>
      <path d="M121.83,64.71c-1.23,1.65-2.58,3.3-4.53,5.07-2.76,2.49-5.34,3.27-7.56,3.27s-3.69-1.5-3.69-3.66c0-3.84,5.19-7.86,8.94-7.86,1.71,0,2.73,.69,2.73,1.89,0,2.91-6.54,4.17-8.64,4.62-.09,.36-.15,.72-.15,1.08,0,1.71,1.02,2.91,2.73,2.91s3.78-1.05,5.82-2.94c1.56-1.47,3.06-3.21,4.14-4.59l.21,.21Zm-7.32-2.82c-2.01,0-4.86,3.84-5.37,5.85,3.27-.66,6.18-3.12,6.18-5.07,0-.54-.33-.78-.81-.78Z" style="fill: #7c282c;"/>
      <path d="M125.76,62.55l.21-.54h2.31l2.25-3.78,3.24-.12-2.49,3.9h3.81l-.27,.54h-3.87c-3.6,5.94-4.83,7.74-4.83,8.91,0,.51,.3,.87,.81,.87,.99,0,2.76-1.08,4.62-2.88,1.29-1.26,2.91-3.12,4.23-4.86l.18,.15c-.9,1.2-2.37,3.06-4.05,4.74-1.86,1.86-3.96,3.39-5.79,3.39-1.26,0-2.4-.51-2.4-1.95,0-2.07,1.89-4.23,4.29-8.37h-2.25Z" style="fill: #7c282c;"/>
      <path d="M154.38,64.71c-1.23,1.65-2.58,3.3-4.53,5.07-2.76,2.49-5.34,3.27-7.56,3.27s-3.69-1.5-3.69-3.66c0-3.84,5.19-7.86,8.94-7.86,1.71,0,2.73,.69,2.73,1.89,0,2.91-6.54,4.17-8.64,4.62-.09,.36-.15,.72-.15,1.08,0,1.71,1.02,2.91,2.73,2.91s3.78-1.05,5.82-2.94c1.56-1.47,3.06-3.21,4.14-4.59l.21,.21Zm-7.32-2.82c-2.01,0-4.86,3.84-5.37,5.85,3.27-.66,6.18-3.12,6.18-5.07,0-.54-.33-.78-.81-.78Z" style="fill: #7c282c;"/>
      <path d="M188.79,64.8c-.81,1.02-1.92,2.04-3.24,2.04-.93,0-1.56-.42-2.13-1.14-.93,3.99-4.62,7.35-8.79,7.35-2.19,0-3.63-1.35-3.63-3.54,0-4.26,4.83-7.98,8.82-7.98,2.13,0,3.42,1.35,3.69,2.97,.21,1.2,.93,1.98,2.04,1.98s1.98-.63,3.06-1.92l.18,.24Zm-7.8-1.32c0-.99-.42-1.59-1.32-1.59-3.03,0-6.15,6.69-6.15,9.21,0,.99,.42,1.59,1.32,1.59,3.03,0,6.15-6.69,6.15-9.21Z" style="fill: #7c282c;"/>
      <path d="M188.85,72.57c2.04-3.51,4.17-6.99,6.24-10.56l3.42-.12-3.96,5.58,.06,.06c3-3.72,4.74-4.38,5.34-4.98,.87-.87,1.38-.96,3.63-1.02-.75,1.08-1.53,2.25-1.53,3.6,0,.9,.42,1.29,1.29,1.29,1.14,0,2.16-1.05,2.88-1.8l.12,.15c-1.11,1.38-2.67,2.37-4.47,2.37-1.59,0-2.58-.87-2.58-2.49,0-.51,.18-1.05,.45-1.47l-.06-.06c-3.39,2.25-6.03,6.09-7.8,9.36l-3.03,.09Z" style="fill: #7c282c;"/>
      <path d="M227.22,51.88l3.36-.18c-3.96,6.51-12.03,17.79-12.03,20.1,0,.42,.21,.72,.63,.72,.84,0,2.37-.81,4.17-2.67,1.47-1.5,2.76-3.06,4.35-5.16l.3,.15c-.87,1.17-2.58,3.36-4.08,4.92-1.92,1.98-3.6,3.3-5.58,3.3-1.83,0-2.31-1.35-2.1-2.4l-.06-.06c-1.23,1.29-2.67,2.28-4.59,2.28s-2.61-1.47-2.61-3.09c0-4.02,4.59-8.25,8.49-8.25,1.35,0,2.25,.69,2.7,1.92l7.05-11.58Zm-8.07,11.7c0-1.17-.66-1.68-1.59-1.68-2.49,0-5.7,5.13-5.7,8.1,0,.96,.39,1.86,1.47,1.86,2.58,0,5.82-5.58,5.82-8.28Z" style="fill: #7c282c;"/>
      <path d="M246.3,64.71c-1.23,1.65-2.58,3.3-4.53,5.07-2.76,2.49-5.34,3.27-7.56,3.27s-3.69-1.5-3.69-3.66c0-3.84,5.19-7.86,8.94-7.86,1.71,0,2.73,.69,2.73,1.89,0,2.91-6.54,4.17-8.64,4.62-.09,.36-.15,.72-.15,1.08,0,1.71,1.02,2.91,2.73,2.91s3.78-1.05,5.82-2.94c1.56-1.47,3.06-3.21,4.14-4.59l.21,.21Zm-7.32-2.82c-2.01,0-4.86,3.84-5.37,5.85,3.27-.66,6.18-3.12,6.18-5.07,0-.54-.33-.78-.81-.78Z" style="fill: #7c282c;"/>
      <path d="M246.3,72.57c2.04-3.51,4.17-6.99,6.24-10.56l3.42-.12-3.96,5.58,.06,.06c3-3.72,4.74-4.38,5.34-4.98,.87-.87,1.38-.96,3.63-1.02-.75,1.08-1.53,2.25-1.53,3.6,0,.9,.42,1.29,1.29,1.29,1.14,0,2.16-1.05,2.88-1.8l.12,.15c-1.11,1.38-2.67,2.37-4.47,2.37-1.59,0-2.58-.87-2.58-2.49,0-.51,.18-1.05,.45-1.47l-.06-.06c-3.39,2.25-6.03,6.09-7.8,9.36l-3.03,.09Z" style="fill: #7c282c;"/>
    </g>
    <g>
      <path d="M23.05,5.49h6.17v2.29h-11.84v-2.29h5.61c-.46-1.15-1.39-2.91-2.23-4.19L23.02,.16c.84,1.3,1.86,2.95,2.29,4.06l-2.26,1.27Zm-4.34,4.12h9.64v2.26h-9.64v-2.26Zm0,4.09h9.61v2.23h-9.61v-2.23Zm9.52,13.27h-7.01v1.4h-2.48v-10.48h9.49v9.08Zm-7.01-6.76v4.43h4.5v-4.43h-4.5ZM45.59,5.61h-4.4V24.77c0,1.77-.43,2.7-1.67,3.13-1.24,.5-3.25,.53-6.23,.53-.16-.81-.65-2.17-1.15-2.98,2.26,.12,4.59,.09,5.27,.09,.62-.03,.84-.22,.84-.81V5.61h-8.37V2.79h15.72v2.82Z" style="fill: #8a202a;"/>
      <path d="M83.81,24.62h-12.34v4.12h-2.95v-4.12h-12.03v-2.51h12.03v-2.02h-9.02V8.96h21.52v11.13h-9.55v2.02h12.34v2.51Zm-14.73-17.05h-10.51V1.49h10.51V7.57Zm-2.76-4.22h-5.18v2.39h5.18V3.35Zm-4,10.08h6.2v-2.17h-6.2v2.17Zm6.2,4.37v-2.23h-6.2v2.23h6.2Zm13.33-10.23h-10.6V1.49h10.6V7.57Zm-3.78,3.69h-6.6v2.17h6.6v-2.17Zm0,4.31h-6.6v2.23h6.6v-2.23Zm1.05-12.22h-5.27v2.39h5.27V3.35Z" style="fill: #8a202a;"/>
      <path d="M100.55,5.49h6.17v2.29h-11.84v-2.29h5.61c-.46-1.15-1.39-2.91-2.23-4.19l2.26-1.15c.84,1.3,1.86,2.95,2.29,4.06l-2.26,1.27Zm-4.34,4.12h9.64v2.26h-9.64v-2.26Zm0,4.09h9.61v2.23h-9.61v-2.23Zm9.52,13.27h-7.01v1.4h-2.48v-10.48h9.49v9.08Zm-7.01-6.76v4.43h4.5v-4.43h-4.5Zm24.37-14.6h-4.4V24.77c0,1.77-.43,2.7-1.67,3.13-1.24,.5-3.25,.53-6.23,.53-.16-.81-.65-2.17-1.15-2.98,2.26,.12,4.59,.09,5.27,.09,.62-.03,.84-.22,.84-.81V5.61h-8.37V2.79h15.72v2.82Z" style="fill: #8a202a;"/>
      <path d="M138.77,22.08c-.78,2.54-2.11,5.08-3.5,6.73-.5-.43-1.58-1.15-2.17-1.49,1.4-1.46,2.54-3.63,3.13-5.86l2.54,.62Zm4.96-1.08h-9.02V1.46h9.02V20.99Zm-2.6-17.18h-3.91v3.44h3.91V3.81Zm0,5.64h-3.91v3.5h3.91v-3.5Zm0,5.67h-3.91v3.54h3.91v-3.54Zm1.02,6.29c.99,1.52,2.08,3.53,2.57,4.87l-2.26,1.09c-.4-1.33-1.52-3.47-2.48-5.02l2.17-.93Zm19.66,2.33h-1.64v2.23c0,1.27-.28,1.95-1.18,2.36-.93,.4-2.36,.4-4.5,.4-.09-.65-.43-1.67-.78-2.33,1.43,.06,2.85,.06,3.26,.03,.43,0,.53-.12,.53-.5v-2.2h-8.96v5.05h-2.57v-5.05h-1.83v-2.11h1.83v-7.84h5.71v-1.49h-7.41v-2.14h4.19v-1.64h-2.79v-2.05h2.79v-1.52h-3.57V2.82h3.57V.31h2.54V2.82h3.97V.31h2.57V2.82h3.57v2.14h-3.57v1.52h3.07v2.05h-3.07v1.64h4.22v2.14h-7.53v1.49h5.95v7.84h1.64v2.11Zm-13.27-7.81v1.83h3.13v-1.83h-3.13Zm0,5.71h3.13v-1.98h-3.13v1.98Zm2.45-15.16h3.97v-1.52h-3.97v1.52Zm0,3.69h3.97v-1.64h-3.97v1.64Zm3.22,5.77v1.83h3.29v-1.83h-3.29Zm3.29,5.71v-1.98h-3.29v1.98h3.29Z" style="fill: #8a202a;"/>
      <path d="M196.53,25.67c1.05,0,1.24-.53,1.36-3.94,.65,.5,1.86,.96,2.6,1.15-.31,4.34-1.08,5.43-3.72,5.43h-4.37c-3.16,0-3.91-.84-3.91-3.69v-6.95h-4.87c-.43,6.2-1.98,9.52-9.83,11.13-.25-.74-.99-1.86-1.52-2.45,6.92-1.24,8.06-3.63,8.4-8.68h-8v-2.7h27.32v2.7h-8.59v6.95c0,.93,.19,1.05,1.36,1.05h3.75Zm-20.25-14.79h-2.88V3.69h11.63c-.34-.93-.84-1.98-1.3-2.82l2.92-.87c.68,1.12,1.4,2.54,1.83,3.69h10.76v7.19h-2.98V6.45h-19.97v4.43Zm1.83,1.05v-2.64h16.34v2.64h-16.34Z" style="fill: #8a202a;"/>
      <path d="M237.29,10.88c-1.3,4-3.13,7.5-5.4,10.48,1.05,2.64,2.26,4.25,3.57,4.25,.81,0,1.18-1.58,1.36-5.58,.68,.68,1.71,1.33,2.48,1.61-.46,5.46-1.52,6.91-4.06,6.91-2.26,0-4.06-1.74-5.46-4.65-1.77,1.86-3.72,3.44-5.86,4.74-.43-.62-1.46-1.83-2.11-2.36,2.57-1.43,4.87-3.22,6.76-5.43-1.12-3.5-1.83-7.94-2.2-12.77h-9.92v3.75h7.78v1.12c-.16,6.73-.31,9.39-.96,10.26-.56,.65-1.15,.9-1.98,.99-.78,.12-2.17,.12-3.66,.06-.06-.84-.34-1.95-.77-2.7,1.27,.12,2.48,.16,2.98,.16,.43,0,.74-.09,.96-.37,.34-.43,.53-2.2,.62-6.88h-4.96c-.03,4.4-.56,10.6-3.29,14.6-.5-.59-1.77-1.61-2.42-1.98,2.48-3.72,2.7-9.05,2.7-13.05V5.27h12.74c-.09-1.61-.15-3.29-.15-4.93h3.04c-.03,1.67,0,3.32,.09,4.93h5.98c-1.21-1.02-3.22-2.36-4.87-3.26l1.74-1.77c1.83,.96,4.16,2.39,5.36,3.44l-1.49,1.58h3.16v2.82h-9.74c.31,3.69,.81,7.04,1.52,9.8,1.49-2.29,2.64-4.87,3.53-7.72l2.92,.71Z" style="fill: #8a202a;"/>
    </g>
  </g>
</svg>