<?xml version="1.0" encoding="UTF-8"?>
<svg id="b" data-name="圖層 2" xmlns="http://www.w3.org/2000/svg" width="186.01" height="185.93" viewBox="0 0 186.01 185.93">
  <g id="c" data-name="首頁">
    <g>
      <path d="M83.78,13.28l-.87-12.76,3.99-.27c1.2-.08,2.17,.12,2.9,.61,.73,.49,1.13,1.18,1.19,2.08,.05,.7-.12,1.33-.51,1.9-.39,.56-.92,.97-1.6,1.23v.03c.88,.04,1.6,.32,2.17,.84,.57,.52,.88,1.2,.94,2.05,.08,1.11-.26,2.03-1.01,2.77-.75,.74-1.77,1.15-3.07,1.24l-4.13,.28Zm1.22-11.27l.25,3.73,1.43-.1c.75-.05,1.33-.27,1.72-.66,.39-.39,.57-.9,.52-1.53-.08-1.13-.89-1.64-2.44-1.54l-1.49,.1Zm.37,5.36l.28,4.15,1.86-.13c.81-.06,1.42-.29,1.84-.69,.42-.4,.61-.94,.56-1.6-.09-1.35-1.05-1.97-2.88-1.85l-1.66,.11Z" style="fill: #8a202a;"/>
      <path d="M106.23,8.4c-.35,3.66-2.2,5.33-5.55,5-3.21-.31-4.64-2.24-4.3-5.78l.74-7.63,1.97,.19-.73,7.58c-.23,2.42,.65,3.72,2.64,3.91,1.93,.19,3.01-.89,3.24-3.22l.75-7.71,1.97,.19-.72,7.45Z" style="fill: #8a202a;"/>
      <path d="M121.82,4.46l-6.14,6.77-1.2,4.51-1.92-.51,1.19-4.47-1.86-8.94,2.19,.58,1.1,5.9s.02,.31,.07,.93h.02c.14-.25,.31-.5,.53-.74l3.98-4.57,2.04,.54Z" style="fill: #8a202a;"/>
      <path d="M133.52,11.14h0s-4.15,8.59-4.15,8.59h0s-.7,1.46-.7,1.46l-1.78-.86,.7-1.46h0s4.15-8.59,4.15-8.59h0s.7-1.46,.7-1.46l1.78,.86-.7,1.46Z" style="fill: #8a202a;"/>
      <path d="M145.6,18.3l-3.11-1.96-5.92,9.37-1.68-1.06,5.92-9.37-3.1-1.96,.91-1.44,7.89,4.98-.91,1.44Z" style="fill: #8a202a;"/>
      <path d="M147.44,32.8c.23-.24,.51-.36,.83-.35,.32,0,.61,.12,.86,.36,.24,.23,.37,.51,.39,.84,.02,.33-.09,.61-.32,.84-.22,.23-.49,.34-.82,.34-.32,0-.6-.11-.82-.33-.27-.26-.41-.55-.42-.87-.01-.33,.09-.6,.31-.83Zm9.79-6.97l-6.45,6.36-1.13-1.09,6.12-6.68,1.46,1.41Z" style="fill: #8a202a;"/>
      <path d="M157.28,44.96l10.59-7.16,2.24,3.31c.68,1,.99,1.94,.93,2.81s-.45,1.57-1.2,2.07c-.58,.39-1.22,.57-1.9,.51-.68-.05-1.3-.31-1.87-.76l-.03,.02c.4,.78,.53,1.54,.36,2.29-.16,.75-.6,1.37-1.3,1.84-.92,.62-1.89,.8-2.9,.52s-1.88-.95-2.62-2.03l-2.32-3.43Zm5.9-1.6l-3.45,2.33,1.04,1.55c.45,.67,.96,1.08,1.52,1.24,.56,.16,1.12,.05,1.67-.32,1.13-.76,1.18-1.9,.15-3.42l-.93-1.38Zm4.45-3.01l-3.1,2.09,.8,1.19c.42,.62,.9,1.01,1.44,1.15,.54,.14,1.06,.04,1.59-.32,.94-.63,.97-1.6,.11-2.88l-.84-1.24Z" style="fill: #8a202a;"/>
      <path d="M172.76,61.95c-3.34,1.53-5.72,.76-7.11-2.3-1.34-2.93-.39-5.14,2.84-6.62l6.98-3.19,.82,1.8-6.93,3.17c-2.21,1.01-2.9,2.42-2.06,4.25,.81,1.77,2.28,2.16,4.41,1.19l7.04-3.22,.82,1.8-6.81,3.11Z" style="fill: #8a202a;"/>
      <path d="M183.98,73.45l-8.94-1.91-4.5,1.22-.52-1.92,4.46-1.21,6.8-6.09,.6,2.19-4.56,3.91s-.26,.18-.76,.52v.02c.3-.01,.6,.02,.92,.08l5.95,1.15,.55,2.03Z" style="fill: #8a202a;"/>
      <path d="M184.09,87.26h0l-9.51,1h0l-1.61-.48-.15-1.98,1.61-.13h0s9.51-.74,9.51-.74h0s1.61-.13,1.61-.13l.15,1.98-1.61,.47Z" style="fill: #8a202a;"/>
      <path d="M183.99,100.94l.13-3.67-11.08-.39,.07-1.99,11.08,.39,.13-3.66,1.7,.06-.33,9.32-1.7-.06Z" style="fill: #8a202a;"/>
      <path d="M172.38,109.82c.32,.08,.56,.26,.72,.54,.16,.28,.2,.59,.12,.92-.08,.33-.26,.58-.53,.75-.27,.18-.57,.23-.89,.15-.31-.08-.55-.25-.71-.54s-.2-.57-.13-.88c.09-.36,.27-.62,.55-.8,.28-.18,.57-.23,.87-.15Zm10.94,4.98l-8.74-2.39,.38-1.53,8.85,1.95-.49,1.97Z" style="fill: #8a202a;"/>
      <path d="M166.78,124.44l11.5,5.59-1.75,3.59c-.53,1.08-1.18,1.82-1.97,2.22-.78,.39-1.58,.39-2.39,0-.63-.31-1.1-.77-1.39-1.38s-.39-1.28-.28-2h-.03c-.47,.72-1.07,1.21-1.8,1.45-.73,.24-1.48,.17-2.25-.21-1-.49-1.63-1.24-1.9-2.25-.27-1.01-.12-2.11,.45-3.28l1.81-3.72Zm4.34,4.31l-3.74-1.82-.82,1.68c-.35,.73-.46,1.37-.32,1.94s.51,.99,1.11,1.28c1.22,.59,2.23,.07,3.04-1.58l.73-1.5Zm4.83,2.35l-3.36-1.63-.63,1.29c-.33,.68-.42,1.29-.28,1.82,.14,.54,.5,.94,1.07,1.22,1.02,.5,1.87,.05,2.55-1.35l.65-1.34Z" style="fill: #8a202a;"/>
      <path d="M159.86,146.32c-3-2.12-3.53-4.56-1.58-7.3,1.86-2.63,4.25-2.92,7.15-.87l6.26,4.43-1.14,1.62-6.22-4.4c-1.98-1.4-3.55-1.29-4.71,.35-1.12,1.59-.73,3.06,1.19,4.41l6.32,4.48-1.14,1.62-6.11-4.33Z" style="fill: #8a202a;"/>
      <path d="M155.55,161.84l-2.85-8.69-3.32-3.27,1.4-1.42,3.29,3.24,8.69,2.81-1.59,1.62-5.67-1.97s-.28-.14-.84-.4l-.02,.02c.16,.25,.29,.52,.39,.83l2,5.72-1.48,1.5Z" style="fill: #8a202a;"/>
      <path d="M144,168.69h0s-5.42-7.85-5.42-7.85h0s-.92-1.34-.92-1.34l1.63-1.12,.92,1.33h0s5.42,7.85,5.42,7.85h0s.92,1.34,.92,1.34l-1.63,1.13-.92-1.33Z" style="fill: #8a202a;"/>
      <path d="M131.79,175.65l3.24-1.73-5.22-9.78,1.76-.94,5.22,9.78,3.23-1.73,.8,1.5-8.23,4.39-.8-1.5Z" style="fill: #8a202a;"/>
      <path d="M118.29,170.05c.09,.32,.06,.62-.11,.9s-.41,.47-.74,.56c-.32,.09-.63,.07-.92-.08-.29-.15-.48-.38-.57-.7-.09-.31-.05-.6,.11-.88,.16-.28,.39-.46,.7-.55,.35-.1,.68-.08,.97,.07,.29,.15,.48,.38,.57,.68Zm1.18,11.96l-2.32-8.76,1.51-.44,2.75,8.63-1.95,.57Z" style="fill: #8a202a;"/>
      <path d="M102.83,172.55l.96,12.75-3.98,.3c-1.2,.09-2.17-.1-2.9-.58-.74-.48-1.14-1.17-1.21-2.07-.05-.7,.11-1.33,.49-1.9,.38-.56,.91-.98,1.59-1.25v-.03c-.88-.03-1.6-.31-2.17-.82-.57-.51-.89-1.2-.95-2.05-.08-1.11,.24-2.03,.99-2.78,.74-.74,1.76-1.16,3.06-1.26l4.12-.31Zm-1.54,5.92l-.31-4.15-1.86,.14c-.81,.06-1.42,.3-1.83,.7-.42,.41-.6,.94-.55,1.61,.1,1.36,1.07,1.96,2.9,1.83l1.66-.13Zm.41,5.36l-.28-3.73-1.43,.11c-.75,.06-1.32,.28-1.71,.68-.39,.39-.56,.91-.51,1.54,.09,1.13,.9,1.64,2.45,1.52l1.49-.11Z" style="fill: #8a202a;"/>
      <path d="M80.4,177.59c.33-3.66,2.17-5.34,5.51-5.04,3.21,.29,4.66,2.2,4.34,5.74l-.68,7.64-1.97-.18,.68-7.59c.22-2.42-.67-3.71-2.67-3.89-1.94-.17-3.01,.91-3.22,3.24l-.69,7.71-1.97-.18,.67-7.46Z" style="fill: #8a202a;"/>
      <path d="M64.85,181.66l6.09-6.82,1.16-4.52,1.93,.5-1.15,4.48,1.93,8.93-2.2-.57-1.14-5.89s-.03-.31-.08-.92h-.02c-.14,.26-.31,.51-.53,.75l-3.95,4.6-2.04-.53Z" style="fill: #8a202a;"/>
      <path d="M53.09,175.06h0s4.08-8.62,4.08-8.62h0s.69-1.47,.69-1.47l1.79,.85-.69,1.46h0s-4.08,8.62-4.08,8.62h0s-.69,1.47-.69,1.47l-1.79-.85,.69-1.46Z" style="fill: #8a202a;"/>
      <path d="M40.99,168.01l3.12,1.94,5.84-9.42,1.69,1.05-5.84,9.42,3.11,1.93-.9,1.44-7.93-4.92,.9-1.44Z" style="fill: #8a202a;"/>
      <path d="M29.29,160.57l6.4-6.41,1.14,1.09-6.07,6.72-1.47-1.4Zm9.74-7.04c-.23,.24-.5,.36-.83,.36-.32,0-.61-.12-.86-.35-.24-.23-.37-.51-.39-.83-.02-.32,.09-.61,.31-.85,.22-.23,.49-.35,.81-.35,.32,0,.6,.1,.83,.32,.27,.25,.41,.54,.43,.87s-.08,.6-.3,.83Z" style="fill: #8a202a;"/>
      <path d="M29.09,141.43l-10.54,7.24-2.26-3.29c-.68-.99-1-1.93-.95-2.8,.05-.88,.44-1.57,1.18-2.08,.58-.4,1.21-.58,1.89-.53,.68,.05,1.3,.3,1.88,.75l.03-.02c-.41-.77-.54-1.53-.38-2.29s.59-1.37,1.29-1.85c.92-.63,1.88-.81,2.9-.54,1.01,.27,1.89,.94,2.63,2.01l2.34,3.41Zm-10.32,4.69l3.08-2.12-.81-1.18c-.43-.62-.91-1-1.44-1.14-.54-.14-1.07-.03-1.59,.33-.93,.64-.96,1.6-.08,2.88l.85,1.23Zm4.43-3.04l3.43-2.36-1.06-1.54c-.46-.67-.97-1.08-1.53-1.23-.56-.16-1.12-.04-1.67,.33-1.12,.77-1.16,1.91-.12,3.42l.94,1.38Z" style="fill: #8a202a;"/>
      <path d="M13.48,124.57c3.33-1.55,5.71-.81,7.13,2.24,1.36,2.92,.43,5.14-2.79,6.64l-6.95,3.24-.84-1.79,6.91-3.22c2.2-1.03,2.88-2.45,2.03-4.26-.82-1.76-2.29-2.15-4.42-1.16l-7.02,3.27-.84-1.8,6.79-3.16Z" style="fill: #8a202a;"/>
      <path d="M2.17,113.13l8.95,1.85,4.49-1.26,.54,1.92-4.45,1.25-6.76,6.14-.61-2.19,4.53-3.94s.26-.18,.76-.53v-.02c-.3,.01-.61-.01-.92-.08l-5.96-1.11-.57-2.03Z" style="fill: #8a202a;"/>
      <path d="M1.96,100.08h0s9.5-.81,9.5-.81h0l1.61-.14,.17,1.97-1.61,.14h0s-9.5,.82-9.5,.82h0s-1.61,.14-1.61,.14l-.17-1.98,1.61-.14Z" style="fill: #8a202a;"/>
      <path d="M1.96,85.67l-.1,3.67,11.08,.3-.05,1.99-11.08-.3-.1,3.66-1.7-.05,.26-9.33,1.7,.05Z" style="fill: #8a202a;"/>
      <path d="M2.52,71.8l8.76,2.32-.36,1.53-8.86-1.88,.47-1.98Zm10.98,4.89c-.32-.08-.56-.26-.73-.54-.16-.28-.2-.59-.12-.92,.08-.33,.25-.58,.52-.76,.27-.18,.57-.23,.89-.15,.31,.07,.55,.25,.71,.53,.16,.28,.21,.57,.13,.88-.09,.36-.27,.63-.54,.8-.27,.18-.56,.23-.87,.16Z" style="fill: #8a202a;"/>
      <path d="M18.97,62.05l-11.54-5.5,1.72-3.61c.52-1.09,1.17-1.83,1.95-2.23,.78-.4,1.58-.4,2.39-.02,.64,.3,1.1,.76,1.4,1.37,.3,.61,.4,1.28,.29,2h.03c.46-.73,1.06-1.22,1.79-1.46s1.48-.18,2.25,.19c1,.48,1.64,1.22,1.92,2.24,.28,1.01,.14,2.11-.43,3.29l-1.78,3.73Zm-9.22-6.59l3.38,1.61,.62-1.3c.32-.68,.41-1.29,.26-1.82s-.51-.94-1.08-1.21c-1.02-.49-1.87-.03-2.54,1.37l-.64,1.35Zm4.85,2.31l3.76,1.79,.8-1.68c.35-.73,.45-1.38,.3-1.94-.15-.56-.52-.99-1.12-1.28-1.23-.58-2.24-.05-3.02,1.61l-.72,1.51Z" style="fill: #8a202a;"/>
      <path d="M25.74,40.08c3.02,2.1,3.56,4.53,1.64,7.29-1.84,2.65-4.22,2.95-7.14,.92l-6.29-4.39,1.13-1.62,6.25,4.36c1.99,1.39,3.56,1.26,4.71-.38,1.11-1.59,.7-3.06-1.22-4.4l-6.35-4.43,1.13-1.63,6.14,4.28Z" style="fill: #8a202a;"/>
      <path d="M29.91,24.56l2.92,8.67,3.35,3.25-1.38,1.43-3.32-3.22-8.71-2.74,1.58-1.63,5.69,1.92s.28,.13,.84,.39l.02-.02c-.16-.25-.29-.52-.39-.83l-2.04-5.71,1.46-1.51Z" style="fill: #8a202a;"/>
      <path d="M41.43,17.61h0s5.48,7.81,5.48,7.81h0s.93,1.33,.93,1.33l-1.62,1.14-.93-1.32h0s-5.47-7.81-5.47-7.81h0s-.93-1.33-.93-1.33l1.62-1.14,.93,1.32Z" style="fill: #8a202a;"/>
      <path d="M53.58,10.55l-3.23,1.75,5.29,9.74-1.75,.95-5.29-9.74-3.22,1.75-.81-1.49,8.2-4.45,.81,1.5Z" style="fill: #8a202a;"/>
      <path d="M65.84,4.1l2.38,8.74-1.51,.45-2.82-8.61,1.94-.58Zm1.27,11.95c-.1-.32-.06-.62,.1-.9,.16-.28,.41-.47,.73-.57,.32-.1,.63-.07,.92,.07,.29,.15,.48,.38,.58,.69,.09,.31,.06,.6-.1,.88-.16,.28-.39,.47-.69,.56-.35,.11-.68,.08-.97-.06-.29-.15-.48-.37-.57-.67Z" style="fill: #8a202a;"/>
    </g>
  </g>
</svg>