<?xml version="1.0" encoding="UTF-8"?>
<svg id="b" data-name="圖層 2" xmlns="http://www.w3.org/2000/svg" width="1664.91" height="580.7" xmlns:xlink="http://www.w3.org/1999/xlink" viewBox="0 0 1664.91 580.7">
  <defs>
    <clipPath id="d">
      <rect x="1305.31" y="453.82" width="49.33" height="26.32" transform="translate(2659.95 933.97) rotate(180)" style="fill: none;"/>
    </clipPath>
    <clipPath id="e">
      <rect x="1305.31" y="113.7" width="49.33" height="26.32" style="fill: none;"/>
    </clipPath>
    <clipPath id="f">
      <rect x="348.73" y="453.82" width="49.33" height="26.32" transform="translate(746.79 933.97) rotate(180)" style="fill: none;"/>
    </clipPath>
    <clipPath id="g">
      <rect x="348.73" y="113.7" width="49.33" height="26.32" style="fill: none;"/>
    </clipPath>
  </defs>
  <g id="c" data-name="圖層 1">
    <g>
      <g>
        <path d="M684.32,566.93c8.32-1.83,13.95-9.05,19.15-15.9l.49,.37c-6.48,8.56-12.66,16.7-24.53,16.7-4.22,0-8.75-1.59-8.75-6.54,0-2.57,1.53-5.57,4.4-5.57,1.9,0,2.94,1.29,2.94,2.63,0,1.71-1.16,2.63-2.45,2.63-.49,0-.92-.06-1.35-.3-.43,.73-.73,1.59-.73,2.51,0,2.26,2.02,3.92,4.4,3.92,3,0,6.24-2.08,6.24-5.26,0-2.14-1.22-3.85-2.45-5.45-1.22-1.65-2.45-3.24-2.45-5.14,0-4.59,4.65-6.91,8.99-6.91,3.92,0,6.91,1.78,6.91,4.83,0,2.32-1.77,4.04-4.1,4.04-.73,0-1.41-.18-1.77-.31,.86-1.59,1.22-3.24,1.22-4.77,0-1.65-.92-3.06-2.81-3.06-2.26,0-3.55,1.59-3.55,3.73,0,2.26,1.22,3.91,2.45,5.57,1.22,1.59,2.45,3.3,2.45,5.75,0,3.18-2.32,5.87-4.71,6.42v.12Z" style="fill: #7e292d;"/>
        <path d="M717.96,545.58c-7.65,12.05-10.95,16.76-10.95,19.27,0,.98,.37,1.65,1.1,1.65,1.59,0,4.59-1.71,9.05-6.24,3.61-3.67,7.03-7.71,8.5-9.42l.55,.37c-2.02,2.57-5.93,6.97-9.11,10.15-4.71,4.71-7.89,6.36-10.77,6.36-2.69,0-4.22-1.65-4.22-3.97,0-3.18,2.26-6.36,9.54-17.86l6.3-.31Zm6.48-10.71c0,1.65-1.53,3.24-3.18,3.24-1.77,0-3.3-.92-3.3-2.81s1.71-3.3,3.55-3.3c1.53,0,2.94,1.35,2.94,2.88Z" style="fill: #7e292d;"/>
        <path d="M732.03,556.59c2.32-2.94,9.05-11.99,15.42-11.99,2.69,0,4.1,1.71,4.1,3.92,0,5.51-8.44,11.93-8.44,16.46,0,.98,.49,1.65,1.59,1.65,1.16,0,3.73-1.41,8.2-6.18,3.49-3.73,6.67-7.71,8.14-9.48l.61,.3c-2.14,2.51-5.38,6.61-8.87,10.28-4.28,4.46-6.85,6.18-10.03,6.18s-4.53-2.02-4.53-4.22c0-5.5,8.44-12.11,8.44-15.9,0-.86-.61-1.53-1.71-1.53-4.83,0-15.78,14.8-18.84,20.86l-6.18,.18c4.28-7.16,8.75-14.19,12.97-21.53l6.97-.24-7.95,11.13,.12,.12Z" style="fill: #7e292d;"/>
        <path d="M792.72,551.33c-6,7.4-14.07,16.76-24.35,16.76-4.89,0-7.59-2.75-7.59-7.83,0-7.83,10.22-15.66,18.35-15.66,3.73,0,6.12,1.71,6.12,3.92,0,3.18-2.63,5.02-5.14,5.02-.61,0-1.1-.06-1.41-.12,.55-1.89,1.41-3.85,1.41-5.81,0-1.41-.73-2.26-1.84-2.26-4.28,0-11.62,7.34-11.62,15.11,0,3.12,2.02,5.57,5.32,5.57,8.01,0,16.15-10.09,20.19-14.93l.55,.25Z" style="fill: #7e292d;"/>
        <path d="M823.73,551.09c-2.51,3.37-5.26,6.73-9.24,10.34-5.63,5.08-10.89,6.67-15.42,6.67s-7.52-3.06-7.52-7.46c0-7.83,10.58-16.03,18.23-16.03,3.49,0,5.57,1.41,5.57,3.86,0,5.93-13.34,8.5-17.62,9.42-.18,.73-.31,1.47-.31,2.2,0,3.49,2.08,5.93,5.57,5.93s7.71-2.14,11.87-5.99c3.18-3,6.24-6.54,8.44-9.36l.43,.43Zm-14.93-5.75c-4.1,0-9.91,7.83-10.95,11.93,6.67-1.35,12.6-6.36,12.6-10.34,0-1.1-.67-1.59-1.65-1.59Z" style="fill: #7e292d;"/>
        <path d="M848.33,545.95c9.3-2.08,17.92-6.42,25.45-11.87l.43,.37c-6.61,10.4-14.01,21.9-19.76,31.81l5.81-.31-.25,.43c-4.22,.37-8.44,.61-12.66,.73l17.07-26.37-.12-.12c-4.89,2.51-10.28,4.46-15.78,5.87l-.18-.55Z" style="fill: #7e292d;"/>
        <path d="M899.84,553.72c-2.45,3.49-5.75,6.36-10.52,6.36-4.47,0-7.04-3.3-7.04-7.52,0-7.89,9.12-18.47,17.01-18.47,4.96,0,8.38,2.94,8.38,9.18,0,18.11-23,37.44-39.15,37.44-6.97,0-12.3-2.08-12.3-7.77,0-1.84,1.1-3.61,3.49-4.1,.92,6.48,4.16,11.13,10.03,11.13,12.3,0,25.39-17.01,30.22-26.12l-.12-.12Zm-8.26,4.89c6.67,0,11.81-11.07,11.81-17.56,0-4.65-1.71-6.24-3.92-6.24-7.77,0-12.05,11.75-12.05,18.05,0,2.63,.92,5.75,4.16,5.75Z" style="fill: #7e292d;"/>
        <path d="M938.81,553.72c-2.45,3.49-5.75,6.36-10.52,6.36-4.47,0-7.04-3.3-7.04-7.52,0-7.89,9.11-18.47,17.01-18.47,4.96,0,8.38,2.94,8.38,9.18,0,18.11-23,37.44-39.15,37.44-6.97,0-12.3-2.08-12.3-7.77,0-1.84,1.1-3.61,3.49-4.1,.92,6.48,4.16,11.13,10.03,11.13,12.3,0,25.39-17.01,30.22-26.12l-.12-.12Zm-8.26,4.89c6.67,0,11.81-11.07,11.81-17.56,0-4.65-1.71-6.24-3.92-6.24-7.77,0-12.05,11.75-12.05,18.05,0,2.63,.92,5.75,4.16,5.75Z" style="fill: #7e292d;"/>
        <path d="M984.57,556.23c-3.06,5.51-6.91,11.62-14.07,11.62-2.45,0-4.77-1.04-6.97-2.08-2.26-.98-4.34-2.02-6.42-2.02-1.77,0-2.69,1.04-3.36,2.02-.73,1.04-1.22,2.08-2.32,2.08-.43,0-.61-.37-.61-.73,0-2.63,19.21-11.07,22.08-12.6,4.41-2.32,8.32-6.24,8.32-11.81,0-4.46-3.18-7.52-6.85-7.52s-6.36,3.18-6.36,6.48c0,2.63,1.22,4.71,3.92,4.71,.8,0,1.77-.31,2.45-.8-.92,3-2.69,4.34-5.57,4.34s-5.08-1.9-5.08-5.51c0-4.59,4.71-10.34,13.34-10.34,4.83,0,10.03,2.69,10.03,8.5,0,11.13-15.84,13.52-23.43,17.19-1.9,.92-3.85,1.77-5.44,2.69l.12,.12c1.77-.67,3.49-.98,5.38-.98,4.59,0,8.26,2.33,11.62,2.33,4.16,0,7.16-4.83,8.93-8.01l.31,.3Z" style="fill: #7e292d;"/>
      </g>
      <g>
        <line x1="1371.9" y1="159.15" x2="1294.8" y2="159.15" style="fill: none; stroke: #706359; stroke-miterlimit: 10; stroke-width: .5px;"/>
        <line x1="1371.9" y1="155.49" x2="1294.8" y2="155.49" style="fill: none; stroke: #706359; stroke-miterlimit: 10; stroke-width: .5px;"/>
        <line x1="1371.9" y1="151.82" x2="1294.8" y2="151.82" style="fill: none; stroke: #706359; stroke-miterlimit: 10; stroke-width: .5px;"/>
        <line x1="1371.9" y1="439.37" x2="1294.8" y2="439.37" style="fill: none; stroke: #706359; stroke-miterlimit: 10; stroke-width: .5px;"/>
        <line x1="1371.9" y1="435.7" x2="1294.8" y2="435.7" style="fill: none; stroke: #706359; stroke-miterlimit: 10; stroke-width: .5px;"/>
        <line x1="1371.9" y1="432.04" x2="1294.8" y2="432.04" style="fill: none; stroke: #706359; stroke-miterlimit: 10; stroke-width: .5px;"/>
        <line x1="1363.13" y1="425.53" x2="1363.13" y2="165.68" style="fill: none; stroke: #7e292d; stroke-miterlimit: 10; stroke-width: .5px;"/>
        <line x1="1367.51" y1="425.53" x2="1367.51" y2="165.68" style="fill: none; stroke: #7e292d; stroke-miterlimit: 10; stroke-width: .5px;"/>
        <line x1="1371.9" y1="425.53" x2="1371.9" y2="165.68" style="fill: none; stroke: #7e292d; stroke-miterlimit: 10; stroke-width: .5px;"/>
        <line x1="1281.17" y1="439.37" x2="1281.17" y2="150.06" style="fill: none; stroke: #7e292d; stroke-miterlimit: 10; stroke-width: .5px;"/>
        <line x1="1285.55" y1="439.37" x2="1285.55" y2="150.06" style="fill: none; stroke: #7e292d; stroke-miterlimit: 10; stroke-width: .5px;"/>
        <line x1="1289.94" y1="439.37" x2="1289.94" y2="150.06" style="fill: none; stroke: #7e292d; stroke-miterlimit: 10; stroke-width: .5px;"/>
      </g>
      <g>
        <path d="M1328.61,265.65c-.08,.94-.25,1.84-.41,2.71h16.44v3.24h-17.3c-1.93,5.33-6.27,8.77-17.1,10.54-.29-1.03-1.19-2.58-1.93-3.44,8.98-1.23,12.87-3.53,14.72-7.09h-13.08v-3.24h14.23c.16-.86,.33-1.72,.45-2.71h-15.58v-3.36h16.03v-2.91h-12.38v-3.24h12.38v-2.79h-14.68v-3.36h8.24c-.66-1.35-1.76-3.03-2.75-4.26l3.32-1.31c1.39,1.48,2.79,3.53,3.36,4.96l-1.35,.62h10c1.11-1.64,2.5-3.94,3.2-5.58l4.06,1.11c-.94,1.52-2.05,3.16-3.03,4.47h8.36v3.36h-14.8v2.79h12.83v3.24h-12.83v2.91h16.52v3.36h-16.93Zm15.17,16.73c-3.65-2.38-10.99-5.78-16.48-7.91l1.68-2.87c5.37,1.93,12.83,5.17,16.56,7.42l-1.76,3.36Z" style="fill: #85202a;"/>
        <path d="M1313.12,354.95v3.2h-3.49v-27.14h11.36v23.94h-7.87Zm0-20.25v16.56h4.39v-16.56h-4.39Zm23.62,12.46c2.21,4.92,5.78,9.68,9.47,12.3-.94,.7-2.17,2.13-2.87,3.12-2.87-2.5-5.66-6.4-7.83-10.62v13h-3.85v-13.08c-2.54,4.47-5.86,8.32-9.59,10.7-.57-.9-1.72-2.25-2.58-2.95,4.47-2.46,8.57-7.34,10.99-12.46h-8.2v-3.65h9.39v-6.07h-7.91v-3.65h7.91v-6.15h3.85v6.15h8.69v3.65h-8.69v6.07h10.17v3.65h-8.94Z" style="fill: #85202a;"/>
      </g>
      <rect x="493.56" y="160.02" width="106.3" height="113.67" transform="translate(763.57 -329.86) rotate(90)" style="fill: #fff;"/>
      <rect x="493.56" y="310.91" width="106.3" height="113.67" transform="translate(914.46 -178.97) rotate(90)" style="fill: #fff;"/>
      <g>
        <line x1="617.18" y1="162.89" x2="497.43" y2="162.89" style="fill: none; stroke: #c4b99c; stroke-miterlimit: 10;"/>
        <line x1="617.18" y1="156.08" x2="497.43" y2="156.08" style="fill: none; stroke: #c4b99c; stroke-miterlimit: 10;"/>
        <line x1="617.18" y1="149.26" x2="497.43" y2="149.26" style="fill: none; stroke: #c4b99c; stroke-miterlimit: 10;"/>
        <line x1="617.18" y1="283.82" x2="497.43" y2="283.82" style="fill: none; stroke: #c4b99c; stroke-miterlimit: 10;"/>
        <line x1="617.18" y1="277" x2="497.43" y2="277" style="fill: none; stroke: #c4b99c; stroke-miterlimit: 10;"/>
        <line x1="617.18" y1="270.19" x2="497.43" y2="270.19" style="fill: none; stroke: #c4b99c; stroke-miterlimit: 10;"/>
        <line x1="603.55" y1="260.38" x2="603.55" y2="171.66" style="fill: none; stroke: #7e292d; stroke-miterlimit: 10;"/>
        <line x1="610.37" y1="260.38" x2="610.37" y2="171.66" style="fill: none; stroke: #7e292d; stroke-miterlimit: 10;"/>
        <line x1="617.18" y1="260.38" x2="617.18" y2="171.66" style="fill: none; stroke: #7e292d; stroke-miterlimit: 10;"/>
        <line x1="476.25" y1="283.82" x2="476.25" y2="145.99" style="fill: none; stroke: #7e292d; stroke-miterlimit: 10;"/>
        <line x1="483.06" y1="283.82" x2="483.06" y2="145.99" style="fill: none; stroke: #7e292d; stroke-miterlimit: 10;"/>
        <line x1="489.88" y1="283.82" x2="489.88" y2="145.99" style="fill: none; stroke: #7e292d; stroke-miterlimit: 10;"/>
      </g>
      <g>
        <line x1="476.25" y1="314.62" x2="596" y2="314.62" style="fill: none; stroke: #7e292d; stroke-miterlimit: 10;"/>
        <line x1="476.25" y1="307.81" x2="596" y2="307.81" style="fill: none; stroke: #7e292d; stroke-miterlimit: 10;"/>
        <line x1="476.25" y1="300.99" x2="596" y2="300.99" style="fill: none; stroke: #7e292d; stroke-miterlimit: 10;"/>
        <line x1="476.25" y1="435.55" x2="596" y2="435.55" style="fill: none; stroke: #7e292d; stroke-miterlimit: 10;"/>
        <line x1="476.25" y1="428.73" x2="596" y2="428.73" style="fill: none; stroke: #7e292d; stroke-miterlimit: 10;"/>
        <line x1="476.25" y1="421.92" x2="596" y2="421.92" style="fill: none; stroke: #7e292d; stroke-miterlimit: 10;"/>
        <line x1="489.88" y1="412.11" x2="489.88" y2="323.39" style="fill: none; stroke: #c4b99c; stroke-miterlimit: 10;"/>
        <line x1="483.06" y1="412.11" x2="483.06" y2="323.39" style="fill: none; stroke: #c4b99c; stroke-miterlimit: 10;"/>
        <line x1="476.25" y1="412.11" x2="476.25" y2="323.39" style="fill: none; stroke: #c4b99c; stroke-miterlimit: 10;"/>
        <line x1="617.18" y1="435.55" x2="617.18" y2="297.72" style="fill: none; stroke: #c4b99c; stroke-miterlimit: 10;"/>
        <line x1="610.37" y1="435.55" x2="610.37" y2="297.72" style="fill: none; stroke: #c4b99c; stroke-miterlimit: 10;"/>
        <line x1="603.55" y1="435.55" x2="603.55" y2="297.72" style="fill: none; stroke: #c4b99c; stroke-miterlimit: 10;"/>
      </g>
      <g>
        <path d="M548,187.34c-.45,.6-.98,1.2-1.5,1.8,7.5,6.53,20.4,12.67,31.5,15.6-1.57,1.35-3.6,4.2-4.57,5.85-6.6-2.03-13.8-5.32-20.25-9.38v3.38h-20.4v-3.6c-3.6,2.32-7.5,4.42-11.47,6.22h42.9v23.77h-36.15v14.32l17.85-2.62c-.23,1.8-.23,4.5-.07,5.93-19.8,3.22-22.72,3.9-24.6,4.8-.52-1.42-2.02-3.97-3.07-5.1,1.27-.82,3.07-2.62,3.07-5.77v-35.25c-2.7,1.2-5.47,2.33-8.25,3.22-.98-1.65-2.7-4.12-4.35-5.62,12.9-3.9,26.25-11.25,33.07-20.55l6.3,3Zm-19.95,25.05v4.43h29.1v-4.43h-29.1Zm29.1,13.43v-4.35h-29.1v4.35h29.1Zm-6.3-26.1c-3.07-1.95-5.92-4.12-8.4-6.3-2.4,2.25-5.1,4.35-7.87,6.3h16.27Zm21.97,33.82c-3.9,2.92-8.62,5.77-12.97,8.1,4.5,2.55,8.62,5.17,11.55,7.27l-4.95,4.73c-6-4.65-18.3-12-27.82-16.88l4.57-3.97c3.38,1.57,7.2,3.6,11.02,5.62,4.73-2.62,10.05-6.15,13.42-9l5.17,4.12Z" style="fill: #85202a;"/>
        <path d="M575.6,342.14v6.67h-40.35c-2.55,5.32-5.47,10.42-8.92,15.07v36h-6.97v-27.9c-2.4,2.33-5.02,4.58-7.8,6.53-.75-1.88-2.32-4.88-3.45-6.53,8.25-5.62,14.62-14.02,19.27-23.17h-17.25v-6.67h20.25c1.58-3.68,2.7-7.35,3.67-11.03l7.27,1.8c-.98,3.07-2.02,6.15-3.23,9.22h37.5Zm-18.9,49.57h18.82v6.53h-44.77v-6.53h18.9v-19.35h-16.05v-6.45h16.05v-13.5h7.05v13.5h15.97v6.45h-15.97v19.35Z" style="fill: #85202a;"/>
      </g>
      <rect x="1089.8" y="160.02" width="106.3" height="113.67" transform="translate(1359.81 -926.1) rotate(90)" style="fill: #fff;"/>
      <rect x="1089.8" y="310.91" width="106.3" height="113.67" transform="translate(1510.7 -775.21) rotate(90)" style="fill: #fff;"/>
      <g>
        <line x1="1213.42" y1="162.89" x2="1093.67" y2="162.89" style="fill: none; stroke: #c4b99c; stroke-miterlimit: 10;"/>
        <line x1="1213.42" y1="156.08" x2="1093.67" y2="156.08" style="fill: none; stroke: #c4b99c; stroke-miterlimit: 10;"/>
        <line x1="1213.42" y1="149.26" x2="1093.67" y2="149.26" style="fill: none; stroke: #c4b99c; stroke-miterlimit: 10;"/>
        <line x1="1213.42" y1="283.82" x2="1093.67" y2="283.82" style="fill: none; stroke: #c4b99c; stroke-miterlimit: 10;"/>
        <line x1="1213.42" y1="277" x2="1093.67" y2="277" style="fill: none; stroke: #c4b99c; stroke-miterlimit: 10;"/>
        <line x1="1213.42" y1="270.19" x2="1093.67" y2="270.19" style="fill: none; stroke: #c4b99c; stroke-miterlimit: 10;"/>
        <line x1="1199.79" y1="260.38" x2="1199.79" y2="171.66" style="fill: none; stroke: #7e292d; stroke-miterlimit: 10;"/>
        <line x1="1206.61" y1="260.38" x2="1206.61" y2="171.66" style="fill: none; stroke: #7e292d; stroke-miterlimit: 10;"/>
        <line x1="1213.42" y1="260.38" x2="1213.42" y2="171.66" style="fill: none; stroke: #7e292d; stroke-miterlimit: 10;"/>
        <line x1="1072.49" y1="283.82" x2="1072.49" y2="145.99" style="fill: none; stroke: #7e292d; stroke-miterlimit: 10;"/>
        <line x1="1079.3" y1="283.82" x2="1079.3" y2="145.99" style="fill: none; stroke: #7e292d; stroke-miterlimit: 10;"/>
        <line x1="1086.12" y1="283.82" x2="1086.12" y2="145.99" style="fill: none; stroke: #7e292d; stroke-miterlimit: 10;"/>
      </g>
      <g>
        <line x1="1072.49" y1="314.62" x2="1192.24" y2="314.62" style="fill: none; stroke: #7e292d; stroke-miterlimit: 10;"/>
        <line x1="1072.49" y1="307.81" x2="1192.24" y2="307.81" style="fill: none; stroke: #7e292d; stroke-miterlimit: 10;"/>
        <line x1="1072.49" y1="300.99" x2="1192.24" y2="300.99" style="fill: none; stroke: #7e292d; stroke-miterlimit: 10;"/>
        <line x1="1072.49" y1="435.55" x2="1192.24" y2="435.55" style="fill: none; stroke: #7e292d; stroke-miterlimit: 10;"/>
        <line x1="1072.49" y1="428.73" x2="1192.24" y2="428.73" style="fill: none; stroke: #7e292d; stroke-miterlimit: 10;"/>
        <line x1="1072.49" y1="421.92" x2="1192.24" y2="421.92" style="fill: none; stroke: #7e292d; stroke-miterlimit: 10;"/>
        <line x1="1086.12" y1="412.11" x2="1086.12" y2="323.39" style="fill: none; stroke: #c4b99c; stroke-miterlimit: 10;"/>
        <line x1="1079.3" y1="412.11" x2="1079.3" y2="323.39" style="fill: none; stroke: #c4b99c; stroke-miterlimit: 10;"/>
        <line x1="1072.49" y1="412.11" x2="1072.49" y2="323.39" style="fill: none; stroke: #c4b99c; stroke-miterlimit: 10;"/>
        <line x1="1213.42" y1="435.55" x2="1213.42" y2="297.72" style="fill: none; stroke: #c4b99c; stroke-miterlimit: 10;"/>
        <line x1="1206.61" y1="435.55" x2="1206.61" y2="297.72" style="fill: none; stroke: #c4b99c; stroke-miterlimit: 10;"/>
        <line x1="1199.79" y1="435.55" x2="1199.79" y2="297.72" style="fill: none; stroke: #c4b99c; stroke-miterlimit: 10;"/>
      </g>
      <g>
        <path d="M1164.27,189.82v62.92h-7.42v-4.58h-35.32v4.88h-7.12v-63.22h49.87Zm-42.75,7.05v18.3h35.32v-18.3h-35.32Zm35.32,44.25v-19.05h-35.32v19.05h35.32Z" style="fill: #85202a;"/>
        <path d="M1170.64,342.22v16.72h-6.9v-10.72h-49.12v10.72h-6.67v-16.72h11.1c-1.2-2.33-3.23-5.55-5.1-7.88l6.3-2.47c2.33,2.47,4.73,6,5.92,8.4l-4.42,1.95h13.95v-11.03h7.2v11.03h13.42l-4.5-1.73c1.95-2.4,4.58-6.15,5.85-8.7l7.42,2.4c-2.33,2.92-4.8,5.92-6.9,8.03h12.45Zm-4.28,47.7c0,3.38-.75,5.25-3.3,6.3-2.62,.98-6.45,1.05-12.07,1.05-.38-1.88-1.42-4.57-2.33-6.38,3.98,.15,7.95,.15,9,.15,1.2-.07,1.5-.3,1.5-1.2v-9h-15.6v19.2h-7.2v-19.2h-16.57v15.82h-7.05v-22.12h23.62v-5.47h-16.8v-16.35h39.45v16.35h-15.45v5.47h22.8v15.38Zm-40.12-25.95h25.65v-6.15h-25.65v6.15Z" style="fill: #85202a;"/>
      </g>
      <g>
        <line x1="1130.56" y1="553" x2="1651.24" y2="553" style="fill: none; stroke: #958577; stroke-miterlimit: 10;"/>
        <line x1="1130.56" y1="568.92" x2="1651.24" y2="568.92" style="fill: none; stroke: #958577; stroke-miterlimit: 10; stroke-width: 4px;"/>
        <rect x="1650.8" y="554.81" width="14.11" height="14.11" style="fill: #958577;"/>
        <rect x="1116.14" y="554.81" width="14.11" height="14.11" style="fill: #958577;"/>
      </g>
      <g>
        <line x1="14.42" y1="553.01" x2="535.1" y2="553" style="fill: none; stroke: #958577; stroke-miterlimit: 10;"/>
        <line x1="14.42" y1="568.92" x2="535.1" y2="568.92" style="fill: none; stroke: #958577; stroke-miterlimit: 10; stroke-width: 4px;"/>
        <rect x="534.66" y="554.81" width="14.11" height="14.11" style="fill: #958577;"/>
        <rect x="0" y="554.81" width="14.11" height="14.11" style="fill: #958577;"/>
      </g>
      <g>
        <line x1="1650.49" y1="17.91" x2="1129.81" y2="17.91" style="fill: none; stroke: #958577; stroke-miterlimit: 10;"/>
        <line x1="1650.49" y1="2" x2="1129.81" y2="2" style="fill: none; stroke: #958577; stroke-miterlimit: 10; stroke-width: 4px;"/>
        <rect x="1116.14" y="2" width="14.11" height="14.11" style="fill: #958577;"/>
        <rect x="1650.8" y="2" width="14.11" height="14.11" style="fill: #958577;"/>
      </g>
      <g>
        <line x1="534.35" y1="17.91" x2="13.67" y2="17.91" style="fill: none; stroke: #958577; stroke-miterlimit: 10;"/>
        <line x1="534.35" y1="2" x2="13.67" y2="2" style="fill: none; stroke: #958577; stroke-miterlimit: 10; stroke-width: 4px;"/>
        <rect y="2" width="14.11" height="14.11" style="fill: #958577;"/>
        <rect x="534.66" y="2" width="14.11" height="14.11" style="fill: #958577;"/>
      </g>
      <line x1="7.06" y1="69.4" x2="7.06" y2="491.9" style="fill: none; stroke: #958577; stroke-miterlimit: 10; stroke-width: 2px;"/>
      <g>
        <line x1="416.76" y1="159.15" x2="339.66" y2="159.15" style="fill: none; stroke: #706359; stroke-miterlimit: 10; stroke-width: .5px;"/>
        <line x1="416.76" y1="155.49" x2="339.66" y2="155.49" style="fill: none; stroke: #706359; stroke-miterlimit: 10; stroke-width: .5px;"/>
        <line x1="416.76" y1="151.82" x2="339.66" y2="151.82" style="fill: none; stroke: #706359; stroke-miterlimit: 10; stroke-width: .5px;"/>
        <line x1="416.76" y1="439.37" x2="339.66" y2="439.37" style="fill: none; stroke: #706359; stroke-miterlimit: 10; stroke-width: .5px;"/>
        <line x1="416.76" y1="435.7" x2="339.66" y2="435.7" style="fill: none; stroke: #706359; stroke-miterlimit: 10; stroke-width: .5px;"/>
        <line x1="416.76" y1="432.04" x2="339.66" y2="432.04" style="fill: none; stroke: #706359; stroke-miterlimit: 10; stroke-width: .5px;"/>
        <line x1="407.99" y1="425.53" x2="407.99" y2="165.68" style="fill: none; stroke: #7e292d; stroke-miterlimit: 10; stroke-width: .5px;"/>
        <line x1="412.38" y1="425.53" x2="412.38" y2="165.68" style="fill: none; stroke: #7e292d; stroke-miterlimit: 10; stroke-width: .5px;"/>
        <line x1="416.76" y1="425.53" x2="416.76" y2="165.68" style="fill: none; stroke: #7e292d; stroke-miterlimit: 10; stroke-width: .5px;"/>
        <line x1="326.03" y1="439.37" x2="326.03" y2="150.06" style="fill: none; stroke: #7e292d; stroke-miterlimit: 10; stroke-width: .5px;"/>
        <line x1="330.42" y1="439.37" x2="330.42" y2="150.06" style="fill: none; stroke: #7e292d; stroke-miterlimit: 10; stroke-width: .5px;"/>
        <line x1="334.8" y1="439.37" x2="334.8" y2="150.06" style="fill: none; stroke: #7e292d; stroke-miterlimit: 10; stroke-width: .5px;"/>
      </g>
      <g>
        <path d="M385.78,247.2v34.4h-4.06v-2.5h-19.31v2.67h-3.9v-34.56h27.27Zm-23.37,3.85v10h19.31v-10h-19.31Zm19.31,24.19v-10.41h-19.31v10.41h19.31Z" style="fill: #85202a;"/>
        <path d="M363.96,356.34h-6.44v2.21h-2.99v-24.76h9.43v22.55Zm-6.44-19.31v16.07h3.53v-16.07h-3.53Zm33.01-4.35v7.05h-3.36v-4.22h-18.86v4.22h-3.2v-7.05h4.59c-.49-1.15-1.23-2.67-2.05-3.77l3.12-1.11c.98,1.35,1.97,3.12,2.38,4.3l-1.44,.57h4.18v-5.29h3.73v5.29h4.1l-1.23-.45c.74-1.27,1.72-3.16,2.17-4.47l3.73,1.11c-1.02,1.39-1.97,2.79-2.79,3.81h4.92Zm-6.93,15.46c1.52,0,4.14-.12,5.12-.33,.12,.94,.2,1.85,.37,2.54-.94,.21-3.16,.29-5.12,.29h-11.56c-3.85,0-4.88-1.23-4.88-4.06v-3.65h3.2v1.48h16.93v2.17h-16.93v.04c0,1.11,.29,1.52,1.93,1.52h10.95Zm-15.33,3.85h19.15v12.87h-3.4v-1.19h-12.46v1.31h-3.28v-13Zm16.65-9.1h-14.51v-6.31h14.51v6.31Zm-13.37,11.56v2.25h12.46v-2.25h-12.46Zm12.46,6.85v-2.38h-12.46v2.38h12.46Zm-2.13-22.59h-8.57v2.13h8.57v-2.13Z" style="fill: #85202a;"/>
      </g>
      <rect x="2.51" y="39.94" width="9.09" height="9.09" transform="translate(-29.39 18.02) rotate(-45)" style="fill: #958577;"/>
      <rect x="2.51" y="514.57" width="9.09" height="9.09" transform="translate(-365.01 157.04) rotate(-45)" style="fill: #958577;"/>
      <line x1="1657.85" y1="69.4" x2="1657.85" y2="491.9" style="fill: none; stroke: #958577; stroke-miterlimit: 10; stroke-width: 2px;"/>
      <rect x="1653.31" y="39.94" width="9.09" height="9.09" transform="translate(454.12 1185.31) rotate(-45)" style="fill: #958577;"/>
      <rect x="1653.31" y="514.57" width="9.09" height="9.09" transform="translate(118.5 1324.32) rotate(-45)" style="fill: #958577;"/>
      <g>
        <g style="clip-path: url(#d);">
          <line x1="1330.35" y1="478.12" x2="1330.35" y2="429.53" style="fill: none; stroke: #958577; stroke-miterlimit: 10; stroke-width: 1.49px;"/>
          <line x1="1306.06" y1="453.82" x2="1354.64" y2="453.82" style="fill: none; stroke: #958577; stroke-miterlimit: 10; stroke-width: 1.49px;"/>
          <line x1="1347.53" y1="471" x2="1313.17" y2="436.65" style="fill: none; stroke: #958577; stroke-miterlimit: 10; stroke-width: 1.49px;"/>
          <line x1="1313.17" y1="471" x2="1347.53" y2="436.65" style="fill: none; stroke: #958577; stroke-miterlimit: 10; stroke-width: 1.49px;"/>
          <line x1="1352.97" y1="462.68" x2="1307.73" y2="444.97" style="fill: none; stroke: #958577; stroke-miterlimit: 10; stroke-width: 1.49px;"/>
          <line x1="1321.49" y1="476.44" x2="1339.21" y2="431.21" style="fill: none; stroke: #958577; stroke-miterlimit: 10; stroke-width: 1.49px;"/>
          <line x1="1307.73" y1="462.68" x2="1352.97" y2="444.97" style="fill: none; stroke: #958577; stroke-miterlimit: 10; stroke-width: 1.49px;"/>
          <line x1="1339.21" y1="476.44" x2="1321.49" y2="431.21" style="fill: none; stroke: #958577; stroke-miterlimit: 10; stroke-width: 1.49px;"/>
        </g>
        <line x1="1354.64" y1="453.82" x2="1306.06" y2="453.82" style="fill: none; stroke: #958577; stroke-miterlimit: 10; stroke-width: 1.49px;"/>
      </g>
      <g>
        <g style="clip-path: url(#e);">
          <line x1="1329.6" y1="115.73" x2="1329.6" y2="164.31" style="fill: none; stroke: #958577; stroke-miterlimit: 10; stroke-width: 1.49px;"/>
          <line x1="1353.89" y1="140.02" x2="1305.31" y2="140.02" style="fill: none; stroke: #958577; stroke-miterlimit: 10; stroke-width: 1.49px;"/>
          <line x1="1312.42" y1="122.84" x2="1346.78" y2="157.2" style="fill: none; stroke: #958577; stroke-miterlimit: 10; stroke-width: 1.49px;"/>
          <line x1="1346.78" y1="122.84" x2="1312.42" y2="157.2" style="fill: none; stroke: #958577; stroke-miterlimit: 10; stroke-width: 1.49px;"/>
          <line x1="1306.98" y1="131.16" x2="1352.22" y2="148.88" style="fill: none; stroke: #958577; stroke-miterlimit: 10; stroke-width: 1.49px;"/>
          <line x1="1338.46" y1="117.4" x2="1320.74" y2="162.64" style="fill: none; stroke: #958577; stroke-miterlimit: 10; stroke-width: 1.49px;"/>
          <line x1="1352.22" y1="131.16" x2="1306.98" y2="148.88" style="fill: none; stroke: #958577; stroke-miterlimit: 10; stroke-width: 1.49px;"/>
          <line x1="1320.74" y1="117.4" x2="1338.46" y2="162.64" style="fill: none; stroke: #958577; stroke-miterlimit: 10; stroke-width: 1.49px;"/>
        </g>
        <line x1="1305.31" y1="140.02" x2="1353.89" y2="140.02" style="fill: none; stroke: #958577; stroke-miterlimit: 10; stroke-width: 1.49px;"/>
      </g>
      <g>
        <g style="clip-path: url(#f);">
          <line x1="373.77" y1="478.12" x2="373.77" y2="429.53" style="fill: none; stroke: #958577; stroke-miterlimit: 10; stroke-width: 1.49px;"/>
          <line x1="349.48" y1="453.82" x2="398.06" y2="453.82" style="fill: none; stroke: #958577; stroke-miterlimit: 10; stroke-width: 1.49px;"/>
          <line x1="390.95" y1="471" x2="356.59" y2="436.65" style="fill: none; stroke: #958577; stroke-miterlimit: 10; stroke-width: 1.49px;"/>
          <line x1="356.59" y1="471" x2="390.95" y2="436.65" style="fill: none; stroke: #958577; stroke-miterlimit: 10; stroke-width: 1.49px;"/>
          <line x1="396.39" y1="462.68" x2="351.15" y2="444.97" style="fill: none; stroke: #958577; stroke-miterlimit: 10; stroke-width: 1.49px;"/>
          <line x1="364.91" y1="476.44" x2="382.63" y2="431.21" style="fill: none; stroke: #958577; stroke-miterlimit: 10; stroke-width: 1.49px;"/>
          <line x1="351.15" y1="462.68" x2="396.39" y2="444.97" style="fill: none; stroke: #958577; stroke-miterlimit: 10; stroke-width: 1.49px;"/>
          <line x1="382.63" y1="476.44" x2="364.91" y2="431.21" style="fill: none; stroke: #958577; stroke-miterlimit: 10; stroke-width: 1.49px;"/>
        </g>
        <line x1="398.06" y1="453.82" x2="349.48" y2="453.82" style="fill: none; stroke: #958577; stroke-miterlimit: 10; stroke-width: 1.49px;"/>
      </g>
      <g>
        <g style="clip-path: url(#g);">
          <line x1="373.02" y1="115.73" x2="373.02" y2="164.31" style="fill: none; stroke: #958577; stroke-miterlimit: 10; stroke-width: 1.49px;"/>
          <line x1="397.31" y1="140.02" x2="348.73" y2="140.02" style="fill: none; stroke: #958577; stroke-miterlimit: 10; stroke-width: 1.49px;"/>
          <line x1="355.84" y1="122.84" x2="390.2" y2="157.2" style="fill: none; stroke: #958577; stroke-miterlimit: 10; stroke-width: 1.49px;"/>
          <line x1="390.2" y1="122.84" x2="355.84" y2="157.2" style="fill: none; stroke: #958577; stroke-miterlimit: 10; stroke-width: 1.49px;"/>
          <line x1="350.4" y1="131.16" x2="395.64" y2="148.88" style="fill: none; stroke: #958577; stroke-miterlimit: 10; stroke-width: 1.49px;"/>
          <line x1="381.88" y1="117.4" x2="364.16" y2="162.64" style="fill: none; stroke: #958577; stroke-miterlimit: 10; stroke-width: 1.49px;"/>
          <line x1="395.64" y1="131.16" x2="350.4" y2="148.88" style="fill: none; stroke: #958577; stroke-miterlimit: 10; stroke-width: 1.49px;"/>
          <line x1="364.16" y1="117.4" x2="381.88" y2="162.64" style="fill: none; stroke: #958577; stroke-miterlimit: 10; stroke-width: 1.49px;"/>
        </g>
        <line x1="348.73" y1="140.02" x2="397.31" y2="140.02" style="fill: none; stroke: #958577; stroke-miterlimit: 10; stroke-width: 1.49px;"/>
      </g>
    </g>
  </g>
</svg>