<?xml version="1.0" encoding="UTF-8"?>
<svg id="b" data-name="圖層 2" xmlns="http://www.w3.org/2000/svg" width="476.05" height="122.55" viewBox="0 0 476.05 122.55">
  <g id="c" data-name="圖層 1">
    <g>
      <path d="M.95,117.25c1.23-1.18,3.17-1.14,4.35,.09s1.14,3.17-.09,4.35c-1.23,1.18-3.17,1.14-4.35-.09s-1.14-3.17,.09-4.35Z" style="fill: #7e292d;"/>
      <path d="M26.06,79.56l-.41-.52,2.16-1.7c-1.8-9.15-.93-17.31,5.36-24.7l-.07-.09c-3.76,2.96-7.66,5.74-11.43,8.69-8.18,6.42-20.76,18.89-14.99,26.24,2.65,3.37,7.8,1.57,10.74-.74,6.01-4.72,7.88-11.16,3.57-16.65-.48-.61-.71-.91-.99-1.18l.52-.41c.34,.43,.72,.83,1.03,1.22,4.62,5.88,3.15,14.52-2.69,19.11-3.55,2.79-9.13,3.6-12.25-.38-2.58-3.29-2.36-6.75-1.28-10.18,3.2-10.35,11.75-18.25,19.76-24.53,4.76-3.74,10.88-7.7,13.37-9.52,1.59-1.18,2.5-1.27,3.42-.1,.75,.95,.18,2.45-2.29,4.39-1.77,1.39-3.72,2.57-5.53,4-5.32,4.18-2.91,15.71-1.87,21.4,2.03-1.87,5.22-4.03,4.2-7.21,1.46-1.35,3.02-2.65,4.58-3.88-1.61,5.88-3.12,12.24-1.41,18.24l-.35,.27c-1.3-3.53-2.11-7.23-2.42-10.83-.96,1.1-3.28,3.13-4.41,4.09,1.24,11.2,2.07,21.87-8.01,29.79-3.46,2.72-10.04,5.29-13.4,1.01-1.26-1.6-1.33-3.92,.23-5.14,1.25-.99,2.86-.99,3.88,.31,.68,.87,.91,2.22-.11,3.16,2.75,3.15,6.14,2.38,9.08,.07,7.74-6.08,4.84-17.44,3.92-25.73l-1.9,1.5Z" style="fill: #7e292d;"/>
      <path d="M74.76,51.89c-.29,2.37-1.04,5.03-3.11,6.29-1.45,.89-2.84,.84-4.42,.26,2.37,7.13-.17,15.91-6.69,19.91-3.42,2.1-6.97,1.37-9.07-2.05-4.08-6.66-.1-17.1,6.13-20.92,3.33-2.04,6.64-1.17,8.61,1.1,1.48,1.67,3.35,2.2,5.09,1.14,1.69-1.04,2.49-2.88,2.94-5.93l.51,.2Zm-13.45,5.42c-.95-1.55-2.18-2.08-3.59-1.22-4.73,2.91-3.2,16.35-.78,20.29,.95,1.55,2.18,2.08,3.59,1.22,4.73-2.91,3.2-16.35,.78-20.29Z" style="fill: #7e292d;"/>
      <path d="M103.98,37.78c-.5,2.33-1.5,4.91-3.67,5.99-1.53,.76-2.91,.58-4.43-.14,1.71,7.31-1.62,15.83-8.47,19.22-3.6,1.78-7.06,.73-8.84-2.87-3.46-7,1.45-17.04,8.01-20.28,3.5-1.73,6.72-.56,8.48,1.88,1.32,1.8,3.14,2.5,4.96,1.6,1.77-.88,2.74-2.64,3.47-5.64l.49,.25Zm-13.89,4.17c-.8-1.63-1.98-2.27-3.46-1.54-4.98,2.46-4.67,15.99-2.62,20.13,.8,1.63,1.98,2.27,3.46,1.54,4.98-2.46,4.67-15.99,2.62-20.13Z" style="fill: #7e292d;"/>
      <path d="M126.5,4.1l5.64-2.51c-2.52,13.74-8.97,38.33-7.45,42.29,.27,.72,.83,1.1,1.55,.82,1.44-.55,3.53-2.94,5.4-7.3,1.54-3.53,2.73-7.05,4.07-11.68l.61,.06c-.72,2.57-2.22,7.44-3.77,11.09-1.99,4.65-4.01,8.01-7.4,9.3-3.13,1.2-4.84-.8-5.17-2.74l-.14-.06c-1.26,3.01-3.08,5.65-6.37,6.91s-5.43-.81-6.49-3.58c-2.63-6.88,2.46-17.13,9.14-19.68,2.31-.88,4.3-.29,5.88,1.52l4.5-24.44Zm-6.17,25.31c-.77-2-2.23-2.45-3.82-1.84-4.26,1.63-6.41,12.51-4.46,17.6,.63,1.64,1.88,2.93,3.73,2.22,4.42-1.69,6.32-13.36,4.55-17.99Z" style="fill: #7e292d;"/>
      <path d="M167.59,12.68c-4.22,12.12-6.15,16.92-5.64,19.12,.2,.86,.66,1.37,1.3,1.22,1.39-.33,3.67-2.44,6.65-7.32,2.41-3.95,4.58-8.19,5.51-9.99l.56,.21c-1.24,2.66-3.77,7.32-5.9,10.76-3.16,5.09-5.6,7.19-8.12,7.78-2.36,.55-4.03-.58-4.51-2.62-.65-2.79,.68-6.03,4.69-17.6l5.45-1.56Zm3.48-10.7c.34,1.45-.67,3.15-2.12,3.49-1.55,.36-3.08-.13-3.47-1.79-.39-1.66,.82-3.24,2.43-3.62,1.34-.31,2.85,.58,3.16,1.92Z" style="fill: #7e292d;"/>
      <path d="M182.27,19.87c1.65-2.93,6.36-11.92,12.01-12.81,2.39-.38,3.88,.95,4.19,2.9,.77,4.89-5.83,11.78-5.2,15.8,.14,.87,.67,1.4,1.64,1.24,1.03-.16,3.12-1.77,6.42-6.63,2.57-3.8,4.84-7.78,5.9-9.56l.59,.19c-1.55,2.53-3.86,6.62-6.44,10.37-3.18,4.57-5.22,6.45-8.05,6.89-2.77,.44-4.3-1.16-4.61-3.12-.77-4.89,5.8-11.94,5.27-15.31-.12-.76-.76-1.27-1.74-1.12-4.29,.68-11.95,15.36-13.82,21.17l-5.46,1.03c2.8-6.96,5.78-13.83,8.51-20.94l6.16-1.19-5.51,11,.13,.09Z" style="fill: #7e292d;"/>
      <path d="M256.71,9.29c-2.21,3.06-4.63,6.13-8.15,9.43-4.99,4.65-9.69,6.15-13.76,6.22-4.18,.07-6.81-2.64-6.87-6.6-.11-7.04,9.28-14.56,16.16-14.67,3.13-.05,5.03,1.18,5.06,3.38,.09,5.33-11.87,7.84-15.7,8.72-.15,.66-.25,1.32-.24,1.98,.05,3.13,1.96,5.3,5.09,5.25,3.08-.05,6.9-2.04,10.58-5.56,2.82-2.74,5.51-5.97,7.45-8.54l.39,.38Zm-13.5-4.95c-3.68,.06-8.79,7.18-9.67,10.88,5.97-1.31,11.24-5.9,11.18-9.48-.02-.99-.63-1.42-1.51-1.41Z" style="fill: #7e292d;"/>
      <path d="M269.72,5.25c-2.79,3.61-10.36,11.85-10.67,16.29-.11,1.59,.49,2.51,2.3,2.64,5.54,.39,12.25-8.8,12.76-14.66-.23-.62-.34-1.4-.29-2.17,.08-1.21,1.1-2.4,2.7-2.29,1.81,.13,2.74,1.79,2.41,4.96-.06,.93-.24,1.91-.4,2.56,1.4,1.31,2.69,1.79,4.22,1.89,2.52,.17,4.39-1.35,5.72-2.91l.42,.3c-1.41,2.05-3.82,3.43-6.29,3.26-1.54-.11-3.03-.82-4.28-1.84-2.24,6.79-9.66,12.07-17.12,11.55-3.57-.25-6.21-1.87-5.94-5.82,.26-3.73,3.13-6.95,8.47-13.97l6,.2Z" style="fill: #7e292d;"/>
      <path d="M316.95,16.51c-2.69,2.64-5.6,5.25-9.64,7.91-5.7,3.73-10.6,4.42-14.62,3.79-4.13-.64-6.26-3.76-5.65-7.67,1.08-6.96,11.62-12.78,18.41-11.72,3.1,.48,4.75,2.02,4.41,4.19-.82,5.27-13.02,5.71-16.96,5.94-.26,.63-.47,1.26-.58,1.91-.48,3.1,1.03,5.56,4.13,6.04,3.04,.47,7.14-.84,11.37-3.69,3.24-2.22,6.45-4.95,8.79-7.15l.32,.44Zm-12.47-7.17c-3.64-.57-9.89,5.59-11.38,9.08,6.11-.27,12.08-3.91,12.62-7.44,.15-.98-.38-1.51-1.25-1.64Z" style="fill: #7e292d;"/>
      <path d="M308.62,29.65c5.12-5.4,10.39-10.71,15.59-16.21l6.15,1.23-9.42,8.28,.08,.13c6.92-5.37,10.31-5.81,11.63-6.63,1.92-1.19,2.87-1.13,6.91-.29-1.79,1.61-3.68,3.37-4.25,5.78-.38,1.61,.21,2.48,1.76,2.85,2.03,.48,4.3-.96,5.9-2l.15,.32c-2.56,1.99-5.76,3.1-8.98,2.34-2.84-.67-4.24-2.64-3.55-5.53,.21-.91,.76-1.8,1.42-2.43l-.08-.13c-7,2.58-13.33,8.32-17.87,13.41l-5.44-1.12Z" style="fill: #7e292d;"/>
      <path d="M327.55,37.8c-.24-.14-.56-.24-.92-.36-2.98-.98-5.51,.91-6.54,4.05-1.2,3.66,.62,6.75,3.97,7.84,10.66,3.5,22.2-9.1,29.37-15.26l-.07-.14c-2.84,1.79-9.05,5.37-13.44,3.93-2.3-.75-2.73-2.63-2.14-4.41,1.13-3.45,7.23-7.76,13.05-12.97l5.61,1.61c-8.78,7.19-13.98,11.22-14.7,13.41-.27,.84,.11,1.6,.9,1.86,2.51,.82,10.06-2.95,15.68-7.76,2.34-2.01,4.36-3.78,5.32-4.91l5.19,1.47c-5.87,5.19-11.41,10.61-17.3,15.69,7.31,.31,16.24-4.51,22.27-8.96l.3,.5c-6.97,5.36-16.01,9.45-23.26,8.98-7.81,6.87-17.46,10.71-27.44,7.44-5.02-1.64-9.26-4.95-7.56-10.12,1.35-4.13,5.73-4.6,9.6-3.33,.84,.27,1.74,.69,2.28,.98l-.15,.47Z" style="fill: #7e292d;"/>
      <path d="M413.73,25.22l5.78,2.16c-11.43,8.04-33.26,21.08-34.95,24.96-.31,.71-.17,1.36,.53,1.67,1.41,.62,4.58,.38,8.96-1.43,3.57-1.44,6.88-3.12,11.09-5.48l.39,.47c-2.32,1.33-6.8,3.75-10.46,5.28-4.68,1.92-8.47,2.91-11.8,1.46-3.08-1.34-2.89-3.96-1.77-5.57l-.06-.15c-3.01,1.27-6.16,1.88-9.38,.47s-3.31-4.38-2.12-7.11c2.95-6.76,13.76-10.5,20.31-7.64,2.27,.99,3.28,2.81,3.13,5.21l20.33-14.29Zm-22.14,13.75c.86-1.97,.12-3.31-1.44-3.99-4.18-1.83-13.34,4.44-15.52,9.43-.7,1.61-.71,3.41,1.11,4.2,4.34,1.89,13.87-5.11,15.85-9.65Z" style="fill: #7e292d;"/>
      <path d="M426.37,54l5.16,2.5c-3.68,2.42-15.24,7.12-17.14,10.54-.48,.87-.19,1.47,.53,1.87,1.54,.86,5.47,.47,9.99-.86,3.77-1.11,8.53-2.99,10.54-3.89l.23,.38c-2.91,1.27-6.58,2.88-11.32,4.27-4.74,1.39-8.97,1.87-11.9,.23-2.02-1.12-2.55-3-1.69-4.53,.27-.48,.61-.98,.89-1.14l-.1-.05c-3.2,1.11-6.79,1.45-9.62-.13-3.12-1.74-2.86-4.93-1.36-7.62,3.48-6.25,15-8.96,20.96-5.64,2.21,1.23,2.88,2.86,2.57,5.33l2.27-1.25Zm-20.79,9.07c4.24,1.99,14.88-4.68,16.89-8.28,.96-1.73,1-3.03-.83-4.05-4.42-2.46-14.37,3.64-16.54,7.54-1.02,1.83-1.5,3.7,.48,4.8Z" style="fill: #7e292d;"/>
      <path d="M416.31,74.37c-.2-.2-.47-.39-.79-.61-2.58-1.78-5.54-.67-7.41,2.05-2.18,3.17-1.3,6.65,1.6,8.64,9.25,6.36,23.87-2.48,32.48-6.38l-.03-.15c-3.23,.92-10.2,2.6-14.01-.02-1.99-1.37-1.88-3.29-.82-4.83,2.06-2.99,9.12-5.41,16.18-8.77l4.93,3.12c-10.45,4.43-16.58,6.83-17.88,8.73-.5,.73-.34,1.57,.34,2.03,2.18,1.5,10.48,0,17.24-3.04,2.81-1.27,5.25-2.4,6.48-3.22l4.57,2.87c-7.1,3.33-13.94,6.97-21.02,10.19,6.92,2.36,16.86,.24,23.9-2.33l.14,.57c-8.19,3.18-18.02,4.57-24.85,2.07-9.43,4.4-19.77,5.37-28.43-.59-4.35-2.99-7.5-7.35-4.41-11.84,2.46-3.58,6.8-2.8,10.15-.5,.73,.5,1.48,1.15,1.92,1.58l-.28,.41Z" style="fill: #7e292d;"/>
      <path d="M475.03,105.56c1.27,1.14,1.37,3.08,.22,4.35s-3.08,1.37-4.35,.22c-1.27-1.14-1.37-3.08-.22-4.35s3.08-1.37,4.35-.22Z" style="fill: #7e292d;"/>
    </g>
  </g>
</svg>