<?xml version="1.0" encoding="UTF-8"?>
<svg id="b" data-name="圖層 2" xmlns="http://www.w3.org/2000/svg" width="327.95" height="131.8" xmlns:xlink="http://www.w3.org/1999/xlink" viewBox="0 0 327.95 131.8">
  <defs>
    <clipPath id="d">
      <rect x="5.88" y="86.4" width="12.53" height="6.68" transform="translate(24.3 179.47) rotate(180)" style="fill: none;"/>
    </clipPath>
    <clipPath id="e">
      <rect x="5.88" width="12.53" height="6.68" style="fill: none;"/>
    </clipPath>
    <clipPath id="f">
      <rect x="310.56" y="86.4" width="12.53" height="6.68" transform="translate(633.64 179.47) rotate(180)" style="fill: none;"/>
    </clipPath>
    <clipPath id="g">
      <rect x="310.56" width="12.53" height="6.68" style="fill: none;"/>
    </clipPath>
  </defs>
  <g id="c" data-name="圖層 2">
    <g>
      <path d="M114.61,127.53c2.58-.57,4.33-2.81,5.95-4.94l.15,.11c-2.01,2.66-3.93,5.19-7.62,5.19-1.31,0-2.72-.49-2.72-2.03,0-.8,.47-1.73,1.37-1.73,.59,0,.91,.4,.91,.82,0,.53-.36,.82-.76,.82-.15,0-.28-.02-.42-.1-.13,.23-.23,.49-.23,.78,0,.7,.63,1.22,1.37,1.22,.93,0,1.94-.65,1.94-1.63,0-.67-.38-1.2-.76-1.69-.38-.51-.76-1.01-.76-1.6,0-1.42,1.44-2.15,2.79-2.15,1.22,0,2.15,.55,2.15,1.5,0,.72-.55,1.25-1.27,1.25-.23,0-.44-.06-.55-.09,.27-.49,.38-1.01,.38-1.48,0-.51-.28-.95-.87-.95-.7,0-1.1,.49-1.1,1.16,0,.7,.38,1.22,.76,1.73,.38,.49,.76,1.03,.76,1.79,0,.99-.72,1.82-1.46,2v.04Z" style="fill: #88202a;"/>
      <path d="M125.06,120.9c-2.37,3.74-3.4,5.21-3.4,5.98,0,.3,.11,.51,.34,.51,.49,0,1.42-.53,2.81-1.94,1.12-1.14,2.19-2.39,2.64-2.93l.17,.11c-.63,.8-1.84,2.17-2.83,3.15-1.46,1.46-2.45,1.98-3.34,1.98-.84,0-1.31-.51-1.31-1.24,0-.99,.7-1.98,2.96-5.55l1.96-.09Zm2.01-3.33c0,.51-.47,1.01-.99,1.01-.55,0-1.03-.29-1.03-.87s.53-1.03,1.1-1.03c.47,0,.91,.42,.91,.89Z" style="fill: #88202a;"/>
      <path d="M129.43,124.32c.72-.91,2.81-3.72,4.79-3.72,.84,0,1.27,.53,1.27,1.22,0,1.71-2.62,3.71-2.62,5.11,0,.3,.15,.51,.49,.51,.36,0,1.16-.44,2.55-1.92,1.08-1.16,2.07-2.39,2.53-2.95l.19,.1c-.67,.78-1.67,2.05-2.75,3.19-1.33,1.39-2.13,1.92-3.12,1.92s-1.41-.63-1.41-1.31c0-1.71,2.62-3.76,2.62-4.94,0-.27-.19-.47-.53-.47-1.5,0-4.9,4.6-5.85,6.48l-1.92,.06c1.33-2.22,2.72-4.41,4.03-6.69l2.17-.08-2.47,3.46,.04,.04Z" style="fill: #88202a;"/>
      <path d="M148.28,122.68c-1.86,2.3-4.37,5.21-7.56,5.21-1.52,0-2.36-.85-2.36-2.43,0-2.43,3.17-4.86,5.7-4.86,1.16,0,1.9,.53,1.9,1.22,0,.99-.82,1.56-1.6,1.56-.19,0-.34-.02-.44-.04,.17-.59,.44-1.2,.44-1.81,0-.44-.23-.7-.57-.7-1.33,0-3.61,2.28-3.61,4.69,0,.97,.63,1.73,1.65,1.73,2.49,0,5.02-3.13,6.27-4.64l.17,.08Z" style="fill: #88202a;"/>
      <path d="M157.91,122.61c-.78,1.04-1.63,2.09-2.87,3.21-1.75,1.58-3.38,2.07-4.79,2.07s-2.34-.95-2.34-2.32c0-2.43,3.29-4.98,5.66-4.98,1.08,0,1.73,.44,1.73,1.2,0,1.84-4.14,2.64-5.47,2.93-.06,.23-.1,.46-.1,.68,0,1.08,.65,1.84,1.73,1.84s2.39-.67,3.69-1.86c.99-.93,1.94-2.03,2.62-2.91l.13,.13Zm-4.64-1.79c-1.27,0-3.08,2.43-3.4,3.7,2.07-.42,3.91-1.98,3.91-3.21,0-.34-.21-.49-.51-.49Z" style="fill: #88202a;"/>
      <path d="M165.55,121.01c2.89-.65,5.57-1.99,7.9-3.69l.13,.11c-2.05,3.23-4.35,6.8-6.14,9.88l1.8-.1-.08,.13c-1.31,.11-2.62,.19-3.93,.23l5.3-8.19-.04-.04c-1.52,.78-3.19,1.39-4.9,1.82l-.06-.17Z" style="fill: #88202a;"/>
      <path d="M181.55,123.43c-.76,1.08-1.79,1.98-3.27,1.98-1.39,0-2.18-1.03-2.18-2.34,0-2.45,2.83-5.74,5.28-5.74,1.54,0,2.6,.91,2.6,2.85,0,5.62-7.14,11.63-12.16,11.63-2.17,0-3.82-.65-3.82-2.41,0-.57,.34-1.12,1.08-1.27,.29,2.01,1.29,3.46,3.12,3.46,3.82,0,7.88-5.28,9.38-8.11l-.04-.04Zm-2.56,1.52c2.07,0,3.67-3.44,3.67-5.45,0-1.44-.53-1.94-1.22-1.94-2.41,0-3.74,3.65-3.74,5.6,0,.82,.29,1.79,1.29,1.79Z" style="fill: #88202a;"/>
      <path d="M193.65,123.43c-.76,1.08-1.79,1.98-3.27,1.98-1.39,0-2.18-1.03-2.18-2.34,0-2.45,2.83-5.74,5.28-5.74,1.54,0,2.6,.91,2.6,2.85,0,5.62-7.14,11.63-12.16,11.63-2.17,0-3.82-.65-3.82-2.41,0-.57,.34-1.12,1.08-1.27,.29,2.01,1.29,3.46,3.12,3.46,3.82,0,7.88-5.28,9.38-8.11l-.04-.04Zm-2.56,1.52c2.07,0,3.67-3.44,3.67-5.45,0-1.44-.53-1.94-1.22-1.94-2.41,0-3.74,3.65-3.74,5.6,0,.82,.29,1.79,1.29,1.79Z" style="fill: #88202a;"/>
      <path d="M207.86,124.2c-.95,1.71-2.15,3.61-4.37,3.61-.76,0-1.48-.32-2.17-.65-.7-.3-1.35-.63-1.99-.63-.55,0-.84,.32-1.04,.63-.23,.32-.38,.65-.72,.65-.13,0-.19-.11-.19-.23,0-.82,5.96-3.44,6.86-3.91,1.37-.72,2.58-1.94,2.58-3.67,0-1.39-.99-2.34-2.13-2.34s-1.98,.99-1.98,2.01c0,.82,.38,1.46,1.22,1.46,.25,0,.55-.09,.76-.25-.28,.93-.84,1.35-1.73,1.35s-1.58-.59-1.58-1.71c0-1.42,1.46-3.21,4.14-3.21,1.5,0,3.12,.84,3.12,2.64,0,3.46-4.92,4.2-7.28,5.34-.59,.28-1.2,.55-1.69,.84l.04,.04c.55-.21,1.08-.3,1.67-.3,1.42,0,2.56,.72,3.61,.72,1.29,0,2.22-1.5,2.77-2.49l.09,.09Z" style="fill: #88202a;"/>
    </g>
    <rect x="42.67" y="11.77" width="27" height="28.87" transform="translate(82.37 -29.97) rotate(90)" style="fill: #fff;"/>
    <rect x="42.67" y="50.09" width="27" height="28.87" transform="translate(120.7 8.36) rotate(90)" style="fill: #fff;"/>
    <g>
      <line x1="74.07" y1="12.49" x2="43.65" y2="12.49" style="fill: none; stroke: #c5b897; stroke-miterlimit: 10; stroke-width: .23px;"/>
      <line x1="74.07" y1="10.76" x2="43.65" y2="10.76" style="fill: none; stroke: #c5b897; stroke-miterlimit: 10; stroke-width: .23px;"/>
      <line x1="74.07" y1="9.03" x2="43.65" y2="9.03" style="fill: none; stroke: #c5b897; stroke-miterlimit: 10; stroke-width: .23px;"/>
      <line x1="74.07" y1="43.21" x2="43.65" y2="43.21" style="fill: none; stroke: #c5b897; stroke-miterlimit: 10; stroke-width: .23px;"/>
      <line x1="74.07" y1="41.48" x2="43.65" y2="41.48" style="fill: none; stroke: #c5b897; stroke-miterlimit: 10; stroke-width: .23px;"/>
      <line x1="74.07" y1="39.75" x2="43.65" y2="39.75" style="fill: none; stroke: #c5b897; stroke-miterlimit: 10; stroke-width: .23px;"/>
      <line x1="70.61" y1="37.26" x2="70.61" y2="14.72" style="fill: none; stroke: #88202a; stroke-miterlimit: 10; stroke-width: .23px;"/>
      <line x1="72.34" y1="37.26" x2="72.34" y2="14.72" style="fill: none; stroke: #88202a; stroke-miterlimit: 10; stroke-width: .23px;"/>
      <line x1="74.07" y1="37.26" x2="74.07" y2="14.72" style="fill: none; stroke: #88202a; stroke-miterlimit: 10; stroke-width: .23px;"/>
      <line x1="38.27" y1="43.21" x2="38.27" y2="8.2" style="fill: none; stroke: #88202a; stroke-miterlimit: 10; stroke-width: .23px;"/>
      <line x1="40" y1="43.21" x2="40" y2="8.2" style="fill: none; stroke: #88202a; stroke-miterlimit: 10; stroke-width: .23px;"/>
      <line x1="41.74" y1="43.21" x2="41.74" y2="8.2" style="fill: none; stroke: #88202a; stroke-miterlimit: 10; stroke-width: .23px;"/>
    </g>
    <g>
      <line x1="38.27" y1="51.04" x2="68.69" y2="51.04" style="fill: none; stroke: #88202a; stroke-miterlimit: 10; stroke-width: .23px;"/>
      <line x1="38.27" y1="49.31" x2="68.69" y2="49.31" style="fill: none; stroke: #88202a; stroke-miterlimit: 10; stroke-width: .23px;"/>
      <line x1="38.27" y1="47.57" x2="68.69" y2="47.57" style="fill: none; stroke: #88202a; stroke-miterlimit: 10; stroke-width: .23px;"/>
      <line x1="38.27" y1="81.75" x2="68.69" y2="81.75" style="fill: none; stroke: #88202a; stroke-miterlimit: 10; stroke-width: .23px;"/>
      <line x1="38.27" y1="80.02" x2="68.69" y2="80.02" style="fill: none; stroke: #88202a; stroke-miterlimit: 10; stroke-width: .23px;"/>
      <line x1="38.27" y1="78.29" x2="68.69" y2="78.29" style="fill: none; stroke: #88202a; stroke-miterlimit: 10; stroke-width: .23px;"/>
      <line x1="41.74" y1="75.8" x2="41.74" y2="53.26" style="fill: none; stroke: #c5b897; stroke-miterlimit: 10; stroke-width: .23px;"/>
      <line x1="40" y1="75.8" x2="40" y2="53.26" style="fill: none; stroke: #c5b897; stroke-miterlimit: 10; stroke-width: .23px;"/>
      <line x1="38.27" y1="75.8" x2="38.27" y2="53.26" style="fill: none; stroke: #c5b897; stroke-miterlimit: 10; stroke-width: .23px;"/>
      <line x1="74.07" y1="81.75" x2="74.07" y2="46.74" style="fill: none; stroke: #c5b897; stroke-miterlimit: 10; stroke-width: .23px;"/>
      <line x1="72.34" y1="81.75" x2="72.34" y2="46.74" style="fill: none; stroke: #c5b897; stroke-miterlimit: 10; stroke-width: .23px;"/>
      <line x1="70.61" y1="81.75" x2="70.61" y2="46.74" style="fill: none; stroke: #c5b897; stroke-miterlimit: 10; stroke-width: .23px;"/>
    </g>
    <g>
      <path d="M56.5,18.7c-.11,.15-.25,.3-.38,.46,1.9,1.65,5.17,3.21,7.98,3.95-.4,.34-.91,1.06-1.16,1.48-1.67-.51-3.5-1.35-5.13-2.37v.85h-5.17v-.91c-.91,.59-1.9,1.12-2.91,1.58h10.87v6.02h-9.16v3.63l4.52-.67c-.06,.46-.06,1.14-.02,1.5-5.02,.82-5.76,.99-6.23,1.22-.13-.36-.51-1.01-.78-1.29,.32-.21,.78-.67,.78-1.46v-8.93c-.68,.3-1.39,.59-2.09,.82-.25-.42-.68-1.04-1.1-1.42,3.27-.99,6.65-2.85,8.38-5.21l1.6,.76Zm-5.05,6.34v1.12h7.37v-1.12h-7.37Zm7.37,3.4v-1.1h-7.37v1.1h7.37Zm-1.6-6.61c-.78-.49-1.5-1.04-2.13-1.6-.61,.57-1.29,1.1-2,1.6h4.12Zm5.57,8.57c-.99,.74-2.19,1.46-3.29,2.05,1.14,.65,2.18,1.31,2.93,1.84l-1.25,1.2c-1.52-1.18-4.64-3.04-7.05-4.27l1.16-1.01c.85,.4,1.82,.91,2.79,1.42,1.2-.66,2.55-1.56,3.4-2.28l1.31,1.04Z" style="fill: #901026;"/>
      <path d="M63.49,57.92v1.69h-10.22c-.65,1.35-1.39,2.64-2.26,3.82v9.12h-1.77v-7.07c-.61,.59-1.27,1.16-1.98,1.65-.19-.48-.59-1.24-.87-1.65,2.09-1.42,3.7-3.55,4.88-5.87h-4.37v-1.69h5.13c.4-.93,.68-1.86,.93-2.79l1.84,.46c-.25,.78-.51,1.56-.82,2.34h9.5Zm-4.79,12.56h4.77v1.65h-11.34v-1.65h4.79v-4.9h-4.07v-1.63h4.07v-3.42h1.79v3.42h4.05v1.63h-4.05v4.9Z" style="fill: #901026;"/>
    </g>
    <g>
      <line x1="23.16" y1="11.55" x2="3.58" y2="11.55" style="fill: none; stroke: #736358; stroke-miterlimit: 10; stroke-width: .23px;"/>
      <line x1="23.16" y1="10.61" x2="3.58" y2="10.61" style="fill: none; stroke: #736358; stroke-miterlimit: 10; stroke-width: .23px;"/>
      <line x1="23.16" y1="9.68" x2="3.58" y2="9.68" style="fill: none; stroke: #736358; stroke-miterlimit: 10; stroke-width: .13px;"/>
      <line x1="23.16" y1="82.72" x2="3.58" y2="82.72" style="fill: none; stroke: #736358; stroke-miterlimit: 10; stroke-width: .23px;"/>
      <line x1="23.16" y1="81.79" x2="3.58" y2="81.79" style="fill: none; stroke: #736358; stroke-miterlimit: 10; stroke-width: .23px;"/>
      <line x1="23.16" y1="80.86" x2="3.58" y2="80.86" style="fill: none; stroke: #736358; stroke-miterlimit: 10; stroke-width: .23px;"/>
      <line x1="20.93" y1="79.21" x2="20.93" y2="13.2" style="fill: none; stroke: #88202a; stroke-miterlimit: 10; stroke-width: .23px;"/>
      <line x1="22.05" y1="79.21" x2="22.05" y2="13.2" style="fill: none; stroke: #88202a; stroke-miterlimit: 10; stroke-width: .23px;"/>
      <line x1="23.16" y1="79.21" x2="23.16" y2="13.2" style="fill: none; stroke: #88202a; stroke-miterlimit: 10; stroke-width: .23px;"/>
      <line x1=".12" y1="82.72" x2=".12" y2="9.23" style="fill: none; stroke: #88202a; stroke-miterlimit: 10; stroke-width: .23px;"/>
      <line x1="1.23" y1="82.72" x2="1.23" y2="9.23" style="fill: none; stroke: #88202a; stroke-miterlimit: 10; stroke-width: .23px;"/>
      <line x1="2.34" y1="82.72" x2="2.34" y2="9.23" style="fill: none; stroke: #88202a; stroke-miterlimit: 10; stroke-width: .23px;"/>
    </g>
    <g>
      <path d="M16.16,27.48v10.91h-1.29v-.79h-6.12v.84h-1.23v-10.96h8.65Zm-7.41,1.22v3.17h6.12v-3.17h-6.12Zm6.12,7.67v-3.3h-6.12v3.3h6.12Z" style="fill: #901026;"/>
      <path d="M9.25,62.08h-2.04v.7h-.95v-7.85h2.99v7.15Zm-2.04-6.12v5.1h1.12v-5.1h-1.12Zm10.47-1.38v2.24h-1.07v-1.34h-5.98v1.34h-1.01v-2.24h1.46c-.16-.36-.39-.84-.65-1.2l.99-.35c.31,.43,.62,.99,.75,1.37l-.46,.18h1.33v-1.68h1.18v1.68h1.3l-.39-.14c.23-.4,.55-1,.69-1.42l1.18,.35c-.32,.44-.62,.88-.88,1.21h1.56Zm-2.2,4.9c.48,0,1.31-.04,1.63-.1,.04,.3,.06,.58,.12,.81-.3,.07-1,.09-1.62,.09h-3.67c-1.22,0-1.55-.39-1.55-1.29v-1.16h1.01v.47h5.37v.69h-5.37c0,.36,.09,.49,.61,.49h3.47Zm-4.86,1.22h6.07v4.08h-1.08v-.38h-3.95v.42h-1.04v-4.12Zm5.28-2.89h-4.6v-2h4.6v2Zm-4.24,3.67v.72h3.95v-.72h-3.95Zm3.95,2.17v-.75h-3.95v.75h3.95Zm-.68-7.16h-2.72v.68h2.72v-.68Z" style="fill: #901026;"/>
    </g>
    <g>
      <g style="clip-path: url(#d);">
        <line x1="12.24" y1="92.57" x2="12.24" y2="80.22" style="fill: none; stroke: #978375; stroke-miterlimit: 10; stroke-width: .23px;"/>
        <line x1="6.07" y1="86.4" x2="18.41" y2="86.4" style="fill: none; stroke: #978375; stroke-miterlimit: 10; stroke-width: .23px;"/>
        <line x1="16.61" y1="90.76" x2="7.88" y2="82.03" style="fill: none; stroke: #978375; stroke-miterlimit: 10; stroke-width: .23px;"/>
        <line x1="7.88" y1="90.76" x2="16.61" y2="82.03" style="fill: none; stroke: #978375; stroke-miterlimit: 10; stroke-width: .23px;"/>
        <line x1="17.99" y1="88.65" x2="6.5" y2="84.14" style="fill: none; stroke: #978375; stroke-miterlimit: 10; stroke-width: .23px;"/>
        <line x1="9.99" y1="92.14" x2="14.49" y2="80.65" style="fill: none; stroke: #978375; stroke-miterlimit: 10; stroke-width: .23px;"/>
        <line x1="6.5" y1="88.65" x2="17.99" y2="84.14" style="fill: none; stroke: #978375; stroke-miterlimit: 10; stroke-width: .23px;"/>
        <line x1="14.49" y1="92.14" x2="9.99" y2="80.65" style="fill: none; stroke: #978375; stroke-miterlimit: 10; stroke-width: .23px;"/>
      </g>
      <line x1="18.41" y1="86.4" x2="6.07" y2="86.4" style="fill: none; stroke: #978375; stroke-miterlimit: 10; stroke-width: .23px;"/>
    </g>
    <g>
      <g style="clip-path: url(#e);">
        <line x1="12.05" y1=".51" x2="12.05" y2="12.85" style="fill: none; stroke: #978375; stroke-miterlimit: 10; stroke-width: .23px;"/>
        <line x1="18.22" y1="6.68" x2="5.88" y2="6.68" style="fill: none; stroke: #978375; stroke-miterlimit: 10; stroke-width: .23px;"/>
        <line x1="7.69" y1="2.32" x2="16.42" y2="11.05" style="fill: none; stroke: #978375; stroke-miterlimit: 10; stroke-width: .23px;"/>
        <line x1="16.42" y1="2.32" x2="7.69" y2="11.05" style="fill: none; stroke: #978375; stroke-miterlimit: 10; stroke-width: .23px;"/>
        <line x1="6.31" y1="4.43" x2="17.8" y2="8.93" style="fill: none; stroke: #978375; stroke-miterlimit: 10; stroke-width: .23px;"/>
        <line x1="14.3" y1=".94" x2="9.8" y2="12.43" style="fill: none; stroke: #978375; stroke-miterlimit: 10; stroke-width: .23px;"/>
        <line x1="17.8" y1="4.43" x2="6.31" y2="8.93" style="fill: none; stroke: #978375; stroke-miterlimit: 10; stroke-width: .23px;"/>
        <line x1="9.8" y1=".94" x2="14.3" y2="12.43" style="fill: none; stroke: #978375; stroke-miterlimit: 10; stroke-width: .23px;"/>
      </g>
      <line x1="5.88" y1="6.68" x2="18.22" y2="6.68" style="fill: none; stroke: #978375; stroke-miterlimit: 10; stroke-width: .23px;"/>
    </g>
    <g>
      <line x1="327.84" y1="11.55" x2="308.25" y2="11.55" style="fill: none; stroke: #736358; stroke-miterlimit: 10; stroke-width: .23px;"/>
      <line x1="327.84" y1="10.61" x2="308.25" y2="10.61" style="fill: none; stroke: #736358; stroke-miterlimit: 10; stroke-width: .23px;"/>
      <line x1="327.84" y1="9.68" x2="308.25" y2="9.68" style="fill: none; stroke: #736358; stroke-miterlimit: 10; stroke-width: .13px;"/>
      <line x1="327.84" y1="82.72" x2="308.25" y2="82.72" style="fill: none; stroke: #736358; stroke-miterlimit: 10; stroke-width: .23px;"/>
      <line x1="327.84" y1="81.79" x2="308.25" y2="81.79" style="fill: none; stroke: #736358; stroke-miterlimit: 10; stroke-width: .23px;"/>
      <line x1="327.84" y1="80.86" x2="308.25" y2="80.86" style="fill: none; stroke: #736358; stroke-miterlimit: 10; stroke-width: .23px;"/>
      <line x1="325.61" y1="79.21" x2="325.61" y2="13.2" style="fill: none; stroke: #88202a; stroke-miterlimit: 10; stroke-width: .23px;"/>
      <line x1="326.72" y1="79.21" x2="326.72" y2="13.2" style="fill: none; stroke: #88202a; stroke-miterlimit: 10; stroke-width: .23px;"/>
      <line x1="327.84" y1="79.21" x2="327.84" y2="13.2" style="fill: none; stroke: #88202a; stroke-miterlimit: 10; stroke-width: .23px;"/>
      <line x1="304.79" y1="82.72" x2="304.79" y2="9.23" style="fill: none; stroke: #88202a; stroke-miterlimit: 10; stroke-width: .23px;"/>
      <line x1="305.9" y1="82.72" x2="305.9" y2="9.23" style="fill: none; stroke: #88202a; stroke-miterlimit: 10; stroke-width: .23px;"/>
      <line x1="307.02" y1="82.72" x2="307.02" y2="9.23" style="fill: none; stroke: #88202a; stroke-miterlimit: 10; stroke-width: .23px;"/>
    </g>
    <g>
      <path d="M316.94,33.33c-.03,.3-.08,.58-.13,.86h5.21v1.03h-5.49c-.61,1.69-1.99,2.78-5.42,3.34-.09-.33-.38-.82-.61-1.09,2.85-.39,4.08-1.12,4.67-2.25h-4.15v-1.03h4.51c.05-.27,.1-.55,.14-.86h-4.94v-1.07h5.08v-.92h-3.93v-1.03h3.93v-.88h-4.65v-1.07h2.61c-.21-.43-.56-.96-.87-1.35l1.05-.42c.44,.47,.88,1.12,1.07,1.57l-.43,.2h3.17c.35-.52,.79-1.25,1.01-1.77l1.29,.35c-.3,.48-.65,1-.96,1.42h2.65v1.07h-4.69v.88h4.07v1.03h-4.07v.92h5.24v1.07h-5.37Zm4.81,5.3c-1.16-.75-3.48-1.83-5.23-2.51l.53-.91c1.7,.61,4.07,1.64,5.25,2.35l-.56,1.07Z" style="fill: #901026;"/>
      <path d="M312.02,61.64v1.01h-1.11v-8.61h3.6v7.59h-2.5Zm0-6.42v5.25h1.39v-5.25h-1.39Zm7.49,3.95c.7,1.56,1.83,3.07,3,3.9-.3,.22-.69,.68-.91,.99-.91-.79-1.79-2.03-2.48-3.37v4.12h-1.22v-4.15c-.81,1.42-1.86,2.64-3.04,3.39-.18-.29-.55-.71-.82-.94,1.42-.78,2.72-2.33,3.48-3.95h-2.6v-1.16h2.98v-1.92h-2.51v-1.16h2.51v-1.95h1.22v1.95h2.76v1.16h-2.76v1.92h3.22v1.16h-2.83Z" style="fill: #901026;"/>
    </g>
    <g>
      <g style="clip-path: url(#f);">
        <line x1="316.92" y1="92.57" x2="316.92" y2="80.22" style="fill: none; stroke: #978375; stroke-miterlimit: 10; stroke-width: .23px;"/>
        <line x1="310.75" y1="86.4" x2="323.09" y2="86.4" style="fill: none; stroke: #978375; stroke-miterlimit: 10; stroke-width: .23px;"/>
        <line x1="321.28" y1="90.76" x2="312.55" y2="82.03" style="fill: none; stroke: #978375; stroke-miterlimit: 10; stroke-width: .23px;"/>
        <line x1="312.55" y1="90.76" x2="321.28" y2="82.03" style="fill: none; stroke: #978375; stroke-miterlimit: 10; stroke-width: .23px;"/>
        <line x1="322.66" y1="88.65" x2="311.17" y2="84.14" style="fill: none; stroke: #978375; stroke-miterlimit: 10; stroke-width: .23px;"/>
        <line x1="314.67" y1="92.14" x2="319.17" y2="80.65" style="fill: none; stroke: #978375; stroke-miterlimit: 10; stroke-width: .23px;"/>
        <line x1="311.17" y1="88.65" x2="322.66" y2="84.14" style="fill: none; stroke: #978375; stroke-miterlimit: 10; stroke-width: .23px;"/>
        <line x1="319.17" y1="92.14" x2="314.67" y2="80.65" style="fill: none; stroke: #978375; stroke-miterlimit: 10; stroke-width: .23px;"/>
      </g>
      <line x1="323.09" y1="86.4" x2="310.75" y2="86.4" style="fill: none; stroke: #978375; stroke-miterlimit: 10; stroke-width: .23px;"/>
    </g>
    <g>
      <g style="clip-path: url(#g);">
        <line x1="316.73" y1=".51" x2="316.73" y2="12.85" style="fill: none; stroke: #978375; stroke-miterlimit: 10; stroke-width: .23px;"/>
        <line x1="322.9" y1="6.68" x2="310.56" y2="6.68" style="fill: none; stroke: #978375; stroke-miterlimit: 10; stroke-width: .23px;"/>
        <line x1="312.36" y1="2.32" x2="321.09" y2="11.05" style="fill: none; stroke: #978375; stroke-miterlimit: 10; stroke-width: .23px;"/>
        <line x1="321.09" y1="2.32" x2="312.36" y2="11.05" style="fill: none; stroke: #978375; stroke-miterlimit: 10; stroke-width: .23px;"/>
        <line x1="310.98" y1="4.43" x2="322.47" y2="8.93" style="fill: none; stroke: #978375; stroke-miterlimit: 10; stroke-width: .23px;"/>
        <line x1="318.98" y1=".94" x2="314.48" y2="12.43" style="fill: none; stroke: #978375; stroke-miterlimit: 10; stroke-width: .23px;"/>
        <line x1="322.47" y1="4.43" x2="310.98" y2="8.93" style="fill: none; stroke: #978375; stroke-miterlimit: 10; stroke-width: .23px;"/>
        <line x1="314.48" y1=".94" x2="318.98" y2="12.43" style="fill: none; stroke: #978375; stroke-miterlimit: 10; stroke-width: .23px;"/>
      </g>
      <line x1="310.56" y1="6.68" x2="322.9" y2="6.68" style="fill: none; stroke: #978375; stroke-miterlimit: 10; stroke-width: .23px;"/>
    </g>
    <rect x="257.88" y="11.77" width="27" height="28.87" transform="translate(297.59 -245.18) rotate(90)" style="fill: #fff;"/>
    <rect x="257.88" y="50.09" width="27" height="28.87" transform="translate(335.91 -206.85) rotate(90)" style="fill: #fff;"/>
    <g>
      <line x1="289.28" y1="12.49" x2="258.86" y2="12.49" style="fill: none; stroke: #c5b897; stroke-miterlimit: 10; stroke-width: .23px;"/>
      <line x1="289.28" y1="10.76" x2="258.86" y2="10.76" style="fill: none; stroke: #c5b897; stroke-miterlimit: 10; stroke-width: .23px;"/>
      <line x1="289.28" y1="9.03" x2="258.86" y2="9.03" style="fill: none; stroke: #c5b897; stroke-miterlimit: 10; stroke-width: .23px;"/>
      <line x1="289.28" y1="43.21" x2="258.86" y2="43.21" style="fill: none; stroke: #c5b897; stroke-miterlimit: 10; stroke-width: .23px;"/>
      <line x1="289.28" y1="41.48" x2="258.86" y2="41.48" style="fill: none; stroke: #c5b897; stroke-miterlimit: 10; stroke-width: .23px;"/>
      <line x1="289.28" y1="39.75" x2="258.86" y2="39.75" style="fill: none; stroke: #c5b897; stroke-miterlimit: 10; stroke-width: .23px;"/>
      <line x1="285.82" y1="37.26" x2="285.82" y2="14.72" style="fill: none; stroke: #88202a; stroke-miterlimit: 10; stroke-width: .23px;"/>
      <line x1="287.55" y1="37.26" x2="287.55" y2="14.72" style="fill: none; stroke: #88202a; stroke-miterlimit: 10; stroke-width: .23px;"/>
      <line x1="289.28" y1="37.26" x2="289.28" y2="14.72" style="fill: none; stroke: #88202a; stroke-miterlimit: 10; stroke-width: .23px;"/>
      <line x1="253.48" y1="43.21" x2="253.48" y2="8.2" style="fill: none; stroke: #88202a; stroke-miterlimit: 10; stroke-width: .23px;"/>
      <line x1="255.21" y1="43.21" x2="255.21" y2="8.2" style="fill: none; stroke: #88202a; stroke-miterlimit: 10; stroke-width: .23px;"/>
      <line x1="256.95" y1="43.21" x2="256.95" y2="8.2" style="fill: none; stroke: #88202a; stroke-miterlimit: 10; stroke-width: .23px;"/>
    </g>
    <g>
      <line x1="253.48" y1="51.04" x2="283.9" y2="51.04" style="fill: none; stroke: #88202a; stroke-miterlimit: 10; stroke-width: .23px;"/>
      <line x1="253.48" y1="49.31" x2="283.9" y2="49.31" style="fill: none; stroke: #88202a; stroke-miterlimit: 10; stroke-width: .23px;"/>
      <line x1="253.48" y1="47.57" x2="283.9" y2="47.57" style="fill: none; stroke: #88202a; stroke-miterlimit: 10; stroke-width: .23px;"/>
      <line x1="253.48" y1="81.75" x2="283.9" y2="81.75" style="fill: none; stroke: #88202a; stroke-miterlimit: 10; stroke-width: .23px;"/>
      <line x1="253.48" y1="80.02" x2="283.9" y2="80.02" style="fill: none; stroke: #88202a; stroke-miterlimit: 10; stroke-width: .23px;"/>
      <line x1="253.48" y1="78.29" x2="283.9" y2="78.29" style="fill: none; stroke: #88202a; stroke-miterlimit: 10; stroke-width: .23px;"/>
      <line x1="256.95" y1="75.8" x2="256.95" y2="53.26" style="fill: none; stroke: #c5b897; stroke-miterlimit: 10; stroke-width: .23px;"/>
      <line x1="255.21" y1="75.8" x2="255.21" y2="53.26" style="fill: none; stroke: #c5b897; stroke-miterlimit: 10; stroke-width: .23px;"/>
      <line x1="253.48" y1="75.8" x2="253.48" y2="53.26" style="fill: none; stroke: #c5b897; stroke-miterlimit: 10; stroke-width: .23px;"/>
      <line x1="289.28" y1="81.75" x2="289.28" y2="46.74" style="fill: none; stroke: #c5b897; stroke-miterlimit: 10; stroke-width: .23px;"/>
      <line x1="287.55" y1="81.75" x2="287.55" y2="46.74" style="fill: none; stroke: #c5b897; stroke-miterlimit: 10; stroke-width: .23px;"/>
      <line x1="285.82" y1="81.75" x2="285.82" y2="46.74" style="fill: none; stroke: #c5b897; stroke-miterlimit: 10; stroke-width: .23px;"/>
    </g>
    <g>
      <path d="M276.78,19.33v15.94h-1.88v-1.16h-8.95v1.24h-1.8V19.33h12.63Zm-10.83,1.79v4.64h8.95v-4.64h-8.95Zm8.95,11.21v-4.83h-8.95v4.83h8.95Z" style="fill: #901026;"/>
      <path d="M278.39,57.94v4.24h-1.75v-2.72h-12.44v2.72h-1.69v-4.24h2.81c-.3-.59-.82-1.41-1.29-1.99l1.6-.63c.59,.63,1.2,1.52,1.5,2.13l-1.12,.49h3.53v-2.79h1.82v2.79h3.4l-1.14-.44c.49-.61,1.16-1.56,1.48-2.2l1.88,.61c-.59,.74-1.22,1.5-1.75,2.03h3.15Zm-1.08,12.08c0,.85-.19,1.33-.84,1.6-.67,.25-1.63,.27-3.06,.27-.09-.47-.36-1.16-.59-1.61,1.01,.04,2.01,.04,2.28,.04,.3-.02,.38-.08,.38-.3v-2.28h-3.95v4.86h-1.82v-4.86h-4.2v4.01h-1.79v-5.6h5.98v-1.39h-4.26v-4.14h9.99v4.14h-3.91v1.39h5.78v3.89Zm-10.16-6.57h6.5v-1.56h-6.5v1.56Z" style="fill: #901026;"/>
    </g>
  </g>
</svg>