<?xml version="1.0" encoding="UTF-8"?>
<svg id="b" data-name="圖層 2" xmlns="http://www.w3.org/2000/svg" width="115.58" height="99.91" viewBox="0 0 115.58 99.91">
  <g id="c" data-name="圖層 1">
    <g>
      <rect x=".54" y="74.64" width="115.04" height=".81" style="fill: #fdf5e7;"/>
      <path d="M66.41,1.78s.08-1.78-1.71-1.78-1.64,1.64-1.64,1.64v3.7s-1.71-1.99-7.26-1.99-12.95,3.41-12.95,12.31,5.19,12.59,9.6,15.94c4.42,3.34,11.88,8.04,14.3,10.96,2.42,2.92,4.22,7.82,3.63,12.81-.71,5.97-7.25,12.3-17.07,12.3s-19.36-7.75-19.36-16.64,5.13-15.37,12.45-15.37,9.6,6.12,9.6,7.97-1.35,4.19-3.34,4.19-1.14-2.27-2.06-2.27-1.42,1.35-1.07,3.06c.36,1.72,2.06,2.35,3.84,2.13,1.77-.21,5.69-2.06,5.97-6.83,.25-4.05-4.12-10.81-13.94-10.81s-15.87,7.83-15.87,16.14,4.84,21.07,24.55,20.99c17.71-.07,23.4-12.45,23.05-20.06-.24-5.19-2.92-13.23-10.52-18-7.62-4.76-19.07-9.39-19.07-16.71s5.05-8.11,7.9-8.11,6.26,2.84,7.19,5.12c.92,2.27,.78,3.27,.78,4.76v6.26c0,.72,0,2.21,1.49,2.21s1.5-1.99,1.5-2.56V1.78Z" style="fill: #fdf5e7;"/>
      <g>
        <path d="M38.61,56.61h.16c.08,.4,.23,.69,.42,.88,.19,.19,.43,.28,.67,.28s.42-.07,.52-.19c.11-.12,.16-.26,.16-.4,0-.16-.05-.29-.16-.39-.08-.06-.22-.15-.44-.26l-.34-.17c-.35-.17-.6-.35-.74-.51-.15-.17-.22-.38-.22-.63,0-.27,.09-.51,.28-.74,.19-.22,.48-.34,.87-.34,.19,0,.39,.03,.58,.09,.18,.06,.3,.09,.32,.09,.05,0,.1-.01,.12-.05,.02-.03,.04-.08,.06-.14h.16v1.18h-.15c-.07-.27-.2-.51-.38-.7-.18-.2-.4-.3-.66-.3-.19,0-.33,.05-.43,.15-.1,.09-.16,.22-.16,.36,0,.17,.05,.3,.15,.38,.1,.09,.32,.21,.66,.38l.4,.2c.19,.09,.33,.19,.43,.29,.2,.21,.3,.46,.3,.75,0,.27-.1,.53-.32,.77-.22,.24-.56,.36-1.03,.36-.12,0-.22-.01-.33-.03-.12-.02-.22-.05-.32-.09l-.11-.04s-.05,0-.07-.01c-.03,0-.04,0-.06,0-.05,0-.09,.02-.11,.05-.02,.03-.04,.08-.05,.13h-.16v-1.33Z" style="fill: #fdf5e7;"/>
        <path d="M41.53,57.73c.15,0,.25-.03,.31-.06,.1-.06,.15-.16,.15-.32v-2.62c0-.15-.04-.26-.13-.31-.05-.03-.16-.06-.33-.07v-.14h1.84v.14c-.16,0-.28,.03-.34,.06-.1,.06-.15,.16-.15,.32v1.12h1.29v-1.12c0-.15-.05-.26-.15-.32-.06-.03-.17-.05-.34-.06v-.14h1.84v.14c-.16,.01-.27,.03-.32,.07-.1,.06-.15,.16-.15,.31v2.62c0,.16,.05,.27,.16,.32,.06,.03,.17,.06,.31,.06v.14h-1.84v-.14c.16,0,.27-.03,.33-.06,.1-.06,.15-.16,.15-.32v-1.24h-1.29v1.24c0,.16,.05,.27,.16,.33,.06,.03,.16,.05,.32,.05v.14h-1.84v-.14Z" style="fill: #fdf5e7;"/>
        <path d="M45.73,57.73c.15,0,.26-.02,.33-.05,.11-.06,.17-.17,.17-.33v-2.62c0-.16-.05-.27-.16-.32-.06-.03-.17-.06-.34-.06v-.14h1.89v.14c-.17,0-.29,.02-.34,.06-.11,.05-.16,.16-.16,.32v2.62c0,.15,.04,.25,.12,.3,.09,.06,.21,.08,.38,.08v.14h-1.89v-.14Z" style="fill: #fdf5e7;"/>
        <path d="M49.87,56.6l-.51-1.25h-.04l-.49,1.25h1.05Zm-2.02,1.14c.13,0,.23-.06,.31-.18,.05-.07,.12-.22,.22-.45l1.2-2.96h.15l1.2,2.84c.13,.33,.24,.53,.3,.61,.07,.09,.17,.14,.29,.14v.14h-1.75v-.14c.18,0,.29-.02,.34-.05,.05-.02,.08-.08,.08-.17,0-.04-.01-.1-.04-.19-.02-.05-.05-.11-.07-.18l-.14-.33h-1.22c-.07,.22-.13,.35-.15,.42-.05,.14-.07,.24-.07,.3,0,.08,.04,.14,.16,.17,.06,.02,.15,.03,.27,.03v.14h-1.1v-.14Z" style="fill: #fdf5e7;"/>
        <path d="M51.74,57.73c.2,0,.33-.04,.4-.11,.05-.07,.08-.18,.08-.31v-2.56c-.16-.19-.27-.3-.31-.33-.04-.03-.1-.06-.16-.06v-.14h1.14l1.87,2.28h.02v-1.61c0-.18-.04-.31-.1-.39-.07-.08-.2-.12-.4-.14v-.14h1.16v.14c-.16,.03-.28,.06-.34,.11-.06,.05-.09,.15-.09,.32v3.18h-.14l-2.38-2.89h-.04v2.12c0,.17,.02,.28,.07,.35,.07,.12,.22,.17,.44,.18v.14h-1.23v-.14Z" style="fill: #fdf5e7;"/>
        <path d="M56.27,54.72c.36-.38,.83-.57,1.38-.57,.23,0,.45,.04,.67,.13,.22,.08,.36,.12,.42,.12s.1-.02,.14-.06c.04-.04,.07-.1,.09-.18h.15v1.26h-.14c-.14-.28-.27-.49-.4-.65-.26-.29-.53-.43-.86-.43-.35,0-.6,.15-.76,.45-.16,.3-.24,.73-.24,1.28,0,.45,.08,.85,.22,1.21,.15,.35,.43,.53,.87,.53,.23,0,.39-.04,.46-.15,.05-.05,.07-.13,.07-.24v-.58c0-.16-.05-.26-.16-.31-.06-.03-.19-.05-.39-.06v-.13h1.85v.13c-.19,0-.31,.05-.37,.12-.06,.07-.09,.19-.09,.38v.69c-.12,.08-.31,.14-.58,.22-.27,.07-.57,.1-.9,.1-.6,0-1.08-.19-1.44-.56-.33-.36-.5-.79-.5-1.33s.17-.99,.52-1.36Z" style="fill: #fdf5e7;"/>
        <path d="M59.85,57.87v-.14c.15,0,.26-.03,.33-.06,.1-.06,.15-.16,.15-.32v-2.62c0-.15-.05-.26-.15-.32-.06-.03-.17-.06-.32-.06v-.14h3.11v1.09h-.13c-.07-.35-.19-.59-.35-.72-.16-.13-.46-.19-.9-.19-.16,0-.27,.01-.32,.05-.04,.03-.07,.1-.07,.21v1.25c.31,0,.52-.05,.63-.16,.11-.12,.19-.33,.25-.64h.13v1.83h-.13c-.04-.31-.12-.53-.24-.65-.12-.13-.33-.19-.64-.19v1.32c0,.11,.03,.19,.09,.23,.05,.04,.17,.06,.36,.06,.35,0,.62-.07,.85-.2,.22-.13,.41-.38,.58-.75h.16l-.23,1.13h-3.16Z" style="fill: #fdf5e7;"/>
        <path d="M63.46,57.73c.18,0,.3-.04,.38-.1,.07-.06,.1-.19,.1-.39v-2.4c0-.21-.04-.35-.12-.4-.05-.04-.17-.07-.35-.09v-.14h1.74c.36,0,.65,.04,.87,.12,.43,.15,.65,.43,.65,.82,0,.3-.11,.53-.32,.7-.17,.12-.34,.21-.53,.24l1.09,1.54s.07,.08,.1,.09c.03,.01,.07,.02,.12,.03v.13h-1.1l-1.13-1.69h-.14v1.06c0,.18,.03,.31,.09,.38,.07,.07,.19,.11,.39,.11v.14h-1.83v-.14Zm2.11-1.87c.15-.09,.23-.32,.23-.65,0-.21-.03-.38-.08-.5-.1-.21-.28-.31-.55-.31-.14,0-.24,.02-.28,.06-.05,.03-.07,.09-.07,.18v1.38c.36,0,.61-.05,.76-.15Z" style="fill: #fdf5e7;"/>
      </g>
      <g>
        <path d="M78.31,63.97c0,2.23,1.82,4.05,4.05,4.05s4.05-1.81,4.05-4.05-1.82-4.05-4.05-4.05-4.05,1.82-4.05,4.05Zm.57,0c0-1.92,1.56-3.48,3.48-3.48s3.48,1.56,3.48,3.48-1.56,3.48-3.48,3.48-3.48-1.56-3.48-3.48Z" style="fill: #fdf5e7;"/>
        <path d="M82.74,63.86c.28,0,.51-.06,.68-.17,.17-.11,.25-.31,.25-.61,0-.32-.12-.54-.35-.66-.12-.06-.29-.09-.49-.09h-1.49v1.53h1.4Zm-2.01-2.06h2.08c.34,0,.62,.05,.84,.15,.43,.19,.63,.55,.63,1.06,0,.27-.05,.48-.16,.66-.11,.17-.27,.3-.47,.41,.18,.08,.32,.16,.4,.28,.1,.12,.14,.3,.15,.57l.02,.6c.01,.18,.02,.3,.04,.38,.03,.15,.1,.24,.2,.27v.11h-.74s-.04-.09-.05-.15c-.02-.06-.02-.18-.03-.36l-.04-.75c0-.29-.11-.49-.32-.59-.11-.06-.3-.08-.55-.08h-1.38v1.93h-.61v-4.5Z" style="fill: #fdf5e7;"/>
      </g>
      <g>
        <polygon points="22.58 90.44 25.75 87.28 28.9 90.44 25.75 93.6 22.58 90.44" style="fill: #fdf5e7;"/>
        <rect x="55.78" y="88.2" width="4.47" height="4.47" transform="translate(-46.96 67.53) rotate(-45.01)" style="fill: #fdf5e7;"/>
        <rect x="87.92" y="88.2" width="4.47" height="4.47" transform="translate(-37.54 90.37) rotate(-45.06)" style="fill: #fdf5e7;"/>
        <path d="M11,85.36c2.33,1.9,5.29,3.4,8.85,4.5,.19,.06,.38,.05,.55-.04,.15-.07,.26-.19,.31-.39,.07-.17,.06-.32-.03-.48-.08-.15-.23-.26-.45-.35-3.31-.97-6.04-2.33-8.21-4.08h7.41c.18,0,.35-.06,.46-.19,.1-.14,.17-.29,.18-.46,0-.2-.06-.35-.18-.49-.09-.11-.25-.15-.46-.15H11v-2.1c3.46-.3,5.51-.52,6.16-.66,.63-.13,1-.26,1.07-.39,.06-.15,.08-.33,.04-.53-.04-.17-.12-.3-.25-.39-.14-.09-.31-.12-.51-.08-1.55,.33-3.86,.58-6.95,.76-3.06,.19-5.75,.29-8.08,.29-.19,0-.34,.06-.46,.17-.14,.13-.2,.29-.2,.46,0,.19,.05,.34,.15,.46,.19,.24,2.77,.24,7.73,0v2.01H1.07c-.19,0-.35,.06-.48,.18-.1,.13-.16,.29-.18,.46,0,.19,.06,.35,.18,.48,.1,.1,.26,.17,.48,.18h7.7c-2.34,1.91-5.09,3.32-8.23,4.26-.19,.05-.34,.15-.44,.31-.11,.13-.12,.3-.09,.48,.07,.17,.15,.31,.29,.43,.56,.31,2.28-.3,5.14-1.8,1.28-.66,2.7-1.6,4.26-2.83v3.33c0,.23,.05,.41,.18,.53,.12,.11,.28,.16,.45,.18,.2-.02,.35-.08,.47-.2,.13-.13,.2-.3,.2-.51v-3.35Zm6,13.99c.46,0,.85-.16,1.17-.46,.27-.28,.42-.66,.42-1.15v-6.25c-.01-.5-.15-.91-.39-1.26-.29-.32-.68-.49-1.2-.49H4.39c-.55,0-.98,.16-1.3,.47-.28,.31-.43,.73-.44,1.28v6.25c-.02,.45,.13,.84,.44,1.15,.28,.28,.71,.43,1.3,.46h12.62Zm.29-4.16v1.88c0,.29-.08,.51-.25,.69-.17,.19-.42,.28-.73,.28H4.76c-.26,0-.46-.07-.62-.22-.15-.18-.22-.43-.2-.75v-1.88h13.35Zm-13.35-1.3v-2c-.02-.24,.05-.43,.18-.59,.14-.15,.36-.23,.64-.24h11.56c.33-.01,.57,.06,.75,.23,.13,.13,.21,.33,.22,.61v2H3.94Z" style="fill: #fdf5e7;"/>
        <path d="M42.25,82.57c.97,1.78,1.95,3.23,2.94,4.34-1.68,1.2-3.55,2.14-5.61,2.82-.21,0-.38,.14-.48,.41-.07,.14-.07,.31,0,.51,.06,.17,.17,.29,.33,.37,.44,.17,2-.45,4.7-1.9,.59-.36,1.16-.73,1.72-1.11,.09-.06,.18-.12,.27-.2,.76,.67,1.65,1.28,2.67,1.83,1.17,.63,2.08,1.04,2.76,1.23,.19,.06,.38,.06,.55,0,.15-.05,.26-.18,.33-.37,.06-.18,.06-.35-.01-.51-.08-.15-.23-.26-.44-.33-1.72-.46-3.34-1.34-4.84-2.65,1.82-1.68,3.06-3.59,3.74-5.74,0-.04,0-.07,.02-.07,.11-.37,.04-.72-.17-1.06-.26-.35-.63-.49-1.12-.4h-6.11c-.59,.06-1.01,.21-1.26,.46-.27,.27-.46,.58-.57,.93-.45,1.12-1.25,2.01-2.43,2.67-.02,0-.03,0-.04,.02,0-.2-.06-.35-.17-.49-.1-.11-.26-.15-.46-.15h-2.25v-3.69c0-.19-.07-.35-.21-.49-.12-.1-.28-.16-.46-.17-.19,0-.35,.06-.49,.17-.1,.1-.15,.27-.15,.49v3.69h-2.71c-.19,0-.34,.06-.49,.18-.1,.13-.15,.29-.17,.46,0,.19,.06,.35,.17,.48,.11,.1,.27,.17,.49,.18h2.47c-.7,2.48-1.78,4.8-3.24,7-.1,.19-.15,.37-.13,.56,.06,.14,.16,.28,.31,.39,.15,.1,.31,.13,.48,.09,.49-.13,1.42-1.86,2.83-5.18v11.85c0,.22,.05,.4,.18,.52,.13,.09,.28,.16,.46,.17,.19-.02,.34-.08,.46-.2,.13-.13,.21-.3,.21-.5v-12.25c.7,.98,1.29,1.86,1.75,2.62,.16,.23,.29,.35,.42,.37,.15,.06,.32,.03,.48-.11,.18-.1,.28-.24,.29-.42,.04-.17,0-.32-.11-.45-.76-1.08-1.71-2.36-2.83-3.86v-.6h2.25c.1,0,.21-.03,.33-.09,0,.1,.05,.21,.11,.33,.1,.15,.24,.25,.42,.29,.45,.04,1.19-.49,2.21-1.57,.24-.31,.46-.61,.66-.9Zm2.36,1.56c-.63-1.02-1.16-1.98-1.56-2.87,.14-.12,.34-.19,.59-.19h5.16c.35-.01,.57,.08,.64,.27,.06,.14,.01,.35-.13,.59-.73,1.55-1.77,2.94-3.16,4.2-.53-.55-1.05-1.21-1.55-1.99Zm5.25,15.39c.46,0,.85-.16,1.18-.47,.27-.28,.41-.66,.41-1.15v-5.28c0-.5-.14-.91-.39-1.25-.28-.33-.69-.49-1.2-.49h-7.67c-.55,0-.98,.16-1.31,.47-.27,.31-.42,.74-.43,1.28v5.28c-.02,.46,.13,.84,.43,1.15,.28,.28,.72,.43,1.31,.47h7.67Zm-.68-7.33c.32-.02,.58,.05,.76,.22,.13,.13,.2,.33,.21,.62v4.21c0,.28-.08,.51-.24,.68-.18,.19-.42,.29-.73,.29h-6.61c-.26,0-.48-.07-.63-.22-.15-.18-.21-.42-.19-.75v-4.21c-.01-.23,.05-.43,.18-.61,.15-.14,.36-.22,.65-.23h6.61Z" style="fill: #fdf5e7;"/>
        <path d="M64.41,79.95c-.18,0-.34,.06-.49,.18-.1,.13-.16,.28-.17,.46,0,.19,.06,.35,.17,.48,.11,.1,.27,.16,.49,.18h5.39c.19,0,.35-.07,.47-.21,.1-.13,.16-.28,.17-.46,0-.19-.06-.36-.17-.48-.11-.11-.27-.16-.47-.16h-5.39Zm2.11,5.01v14.25c0,.22,.05,.4,.17,.52,.14,.09,.28,.16,.46,.17,.19-.02,.35-.08,.46-.2,.13-.13,.2-.3,.2-.5v-14.25h2.34c.19,0,.34-.07,.47-.2,.1-.13,.16-.28,.17-.46,0-.19-.06-.35-.17-.48-.11-.1-.26-.15-.47-.16h-6.34c-.2,0-.35,.06-.5,.18-.1,.13-.15,.29-.17,.46,0,.2,.06,.35,.17,.49,.11,.1,.27,.16,.5,.18h2.71Zm-2.37,2.38c0,2.61-.28,5.35-.84,8.25,0,.22,.02,.41,.12,.55,.1,.14,.24,.22,.4,.27,.19,.03,.35-.02,.48-.11,.4-.3,.78-3.24,1.13-8.81-.02-.06-.02-.11,0-.16,.01-.22-.04-.39-.18-.5-.13-.11-.29-.17-.48-.18-.2,0-.33,.06-.45,.2-.1,.13-.16,.3-.17,.5Zm5.75-.11c0-.22-.09-.39-.24-.53-.13-.09-.3-.13-.51-.11-.17,.01-.32,.09-.45,.25-.09,.13-.12,.3-.11,.5l.71,7.24c.01,.22,.1,.39,.24,.52,.14,.09,.29,.13,.46,.11,.19-.01,.34-.09,.43-.21,.11-.15,.16-.32,.16-.53l-.72-7.24Zm9.64-6.75v-.95c0-.19-.07-.35-.2-.49-.13-.1-.28-.16-.46-.17-.19,0-.34,.06-.48,.17-.11,.1-.16,.27-.16,.49v.95h-2.05v-.95c0-.19-.07-.35-.2-.49-.13-.1-.28-.16-.45-.17-.2,0-.36,.06-.49,.17-.11,.1-.16,.27-.16,.49v.95h-2.05c-.46,0-.83,.15-1.12,.46-.31,.28-.46,.64-.44,1.12v4.04c-.02,.41,.1,.77,.35,1.1,.24,.3,.64,.46,1.22,.49h8.91c.46,0,.84-.16,1.16-.47,.28-.31,.42-.69,.43-1.12v-4.04c-.01-.46-.16-.84-.43-1.14-.28-.31-.66-.46-1.16-.44h-2.21Zm-1.3,5.91h-2.05v-1.61h2.05v1.61Zm1.3-1.61h2.49v.78c-.01,.26-.08,.47-.21,.61-.16,.14-.35,.21-.6,.23h-1.68v-1.61Zm-1.3-1.3h-2.05v-1.7h2.05v1.7Zm1.3-1.7h1.68c.28,0,.49,.06,.62,.19,.13,.15,.19,.32,.19,.51v.99h-2.49v-1.7Zm-4.65,4.61h-1.61c-.26,0-.44-.06-.53-.2-.11-.15-.16-.36-.17-.63v-.78h2.3v1.61Zm0-2.92h-2.3v-.99c0-.22,.05-.38,.17-.51,.1-.14,.28-.2,.53-.19h1.61v1.7Zm-3.68,5.29c-.19,0-.36,.06-.49,.18-.1,.13-.16,.28-.18,.46,0,.19,.05,.35,.18,.49,.1,.1,.27,.16,.49,.17h12.09c.19,0,.34-.06,.46-.2,.1-.14,.17-.28,.18-.46,0-.2-.05-.35-.18-.48-.1-.11-.25-.16-.46-.16h-12.09Zm3.08,9.09h-3.18c-.18,0-.35,.05-.48,.17-.1,.13-.16,.28-.18,.46,0,.18,.06,.35,.18,.49,.1,.09,.26,.16,.48,.17h12.27c.2,0,.36-.07,.46-.2,.11-.13,.17-.28,.19-.46,0-.2-.07-.36-.19-.49-.1-.11-.25-.15-.46-.15h-3c.05-.15,.24-.83,.57-2.06h.58c.35-.01,.63-.12,.84-.34,.23-.27,.35-.55,.35-.84v-2.3c0-.32-.1-.6-.31-.85-.23-.27-.53-.4-.88-.4h-8.32c-.36,0-.66,.13-.9,.4-.21,.23-.33,.52-.33,.85v2.3c-.01,.32,.1,.61,.33,.86,.22,.19,.52,.31,.9,.33h.51c.22,.8,.41,1.48,.57,2.06Zm1.32,0c-.27-1.03-.46-1.72-.57-2.06h4.6c-.19,.75-.4,1.44-.62,2.06h-3.42Zm5.27-5.5c.19,0,.33,.06,.41,.18,.06,.13,.1,.28,.11,.46v.97c-.01,.15-.06,.27-.15,.37-.06,.11-.19,.16-.38,.16h-6.97c-.19,0-.35-.04-.46-.13-.1-.06-.16-.19-.18-.4v-.97c0-.19,.05-.35,.16-.49,.1-.1,.26-.15,.48-.15h6.97Z" style="fill: #fdf5e7;"/>
        <path d="M97.7,94.05c-.8,.41-1.6,.78-2.39,1.12-.19,.06-.31,.18-.36,.35-.06,.15-.05,.32,.02,.51,.09,.15,.21,.26,.38,.35,.4,.17,1.77-.45,4.13-1.88,1.5-.9,2.28-1.52,2.33-1.85,0-.18-.06-.33-.18-.49-.1-.14-.24-.23-.42-.25-.18-.02-.34,.04-.49,.17-.41,.32-.99,.73-1.75,1.21v-7.63h1.99c.19,0,.34-.07,.46-.21,.1-.13,.17-.29,.19-.46,0-.19-.07-.36-.19-.49-.1-.1-.25-.15-.46-.15h-1.99v-4.47c0-.2-.06-.36-.2-.49-.13-.1-.29-.16-.46-.17-.19,0-.35,.05-.47,.17-.11,.1-.15,.27-.15,.49v4.47h-2.1c-.19,0-.36,.06-.49,.17-.1,.14-.16,.29-.18,.47,0,.19,.06,.35,.18,.49,.11,.1,.27,.16,.49,.18h2.1v8.38Zm8.71-6.35h5.78c.32,0,.6,.11,.82,.37,.14,.19,.21,1.23,.18,3.12-.08,2.96-.19,4.74-.3,5.35-.12,.48-.29,.82-.56,1.04-.79,.67-2.57,.62-5.33-.16-.44-.09-.73,.05-.86,.42-.06,.17-.04,.35,.05,.53,.05,.13,.21,.24,.43,.31,1.15,.4,2.34,.61,3.58,.66,1.15,0,2.07-.18,2.76-.57,.48-.28,.83-.72,1.01-1.3,.19-.63,.32-1.47,.39-2.51,.07-1.47,.13-3.57,.2-6.29,0-.9-.23-1.54-.68-1.92-.28-.24-.65-.35-1.08-.35h-6.31c0-.15,0-.28,.02-.42v-2.96h8.42c.2,0,.35-.06,.47-.2,.1-.13,.16-.28,.17-.45,0-.2-.06-.36-.17-.49-.11-.09-.26-.15-.47-.16h-6.12v-2.35c0-.2-.07-.36-.2-.49-.13-.1-.28-.16-.46-.17-.19,0-.35,.06-.48,.17-.1,.1-.16,.27-.16,.49v2.35h-5.44c-.19,0-.35,.07-.49,.18-.09,.13-.15,.29-.17,.47,0,.19,.06,.35,.17,.48,.11,.1,.28,.16,.49,.17h3.16v2.96c0,5.34-1.77,9.31-5.32,11.91-.57,.18-.73,.54-.46,1.08,0,0,0,0,.02,.03,.14,.17,.28,.28,.44,.3,.27,.05,.82-.25,1.66-.88,2.95-2.82,4.58-6.39,4.87-10.71Z" style="fill: #fdf5e7;"/>
      </g>
    </g>
  </g>
</svg>