<?xml version="1.0" encoding="UTF-8"?>
<svg id="b" data-name="圖層 2" xmlns="http://www.w3.org/2000/svg" width="22.62" height="22.62" viewBox="0 0 22.62 22.62">
  <g id="c" data-name="圖層 1">
    <g>
      <rect x="0" y="0" width="22.62" height="22.62" rx="4.13" ry="4.13" style="fill: #fdf5e7;"/>
      <path d="M18.85,10.24c0-3.37-3.38-6.12-7.54-6.12S3.77,6.87,3.77,10.24c0,3.02,2.68,5.56,6.31,6.04,.25,.05,.58,.16,.66,.37,.08,.19,.05,.49,.02,.68,0,0-.09,.53-.11,.65-.03,.19-.15,.75,.65,.41,.8-.34,4.34-2.56,5.92-4.38h0c1.09-1.2,1.62-2.41,1.62-3.77Zm-10.2,1.8c0,.08-.06,.14-.14,.14h-2.12c-.08,0-.14-.06-.14-.14h0v-3.29c0-.08,.06-.14,.14-.14h.53c.08,0,.14,.06,.14,.14v2.61h1.44c.08,0,.14,.06,.14,.14v.53Zm1.28,0c0,.08-.06,.14-.14,.14h-.53c-.08,0-.14-.06-.14-.14v-3.29c0-.08,.06-.14,.14-.14h.53c.08,0,.14,.06,.14,.14v3.29Zm3.64,0c0,.08-.06,.14-.14,.14h-.53s-.03,0-.04,0c0,0,0,0,0,0,0,0,0,0,0,0,0,0,0,0,0,0,0,0,0,0,0,0,0,0,0,0,0,0,0,0,0,0,0,0,0,0,0,0,0,0,0,0,0,0,0,0-.01,0-.03-.02-.04-.04l-1.51-2.04v1.95c0,.08-.06,.14-.14,.14h-.53c-.08,0-.14-.06-.14-.14v-3.29c0-.08,.06-.14,.14-.14h.53s0,0,0,0c0,0,0,0,0,0,0,0,0,0,0,0,0,0,0,0,0,0,0,0,0,0,0,0,0,0,0,0,0,0,0,0,0,0,0,0,0,0,0,0,0,0,0,0,0,0,0,0,0,0,0,0,0,0,0,0,0,0,0,0,0,0,0,0,0,0,0,0,0,0,0,0h0s0,0,0,0h0s0,0,0,.01c0,0,0,0,0,0,0,0,0,0,.01,.01l1.51,2.03v-1.95c0-.08,.06-.14,.14-.14h.53c.08,0,.14,.06,.14,.14v3.29Zm2.92-2.76c0,.08-.06,.14-.14,.14h-1.44v.56h1.44c.08,0,.14,.06,.14,.14v.53c0,.08-.06,.14-.14,.14h-1.44v.56h1.44c.08,0,.14,.06,.14,.14v.53c0,.08-.06,.14-.14,.14h-2.12c-.08,0-.14-.06-.14-.14h0v-3.29h0c0-.08,.06-.15,.14-.15h2.12c.08,0,.14,.06,.14,.14v.53Z" style="fill: #80292d;"/>
    </g>
  </g>
</svg>