<?xml version="1.0" encoding="UTF-8"?>
<svg id="b" data-name="圖層 2" xmlns="http://www.w3.org/2000/svg" width="22.62" height="22.62" viewBox="0 0 22.62 22.62">
  <g id="c" data-name="圖層 1">
    <g>
      <rect x="0" y="0" width="22.62" height="22.62" rx="4.13" ry="4.13" style="fill: #fdf5e7;"/>
      <path d="M14.82,3.01H7.8c-2.65,0-4.79,2.15-4.79,4.79v7.02c0,2.65,2.15,4.79,4.79,4.79h7.02c2.65,0,4.79-2.15,4.79-4.79V7.8c0-2.65-2.15-4.79-4.79-4.79Zm3.26,11.94c0,1.76-1.42,3.18-3.18,3.18H7.72c-1.76,0-3.18-1.42-3.18-3.18V7.76c0-1.76,1.42-3.18,3.18-3.18h7.18c1.76,0,3.18,1.42,3.18,3.18v7.18Z" style="fill: #80292d;"/>
      <path d="M11.31,7.04c-2.38,0-4.31,1.93-4.31,4.31s1.93,4.31,4.31,4.31,4.31-1.93,4.31-4.31-1.93-4.31-4.31-4.31Zm0,7.1c-1.54,0-2.79-1.25-2.79-2.79s1.25-2.79,2.79-2.79,2.79,1.25,2.79,2.79-1.25,2.79-2.79,2.79Z" style="fill: #80292d;"/>
      <circle cx="15.76" cy="6.88" r="1" style="fill: #80292d;"/>
    </g>
  </g>
</svg>