<?xml version="1.0" encoding="UTF-8"?>
<svg id="b" data-name="圖層 2" xmlns="http://www.w3.org/2000/svg" width="389.69" height="211.96" viewBox="0 0 389.69 211.96">
  <g id="c" data-name="禮盒蓋子">
    <g>
      <path d="M125.79,155.08c-.65-1.73-2.34-5.54-3.17-7.02v14.83h-2.92v-15.15c-.79,3.85-2.23,8.53-4.1,10.94-.32-.97-.97-2.48-1.48-3.38,1.44-1.94,2.92-5.62,3.49-8.64l2.09,.72v-2.45h-5v-3.13h5v-11.91h2.92v11.91h4.21v3.13h-4.21v3.02l1.73-1.22c.68,.9,3.13,4.93,3.67,5.9l-2.23,2.45Zm-9.29-14.69c-.29-2.05-1.01-5.22-1.73-7.63l2.38-.54c.79,2.38,1.55,5.51,1.87,7.52l-2.52,.65Zm31.06,.94v2.52h-20.09v-2.52h8.21v-2.02h-6.88v-2.38h6.88v-1.84h-7.74v-1.83c-1.01,2.48-2.05,5.47-2.95,7.31l-2.12-.76c.79-2.02,1.8-5.33,2.27-7.59l2.81,.94v-.5h7.74v-2.77h3.24v2.77h8.24v2.45h-8.24v1.84h7.56v2.38h-7.56v2.02h8.64Zm-1.91,18.32c0,1.48-.32,2.27-1.37,2.7-1.01,.47-2.63,.5-4.86,.47-.14-.79-.54-1.94-.94-2.7,1.51,.07,2.99,.07,3.42,.04,.47,0,.61-.14,.61-.54v-2.38h-10.55c-.36,2.2-1.15,4.36-2.59,6.01-.47-.61-1.69-1.8-2.34-2.16,2.12-2.59,2.34-6.12,2.34-8.93v-6.48h16.27v13.97Zm-3.13-4.68v-2.23h-10.11c0,.68-.04,1.48-.11,2.23h10.22Zm-10.11-6.73v2.2h10.11v-2.2h-10.11Z" style="fill: #a08778;"/>
      <path d="M166.8,147.09c-.58,3.1-1.51,6.26-2.81,8.89,.72,.4,1.48,1.01,2.81,1.8,2.45,1.51,5.76,1.73,9.97,1.73s10.47-.32,14.43-.83c-.4,.9-.94,2.56-.97,3.46-2.77,.18-9.4,.4-13.61,.4-4.75,0-7.81-.4-10.4-1.91-1.48-.83-2.77-2.09-3.56-2.09s-2.05,2.34-2.99,4.54l-2.3-3.1c.97-1.26,1.91-2.34,2.81-3.13l-.04-.04c1.4-1.98,2.52-4.82,3.17-7.56h-4.54c.9-2.12,1.94-5.04,2.84-7.85h-3.6v-3.02h7.77c-.79,2.56-1.8,5.51-2.7,7.99h1.26l.5-.11,1.94,.83Zm-4.64-10.12c-.5-1.62-1.48-4.21-2.16-6.12l3.02-.83c.72,1.91,1.73,4.39,2.23,5.94l-3.1,1.01Zm15.08,16.77c-1.87,1.76-4.79,3.49-7.2,4.64-.58-.61-1.73-1.58-2.48-2.05,2.48-.9,5.04-2.2,6.66-3.53h-7.24v-2.56h5.98v-2.84h-4.61v-2.52h4.61v-2.27h3.06v2.27h5v-2.27h3.1v2.27h4.72v2.52h-4.72v2.84h6.19v2.56h-7.74c2.52,1.19,5.26,2.77,6.84,4l-2.92,1.44c-1.48-1.22-4.03-2.88-6.41-4.1l1.87-1.33h-7.45l2.74,.94Zm.32-14.94c-.25,.76-.47,1.84-.58,2.41-7.06,1.19-8.17,1.44-8.78,1.76-.18-.68-.72-1.94-1.12-2.52,.47-.25,1.01-.83,1.01-2.16v-7.16h9.79v6.41h-7.13v2.27l6.8-1.01Zm-6.8-5.51v2.05h4.32v-2.05h-4.32Zm5.26,16.95h5v-2.84h-5v2.84Zm6.84-8.21c-2.77,0-3.46-1.04-3.46-3.71v-7.16h9.94v6.41h-7.24v.79c0,.97,.11,1.33,.94,1.33h4.18c.68,0,1.8-.07,2.34-.22,.07,.72,.14,1.73,.25,2.34-.5,.18-1.51,.22-2.48,.22h-4.46Zm-.76-8.71v2.05h4.36v-2.05h-4.36Z" style="fill: #a08778;"/>
      <path d="M233.25,136.36h-21.02c.72,1.22,1.62,2.84,2.09,3.82l-2.63,1.01h8.6c.83-1.4,1.8-3.38,2.34-4.75l3.35,.72c-.79,1.37-1.66,2.81-2.52,4.03h7.96v18.29c0,1.66-.4,2.34-1.55,2.77-1.15,.43-3.02,.47-6.01,.47-.14-.79-.58-1.84-1.01-2.56,2.09,.07,4.14,.07,4.64,.04,.61,0,.83-.18,.83-.72v-15.59h-6.55v1.73c0,.79,.07,1.08,.72,1.08h2.56c.54,0,1.55-.04,2.05-.18,.07,.79,.11,1.58,.22,2.34-.47,.14-1.4,.18-2.2,.18h-3.35c-2.48,0-2.95-1.12-2.95-3.46v-1.69h-3.42c-.54,3.53-2.16,5.51-7.09,6.59-.25-.72-.9-1.73-1.51-2.27v14.61h-3.17v-21.63h7.63c-.43-1.08-1.33-2.81-1.98-4l2.41-.83h-9.93v-2.84h14.51c-.32-1.01-.76-2.16-1.12-3.1l3.2-.79c.5,1.22,1.08,2.74,1.44,3.89h13.46v2.84Zm-26.46,11.81c3.92-.72,5.22-1.94,5.65-4.28h-5.65v4.28Zm6.66,10.22v1.58h-2.81v-9.97h13.43v8.39h-10.62Zm0-5.97v3.56h7.88v-3.56h-7.88Z" style="fill: #a08778;"/>
      <path d="M245.64,147.12h13.03v15.51h-3.31v-1.62h-6.55v1.87h-3.17v-15.77Zm3.17,3.2v7.49h6.55v-7.49h-6.55Zm22.03-6.7h-20.12v-12.27h20.12v12.27Zm-3.42-9.07h-13.5v5.87h13.5v-5.87Zm8.46,12.56v15.59h-3.35v-1.69h-7.13v1.87h-3.2v-15.77h13.68Zm-3.35,10.69v-7.49h-7.13v7.49h7.13Z" style="fill: #a08778;"/>
    </g>
    <g>
      <g>
        <line x1="7.64" y1="86.96" x2="383.07" y2="86.96" style="fill: none; stroke: #89202a; stroke-miterlimit: 10; stroke-width: 3.05px;"/>
        <line x1="7.64" y1="79.24" x2="383.07" y2="79.24" style="fill: none; stroke: #89202a; stroke-miterlimit: 10; stroke-width: 1.02px;"/>
      </g>
      <g>
        <rect x="1.18" y="88.34" width="6.62" height="6.62" transform="translate(8.98 183.3) rotate(180)" style="fill: #89202a;"/>
        <rect x="383.07" y="88.51" width="6.62" height="6.62" transform="translate(772.76 183.65) rotate(180)" style="fill: #89202a;"/>
      </g>
    </g>
    <g>
      <g>
        <line x1="382.05" y1="203.74" x2="6.62" y2="203.74" style="fill: none; stroke: #89202a; stroke-miterlimit: 10; stroke-width: 3.05px;"/>
        <line x1="382.05" y1="211.46" x2="6.62" y2="211.46" style="fill: none; stroke: #89202a; stroke-miterlimit: 10; stroke-width: 1.02px;"/>
      </g>
      <g>
        <rect x="381.89" y="195.73" width="6.62" height="6.62" style="fill: #89202a;"/>
        <rect y="195.56" width="6.62" height="6.62" style="fill: #89202a;"/>
      </g>
    </g>
    <g>
      <path d="M144.87,19.7l-.1-.35,1.44-.41c.99-4.99,3.13-8.92,7.84-11.34l-.02-.06c-2.51,.71-5.06,1.3-7.57,2.01-5.46,1.54-14.39,5.21-13.01,10.12,.63,2.25,3.61,2.41,5.57,1.86,4.01-1.13,6.29-3.99,5.26-7.65-.11-.4-.17-.61-.26-.8l.35-.1c.08,.29,.19,.57,.26,.83,1.11,3.93-1.43,7.97-5.33,9.07-2.37,.67-5.35-.08-6.1-2.74-.62-2.19,.21-3.89,1.47-5.4,3.77-4.55,9.72-6.76,15.06-8.26,3.18-.89,7.08-1.62,8.72-2.02,1.05-.26,1.52-.12,1.74,.66,.18,.63-.42,1.27-2.07,1.73-1.18,.33-2.41,.52-3.62,.86-3.55,1-4.73,7.32-5.39,10.4,1.41-.52,3.47-.95,3.61-2.76,1.02-.38,2.08-.71,3.11-1-2.03,2.63-4.12,5.52-4.5,8.9l-.23,.07c.08-2.05,.44-4.08,1.03-5.96-.71,.36-2.3,.9-3.07,1.15-1.7,5.9-3.5,11.46-10.23,13.35-2.31,.65-6.16,.58-6.97-2.28-.3-1.07,.14-2.25,1.18-2.55,.84-.24,1.65,.1,1.89,.96,.16,.58,0,1.31-.71,1.57,.73,2.16,2.6,2.48,4.56,1.92,5.17-1.46,6.06-7.78,7.32-12.16l-1.27,.36Z" style="fill: #8a202a;"/>
      <path d="M175.15,15.89c-.64,1.13-1.57,2.32-2.88,2.52-.92,.15-1.61-.17-2.28-.79-.29,4.09-3.4,7.99-7.52,8.64-2.16,.35-3.8-.76-4.14-2.92-.67-4.21,3.51-8.64,7.45-9.27,2.1-.34,3.59,.79,4.11,2.35,.4,1.15,1.23,1.81,2.33,1.63,1.07-.17,1.86-.93,2.72-2.38l.22,.21Zm-7.91-.07c-.16-.98-.67-1.5-1.55-1.36-2.99,.48-5.02,7.57-4.62,10.06,.16,.98,.67,1.5,1.55,1.36,2.99-.48,5.02-7.57,4.62-10.06Z" style="fill: #8a202a;"/>
      <path d="M173.06,24.05c1.77-3.65,3.64-7.28,5.43-11l3.4-.38-3.53,5.86,.06,.06c2.71-3.93,4.4-4.72,4.95-5.37,.8-.93,1.3-1.06,3.54-1.29-.67,1.13-1.36,2.36-1.26,3.71,.07,.9,.52,1.25,1.38,1.19,1.14-.08,2.08-1.21,2.74-2.01l.13,.14c-1,1.46-2.49,2.56-4.28,2.7-1.59,.12-2.64-.67-2.76-2.29-.04-.51,.1-1.06,.34-1.5l-.06-.05c-3.21,2.5-5.56,6.52-7.08,9.92l-3.02,.32Z" style="fill: #8a202a;"/>
      <path d="M216.4,.24c-1.13,.19-2.02,1.29-2.11,2.43-.04,.51-.05,1.08,.12,1.54,2.24-.94,5.57-1.71,8.33-1.5,3.05,.23,4.72,1.23,4.58,3.12-.21,2.81-4.21,3.17-6.3,3.01-2.72-.21-4.76-1.11-6.34-3.31-2.66,1.69-5.59,5.05-5.84,8.4-.14,1.82,.43,3.4,2.47,3.56,1.7,.13,4.31-1.27,5.17-2.74,1-1.7,1.58-3.04,3.77-2.87,.57,.04,.92,.13,.9,.4-.08,1.08-1.99,2.8-2.38,3.61-1.35,2.79-6.07,8.26-12.74,7.75-2.42-.18-5.25-1.39-5.04-4.2,.1-1.26,.73-2.41,2.07-2.31,.75,.06,1.5,.5,1.41,1.61-.05,.63-.44,1.02-1.17,1.11-.05,.27-.16,.56-.19,.86-.16,2.06,1.5,2.46,3.23,2.59,4.34,.33,7.26-4.47,9.52-7.37l-.06-.06c-1.69,1.29-4,2.37-6.21,2.21-2.6-.2-3.99-2.08-3.8-4.62,.34-4.46,4.54-7.45,8.25-9.15-.09-.46-.18-.8-.13-1.39,.12-1.53,1.07-2.63,2.51-2.91l-.02,.24Zm6.13,2.81c-2.21-.17-5.85,1-7.61,2.31,1.25,1.78,2.8,2.68,5.02,2.85,2.96,.22,5.35-1.16,5.49-2.98,.09-1.2-.57-2-2.9-2.18Z" style="fill: #8a202a;"/>
      <path d="M230.68,15.44c-4.65,5.23-6.62,7.25-6.82,8.47-.08,.47,.05,.83,.4,.89,.77,.12,2.36-.47,4.87-2.31,2.04-1.49,4.01-3.18,4.86-3.89l.24,.22c-1.18,1.09-3.42,2.91-5.21,4.2-2.65,1.91-4.32,2.46-5.71,2.23-1.3-.21-1.91-1.13-1.73-2.26,.25-1.54,1.6-2.9,6.02-7.9l3.07,.35Zm3.98-4.67c-.13,.8-1,1.45-1.79,1.32-.86-.14-1.53-.7-1.38-1.62,.15-.92,1.09-1.46,1.98-1.32,.74,.12,1.32,.88,1.2,1.62Z" style="fill: #8a202a;"/>
      <path d="M240.96,18.15c-6.19,6.43-12.95,16.91-23.4,14.58-2.37-.53-5.4-2.12-4.74-5.08,.5-2.25,2.91-3.01,5.02-2.54,.53,.12,.98,.28,1.32,.42l-.05,.23c-1.9-.3-3.45,.74-3.87,2.61-.45,2.02,.35,3.55,2.87,4.11,6.94,1.54,14.78-9.8,20.02-14.97l-2.81-.62,.41-.46,2.87,.64c3.13-3.42,8.48-8.69,13.72-7.52,1.61,.36,3.05,1.48,2.69,3.12-.31,1.41-1.64,1.85-3.02,1.54-.21-.05-.37-.11-.51-.18,.51-.62,.94-1.33,1.14-2.24,.25-1.11-.14-1.84-.9-2.01-2.99-.66-8.6,6.08-10.3,7.91l7.55,1.68-.44,.46-7.55-1.68Z" style="fill: #8a202a;"/>
      <path d="M247.03,19.69l.35-.46,2.22,.63,3.2-3.02,3.15,.77-3.46,3.07,3.66,1.05-.41,.44-3.72-1.06c-5.09,4.72-6.77,6.11-7.09,7.24-.14,.49,.05,.92,.54,1.06,.95,.27,2.95-.28,5.23-1.5,1.59-.86,3.65-2.2,5.4-3.51l.13,.19c-1.19,.91-3.12,2.29-5.2,3.44-2.3,1.28-4.74,2.17-6.5,1.67-1.21-.35-2.17-1.15-1.77-2.53,.57-1.99,2.98-3.55,6.42-6.87l-2.16-.62Z" style="fill: #8a202a;"/>
    </g>
  </g>
</svg>