<?xml version="1.0" encoding="UTF-8"?>
<svg id="b" data-name="圖層 2" xmlns="http://www.w3.org/2000/svg" width="184.64" height="26.28" viewBox="0 0 184.64 26.28">
  <g id="c" data-name="圖層 1">
    <g>
      <g>
        <path d="M39.03,13.14c-.2,1.84-.54,3.82-.96,5.1-.3-.16-.94-.38-1.3-.46,.46-1.26,.72-3.12,.9-4.86l1.36,.22Zm2.8-.76c-.04-.3-.08-.64-.14-1.02-3.34,.48-3.9,.64-4.26,.82-.08-.32-.32-1.08-.5-1.48,.4-.1,.8-.62,1.34-1.38,.24-.34,.74-1.1,1.3-2.08-1.6,.18-2.02,.28-2.28,.42-.08-.32-.32-1.08-.5-1.48,.34-.08,.62-.5,.98-1.1,.34-.6,1.48-2.92,2.08-5.08l1.52,.6c-.68,1.82-1.56,3.72-2.48,5.28l1.5-.14c.46-.88,.92-1.86,1.3-2.8l1.42,.8c-1.04,2.28-2.42,4.62-3.84,6.52l2.12-.26c-.16-.66-.32-1.36-.52-1.96l1.2-.28c.46,1.38,.92,3.16,1.04,4.22l-1.28,.4Zm-1.14,.54c.24,1.48,.46,3.4,.5,4.68l-1.24,.22c-.02-1.28-.22-3.22-.44-4.72l1.18-.18Zm1.58-.46c.42,1.24,.86,2.84,1.02,3.9l-1.14,.34c-.18-1.06-.56-2.7-.96-3.94l1.08-.3Zm12.98,3.86v1.46h-11.66V.74h1.58V7.66h9.6v1.38h-2.94l.92,.4c-.36,.82-.82,1.66-1.3,2.32l1.2-.12c.2-.32,.38-.66,.56-1l1.1,.52c-.72,1.2-1.58,2.4-2.44,3.34l1.44-.18c-.1-.34-.18-.64-.3-.94l1.02-.26c.3,.82,.62,1.92,.74,2.58l-1.08,.32c-.02-.22-.08-.48-.14-.76-2.48,.36-2.96,.5-3.22,.62-.06-.24-.24-.84-.38-1.12,.3-.06,.58-.32,.94-.72,.2-.2,.58-.68,1.04-1.32-1.24,.2-1.56,.3-1.76,.4-.06-.26-.26-.84-.4-1.14,.22-.06,.44-.24,.6-.52,.2-.28,.86-1.34,1.18-2.42h-4.26l1.1,.46c-.34,.8-.8,1.56-1.26,2.2l1-.1c.18-.3,.32-.6,.46-.9l1.14,.52c-.7,1.16-1.52,2.3-2.34,3.2l1.14-.14c-.06-.24-.12-.48-.18-.68l.92-.26c.26,.8,.54,1.84,.6,2.46l-.96,.34c-.04-.26-.08-.56-.16-.9-2.18,.34-2.64,.44-2.88,.56-.06-.24-.24-.82-.38-1.12,.28-.04,.56-.3,.92-.68,.16-.2,.56-.68,1.02-1.32-1.1,.18-1.42,.28-1.6,.38-.08-.26-.24-.84-.4-1.16,.22-.04,.42-.22,.62-.46,.18-.28,.86-1.34,1.2-2.4h-2.08v7.28h10.08Zm-6.4-8.84c-.04-.26-.08-.56-.14-.9-2.18,.34-2.64,.44-2.9,.58-.06-.26-.22-.86-.38-1.14,.28-.04,.56-.3,.9-.68,.16-.16,.48-.56,.86-1.1-.94,.16-1.22,.24-1.4,.34-.08-.28-.26-.88-.4-1.2,.22-.06,.42-.24,.62-.56,.2-.3,.92-1.52,1.26-2.68l1.2,.5c-.38,.92-.9,1.84-1.38,2.6l.84-.1c.2-.36,.4-.72,.56-1.06l1.12,.5c-.68,1.14-1.46,2.28-2.28,3.18l1.16-.14c-.06-.24-.12-.46-.2-.68l.94-.26c.26,.8,.52,1.84,.6,2.46l-.98,.34Zm4.7-.04c-.02-.24-.08-.52-.16-.84-2.48,.36-2.94,.5-3.18,.62-.08-.24-.26-.84-.4-1.12,.3-.06,.58-.32,.94-.72,.18-.16,.5-.58,.9-1.12-1.14,.18-1.44,.28-1.64,.38-.06-.26-.26-.88-.42-1.18,.24-.06,.46-.26,.66-.58,.2-.32,.96-1.58,1.3-2.78l1.2,.48c-.4,.96-.92,1.94-1.46,2.7l1.12-.1c.22-.38,.46-.78,.66-1.16l1.12,.5c-.74,1.2-1.6,2.38-2.46,3.3l1.42-.16c-.08-.3-.18-.58-.28-.86l1.02-.26c.3,.82,.62,1.92,.74,2.58l-1.08,.32Z" style="fill: #80292d;"/>
        <path d="M63.13,13.18c-.2,1.86-.56,3.84-.98,5.12-.32-.18-1.02-.38-1.4-.48,.46-1.28,.74-3.16,.92-4.9l1.46,.26Zm3.24-.82c-.04-.32-.12-.68-.2-1.1-3.74,.56-4.34,.7-4.74,.92-.08-.34-.32-1.12-.52-1.54,.42-.12,.84-.6,1.42-1.36,.26-.32,.8-1.08,1.4-2.06-1.72,.2-2.16,.32-2.44,.44-.08-.34-.34-1.1-.52-1.52,.36-.08,.66-.48,1.04-1.1,.4-.58,1.62-2.86,2.3-5.02l1.56,.64c-.72,1.8-1.68,3.64-2.66,5.14l1.68-.14c.46-.86,.94-1.8,1.34-2.7l1.44,.84c-1.12,2.24-2.56,4.5-4.04,6.36l2.44-.32c-.16-.6-.34-1.22-.52-1.76l1.28-.34c.46,1.38,.94,3.14,1.1,4.18l-1.36,.44Zm-1.46,.52c.26,1.46,.46,3.32,.52,4.58l-1.38,.26c-.02-1.26-.2-3.16-.42-4.62l1.28-.22Zm1.74-.5c.38,1.14,.86,2.66,1.04,3.64l-1.26,.4c-.18-.98-.58-2.52-.98-3.7l1.2-.34Zm8.6,3.16c1.42,.5,2.92,1.1,3.9,1.54l-.76,1.32c-1.06-.5-2.74-1.26-4.24-1.82l.6-1.04h-3.24l1.1,1.02c-1.52,.7-3.46,1.44-4.86,1.96-.14-.36-.44-.92-.7-1.3,1.2-.4,2.94-1.12,4.06-1.68h-2.92v-5.88h9.92v5.88h-2.86Zm-2.9-13.24h-4.92V1.04h4.92V.06h1.82v.98h4.68v1.26h-4.68v.88h3.98v1.2h-9.94v-1.2h4.14v-.88Zm-4.82,2.76h11.24v3.84h-11.24v-3.84Zm1.54,2.64h1.88v-1.44h-1.88v1.44Zm.78,3.72h6.54v-.72h-6.54v.72Zm0,1.52h6.54v-.74h-6.54v.74Zm0,1.58h6.54v-.8h-6.54v.8Zm4.26-6.82v-1.44h-1.74v1.44h1.74Zm3.04-1.44h-1.62v1.44h1.62v-1.44Z" style="fill: #80292d;"/>
        <path d="M88.33,14.1c-.5,1.64-1.36,3.28-2.26,4.34-.32-.28-1.02-.74-1.4-.96,.9-.94,1.64-2.34,2.02-3.78l1.64,.4Zm3.2-.7h-5.82V.8h5.82V13.4Zm-1.68-11.08h-2.52v2.22h2.52V2.32Zm0,3.64h-2.52v2.26h2.52v-2.26Zm0,3.66h-2.52v2.28h2.52v-2.28Zm.66,4.06c.64,.98,1.34,2.28,1.66,3.14l-1.46,.7c-.26-.86-.98-2.24-1.6-3.24l1.4-.6Zm12.68,1.5h-1.06v1.44c0,.82-.18,1.26-.76,1.52-.6,.26-1.52,.26-2.9,.26-.06-.42-.28-1.08-.5-1.5,.92,.04,1.84,.04,2.1,.02,.28,0,.34-.08,.34-.32v-1.42h-5.78v3.26h-1.66v-3.26h-1.18v-1.36h1.18v-5.06h3.68v-.96h-4.78v-1.38h2.7v-1.06h-1.8v-1.32h1.8v-.98h-2.3V1.68h2.3V.06h1.64V1.68h2.56V.06h1.66V1.68h2.3v1.38h-2.3v.98h1.98v1.32h-1.98v1.06h2.72v1.38h-4.86v.96h3.84v5.06h1.06v1.36Zm-8.56-5.04v1.18h2.02v-1.18h-2.02Zm0,3.68h2.02v-1.28h-2.02v1.28Zm1.58-9.78h2.56v-.98h-2.56v.98Zm0,2.38h2.56v-1.06h-2.56v1.06Zm2.08,3.72v1.18h2.12v-1.18h-2.12Zm2.12,3.68v-1.28h-2.12v1.28h2.12Z" style="fill: #80292d;"/>
        <path d="M116.62,15.96c-1.64,1.02-4.2,1.98-6.22,2.52-.32-.36-.98-1.06-1.4-1.38,2.1-.4,4.52-1.14,5.92-1.9l1.7,.76ZM125.86,.94V5.54h-15.5V.94h15.5Zm-1.12,5.6V15.16h-13.24V6.54h13.24Zm-12.64-2.42h2.84v-1.76h-2.84v1.76Zm1.26,4.92h9.46v-1.26h-9.46v1.26Zm0,2.42h9.46v-1.24h-9.46v1.24Zm0,2.48h9.46v-1.3h-9.46v1.3Zm3.18-9.82h2.92v-1.76h-2.92v1.76Zm4.4,11.1c2.22,.68,4.72,1.6,6.22,2.26l-1.98,.96c-1.28-.64-3.5-1.54-5.7-2.24l1.46-.98Zm.1-11.1h3.02v-1.76h-3.02v1.76Z" style="fill: #80292d;"/>
      </g>
      <g>
        <polyline points="8.68 25.33 180.25 25.33 157.79 15.17" style="fill: none; stroke: #8a202a; stroke-miterlimit: 10; stroke-width: 1.9px;"/>
        <rect y="15.17" width="8.68" height="9.21" transform="translate(8.68 39.55) rotate(180)" style="fill: #8a202a;"/>
      </g>
    </g>
  </g>
</svg>