<?xml version="1.0" encoding="UTF-8"?>
<svg id="b" data-name="圖層 2" xmlns="http://www.w3.org/2000/svg" width="184.64" height="26.3" viewBox="0 0 184.64 26.3">
  <g id="c" data-name="圖層 1">
    <g>
      <path d="M45.8,16.48c0,.86-.18,1.32-.76,1.58-.6,.3-1.5,.32-2.76,.32-.12-.46-.38-1.18-.62-1.6,.88,.04,1.76,.04,2,.02,.28-.02,.36-.1,.36-.36v-2.26h-4.1c-.22,1.56-.64,3.12-1.5,4.3-.3-.3-1.02-.86-1.42-1.06,1.3-1.82,1.44-4.38,1.44-6.34V6.42h7.36v10.06ZM54.96,3.12v1.7h-17.82v-1.7h4.58c-.34-.72-1.04-1.72-1.66-2.46l1.74-.6c.74,.8,1.58,1.92,1.92,2.68l-1.02,.38h5.76c.66-.94,1.36-2.18,1.76-3.12l2.02,.62c-.54,.86-1.1,1.74-1.66,2.5h4.38Zm-10.94,9.64v-1.7h-3.9v.04c0,.5-.02,1.08-.06,1.66h3.96Zm-3.9-4.84v1.72h3.9v-1.72h-3.9Zm9.52,6.82h-1.72V6.6h1.72V14.74Zm2.26-8.7h1.84v10.24c0,.98-.22,1.48-.9,1.76-.66,.3-1.7,.36-3.2,.34-.08-.5-.4-1.3-.66-1.76,1.12,.04,2.2,.04,2.5,.02,.32-.02,.42-.1,.42-.38V6.04Z" style="fill: #80292d;"/>
      <path d="M67,5.16c-.46,.84-1.02,1.68-1.62,2.5v10.78h-1.9V9.94c-.6,.64-1.24,1.22-1.84,1.72-.16-.42-.62-1.44-.94-1.88,1.7-1.28,3.54-3.28,4.66-5.28l1.64,.66Zm-.32-4.34c-1.18,1.76-3.02,3.66-4.76,4.86-.2-.44-.68-1.18-.96-1.54,1.48-1,3.12-2.64,3.94-4l1.78,.68Zm12.48,15.24v1.78h-12.6v-1.78h5.44v-4.64h-4.18v-1.78h4.18V5.6h-4.86v-1.76h5.38c-.26-.86-.92-2.22-1.54-3.24l1.7-.6c.64,1,1.36,2.32,1.66,3.18l-1.76,.66h6.06v1.76h-4.7v4.04h4.08v1.78h-4.08v4.64h5.22Z" style="fill: #80292d;"/>
      <path d="M91.22,7.64c.52,1.32,1.1,3.08,1.3,4.12l-1.46,.5c-.06-.32-.14-.66-.24-1.06-4.28,.64-4.96,.78-5.38,1-.08-.34-.38-1.2-.56-1.68,.44-.08,.9-.54,1.52-1.28,.3-.3,.88-1.06,1.54-2.02-1.9,.22-2.34,.32-2.64,.46-.1-.36-.36-1.18-.54-1.62,.34-.08,.7-.48,1.12-1.06,.44-.6,1.82-2.86,2.62-4.98l1.68,.7c-.86,1.78-1.94,3.6-3.04,5.08l1.88-.16c.5-.8,1.02-1.68,1.44-2.54l1.54,.94c-1.24,2.16-2.8,4.32-4.36,6.08l2.8-.36c-.2-.6-.4-1.22-.6-1.74l1.38-.38Zm-4.02,5.56c-.2,1.78-.54,3.7-.96,4.92-.32-.16-1.04-.4-1.44-.52,.46-1.2,.72-3.02,.9-4.66l1.5,.26Zm2.08-.3c.28,1.42,.52,3.26,.6,4.48l-1.44,.28c-.06-1.22-.28-3.08-.5-4.5l1.34-.26Zm2-.52c.46,1.22,.96,2.8,1.16,3.86l-1.36,.44c-.18-1.06-.64-2.68-1.08-3.9l1.28-.4Zm7.26-8.02v2.76h3.94v1.7h-9.48v-1.7h3.62v-2.76h-4.18v-1.72h4.18V.08h1.92V2.64h4.46v1.72h-4.46Zm-5.14,6.32h8.56v7.66h-1.8v-.78h-5.02v.86h-1.74v-7.74Zm1.74,1.68v3.52h5.02v-3.52h-5.02Z" style="fill: #80292d;"/>
      <path d="M115.92,12.42c0,.62-.08,1.12-.46,1.4-.36,.28-.82,.32-1.5,.32-.04-.42-.24-1.14-.46-1.56,.42,.02,.76,.02,.88,.02,.14-.02,.18-.06,.18-.22V5.46h-1.18v13h-1.56V5.46h-1.08V14.36h-1.4V3.8h2.48V.12h1.56V3.8h2.54V12.42Zm10.68-.26c-.9,.68-1.9,1.4-2.76,1.96,.98,1.06,2.14,1.98,3.4,2.52-.4,.36-.96,1.04-1.22,1.5-2.72-1.38-4.84-4.2-6.06-7.42h-1.04v5.38l2.98-.94c0,.48,.04,1.16,.12,1.54-3.78,1.3-4.42,1.56-4.78,1.86-.14-.46-.58-1.3-.88-1.68,.32-.24,.8-.76,.8-1.58v-4.58h-.86v-1.58h1.3V.98h8.82v1.48h-7.02v1.28h6.22v1.34h-6.22v1.32h6.32v1.38h-6.32v1.36h7.54v1.58h-5.32c.34,.82,.8,1.6,1.32,2.32,.82-.62,1.72-1.42,2.28-2.04l1.38,1.16Z" style="fill: #80292d;"/>
    </g>
    <g>
      <polyline points="8.68 25.35 180.25 25.35 157.79 15.19" style="fill: none; stroke: #8a202a; stroke-miterlimit: 10; stroke-width: 1.9px;"/>
      <rect y="15.19" width="8.68" height="9.21" transform="translate(8.68 39.58) rotate(180)" style="fill: #8a202a;"/>
    </g>
  </g>
</svg>