<?xml version="1.0" encoding="UTF-8"?>
<svg id="b" data-name="圖層 2" xmlns="http://www.w3.org/2000/svg" width="156.66" height="178.1" viewBox="0 0 156.66 178.1">
  <g id="c" data-name="圖層 1">
    <g>
      <path d="M52.57,172.17c5.37,1.91,10.92,3.2,16.52,3.87,22.61,2.72,46.21-4.59,63.56-21.95,30-30,30-78.65,0-108.65-30-30-78.65-30-108.65,0-30,30-30,78.65,0,108.65" style="fill: none; stroke: #fff8eb; stroke-linecap: round; stroke-linejoin: round; stroke-width: 3px;"/>
      <g>
        <path d="M125.94,142.21c0-24.45-21.92-44.26-48.95-44.26s-48.95,19.82-48.95,44.26" style="fill: none; stroke: #fff8eb; stroke-linecap: round; stroke-linejoin: round; stroke-width: 3px;"/>
        <line x1="35.52" y1="142.21" x2="117.39" y2="142.21" style="fill: none; stroke: #fff8eb; stroke-linecap: round; stroke-linejoin: round; stroke-width: 3px;"/>
      </g>
      <path d="M68.09,87.34c2.47,1.64,5.32,2.57,8.37,2.57,9.32,0,16.87-8.77,16.87-19.59s-7.55-19.59-16.87-19.59-16.87,8.77-16.87,19.59c0,4.59,1.36,8.82,3.64,12.16" style="fill: none; stroke: #fff8eb; stroke-linecap: round; stroke-linejoin: round; stroke-width: 3px;"/>
      <g>
        <path d="M56.58,2.17h0m-1.11,1.92l13.49,14.02-18.89-4.67,5.4-9.35M55.14,0c-.45,0-.9,.23-1.15,.67l-7.61,13.19c-.44,.77-.03,1.75,.83,1.96l31.13,7.7L56.1,.41C55.83,.13,55.48,0,55.14,0h0Z" style="fill: #fff8eb;"/>
        <path d="M102.59,2.49h0m-1.54,1.6l5.4,9.35-18.89,4.67,13.49-14.02M101.39,0c-.35,0-.69,.13-.96,.41l-22.23,23.11,31.13-7.7c.86-.21,1.28-1.19,.83-1.96L102.54,.67C102.29,.23,101.84,0,101.39,0h0Z" style="fill: #fff8eb;"/>
        <path d="M112.05,38.59c-18.78,0-34-7.01-34-15.66" style="fill: none; stroke: #fff8eb; stroke-linecap: round; stroke-linejoin: round; stroke-width: 3px;"/>
        <path d="M78.05,22.94c0,8.65-15.22,15.66-34,15.66" style="fill: none; stroke: #fff8eb; stroke-linecap: round; stroke-linejoin: round; stroke-width: 3px;"/>
      </g>
    </g>
  </g>
</svg>