<?xml version="1.0" encoding="UTF-8"?>
<svg id="b" data-name="圖層 2" xmlns="http://www.w3.org/2000/svg" width="329.24" height="64.85" viewBox="0 0 329.24 64.85">
  <g id="c" data-name="圖層 1">
    <g>
      <line x1="318.55" y1="59.15" x2="9.99" y2="59.15" style="fill: none; stroke: #80292d; stroke-miterlimit: 10;"/>
      <path d="M10.69,59.15s-2.87,4.21,2.34,5.16c5.2,.95-12.53-15.06-12.53-15.06" style="fill: none; stroke: #80292d; stroke-miterlimit: 10;"/>
      <path d="M318.55,59.15s2.87,4.21-2.34,5.16c-5.2,.95,12.53-15.06,12.53-15.06" style="fill: none; stroke: #80292d; stroke-miterlimit: 10;"/>
      <g>
        <line x1="10.69" y1="5.7" x2="319.24" y2="5.7" style="fill: none; stroke: #80292d; stroke-miterlimit: 10;"/>
        <path d="M318.55,5.7s2.87-4.21-2.34-5.16c-5.2-.95,12.53,15.06,12.53,15.06" style="fill: none; stroke: #80292d; stroke-miterlimit: 10;"/>
        <path d="M10.69,5.7S7.83,1.49,13.03,.54,.5,15.6,.5,15.6" style="fill: none; stroke: #80292d; stroke-miterlimit: 10;"/>
      </g>
      <line x1="328.74" y1="21.58" x2="328.74" y2="43.05" style="fill: none; stroke: #80292d; stroke-miterlimit: 10;"/>
      <line x1=".5" y1="21.58" x2=".5" y2="43.05" style="fill: none; stroke: #80292d; stroke-miterlimit: 10;"/>
    </g>
    <g>
      <path d="M35.01,27.87c-.67,.72-1.37,1.39-2.04,1.94-.29-.43-.96-1.37-1.42-1.78,2.18-1.63,4.32-4.15,5.64-6.75l1.97,.67c-.55,1.1-1.27,2.21-2.02,3.26v9.89h-2.14v-7.25Zm-3.17,13.58c.91-1.39,1.8-3.55,2.35-5.16l1.97,.82c-.6,1.63-1.42,3.87-2.23,5.35l-2.09-1.01Zm14.04-.53c1.22,0,1.44-.34,1.58-2.71,.5,.38,1.44,.72,2.04,.82-.29,3.17-.96,3.94-3.46,3.94h-5.23c-3.07,0-3.86-.62-3.86-2.81v-3.91h2.23v3.86c0,.7,.29,.82,1.78,.82h4.92Zm-3.7-15.55c-.74,1.18-1.56,2.23-2.4,3.05-.36-.38-1.18-1.1-1.66-1.39,1.58-1.37,2.9-3.46,3.65-5.64l2.04,.5c-.19,.55-.38,1.06-.62,1.58h8.28l.34-.07,1.56,.38c-.6,1.42-1.32,3.07-1.9,4.1l-1.9-.41c.29-.55,.65-1.34,.96-2.11h-8.35Zm1.58,3.19c-.79,1.87-2.09,3.74-3.36,4.97-.38-.36-1.18-1.01-1.66-1.32,1.25-1.06,2.35-2.62,2.98-4.2l2.04,.55Zm.07,10.9c-.55-1.15-1.97-2.9-3.22-4.15l1.73-.94c1.25,1.15,2.71,2.83,3.36,4.01l-1.87,1.08Zm3.53-4.44h-2.14v-8.88h2.14v8.88Zm2.83-7.06c1.18,1.42,2.4,3.31,2.93,4.61l-1.87,.98c-.53-1.29-1.75-3.29-2.86-4.75l1.8-.84Zm.6,7.87c1.1,1.7,2.21,3.91,2.62,5.42l-2.14,.84c-.34-1.46-1.39-3.77-2.45-5.5l1.97-.77Z" style="fill: #3e3a39;"/>
      <path d="M81.76,24.84v5.11h-2.21v-3.22h-15.99v3.22h-2.11v-5.11h3.48c-.38-.77-1.03-1.7-1.58-2.42l1.94-.79c.82,.89,1.63,2.06,2.02,2.88l-.74,.34h3.74v-3.48h2.23v3.48h3.6l-.53-.19c.65-.84,1.49-2.16,1.92-3.1l2.35,.72c-.65,.91-1.37,1.82-1.97,2.57h3.84Zm-18.65,9.79h17.14v8.76h-2.26v-.58h-12.75v.62h-2.14v-8.81Zm2.14,1.66v1.63h5.16v-1.63h-5.16Zm5.16,4.85v-1.66h-5.16v1.66h5.16Zm7.44-12.91v5.21h-12.53v-5.21h12.53Zm-2.23,1.66h-8.21v1.9h8.21v-1.9Zm2.38,6.41h-5.4v1.63h5.4v-1.63Zm0,4.85v-1.66h-5.4v1.66h5.4Z" style="fill: #3e3a39;"/>
      <path d="M97.5,37.3c-.46-.72-1.42-1.92-2.28-3v9.1h-2.3v-8.83c-.89,1.01-1.78,1.9-2.69,2.59-.22-.6-.77-1.75-1.13-2.19,2.3-1.66,4.75-4.56,6.17-7.46h-5.59v-2.02h4.37c-.43-.89-1.27-2.23-1.99-3.19l1.7-.98c.82,.98,1.7,2.3,2.14,3.14l-1.61,1.03h2.21l.34-.1,1.25,.89c-.72,1.85-1.7,3.65-2.86,5.33v.22c.19,.19,.41,.38,.65,.62,.65-.7,1.42-1.66,1.85-2.33l1.49,1.22c-.82,.77-1.63,1.54-2.33,2.14,.84,.86,1.66,1.73,1.94,2.06l-1.32,1.75Zm12.89-13.97s-.02,.84-.02,1.15c-.29,12.17-.55,16.27-1.44,17.5-.55,.82-1.13,1.06-1.97,1.18-.82,.12-2.14,.1-3.46,.05-.02-.6-.29-1.54-.67-2.14,1.39,.12,2.59,.12,3.14,.12,.46,0,.72-.1,.94-.43,.74-.84,1.03-4.82,1.27-15.29h-3.98c-.36,8.38-1.49,14.19-5.86,17.93-.31-.43-1.22-1.34-1.75-1.73,4.15-3.17,5.11-8.64,5.35-16.2h-3.53v-2.14h11.98Z" style="fill: #3e3a39;"/>
      <path d="M128.22,25.46l.96-.05-.02,2.09-.94,.07c-.02,2.86-.34,6.51-2.38,9.89,1.18,1.03,2.23,2.04,2.95,2.88l-1.63,1.71c-.65-.79-1.58-1.73-2.64-2.74-1.22,1.46-2.83,2.86-4.97,4.06-.36-.53-1.1-1.32-1.61-1.7,2.14-1.15,3.74-2.47,4.9-3.91-1.37-1.2-2.78-2.4-4.03-3.38,.53-1.68,1.03-3.94,1.51-6.29l-2.16,.12-.24-2.21,2.78-.12c.24-1.54,.43-3.02,.55-4.39l2.35,.12c-.14,1.32-.36,2.71-.58,4.15l3-.17v-1.15h2.18v1.03Zm-2.18,2.26c-1.18,.07-2.3,.14-3.41,.22-.41,2.06-.84,4.1-1.3,5.81,.89,.67,1.82,1.44,2.76,2.21,1.63-2.88,1.92-5.86,1.94-8.23Zm12.79-3.84v18.55h-2.21v-1.44h-4.61v1.78h-2.09V23.88h8.91Zm-2.21,15v-12.89h-4.61v12.89h4.61Z" style="fill: #3e3a39;"/>
      <path d="M154.26,22.01c-.55,1.58-1.27,3.17-2.06,4.66v16.71h-2.21v-13.1c-.62,.91-1.32,1.75-1.99,2.5-.19-.53-.84-1.73-1.2-2.28,2.14-2.21,4.15-5.64,5.38-9.1l2.09,.62Zm14.69,3.7h-1.61v14.86c0,1.42-.34,2.06-1.27,2.42-.94,.36-2.54,.43-4.8,.41-.1-.62-.43-1.63-.77-2.28,1.73,.07,3.46,.05,3.94,.05,.5-.02,.67-.14,.67-.62v-14.83h-10.92v-2.14h14.76v2.14Zm-12.12,11.4v1.63h-2.11v-10.01h7.66v8.38h-5.54Zm0-6.43v4.51h3.48v-4.51h-3.48Z" style="fill: #3e3a39;"/>
      <path d="M183.06,27.43c-.55,.98-1.27,1.99-2.02,2.98v12.96h-2.16v-10.49c-.82,.89-1.7,1.66-2.52,2.33-.19-.5-.77-1.7-1.13-2.26,2.14-1.51,4.44-3.91,5.86-6.31l1.97,.79Zm-.34-5.16c-1.49,2.11-3.84,4.37-6,5.78-.24-.5-.79-1.39-1.15-1.85,1.87-1.2,3.98-3.14,4.99-4.78l2.16,.84Zm14.74,14.74h-3.43v4.06c0,1.1-.22,1.66-1.01,1.97-.79,.34-1.94,.36-3.65,.36-.12-.6-.43-1.44-.72-2.02,1.2,.05,2.35,.05,2.69,.02,.36-.02,.46-.1,.46-.38v-4.01h-9.24v-1.92h9.24v-1.75h-8.67v-1.85h13.87v1.85h-2.98v1.75h3.43v1.92Zm-11.47,.14c1.06,.96,2.35,2.33,2.95,3.24l-1.68,1.2c-.55-.91-1.8-2.35-2.86-3.38l1.58-1.06Zm10.06-7.03h-11.57v-8.04h11.57v8.04Zm-2.26-6.41h-7.15v1.61h7.15v-1.61Zm0,3.14h-7.15v1.61h7.15v-1.61Z" style="fill: #3e3a39;"/>
      <path d="M211.41,32.98c-.07,.46-.12,.91-.22,1.37,1.2,1.18,3.96,4.3,4.66,5.09l-1.54,1.92c-.79-1.2-2.4-3.26-3.67-4.73-.79,2.47-2.21,4.87-4.75,6.72-.31-.48-1.13-1.37-1.58-1.7,3.38-2.4,4.49-5.67,4.85-8.67h-4.56v-2.11h4.7v-4.3h-1.46c-.5,1.32-1.13,2.52-1.78,3.48-.41-.38-1.3-.98-1.82-1.3,1.37-1.75,2.3-4.56,2.86-7.37l2.14,.41c-.19,.91-.41,1.82-.65,2.69h6.55v2.09h-3.58v4.3h4.25v2.11h-4.39Zm13.87-9.55v19.01h-2.26v-1.54h-4.37v1.8h-2.16V23.42h8.79Zm-2.26,15.39v-13.27h-4.37v13.27h4.37Z" style="fill: #3e3a39;"/>
      <path d="M247.93,28.46c1.66,3.79,4.39,7.34,7.46,9.22-.55,.46-1.37,1.32-1.75,1.97-1.03-.72-2.02-1.61-2.9-2.62v2.09h-5.3v4.25h-2.35v-4.25h-5.3v-2.14c-.96,1.05-1.94,1.97-2.98,2.74-.38-.58-1.1-1.37-1.66-1.82,3.02-1.92,5.74-5.57,7.37-9.43h-6.62v-2.26h9.19v-4.85h2.35v4.85h9.31v2.26h-6.82Zm-4.85,8.4v-8.4h-.31c-1.18,3.14-2.88,6.1-4.92,8.4h5.23Zm7.49,0c-2.02-2.3-3.7-5.28-4.87-8.4h-.26v8.4h5.14Z" style="fill: #3e3a39;"/>
      <path d="M283.74,24.17v2.11h-17.38v4.01c0,3.77-.36,9.46-2.54,13.13-.41-.38-1.44-1.08-1.97-1.3,2.04-3.43,2.21-8.38,2.21-11.86v-6.1h9.17c-.29-.77-.67-1.61-1.08-2.28l2.21-.5c.58,.84,1.08,1.92,1.39,2.78h7.99Zm-8.21,5.45h7.54v2.04h-7.54v2.76h6.41v8.64h-2.28v-.89h-9.34v.94h-2.18v-8.69h5.09v-7.37h2.3v2.57Zm4.13,6.86h-9.34v3.7h9.34v-3.7Z" style="fill: #3e3a39;"/>
      <path d="M297.76,27.67c0-1.32-.84-2.33-2.35-2.33-1.13,0-2.11,.58-2.9,1.46l-1.56-1.42c1.18-1.34,2.78-2.3,4.78-2.3,2.79,0,4.73,1.58,4.73,4.39,0,3.5-4.27,4.8-3.86,8.38h-2.42c-.58-4.03,3.6-5.57,3.6-8.18Zm-4.2,12.22c0-1.13,.79-1.97,1.85-1.97s1.85,.84,1.85,1.97-.82,1.92-1.85,1.92-1.85-.79-1.85-1.92Z" style="fill: #3e3a39;"/>
    </g>
  </g>
</svg>