<?xml version="1.0" encoding="UTF-8"?>
<svg id="b" data-name="圖層 2" xmlns="http://www.w3.org/2000/svg" width="389.69" height="207.08" viewBox="0 0 389.69 207.08">
  <g id="c" data-name="首頁">
    <g>
      <rect x="7.21" y="82.07" width="374.25" height="115.4" style="fill: #fff;"/>
      <g>
        <path d="M126.63,145.44l-3.64,.97v11.59h-3.2v-10.76c-1.84,.5-3.56,.94-5.11,1.3l-.9-3.38c1.66-.32,3.74-.76,6.01-1.3v-8.53h-2.7c-.36,2.02-.9,3.82-1.48,5.29-.54-.32-1.76-.79-2.45-1.01,1.33-2.99,2.05-7.6,2.45-11.99l2.59,.4c-.14,1.37-.32,2.77-.5,4.1h2.09v-7.16h3.2v7.16h3.38v3.2h-3.38v7.81l3.31-.79,.32,3.1Zm19.69,.14h-3.82v8.5c0,1.8-.36,2.74-1.62,3.24-1.19,.54-3.1,.58-5.62,.58-.18-.94-.65-2.38-1.12-3.31,1.87,.07,3.74,.07,4.32,.07,.58-.04,.72-.14,.72-.65v-8.42h-11.95v-3.09h11.95v-3.02h3.31v3.02h3.82v3.09Zm-11.63-14.04h-7.16v-3.02h7.16v-3.6h3.31v3.6h7.52v3.02h-7.52v3.96h6.41v3.1h-15.48v-3.1h5.76v-3.96Zm-2.95,14.69c1.62,1.69,3.56,4,4.46,5.58l-2.66,1.69c-.83-1.58-2.74-4-4.32-5.76l2.52-1.51Z" style="fill: #a08778;"/>
        <path d="M182.18,154.33c3.46,0,4.03-.94,4.46-5.51,.83,.54,2.27,1.01,3.17,1.19-.68,5.72-1.91,7.38-7.56,7.38h-13.1c-6.08,0-7.95-1.12-7.95-5.69v-14.29c-.9,.76-1.8,1.44-2.7,2.05-.32-.72-1.26-2.41-1.8-3.17,4.28-2.59,8.6-6.84,11.05-11.48l3.06,1.12c-.36,.68-.79,1.33-1.22,2.02h8.93l.68-.18,2.2,1.55c-1.26,1.84-2.84,3.82-4.5,5.54h9.36v13.07h-3.31v-1.4h-18.5v5.18c0,2.16,.68,2.63,4.61,2.63h13.14Zm-14.72-23.4c-1.04,1.37-2.2,2.7-3.46,3.92h8.85c1.19-1.12,2.41-2.56,3.38-3.92h-8.78Zm-3.02,12.38h7.56v-5.36h-7.56v5.36Zm18.5-5.36h-7.67v5.36h7.67v-5.36Z" style="fill: #a08778;"/>
        <path d="M232.25,131.48h-21.02c.72,1.22,1.62,2.84,2.09,3.82l-2.63,1.01h8.6c.83-1.4,1.8-3.38,2.34-4.75l3.35,.72c-.79,1.37-1.66,2.81-2.52,4.03h7.96v18.29c0,1.66-.4,2.34-1.55,2.77-1.15,.43-3.02,.47-6.01,.47-.14-.79-.58-1.84-1.01-2.56,2.09,.07,4.14,.07,4.64,.04,.61,0,.83-.18,.83-.72v-15.59h-6.55v1.73c0,.79,.07,1.08,.72,1.08h2.56c.54,0,1.55-.04,2.05-.18,.07,.79,.11,1.58,.22,2.34-.47,.14-1.4,.18-2.2,.18h-3.35c-2.48,0-2.95-1.12-2.95-3.46v-1.69h-3.42c-.54,3.53-2.16,5.51-7.09,6.59-.25-.72-.9-1.73-1.51-2.27v14.61h-3.17v-21.63h7.63c-.43-1.08-1.33-2.81-1.98-4l2.41-.83h-9.93v-2.84h14.51c-.32-1.01-.76-2.16-1.12-3.1l3.2-.79c.5,1.22,1.08,2.74,1.44,3.89h13.46v2.84Zm-26.46,11.81c3.92-.72,5.22-1.94,5.65-4.28h-5.65v4.28Zm6.66,10.22v1.58h-2.81v-9.97h13.43v8.39h-10.62Zm0-5.97v3.56h7.88v-3.56h-7.88Z" style="fill: #a08778;"/>
        <path d="M244.64,142.24h13.03v15.52h-3.31v-1.62h-6.55v1.87h-3.17v-15.77Zm3.17,3.2v7.49h6.55v-7.49h-6.55Zm22.03-6.7h-20.12v-12.27h20.12v12.27Zm-3.42-9.07h-13.5v5.87h13.5v-5.87Zm8.46,12.56v15.59h-3.35v-1.69h-7.13v1.87h-3.2v-15.77h13.68Zm-3.35,10.69v-7.49h-7.13v7.49h7.13Z" style="fill: #a08778;"/>
      </g>
      <g>
        <g>
          <line x1="7.64" y1="82.07" x2="383.07" y2="82.07" style="fill: none; stroke: #89202a; stroke-miterlimit: 10; stroke-width: 3.05px;"/>
          <line x1="7.64" y1="74.36" x2="383.07" y2="74.36" style="fill: none; stroke: #89202a; stroke-miterlimit: 10; stroke-width: 1.02px;"/>
        </g>
        <g>
          <rect x="1.18" y="83.45" width="6.62" height="6.62" transform="translate(8.98 173.53) rotate(180)" style="fill: #89202a;"/>
          <rect x="383.07" y="83.63" width="6.62" height="6.62" transform="translate(772.76 173.88) rotate(180)" style="fill: #89202a;"/>
        </g>
      </g>
      <g>
        <g>
          <line x1="382.05" y1="198.86" x2="6.62" y2="198.86" style="fill: none; stroke: #89202a; stroke-miterlimit: 10; stroke-width: 3.05px;"/>
          <line x1="382.05" y1="206.57" x2="6.62" y2="206.57" style="fill: none; stroke: #89202a; stroke-miterlimit: 10; stroke-width: 1.02px;"/>
        </g>
        <g>
          <rect x="381.89" y="190.85" width="6.62" height="6.62" style="fill: #89202a;"/>
          <rect y="190.68" width="6.62" height="6.62" style="fill: #89202a;"/>
        </g>
      </g>
      <g>
        <path d="M143.88,15.44l-.1-.35,1.44-.41c.97-4.99,3.08-8.94,7.78-11.38l-.02-.06c-2.51,.72-5.05,1.33-7.56,2.05-5.45,1.57-14.37,5.28-12.96,10.19,.65,2.25,3.62,2.39,5.58,1.83,4.01-1.15,6.28-4.02,5.22-7.68-.12-.4-.17-.61-.26-.8l.35-.1c.08,.29,.19,.57,.27,.83,1.13,3.92-1.39,7.99-5.28,9.1-2.36,.68-5.35-.05-6.12-2.71-.63-2.19,.19-3.9,1.44-5.41,3.74-4.57,9.69-6.81,15.02-8.34,3.17-.91,7.08-1.66,8.71-2.07,1.05-.27,1.52-.13,1.75,.65,.18,.63-.41,1.27-2.06,1.75-1.18,.34-2.41,.54-3.62,.88-3.55,1.02-4.7,7.34-5.34,10.43,1.41-.53,3.47-.97,3.6-2.78,1.01-.38,2.07-.72,3.11-1.02-2.02,2.64-4.09,5.55-4.46,8.93l-.23,.07c.07-2.05,.42-4.08,1-5.97-.71,.36-2.3,.91-3.07,1.16-1.67,5.91-3.45,11.48-10.16,13.41-2.31,.66-6.16,.61-6.98-2.24-.31-1.07,.13-2.25,1.17-2.55,.84-.24,1.65,.09,1.9,.95,.17,.58,0,1.31-.7,1.58,.75,2.16,2.61,2.47,4.57,1.9,5.16-1.48,6.03-7.82,7.27-12.2l-1.27,.36Z" style="fill: #8a202a;"/>
        <path d="M171.98,11.69c-.93,1.83-1.99,3.69-3.61,5.76-2.3,2.92-4.71,4.13-6.9,4.5-2.25,.39-3.89-.86-4.26-2.98-.65-3.79,3.79-8.62,7.48-9.26,1.69-.29,2.81,.22,3.01,1.4,.49,2.87-5.74,5.21-7.74,6.01-.03,.37-.03,.73,.03,1.09,.29,1.69,1.5,2.7,3.18,2.41,1.66-.28,3.55-1.67,5.24-3.88,1.29-1.71,2.47-3.68,3.31-5.22l.24,.17Zm-7.69-1.54c-1.98,.34-4.14,4.61-4.31,6.67,3.11-1.2,5.56-4.12,5.24-6.04-.09-.53-.46-.71-.93-.63Z" style="fill: #8a202a;"/>
        <path d="M183.29,8.33l3.1-.43c-.93,2.21-4.75,7.85-4.57,9.98,.04,.54,.36,.72,.81,.69,.96-.08,2.62-1.45,4.27-3.42,1.37-1.65,2.96-3.94,3.6-4.96l.22,.1c-.93,1.46-2.11,3.3-3.84,5.37s-3.5,3.57-5.33,3.72c-1.26,.1-2.06-.58-2.14-1.54-.02-.3-.02-.63,.06-.79h-.06c-1.11,1.48-2.64,2.72-4.4,2.86-1.94,.16-2.79-1.37-2.93-3.04-.32-3.89,4.08-8.61,7.79-8.92,1.38-.11,2.17,.42,2.78,1.64l.65-1.26Zm-6.68,10.42c2.53-.39,5.33-6.64,5.15-8.88-.09-1.08-.47-1.68-1.6-1.58-2.75,.22-5.41,6.01-5.21,8.43,.09,1.14,.44,2.13,1.67,2.03Z" style="fill: #8a202a;"/>
        <path d="M191.8,8.41l.2-.54,2.31-.04,2.19-3.82,3.24-.17-2.43,3.94,3.81-.06-.26,.54-3.87,.06c-3.5,6-4.7,7.82-4.68,8.99,0,.51,.31,.87,.82,.86,.99-.02,2.74-1.12,4.57-2.96,1.27-1.28,2.86-3.17,4.15-4.93l.18,.15c-.88,1.21-2.32,3.1-3.97,4.81-1.83,1.89-3.9,3.45-5.73,3.48-1.26,.02-2.41-.47-2.43-1.91-.03-2.07,1.82-4.26,4.15-8.44l-2.25,.04Z" style="fill: #8a202a;"/>
        <path d="M216.23,8.66c-3.5,4.99-5.97,7.64-6.09,9.38-.03,.42,.16,.67,.52,.7,.99,.07,2.88-1.27,4.45-2.64,1.89-1.67,3.74-3.65,4.59-4.61l.23,.2c-1.04,1.19-2.74,3.03-4.53,4.62-2.15,1.93-3.94,3.03-5.58,2.92-1.2-.08-1.92-.94-1.84-2.02,.05-.75,.27-1.36,.48-1.68l-.06-.06c-1.54,1.43-3.54,3.42-6.09,3.25-1.23-.08-1.82-1.03-1.75-2.08,.11-1.53,2.06-4.19,5.16-8.57l3.18,.1c-3.48,4.6-5.87,7.5-5.98,9.03-.03,.48,.24,.86,.66,.89,1.5,.1,4.65-2.47,6.69-5.37l2.86-4.01,3.1-.03Z" style="fill: #8a202a;"/>
        <path d="M215.96,19.3c2.55-3.16,5.19-6.27,7.78-9.48l3.4,.4-4.77,4.91,.05,.07c3.53-3.22,5.35-3.6,6.04-4.11,.99-.73,1.51-.74,3.74-.45-.91,.95-1.86,1.99-2.06,3.32-.14,.89,.22,1.34,1.08,1.47,1.13,.17,2.29-.71,3.12-1.34l.1,.17c-1.31,1.19-3,1.93-4.78,1.66-1.57-.24-2.42-1.25-2.17-2.85,.08-.5,.34-1.01,.67-1.38l-.05-.07c-3.69,1.71-6.89,5.1-9.14,8.06l-3.01-.37Z" style="fill: #8a202a;"/>
        <path d="M249.59,17.89c-1.58,1.32-3.27,2.62-5.57,3.9-3.26,1.79-5.95,1.96-8.11,1.45-2.22-.52-3.25-2.31-2.75-4.41,.88-3.74,6.85-6.46,10.5-5.61,1.67,.39,2.5,1.3,2.23,2.46-.67,2.83-7.32,2.56-9.47,2.52-.17,.33-.31,.67-.39,1.02-.39,1.67,.33,3.07,1.99,3.46,1.64,.38,3.92-.16,6.34-1.53,1.85-1.07,3.71-2.42,5.08-3.52l.16,.25Zm-6.48-4.42c-1.96-.46-5.61,2.63-6.57,4.47,3.33,.11,6.73-1.62,7.18-3.52,.12-.53-.14-.83-.61-.94Z" style="fill: #8a202a;"/>
        <path d="M251.53,26.85c4.16,.38,7.86-2.16,11.31-4.58l.17,.24c-4.3,3.04-8.4,5.92-13.94,4.16-1.97-.63-3.85-2.04-3.11-4.36,.38-1.2,1.54-2.37,2.89-1.95,.89,.28,1.18,1.04,.98,1.67-.25,.8-.93,1.06-1.53,.87-.23-.07-.42-.17-.58-.34-.31,.28-.58,.63-.72,1.06-.34,1.06,.36,2.13,1.48,2.48,1.4,.45,3.22-.04,3.7-1.53,.32-1,0-1.98-.33-2.91-.33-.95-.66-1.88-.38-2.76,.68-2.14,3.2-2.54,5.23-1.89,1.83,.58,2.97,1.86,2.51,3.29-.35,1.09-1.43,1.62-2.52,1.28-.34-.11-.63-.29-.78-.41,.64-.62,1.05-1.33,1.28-2.05,.25-.77,.03-1.57-.86-1.85-1.06-.34-1.89,.22-2.21,1.22-.34,1.06-.01,2.01,.32,2.96,.33,.92,.65,1.91,.29,3.05-.47,1.49-1.96,2.4-3.16,2.3l-.02,.06Z" style="fill: #8a202a;"/>
      </g>
    </g>
  </g>
</svg>