<?xml version="1.0" encoding="UTF-8"?>
<svg id="b" data-name="圖層 2" xmlns="http://www.w3.org/2000/svg" width="1189.5" height="56.88" viewBox="0 0 1189.5 56.88">
  <g id="c" data-name="首頁">
    <g>
      <path d="M79.11,.44c-18.21,4.86-19.3,25.9-36.57,36.83l.15,.11c13.69-6.72,22.22-18.58,33.22-26.94C84.5,3.93,94.92,.44,102.42,.44c3.71,0,5.03,.22,5.03,1.04,0,.76-1.68,.76-2.48,.76-1.24,0-2.4-.22-3.42-.38-1.02-.16-1.82-.33-2.26-.33-16.9,5.68-17.77,31.04-41.23,37.59v.11h.66c20.32,0,26.66-7.76,31.98-13.83l.58,.27c-5.54,6.94-13.04,14.21-32.34,14.21-1.53,0-3.42-.11-4.08-.11-.58,0-2.4,.11-4.01,.11-1.31,0-1.97-.22-1.97-.66,0-.49,.51-.77,1.53-.77,1.53,0,3.28,.38,5.54,.66,4.81-.71,11.29-8.36,15.52-15.41,4.81-7.98,12.53-17.1,25.2-21.91l-.15-.11c-21.85,4.26-30.52,21.64-46.33,31.96-3.86,2.51-8.3,5.08-13.04,6.67l-.66-.44c13.55-9.89,11.51-27.32,36.13-37.76l-.15-.11c-14.13,3.99-23.17,13.61-30.6,20.55-7.94,7.38-17.34,17.87-31.1,17.87-4.95,0-10.78-2.19-10.78-6.28,0-2.24,1.46-4.1,4.66-4.1,1.82,0,3.28,.98,3.28,2.35,0,1.64-1.17,2.57-3.28,2.68,.07,3.22,3.21,4.37,7.14,4.37,5.17,0,11.58-2.08,18.14-7.21C44.8,20.71,54.71,4.04,78.67,0l.44,.44Z" style="fill: #fff;"/>
      <path d="M128.35,25.57c-2.99,3.01-6.26,6.01-11,9.23-6.7,4.54-12.97,5.96-18.36,5.96s-8.96-2.73-8.96-6.67c0-6.99,12.6-14.32,21.71-14.32,4.15,0,6.63,1.26,6.63,3.44,0,5.3-15.88,7.6-20.98,8.42-.22,.66-.36,1.31-.36,1.97,0,3.12,2.48,5.3,6.63,5.3s9.18-1.91,14.13-5.36c3.79-2.68,7.43-5.85,10.05-8.36l.51,.38Zm-17.77-5.14c-4.88,0-11.8,6.99-13.04,10.66,7.94-1.2,15.01-5.68,15.01-9.24,0-.98-.8-1.42-1.97-1.42Z" style="fill: #fff;"/>
      <path d="M165.29,25.57c-2.99,3.01-6.26,6.01-11,9.23-6.7,4.54-12.97,5.96-18.36,5.96s-8.96-2.73-8.96-6.67c0-6.99,12.6-14.32,21.71-14.32,4.15,0,6.63,1.26,6.63,3.44,0,5.3-15.88,7.6-20.98,8.42-.22,.66-.36,1.31-.36,1.97,0,3.12,2.48,5.3,6.63,5.3s9.18-1.91,14.13-5.36c3.79-2.68,7.43-5.85,10.05-8.36l.51,.38Zm-17.77-5.14c-4.88,0-11.8,6.99-13.04,10.66,7.94-1.2,15.01-5.68,15.01-9.24,0-.98-.8-1.42-1.97-1.42Z" style="fill: #fff;"/>
      <path d="M167.55,21.64l.51-.98h5.61l5.46-6.88,7.87-.22-6.05,7.1h9.25l-.66,.98h-9.4c-8.74,10.82-11.73,14.1-11.73,16.23,0,.93,.73,1.58,1.97,1.58,2.4,0,6.7-1.97,11.22-5.25,3.13-2.29,7.07-5.68,10.27-8.85l.44,.27c-2.19,2.19-5.75,5.57-9.83,8.63-4.52,3.39-9.62,6.17-14.06,6.17-3.06,0-5.83-.93-5.83-3.55,0-3.77,4.59-7.71,10.42-15.25h-5.46Z" style="fill: #fff;"/>
      <path d="M234.93,20.44c-3.42,3.88-12.53,11.86-12.53,16.45,0,1.2,.66,2.24,2.4,2.24,3.57,0,7.5-3.01,12.38-8.85,3.35-4.04,6.41-8.03,7.87-9.62l7.79-.22c-3.28,3.93-12.6,12.51-12.6,16.99,0,1.37,.87,2.35,2.7,2.35,7.58,0,15.66-9.89,16.1-14.86-.58-.66-1.09-1.42-1.09-2.46,0-1.42,1.09-2.68,3.28-2.68,3.21,0,3.93,2.35,3.93,4.43,0,.77-.15,2.02-.36,3.06,1.53,.93,3.21,1.48,5.1,1.48,3.28,0,5.75-1.64,7.58-3.44l.51,.27c-1.89,2.02-4.81,3.83-8.09,3.83-2.11,0-3.86-.6-5.25-1.42-2.91,7.05-12.31,12.46-22.07,12.46-5.24,0-7.58-2.24-7.58-5.25,0-.66,.15-1.31,.29-1.64l-.15-.11c-3.21,3.5-7.43,6.99-13.26,6.99-3.64,0-5.32-2.02-5.32-4.59,0-4.64,7.28-11.37,10.64-15.19l7.72-.22Z" style="fill: #fff;"/>
      <path d="M294.59,20.65c-9.11,10.76-13.04,14.97-13.04,17.21,0,.87,.44,1.47,1.31,1.47,1.89,0,5.46-1.53,10.78-5.57,4.3-3.28,8.38-6.88,10.13-8.42l.66,.33c-2.4,2.29-7.07,6.23-10.85,9.07-5.61,4.21-9.4,5.68-12.82,5.68-3.21,0-5.03-1.48-5.03-3.55,0-2.84,2.7-5.68,11.36-15.96l7.5-.27Zm7.72-9.56c0,1.47-1.82,2.9-3.79,2.9-2.11,0-3.93-.82-3.93-2.51s2.04-2.95,4.22-2.95c1.82,0,3.5,1.2,3.5,2.57Z" style="fill: #fff;"/>
      <path d="M306.61,21.64l.51-.98h5.61l5.46-6.88,7.87-.22-6.05,7.1h9.25l-.66,.98h-9.4c-8.74,10.82-11.73,14.1-11.73,16.23,0,.93,.73,1.58,1.97,1.58,2.4,0,6.7-1.97,11.22-5.25,3.13-2.29,7.07-5.68,10.27-8.85l.44,.27c-2.19,2.19-5.75,5.57-9.83,8.63-4.52,3.39-9.62,6.17-14.06,6.17-3.06,0-5.83-.93-5.83-3.55,0-3.77,4.59-7.71,10.42-15.25h-5.46Z" style="fill: #fff;"/>
      <path d="M324.53,39.89L355.05,2.13l7.94-.27-24.18,28.63,.15,.11c4.3-3.83,10.85-10.82,18.43-10.82,3.06,0,4.95,1.2,4.95,3.61,0,3.99-10.2,11.2-10.2,14.75,0,.93,.58,1.31,1.53,1.31,4.37,0,16.54-10.55,19.74-13.93l.44,.33c-2.55,2.46-6.26,5.96-10.13,8.91-5.24,4.04-8.52,5.68-12.38,5.68-3.5,0-5.03-1.8-5.03-3.77,0-5.03,10.2-10.71,10.2-13.99,0-1.04-.95-1.58-1.89-1.58-6.26,0-18.94,13.22-22.58,18.63l-7.5,.16Z" style="fill: #fff;"/>
      <path d="M388.49,44.26c-5.1,.05-7.72,2.24-7.72,5.85s3.21,6.12,8.16,6.12c13.7,0,22.95-13.71,29.65-21.04l-.15-.11c-3.13,2.73-7.5,5.36-12.67,5.36-3.93,0-6.12-2.46-6.12-5.19,0-7.16,10.71-15.46,20.32-15.46,3.64,0,5.68,.87,6.85,3.55l1.68-2.35,7.43-.33c-5.24,6.67-10.13,13.66-15.73,20.38,10.85-2.35,18.72-9.12,25.28-15.68l.44,.16c-6.48,7.05-15.3,13.93-26.3,16.28-6.99,9.07-17.63,15.08-31.54,15.08-7.14,0-13.4-1.8-13.4-7.05,0-3.99,4.95-6.23,9.83-6.23,.87,0,3.06,.22,4.01,.27v.38Zm22.07-5.68c6.12,0,13.77-10.66,13.77-14.81,0-1.53-.36-3.33-2.99-3.33-7.14,0-14.71,9.56-14.71,14.37,0,2.13,.66,3.77,3.93,3.77Z" style="fill: #fff;"/>
      <path d="M462.5,20.65c-9.11,10.76-13.04,14.97-13.04,17.21,0,.87,.44,1.47,1.31,1.47,1.89,0,5.46-1.53,10.78-5.57,4.3-3.28,8.38-6.88,10.13-8.42l.66,.33c-2.4,2.29-7.07,6.23-10.85,9.07-5.61,4.21-9.4,5.68-12.82,5.68-3.21,0-5.03-1.48-5.03-3.55,0-2.84,2.7-5.68,11.36-15.96l7.5-.27Zm7.72-9.56c0,1.47-1.82,2.9-3.79,2.9-2.11,0-3.93-.82-3.93-2.51s2.04-2.95,4.22-2.95c1.82,0,3.5,1.2,3.5,2.57Z" style="fill: #fff;"/>
      <path d="M487.56,21.64c-11.29,13.88-21.78,35.19-47.79,35.19-5.9,0-13.91-1.64-13.91-7.16,0-4.21,5.32-6.5,10.56-6.5,1.31,0,2.48,.11,3.35,.22v.44c-4.66,.22-7.79,2.68-7.79,6.17,0,3.77,2.7,6.17,8.96,6.17,17.26,0,29.87-23.28,39.56-34.53h-6.99l.73-.98h7.14c5.61-7.32,15.52-18.8,28.56-18.8,4.01,0,8.01,1.42,8.01,4.48,0,2.62-2.91,3.93-6.34,3.93-.51,0-.95-.05-1.31-.11,.87-1.31,1.53-2.73,1.53-4.43,0-2.08-1.31-3.22-3.21-3.22-7.43,0-17.19,14.21-20.25,18.14h18.79l-.8,.98h-18.79Z" style="fill: #fff;"/>
      <path d="M502.05,21.64l.51-.98h5.61l5.46-6.88,7.87-.22-6.05,7.1h9.25l-.66,.98h-9.4c-8.74,10.82-11.73,14.1-11.73,16.23,0,.93,.73,1.58,1.97,1.58,2.4,0,6.7-1.97,11.22-5.25,3.13-2.29,7.07-5.68,10.27-8.85l.44,.27c-2.19,2.19-5.75,5.57-9.83,8.63-4.52,3.39-9.62,6.17-14.06,6.17-3.06,0-5.83-.93-5.83-3.55,0-3.77,4.59-7.71,10.42-15.25h-5.46Z" style="fill: #fff;"/>
      <path d="M537.9,39.72c9.91-1.64,16.61-8.09,22.8-14.21l.58,.33c-7.72,7.65-15.08,14.92-29.21,14.92-5.03,0-10.42-1.42-10.42-5.85,0-2.29,1.82-4.97,5.24-4.97,2.26,0,3.5,1.15,3.5,2.35,0,1.53-1.38,2.35-2.91,2.35-.58,0-1.09-.05-1.6-.27-.51,.66-.87,1.42-.87,2.24,0,2.02,2.4,3.5,5.25,3.5,3.57,0,7.43-1.86,7.43-4.7,0-1.91-1.46-3.44-2.91-4.86-1.46-1.48-2.91-2.9-2.91-4.59,0-4.1,5.54-6.17,10.71-6.17,4.66,0,8.23,1.58,8.23,4.32,0,2.08-2.11,3.61-4.88,3.61-.87,0-1.68-.16-2.11-.27,1.02-1.42,1.46-2.9,1.46-4.26,0-1.47-1.09-2.73-3.35-2.73-2.7,0-4.23,1.42-4.23,3.33,0,2.02,1.46,3.5,2.91,4.97,1.46,1.42,2.91,2.95,2.91,5.14,0,2.84-2.77,5.25-5.61,5.74v.11Z" style="fill: #fff;"/>
      <path d="M553.7,46.99c5.9-.05,12.17-2.51,13.48-7.1-.29,.11-.66,.22-1.02,.27s-.73,.05-1.17,.05c-1.82,0-2.99-1.15-2.99-2.4,0-1.86,1.97-2.84,4.01-2.84,2.84,0,4.88,1.2,4.88,3.39,0,5.68-9.83,9.07-17.19,9.18v-.55Z" style="fill: #fff;"/>
      <path d="M641.77,29.73c3.71-3.5,10.42-9.95,16.9-9.95,3.13,0,5.17,1.75,5.17,3.61,0,4.92-10.34,10.66-10.34,14.64,0,.82,.51,1.42,1.53,1.42,2.04,0,5.25-1.69,9.76-5.08,3.72-2.79,7.43-6.07,10.05-8.63l.58,.22c-2.26,2.13-6.12,5.79-10.27,8.91-5.54,4.15-8.52,5.57-12.09,5.57s-5.39-1.58-5.39-3.77c0-4.7,10.34-11.2,10.34-13.99,0-1.04-.95-1.58-1.97-1.58-6.26,0-18.58,14.04-21.93,18.58l-7.72,.22c6.63-7.81,13.19-14.37,13.19-17.05,0-.88-.66-1.75-2.11-1.75-6.12,0-18.79,14.04-22.22,18.58l-7.36,.22c5.32-6.39,10.64-12.79,15.66-19.34l8.52-.33-9.69,9.94,.15,.11c4.08-3.55,10.27-10.49,17.99-10.49,2.7,0,4.88,1.09,4.88,3.28,0,2.02-2.19,4.75-3.79,6.56l.15,.11Z" style="fill: #fff;"/>
      <path d="M712.72,25.57c-2.99,3.01-6.26,6.01-11,9.23-6.7,4.54-12.97,5.96-18.36,5.96s-8.96-2.73-8.96-6.67c0-6.99,12.6-14.32,21.71-14.32,4.15,0,6.63,1.26,6.63,3.44,0,5.3-15.88,7.6-20.98,8.42-.22,.66-.36,1.31-.36,1.97,0,3.12,2.48,5.3,6.63,5.3s9.18-1.91,14.13-5.36c3.79-2.68,7.43-5.85,10.05-8.36l.51,.38Zm-17.77-5.14c-4.88,0-11.8,6.99-13.04,10.66,7.94-1.2,15.01-5.68,15.01-9.24,0-.98-.8-1.42-1.97-1.42Z" style="fill: #fff;"/>
      <path d="M749.66,25.57c-2.99,3.01-6.26,6.01-11,9.23-6.7,4.54-12.97,5.96-18.36,5.96s-8.96-2.73-8.96-6.67c0-6.99,12.6-14.32,21.71-14.32,4.15,0,6.63,1.26,6.63,3.44,0,5.3-15.88,7.6-20.98,8.42-.22,.66-.36,1.31-.36,1.97,0,3.12,2.48,5.3,6.63,5.3s9.18-1.91,14.13-5.36c3.79-2.68,7.43-5.85,10.05-8.36l.51,.38Zm-17.77-5.14c-4.88,0-11.8,6.99-13.04,10.66,7.94-1.2,15.01-5.68,15.01-9.24,0-.98-.8-1.42-1.97-1.42Z" style="fill: #fff;"/>
      <path d="M751.92,21.64l.51-.98h5.61l5.46-6.88,7.87-.22-6.05,7.1h9.25l-.66,.98h-9.4c-8.74,10.82-11.73,14.1-11.73,16.23,0,.93,.73,1.58,1.97,1.58,2.4,0,6.7-1.97,11.22-5.25,3.13-2.29,7.07-5.68,10.27-8.85l.44,.27c-2.19,2.19-5.75,5.57-9.83,8.63-4.52,3.39-9.62,6.17-14.06,6.17-3.06,0-5.83-.93-5.83-3.55,0-3.77,4.59-7.71,10.42-15.25h-5.46Z" style="fill: #fff;"/>
      <path d="M819.3,20.44c-3.42,3.88-12.53,11.86-12.53,16.45,0,1.2,.66,2.24,2.4,2.24,3.57,0,7.5-3.01,12.38-8.85,3.35-4.04,6.41-8.03,7.87-9.62l7.79-.22c-3.28,3.93-12.6,12.51-12.6,16.99,0,1.37,.87,2.35,2.7,2.35,7.58,0,15.66-9.89,16.1-14.86-.58-.66-1.09-1.42-1.09-2.46,0-1.42,1.09-2.68,3.28-2.68,3.21,0,3.93,2.35,3.93,4.43,0,.77-.15,2.02-.36,3.06,1.53,.93,3.21,1.48,5.1,1.48,3.28,0,5.75-1.64,7.58-3.44l.51,.27c-1.89,2.02-4.81,3.83-8.09,3.83-2.11,0-3.86-.6-5.25-1.42-2.91,7.05-12.31,12.46-22.07,12.46-5.24,0-7.58-2.24-7.58-5.25,0-.66,.15-1.31,.29-1.64l-.15-.11c-3.21,3.5-7.43,6.99-13.26,6.99-3.64,0-5.32-2.02-5.32-4.59,0-4.64,7.28-11.37,10.64-15.19l7.72-.22Z" style="fill: #fff;"/>
      <path d="M878.96,20.65c-9.11,10.76-13.04,14.97-13.04,17.21,0,.87,.44,1.47,1.31,1.47,1.89,0,5.46-1.53,10.78-5.57,4.3-3.28,8.38-6.88,10.13-8.42l.66,.33c-2.4,2.29-7.07,6.23-10.85,9.07-5.61,4.21-9.4,5.68-12.82,5.68-3.21,0-5.03-1.48-5.03-3.55,0-2.84,2.7-5.68,11.36-15.96l7.5-.27Zm7.72-9.56c0,1.47-1.82,2.9-3.79,2.9-2.11,0-3.93-.82-3.93-2.51s2.04-2.95,4.22-2.95c1.82,0,3.5,1.2,3.5,2.57Z" style="fill: #fff;"/>
      <path d="M890.98,21.64l.51-.98h5.61l5.46-6.88,7.87-.22-6.05,7.1h9.25l-.66,.98h-9.4c-8.74,10.82-11.73,14.1-11.73,16.23,0,.93,.73,1.58,1.97,1.58,2.4,0,6.7-1.97,11.22-5.25,3.13-2.29,7.07-5.68,10.27-8.85l.44,.27c-2.19,2.19-5.75,5.57-9.83,8.63-4.52,3.39-9.62,6.17-14.06,6.17-3.06,0-5.83-.93-5.83-3.55,0-3.77,4.59-7.71,10.42-15.25h-5.46Z" style="fill: #fff;"/>
      <path d="M908.9,39.89l30.52-37.76,7.94-.27-24.18,28.63,.15,.11c4.3-3.83,10.85-10.82,18.43-10.82,3.06,0,4.95,1.2,4.95,3.61,0,3.99-10.2,11.2-10.2,14.75,0,.93,.58,1.31,1.53,1.31,4.37,0,16.54-10.55,19.74-13.93l.44,.33c-2.55,2.46-6.26,5.96-10.13,8.91-5.24,4.04-8.52,5.68-12.38,5.68-3.5,0-5.03-1.8-5.03-3.77,0-5.03,10.2-10.71,10.2-13.99,0-1.04-.95-1.58-1.89-1.58-6.26,0-18.94,13.22-22.58,18.63l-7.5,.16Z" style="fill: #fff;"/>
      <path d="M1022.32,25.79c-7.14,6.61-16.75,14.97-28.99,14.97-5.83,0-9.03-2.46-9.03-6.99,0-6.99,12.17-13.99,21.85-13.99,4.44,0,7.28,1.53,7.28,3.5,0,2.84-3.13,4.48-6.12,4.48-.73,0-1.31-.05-1.68-.11,.66-1.69,1.68-3.44,1.68-5.19,0-1.26-.87-2.02-2.19-2.02-5.1,0-13.84,6.56-13.84,13.5,0,2.79,2.4,4.97,6.34,4.97,9.54,0,19.23-9.02,24.04-13.33l.66,.22Z" style="fill: #fff;"/>
      <path d="M1049.71,20.98l7.58-.33c-2.7,3.88-13.04,13.55-13.04,17.43,0,.98,.73,1.37,1.82,1.37,2.33,0,6.63-2.24,11-5.57,3.64-2.79,7.94-6.72,9.69-8.47l.51,.22c-2.55,2.51-5.75,5.68-10.34,9.18-4.59,3.5-9.18,5.96-13.62,5.96-3.06,0-4.88-1.37-4.88-3.11,0-.55,.07-1.15,.29-1.42h-.15c-2.99,2.51-6.92,4.54-11.22,4.54-4.73,0-6.48-2.9-6.48-5.96,0-7.1,11.58-15.03,20.62-15.03,3.35,0,5.17,1.09,6.41,3.39l1.82-2.19Zm-18.21,17.92c6.19-.33,14.21-11.26,14.21-15.35,0-1.97-.8-3.11-3.57-3.11-6.7,0-14.28,10.11-14.28,14.53,0,2.08,.66,3.93,3.64,3.93Z" style="fill: #fff;"/>
      <path d="M1090.8,1.86l8.01-.33c-8.16,9.78-16.17,19.56-24.77,29.01l.15,.11c4.44-3.88,11.87-10.87,19.38-10.87,2.99,0,4.66,1.37,4.66,3.28,0,3.77-4.66,4.86-12.31,6.5v.11c1.6,.22,3.06,1.75,3.06,3.06,0,2.13-1.46,4.1-1.46,5.74,0,.6,.44,.98,1.17,.98,4.95,0,14.93-8.74,19.96-13.71l.66,.27c-6.05,5.68-15.01,14.75-23.75,14.75-3.06,0-4.59-1.42-4.59-3.39,0-1.75,1.6-4.1,3.79-7.59-1.68,.38-3.72,.87-4.88,.87-.87,0-1.31-.33-1.31-.82,0-.6,.58-.98,2.48-.98,1.31,0,3.5,.33,4.15,.33,1.38,0,6.48-1.75,6.48-5.19,0-1.31-.87-2.24-2.26-2.24-6.26,0-19.01,13.44-22.22,17.98l-7.07,.16,30.67-38.03Z" style="fill: #fff;"/>
      <path d="M1146.67,25.57c-2.99,3.01-6.26,6.01-11,9.23-6.7,4.54-12.97,5.96-18.36,5.96s-8.96-2.73-8.96-6.67c0-6.99,12.6-14.32,21.71-14.32,4.15,0,6.63,1.26,6.63,3.44,0,5.3-15.88,7.6-20.98,8.42-.22,.66-.36,1.31-.36,1.97,0,3.12,2.48,5.3,6.63,5.3s9.18-1.91,14.13-5.36c3.79-2.68,7.43-5.85,10.05-8.36l.51,.38Zm-17.77-5.14c-4.88,0-11.8,6.99-13.04,10.66,7.94-1.2,15.01-5.68,15.01-9.24,0-.98-.8-1.42-1.97-1.42Z" style="fill: #fff;"/>
      <path d="M1157.23,39.72c9.91-1.64,16.61-8.09,22.8-14.21l.58,.33c-7.72,7.65-15.08,14.92-29.21,14.92-5.03,0-10.42-1.42-10.42-5.85,0-2.29,1.82-4.97,5.25-4.97,2.26,0,3.5,1.15,3.5,2.35,0,1.53-1.38,2.35-2.91,2.35-.58,0-1.09-.05-1.6-.27-.51,.66-.87,1.42-.87,2.24,0,2.02,2.4,3.5,5.24,3.5,3.57,0,7.43-1.86,7.43-4.7,0-1.91-1.46-3.44-2.91-4.86-1.46-1.48-2.91-2.9-2.91-4.59,0-4.1,5.54-6.17,10.71-6.17,4.66,0,8.23,1.58,8.23,4.32,0,2.08-2.11,3.61-4.88,3.61-.87,0-1.68-.16-2.11-.27,1.02-1.42,1.46-2.9,1.46-4.26,0-1.47-1.09-2.73-3.35-2.73-2.7,0-4.22,1.42-4.22,3.33,0,2.02,1.46,3.5,2.91,4.97,1.46,1.42,2.91,2.95,2.91,5.14,0,2.84-2.77,5.25-5.61,5.74v.11Z" style="fill: #fff;"/>
      <path d="M1185.42,34.1c2.26,0,4.08,1.37,4.08,3.06s-1.82,3.06-4.08,3.06-4.08-1.37-4.08-3.06,1.82-3.06,4.08-3.06Z" style="fill: #fff;"/>
    </g>
  </g>
</svg>