<?xml version="1.0" encoding="UTF-8"?>
<svg id="b" data-name="圖層 2" xmlns="http://www.w3.org/2000/svg" width="312.67" height="112.98" viewBox="0 0 312.67 112.98">
  <g id="c" data-name="首頁">
    <g>
      <path d="M124.42,33.59c3.7-1.8,6.25-4.63,5.18-8.3-.83-2.83-4.56-4.46-10.23-2.81-18.24,5.32-29.23,37.14-35.93,71.68l-1.61,.29c-.34-1.98-.59-4.08-1.15-6-4.24-14.52-15.46-26.09-20.09-40.3l-.22,.06c-5.61,18.84-13.37,55.5-41.85,63.81-8.01,2.34-16.41,.44-18.28-5.98-.97-3.34,.97-6.62,5.08-7.82,3.23-.94,6.02-.04,6.61,1.96,.63,2.17-.54,3.96-3.19,5.19,.83,4.92,5.23,6.35,11.35,4.56,23.91-6.98,32.64-39.94,37.54-56.22l2.15-7.51c-.87-9.61,4.2-13.72,6.32-14.33,.78-.23,1.19-.08,1.31,.34,.24,.83-1.28,1.82,.35,7.41,1.66,5.67,4.92,11.06,8.36,16.66,3.33,5.63,6.74,11.52,8.71,18.28,.34,1.17,.59,2.45,.71,3.68l.22-.06c3.36-15.37,13.86-54.65,36.89-61.37,6.34-1.85,11.54-.56,12.83,3.86,1.63,5.59-4.64,11.4-10.93,13.42l-.15-.5Z" style="fill: #a48b78;"/>
      <path d="M171.29,42.82c-3.22,5.92-6.89,11.97-12.68,19-8.21,9.91-17.14,14.87-25.37,17.27-8.45,2.47-14.9-.18-16.65-6.18-3.12-10.68,12.86-27.47,26.77-31.53,6.34-1.85,10.68-1.04,11.65,2.3,2.36,8.09-20.86,18.67-28.28,22.19-.04,1.1,.03,2.17,.32,3.17,1.39,4.75,6.14,6.99,12.48,5.14,6.23-1.82,13.16-7.01,19.19-14.47,4.59-5.78,8.74-12.24,11.62-17.24l.95,.36Zm-29.43,.08c-7.45,2.17-14.9,15.94-15.16,22.08,11.59-5.37,20.38-15.36,18.8-20.79-.44-1.5-1.86-1.81-3.64-1.29Z" style="fill: #a48b78;"/>
      <path d="M192.36,28.16c-3.5,7.45-13.85,23.68-11.8,30.69,.54,1.84,2,3.13,4.67,2.35,5.45-1.59,10.12-7.93,14.96-19.03,3.31-7.67,6.21-15.12,7.73-18.19l11.8-3.81c-3.25,7.46-13.67,24.72-11.67,31.56,.61,2.08,2.38,3.2,5.16,2.39,11.57-3.38,19.51-22.08,17.96-29.86-1.18-.74-2.3-1.68-2.76-3.27-.63-2.17,.48-4.58,3.81-5.55,4.89-1.43,7.05,1.83,7.98,5,.34,1.17,.68,3.15,.81,4.83,2.75,.74,5.55,.82,8.44-.02,5-1.46,8.06-5.07,10.03-8.63l.9,.19c-1.99,3.93-5.64,7.98-10.64,9.44-3.23,.94-6.16,.8-8.64,.17-1.31,12.06-13.25,24.51-28.15,28.86-8.01,2.34-12.57-.05-13.9-4.63-.29-1-.36-2.07-.29-2.63l-.27-.1c-3.33,6.77-8.23,13.99-17.13,16.58-5.56,1.62-9.02-.72-10.17-4.64-2.07-7.09,6.06-20.6,9.47-27.93l11.69-3.77Z" style="fill: #a48b78;"/>
      <path d="M283.15,33.62c14.4-6.92,21.75-19.75,28.48-31.85l1.04,.24c-8.38,15.12-16.38,29.49-37.95,35.79-7.67,2.24-16.54,2.47-18.51-4.29-1.02-3.5,.57-8.4,5.79-9.93,3.45-1.01,5.85,.19,6.39,2.03,.68,2.34-1.07,4.2-3.4,4.88-.89,.26-1.69,.4-2.57,.3-.49,1.23-.7,2.56-.34,3.81,.9,3.09,5.23,4.27,9.57,3,5.45-1.59,10.52-6.15,9.25-10.49-.85-2.92-3.76-4.61-6.62-6.12-2.88-1.6-5.74-3.12-6.49-5.71-1.83-6.26,5.7-11.89,13.6-14.2,7.12-2.08,13.27-1.25,14.49,2.92,.93,3.17-1.62,6.45-5.85,7.68-1.33,.39-2.63,.5-3.35,.52,.92-2.62,.93-5.07,.33-7.16-.66-2.25-2.88-3.68-6.33-2.68-4.11,1.2-5.82,4.05-4.97,6.97,.9,3.09,3.78,4.69,6.66,6.29,2.86,1.52,5.76,3.21,6.74,6.54,1.27,4.34-1.89,9.24-6.01,11.26l.05,.17Z" style="fill: #a48b78;"/>
    </g>
  </g>
</svg>