<?xml version="1.0" encoding="UTF-8"?>
<svg id="b" data-name="圖層 2" xmlns="http://www.w3.org/2000/svg" width="109.16" height="37.38" viewBox="0 0 109.16 37.38">
  <g id="c" data-name="頁面">
    <line x1="109.16" y1="37.13" x2="0" y2="37.13" style="fill: none; stroke: #89202a; stroke-miterlimit: 10; stroke-width: .5px;"/>
    <line x1="109.16" y1="10.98" x2="0" y2="10.98" style="fill: none; stroke: #89202a; stroke-miterlimit: 10; stroke-width: .5px;"/>
    <g>
      <path d="M23.34,18.29c-.68,.61-1.51,1.26-2.23,1.75,.82,.44,1.72,.82,2.69,1.07-.31,.29-.73,.87-.95,1.24-.78-.24-1.53-.56-2.21-.95v1.92c0,.39,.05,.51,.29,.51h1.05c.24,0,.65-.02,.83-.07,.02,.32,.05,.78,.1,1.11-.19,.07-.56,.08-.9,.08h-1.24c-1.19,0-1.43-.48-1.43-1.65v-1.34h-1.99v.07c0,1.14-.34,2.5-1.84,3.38-.19-.26-.65-.7-.95-.92v.27h-3.47c-.07,.49-.14,1-.22,1.46h3.72s-.02,.41-.05,.61c-.2,2.33-.39,3.35-.82,3.79-.32,.32-.68,.42-1.21,.46-.46,.05-1.33,.03-2.24,0-.03-.41-.22-.97-.48-1.34,.9,.08,1.79,.1,2.12,.1,.29,0,.46-.02,.61-.15,.22-.2,.39-.85,.53-2.28h-3.72c.22-1.04,.48-2.6,.61-3.86h3.2v-1.53h-2.63v-.24c-.58,.29-1.17,.54-1.75,.75-.19-.34-.56-.9-.85-1.17,1.07-.32,2.16-.83,3.11-1.46-.48-.42-1.17-.92-1.75-1.28l.9-.85c.63,.36,1.41,.88,1.92,1.31,.53-.44,.97-.95,1.34-1.48h-3.67v-1.26h4.5l.25-.05,1,.48c-.73,1.67-1.94,2.99-3.37,4.01h2.4v3.59c1.26-.7,1.45-1.58,1.45-2.38v-1.28h3.54c-1.63-1.17-2.89-2.72-3.74-4.59l1.26-.37c.31,.65,.68,1.26,1.12,1.84,.68-.53,1.46-1.24,1.92-1.79l1.14,.82c-.71,.66-1.56,1.33-2.28,1.82,.34,.34,.7,.63,1.09,.92,.73-.54,1.6-1.33,2.12-1.87l1.16,.8Zm-1.24,7.6c-.46,1.26-1.16,2.26-2.04,3.06,.83,.49,1.6,.97,2.14,1.34l-.82,1.04c-.59-.44-1.45-.99-2.4-1.56-1.11,.71-2.4,1.21-3.83,1.55-.14-.36-.44-.87-.7-1.16,1.21-.22,2.31-.61,3.28-1.14-.87-.53-1.75-1.04-2.53-1.48l.71-.82h-.6v-1.12h5.64l.24-.03,.88,.32Zm-6,.83c.85,.46,1.83,.99,2.79,1.55,.53-.46,.99-.97,1.36-1.55h-4.15Z" style="fill: #727171;"/>
      <path d="M37.15,27.89c-.99,1.21-2.55,2.36-3.91,3.08-.27-.25-.85-.8-1.17-1.04,1.36-.61,2.79-1.56,3.62-2.55l1.46,.51Zm10.15-2.07v1.28h-6.82v4.21h-1.56v-4.21h-6.75v-1.28h15.13Zm-10.27-8.23h-4.64v-1.28h14.58v1.28h-4.71v1.12h3.86v4h-12.75v-4h3.65v-1.12Zm-2.82,7.28v-1.24h11.05v1.24h-11.05Zm.65-3.35h2.18v-1.63h-2.18v1.63Zm5.92-3.93h-2.28v1.12h2.28v-1.12Zm-2.28,3.93h2.28v-1.63h-2.28v1.63Zm4.69,5.92c1.34,.71,3.08,1.8,3.99,2.58l-1.24,.92c-.82-.77-2.53-1.92-3.91-2.69l1.16-.82Zm-.92-7.55v1.63h2.29v-1.63h-2.29Z" style="fill: #727171;"/>
      <path d="M58.62,21.4c-.44,1.12-1.27,2.35-2.12,2.99-.22-.32-.63-.78-.93-1,.82-.49,1.65-1.46,2.09-2.35l.97,.36Zm3.45,9.16c-.58-.51-1.6-1.26-2.53-1.89-.53,.93-1.46,1.82-3.11,2.52-.15-.34-.54-.87-.82-1.16,2.16-.9,2.87-2.06,3.11-3.2h-2.84v-1.31h2.92v-1.48h1.38v1.48h1.58c-.25-.37-.65-.8-.99-1.16l.88-.58c.44,.39,.95,.97,1.19,1.34l-.54,.39h.97v1.31h-3.16c-.02,.2-.05,.42-.1,.61,1,.63,2.26,1.46,2.92,2.01l-.87,1.11Zm-3.16-9.94h-3.01v-1.28h3.01v-3.57h1.38v3.57h2.87v1.28h-2.87v3.09h-1.38v-3.09Zm-1.8-1.84c-.12-.58-.49-1.41-.9-2.06l1.09-.42c.43,.63,.83,1.46,.97,2.01l-1.16,.48Zm4.1,2.35c.44,.27,1.87,1.39,2.23,1.72l-.88,1.02c-.42-.54-1.63-1.7-2.14-2.14l.8-.59Zm1.8-4.4c-.41,.76-.82,1.56-1.16,2.11l-1.05-.36c.32-.58,.7-1.51,.88-2.12l1.33,.37Zm3.94,12.32c-.78,.87-2.09,1.8-3.18,2.31-.25-.29-.7-.77-1.04-1.02,1.09-.49,2.28-1.38,2.87-2.09l1.34,.8Zm-1-9.86c.12-.44,.22-.95,.31-1.39h-2.91v-1.36h7.87v1.36h-3.26c-.17,.48-.34,.97-.51,1.39h3.18v8.84h-6.68v-8.84h2.01Zm3.18,1.21h-3.76v1.36h3.76v-1.36Zm0,2.5h-3.76v1.38h3.76v-1.38Zm0,2.52h-3.76v1.39h3.76v-1.39Zm-.42,2.87c.95,.63,2.19,1.53,2.84,2.18l-1.21,.87c-.58-.65-1.82-1.6-2.79-2.26l1.16-.78Z" style="fill: #727171;"/>
      <path d="M94.91,29.25v1.46h-15.2v-1.46h6.83v-1.8h-5.1v-1.44h5.1v-1.33h-1.28v-3.45h-1.9c-.24,1.43-.9,2.89-2.6,3.88-.2-.29-.75-.88-1.04-1.1,1.38-.78,1.92-1.77,2.14-2.77h-1.92v-1.41h2.06v-2.07h-1.48v-1.39h7.62v1.39h-1.39v2.07h1.77v1.41h-1.77v3.14h1.43v1.63h5v1.44h-5v1.8h6.73Zm-9.64-9.43v-2.07h-1.8v2.07h1.8Zm5.59,2.52h-1.45v-5.66h1.45v5.66Zm3.16,.88c0,.8-.15,1.19-.71,1.43-.54,.22-1.38,.25-2.58,.25-.07-.41-.27-1.04-.48-1.43,.87,.03,1.7,.03,1.94,.02,.27,0,.34-.07,.34-.29v-7.36h1.5v7.38Z" style="fill: #727171;"/>
    </g>
    <g>
      <path d="M52.72,3.04s-6.71-4.25-10.05-1.75c-.89,.67-1.12,1.79-.48,2.7,.82,1.16,3.93,2.19,9.75,1.26" style="fill: none; stroke: #c7ba99; stroke-miterlimit: 10;"/>
      <path d="M56.51,3.04s6.71-4.25,10.05-1.75c.89,.67,1.12,1.79,.48,2.7-.82,1.16-3.93,2.19-9.75,1.26" style="fill: none; stroke: #c7ba99; stroke-miterlimit: 10;"/>
      <path d="M56.51,3.04s6.71-4.25,10.05-1.75c.89,.67,1.12,1.79,.48,2.7-.82,1.16-3.93,2.19-9.75,1.26" style="fill: none; stroke: #89202a; stroke-miterlimit: 10; stroke-width: .25px;"/>
      <line x1="54.6" y1="2.6" x2="54.6" y2="5.61" style="fill: none; stroke: #c7ba99; stroke-linecap: round; stroke-linejoin: round; stroke-width: .75px;"/>
      <line x1="55.68" y1="2.6" x2="55.68" y2="5.61" style="fill: none; stroke: #c7ba99; stroke-linecap: round; stroke-linejoin: round; stroke-width: .75px;"/>
      <line x1="53.52" y1="2.6" x2="53.52" y2="5.61" style="fill: none; stroke: #c7ba99; stroke-linecap: round; stroke-linejoin: round; stroke-width: .75px;"/>
      <path d="M52.72,3.04s-6.71-4.25-10.05-1.75c-.89,.67-1.12,1.79-.48,2.7,.82,1.16,3.93,2.19,9.75,1.26" style="fill: none; stroke: #89202a; stroke-miterlimit: 10; stroke-width: .25px;"/>
      <g>
        <line x1="54.6" y1="2.6" x2="54.6" y2="5.61" style="fill: none; stroke: #89202a; stroke-miterlimit: 10; stroke-width: .25px;"/>
        <line x1="55.68" y1="2.6" x2="55.68" y2="5.61" style="fill: none; stroke: #89202a; stroke-miterlimit: 10; stroke-width: .25px;"/>
        <line x1="53.52" y1="2.6" x2="53.52" y2="5.61" style="fill: none; stroke: #89202a; stroke-miterlimit: 10; stroke-width: .25px;"/>
      </g>
    </g>
  </g>
</svg>