<?xml version="1.0" encoding="UTF-8"?>
<svg id="b" data-name="圖層 2" xmlns="http://www.w3.org/2000/svg" width="389.69" height="212.03" viewBox="0 0 389.69 212.03">
  <g id="c" data-name="圖層 1">
    <g>
      <g>
        <path d="M117.66,127.44c-.23,.27-.41,.58-.67,.86,4.18,3.87,11.79,7.29,18.81,8.77-.85,.72-2.02,2.21-2.65,3.2-1.08-.32-2.25-.68-3.38-1.08v11.65h-30.42v-11.34c-1.12,.41-2.2,.77-3.33,1.08-.36-.76-1.53-2.47-2.25-3.19,8.14-2.07,16.11-5.99,20.2-11.25l3.69,1.3Zm11.92,11.7c-2.43-.86-4.9-1.89-7.2-3.2v1.3h-15.57v-1.08c-2.07,1.17-4.27,2.12-6.52,2.97h29.29Zm-27.67,13.5h25.65v14.8h-4.27v-1.21h-17.23v1.39h-4.14v-14.98Zm6.12-10.48c.99,1.53,1.98,3.6,2.29,4.95l-2.97,.99h5.31v-6.21h-9.76v6.21h4.32c-.31-1.39-1.17-3.46-2.12-5.04l2.92-.9Zm-1.98,13.36v2.47h17.23v-2.47h-17.23Zm17.23,7.88v-2.52h-17.23v2.52h17.23Zm-3.55-29.02c-1.84-1.12-3.51-2.43-4.95-3.78-1.44,1.35-3.15,2.65-4.9,3.78h9.85Zm6.34,7.51h-9.99v6.21h5.04l-2.79-.85c.81-1.44,1.75-3.74,2.25-5.26l3.51,.99c-.99,1.94-1.98,3.83-2.79,5.13h4.77v-6.21Z" style="fill: #a08778;"/>
        <path d="M176.11,160.11c4.5,1.3,9.9,3.24,13.27,4.68l-3.69,2.92c-3.38-1.53-9.45-3.82-14.17-5.17l3.29-2.43h-13l3.15,2.12c-3.6,2.16-9.36,4.32-13.95,5.44-.76-.85-2.11-2.25-3.15-3.01,4.27-.99,9.54-2.83,12.51-4.54h-7.78v-19.48h32.13v19.48h-8.59Zm6.84-21.64h-28.44v-10.53h28.44v10.53Zm-26.23,7.74h23.62v-2.57h-23.62v2.57Zm0,5.44h23.62v-2.61h-23.62v2.61Zm0,5.45h23.62v-2.66h-23.62v2.66Zm21.82-25.83h-19.84v3.87h19.84v-3.87Z" style="fill: #a08778;"/>
        <path d="M210.94,133.33h7.92v3.42h-16.74v-3.42h8.19c-.54-1.53-1.71-3.69-2.83-5.36l3.15-1.53c1.3,1.62,2.65,3.91,3.15,5.44l-2.83,1.44Zm-7.24,12.82h14.22v3.29h-14.22v-3.29Zm14.17-6.3v3.29h-13.54v-3.29h13.54Zm0,25.06h-9.58v2.16h-3.78v-14.76h13.36v12.6Zm-9.58-9.4v6.21h5.71v-6.21h-5.71Zm34.87,6.39v3.96h-23.85v-3.96h9.4v-10.62h-7.92v-3.87h7.92v-8.68h-8.69v-3.92h10.08c-.81-1.93-2.61-4.72-4.27-6.75l3.24-1.75c1.75,2.03,3.78,4.91,4.63,6.79l-2.88,1.71h11.47v3.92h-9.4v8.68h8.37v3.87h-8.37v10.62h10.26Z" style="fill: #a08778;"/>
        <path d="M297.29,149.17h-4v13.72c0,1.98-.31,3.19-1.57,3.96-1.21,.67-3.02,.76-5.62,.76-.13-1.08-.72-2.97-1.3-4.09,1.62,.09,3.19,.09,3.69,.09,.49-.04,.67-.22,.67-.81v-13.63h-5.85v17.91h-3.92v-17.91h-5.71v17.91h-3.87v-17.91h-5.44v18.58h-4.14v-18.58h-4.32v-4.14h4.32v-16.02h33.07v16.02h4v4.14Zm-27.49-4.14v-11.92h-5.44v11.92h5.44Zm9.58,0v-11.92h-5.71v11.92h5.71Zm9.76,0v-11.92h-5.85v11.92h5.85Z" style="fill: #a08778;"/>
      </g>
      <g>
        <g>
          <line x1="7.64" y1="87.02" x2="383.07" y2="87.02" style="fill: none; stroke: #88202a; stroke-miterlimit: 10; stroke-width: 3.05px;"/>
          <line x1="7.64" y1="79.3" x2="383.07" y2="79.3" style="fill: none; stroke: #88202a; stroke-miterlimit: 10; stroke-width: 1.02px;"/>
        </g>
        <g>
          <rect x="1.18" y="88.4" width="6.62" height="6.62" transform="translate(8.98 183.43) rotate(180)" style="fill: #88202a;"/>
          <rect x="383.07" y="88.58" width="6.62" height="6.62" transform="translate(772.76 183.78) rotate(180)" style="fill: #88202a;"/>
        </g>
      </g>
      <g>
        <g>
          <line x1="382.05" y1="203.8" x2="6.62" y2="203.8" style="fill: none; stroke: #88202a; stroke-miterlimit: 10; stroke-width: 3.05px;"/>
          <line x1="382.05" y1="211.52" x2="6.62" y2="211.52" style="fill: none; stroke: #88202a; stroke-miterlimit: 10; stroke-width: 1.02px;"/>
        </g>
        <g>
          <rect x="381.89" y="195.8" width="6.62" height="6.62" style="fill: #88202a;"/>
          <rect x="0" y="195.62" width="6.62" height="6.62" style="fill: #88202a;"/>
        </g>
      </g>
      <g>
        <path d="M136.22,11.64c.16,.43,.39,.94,.53,1.41,1.35,4.53-.31,9.85-5.24,11.32-3.02,.9-6.06-.23-7-3.39-2.3-7.68,7.51-15.47,14.15-17.45,3.12-.93,5.44-1.48,8.79-1.28,1.32-.98,2.69-1.86,4-2.26l.08,.27c-1.16,.53-2.26,1.23-3.17,2.12,1.93,.48,3.79,1.68,4.39,3.69,1.34,4.49-3,7.58-6.68,8.83l.02,.07c1.51,.17,3.08,.91,3.59,2.62,.83,2.78-.34,6.2,.29,8.32,.2,.67,.58,.96,1.08,.81,1.31-.39,2.83-2.16,4.21-4.73,1.36-2.53,2.47-5.56,2.98-7.03l.34,.15c-.65,1.87-1.6,4.42-2.78,6.71-1.53,2.94-3.19,5.08-5.54,5.79-1.68,.5-3.05-.18-3.52-1.76-.42-1.41-.24-3.25-.02-4.96,.22-1.71,.48-3.29,.24-4.09-.5-1.68-1.51-1.52-2.97-1.27v-.29c.67-.17,1.26-.38,2.19-.81,3.59-1.69,4.05-6,3.45-8.01-.42-1.41-1.03-2.21-2.36-2.88-6.89,8.97-2.54,25.49-16.32,29.61-2.55,.76-6.21,.5-7.12-2.55-.37-1.24,.06-2.61,1.13-2.93,.91-.27,1.91,.05,2.2,.99,.26,.87-.04,1.58-.86,1.9,.7,2.35,2.35,2.84,4.53,2.19,9.93-2.97,5.67-21.86,15.44-29.64-2.63-.49-5.62,.26-7.23,.74-6.98,2.09-14.04,9.49-11.88,16.74,.72,2.42,2.69,3.62,5.14,2.89,3.82-1.14,5.18-6.52,4.11-10.07-.12-.4-.33-1-.56-1.62l.36-.14Z" style="fill: #940e26;"/>
        <path d="M176.78,13.1c-1.13,2.12-2.39,4.26-4.33,6.65-2.74,3.36-5.58,4.71-8.14,5.1-2.63,.4-4.52-1.08-4.9-3.57-.68-4.43,4.6-9.98,8.92-10.64,1.97-.3,3.27,.31,3.48,1.7,.51,3.36-6.81,5.96-9.15,6.85-.04,.43-.05,.86,.02,1.27,.3,1.97,1.69,3.18,3.66,2.87,1.94-.3,4.17-1.88,6.19-4.42,1.54-1.97,2.96-4.24,3.96-6.02l.28,.21Zm-8.94-1.96c-2.32,.35-4.93,5.29-5.16,7.69,3.65-1.34,6.58-4.69,6.23-6.94-.1-.62-.52-.84-1.07-.76Z" style="fill: #940e26;"/>
        <path d="M171.71,25.47c-2.45,.16-3.63,1.62-3.52,3.93,.11,2.2,1.73,3.84,4.11,3.72,6.57-.33,10.57-9.33,13.55-14.17l-.07-.07c-1.42,1.82-3.43,3.61-5.91,3.73-1.89,.09-3.02-1.43-3.1-3.17-.23-4.58,4.64-10.15,9.26-10.38,1.75-.09,2.75,.42,3.4,2.11l.73-1.54,3.56-.39c-2.3,4.39-4.42,8.98-6.9,13.42,5.13-1.76,8.69-6.29,11.63-10.64l.21,.09c-2.88,4.67-6.89,9.28-12.1,11.05-3.06,5.97-7.98,10.07-14.65,10.41-3.43,.17-6.49-.83-6.66-4.19-.13-2.55,2.18-4.1,4.52-4.22,.42-.02,1.48,.07,1.93,.08v.25Zm10.42-4.17c2.94-.15,6.27-7.15,6.13-9.8-.05-.98-.28-2.12-1.54-2.06-3.43,.17-6.75,6.47-6.6,9.55,.07,1.36,.44,2.4,2.01,2.32Z" style="fill: #940e26;"/>
        <path d="M207.05,9.69c-4.63,6.73-6.62,9.35-6.67,10.78-.02,.56,.17,.95,.59,.97,.91,.03,2.66-.88,5.31-3.37,2.14-2.02,4.19-4.26,5.06-5.2l.31,.22c-1.21,1.43-3.54,3.86-5.43,5.61-2.79,2.59-4.65,3.47-6.29,3.41-1.54-.06-2.38-1.04-2.33-2.36,.07-1.82,1.43-3.59,5.84-10.01l3.61-.04Zm3.94-5.98c-.04,.94-.94,1.82-1.89,1.79-1.01-.04-1.87-.6-1.83-1.68,.04-1.08,1.05-1.85,2.1-1.81,.87,.03,1.65,.83,1.62,1.71Z" style="fill: #940e26;"/>
        <path d="M215.87,22.71c4.85-.51,8.51-4.25,11.9-7.81l.25,.24c-4.24,4.45-8.27,8.68-15.02,7.92-2.4-.27-4.87-1.46-4.55-4.28,.16-1.46,1.23-3.07,2.86-2.88,1.08,.12,1.59,.92,1.5,1.68-.11,.97-.83,1.42-1.56,1.34-.28-.03-.52-.09-.75-.26-.29,.39-.52,.86-.58,1.38-.15,1.29,.9,2.35,2.25,2.51,1.7,.19,3.68-.78,3.88-2.59,.14-1.22-.45-2.27-1.04-3.25-.59-1.02-1.18-2-1.06-3.08,.29-2.61,3.09-3.63,5.56-3.35,2.23,.25,3.82,1.45,3.62,3.19-.15,1.32-1.27,2.18-2.59,2.03-.42-.05-.79-.19-.99-.29,.59-.85,.9-1.76,1-2.63,.11-.94-.33-1.8-1.4-1.92-1.29-.14-2.12,.68-2.26,1.89-.15,1.29,.44,2.3,1.03,3.32,.59,.98,1.18,2.03,1.02,3.42-.2,1.81-1.7,3.19-3.09,3.35v.07Z" style="fill: #940e26;"/>
        <path d="M229.96,12.98l.36-.57,2.65,.51,3.41-3.84,3.74,.57-3.71,3.92,4.37,.84-.43,.56-4.44-.85c-5.43,6.02-7.24,7.81-7.49,9.15-.11,.58,.15,1.06,.74,1.17,1.13,.22,3.4-.63,5.93-2.29,1.76-1.16,4.02-2.94,5.92-4.64l.17,.21c-1.3,1.18-3.39,2.99-5.68,4.54-2.54,1.72-5.28,3.01-7.38,2.61-1.44-.28-2.64-1.11-2.32-2.76,.45-2.37,3.1-4.43,6.75-8.65l-2.58-.49Z" style="fill: #940e26;"/>
        <path d="M258.73,22.65c-1.9,1.47-3.93,2.9-6.67,4.29-3.88,1.94-7.02,2.01-9.52,1.32-2.56-.71-3.68-2.84-3.01-5.26,1.2-4.32,8.28-7.22,12.5-6.05,1.92,.53,2.85,1.63,2.48,2.98-.91,3.27-8.65,2.65-11.15,2.5-.21,.38-.39,.76-.51,1.17-.53,1.92,.24,3.59,2.16,4.12,1.89,.52,4.58,0,7.46-1.49,2.21-1.17,4.44-2.65,6.08-3.87l.17,.3Zm-7.35-5.45c-2.26-.63-6.66,2.8-7.86,4.9,3.88,.28,7.92-1.58,8.53-3.77,.17-.61-.13-.98-.67-1.13Z" style="fill: #940e26;"/>
        <path d="M252.43,30.29c3.67-2.99,7.43-5.91,11.16-8.95l3.78,1.28-6.62,4.45,.04,.09c4.81-2.82,6.98-2.82,7.88-3.23,1.31-.59,1.9-.48,4.38,.38-1.26,.87-2.6,1.82-3.15,3.3-.37,.98-.07,1.58,.88,1.94,1.24,.47,2.79-.25,3.88-.78l.07,.21c-1.78,1.05-3.89,1.48-5.85,.74-1.73-.66-2.46-2.01-1.79-3.78,.21-.56,.63-1.07,1.1-1.42l-.04-.09c-4.63,1.06-9.09,4.16-12.37,6.99l-3.34-1.15Z" style="fill: #940e26;"/>
      </g>
    </g>
  </g>
</svg>