<?xml version="1.0" encoding="UTF-8"?>
<svg id="b" data-name="圖層 2" xmlns="http://www.w3.org/2000/svg" width="389.69" height="210.13" viewBox="0 0 389.69 210.13">
  <g id="c" data-name="圖層 1">
    <g>
      <g>
        <path d="M117.66,125.54c-.23,.27-.41,.58-.67,.86,4.18,3.87,11.79,7.29,18.81,8.77-.85,.72-2.02,2.21-2.65,3.2-1.08-.32-2.25-.68-3.38-1.08v11.65h-30.42v-11.34c-1.12,.41-2.2,.77-3.33,1.08-.36-.76-1.53-2.47-2.25-3.19,8.14-2.07,16.11-5.99,20.2-11.25l3.69,1.3Zm11.92,11.7c-2.43-.86-4.9-1.89-7.2-3.2v1.3h-15.57v-1.08c-2.07,1.17-4.27,2.12-6.52,2.97h29.29Zm-27.67,13.5h25.65v14.8h-4.27v-1.21h-17.23v1.39h-4.14v-14.98Zm6.12-10.48c.99,1.53,1.98,3.6,2.29,4.95l-2.97,.99h5.31v-6.21h-9.76v6.21h4.32c-.31-1.39-1.17-3.46-2.12-5.04l2.92-.9Zm-1.98,13.36v2.47h17.23v-2.47h-17.23Zm17.23,7.88v-2.52h-17.23v2.52h17.23Zm-3.55-29.02c-1.84-1.12-3.51-2.43-4.95-3.78-1.44,1.35-3.15,2.65-4.9,3.78h9.85Zm6.34,7.51h-9.99v6.21h5.04l-2.79-.85c.81-1.44,1.75-3.74,2.25-5.26l3.51,.99c-.99,1.94-1.98,3.83-2.79,5.13h4.77v-6.21Z" style="fill: #a08778;"/>
        <path d="M176.11,158.21c4.5,1.3,9.9,3.24,13.27,4.68l-3.69,2.92c-3.38-1.53-9.45-3.82-14.17-5.17l3.29-2.43h-13l3.15,2.12c-3.6,2.16-9.36,4.32-13.95,5.44-.76-.85-2.11-2.25-3.15-3.01,4.27-.99,9.54-2.83,12.51-4.54h-7.78v-19.48h32.13v19.48h-8.59Zm6.84-21.64h-28.44v-10.53h28.44v10.53Zm-26.23,7.74h23.62v-2.57h-23.62v2.57Zm0,5.44h23.62v-2.61h-23.62v2.61Zm0,5.45h23.62v-2.66h-23.62v2.66Zm21.82-25.83h-19.84v3.87h19.84v-3.87Z" style="fill: #a08778;"/>
        <path d="M242.26,132.29c-1.94,1.75-4.37,3.64-6.48,5.13,2.43,1.98,5.13,3.69,8.05,4.81-.94,.81-2.21,2.43-2.88,3.55-3.87-1.75-7.38-4.36-10.39-7.56v1.98h-15.79v-1.98c-3.24,3.38-7.06,6.03-10.93,7.88-.5-.9-1.71-2.34-2.52-3.1,2.88-1.21,5.85-3.15,8.46-5.45-1.4-1.39-3.51-3.06-5.35-4.23l2.29-2.29c1.94,1.08,4.14,2.7,5.53,4.09,1.58-1.75,2.93-3.6,4-5.54h-11.56v-3.42h13.54l.72-.18,2.79,1.35c-1.3,3.46-3.24,6.57-5.53,9.32h12.96c-2.74-3.24-4.99-6.88-6.7-10.89l3.64-1.12c.77,1.75,1.67,3.46,2.79,5.08,1.85-1.49,3.96-3.38,5.26-4.82l3.15,2.21c-2.02,1.8-4.45,3.74-6.57,5.22,.85,.99,1.66,1.98,2.61,2.92,2.07-1.62,4.36-3.6,5.8-5.17l3.1,2.21Zm-9.49,23.8c-.85,1.75-1.8,3.56-2.66,5.08h12.1v3.6h-39.28v-3.6h11.7c-.36-1.48-1.31-3.42-2.16-4.9l3.73-1.21c1.08,1.57,2.16,3.78,2.56,5.26l-2.43,.85h9.58c.99-1.75,2.16-4.32,2.79-6.07l4.05,.99Zm2.52-1.08h-25.92v-11.61h25.92v11.61Zm-4.45-8.24h-17.28v4.86h17.28v-4.86Z" style="fill: #a08778;"/>
        <path d="M279.3,127.07c0,8.14,1.03,24.84,18.18,34.96-.95,.72-2.65,2.52-3.38,3.55-10.21-6.17-15.03-15.34-17.23-23.62-3.33,10.84-8.95,18.72-17.28,23.71-.81-.85-2.74-2.61-3.87-3.38,9.67-5,15.12-13.86,17.73-26.05l2.29,.41c-.31-1.89-.49-3.74-.58-5.36h-10.71v-4.23h14.85Z" style="fill: #a08778;"/>
      </g>
      <g>
        <g>
          <line x1="7.64" y1="85.12" x2="383.07" y2="85.12" style="fill: none; stroke: #88202a; stroke-miterlimit: 10; stroke-width: 3.05px;"/>
          <line x1="7.64" y1="77.41" x2="383.07" y2="77.41" style="fill: none; stroke: #88202a; stroke-miterlimit: 10; stroke-width: 1.02px;"/>
        </g>
        <g>
          <rect x="1.18" y="86.51" width="6.62" height="6.62" transform="translate(8.98 179.64) rotate(180)" style="fill: #88202a;"/>
          <rect x="383.07" y="86.68" width="6.62" height="6.62" transform="translate(772.76 179.99) rotate(180)" style="fill: #88202a;"/>
        </g>
      </g>
      <g>
        <g>
          <line x1="382.05" y1="201.91" x2="6.62" y2="201.91" style="fill: none; stroke: #88202a; stroke-miterlimit: 10; stroke-width: 3.05px;"/>
          <line x1="382.05" y1="209.62" x2="6.62" y2="209.62" style="fill: none; stroke: #88202a; stroke-miterlimit: 10; stroke-width: 1.02px;"/>
        </g>
        <g>
          <rect x="381.89" y="193.9" width="6.62" height="6.62" style="fill: #88202a;"/>
          <rect x="0" y="193.73" width="6.62" height="6.62" style="fill: #88202a;"/>
        </g>
      </g>
      <g>
        <path d="M131.57,20.66c.92-.22,1.93,.12,2.17,1.11,.29,1.23-.61,2.16-1.72,2.46-.05,.7,.02,1.33,.18,1.97,.73,3.1,4.32,3.37,6.91,2.76,6.85-1.61,5.96-9.82,4.98-15.05-1.2-6.33,.1-12.25,6.1-13.66,2.56-.6,5.21-.18,5.82,2.41,.51,2.18-1.19,3.34-3.17,3.8,.36-1.2,.52-2.21,.23-3.47-.41-1.74-1.69-2.59-3.19-2.23-5.28,1.24-2.95,9.47-2.21,16.27,.44,4-.65,10.51-8.66,12.4-3.95,.93-8.4-.25-9.44-4.65-.4-1.7,.14-3.67,2.02-4.11Z" style="fill: #940e26;"/>
        <path d="M161.53,12.13c-3.38,7.43-4.88,10.36-4.68,11.79,.08,.55,.34,.91,.75,.85,.9-.13,2.46-1.33,4.64-4.25,1.75-2.37,3.38-4.92,4.07-6.01l.34,.16c-.94,1.62-2.81,4.42-4.36,6.48-2.3,3.04-3.97,4.23-5.6,4.46-1.53,.21-2.52-.6-2.71-1.92-.25-1.8,.78-3.78,4-10.88l3.55-.67Zm2.83-6.58c.13,.94-.61,1.96-1.55,2.09-1.01,.14-1.94-.26-2.09-1.33-.15-1.08,.71-2.01,1.75-2.15,.87-.12,1.77,.53,1.89,1.4Z" style="fill: #940e26;"/>
        <path d="M161.51,26.83c-2.45,.16-3.63,1.62-3.52,3.93,.11,2.2,1.73,3.84,4.11,3.72,6.57-.33,10.57-9.33,13.55-14.17l-.07-.07c-1.42,1.82-3.43,3.61-5.91,3.73-1.89,.09-3.02-1.43-3.1-3.17-.23-4.58,4.64-10.15,9.26-10.38,1.75-.09,2.75,.42,3.4,2.11l.73-1.54,3.56-.39c-2.3,4.39-4.42,8.98-6.9,13.42,5.13-1.76,8.69-6.29,11.63-10.64l.21,.09c-2.88,4.67-6.89,9.28-12.1,11.05-3.06,5.97-7.98,10.07-14.65,10.41-3.43,.17-6.49-.83-6.66-4.19-.13-2.55,2.18-4.1,4.52-4.22,.42-.02,1.48,.07,1.93,.08v.25Zm10.42-4.17c2.94-.15,6.27-7.15,6.13-9.8-.05-.98-.28-2.12-1.54-2.06-3.43,.17-6.75,6.47-6.6,9.55,.07,1.36,.44,2.4,2.01,2.32Z" style="fill: #940e26;"/>
        <path d="M192.08,17.12c1.42-1.6,5.56-6.55,9.2-6.34,1.54,.09,2.29,1.11,2.21,2.37-.18,3.14-5.21,6.54-5.36,9.12-.03,.56,.23,.96,.85,1,.66,.04,2.18-.68,4.88-3.26,2.11-2.02,4.06-4.18,4.96-5.15l.34,.19c-1.31,1.36-3.29,3.6-5.4,5.58-2.59,2.41-4.12,3.31-5.93,3.2-1.78-.1-2.52-1.3-2.45-2.56,.18-3.14,5.22-6.64,5.34-8.81,.03-.49-.3-.89-.93-.93-2.76-.16-9.5,7.94-11.44,11.3l-3.54-.1c2.68-3.95,5.46-7.82,8.11-11.88l3.99,.09-4.91,6.1,.07,.07Z" style="fill: #940e26;"/>
        <path d="M230.74,15.92c-5.71,5.84-8.12,8.08-8.42,9.48-.12,.55,0,.97,.42,1.06,.89,.19,2.77-.41,5.81-2.42,2.46-1.62,4.85-3.48,5.88-4.26l.26,.27c-1.44,1.2-4.15,3.2-6.31,4.6-3.2,2.08-5.17,2.62-6.78,2.28-1.51-.32-2.17-1.43-1.89-2.73,.38-1.78,2.02-3.29,7.47-8.86l3.56,.58Zm4.9-5.22c-.2,.92-1.24,1.63-2.17,1.44-.99-.21-1.74-.91-1.51-1.97s1.35-1.64,2.38-1.43c.86,.18,1.48,1.1,1.3,1.96Z" style="fill: #940e26;"/>
        <path d="M237.24,24.07c1.76-1.22,6.95-5.05,10.43-3.99,1.47,.45,1.96,1.62,1.59,2.83-.92,3.01-6.61,5.12-7.36,7.6-.16,.54,0,.99,.6,1.17,.64,.19,2.28-.15,5.52-2.01,2.53-1.46,4.93-3.11,6.03-3.83l.28,.27c-1.59,1.02-4.05,2.72-6.57,4.15-3.09,1.73-4.78,2.24-6.52,1.71-1.71-.52-2.14-1.86-1.77-3.06,.92-3.01,6.64-5.22,7.27-7.3,.14-.47-.08-.94-.68-1.12-2.65-.81-11.1,5.47-13.79,8.28l-3.41-.93c3.54-3.2,7.15-6.31,10.69-9.62l3.86,1.03-6.21,4.77,.05,.09Z" style="fill: #940e26;"/>
      </g>
    </g>
  </g>
</svg>