<?xml version="1.0" encoding="UTF-8"?>
<svg id="b" data-name="圖層 2" xmlns="http://www.w3.org/2000/svg" width="124.7" height="107.79" viewBox="0 0 124.7 107.79">
  <g id="c" data-name="圖層 1">
    <g>
      <rect x=".58" y="80.53" width="124.12" height=".87" style="fill: #fff8eb;"/>
      <path d="M71.65,1.92s.08-1.92-1.84-1.92-1.76,1.77-1.76,1.77v3.99s-1.85-2.15-7.83-2.15-13.97,3.68-13.97,13.28,5.59,13.59,10.35,17.19c4.77,3.61,12.82,8.68,15.43,11.82,2.61,3.15,4.56,8.44,3.91,13.82-.77,6.44-7.83,13.27-18.42,13.27s-20.88-8.37-20.88-17.96,5.53-16.58,13.44-16.58,10.36,6.6,10.36,8.6-1.46,4.52-3.6,4.52-1.24-2.45-2.23-2.45-1.54,1.46-1.15,3.3c.38,1.85,2.22,2.53,4.14,2.3,1.91-.23,6.14-2.23,6.44-7.37,.26-4.37-4.45-11.67-15.04-11.67s-17.12,8.45-17.12,17.42,5.22,22.73,26.49,22.65c19.11-.08,25.25-13.43,24.87-21.65-.26-5.6-3.15-14.27-11.35-19.42-8.22-5.14-20.58-10.13-20.58-18.03s5.45-8.75,8.52-8.75,6.76,3.07,7.76,5.53c.99,2.45,.84,3.53,.84,5.14v6.75c0,.77,0,2.38,1.61,2.38s1.62-2.15,1.62-2.76V1.92Z" style="fill: #fff8eb;"/>
      <g>
        <path d="M41.66,61.08h.17c.09,.43,.25,.75,.46,.95,.21,.2,.46,.3,.73,.3s.45-.07,.57-.21c.12-.13,.17-.28,.17-.43,0-.17-.06-.31-.18-.42-.08-.07-.24-.17-.47-.28l-.37-.19c-.38-.19-.65-.37-.8-.55-.16-.18-.23-.41-.23-.67,0-.29,.1-.55,.31-.8,.2-.24,.52-.37,.94-.37,.21,0,.42,.03,.62,.1,.2,.06,.32,.1,.34,.1,.06,0,.11-.02,.13-.06,.02-.04,.05-.09,.06-.15h.17v1.27h-.16c-.08-.29-.22-.55-.41-.76-.19-.22-.43-.32-.71-.32-.2,0-.35,.05-.47,.16-.11,.1-.17,.23-.17,.39,0,.18,.05,.32,.16,.41,.11,.1,.35,.23,.72,.41l.43,.22c.2,.1,.35,.21,.47,.32,.22,.22,.33,.49,.33,.81,0,.29-.11,.57-.35,.83-.23,.26-.61,.39-1.12,.39-.12,0-.24-.01-.36-.03-.12-.02-.23-.05-.35-.1l-.12-.05s-.05,0-.07-.01c-.03,0-.05,0-.07,0-.06,0-.1,.02-.12,.06-.02,.04-.04,.08-.06,.15h-.17v-1.44Z" style="fill: #fff8eb;"/>
        <path d="M44.81,62.29c.16,0,.27-.03,.33-.06,.11-.07,.16-.18,.16-.35v-2.82c0-.16-.05-.28-.14-.34-.06-.03-.18-.06-.35-.07v-.15h1.98v.15c-.18,0-.3,.03-.36,.06-.11,.06-.16,.18-.16,.34v1.21h1.39v-1.21c0-.17-.05-.28-.16-.34-.06-.03-.18-.05-.36-.06v-.15h1.99v.15c-.17,.01-.29,.03-.35,.07-.11,.06-.16,.17-.16,.34v2.82c0,.17,.06,.29,.17,.35,.07,.04,.18,.06,.34,.06v.15h-1.99v-.15c.17,0,.29-.03,.36-.07,.11-.06,.16-.17,.16-.34v-1.34h-1.39v1.34c0,.17,.06,.29,.18,.35,.07,.03,.18,.05,.35,.06v.15h-1.98v-.15Z" style="fill: #fff8eb;"/>
        <path d="M49.34,62.29c.16,0,.28-.03,.35-.06,.12-.06,.18-.18,.19-.35v-2.82c0-.17-.06-.29-.17-.35-.07-.04-.18-.06-.36-.06v-.15h2.04v.15c-.18,0-.31,.03-.37,.06-.12,.06-.17,.17-.17,.35v2.82c0,.16,.05,.27,.13,.32,.1,.06,.23,.09,.41,.09v.15h-2.04v-.15Z" style="fill: #fff8eb;"/>
        <path d="M53.8,61.06l-.55-1.35h-.05l-.53,1.35h1.13Zm-2.18,1.23c.14,0,.25-.07,.34-.19,.05-.08,.13-.24,.24-.49l1.3-3.19h.16l1.3,3.06c.14,.35,.25,.57,.32,.66,.07,.1,.18,.15,.31,.15v.15h-1.89v-.15c.19,0,.32-.03,.37-.05,.05-.02,.09-.09,.09-.19,0-.04-.02-.11-.04-.21-.02-.06-.05-.12-.08-.2l-.15-.35h-1.31c-.08,.24-.14,.38-.16,.45-.05,.15-.07,.26-.07,.32,0,.09,.05,.15,.17,.18,.06,.03,.16,.03,.29,.04v.15h-1.19v-.15Z" style="fill: #fff8eb;"/>
        <path d="M55.82,62.29c.22,0,.36-.05,.43-.12,.06-.08,.09-.2,.09-.34v-2.76c-.18-.2-.29-.32-.33-.35-.05-.03-.1-.06-.17-.06v-.15h1.23l2.02,2.46h.02v-1.74c0-.19-.04-.34-.11-.42-.07-.08-.21-.13-.43-.15v-.15h1.25v.15c-.18,.03-.3,.06-.36,.12-.06,.05-.1,.17-.1,.34v3.43h-.15l-2.57-3.12h-.04v2.29c0,.18,.02,.3,.07,.38,.08,.13,.24,.19,.48,.2v.15h-1.32v-.15Z" style="fill: #fff8eb;"/>
        <path d="M60.71,59.03c.39-.41,.89-.61,1.48-.61,.25,0,.49,.04,.72,.14,.24,.09,.39,.13,.45,.13s.11-.02,.15-.07c.04-.04,.07-.11,.09-.2h.17v1.36h-.15c-.15-.3-.29-.53-.43-.7-.28-.31-.58-.47-.93-.47-.38,0-.65,.16-.82,.49-.17,.32-.26,.78-.26,1.38,0,.49,.08,.92,.24,1.3,.17,.38,.47,.57,.94,.57,.24,0,.42-.05,.5-.16,.05-.06,.08-.14,.08-.26v-.62c0-.18-.06-.28-.17-.34-.06-.04-.21-.06-.42-.06v-.14h2v.14c-.21,0-.33,.06-.4,.13-.07,.07-.1,.21-.1,.41v.74c-.13,.08-.34,.15-.63,.24-.29,.08-.61,.11-.97,.11-.64,0-1.16-.2-1.55-.61-.36-.39-.54-.86-.54-1.44s.19-1.07,.56-1.46Z" style="fill: #fff8eb;"/>
        <path d="M64.57,62.44v-.15c.16,0,.28-.03,.35-.07,.11-.06,.16-.17,.16-.34v-2.82c0-.17-.05-.28-.17-.34-.06-.03-.18-.06-.34-.06v-.15h3.36v1.18h-.14c-.08-.38-.2-.63-.38-.77-.18-.14-.5-.21-.97-.21-.18,0-.3,.02-.34,.06-.04,.03-.07,.11-.07,.22v1.34c.33,0,.56-.06,.68-.17,.12-.13,.21-.35,.27-.69h.14v1.97h-.14c-.04-.34-.13-.57-.26-.7-.13-.14-.36-.21-.69-.21v1.42c0,.12,.03,.2,.1,.25,.06,.05,.18,.07,.39,.07,.38,0,.67-.08,.91-.22,.23-.14,.44-.41,.63-.81h.17l-.24,1.22h-3.41Z" style="fill: #fff8eb;"/>
        <path d="M68.46,62.29c.2,0,.32-.05,.41-.11,.07-.07,.1-.21,.1-.42v-2.59c0-.22-.04-.37-.13-.44-.06-.05-.18-.08-.38-.09v-.15h1.88c.38,0,.7,.04,.94,.13,.47,.16,.7,.46,.7,.89,0,.32-.12,.57-.35,.75-.18,.13-.37,.22-.57,.26l1.17,1.66s.07,.08,.1,.09c.03,.01,.08,.02,.13,.03v.14h-1.19l-1.22-1.83h-.15v1.15c0,.2,.04,.34,.1,.41,.07,.07,.21,.12,.42,.12v.15h-1.97v-.15Zm2.27-2.02c.16-.1,.24-.34,.24-.7,0-.23-.03-.41-.09-.54-.11-.23-.3-.33-.6-.33-.15,0-.26,.02-.3,.06-.05,.04-.08,.1-.08,.19v1.48c.38,0,.66-.06,.82-.16Z" style="fill: #fff8eb;"/>
      </g>
      <g>
        <path d="M84.49,69.02c0,2.41,1.96,4.37,4.36,4.37s4.37-1.95,4.37-4.37-1.96-4.37-4.37-4.37-4.36,1.96-4.36,4.37Zm.61,0c0-2.07,1.68-3.75,3.75-3.75s3.76,1.68,3.76,3.75-1.69,3.75-3.76,3.75-3.75-1.68-3.75-3.75Z" style="fill: #fff8eb;"/>
        <path d="M89.27,68.9c.31,0,.55-.06,.73-.18,.18-.12,.27-.34,.27-.66,0-.34-.13-.58-.38-.71-.13-.06-.32-.1-.53-.1h-1.61v1.65h1.51Zm-2.17-2.22h2.24c.37,0,.67,.06,.91,.17,.46,.21,.68,.59,.68,1.15,0,.29-.06,.52-.18,.71-.11,.18-.29,.32-.51,.44,.19,.08,.34,.18,.43,.31,.1,.12,.16,.33,.16,.61l.02,.65c.01,.19,.02,.32,.05,.41,.04,.16,.11,.25,.21,.3v.12h-.8s-.05-.1-.06-.16c-.02-.07-.02-.2-.03-.39l-.05-.81c0-.32-.12-.53-.35-.64-.12-.06-.32-.09-.59-.09h-1.49v2.08h-.66v-4.86Z" style="fill: #fff8eb;"/>
      </g>
      <g>
        <polygon points="24.36 97.57 27.78 94.16 31.18 97.57 27.78 100.98 24.36 97.57" style="fill: #fff8eb;"/>
        <polygon points="59.18 97.57 62.59 94.16 66.01 97.57 62.59 100.98 59.18 97.57" style="fill: #fff8eb;"/>
        <rect x="94.86" y="95.16" width="4.82" height="4.82" transform="translate(-40.51 97.5) rotate(-45.06)" style="fill: #fff8eb;"/>
        <path d="M11.87,92.09c2.52,2.05,5.71,3.67,9.54,4.85,.21,.06,.41,.05,.59-.04,.16-.07,.28-.2,.34-.42,.07-.18,.06-.35-.03-.52-.09-.16-.25-.28-.49-.38-3.57-1.04-6.52-2.51-8.86-4.4h8c.2,0,.37-.07,.49-.21,.1-.15,.18-.32,.19-.5,0-.21-.06-.38-.19-.52-.1-.12-.27-.17-.49-.17H11.87v-2.26c3.73-.33,5.94-.57,6.64-.71,.68-.14,1.08-.28,1.16-.43,.07-.16,.08-.35,.04-.58-.04-.18-.13-.33-.27-.43-.15-.1-.33-.12-.55-.08-1.67,.35-4.17,.62-7.49,.82-3.3,.2-6.2,.31-8.71,.31-.21,0-.37,.07-.49,.19-.15,.14-.21,.31-.21,.5,0,.21,.05,.37,.16,.5,.21,.26,2.99,.26,8.34,0v2.17H1.16c-.2,0-.38,.06-.52,.19-.11,.14-.17,.31-.19,.5,0,.2,.07,.38,.19,.52,.11,.11,.28,.19,.52,.19H9.47c-2.52,2.06-5.49,3.59-8.88,4.59-.21,.05-.37,.16-.48,.34-.12,.14-.13,.32-.1,.52,.07,.18,.16,.34,.31,.46,.61,.33,2.46-.32,5.54-1.94,1.38-.71,2.91-1.72,4.6-3.05v3.6c0,.25,.06,.44,.19,.57,.13,.12,.3,.17,.48,.19,.21-.02,.38-.09,.5-.21,.14-.14,.22-.33,.22-.55v-3.61Zm6.47,15.09c.5,0,.91-.18,1.27-.5,.3-.3,.45-.71,.45-1.24v-6.74c-.01-.54-.16-.99-.42-1.36-.31-.35-.73-.53-1.29-.53H4.73c-.59,0-1.05,.18-1.4,.51-.3,.34-.47,.79-.47,1.38v6.74c-.02,.49,.14,.9,.47,1.24,.3,.3,.77,.46,1.4,.5h13.61Zm.31-4.48v2.03c0,.31-.09,.55-.26,.74-.18,.2-.45,.31-.78,.31H5.13c-.28,0-.5-.07-.67-.24-.16-.19-.23-.46-.21-.81v-2.03h14.4Zm-14.4-1.41v-2.16c-.02-.25,.05-.46,.19-.64,.15-.16,.39-.25,.69-.26h12.47c.35-.01,.62,.06,.81,.24,.14,.14,.22,.36,.23,.66v2.16H4.25Z" style="fill: #fff8eb;"/>
        <path d="M45.58,89.09c1.04,1.92,2.1,3.48,3.17,4.68-1.81,1.29-3.83,2.31-6.05,3.04-.23,0-.41,.15-.52,.44-.07,.15-.07,.34,0,.55,.07,.19,.18,.31,.36,.4,.48,.18,2.16-.49,5.07-2.05,.64-.39,1.25-.78,1.85-1.19,.1-.06,.2-.13,.29-.21,.82,.72,1.78,1.38,2.88,1.98,1.26,.68,2.25,1.13,2.97,1.33,.21,.06,.41,.06,.6,0,.17-.06,.28-.2,.35-.4,.07-.19,.06-.38-.01-.55-.09-.16-.25-.28-.48-.36-1.85-.49-3.61-1.44-5.22-2.85,1.96-1.81,3.3-3.87,4.03-6.19,0-.04,0-.07,.02-.07,.11-.4,.05-.77-.19-1.14-.28-.38-.68-.53-1.21-.43h-6.6c-.63,.06-1.09,.23-1.36,.49-.29,.3-.5,.63-.61,1.01-.48,1.21-1.35,2.17-2.62,2.88-.02,0-.03,0-.05,.03,0-.21-.06-.38-.18-.52-.11-.12-.29-.17-.5-.17h-2.43v-3.98c0-.21-.08-.37-.23-.53-.13-.11-.3-.17-.49-.19-.21,0-.38,.06-.53,.19-.11,.11-.16,.29-.16,.53v3.98h-2.93c-.2,0-.37,.06-.53,.19-.11,.14-.17,.31-.18,.5,0,.2,.06,.38,.18,.52,.12,.11,.29,.19,.53,.19h2.67c-.76,2.67-1.92,5.17-3.5,7.55-.11,.2-.16,.4-.14,.6,.06,.15,.17,.3,.33,.42,.16,.11,.34,.14,.52,.1,.53-.14,1.53-2.01,3.05-5.59v12.78c0,.24,.06,.43,.19,.57,.14,.1,.31,.17,.5,.19,.21-.02,.37-.09,.49-.21,.14-.14,.23-.32,.23-.54v-13.21c.75,1.05,1.39,2,1.89,2.83,.17,.24,.31,.37,.45,.4,.16,.06,.34,.03,.52-.12,.19-.11,.31-.26,.32-.46,.05-.18,0-.34-.12-.49-.82-1.16-1.84-2.55-3.06-4.17v-.64h2.43c.11,0,.23-.03,.35-.09,0,.11,.05,.23,.12,.35,.11,.16,.26,.27,.45,.32,.49,.04,1.28-.52,2.38-1.69,.25-.33,.49-.66,.71-.98Zm2.55,1.68c-.68-1.1-1.25-2.14-1.68-3.1,.16-.13,.37-.21,.64-.21h5.57c.38-.01,.61,.09,.69,.29,.06,.15,.02,.37-.14,.64-.79,1.67-1.91,3.17-3.4,4.53-.57-.59-1.13-1.3-1.67-2.15Zm5.66,16.6c.49,0,.92-.17,1.27-.5,.29-.3,.44-.72,.44-1.24v-5.69c0-.54-.16-.98-.42-1.35-.31-.36-.74-.53-1.3-.53h-8.28c-.59,0-1.06,.17-1.41,.5-.29,.33-.46,.8-.47,1.38v5.69c-.02,.49,.14,.9,.47,1.24,.3,.3,.77,.47,1.41,.5h8.28Zm-.74-7.91c.35-.03,.63,.06,.82,.24,.14,.14,.22,.36,.23,.67v4.55c0,.3-.09,.55-.26,.73-.19,.2-.45,.31-.79,.31h-7.13c-.29,0-.52-.08-.68-.24-.16-.19-.23-.46-.21-.81v-4.55c-.02-.25,.05-.47,.19-.65,.16-.15,.39-.23,.7-.25h7.13Z" style="fill: #fff8eb;"/>
        <path d="M69.49,86.25c-.2,0-.37,.06-.53,.2-.11,.14-.17,.31-.18,.5,0,.2,.06,.38,.18,.52,.12,.11,.29,.18,.53,.2h5.82c.21,0,.37-.08,.5-.22,.11-.14,.18-.3,.18-.49,0-.21-.06-.39-.18-.52-.12-.12-.29-.17-.5-.18h-5.82Zm2.28,5.41v15.38c0,.24,.06,.43,.18,.57,.15,.1,.3,.17,.5,.19,.2-.02,.38-.09,.5-.21,.14-.14,.22-.32,.22-.54v-15.38h2.52c.2,0,.37-.07,.51-.22,.11-.14,.17-.3,.18-.5,0-.21-.06-.38-.18-.52-.11-.11-.28-.16-.51-.17h-6.84c-.21,0-.38,.07-.54,.2-.11,.14-.17,.31-.18,.49,0,.21,.06,.38,.18,.52,.12,.11,.29,.17,.54,.19h2.93Zm-2.55,2.57c0,2.81-.3,5.77-.91,8.9-.01,.23,.02,.44,.12,.59,.11,.15,.26,.24,.43,.29,.2,.03,.38-.02,.52-.12,.43-.33,.84-3.5,1.22-9.51-.02-.07-.02-.12,0-.18,.01-.23-.04-.42-.2-.54-.14-.12-.32-.18-.52-.19-.21,0-.36,.07-.48,.21-.11,.14-.17,.33-.19,.54Zm6.2-.12c0-.24-.09-.43-.25-.57-.14-.09-.33-.14-.55-.12-.19,.01-.35,.1-.48,.27-.1,.14-.13,.33-.11,.54l.76,7.81c.01,.24,.1,.42,.26,.57,.15,.09,.31,.14,.5,.12,.21-.01,.37-.09,.47-.23,.12-.16,.17-.35,.18-.57l-.77-7.81Zm10.4-7.28v-1.03c0-.21-.07-.37-.21-.53-.14-.11-.3-.17-.5-.19-.2,0-.37,.06-.52,.19-.12,.11-.17,.29-.17,.53v1.03h-2.21v-1.03c0-.21-.07-.37-.22-.53-.14-.11-.31-.17-.49-.19-.22,0-.39,.06-.52,.19-.11,.11-.18,.29-.18,.53v1.03h-2.21c-.5,0-.9,.16-1.21,.5-.33,.3-.5,.7-.48,1.21v4.36c-.02,.44,.11,.83,.38,1.19,.26,.33,.69,.49,1.31,.52h9.61c.5,0,.91-.17,1.25-.5,.3-.34,.46-.74,.47-1.21v-4.36c-.01-.5-.17-.91-.47-1.23-.3-.34-.72-.49-1.25-.48h-2.38Zm-1.4,6.38h-2.21v-1.74h2.21v1.74Zm1.4-1.74h2.69v.84c-.01,.28-.09,.5-.23,.66-.17,.15-.38,.23-.65,.24h-1.81v-1.74Zm-1.4-1.4h-2.21v-1.83h2.21v1.83Zm1.4-1.83h1.81c.3,0,.53,.06,.67,.21,.14,.16,.2,.34,.2,.55v1.07h-2.69v-1.83Zm-5.02,4.98h-1.74c-.28,0-.47-.07-.57-.22-.11-.16-.18-.39-.18-.68v-.84h2.48v1.74Zm0-3.15h-2.48v-1.07c0-.24,.05-.41,.18-.55,.11-.15,.3-.21,.57-.21h1.74v1.83Zm-3.97,5.71c-.21,0-.38,.07-.53,.19-.11,.14-.17,.31-.19,.5,0,.21,.06,.38,.19,.52,.11,.11,.29,.17,.53,.18h13.04c.2,0,.37-.07,.49-.21,.11-.15,.18-.31,.19-.49,0-.21-.06-.38-.19-.52-.11-.12-.27-.18-.49-.18h-13.04Zm3.33,9.81h-3.43c-.2,0-.37,.06-.51,.19-.11,.14-.17,.31-.2,.5,0,.2,.06,.37,.2,.53,.11,.1,.28,.17,.51,.19h13.23c.22,0,.39-.08,.5-.22,.11-.14,.19-.31,.2-.5,0-.21-.07-.39-.2-.52-.1-.12-.28-.16-.5-.16h-3.23c.05-.16,.26-.9,.62-2.22h.62c.38-.01,.68-.13,.91-.37,.25-.3,.38-.6,.38-.91v-2.48c0-.35-.11-.65-.34-.92-.25-.3-.57-.43-.95-.43h-8.98c-.39,0-.71,.14-.98,.43-.23,.25-.35,.56-.35,.92v2.48c-.02,.35,.1,.66,.35,.93,.24,.21,.56,.33,.98,.36h.55c.23,.86,.44,1.6,.61,2.22Zm1.43,0c-.29-1.11-.49-1.85-.61-2.22h4.97c-.2,.81-.43,1.55-.67,2.22h-3.69Zm5.69-5.93c.21,0,.35,.06,.44,.19,.07,.14,.11,.31,.12,.5v1.05c-.02,.16-.06,.29-.16,.4-.07,.12-.2,.17-.41,.17h-7.52c-.21,0-.38-.05-.5-.14-.11-.07-.17-.2-.19-.43v-1.05c0-.21,.06-.38,.18-.53,.11-.1,.28-.16,.52-.16h7.52Z" style="fill: #fff8eb;"/>
        <path d="M105.41,101.47c-.87,.45-1.72,.84-2.58,1.21-.21,.07-.33,.19-.38,.38-.07,.16-.06,.35,.02,.55,.1,.16,.23,.28,.41,.38,.43,.19,1.91-.48,4.46-2.02,1.62-.97,2.46-1.64,2.52-2,0-.19-.06-.36-.19-.53-.11-.15-.26-.25-.45-.27-.19-.02-.37,.04-.53,.18-.45,.35-1.07,.78-1.89,1.31v-8.23h2.15c.21,0,.37-.07,.49-.22,.11-.14,.18-.31,.2-.49,0-.21-.07-.39-.2-.53-.11-.11-.27-.16-.49-.17h-2.15v-4.83c0-.21-.06-.38-.21-.52-.14-.11-.31-.18-.5-.18-.2,0-.38,.06-.51,.18-.12,.11-.17,.29-.17,.52v4.83h-2.27c-.21,0-.38,.06-.53,.19-.11,.15-.18,.31-.19,.51,0,.21,.06,.38,.19,.52,.12,.1,.29,.18,.53,.19h2.27v9.04Zm9.39-6.85h6.23c.35,0,.64,.12,.88,.4,.15,.2,.22,1.33,.19,3.37-.09,3.2-.2,5.12-.33,5.77-.13,.52-.32,.89-.61,1.12-.85,.72-2.77,.67-5.75-.17-.47-.1-.78,.05-.93,.45-.06,.19-.05,.37,.05,.57,.06,.14,.22,.26,.47,.33,1.24,.43,2.53,.66,3.86,.72,1.24,0,2.23-.19,2.97-.62,.52-.31,.9-.77,1.09-1.41,.2-.68,.35-1.58,.42-2.71,.08-1.59,.14-3.85,.22-6.78,0-.97-.24-1.66-.73-2.07-.31-.25-.7-.38-1.17-.38h-6.8c0-.16,0-.31,.03-.46v-3.19h9.08c.21,0,.38-.07,.51-.21,.11-.14,.17-.31,.19-.49,0-.22-.06-.39-.19-.53-.11-.1-.28-.16-.51-.17h-6.61v-2.54c0-.21-.07-.39-.22-.53-.14-.11-.31-.18-.5-.19-.21,0-.38,.06-.52,.19-.11,.11-.18,.29-.18,.53v2.54h-5.87c-.2,0-.37,.07-.53,.2-.09,.14-.16,.31-.19,.5,0,.2,.07,.38,.19,.52,.12,.11,.3,.18,.53,.18h3.4v3.19c0,5.76-1.91,10.05-5.73,12.85-.62,.19-.79,.58-.5,1.16,0,0,0,0,.02,.03,.15,.19,.3,.3,.48,.33,.29,.05,.88-.27,1.79-.95,3.19-3.04,4.94-6.9,5.26-11.56Z" style="fill: #fff8eb;"/>
      </g>
    </g>
  </g>
</svg>