<?xml version="1.0" encoding="UTF-8"?>
<svg id="b" data-name="圖層 2" xmlns="http://www.w3.org/2000/svg" width="120.52" height="19.81" viewBox="0 0 120.52 19.81">
  <g id="c" data-name="首頁">
    <g>
      <path d="M32.44,12.66v1.5h-14.26v-1.5h7.75c.83-1.99,1.74-5.12,2.22-7.41l1.68,.32c-.62,2.34-1.52,5.14-2.3,7.09h4.91Zm-.66-8.12h-12.92v-1.5h12.92v1.5Zm-9.38,7.56c-.22-1.76-.86-4.47-1.44-6.51l1.5-.37c.62,2.08,1.25,4.71,1.52,6.48l-1.58,.4Zm2.38-9.12c-.13-.7-.48-1.79-.77-2.61l1.47-.37c.3,.8,.67,1.86,.85,2.53l-1.55,.45Z" style="fill: #80292d;"/>
      <path d="M42.74,9.2c.82,1.3,1.79,3.03,2.21,4.1l-1.36,.74c-.16-.4-.37-.93-.64-1.49-3.91,1.31-4.48,1.55-4.87,1.84-.1-.45-.35-1.17-.61-1.52,.3-.16,.7-.46,.7-1.06V.93h6.35v7.64h-4.83v3.57l2.62-.8c-.29-.53-.56-1.04-.85-1.5l1.26-.62Zm-3.04-6.95v1.78h3.35v-1.78h-3.35Zm3.35,4.98v-1.87h-3.35v1.87h3.35Zm8.1,2.93c0,.74-.13,1.17-.59,1.39-.5,.26-1.22,.27-2.3,.27-.05-.4-.22-1.02-.43-1.41,.7,.03,1.39,.03,1.58,.02,.22-.02,.29-.08,.29-.29V2.4h-2.46V14.81h-1.49V1.04h5.41V10.16Z" style="fill: #80292d;"/>
      <path d="M59.14,11.35c-.4,1.31-1.09,2.63-1.81,3.47-.26-.22-.82-.59-1.12-.77,.72-.75,1.31-1.87,1.62-3.03l1.31,.32Zm2.56-.56h-4.66V.7h4.66V10.79Zm-1.34-8.87h-2.02v1.78h2.02V1.92Zm0,2.91h-2.02v1.81h2.02v-1.81Zm0,2.93h-2.02v1.83h2.02v-1.83Zm.53,3.25c.51,.78,1.07,1.83,1.33,2.51l-1.17,.56c-.21-.69-.78-1.79-1.28-2.59l1.12-.48Zm10.15,1.2h-.85v1.15c0,.66-.14,1.01-.61,1.22-.48,.21-1.22,.21-2.32,.21-.05-.34-.22-.86-.4-1.2,.74,.03,1.47,.03,1.68,.02,.22,0,.27-.06,.27-.26v-1.14h-4.63v2.61h-1.33v-2.61h-.94v-1.09h.94V7.07h2.94v-.77h-3.83v-1.1h2.16v-.85h-1.44v-1.06h1.44v-.78h-1.84V1.41h1.84V.11h1.31V1.41h2.05V.11h1.33V1.41h1.84v1.1h-1.84v.78h1.58v1.06h-1.58v.85h2.18v1.1h-3.89v.77h3.07v4.05h.85v1.09Zm-6.85-4.03v.94h1.62v-.94h-1.62Zm0,2.95h1.62v-1.02h-1.62v1.02Zm1.26-7.83h2.05v-.78h-2.05v.78Zm0,1.9h2.05v-.85h-2.05v.85Zm1.67,2.98v.94h1.7v-.94h-1.7Zm1.7,2.95v-1.02h-1.7v1.02h1.7Z" style="fill: #80292d;"/>
      <path d="M81.76,12.84c-1.31,.82-3.36,1.58-4.98,2.02-.26-.29-.78-.85-1.12-1.1,1.68-.32,3.62-.91,4.74-1.52l1.36,.61ZM89.16,.82v3.68h-12.41V.82h12.41Zm-.9,4.48v6.9h-10.6V5.3h10.6Zm-10.12-1.94h2.27V1.95h-2.27v1.41Zm1.01,3.94h7.57v-1.01h-7.57v1.01Zm0,1.94h7.57v-.99h-7.57v.99Zm0,1.98h7.57v-1.04h-7.57v1.04Zm2.54-7.86h2.34V1.95h-2.34v1.41Zm3.52,8.88c1.78,.54,3.78,1.28,4.98,1.81l-1.58,.77c-1.02-.51-2.8-1.23-4.56-1.79l1.17-.78Zm.08-8.88h2.42V1.95h-2.42v1.41Z" style="fill: #80292d;"/>
    </g>
    <polyline points="5.43 19.31 117.96 19.31 103.23 13.32" style="fill: none; stroke: #80292d; stroke-miterlimit: 10;"/>
    <rect y="13.32" width="5.43" height="5.43" transform="translate(5.43 32.07) rotate(180)" style="fill: #841f29;"/>
  </g>
</svg>