<?xml version="1.0" encoding="UTF-8"?>
<svg id="b" data-name="圖層 2" xmlns="http://www.w3.org/2000/svg" width="30.26" height="228.28" viewBox="0 0 30.26 228.28">
  <g id="c" data-name="首頁">
    <g>
      <path d="M25.08,16.05c-.56,.12-1.05,.12-1.61,.12-3.34,0-6.39-3.63-6.39-7.68,0-2.37,1.41-4.75,4.28-4.75,6.97,0,8.44,13.54,8.44,19.01,0,3.43-.29,7.32-.35,8.88-.03,1.05-.47,1.46-1.05,1.46-.62,0-1.11-.73-1.11-2.31,0-1.46,.12-2.72,.12-3.72,0-3.81-5.68-6.15-10.55-9.05-4.98-2.96-8.03-6.5-8.03-11.95,0-2.4,.91-6.06,3.96-6.06,1.08,0,1.99,.73,1.99,1.88,0,.97-.5,1.46-1.32,1.46s-1.2-.44-1.38-1.11c-1.93,.15-2.9,1.32-2.9,3.93,0,5.04,5.48,7.65,9.73,10.08,4.78,2.72,7.09,4.6,8.61,9.58h.06c.15-1.14,.23-3.75,.23-5.65,0-7.32-1.41-16.05-6.21-16.05-2.14,0-3.22,2.58-3.22,4.66,0,3.13,1.76,7.06,5.39,7.06,.44,0,.85-.03,1.29-.09l.03,.32Z" style="fill: #ff7f00;"/>
      <path d="M19.25,30.88l.18,3.05c-2.08-1.08-7.27-5.24-9.35-5.24-.53,0-.73,.29-.73,.73,0,.94,1.2,2.67,2.99,4.42,1.49,1.46,3.6,3.19,4.54,3.9l-.12,.21c-1.35-1.03-3.05-2.31-4.92-4.16s-3.19-3.69-3.19-5.48c0-1.23,.73-1.96,1.67-1.96,.29,0,.62,.03,.76,.12v-.06c-1.35-1.2-2.43-2.78-2.43-4.51,0-1.9,1.55-2.61,3.19-2.61,3.81,0,8.06,4.66,8.06,8.29,0,1.35-.59,2.08-1.82,2.58l1.17,.73Zm-9.61-7.32c.18,2.49,6.04,5.71,8.23,5.71,1.05,0,1.67-.32,1.67-1.44,0-2.7-5.42-5.74-7.79-5.74-1.11,0-2.11,.26-2.11,1.46Z" style="fill: #ff7f00;"/>
      <path d="M19.42,41.66c-5.77-3.66-8.03-5.24-9.23-5.24-.47,0-.79,.18-.79,.53,0,.76,.82,2.2,2.99,4.34,1.76,1.73,3.69,3.37,4.51,4.07l-.18,.26c-1.23-.97-3.34-2.84-4.86-4.37-2.26-2.26-3.05-3.78-3.05-5.16,0-1.29,.79-2.02,1.9-2.02,1.52,0,3.05,1.08,8.55,4.57l.15,3.02Zm5.13,3.11c-.79,0-1.55-.73-1.55-1.52,0-.85,.44-1.58,1.35-1.58s1.58,.82,1.58,1.7c0,.73-.64,1.41-1.38,1.41Z" style="fill: #ff7f00;"/>
      <path d="M16.67,57.5c-3.54-2.87-8.03-6.74-8.03-11.66,0-2.34,1.32-3.63,3.75-3.63,3.75,0,7.5,4.89,7.5,8.79,0,1.79-.82,2.93-1.88,2.93-1.52,0-2.4-1.26-2.4-2.46,0-.29,.03-.53,.06-.67,.91,.26,1.85,.67,2.78,.67,.67,0,1.08-.35,1.08-.88,0-2.05-3.52-5.57-7.24-5.57-1.49,0-2.67,.97-2.67,2.55,0,3.84,4.83,7.73,7.15,9.67l-.12,.26Z" style="fill: #ff7f00;"/>
      <path d="M9.11,51.61l20.24,12.28,.15,3.19-15.35-9.73-.06,.06c2.05,1.73,5.8,4.37,5.8,7.41,0,1.23-.64,1.99-1.93,1.99-2.14,0-6.01-4.1-7.91-4.1-.5,0-.7,.23-.7,.62,0,1.76,5.65,6.65,7.47,7.94l-.18,.18c-1.32-1.03-3.19-2.52-4.78-4.07-2.17-2.11-3.05-3.43-3.05-4.98,0-1.41,.97-2.02,2.02-2.02,2.7,0,5.74,4.1,7.5,4.1,.56,0,.85-.38,.85-.76,0-2.52-7.09-7.62-9.99-9.08l-.09-3.02Z" style="fill: #ff7f00;"/>
      <path d="M19.54,81.9c-5.1-3.08-7.85-5.3-9.55-5.3-.41,0-.64,.21-.64,.56,0,.97,1.44,2.72,2.87,4.16,1.76,1.73,3.81,3.4,4.8,4.16l-.18,.23c-1.23-.94-3.13-2.46-4.8-4.1-2.02-1.96-3.22-3.63-3.22-5.24,0-1.17,.79-1.93,1.85-1.93,.73,0,1.35,.18,1.67,.35l.06-.06c-1.49-1.41-3.57-3.22-3.57-5.71,0-1.2,.88-1.85,1.9-1.85,1.49,0,4.22,1.73,8.7,4.45l.12,3.11c-4.72-3.08-7.71-5.21-9.2-5.21-.47,0-.82,.29-.82,.7,0,1.46,2.72,4.37,5.68,6.15l4.1,2.52,.23,3.02Z" style="fill: #ff7f00;"/>
      <path d="M14.15,85.56c1.41,1.11,5.74,4.34,5.74,7.38,0,1.29-.82,1.96-1.88,1.96-2.64,0-5.71-4.04-7.88-4.04-.47,0-.79,.23-.79,.76,0,.56,.67,1.79,2.96,3.93,1.79,1.67,3.69,3.19,4.54,3.9l-.15,.29c-1.2-1.03-3.16-2.58-4.92-4.25-2.14-2.05-2.96-3.28-2.96-4.8s.97-2.17,2.02-2.17c2.64,0,5.8,4.04,7.62,4.04,.41,0,.73-.29,.73-.82,0-2.31-7.09-7.56-9.99-9.02l-.09-2.96c3.43,2.05,6.8,4.19,10.31,6.21l.12,3.34-5.33-3.81-.06,.06Z" style="fill: #ff7f00;"/>
      <path d="M6.77,91.8c-.03-2.05-1.2-3.11-3.13-3.11s-3.28,1.29-3.28,3.28c0,5.51,7.35,9.23,11.28,11.92l.06-.06c-1.46-1.26-2.87-3.02-2.87-5.1,0-1.58,1.32-2.46,2.78-2.46,3.84,0,8.29,4.31,8.29,8.17,0,1.46-.47,2.29-1.9,2.75l1.26,.67,.18,2.99c-3.57-2.11-7.32-4.07-10.93-6.33,1.26,4.37,4.89,7.53,8.41,10.17l-.09,.18c-3.78-2.61-7.47-6.15-8.73-10.58-4.86-2.81-8.09-7.09-8.09-12.69,0-2.87,.97-5.39,3.78-5.39,2.14,0,3.34,1.99,3.34,3.96,0,.35-.12,1.23-.15,1.61h-.21Zm3.05,8.88c0,2.46,5.71,5.54,7.94,5.54,.82,0,1.79-.15,1.79-1.2,0-2.87-5.13-5.92-7.71-5.92-1.14,0-2.02,.26-2.02,1.58Z" style="fill: #ff7f00;"/>
      <path d="M17.2,120.1c0,.79-.47,1.55-1.32,1.55-1.05,0-1.64-.91-1.67-1.88-.56-.18-1.08-.23-1.64-.23-2.67,0-3.57,2.87-3.57,5.1,0,5.89,6.86,6.74,11.31,6.94,5.39,.23,9.96,2.43,9.96,7.59,0,2.2-.85,4.28-3.08,4.28-1.88,0-2.49-1.61-2.49-3.31,.91,.53,1.7,.85,2.78,.85,1.49,0,2.43-.88,2.43-2.17,0-4.54-7.15-4.22-12.83-4.92-3.34-.41-8.44-2.55-8.44-9.43,0-3.4,1.82-6.8,5.6-6.8,1.46,0,2.96,.82,2.96,2.43Z" style="fill: #ff7f00;"/>
      <path d="M19.54,149.42c-5.1-3.08-7.85-5.3-9.55-5.3-.41,0-.64,.21-.64,.56,0,.97,1.44,2.72,2.87,4.16,1.76,1.73,3.81,3.4,4.8,4.16l-.18,.23c-1.23-.94-3.13-2.46-4.8-4.1-2.02-1.96-3.22-3.63-3.22-5.24,0-1.17,.79-1.93,1.85-1.93,.73,0,1.35,.18,1.67,.35l.06-.06c-1.49-1.41-3.57-3.22-3.57-5.71,0-1.2,.88-1.85,1.9-1.85,1.49,0,4.22,1.73,8.7,4.45l.12,3.11c-4.72-3.08-7.71-5.21-9.2-5.21-.47,0-.82,.29-.82,.7,0,1.46,2.72,4.37,5.68,6.15l4.1,2.52,.23,3.02Z" style="fill: #ff7f00;"/>
      <path d="M14.15,153.08c1.41,1.11,5.74,4.34,5.74,7.38,0,1.29-.82,1.96-1.88,1.96-2.64,0-5.71-4.04-7.88-4.04-.47,0-.79,.23-.79,.76,0,.56,.67,1.79,2.96,3.93,1.79,1.67,3.69,3.19,4.54,3.9l-.15,.29c-1.2-1.03-3.16-2.58-4.92-4.25-2.14-2.05-2.96-3.28-2.96-4.8s.97-2.17,2.02-2.17c2.64,0,5.8,4.04,7.62,4.04,.41,0,.73-.29,.73-.82,0-2.31-7.09-7.56-9.99-9.02l-.09-2.96c3.43,2.05,6.8,4.19,10.31,6.21l.12,3.34-5.33-3.81-.06,.06Z" style="fill: #ff7f00;"/>
      <path d="M16.67,187.07c-3.54-2.87-8.03-6.74-8.03-11.66,0-2.34,1.32-3.63,3.75-3.63,3.75,0,7.5,4.89,7.5,8.79,0,1.79-.82,2.93-1.88,2.93-1.52,0-2.4-1.26-2.4-2.46,0-.29,.03-.53,.06-.67,.91,.26,1.85,.67,2.78,.67,.67,0,1.08-.35,1.08-.88,0-2.05-3.52-5.57-7.24-5.57-1.49,0-2.67,.97-2.67,2.55,0,3.84,4.83,7.73,7.15,9.67l-.12,.26Z" style="fill: #ff7f00;"/>
      <path d="M19.25,195.15l.18,3.05c-2.08-1.08-7.27-5.24-9.35-5.24-.53,0-.73,.29-.73,.73,0,.94,1.2,2.67,2.99,4.42,1.49,1.46,3.6,3.19,4.54,3.9l-.12,.21c-1.35-1.03-3.05-2.31-4.92-4.16s-3.19-3.69-3.19-5.48c0-1.23,.73-1.96,1.67-1.96,.29,0,.62,.03,.76,.12v-.06c-1.35-1.2-2.43-2.78-2.43-4.51,0-1.9,1.55-2.61,3.19-2.61,3.81,0,8.06,4.66,8.06,8.29,0,1.35-.59,2.08-1.82,2.58l1.17,.73Zm-9.61-7.32c.18,2.49,6.04,5.71,8.23,5.71,1.05,0,1.67-.32,1.67-1.44,0-2.7-5.42-5.74-7.79-5.74-1.11,0-2.11,.26-2.11,1.46Z" style="fill: #ff7f00;"/>
      <path d="M29.5,208.74l.18,3.22c-5.24-3.28-10.49-6.5-15.56-9.96l-.06,.06c2.08,1.79,5.83,4.78,5.83,7.79,0,1.2-.73,1.88-1.76,1.88-2.02,0-2.61-1.88-3.49-4.95h-.06c-.12,.64-.94,1.23-1.64,1.23-1.14,0-2.2-.59-3.08-.59-.32,0-.53,.18-.53,.47,0,1.99,4.69,6.01,7.35,8.03l-.15,.26c-3.05-2.43-7.91-6.04-7.91-9.55,0-1.23,.76-1.85,1.82-1.85,.94,0,2.2,.64,4.07,1.52-.21-.67-.47-1.49-.47-1.96,0-.35,.18-.53,.44-.53,.32,0,.53,.23,.53,1,0,.53-.18,1.41-.18,1.67,0,.56,.94,2.61,2.78,2.61,.7,0,1.2-.35,1.2-.91,0-2.52-7.21-7.65-9.64-8.94l-.09-2.84,20.39,12.33Z" style="fill: #ff7f00;"/>
      <path d="M16.79,228.28c-1.61-1.2-3.22-2.52-4.95-4.42-2.43-2.7-3.19-5.21-3.19-7.38s1.46-3.6,3.57-3.6c3.75,0,7.68,5.07,7.68,8.73,0,1.67-.67,2.67-1.85,2.67-2.84,0-4.07-6.39-4.51-8.44-.35-.09-.7-.15-1.05-.15-1.67,0-2.84,1-2.84,2.67s1.03,3.69,2.87,5.68c1.44,1.52,3.13,2.99,4.48,4.04l-.21,.21Zm2.75-7.15c0-1.96-3.75-4.75-5.71-5.24,.64,3.19,3.05,6.04,4.95,6.04,.53,0,.76-.32,.76-.79Z" style="fill: #ff7f00;"/>
    </g>
  </g>
</svg>