<?xml version="1.0" encoding="UTF-8"?>
<svg id="b" data-name="圖層 2" xmlns="http://www.w3.org/2000/svg" width="387.65" height="242.13" xmlns:xlink="http://www.w3.org/1999/xlink" viewBox="0 0 387.65 242.13">
  <defs>
    <clipPath id="d">
      <rect x="68.6" width="120.06" height="102.85" style="fill: none;"/>
    </clipPath>
  </defs>
  <g id="c" data-name="首頁">
    <g>
      <g>
        <path d="M95.67,51.38c-5.91,7.51,1.02,19.53-2.37,30.17l.1,.02c3.37-7.35,2.77-16.21,4.44-23.77,1.31-5.89,4.44-10.58,7.58-12.56,1.55-.98,2.18-1.2,2.47-.74,.27,.43-.43,.87-.77,1.08-.52,.33-1.08,.51-1.57,.69-.48,.18-.88,.3-1.06,.41-5.07,7.62,3.46,21.99-4.05,31.82l.04,.06,.27-.17c8.5-5.35,8.43-11.35,8.52-16.13h.34c.12,5.33-.47,11.36-8.54,16.44-.64,.4-1.47,.84-1.74,1.01-.24,.15-.97,.69-1.64,1.12-.55,.34-.9,.4-1.05,.15-.17-.27-.06-.56,.37-.83,.64-.4,1.51-.65,2.55-1.09,1.76-1.66,1.79-7.63,1.08-12.68-.79-5.71-.76-12.84,2.85-18.86l-.1-.02c-7.65,8.13-5.17,20.1-8.16,30.02-.73,2.42-1.69,5.02-3.11,7.15l-.43-.07c2.2-9.08-4.78-18.27,1.86-30.57l-.1-.02c-4.51,5.95-4.91,13.69-5.59,19.51-.73,6.2-.98,14.53-6.74,18.15-2.07,1.3-5.28,1.62-6.72-.67-.79-1.25-.83-2.67,.51-3.51,.76-.48,1.72-.31,2.2,.45,.58,.91,.41,1.74-.43,2.36,1.16,1.78,2.88,1.59,4.52,.56,2.16-1.36,4.12-4.21,5.06-8.8,2.17-10.34,.46-22.25,9.07-30.81l.34,.13Z" style="fill: #8a202a;"/>
        <path d="M121.95,54.79l3.36-1.66c-.23,2.87-2.45,10.73-1.45,13.08,.25,.6,.68,.69,1.18,.48,1.06-.45,2.44-2.64,3.57-5.5,.94-2.39,1.89-5.61,2.23-7l.29,.03c-.51,2.02-1.16,4.56-2.35,7.56-1.19,3-2.65,5.38-4.67,6.24-1.39,.59-2.57,.11-3.02-.95-.14-.33-.26-.71-.23-.92l-.07,.03c-.71,2.1-1.98,4.08-3.94,4.91-2.15,.91-3.69-.51-4.48-2.36-1.83-4.31,1.41-11.35,5.52-13.09,1.52-.65,2.63-.33,3.79,.82l.27-1.68Zm-3.68,14.38c2.73-1.39,3.57-9.56,2.52-12.05-.51-1.19-1.16-1.73-2.42-1.2-3.05,1.29-3.9,8.88-2.76,11.57,.53,1.26,1.31,2.26,2.67,1.68Z" style="fill: #8a202a;"/>
        <path d="M138.37,48.91c-2.13,8.12-3.14,11.36-2.69,12.76,.17,.55,.5,.86,.91,.73,.89-.28,2.27-1.78,3.96-5.12,1.37-2.7,2.57-5.58,3.08-6.8l.37,.11c-.67,1.8-2.08,4.97-3.29,7.32-1.8,3.48-3.29,4.98-4.9,5.49-1.51,.48-2.66-.17-3.08-1.47-.57-1.78,.13-3.97,2.16-11.72l3.48-1.3Zm1.72-7.16c.3,.93-.28,2.09-1.2,2.39-1,.32-2.02,.08-2.36-.99-.34-1.06,.37-2.16,1.4-2.49,.86-.27,1.89,.23,2.16,1.09Z" style="fill: #8a202a;"/>
        <path d="M148.3,52.91c.96-1.99,3.66-8.05,7.31-8.87,1.55-.35,2.57,.46,2.86,1.72,.71,3.16-3.31,7.94-2.73,10.54,.13,.56,.49,.89,1.13,.74,.67-.15,1.96-1.29,3.91-4.6,1.52-2.59,2.84-5.28,3.45-6.49l.39,.1c-.91,1.72-2.24,4.49-3.77,7.04-1.88,3.12-3.14,4.43-4.97,4.84-1.79,.4-2.86-.58-3.14-1.84-.71-3.16,3.29-8.04,2.8-10.22-.11-.49-.55-.8-1.18-.66-2.77,.62-7.16,10.53-8.13,14.4l-3.52,.9c1.54-4.66,3.2-9.28,4.68-14.03l3.97-1.04-3.13,7.42,.09,.05Z" style="fill: #8a202a;"/>
        <path d="M213.48,26.37c-1.44,.24-2.83,.77-4.12,1.47,2.5,1,4.26,2.92,4.3,5.73,.07,4.18-4.5,6.77-8.17,6.83-1.84,.03-3.18-.92-3.2-2.18-.02-.94,.73-1.78,1.95-1.79,.72-.01,1.19,.12,1.55,.37-.89,.48-1.42,1.21-1.41,2,.01,.79,.59,1.18,1.21,1.17,2.59-.04,5.07-4.69,5.03-7.64-.03-1.8-.56-3.23-1.94-4-8.26,5.89-9.99,21.44-21.53,24.4v.07c1.48,.3,4.08,.62,5.59,.59,7.45-.12,13.77-3.14,18.24-9.62l.25,.14c-3.86,5.97-8.19,9.96-16.11,10.09-2.48,.04-6.16-.4-8.59-1.01-1.58,.53-4.27,1-5.96,1.03-2.05,.03-4.44-.5-4.45-1.51,0-.58,.63-.87,1.79-.89,3.17-.05,6.71,1.12,7.94,1.1,8.33-1.29,9.14-18.44,21.78-24.8v-.07c-1.09-.27-2.56-.43-4.54-.4-6.84,.11-18.06,5.62-17.92,14.22,.03,1.91,.79,4.06,3.02,4.02,3.64-.06,5.76-4.67,5.72-7.04,0-.43-.02-1.12-.1-1.62h.43c.04,.46,.09,.86,.1,1.5,.05,3.31-2.57,7.96-7.61,8.04-2.74,.04-4.39-2.34-4.44-4.9-.12-7.63,12.58-14.53,20.86-14.67,2.09-.03,3.57,.16,5.23,.53,1.47-.6,3.54-1.28,5.05-1.45l.04,.29Z" style="fill: #8a202a;"/>
        <path d="M207.19,53.56c2.92-3.9,5.95-7.75,8.91-11.71l4.09,.33-5.5,6.1,.06,.08c4.1-4.01,6.26-4.56,7.06-5.19,1.16-.92,1.78-.95,4.47-.71-1.04,1.18-2.14,2.47-2.33,4.08-.13,1.07,.32,1.6,1.36,1.72,1.36,.16,2.72-.95,3.68-1.74l.12,.2c-1.52,1.49-3.51,2.45-5.66,2.2-1.89-.22-2.95-1.4-2.73-3.33,.07-.61,.36-1.23,.74-1.69l-.06-.08c-4.35,2.21-8.04,6.41-10.6,10.06l-3.62-.32Z" style="fill: #8a202a;"/>
        <path d="M250.01,51.49c-1.21,.99-2.78,1.89-4.33,1.55-1.09-.24-1.72-.9-2.2-1.89-2.12,4.43-7.32,7.42-12.2,6.34-2.57-.57-3.9-2.52-3.34-5.09,1.1-4.99,7.73-8.1,12.4-7.07,2.5,.55,3.66,2.47,3.56,4.44-.06,1.46,.58,2.56,1.88,2.85,1.27,.28,2.48-.23,4.08-1.46l.15,.33Zm-8.8-3.57c.26-1.16-.08-1.97-1.14-2.2-3.55-.79-8.94,6.25-9.59,9.2-.26,1.16,.08,1.97,1.14,2.21,3.55,.78,8.94-6.25,9.59-9.2Z" style="fill: #8a202a;"/>
        <path d="M275.5,44.04l3.88,1.1c-7.03,5.85-20.58,15.52-21.48,18.14-.16,.48-.04,.9,.44,1.06,.95,.33,3.01,0,5.77-1.41,2.25-1.13,4.32-2.4,6.95-4.17l.28,.29c-1.44,.99-4.24,2.81-6.55,4-2.95,1.5-5.37,2.35-7.62,1.58-2.08-.71-2.1-2.43-1.45-3.54l-.04-.09c-1.9,.99-3.92,1.55-6.1,.8s-2.39-2.68-1.76-4.52c1.56-4.56,8.42-7.58,12.85-6.06,1.53,.53,2.29,1.66,2.32,3.23l12.51-10.4Zm-13.71,10.14c.46-1.33-.1-2.16-1.15-2.53-2.83-.97-8.47,3.61-9.62,6.98-.37,1.09-.28,2.26,.95,2.68,2.93,1,8.78-4.07,9.83-7.14Z" style="fill: #8a202a;"/>
        <path d="M287.88,63.3c-6.1,4.04-10.02,5.93-10.92,7.81-.22,.46-.11,.82,.28,1.01,1.07,.51,3.78-.16,6.13-1,2.85-1.04,5.78-2.44,7.15-3.14l.17,.32c-1.69,.87-4.38,2.18-7.08,3.17-3.24,1.21-5.73,1.67-7.52,.82-1.3-.62-1.73-1.9-1.18-3.07,.39-.81,.9-1.4,1.27-1.67l-.03-.1c-2.35,.92-5.46,2.27-8.23,.96-1.33-.63-1.59-1.95-1.05-3.09,.79-1.66,4.14-3.77,9.53-7.32l3.51,1.5c-5.9,3.62-9.85,5.81-10.63,7.47-.25,.52-.11,1.07,.35,1.28,1.63,.77,6.28-.73,9.82-3.07l4.96-3.23,3.47,1.33Z" style="fill: #8a202a;"/>
        <path d="M306.3,78.37c-5.27,1.9-12.19,4.15-17.36,1.02-2.46-1.49-2.98-3.7-1.43-6.25,2.39-3.94,9.92-4.77,14.01-2.29,1.88,1.14,2.56,2.73,1.89,3.83-.97,1.6-2.85,1.72-4.12,.96-.31-.19-.54-.37-.67-.49,.85-.79,1.88-1.51,2.48-2.5,.43-.71,.32-1.36-.23-1.7-2.16-1.31-8.09,.15-10.46,4.06-.95,1.57-.68,3.42,.98,4.42,4.03,2.44,11.21-.16,14.71-1.36l.2,.29Z" style="fill: #8a202a;"/>
        <path d="M308.87,77.21l.58-.38,2.24,1.63,4.85-2.09,3.23,2.17-5.17,2.03,3.7,2.68-.64,.33-3.76-2.73c-7.68,3.24-10.15,4.12-10.97,5.25-.36,.5-.32,1.06,.17,1.42,.96,.7,3.44,.89,6.52,.46,2.14-.32,5.02-.98,7.53-1.74l.07,.27c-1.72,.53-4.46,1.3-7.27,1.75-3.12,.5-6.24,.5-8.01-.79-1.22-.89-1.97-2.19-.96-3.59,1.46-2.01,4.82-2.78,10.06-5.11l-2.19-1.58Z" style="fill: #8a202a;"/>
      </g>
      <rect x="6.78" y="117.13" width="374.25" height="116.1" style="fill: #fff;"/>
      <g>
        <g>
          <line x1="187.67" y1="117.13" x2="381.64" y2="117.13" style="fill: none; stroke: #89202a; stroke-miterlimit: 10; stroke-width: 2px;"/>
          <line x1="187.67" y1="109.41" x2="381.64" y2="109.41" style="fill: none; stroke: #89202a; stroke-miterlimit: 10;"/>
        </g>
        <g>
          <rect y="117.51" width="6.62" height="6.62" transform="translate(6.62 241.65) rotate(180)" style="fill: #a28978;"/>
          <rect x="381.03" y="117.69" width="6.62" height="6.62" transform="translate(768.68 242) rotate(180)" style="fill: #89202a;"/>
        </g>
      </g>
      <g>
        <g>
          <line x1="381.62" y1="233.91" x2="188.67" y2="233.91" style="fill: none; stroke: #89202a; stroke-miterlimit: 10; stroke-width: 2px;"/>
          <line x1="381.62" y1="241.63" x2="188.67" y2="241.63" style="fill: none; stroke: #89202a; stroke-miterlimit: 10;"/>
          <line x1="6.78" y1="117.13" x2="188.67" y2="117.13" style="fill: none; stroke: #a28978; stroke-miterlimit: 10; stroke-width: 2px;"/>
          <line x1="6.78" y1="109.41" x2="188.67" y2="109.41" style="fill: none; stroke: #a28978; stroke-miterlimit: 10;"/>
          <line x1="188.67" y1="233.91" x2="6.78" y2="233.91" style="fill: none; stroke: #a28978; stroke-miterlimit: 10; stroke-width: 2px;"/>
          <line x1="188.67" y1="241.63" x2="6.78" y2="241.63" style="fill: none; stroke: #a28978; stroke-miterlimit: 10;"/>
        </g>
        <g>
          <rect x="381.03" y="226.91" width="6.62" height="6.62" style="fill: #89202a;"/>
          <rect x=".16" y="226.73" width="6.62" height="6.62" style="fill: #a28978;"/>
        </g>
      </g>
      <g>
        <path d="M146.63,188.6v3.28h-31.89v-3.28h14.04v-7.96h-10.69v-3.24h10.69v-7.16h-12.42v-3.28h15.12c-1.48-1.58-3.82-3.6-5.8-5l2.74-1.91c2.3,1.55,5.25,3.96,6.73,5.65l-1.76,1.26h11.45v3.28h-12.38v7.16h10.8v3.24h-10.8v7.96h14.18Z" style="fill: #a08778;"/>
        <path d="M171.05,178.27l-4.97,1.4v9.29c0,1.73-.4,2.63-1.44,3.13-1.12,.58-2.66,.65-5.18,.65-.11-.86-.58-2.27-1.01-3.17,1.58,.07,3.13,.07,3.56,.04,.5,0,.68-.18,.68-.68v-8.28l-4.43,1.22-.94-3.31c1.51-.36,3.35-.83,5.36-1.37v-6.98h-5.04v-3.17h5.04v-6.98h3.38v6.98h4.57v3.17h-4.57v6.12l4.57-1.22,.4,3.17Zm19.33-12.02h-6.12v22.17c0,2.12-.5,3.2-1.94,3.78-1.44,.61-3.74,.68-7.09,.68-.18-1.01-.83-2.66-1.33-3.67,2.41,.14,5.04,.11,5.83,.11,.68-.04,.94-.25,.94-.9v-22.17h-9.68v-3.35h19.4v3.35Z" style="fill: #a08778;"/>
        <path d="M233.36,190.72h-15.59v2.38h-3.2v-20.16c-.83,1.26-1.73,2.45-2.63,3.46l-.4-.43,.4,2.52-3.85,1.19v9.47c0,1.69-.32,2.63-1.3,3.17-1.01,.58-2.48,.68-4.75,.68-.11-.86-.5-2.34-.97-3.28,1.4,.07,2.77,.07,3.17,.04,.47,0,.65-.14,.65-.65v-8.42c-1.37,.43-2.66,.83-3.89,1.19l-.76-3.24c1.3-.32,2.88-.79,4.64-1.26v-7.34h-4.32v-3.1h4.32v-6.84h3.2v6.84h3.85v3.1h-3.85v6.41l3.02-.9c-.54-.58-1.15-1.22-1.62-1.55,3.2-3.31,5.94-8.49,7.56-13.75l3.2,.83c-.61,1.76-1.26,3.53-2.05,5.25h6.12c-.43-1.4-1.37-3.35-2.27-4.86l2.88-1.15c1.04,1.58,2.12,3.71,2.56,5.11l-2.09,.9h7.23v3.06h-6.37v4.03h5.87v2.95h-5.87v4.1h5.83v2.95h-5.83v4.25h7.09v3.06Zm-10.19-21.35h-5.4v4.03h5.4v-4.03Zm0,6.98h-5.4v4.1h5.4v-4.1Zm-5.4,11.3h5.4v-4.25h-5.4v4.25Z" style="fill: #a08778;"/>
        <path d="M260.25,165.2c.65,.79,1.3,1.73,1.66,2.59h13.68v2.38h-10.08v1.84h8.6v5.9h-19.4v1.69h19.91v2.27h-19.91v1.73h20.63s-.04,.76-.07,1.15c-.36,4.61-.79,6.55-1.55,7.38-.58,.58-1.22,.79-2.12,.86-.68,.11-2.05,.11-3.49,.04-.04-.76-.32-1.8-.68-2.52,1.19,.14,2.23,.14,2.7,.14,.5,0,.76-.04,1.01-.32,.36-.4,.68-1.62,.94-4.46h-20.3v-7.96h-2.27c-.14,4.75-.83,10.76-3.42,14.97-.58-.54-1.98-1.4-2.7-1.73,2.77-4.46,3.06-10.73,3.06-15.26v-8.1h12.35c-.32-.61-.72-1.19-1.08-1.73l2.56-.86Zm-8.82-.54h-7.2v-2.56h7.2v-2.09h3.2v2.09h4.54v2.56h-4.54v2.09h-3.2v-2.09Zm-2.63,26.85c1.08-1.22,2.05-3.31,2.59-4.9l2.38,1.04c-.58,1.66-1.51,3.82-2.52,5.18l-2.45-1.33Zm.72-21.35v1.84h5.11v-1.84h-5.11Zm5.11,3.82h-5.11v1.91h5.11v-1.91Zm3.06,13.21c.43,1.58,.76,3.64,.79,5l-2.63,.36c0-1.33-.29-3.42-.68-5.04l2.52-.32Zm4.93-17.03h-5.15v1.84h5.15v-1.84Zm-5.15,5.72h5.15v-1.91h-5.15v1.91Zm4.64,10.73c.86,1.37,1.62,3.2,1.94,4.43l-2.48,.86c-.25-1.26-1.04-3.17-1.84-4.61l2.38-.68Zm13.93-24.55v2.59h-6.98v2.09h-3.24v-2.09h-4.82v-2.59h4.82v-2.05h3.24v2.05h6.98Zm-9.47,23.87c1.01,.97,2.05,2.3,2.52,3.24l-2.23,1.12c-.47-.97-1.51-2.38-2.41-3.38l2.12-.97Zm-1.08-11.95v1.91h5.33v-1.91h-5.33Z" style="fill: #a08778;"/>
      </g>
      <g style="clip-path: url(#d);">
        <g>
          <path d="M95.67,51.38c-5.91,7.51,1.02,19.53-2.37,30.17l.1,.02c3.37-7.35,2.77-16.21,4.44-23.77,1.31-5.89,4.44-10.58,7.58-12.56,1.55-.98,2.18-1.2,2.47-.74,.27,.43-.43,.87-.77,1.08-.52,.33-1.08,.51-1.57,.69-.48,.18-.88,.3-1.06,.41-5.07,7.62,3.46,21.99-4.05,31.82l.04,.06,.27-.17c8.5-5.35,8.43-11.35,8.52-16.13h.34c.12,5.33-.47,11.36-8.54,16.44-.64,.4-1.47,.84-1.74,1.01-.24,.15-.97,.69-1.64,1.12-.55,.34-.9,.4-1.05,.15-.17-.27-.06-.56,.37-.83,.64-.4,1.51-.65,2.55-1.09,1.76-1.66,1.79-7.63,1.08-12.68-.79-5.71-.76-12.84,2.85-18.86l-.1-.02c-7.65,8.13-5.17,20.1-8.16,30.02-.73,2.42-1.69,5.02-3.11,7.15l-.43-.07c2.2-9.08-4.78-18.27,1.86-30.57l-.1-.02c-4.51,5.95-4.91,13.69-5.59,19.51-.73,6.2-.98,14.53-6.74,18.15-2.07,1.3-5.28,1.62-6.72-.67-.79-1.25-.83-2.67,.51-3.51,.76-.48,1.72-.31,2.2,.45,.58,.91,.41,1.74-.43,2.36,1.16,1.78,2.88,1.59,4.52,.56,2.16-1.36,4.12-4.21,5.06-8.8,2.17-10.34,.46-22.25,9.07-30.81l.34,.13Z" style="fill: #a48b78;"/>
          <path d="M121.95,54.79l3.36-1.66c-.23,2.87-2.45,10.73-1.45,13.08,.25,.6,.68,.69,1.18,.48,1.06-.45,2.44-2.64,3.57-5.5,.94-2.39,1.89-5.61,2.23-7l.29,.03c-.51,2.02-1.16,4.56-2.35,7.56-1.19,3-2.65,5.38-4.67,6.24-1.39,.59-2.57,.11-3.02-.95-.14-.33-.26-.71-.23-.92l-.07,.03c-.71,2.1-1.98,4.08-3.94,4.91-2.15,.91-3.69-.51-4.48-2.36-1.83-4.31,1.41-11.35,5.52-13.09,1.52-.65,2.63-.33,3.79,.82l.27-1.68Zm-3.68,14.38c2.73-1.39,3.57-9.56,2.52-12.05-.51-1.19-1.16-1.73-2.42-1.2-3.05,1.29-3.9,8.88-2.76,11.57,.53,1.26,1.31,2.26,2.67,1.68Z" style="fill: #a48b78;"/>
          <path d="M138.37,48.91c-2.13,8.12-3.14,11.36-2.69,12.76,.17,.55,.5,.86,.91,.73,.89-.28,2.27-1.78,3.96-5.12,1.37-2.7,2.57-5.58,3.08-6.8l.37,.11c-.67,1.8-2.08,4.97-3.29,7.32-1.8,3.48-3.29,4.98-4.9,5.49-1.51,.48-2.66-.17-3.08-1.47-.57-1.78,.13-3.97,2.16-11.72l3.48-1.3Zm1.72-7.16c.3,.93-.28,2.09-1.2,2.39-1,.32-2.02,.08-2.36-.99-.34-1.06,.37-2.16,1.4-2.49,.86-.27,1.89,.23,2.16,1.09Z" style="fill: #a48b78;"/>
          <path d="M148.3,52.91c.96-1.99,3.66-8.05,7.31-8.87,1.55-.35,2.57,.46,2.86,1.72,.71,3.16-3.31,7.94-2.73,10.54,.13,.56,.49,.89,1.13,.74,.67-.15,1.96-1.29,3.91-4.6,1.52-2.59,2.84-5.28,3.45-6.49l.39,.1c-.91,1.72-2.24,4.49-3.77,7.04-1.88,3.12-3.14,4.43-4.97,4.84-1.79,.4-2.86-.58-3.14-1.84-.71-3.16,3.29-8.04,2.8-10.22-.11-.49-.55-.8-1.18-.66-2.77,.62-7.16,10.53-8.13,14.4l-3.52,.9c1.54-4.66,3.2-9.28,4.68-14.03l3.97-1.04-3.13,7.42,.09,.05Z" style="fill: #a48b78;"/>
          <path d="M213.48,26.37c-1.44,.24-2.83,.77-4.12,1.47,2.5,1,4.26,2.92,4.3,5.73,.07,4.18-4.5,6.77-8.17,6.83-1.84,.03-3.18-.92-3.2-2.18-.02-.94,.73-1.78,1.95-1.79,.72-.01,1.19,.12,1.55,.37-.89,.48-1.42,1.21-1.41,2,.01,.79,.59,1.18,1.21,1.17,2.59-.04,5.07-4.69,5.03-7.64-.03-1.8-.56-3.23-1.94-4-8.26,5.89-9.99,21.44-21.53,24.4v.07c1.48,.3,4.08,.62,5.59,.59,7.45-.12,13.77-3.14,18.24-9.62l.25,.14c-3.86,5.97-8.19,9.96-16.11,10.09-2.48,.04-6.16-.4-8.59-1.01-1.58,.53-4.27,1-5.96,1.03-2.05,.03-4.44-.5-4.45-1.51,0-.58,.63-.87,1.79-.89,3.17-.05,6.71,1.12,7.94,1.1,8.33-1.29,9.14-18.44,21.78-24.8v-.07c-1.09-.27-2.56-.43-4.54-.4-6.84,.11-18.06,5.62-17.92,14.22,.03,1.91,.79,4.06,3.02,4.02,3.64-.06,5.76-4.67,5.72-7.04,0-.43-.02-1.12-.1-1.62h.43c.04,.46,.09,.86,.1,1.5,.05,3.31-2.57,7.96-7.61,8.04-2.74,.04-4.39-2.34-4.44-4.9-.12-7.63,12.58-14.53,20.86-14.67,2.09-.03,3.57,.16,5.23,.53,1.47-.6,3.54-1.28,5.05-1.45l.04,.29Z" style="fill: #a48b78;"/>
          <path d="M207.19,53.56c2.92-3.9,5.95-7.75,8.91-11.71l4.09,.33-5.5,6.1,.06,.08c4.1-4.01,6.26-4.56,7.06-5.19,1.16-.92,1.78-.95,4.47-.71-1.04,1.18-2.14,2.47-2.33,4.08-.13,1.07,.32,1.6,1.36,1.72,1.36,.16,2.72-.95,3.68-1.74l.12,.2c-1.52,1.49-3.51,2.45-5.66,2.2-1.89-.22-2.95-1.4-2.73-3.33,.07-.61,.36-1.23,.74-1.69l-.06-.08c-4.35,2.21-8.04,6.41-10.6,10.06l-3.62-.32Z" style="fill: #8a202a;"/>
          <path d="M250.01,51.49c-1.21,.99-2.78,1.89-4.33,1.55-1.09-.24-1.72-.9-2.2-1.89-2.12,4.43-7.32,7.42-12.2,6.34-2.57-.57-3.9-2.52-3.34-5.09,1.1-4.99,7.73-8.1,12.4-7.07,2.5,.55,3.66,2.47,3.56,4.44-.06,1.46,.58,2.56,1.88,2.85,1.27,.28,2.48-.23,4.08-1.46l.15,.33Zm-8.8-3.57c.26-1.16-.08-1.97-1.14-2.2-3.55-.79-8.94,6.25-9.59,9.2-.26,1.16,.08,1.97,1.14,2.21,3.55,.78,8.94-6.25,9.59-9.2Z" style="fill: #8a202a;"/>
          <path d="M275.5,44.04l3.88,1.1c-7.03,5.85-20.58,15.52-21.48,18.14-.16,.48-.04,.9,.44,1.06,.95,.33,3.01,0,5.77-1.41,2.25-1.13,4.32-2.4,6.95-4.17l.28,.29c-1.44,.99-4.24,2.81-6.55,4-2.95,1.5-5.37,2.35-7.62,1.58-2.08-.71-2.1-2.43-1.45-3.54l-.04-.09c-1.9,.99-3.92,1.55-6.1,.8s-2.39-2.68-1.76-4.52c1.56-4.56,8.42-7.58,12.85-6.06,1.53,.53,2.29,1.66,2.32,3.23l12.51-10.4Zm-13.71,10.14c.46-1.33-.1-2.16-1.15-2.53-2.83-.97-8.47,3.61-9.62,6.98-.37,1.09-.28,2.26,.95,2.68,2.93,1,8.78-4.07,9.83-7.14Z" style="fill: #8a202a;"/>
          <path d="M287.88,63.3c-6.1,4.04-10.02,5.93-10.92,7.81-.22,.46-.11,.82,.28,1.01,1.07,.51,3.78-.16,6.13-1,2.85-1.04,5.78-2.44,7.15-3.14l.17,.32c-1.69,.87-4.38,2.18-7.08,3.17-3.24,1.21-5.73,1.67-7.52,.82-1.3-.62-1.73-1.9-1.18-3.07,.39-.81,.9-1.4,1.27-1.67l-.03-.1c-2.35,.92-5.46,2.27-8.23,.96-1.33-.63-1.59-1.95-1.05-3.09,.79-1.66,4.14-3.77,9.53-7.32l3.51,1.5c-5.9,3.62-9.85,5.81-10.63,7.47-.25,.52-.11,1.07,.35,1.28,1.63,.77,6.28-.73,9.82-3.07l4.96-3.23,3.47,1.33Z" style="fill: #8a202a;"/>
          <path d="M306.3,78.37c-5.27,1.9-12.19,4.15-17.36,1.02-2.46-1.49-2.98-3.7-1.43-6.25,2.39-3.94,9.92-4.77,14.01-2.29,1.88,1.14,2.56,2.73,1.89,3.83-.97,1.6-2.85,1.72-4.12,.96-.31-.19-.54-.37-.67-.49,.85-.79,1.88-1.51,2.48-2.5,.43-.71,.32-1.36-.23-1.7-2.16-1.31-8.09,.15-10.46,4.06-.95,1.57-.68,3.42,.98,4.42,4.03,2.44,11.21-.16,14.71-1.36l.2,.29Z" style="fill: #8a202a;"/>
          <path d="M308.87,77.21l.58-.38,2.24,1.63,4.85-2.09,3.23,2.17-5.17,2.03,3.7,2.68-.64,.33-3.76-2.73c-7.68,3.24-10.15,4.12-10.97,5.25-.36,.5-.32,1.06,.17,1.42,.96,.7,3.44,.89,6.52,.46,2.14-.32,5.02-.98,7.53-1.74l.07,.27c-1.72,.53-4.46,1.3-7.27,1.75-3.12,.5-6.24,.5-8.01-.79-1.22-.89-1.97-2.19-.96-3.59,1.46-2.01,4.82-2.78,10.06-5.11l-2.19-1.58Z" style="fill: #8a202a;"/>
        </g>
      </g>
    </g>
  </g>
</svg>