<?xml version="1.0" encoding="UTF-8"?>
<svg id="b" data-name="圖層 2" xmlns="http://www.w3.org/2000/svg" width="213.38" height="118.08" viewBox="0 0 213.38 118.08">
  <g id="c" data-name="首頁">
    <rect x="3.64" y="48.29" width="206.1" height="65.05" style="fill: #fff;"/>
    <g>
      <path d="M56.39,12.24c-3.09,3.64,.16,9.77-1.72,15.02h.05c1.81-3.6,1.68-8.03,2.64-11.78,.76-2.92,2.41-5.21,4.01-6.14,.79-.46,1.11-.56,1.25-.33,.13,.22-.23,.43-.4,.53-.26,.15-.55,.24-.79,.32-.25,.08-.44,.13-.54,.19-2.67,3.71,1.33,11.04-2.59,15.82l.02,.03,.14-.08c4.34-2.52,4.41-5.52,4.55-7.9h.17c-.04,2.67-.44,5.67-4.56,8.06-.33,.19-.75,.39-.89,.47-.12,.07-.5,.33-.84,.53-.28,.16-.46,.18-.53,.06-.08-.14-.02-.28,.2-.41,.33-.19,.76-.3,1.29-.5,.91-.8,1.03-3.78,.77-6.31-.29-2.87-.15-6.43,1.76-9.37h-.05c-3.96,3.91-2.94,9.94-4.61,14.84-.41,1.19-.93,2.48-1.68,3.52l-.21-.04c1.26-4.5-2.06-9.21,1.48-15.24h-.05c-2.36,2.88-2.7,6.74-3.14,9.63-.48,3.09-.75,7.24-3.69,8.95-1.06,.61-2.67,.71-3.34-.45-.37-.64-.37-1.35,.32-1.75,.39-.23,.86-.13,1.09,.26,.27,.47,.18,.88-.26,1.17,.55,.91,1.41,.85,2.25,.36,1.1-.64,2.13-2.03,2.68-4.3,1.27-5.13,.63-11.1,5.08-15.23l.17,.07Z" style="fill: #9d8577;"/>
      <path d="M69.37,14.3l1.7-.79c-.15,1.43-1.34,5.34-.87,6.53,.12,.3,.33,.35,.58,.25,.54-.21,1.25-1.29,1.85-2.71,.5-1.19,1-2.78,1.19-3.48l.14,.02c-.28,1-.63,2.27-1.26,3.75s-1.38,2.66-2.4,3.07c-.7,.28-1.29,.03-1.5-.51-.07-.17-.12-.36-.11-.46h-.03c-.38,1.06-1.04,2.03-2.02,2.43-1.09,.43-1.84-.29-2.21-1.23-.86-2.17,.83-5.66,2.9-6.48,.77-.31,1.32-.14,1.88,.45l.15-.83Zm-2,7.15c1.38-.67,1.89-4.74,1.39-6-.24-.6-.56-.88-1.2-.63-1.54,.61-2.05,4.4-1.51,5.75,.25,.64,.63,1.14,1.32,.87Z" style="fill: #9d8577;"/>
      <path d="M77.63,11.49c-1.12,4.05-1.65,5.65-1.44,6.36,.08,.28,.24,.43,.45,.37,.45-.14,1.15-.87,2.02-2.53,.7-1.34,1.32-2.77,1.59-3.38l.19,.06c-.35,.9-1.08,2.47-1.7,3.64-.92,1.73-1.68,2.46-2.49,2.71-.76,.23-1.33-.1-1.53-.76-.27-.9,.09-1.98,1.16-5.84l1.75-.62Zm.91-3.57c.14,.47-.15,1.04-.62,1.18-.5,.15-1.01,.02-1.17-.51s.2-1.08,.72-1.23c.43-.13,.94,.13,1.07,.56Z" style="fill: #9d8577;"/>
      <path d="M82.58,13.54c.49-.99,1.86-4.01,3.69-4.41,.77-.17,1.29,.24,1.42,.87,.34,1.58-1.68,3.96-1.4,5.26,.06,.28,.24,.44,.56,.38,.33-.07,.99-.64,1.97-2.29,.77-1.29,1.44-2.63,1.75-3.23l.19,.05c-.46,.85-1.14,2.24-1.91,3.51-.95,1.55-1.58,2.2-2.5,2.4-.9,.19-1.43-.3-1.56-.93-.34-1.58,1.67-4.01,1.44-5.1-.05-.25-.27-.4-.59-.33-1.39,.3-3.62,5.24-4.12,7.17l-1.77,.44c.79-2.33,1.63-4.63,2.39-7l1.99-.5-1.59,3.7,.04,.03Z" style="fill: #9d8577;"/>
      <path d="M115.08,.14c-.72,.12-1.41,.39-2.05,.75,1.25,.49,2.14,1.44,2.18,2.84,.05,2.09-2.22,3.4-4.06,3.45-.92,.02-1.59-.45-1.61-1.08-.01-.47,.36-.89,.97-.91,.36,0,.6,.06,.78,.18-.44,.25-.71,.61-.7,1.01,0,.4,.3,.59,.61,.58,1.29-.03,2.52-2.37,2.48-3.84-.02-.9-.29-1.61-.99-1.99-4.1,2.98-4.9,10.76-10.66,12.29v.04c.74,.14,2.04,.29,2.8,.27,3.72-.09,6.87-1.63,9.08-4.89l.13,.07c-1.91,3-4.05,5.01-8.01,5.11-1.24,.03-3.08-.18-4.3-.47-.79,.27-2.13,.52-2.97,.54-1.03,.03-2.22-.23-2.23-.74,0-.29,.31-.44,.89-.45,1.58-.04,3.36,.53,3.97,.51,4.16-.68,4.49-9.25,10.78-12.49v-.04c-.54-.13-1.28-.2-2.27-.18-3.42,.08-9,2.89-8.9,7.19,.02,.95,.41,2.02,1.53,2,1.82-.04,2.86-2.36,2.83-3.54,0-.22-.01-.56-.06-.81h.22c.02,.23,.05,.42,.05,.75,.04,1.66-1.25,3.99-3.77,4.05-1.37,.03-2.21-1.15-2.24-2.43-.09-3.81,6.23-7.32,10.37-7.42,1.04-.03,1.78,.06,2.62,.24,.73-.31,1.77-.66,2.52-.75l.02,.14Z" style="fill: #9d8577;"/>
      <path d="M112.1,13.73c1.42-1.98,2.88-3.94,4.32-5.96l2.05,.12-2.68,3.11,.03,.04c2-2.06,3.08-2.35,3.47-2.68,.57-.47,.88-.5,2.23-.41-.51,.6-1.04,1.26-1.12,2.07-.05,.54,.18,.79,.7,.84,.68,.06,1.35-.51,1.82-.92l.06,.1c-.74,.76-1.73,1.27-2.8,1.17-.95-.09-1.49-.66-1.4-1.63,.03-.3,.17-.62,.35-.85l-.03-.04c-2.15,1.16-3.94,3.3-5.19,5.16l-1.82-.12Z" style="fill: #9d8577;"/>
      <path d="M133.51,12.09c-.59,.51-1.36,.99-2.14,.85-.55-.1-.87-.42-1.13-.91-.99,2.25-3.54,3.83-6,3.37-1.29-.24-1.99-1.2-1.75-2.49,.47-2.51,3.73-4.18,6.08-3.74,1.26,.24,1.87,1.17,1.85,2.16,0,.73,.33,1.27,.98,1.39,.64,.12,1.24-.15,2.02-.8l.08,.16Zm-4.46-1.64c.11-.58-.07-.98-.6-1.08-1.79-.33-4.37,3.27-4.65,4.75-.11,.58,.07,.98,.6,1.08,1.79,.33,4.37-3.27,4.64-4.75Z" style="fill: #9d8577;"/>
      <path d="M146.09,7.82l1.96,.47c-3.39,3.07-9.95,8.18-10.35,9.51-.07,.24,0,.45,.24,.52,.48,.14,1.5-.06,2.85-.83,1.1-.61,2.11-1.29,3.38-2.23l.15,.14c-.7,.53-2.06,1.49-3.18,2.14-1.44,.81-2.63,1.28-3.77,.95-1.05-.31-1.1-1.17-.8-1.74l-.02-.04c-.93,.53-1.92,.86-3.03,.53s-1.25-1.29-.97-2.22c.68-2.31,4.05-3.96,6.29-3.3,.78,.23,1.18,.78,1.23,1.56l6.03-5.46Zm-6.64,5.36c.2-.67-.09-1.08-.63-1.24-1.43-.42-4.15,1.98-4.66,3.69-.16,.55-.09,1.14,.53,1.32,1.48,.44,4.3-2.22,4.76-3.77Z" style="fill: #9d8577;"/>
      <path d="M152.68,17.07c-2.94,2.18-4.85,3.22-5.25,4.19-.1,.23-.03,.41,.17,.5,.55,.23,1.88-.18,3.04-.66,1.39-.59,2.82-1.37,3.49-1.76l.09,.15c-.82,.48-2.13,1.21-3.45,1.77-1.59,.69-2.82,.98-3.73,.61-.67-.27-.91-.9-.67-1.5,.17-.42,.42-.72,.59-.87l-.02-.05c-1.15,.52-2.67,1.28-4.08,.7-.68-.28-.84-.93-.6-1.51,.35-.85,1.97-1.99,4.57-3.9l1.79,.66c-2.85,1.96-4.76,3.16-5.11,4.01-.11,.27-.03,.53,.21,.63,.83,.34,3.12-.53,4.82-1.79l2.39-1.74,1.77,.57Z" style="fill: #9d8577;"/>
      <path d="M162.33,24.04c-2.57,1.11-5.96,2.44-8.64,1.03-1.27-.67-1.6-1.75-.9-3.08,1.07-2.04,4.8-2.68,6.92-1.57,.97,.51,1.36,1.28,1.06,1.86-.44,.83-1.37,.95-2.03,.6-.16-.08-.28-.17-.35-.22,.4-.42,.89-.81,1.16-1.32,.19-.37,.12-.69-.17-.84-1.12-.59-4.03,.32-5.1,2.34-.43,.81-.24,1.73,.62,2.18,2.09,1.1,5.59-.42,7.3-1.12l.11,.14Z" style="fill: #9d8577;"/>
      <path d="M163.55,23.34l.28-.21,1.18,.73,2.35-1.21,1.69,.97-2.51,1.19,1.94,1.21-.31,.19-1.97-1.23c-3.72,1.88-4.92,2.4-5.29,3-.16,.26-.12,.54,.14,.7,.5,.32,1.75,.33,3.27,0,1.06-.23,2.47-.66,3.7-1.13l.04,.13c-.84,.32-2.18,.8-3.57,1.12-1.54,.35-3.09,.47-4.02-.12-.64-.4-1.06-1.02-.6-1.75,.66-1.05,2.31-1.55,4.84-2.89l-1.14-.71Z" style="fill: #9d8577;"/>
    </g>
    <g>
      <path d="M74.68,89.17v2h-19.49v-2h8.58v-4.86h-6.54v-1.98h6.54v-4.38h-7.59v-2h9.24c-.9-.97-2.33-2.2-3.54-3.06l1.67-1.17c1.41,.95,3.21,2.42,4.11,3.45l-1.08,.77h7v2h-7.57v4.38h6.6v1.98h-6.6v4.86h8.67Z" style="fill: #9d8577;"/>
      <path d="M89.6,82.86l-3.04,.86v5.68c0,1.06-.24,1.61-.88,1.92-.68,.35-1.63,.4-3.17,.4-.07-.53-.35-1.39-.62-1.94,.97,.04,1.91,.04,2.18,.02,.31,0,.42-.11,.42-.42v-5.06l-2.71,.75-.57-2.02c.92-.22,2.05-.51,3.28-.84v-4.27h-3.08v-1.94h3.08v-4.27h2.07v4.27h2.79v1.94h-2.79v3.74l2.79-.75,.24,1.94Zm11.82-7.35h-3.74v13.55c0,1.3-.31,1.96-1.19,2.31-.88,.37-2.29,.42-4.33,.42-.11-.62-.51-1.63-.81-2.24,1.47,.09,3.08,.07,3.56,.07,.42-.02,.57-.15,.57-.55v-13.55h-5.92v-2.05h11.86v2.05Z" style="fill: #9d8577;"/>
      <path d="M127.68,90.47h-9.53v1.45h-1.96v-12.32c-.51,.77-1.06,1.5-1.61,2.11l-.24-.26,.24,1.54-2.35,.73v5.79c0,1.03-.2,1.61-.79,1.94-.62,.35-1.52,.42-2.9,.42-.07-.53-.31-1.43-.59-2,.86,.04,1.69,.04,1.94,.02,.29,0,.4-.09,.4-.4v-5.15c-.84,.26-1.63,.51-2.38,.73l-.46-1.98c.79-.2,1.76-.48,2.84-.77v-4.49h-2.64v-1.89h2.64v-4.18h1.96v4.18h2.35v1.89h-2.35v3.92l1.85-.55c-.33-.35-.7-.75-.99-.95,1.96-2.02,3.63-5.19,4.62-8.41l1.96,.51c-.37,1.08-.77,2.16-1.25,3.21h3.74c-.26-.86-.84-2.05-1.39-2.97l1.76-.7c.64,.97,1.3,2.27,1.56,3.12l-1.28,.55h4.42v1.87h-3.89v2.46h3.59v1.8h-3.59v2.51h3.56v1.8h-3.56v2.6h4.33v1.87Zm-6.23-13.05h-3.3v2.46h3.3v-2.46Zm0,4.27h-3.3v2.51h3.3v-2.51Zm-3.3,6.91h3.3v-2.6h-3.3v2.6Z" style="fill: #9d8577;"/>
      <path d="M144.11,74.87c.4,.48,.79,1.06,1.01,1.58h8.36v1.45h-6.16v1.12h5.26v3.61h-11.86v1.03h12.17v1.39h-12.17v1.06h12.61s-.02,.46-.04,.7c-.22,2.82-.48,4-.95,4.51-.35,.35-.75,.48-1.3,.53-.42,.07-1.25,.07-2.13,.02-.02-.46-.2-1.1-.42-1.54,.73,.09,1.36,.09,1.65,.09,.31,0,.46-.02,.62-.2,.22-.24,.42-.99,.57-2.73h-12.41v-4.86h-1.39c-.09,2.9-.51,6.58-2.09,9.15-.35-.33-1.21-.86-1.65-1.06,1.69-2.73,1.87-6.56,1.87-9.33v-4.95h7.55c-.2-.37-.44-.73-.66-1.06l1.56-.53Zm-5.39-.33h-4.4v-1.56h4.4v-1.28h1.96v1.28h2.77v1.56h-2.77v1.28h-1.96v-1.28Zm-1.61,16.41c.66-.75,1.25-2.02,1.58-2.99l1.45,.64c-.35,1.01-.92,2.33-1.54,3.17l-1.5-.81Zm.44-13.05v1.12h3.12v-1.12h-3.12Zm3.12,2.33h-3.12v1.17h3.12v-1.17Zm1.87,8.08c.26,.97,.46,2.22,.48,3.06l-1.61,.22c0-.81-.18-2.09-.42-3.08l1.54-.2Zm3.01-10.41h-3.15v1.12h3.15v-1.12Zm-3.15,3.5h3.15v-1.17h-3.15v1.17Zm2.84,6.56c.53,.84,.99,1.96,1.19,2.71l-1.52,.53c-.15-.77-.64-1.94-1.12-2.82l1.45-.42Zm8.51-15.01v1.58h-4.27v1.28h-1.98v-1.28h-2.95v-1.58h2.95v-1.25h1.98v1.25h4.27Zm-5.79,14.59c.62,.59,1.25,1.41,1.54,1.98l-1.36,.68c-.29-.59-.92-1.45-1.47-2.07l1.3-.59Zm-.66-7.31v1.17h3.26v-1.17h-3.26Z" style="fill: #9d8577;"/>
    </g>
    <g>
      <g>
        <line x1="3.55" y1="48.29" x2="209.74" y2="48.29" style="fill: none; stroke: #9d8577; stroke-miterlimit: 10; stroke-width: 2px;"/>
        <line x1="3.55" y1="44.05" x2="209.74" y2="44.05" style="fill: none; stroke: #9d8577; stroke-miterlimit: 10;"/>
      </g>
      <g>
        <rect y="49.05" width="3.64" height="3.64" transform="translate(3.64 101.73) rotate(180)" style="fill: #9d8577;"/>
        <rect x="209.74" y="49.14" width="3.64" height="3.64" transform="translate(423.12 101.92) rotate(180)" style="fill: #9d8577;"/>
      </g>
    </g>
    <g>
      <g>
        <line x1="209.83" y1="113.34" x2="3.64" y2="113.34" style="fill: none; stroke: #9d8577; stroke-miterlimit: 10; stroke-width: 2px;"/>
        <line x1="209.83" y1="117.58" x2="3.64" y2="117.58" style="fill: none; stroke: #9d8577; stroke-miterlimit: 10;"/>
      </g>
      <g>
        <rect x="209.74" y="108.94" width="3.64" height="3.64" style="fill: #9d8577;"/>
        <rect y="108.84" width="3.64" height="3.64" style="fill: #9d8577;"/>
      </g>
    </g>
  </g>
</svg>