<?xml version="1.0" encoding="UTF-8"?>
<svg id="b" data-name="圖層 2" xmlns="http://www.w3.org/2000/svg" width="205.25" height="28.05" viewBox="0 0 205.25 28.05">
  <g id="c" data-name="首頁">
    <g>
      <g>
        <path d="M68.9,17.36v2.06h-19.55v-2.06h10.62c1.14-2.72,2.39-7.02,3.05-10.16l2.3,.44c-.86,3.2-2.08,7.04-3.16,9.72h6.74Zm-.9-11.12h-17.71v-2.06h17.71v2.06Zm-12.86,10.36c-.31-2.41-1.19-6.12-1.98-8.93l2.06-.5c.86,2.85,1.71,6.45,2.08,8.89l-2.17,.55Zm3.27-12.51c-.17-.97-.66-2.46-1.05-3.58l2.02-.5c.42,1.1,.92,2.55,1.16,3.47l-2.13,.61Z" style="fill: #a48b78;"/>
        <path d="M83.04,12.62c1.12,1.78,2.46,4.15,3.03,5.62l-1.87,1.01c-.22-.55-.5-1.27-.88-2.04-5.35,1.8-6.14,2.13-6.67,2.52-.13-.61-.48-1.6-.83-2.08,.42-.22,.96-.64,.96-1.45V1.27h8.71V11.74h-6.63v4.89l3.6-1.1c-.4-.72-.77-1.43-1.16-2.06l1.73-.86Zm-4.17-9.52v2.44h4.59V3.09h-4.59Zm4.59,6.82v-2.57h-4.59v2.57h4.59Zm11.1,4.02c0,1.01-.18,1.6-.81,1.91-.68,.35-1.67,.37-3.16,.37-.07-.55-.31-1.4-.59-1.93,.97,.04,1.91,.04,2.17,.02,.31-.02,.39-.11,.39-.39V3.29h-3.38V20.3h-2.04V1.43h7.42V13.93Z" style="fill: #a48b78;"/>
        <path d="M105.53,15.56c-.55,1.8-1.49,3.6-2.48,4.76-.35-.31-1.12-.81-1.54-1.05,.99-1.03,1.8-2.57,2.22-4.15l1.8,.44Zm3.51-.77h-6.39V.97h6.39V14.79Zm-1.84-12.16h-2.76v2.44h2.76V2.63Zm0,3.99h-2.76v2.48h2.76v-2.48Zm0,4.02h-2.76v2.5h2.76v-2.5Zm.72,4.45c.7,1.08,1.47,2.5,1.82,3.45l-1.6,.77c-.29-.94-1.08-2.46-1.76-3.55l1.54-.66Zm13.91,1.65h-1.16v1.58c0,.9-.2,1.38-.83,1.67-.66,.29-1.67,.29-3.18,.29-.07-.46-.31-1.19-.55-1.65,1.01,.04,2.02,.04,2.3,.02,.31,0,.37-.09,.37-.35v-1.56h-6.34v3.58h-1.82v-3.58h-1.29v-1.49h1.29v-5.55h4.04v-1.05h-5.24v-1.51h2.96v-1.16h-1.97v-1.45h1.97v-1.08h-2.52V1.93h2.52V.15h1.8V1.93h2.81V.15h1.82V1.93h2.52v1.51h-2.52v1.08h2.17v1.45h-2.17v1.16h2.98v1.51h-5.33v1.05h4.21v5.55h1.16v1.49Zm-9.39-5.53v1.29h2.22v-1.29h-2.22Zm0,4.04h2.22v-1.4h-2.22v1.4Zm1.73-10.73h2.81v-1.08h-2.81v1.08Zm0,2.61h2.81v-1.16h-2.81v1.16Zm2.28,4.08v1.29h2.33v-1.29h-2.33Zm2.33,4.04v-1.4h-2.33v1.4h2.33Z" style="fill: #a48b78;"/>
        <path d="M136.56,17.6c-1.8,1.12-4.61,2.17-6.82,2.76-.35-.39-1.08-1.16-1.54-1.51,2.3-.44,4.96-1.25,6.49-2.08l1.87,.83ZM146.7,1.12V6.17h-17.01V1.12h17.01Zm-1.23,6.14v9.46h-14.53V7.26h14.53Zm-13.87-2.66h3.12v-1.93h-3.12v1.93Zm1.38,5.4h10.38v-1.38h-10.38v1.38Zm0,2.66h10.38v-1.36h-10.38v1.36Zm0,2.72h10.38v-1.43h-10.38v1.43Zm3.49-10.77h3.2v-1.93h-3.2v1.93Zm4.83,12.18c2.44,.75,5.18,1.76,6.82,2.48l-2.17,1.05c-1.4-.7-3.84-1.69-6.25-2.46l1.6-1.08Zm.11-12.18h3.31v-1.93h-3.31v1.93Z" style="fill: #a48b78;"/>
      </g>
      <g>
        <polyline points="196.04 27.05 5.11 27.05 30.1 16.89" style="fill: none; stroke: #a48b78; stroke-miterlimit: 10; stroke-width: 2px;"/>
        <rect x="196.05" y="16.89" width="9.21" height="9.21" style="fill: #a48b78;"/>
      </g>
    </g>
  </g>
</svg>