<?xml version="1.0" encoding="UTF-8"?>
<svg id="b" data-name="圖層 2" xmlns="http://www.w3.org/2000/svg" width="128.69" height="37.42" viewBox="0 0 128.69 37.42">
  <g id="c" data-name="頁面">
    <g>
      <path d="M64.81,3.04s-6.71-4.25-10.05-1.75c-.89,.67-1.12,1.79-.48,2.7,.82,1.16,3.93,2.19,9.75,1.26" style="fill: none; stroke: #c7ba99; stroke-miterlimit: 10;"/>
      <path d="M68.6,3.04s6.71-4.25,10.05-1.75c.89,.67,1.12,1.79,.48,2.7-.82,1.16-3.93,2.19-9.75,1.26" style="fill: none; stroke: #c7ba99; stroke-miterlimit: 10;"/>
      <path d="M68.6,3.04s6.71-4.25,10.05-1.75c.89,.67,1.12,1.79,.48,2.7-.82,1.16-3.93,2.19-9.75,1.26" style="fill: none; stroke: #89202a; stroke-miterlimit: 10; stroke-width: .25px;"/>
      <line x1="66.69" y1="2.6" x2="66.69" y2="5.61" style="fill: none; stroke: #c7ba99; stroke-linecap: round; stroke-linejoin: round; stroke-width: .75px;"/>
      <line x1="67.78" y1="2.6" x2="67.78" y2="5.61" style="fill: none; stroke: #c7ba99; stroke-linecap: round; stroke-linejoin: round; stroke-width: .75px;"/>
      <line x1="65.61" y1="2.6" x2="65.61" y2="5.61" style="fill: none; stroke: #c7ba99; stroke-linecap: round; stroke-linejoin: round; stroke-width: .75px;"/>
      <path d="M64.81,3.04s-6.71-4.25-10.05-1.75c-.89,.67-1.12,1.79-.48,2.7,.82,1.16,3.93,2.19,9.75,1.26" style="fill: none; stroke: #89202a; stroke-miterlimit: 10; stroke-width: .25px;"/>
      <g>
        <line x1="66.69" y1="2.6" x2="66.69" y2="5.61" style="fill: none; stroke: #89202a; stroke-miterlimit: 10; stroke-width: .25px;"/>
        <line x1="67.78" y1="2.6" x2="67.78" y2="5.61" style="fill: none; stroke: #89202a; stroke-miterlimit: 10; stroke-width: .25px;"/>
        <line x1="65.61" y1="2.6" x2="65.61" y2="5.61" style="fill: none; stroke: #89202a; stroke-miterlimit: 10; stroke-width: .25px;"/>
      </g>
    </g>
    <line x1="128.69" y1="37.17" x2="0" y2="37.17" style="fill: none; stroke: #89202a; stroke-miterlimit: 10; stroke-width: .5px;"/>
    <line x1="128.69" y1="11.02" x2="0" y2="11.02" style="fill: none; stroke: #89202a; stroke-miterlimit: 10; stroke-width: .5px;"/>
    <g>
      <path d="M11.36,18.56h3.38v1.26h-6.49v-1.26h3.08c-.25-.63-.76-1.6-1.22-2.29l1.24-.63c.46,.71,1.02,1.62,1.26,2.23l-1.24,.7Zm-2.38,2.26h5.29v1.24h-5.29v-1.24Zm0,2.24h5.27v1.22h-5.27v-1.22Zm5.22,7.28h-3.84v.76h-1.36v-5.75h5.2v4.98Zm-3.84-3.71v2.43h2.46v-2.43h-2.46Zm13.36-8.01h-2.41v10.5c0,.97-.24,1.48-.92,1.72-.68,.27-1.79,.29-3.42,.29-.08-.44-.36-1.19-.63-1.63,1.24,.07,2.52,.05,2.89,.05,.34-.02,.46-.12,.46-.44v-10.49h-4.59v-1.55h8.62v1.55Z" style="fill: #727171;"/>
      <path d="M34.87,27.66c-.42,1.39-1.16,2.79-1.92,3.69-.27-.24-.87-.63-1.19-.82,.76-.8,1.39-1.99,1.72-3.21l1.39,.34Zm2.72-.59h-4.95v-10.71h4.95v10.71Zm-1.43-9.42h-2.14v1.89h2.14v-1.89Zm0,3.09h-2.14v1.92h2.14v-1.92Zm0,3.11h-2.14v1.94h2.14v-1.94Zm.56,3.45c.54,.83,1.14,1.94,1.41,2.67l-1.24,.59c-.22-.73-.83-1.9-1.36-2.75l1.19-.51Zm10.78,1.27h-.9v1.22c0,.7-.15,1.07-.65,1.29-.51,.22-1.29,.22-2.46,.22-.05-.36-.24-.92-.42-1.28,.78,.03,1.56,.03,1.79,.02,.24,0,.29-.07,.29-.27v-1.21h-4.91v2.77h-1.41v-2.77h-1v-1.16h1v-4.3h3.13v-.82h-4.06v-1.17h2.29v-.9h-1.53v-1.12h1.53v-.83h-1.96v-1.17h1.96v-1.38h1.39v1.38h2.18v-1.38h1.41v1.38h1.96v1.17h-1.96v.83h1.68v1.12h-1.68v.9h2.31v1.17h-4.13v.82h3.26v4.3h.9v1.16Zm-7.28-4.28v1h1.72v-1h-1.72Zm0,3.13h1.72v-1.09h-1.72v1.09Zm1.34-8.31h2.18v-.83h-2.18v.83Zm0,2.02h2.18v-.9h-2.18v.9Zm1.77,3.16v1h1.8v-1h-1.8Zm1.8,3.13v-1.09h-1.8v1.09h1.8Z" style="fill: #727171;"/>
      <path d="M64.33,15.77c-.02,.65-.03,1.53-.12,2.53,.24,2.12,1.27,8.91,7.21,11.54-.46,.36-.93,.92-1.16,1.34-3.99-1.89-5.85-5.63-6.75-8.67-.85,3.2-2.65,6.63-6.49,8.75-.27-.41-.78-.92-1.31-1.26,6.95-3.6,6.76-11.53,6.82-14.25h1.8Z" style="fill: #727171;"/>
      <path d="M90.14,18.27c0,.12,0,.25-.03,.41,.92,.93,2.74,1.51,4.98,1.65-.31,.32-.7,.88-.85,1.29-1.94-.27-3.48-.88-4.55-1.87-.61,.78-1.96,1.51-4.88,1.92-.15-.36-.51-.88-.8-1.17h-4.32v-1.24h4.93v1.12c3.69-.48,4.08-1.43,4.08-2.16v-.22h-1.41c-.37,.61-.8,1.16-1.24,1.58-.25-.22-.83-.63-1.19-.8,.88-.76,1.58-1.94,1.96-3.13l1.41,.31c-.1,.29-.2,.56-.32,.85h5.3l.22-.07,1.09,.36c-.42,.9-1,1.89-1.48,2.52l-1.24-.44c.22-.31,.48-.75,.71-1.17h-2.36v.27Zm-.14,10.3c1.75,.58,3.64,1.29,4.79,1.85l-1.43,.87c-1.04-.56-2.82-1.33-4.57-1.92l.99-.8h-5.08l1.41,.65c-1.38,.83-3.5,1.65-5.2,2.12-.27-.32-.83-.9-1.17-1.19,1.73-.34,3.72-.92,4.9-1.58h-2.74v-6.83h11.08v6.83h-2.97Zm-5.8-10.73h-4.17v-1.19h4.17v1.19Zm-.78,5.86h7.97v-.97h-7.97v.97Zm0,1.9h7.97v-.95h-7.97v.95Zm0,1.95h7.97v-.99h-7.97v.99Z" style="fill: #727171;"/>
      <path d="M105.96,24.07c-.34,1.9-1.05,4.28-2.02,5.51-.14-.53-.48-1.33-.75-1.84,.7-.93,1.38-2.67,1.65-4.08l1.12,.41Zm2.28-.37c.36,.49,1.58,2.72,1.84,3.25l-1.1,1.21c-.27-.87-.99-2.53-1.43-3.47v6.65h-1.48v-8.48h-2.63v-1.48h2.63v-5.63h1.48v5.63h2.65v1.48h-2.65v1.36l.7-.51Zm-3.89-2.79c-.07-1.02-.44-2.62-.85-3.82l1.12-.29c.48,1.21,.83,2.77,.93,3.81l-1.21,.31Zm5.98-3.86c-.44,1.29-.95,2.87-1.39,3.84l-1-.31c.36-1.02,.82-2.7,1.02-3.84l1.38,.31Zm6.58,9.59v4.69h-1.48v-4.42l-5.03,.92-.25-1.46,5.29-.95V15.74h1.48v9.4l1.89-.32,.22,1.45-2.11,.37Zm-3.66-2.46c-.58-.61-1.78-1.5-2.79-2.04l.75-1.14c.99,.53,2.23,1.33,2.84,1.92l-.8,1.26Zm.68-4.1c-.53-.66-1.68-1.58-2.65-2.19l.8-1.07c.95,.58,2.12,1.43,2.69,2.06l-.83,1.21Z" style="fill: #727171;"/>
    </g>
  </g>
</svg>