<?xml version="1.0" encoding="UTF-8"?>
<svg id="b" data-name="圖層 2" xmlns="http://www.w3.org/2000/svg" width="250.76" height="71.49" viewBox="0 0 250.76 71.49">
  <g id="c" data-name="圖層 1">
    <line x1="250.76" y1="71.12" x2="0" y2="71.12" style="fill: none; stroke: #89202a; stroke-miterlimit: 10; stroke-width: .75px;"/>
    <line x1="250.76" y1="21.12" x2="0" y2="21.12" style="fill: none; stroke: #89202a; stroke-miterlimit: 10; stroke-width: .75px;"/>
    <g>
      <path d="M124.81,5.85s-12.84-8.13-19.21-3.34c-1.7,1.28-2.13,3.43-.91,5.16,1.57,2.23,7.52,4.19,18.64,2.41" style="fill: none; stroke: #c7ba99; stroke-miterlimit: 10; stroke-width: 2px;"/>
      <path d="M132.06,5.85s12.84-8.13,19.21-3.34c1.7,1.28,2.13,3.43,.91,5.16-1.57,2.23-7.52,4.19-18.64,2.41" style="fill: none; stroke: #c7ba99; stroke-miterlimit: 10; stroke-width: 2px;"/>
      <path d="M132.06,5.85s12.84-8.13,19.21-3.34c1.7,1.28,2.13,3.43,.91,5.16-1.57,2.23-7.52,4.19-18.64,2.41" style="fill: none; stroke: #89202a; stroke-miterlimit: 10; stroke-width: .5px;"/>
      <line x1="128.41" y1="5.02" x2="128.41" y2="10.77" style="fill: none; stroke: #c7ba99; stroke-linecap: round; stroke-linejoin: round; stroke-width: 1.5px;"/>
      <line x1="130.48" y1="5.02" x2="130.48" y2="10.77" style="fill: none; stroke: #c7ba99; stroke-linecap: round; stroke-linejoin: round; stroke-width: 1.5px;"/>
      <line x1="126.35" y1="5.02" x2="126.35" y2="10.77" style="fill: none; stroke: #c7ba99; stroke-linecap: round; stroke-linejoin: round; stroke-width: 1.5px;"/>
      <path d="M124.81,5.85s-12.84-8.13-19.21-3.34c-1.7,1.28-2.13,3.43-.91,5.16,1.57,2.23,7.52,4.19,18.64,2.41" style="fill: none; stroke: #89202a; stroke-miterlimit: 10; stroke-width: .5px;"/>
      <g>
        <line x1="128.41" y1="5.02" x2="128.41" y2="10.77" style="fill: none; stroke: #89202a; stroke-miterlimit: 10; stroke-width: .5px;"/>
        <line x1="130.48" y1="5.02" x2="130.48" y2="10.77" style="fill: none; stroke: #89202a; stroke-miterlimit: 10; stroke-width: .5px;"/>
        <line x1="126.35" y1="5.02" x2="126.35" y2="10.77" style="fill: none; stroke: #89202a; stroke-miterlimit: 10; stroke-width: .5px;"/>
      </g>
    </g>
    <g>
      <path d="M19.98,37.72h4.97v1.85H15.4v-1.85h4.52c-.38-.93-1.12-2.35-1.8-3.38l1.82-.92c.67,1.05,1.5,2.37,1.85,3.27l-1.82,1.03Zm-3.5,3.32h7.77v1.82h-7.77v-1.82Zm0,3.3h7.75v1.8h-7.75v-1.8Zm7.67,10.7h-5.65v1.12h-2v-8.45h7.65v7.32Zm-5.65-5.45v3.57h3.62v-3.57h-3.62Zm19.64-11.77h-3.55v15.45c0,1.43-.35,2.18-1.35,2.53-1,.4-2.62,.42-5.02,.42-.12-.65-.53-1.75-.92-2.4,1.82,.1,3.7,.07,4.25,.07,.5-.02,.67-.17,.67-.65v-15.42h-6.75v-2.28h12.67v2.28Z" style="fill: #727171;"/>
      <path d="M69.55,51.09c-.62,2.05-1.7,4.1-2.82,5.42-.4-.35-1.28-.92-1.75-1.2,1.12-1.18,2.05-2.92,2.52-4.72l2.05,.5Zm4-.88h-7.27v-15.75h7.27v15.75Zm-2.1-13.85h-3.15v2.77h3.15v-2.77Zm0,4.55h-3.15v2.82h3.15v-2.82Zm0,4.57h-3.15v2.85h3.15v-2.85Zm.82,5.07c.8,1.22,1.67,2.85,2.08,3.92l-1.83,.88c-.32-1.07-1.22-2.8-2-4.05l1.75-.75Zm15.85,1.88h-1.33v1.8c0,1.03-.22,1.58-.95,1.9-.75,.32-1.9,.32-3.62,.32-.08-.52-.35-1.35-.62-1.87,1.15,.05,2.3,.05,2.62,.02,.35,0,.42-.1,.42-.4v-1.78h-7.22v4.07h-2.08v-4.07h-1.47v-1.7h1.47v-6.32h4.6v-1.2h-5.97v-1.72h3.37v-1.32h-2.25v-1.65h2.25v-1.22h-2.87v-1.72h2.87v-2.02h2.05v2.02h3.2v-2.02h2.07v2.02h2.87v1.72h-2.87v1.22h2.47v1.65h-2.47v1.32h3.4v1.72h-6.07v1.2h4.8v6.32h1.33v1.7Zm-10.7-6.3v1.47h2.52v-1.47h-2.52Zm0,4.6h2.52v-1.6h-2.52v1.6Zm1.97-12.22h3.2v-1.22h-3.2v1.22Zm0,2.97h3.2v-1.32h-3.2v1.32Zm2.6,4.65v1.47h2.65v-1.47h-2.65Zm2.65,4.6v-1.6h-2.65v1.6h2.65Z" style="fill: #727171;"/>
      <path d="M127.87,33.62c-.02,.95-.05,2.25-.17,3.72,.35,3.12,1.88,13.1,10.6,16.97-.67,.53-1.38,1.35-1.7,1.97-5.87-2.78-8.6-8.27-9.92-12.75-1.25,4.7-3.9,9.75-9.55,12.87-.4-.6-1.15-1.35-1.92-1.85,10.22-5.3,9.95-16.95,10.02-20.95h2.65Z" style="fill: #727171;"/>
      <path d="M180.82,37.29c0,.18,0,.38-.05,.6,1.35,1.38,4.02,2.22,7.32,2.43-.45,.47-1.02,1.3-1.25,1.9-2.85-.4-5.12-1.3-6.7-2.75-.9,1.15-2.87,2.22-7.17,2.82-.22-.53-.75-1.3-1.17-1.72h-6.35v-1.83h7.25v1.65c5.42-.7,6-2.1,6-3.17v-.33h-2.07c-.55,.9-1.17,1.7-1.83,2.33-.38-.33-1.22-.93-1.75-1.18,1.3-1.12,2.32-2.85,2.87-4.6l2.07,.45c-.15,.42-.3,.82-.47,1.25h7.8l.33-.1,1.6,.53c-.62,1.32-1.47,2.78-2.17,3.7l-1.82-.65c.33-.45,.7-1.1,1.05-1.72h-3.47v.4Zm-.2,15.15c2.57,.85,5.35,1.9,7.05,2.72l-2.1,1.28c-1.52-.83-4.15-1.95-6.72-2.82l1.45-1.18h-7.47l2.08,.95c-2.02,1.22-5.15,2.43-7.65,3.12-.4-.47-1.22-1.32-1.72-1.75,2.55-.5,5.47-1.35,7.2-2.32h-4.02v-10.05h16.3v10.05h-4.37Zm-8.52-15.77h-6.12v-1.75h6.12v1.75Zm-1.15,8.62h11.72v-1.42h-11.72v1.42Zm0,2.8h11.72v-1.4h-11.72v1.4Zm0,2.88h11.72v-1.45h-11.72v1.45Z" style="fill: #727171;"/>
      <path d="M219.1,45.82c-.5,2.8-1.55,6.3-2.97,8.1-.2-.78-.7-1.95-1.1-2.7,1.03-1.38,2.02-3.92,2.42-6l1.65,.6Zm3.35-.55c.52,.73,2.32,4,2.7,4.78l-1.62,1.77c-.4-1.27-1.45-3.72-2.1-5.1v9.77h-2.17v-12.47h-3.87v-2.18h3.87v-8.27h2.17v8.27h3.9v2.18h-3.9v2l1.03-.75Zm-5.72-4.1c-.1-1.5-.65-3.85-1.25-5.62l1.65-.42c.7,1.77,1.22,4.07,1.38,5.6l-1.77,.45Zm8.8-5.67c-.65,1.9-1.4,4.22-2.05,5.65l-1.47-.45c.52-1.5,1.2-3.97,1.5-5.65l2.03,.45Zm9.67,14.1v6.9h-2.17v-6.5l-7.4,1.35-.38-2.15,7.77-1.4v-14.22h2.17v13.82l2.77-.47,.33,2.12-3.1,.55Zm-5.37-3.62c-.85-.9-2.62-2.2-4.1-3l1.1-1.67c1.45,.77,3.27,1.95,4.17,2.82l-1.17,1.85Zm1-6.02c-.77-.97-2.47-2.32-3.9-3.22l1.17-1.57c1.4,.85,3.12,2.1,3.95,3.02l-1.23,1.78Z" style="fill: #727171;"/>
    </g>
  </g>
</svg>