<?xml version="1.0" encoding="UTF-8"?>
<svg id="b" data-name="圖層 2" xmlns="http://www.w3.org/2000/svg" width="134.15" height="16.01" viewBox="0 0 134.15 16.01">
  <g id="c" data-name="圖層 1">
    <g>
      <g>
        <path d="M11.29,6.15c0-3.84,2.37-6.15,5.49-6.15,1.67,0,2.79,.74,3.51,1.49l-1.01,1.18c-.58-.59-1.3-1.06-2.43-1.06-2.19,0-3.65,1.7-3.65,4.47s1.3,4.51,3.73,4.51c.72,0,1.44-.21,1.86-.58v-2.77h-2.34v-1.52h4.02v5.11c-.78,.79-2.11,1.38-3.73,1.38-3.15,0-5.44-2.21-5.44-6.07Z" style="fill: #a48b78;"/>
        <path d="M22.51,6.07c0-3.79,2.1-6.07,5.12-6.07s5.14,2.27,5.14,6.07-2.11,6.15-5.14,6.15-5.12-2.35-5.12-6.15Zm8.36,0c0-2.77-1.28-4.45-3.23-4.45s-3.22,1.68-3.22,4.45,1.26,4.53,3.22,4.53,3.23-1.76,3.23-4.53Z" style="fill: #a48b78;"/>
        <path d="M34.57,6.07c0-3.79,2.1-6.07,5.12-6.07s5.14,2.27,5.14,6.07-2.11,6.15-5.14,6.15-5.12-2.35-5.12-6.15Zm8.36,0c0-2.77-1.28-4.45-3.23-4.45s-3.22,1.68-3.22,4.45,1.26,4.53,3.22,4.53,3.23-1.76,3.23-4.53Z" style="fill: #a48b78;"/>
        <path d="M46.64,6.15c0-3.84,2.37-6.15,5.49-6.15,1.67,0,2.79,.74,3.51,1.49l-1.01,1.18c-.58-.59-1.3-1.06-2.43-1.06-2.19,0-3.65,1.7-3.65,4.47s1.3,4.51,3.73,4.51c.72,0,1.44-.21,1.86-.58v-2.77h-2.34v-1.52h4.02v5.11c-.78,.79-2.11,1.38-3.73,1.38-3.15,0-5.44-2.21-5.44-6.07Z" style="fill: #a48b78;"/>
        <path d="M58.5,.22h1.86V10.44h4.98v1.57h-6.83V.22Z" style="fill: #a48b78;"/>
        <path d="M67.41,.22h6.96V1.78h-5.11v3.28h4.32v1.57h-4.32v3.81h5.28v1.57h-7.14V.22Z" style="fill: #a48b78;"/>
        <path d="M84.21,.22h2.13l2.16,5.95c.27,.78,.51,1.58,.78,2.38h.08c.27-.8,.5-1.6,.77-2.38L92.26,.22h2.15V12h-1.73V6.18c0-1.06,.14-2.58,.24-3.65h-.06l-.94,2.72-2.05,5.62h-1.15l-2.07-5.62-.93-2.72h-.06c.08,1.07,.22,2.59,.22,3.65v5.83h-1.67V.22Z" style="fill: #a48b78;"/>
        <path d="M102.93,8.64h-4.1l-1.01,3.36h-1.89L99.84,.22h2.15l3.91,11.78h-1.97l-.99-3.36Zm-.45-1.46l-.46-1.58c-.4-1.28-.75-2.59-1.12-3.92h-.06c-.34,1.34-.71,2.64-1.09,3.92l-.48,1.58h3.22Z" style="fill: #a48b78;"/>
        <path d="M107.44,.22h3.57c2.62,0,4.5,.9,4.5,3.55s-1.87,3.76-4.43,3.76h-1.78v4.47h-1.86V.22Zm3.46,5.83c1.89,0,2.79-.72,2.79-2.27s-.98-2.06-2.85-2.06h-1.54V6.05h1.6Z" style="fill: #a48b78;"/>
      </g>
      <g>
        <polyline points="121.48 10.82 131.83 15.51 79.56 15.51 7.93 15.51 4 15.51" style="fill: none; stroke: #a48b78; stroke-miterlimit: 10;"/>
        <rect y="10.82" width="4" height="4.25" transform="translate(4 25.88) rotate(180)" style="fill: #a48b78;"/>
      </g>
    </g>
  </g>
</svg>