<?xml version="1.0" encoding="UTF-8"?>
<svg id="b" data-name="圖層 2" xmlns="http://www.w3.org/2000/svg" width="94.17" height="34.2" viewBox="0 0 94.17 34.2">
  <g id="c" data-name="圖層 1">
    <g>
      <rect x=".38" y=".38" width="93.42" height="33.45" rx="5.23" ry="5.23" style="fill: none; stroke: #ff7300; stroke-miterlimit: 10; stroke-width: .75px;"/>
      <g>
        <path d="M18.84,23.3c-.36-.52-.94-1.15-1.57-1.8-.67,1.17-1.58,2.32-2.86,3.37-.18-.25-.59-.67-.88-.81,1.31-1.06,2.25-2.25,2.88-3.44-.79-.79-1.66-1.57-2.43-2.25,.36-1.21,.74-2.9,1.06-4.66l-1.28,.07-.14-1.24,1.64-.07c.2-1.35,.38-2.7,.49-3.89l1.17,.05c-.11,1.17-.31,2.47-.52,3.76l1.53-.07v-1.26h1.13v1.21l.9-.05v1.17l-.9,.07c-.02,2.05-.18,4.5-1.21,6.9,.72,.7,1.37,1.39,1.78,1.96l-.79,.99Zm-2.65-9.67c-.31,1.57-.65,3.1-.94,4.36,.54,.45,1.12,.97,1.69,1.49,.83-2.09,.95-4.19,.97-5.96l-1.73,.11Zm13.43,1.31s0,.43-.02,.61c-.31,5.76-.56,7.9-1.19,8.61-.36,.43-.7,.56-1.31,.61-.54,.05-1.53,.04-2.59-.02-.02-.4-.18-.94-.41-1.31,1.08,.11,2.11,.12,2.5,.12,.34,0,.54-.05,.72-.23,.49-.47,.76-2.34,1.01-7.17h-3.24c.34-1.35,.76-3.35,1.06-5.13h-2.7c-.09,5.15-.45,10.88-3.75,13.97-.2-.29-.65-.68-.97-.88,3.1-2.83,3.35-8.3,3.4-13.09h-2.02v-1.24h7.53c-.29,1.62-.67,3.6-1.03,5.15h3.01Z" style="fill: #ff7300;"/>
        <path d="M43.99,11.23c-.14,.41-.31,.85-.5,1.24,.67,1.01,1.66,1.53,2.97,1.78v-3.8h-6.43v-1.13h13.5l.23-.05,.94,.29c-.41,1.04-.94,2.25-1.42,3.01l-1.13-.31c.27-.47,.58-1.13,.85-1.8h-5.22v1.44h4.27v.99h-4.27v1.53c.61,.05,1.31,.07,2.05,.07s4.56,0,5.51-.04c-.2,.31-.41,.86-.49,1.22h-5.02c-3.35,0-5.49-.36-6.84-2.23-.9,1.51-2.11,2.72-3.53,3.58-.11-.31-.41-.97-.65-1.28,1.8-.99,3.26-2.66,3.94-4.82l1.24,.31Zm7.04,9.88c1.44,.99,3.26,2.36,4.21,3.19l-.86,.87c-.41-.38-.97-.85-1.57-1.31-4.83,.21-9.96,.45-13.32,.54l-.11-1.28c1.82-.02,4.34-.07,7.11-.14v-1.85h-5.56v-3.87h5.56v-1.17h1.3v1.17h5.58v3.87h-2.34Zm-4.54-1.04v-1.8h-4.29v1.8h4.29Zm1.3-1.8v1.8h4.25v-1.8h-4.25Zm3.73,4.55c-.49-.34-.99-.72-1.42-1.03l.81-.68h-3.12v1.82l3.73-.11Z" style="fill: #ff7300;"/>
        <path d="M69.83,21.73c-1.22,1.13-3.06,2.27-4.59,2.97-.23-.25-.74-.7-1.03-.9,1.58-.63,3.33-1.57,4.39-2.56l1.22,.49Zm10.52-7.54v1.06h-8.57l.43,.34c-.9,.56-1.85,1.04-2.81,1.46l4.14-.2c.72-.34,1.44-.72,2.11-1.12l.94,.85c-2.39,1.3-4.9,2.34-7.36,3.15l7.36-.38c-.4-.29-.81-.58-1.19-.83l.97-.63c1.24,.78,2.79,1.96,3.55,2.79l-1.03,.72c-.29-.34-.7-.74-1.17-1.15l-4.48,.25v2.92c0,.7-.16,1.04-.74,1.24s-1.44,.22-2.77,.22c-.07-.4-.29-.88-.5-1.24,1.12,.04,2.07,.04,2.34,.02,.31,0,.38-.07,.38-.27v-2.81c-5.31,.31-6,.38-6.48,.54-.04-.25-.2-.85-.32-1.17,.61-.05,1.4-.27,2.49-.65,.61-.2,2.03-.74,3.67-1.42-3.62,.2-4.12,.27-4.47,.4-.04-.23-.22-.85-.34-1.13,.34-.04,.76-.16,1.24-.36,.45-.18,1.75-.78,2.95-1.53h-6.32v-1.06h7.27v-1.17h-5.38v-1.03h5.38v-1.13h-6.37v-1.03h6.37v-1.33h1.31v1.33h6.55v1.03h-6.55v1.13h5.51v1.03h-5.51v1.17h7.4Zm-4.63,7.06c1.48,.7,3.42,1.8,4.43,2.59l-1.04,.83c-.92-.77-2.83-1.94-4.36-2.7l.97-.72Z" style="fill: #ff7300;"/>
      </g>
    </g>
  </g>
</svg>