<?xml version="1.0" encoding="UTF-8"?>
<svg id="b" data-name="圖層 2" xmlns="http://www.w3.org/2000/svg" width="80.3" height="34.2" viewBox="0 0 80.3 34.2">
  <g id="c" data-name="圖層 1">
    <g>
      <rect x=".38" y=".38" width="79.55" height="33.45" rx="6.03" ry="6.03" style="fill: none; stroke: #69b1ff; stroke-miterlimit: 10; stroke-width: .75px;"/>
      <g>
        <path d="M12.94,23.7c.77-1.42,1.87-3.85,2.67-5.96l1.04,.7c-.76,1.98-1.71,4.25-2.54,5.94l-1.17-.68Zm2.34-9.85c-.41-1.01-1.39-2.65-2.25-3.82l1.06-.63c.86,1.15,1.87,2.7,2.3,3.73l-1.12,.72Zm8.26-4.75c-.11,.22-.23,.41-.34,.63,1.39,1.96,3.85,4,5.94,5.02-.32,.23-.76,.72-1.01,1.04-1.89-1.08-4.07-3.04-5.6-5.02-1.31,1.96-3.13,3.76-5.26,5.11-.22-.23-.65-.67-.94-.86,2.59-1.6,4.83-4,5.96-6.3l1.24,.38Zm4.03,8.54c-1.03,1.76-2.93,3.92-4.3,5.26,.59,.58,1.12,1.15,1.51,1.6l-1.06,.77c-.86-1.12-2.7-2.93-4.14-4.18l.97-.67c.56,.47,1.19,1.03,1.82,1.6,1.03-.94,2.39-2.45,3.31-3.71h-7.35v-1.17h8.14l.22-.07,.88,.56Zm-1.8-3.46v1.17h-6.09v-1.17h6.09Z" style="fill: #69b1ff;"/>
        <path d="M64.39,15.56c-.43,2.18-1.12,4.11-2,5.74,.49,1.82,1.06,2.72,1.58,2.72,.32-.02,.5-.49,.59-2.23,.25,.22,.63,.49,.94,.58-.2,2.39-.61,2.85-1.62,2.85-.92,0-1.69-.9-2.27-2.61-.72,.99-1.51,1.89-2.41,2.63-.22-.23-.72-.63-1.01-.83,.52-.4,1.01-.83,1.46-1.3h-5.26v-7.74h5.33v.92h-1.87v1.24h1.87v3.37h-1.87v1.28h2.02v.7c.49-.54,.92-1.15,1.3-1.82-.38-1.75-.67-4.05-.83-6.82h-6.86v3.78c0,2.21-.18,5.2-1.3,7.22-.2-.18-.74-.49-1.01-.59,.74-1.35,1.01-3.08,1.1-4.68h-1.26v.83c0,1.26-.2,3.13-1.31,4.41-.18-.18-.58-.45-.81-.58,.95-1.15,1.12-2.77,1.12-3.87v-.79h-.99v-1.13h3.31v-1.48h-2.52v-4.18h1.04v3.08h1.48v-3.17h7.96l-.02-.74h-.45v-1.19h-2.27v-1.15h2.27v-1.26h1.31v1.26h4.02v1.15h-4.02v.76h.32c0,.41,.02,.79,.02,1.17h2.05c-.4-.38-.95-.83-1.49-1.13l.81-.61c.63,.34,1.4,.92,1.76,1.37l-.49,.38h1.17v1.15h-3.78c.09,2.05,.27,3.75,.5,5.15,.5-1.22,.9-2.56,1.17-4.02l1.21,.2Zm-11.24-4.41h-3.8v-1.15h3.8v-1.26h1.31v1.26h2.2v1.15h-2.2v1.28h-1.31v-1.28Zm2.25,5.13v1.24h1.48v-1.24h-1.48Zm3.33,2.14h-3.33v1.58h3.33v-1.58Zm-3.33,3.75h1.48v-1.28h-1.48v1.28Z" style="fill: #69b1ff;"/>
      </g>
    </g>
  </g>
</svg>