<?xml version="1.0" encoding="UTF-8"?>
<svg id="b" data-name="圖層 2" xmlns="http://www.w3.org/2000/svg" width="213.38" height="124.59" viewBox="0 0 213.38 124.59">
  <g id="c" data-name="圖層 3">
    <g>
      <g>
        <path d="M36,18.8c-2.57,3.38,.61,8.67-.8,13.42h.04c1.44-3.29,1.1-7.22,1.78-10.59,.54-2.63,1.89-4.74,3.27-5.64,.68-.45,.96-.55,1.09-.35,.12,.19-.19,.39-.33,.49-.23,.15-.48,.24-.69,.32-.21,.08-.39,.14-.47,.19-2.19,3.43,1.72,9.74-1.54,14.17l.02,.03,.12-.08c3.73-2.45,3.65-5.11,3.65-7.24h.15c.1,2.36-.11,5.05-3.66,7.37-.28,.18-.65,.39-.77,.46-.11,.07-.42,.32-.72,.51-.24,.16-.4,.18-.47,.08-.08-.12-.03-.25,.16-.37,.28-.18,.66-.3,1.12-.51,.77-.75,.73-3.41,.38-5.64-.4-2.53-.44-5.7,1.11-8.4h-.04c-3.33,3.67-2.13,8.97-3.38,13.4-.31,1.08-.71,2.24-1.33,3.2l-.19-.03c.9-4.05-2.27-8.08,.57-13.6h-.04c-1.96,2.67-2.07,6.11-2.32,8.71-.27,2.76-.32,6.46-2.84,8.12-.91,.6-2.33,.76-2.99-.24-.36-.55-.39-1.18,.2-1.56,.33-.22,.76-.15,.98,.18,.26,.4,.2,.77-.17,1.05,.53,.78,1.29,.68,2.01,.21,.95-.62,1.79-1.9,2.17-3.95,.88-4.61,.02-9.89,3.78-13.77l.15,.05Z" style="fill: #7c282c;"/>
        <path d="M49.8,20.01c-.18,1.08-.42,2.19-.91,3.51-.7,1.85-1.73,2.85-2.79,3.4-1.08,.56-2.12,.19-2.64-.83-.94-1.82,.54-4.99,2.32-5.91,.81-.42,1.46-.34,1.76,.23,.71,1.38-2.08,3.57-2.97,4.3,.04,.19,.1,.38,.19,.55,.42,.81,1.19,1.13,2,.71,.8-.41,1.54-1.42,2.04-2.81,.38-1.08,.67-2.27,.84-3.19l.15,.05Zm-4.16,.45c-.95,.49-1.37,3.01-1.12,4.08,1.39-1.11,2.17-2.99,1.69-3.91-.13-.26-.35-.29-.57-.17Z" style="fill: #7c282c;"/>
        <path d="M55.64,18.89c.36-1.26,1-3.56,2.32-4.11,.64-.26,1.25,.04,1.45,.54,.55,1.33-.91,3.75-.46,4.83,.09,.22,.26,.34,.47,.26,.41-.17,.88-.9,1.41-2.19,.44-1.07,.83-2.26,1.08-3.18h.14c-.22,.78-.6,2.09-1.09,3.28-.66,1.59-1.11,2.22-1.83,2.52-.7,.29-1.27,.02-1.52-.57-.52-1.27,.85-3.9,.54-4.65-.12-.28-.37-.35-.58-.26-1.27,.52-2.2,5.36-2.38,6.86l-1.54,.71c.47-2.67,1.07-4.99,.77-5.72-.1-.24-.33-.42-.62-.3-1.24,.51-2.25,5.38-2.43,6.89l-1.47,.68c.37-2.18,.73-4.35,1.02-6.55l1.69-.8-.86,3.5,.04,.02c.43-1.3,.91-3.7,2.48-4.35,.55-.23,1.11-.11,1.36,.48,.23,.55,.09,1.47-.04,2.09l.04,.02Z" style="fill: #7c282c;"/>
        <path d="M66.82,6.33c-2.3,8.14-3.31,10.47-2.89,11.81,.12,.4,.47,.69,.9,.56,1.66-.52,2.28-4.27,1.98-5.22-.06-.2-.23-.2-.38-.67-.12-.38,.03-.86,.44-.99,.7-.22,1.08,.4,1.26,.98,.07,.23,.12,.48,.14,.76,.32,.17,.86,.28,1.33,.13,.69-.22,1.12-.76,1.35-1.4l.14,.06c-.21,.72-.76,1.31-1.43,1.52-.49,.15-.95,.08-1.37-.1,.07,2.29-1.39,4.48-3.53,5.15-1.13,.36-1.9-.11-2.21-1.1s.16-2.38,2.56-10.87l1.7-.62Z" style="fill: #7c282c;"/>
        <path d="M79.11,10.4c-.43,1.01-.92,2.04-1.71,3.2-1.12,1.64-2.35,2.37-3.51,2.65-1.18,.29-2.1-.31-2.37-1.43-.48-1.99,1.7-4.73,3.64-5.2,.89-.22,1.5,.01,1.65,.64,.37,1.51-2.86,2.99-3.9,3.48,0,.2,.01,.39,.06,.58,.22,.89,.9,1.38,1.78,1.16,.87-.21,1.83-1.02,2.65-2.26,.62-.96,1.18-2.05,1.57-2.9l.14,.08Zm-4.15-.54c-1.04,.25-2.04,2.6-2.05,3.71,1.61-.75,2.81-2.4,2.56-3.41-.07-.28-.27-.36-.52-.3Z" style="fill: #7c282c;"/>
        <path d="M78.39,14.86c.74-2.04,1.53-4.06,2.28-6.13l1.78-.39-1.55,3.3,.04,.03c1.22-2.24,2.07-2.75,2.33-3.12,.38-.54,.63-.63,1.81-.88-.29,.64-.59,1.33-.46,2.03,.08,.47,.34,.64,.8,.56,.6-.11,1.04-.76,1.34-1.22l.08,.07c-.45,.83-1.18,1.5-2.12,1.67-.83,.15-1.44-.21-1.59-1.06-.05-.27,0-.57,.1-.81l-.04-.03c-1.57,1.5-2.59,3.77-3.21,5.65l-1.58,.33Z" style="fill: #7c282c;"/>
        <path d="M99.35,3.79c.14,.25,.29,.56,.32,.93,.11,1.68-1.28,2.74-2.91,2.85-1.23,.08-2.24-.66-2.32-1.93-.25-3.91,7.03-5.04,10.89-5.29,1.44-.09,2.22-.31,2.67-.33,.24-.02,.49,.06,.5,.22,.01,.19-.25,.27-.51,.29-.11,0-.95,0-1.33,0-3.88,1.95-4.04,5.73-6.31,8.89-1.26,1.75-2.96,3.03-5.1,3.17-1.23,.08-3.19-.24-3.29-1.82-.04-.59,.28-1.17,.92-1.21,.48-.03,.83,.27,.87,.73,.03,.42-.13,.65-.61,.78,.07,1.02,.77,1.42,1.82,1.36,2.94-.19,4.19-3.41,5.71-6.54,1.15-2.33,2.2-3.88,5.71-5.36v-.03c-2.87,.22-10.86,.9-10.58,5.21,.06,.94,.69,1.53,1.62,1.47,1.12-.07,2.16-1.09,2.07-2.41-.02-.32-.14-.63-.28-.9l.16-.04Z" style="fill: #7c282c;"/>
        <path d="M105.9,9.18c.62-.76,2.41-3.1,4.07-3.08,.7,0,1.07,.46,1.06,1.04-.02,1.44-2.25,3.09-2.27,4.27,0,.26,.12,.43,.41,.44,.3,0,.98-.35,2.17-1.58,.93-.96,1.77-1.99,2.16-2.45l.16,.08c-.57,.65-1.43,1.71-2.36,2.65-1.14,1.15-1.81,1.59-2.65,1.58-.82-.01-1.18-.54-1.17-1.12,.02-1.44,2.25-3.13,2.27-4.13,0-.22-.15-.4-.44-.41-1.26-.02-4.18,3.81-5,5.38l-1.62,.02c1.15-1.85,2.34-3.68,3.47-5.58l1.82-.04-2.12,2.88,.03,.03Z" style="fill: #7c282c;"/>
        <path d="M117.18,7.01c-2.74,3.89-5.44,9.97-11.14,9.6-1.29-.08-3.02-.68-2.91-2.29,.08-1.23,1.29-1.82,2.44-1.75,.29,.02,.54,.07,.73,.11v.13c-1.03,0-1.77,.67-1.83,1.69-.07,1.1,.47,1.84,1.85,1.93,3.78,.25,6.99-6.37,9.32-9.52l-1.53-.1,.18-.28,1.56,.1c1.37-2.06,3.76-5.27,6.61-5.08,.88,.06,1.73,.53,1.67,1.42-.05,.77-.71,1.11-1.46,1.06-.11,0-.21-.03-.29-.05,.22-.37,.39-.78,.42-1.27,.04-.61-.23-.96-.64-.99-1.63-.11-4.04,3.91-4.78,5.01l4.12,.27-.19,.28-4.12-.27Z" style="fill: #7c282c;"/>
        <path d="M129.08,9.52c-.5,.49-1.15,.96-1.85,.87-.49-.06-.8-.32-1.05-.74-.75,2.05-2.92,3.59-5.13,3.32-1.16-.14-1.83-.95-1.69-2.11,.28-2.26,3.07-3.91,5.19-3.66,1.13,.14,1.72,.94,1.76,1.81,.03,.65,.36,1.11,.95,1.18,.57,.07,1.09-.21,1.74-.82l.08,.14Zm-4.04-1.2c.06-.52-.12-.87-.6-.93-1.6-.2-3.69,3.15-3.85,4.48-.06,.52,.12,.87,.6,.93,1.6,.2,3.69-3.15,3.85-4.48Z" style="fill: #7c282c;"/>
        <path d="M126.82,13.41c1.41-1.64,2.87-3.26,4.31-4.92l1.81,.27-2.62,2.54,.03,.04c1.94-1.66,2.92-1.83,3.29-2.09,.54-.37,.82-.37,2-.18-.5,.49-1.02,1.03-1.16,1.74-.09,.47,.09,.72,.55,.8,.6,.11,1.24-.34,1.69-.66l.05,.09c-.72,.61-1.63,.98-2.58,.8-.83-.16-1.27-.71-1.11-1.56,.05-.27,.2-.53,.38-.73l-.03-.04c-2,.85-3.76,2.6-5.01,4.14l-1.6-.25Z" style="fill: #7c282c;"/>
        <path d="M142.15,13.69c1.06-.78,2.97-2.21,4.34-1.84,.66,.18,.96,.79,.82,1.32-.38,1.39-3.01,2.42-3.31,3.54-.06,.23,0,.43,.22,.49,.43,.12,1.24-.18,2.46-.88,1-.57,2.04-1.29,2.79-1.86l.11,.1c-.64,.47-1.74,1.29-2.86,1.93-1.49,.86-2.23,1.09-2.99,.88-.73-.2-1.02-.76-.85-1.37,.36-1.33,3.05-2.57,3.26-3.36,.08-.29-.08-.5-.3-.56-1.33-.36-5.01,2.9-6.07,3.99l-1.65-.38c2-1.83,3.89-3.3,4.1-4.06,.07-.25,0-.53-.31-.62-1.3-.35-5.06,2.89-6.13,3.98l-1.58-.36c1.62-1.5,3.23-3,4.8-4.57l1.83,.4-2.81,2.25,.02,.04c1.14-.77,2.98-2.38,4.62-1.93,.57,.15,.95,.59,.78,1.21-.15,.57-.83,1.22-1.3,1.64l.02,.04Z" style="fill: #7c282c;"/>
        <path d="M155.87,15.48l1.59,.48c-.95,.86-4.06,2.73-4.45,3.8-.1,.27,.01,.43,.24,.51,.48,.18,1.59-.11,2.83-.7,1.03-.49,2.32-1.24,2.85-1.59l.08,.1c-.78,.5-1.76,1.12-3.06,1.74-1.3,.61-2.49,.94-3.41,.6-.63-.23-.87-.75-.69-1.23,.05-.15,.13-.31,.2-.37h-.03c-.87,.45-1.88,.71-2.77,.38-.98-.36-1.04-1.29-.73-2.13,.72-1.95,3.91-3.25,5.77-2.57,.69,.25,.96,.69,.98,1.42l.6-.46Zm-5.57,3.54c1.31,.38,4.07-2.02,4.48-3.14,.2-.54,.15-.92-.42-1.13-1.38-.51-3.96,1.69-4.41,2.91-.21,.57-.26,1.13,.35,1.36Z" style="fill: #7c282c;"/>
        <path d="M159.99,17.37l.22-.22,1.13,.5,1.91-1.36,1.61,.64-2.05,1.37,1.86,.82-.25,.21-1.89-.83c-3.03,2.13-4.02,2.74-4.27,3.31-.11,.25-.04,.49,.21,.6,.48,.21,1.58,.06,2.87-.42,.9-.34,2.09-.9,3.11-1.46l.06,.11c-.7,.39-1.81,.99-3,1.45-1.31,.51-2.66,.81-3.55,.41-.62-.27-1.06-.76-.75-1.47,.44-1.01,1.83-1.66,3.89-3.17l-1.1-.48Z" style="fill: #7c282c;"/>
        <path d="M168.53,21.06c-3.2,1.93-4.52,2.65-4.81,3.24-.11,.23-.11,.43,.07,.52,.37,.19,1.27,.13,2.85-.41,1.27-.44,2.54-.99,3.09-1.22l.09,.15c-.77,.37-2.2,.94-3.32,1.32-1.65,.55-2.59,.57-3.26,.24-.63-.31-.8-.88-.53-1.42,.37-.75,1.27-1.23,4.32-3.07l1.51,.66Zm2.77-1.75c-.19,.39-.74,.58-1.12,.39-.42-.21-.67-.6-.45-1.04,.22-.44,.79-.57,1.22-.36,.36,.18,.53,.66,.35,1.02Z" style="fill: #7c282c;"/>
        <path d="M177.89,28.02c-.65,.26-1.43,.43-2.04,.08-.43-.25-.61-.61-.68-1.09-1.49,1.6-4.09,2.17-6.02,1.06-1.01-.58-1.32-1.59-.74-2.6,1.13-1.97,4.36-2.4,6.2-1.34,.98,.57,1.22,1.53,.92,2.35-.22,.61-.1,1.16,.42,1.46,.5,.29,1.08,.24,1.93-.07l.02,.16Zm-3.25-2.69c.26-.46,.23-.85-.19-1.09-1.4-.81-4.62,1.46-5.29,2.62-.26,.46-.23,.85,.19,1.09,1.4,.81,4.62-1.46,5.29-2.62Z" style="fill: #7c282c;"/>
        <path d="M178.44,30.17c.93-.29,3.72-1.26,5.1-.32,.58,.4,.63,.97,.31,1.45-.81,1.19-3.58,1.33-4.25,2.31-.14,.21-.14,.43,.1,.59,.25,.17,1.01,.25,2.68-.13,1.3-.29,2.58-.68,3.16-.85l.09,.16c-.83,.23-2.14,.63-3.43,.91-1.58,.33-2.39,.32-3.08-.14-.67-.46-.68-1.1-.36-1.58,.81-1.19,3.61-1.37,4.17-2.19,.13-.19,.09-.42-.14-.58-1.04-.71-5.59,.87-7.14,1.73l-1.36-.87c1.98-.92,3.98-1.78,5.98-2.74l1.54,.98-3.36,1.23v.04Z" style="fill: #7c282c;"/>
      </g>
      <g>
        <path d="M65.19,78.75c-.11,.13-.2,.29-.33,.42,2.05,1.89,5.76,3.56,9.2,4.29-.42,.35-.99,1.08-1.3,1.56-.53-.15-1.1-.33-1.65-.53v5.7h-14.87v-5.54c-.55,.2-1.08,.37-1.63,.53-.18-.37-.75-1.21-1.1-1.56,3.98-1.01,7.88-2.93,9.88-5.5l1.8,.64Zm5.83,5.72c-1.19-.42-2.4-.92-3.52-1.56v.64h-7.61v-.53c-1.01,.57-2.09,1.03-3.19,1.45h14.32Zm-13.53,6.6h12.54v7.24h-2.09v-.59h-8.43v.68h-2.02v-7.33Zm2.99-5.13c.48,.75,.97,1.76,1.12,2.42l-1.45,.48h2.6v-3.04h-4.77v3.04h2.11c-.15-.68-.57-1.69-1.03-2.46l1.43-.44Zm-.97,6.54v1.21h8.43v-1.21h-8.43Zm8.43,3.85v-1.23h-8.43v1.23h8.43Zm-1.74-14.19c-.9-.55-1.72-1.19-2.42-1.85-.7,.66-1.54,1.3-2.4,1.85h4.82Zm3.1,3.67h-4.88v3.04h2.46l-1.36-.42c.4-.7,.86-1.83,1.1-2.57l1.72,.48c-.48,.95-.97,1.87-1.36,2.51h2.33v-3.04Z" style="fill: #9d8577;"/>
        <path d="M93.77,94.72c2.2,.64,4.84,1.58,6.49,2.29l-1.8,1.43c-1.65-.75-4.62-1.87-6.93-2.53l1.61-1.19h-6.36l1.54,1.03c-1.76,1.06-4.58,2.11-6.82,2.66-.37-.42-1.03-1.1-1.54-1.47,2.09-.48,4.67-1.39,6.12-2.22h-3.81v-9.53h15.71v9.53h-4.2Zm3.34-10.58h-13.91v-5.15h13.91v5.15Zm-12.83,3.79h11.55v-1.25h-11.55v1.25Zm0,2.66h11.55v-1.28h-11.55v1.28Zm0,2.66h11.55v-1.3h-11.55v1.3Zm10.67-12.63h-9.7v1.89h9.7v-1.89Z" style="fill: #9d8577;"/>
        <path d="M120.13,81.52c0,.15,0,.33-.04,.53,1.19,1.21,3.54,1.96,6.45,2.13-.4,.42-.9,1.14-1.1,1.67-2.51-.35-4.51-1.14-5.9-2.42-.79,1.01-2.53,1.96-6.31,2.49-.2-.46-.66-1.14-1.03-1.52h-5.59v-1.61h6.38v1.45c4.77-.62,5.28-1.85,5.28-2.79v-.29h-1.83c-.48,.79-1.03,1.5-1.61,2.05-.33-.29-1.08-.81-1.54-1.03,1.14-.99,2.05-2.51,2.53-4.05l1.83,.4c-.13,.37-.26,.73-.42,1.1h6.86l.29-.09,1.41,.46c-.55,1.17-1.3,2.44-1.91,3.26l-1.61-.57c.29-.4,.62-.97,.92-1.52h-3.06v.35Zm-.18,13.33c2.27,.75,4.71,1.67,6.2,2.4l-1.85,1.12c-1.34-.73-3.65-1.72-5.92-2.49l1.28-1.03h-6.58l1.83,.84c-1.78,1.08-4.53,2.13-6.73,2.75-.35-.42-1.08-1.17-1.52-1.54,2.24-.44,4.82-1.19,6.34-2.05h-3.54v-8.85h14.35v8.85h-3.85Zm-7.5-13.88h-5.39v-1.54h5.39v1.54Zm-1.01,7.59h10.32v-1.25h-10.32v1.25Zm0,2.46h10.32v-1.23h-10.32v1.23Zm0,2.53h10.32v-1.28h-10.32v1.28Z" style="fill: #9d8577;"/>
        <path d="M140.85,83.52h-7.9v-1.63h3.74c-.33-.81-.95-2.07-1.5-2.97l1.47-.81c.55,.92,1.21,2.09,1.52,2.88l-1.45,.9h4.12v1.63Zm-7.02,2.9v-1.61h6.23v1.61h-6.23Zm0,1.3h6.25v1.58h-6.25v-1.58Zm6.25,9.42h-4.64v.99h-1.61v-7.44h6.25v6.45Zm-4.64-4.8v3.15h3.01v-3.15h-3.01Zm15.36-12.94c-.15,8.14-.18,16.33,.86,16.63,.13,.04,.29-1.39,.35-2.86,.31,.51,.81,1.25,1.12,1.56-.26,3.12-1.17,3.83-2.31,3.34-2.13-.75-2.09-8.12-2.07-16.74h-3.26v6.21h2.57v1.89h-2.57v8.98h-1.91v-8.98h-2.73v-1.89h2.73v-6.21h-2.46v-1.94h9.68Z" style="fill: #9d8577;"/>
      </g>
      <g>
        <g>
          <line x1="3.55" y1="54.81" x2="209.74" y2="54.81" style="fill: none; stroke: #7c282c; stroke-miterlimit: 10; stroke-width: 2px;"/>
          <line x1="3.55" y1="50.57" x2="209.74" y2="50.57" style="fill: none; stroke: #7c282c; stroke-miterlimit: 10;"/>
        </g>
        <g>
          <rect y="55.56" width="3.64" height="3.64" transform="translate(3.64 114.77) rotate(180)" style="fill: #7c282c;"/>
          <rect x="209.74" y="55.66" width="3.64" height="3.64" transform="translate(423.12 114.96) rotate(180)" style="fill: #7c282c;"/>
        </g>
      </g>
      <g>
        <g>
          <line x1="209.83" y1="119.86" x2="3.64" y2="119.86" style="fill: none; stroke: #7c282c; stroke-miterlimit: 10; stroke-width: 2px;"/>
          <line x1="209.83" y1="124.09" x2="3.64" y2="124.09" style="fill: none; stroke: #7c282c; stroke-miterlimit: 10;"/>
        </g>
        <g>
          <rect x="209.74" y="115.46" width="3.64" height="3.64" style="fill: #7c282c;"/>
          <rect y="115.36" width="3.64" height="3.64" style="fill: #7c282c;"/>
        </g>
      </g>
    </g>
  </g>
</svg>