<?xml version="1.0" encoding="UTF-8"?>
<svg id="b" data-name="圖層 2" xmlns="http://www.w3.org/2000/svg" width="123.1" height="52.76" viewBox="0 0 123.1 52.76">
  <g id="c" data-name="圖層 3">
    <line x1="123.1" y1="52.51" x2="0" y2="52.51" style="fill: none; stroke: #89202a; stroke-miterlimit: 10; stroke-width: .5px;"/>
    <line x1="123.1" y1="15.76" x2="0" y2="15.76" style="fill: none; stroke: #89202a; stroke-miterlimit: 10; stroke-width: .5px;"/>
    <g>
      <path d="M58.73,4.59s-10.06-6.37-15.05-2.62c-1.33,1-1.67,2.69-.72,4.05,1.23,1.74,5.89,3.28,14.6,1.89" style="fill: none; stroke: #c7ba99; stroke-miterlimit: 10; stroke-width: 1.57px;"/>
      <path d="M64.41,4.59s10.06-6.37,15.05-2.62c1.33,1,1.67,2.69,.72,4.05-1.23,1.74-5.89,3.28-14.6,1.89" style="fill: none; stroke: #c7ba99; stroke-miterlimit: 10; stroke-width: 1.57px;"/>
      <path d="M64.41,4.59s10.06-6.37,15.05-2.62c1.33,1,1.67,2.69,.72,4.05-1.23,1.74-5.89,3.28-14.6,1.89" style="fill: none; stroke: #89202a; stroke-miterlimit: 10; stroke-width: .39px;"/>
      <line x1="61.55" y1="3.93" x2="61.55" y2="8.44" style="fill: none; stroke: #c7ba99; stroke-linecap: round; stroke-linejoin: round; stroke-width: 1.18px;"/>
      <line x1="63.17" y1="3.93" x2="63.17" y2="8.44" style="fill: none; stroke: #c7ba99; stroke-linecap: round; stroke-linejoin: round; stroke-width: 1.18px;"/>
      <line x1="59.93" y1="3.93" x2="59.93" y2="8.44" style="fill: none; stroke: #c7ba99; stroke-linecap: round; stroke-linejoin: round; stroke-width: 1.18px;"/>
      <path d="M58.73,4.59s-10.06-6.37-15.05-2.62c-1.33,1-1.67,2.69-.72,4.05,1.23,1.74,5.89,3.28,14.6,1.89" style="fill: none; stroke: #89202a; stroke-miterlimit: 10; stroke-width: .39px;"/>
      <g>
        <line x1="61.55" y1="3.93" x2="61.55" y2="8.44" style="fill: none; stroke: #89202a; stroke-miterlimit: 10; stroke-width: .39px;"/>
        <line x1="63.17" y1="3.93" x2="63.17" y2="8.44" style="fill: none; stroke: #89202a; stroke-miterlimit: 10; stroke-width: .39px;"/>
        <line x1="59.93" y1="3.93" x2="59.93" y2="8.44" style="fill: none; stroke: #89202a; stroke-miterlimit: 10; stroke-width: .39px;"/>
      </g>
    </g>
    <g>
      <path d="M11.76,27.64c-.08,.1-.15,.22-.25,.32,1.58,1.46,4.45,2.75,7.11,3.32-.32,.27-.76,.83-1,1.21-.41-.12-.85-.25-1.28-.41v4.4H4.85v-4.28c-.42,.15-.83,.29-1.26,.41-.14-.29-.58-.93-.85-1.21,3.08-.78,6.09-2.26,7.63-4.25l1.39,.49Zm4.5,4.42c-.92-.32-1.85-.71-2.72-1.21v.49H7.67v-.41c-.78,.44-1.61,.8-2.46,1.12h11.07Zm-10.45,5.1H15.5v5.59h-1.62v-.46H7.38v.53h-1.56v-5.66Zm2.31-3.96c.37,.58,.75,1.36,.87,1.87l-1.12,.37h2.01v-2.35h-3.69v2.35h1.63c-.12-.53-.44-1.31-.8-1.9l1.1-.34Zm-.75,5.05v.94h6.51v-.94H7.38Zm6.51,2.97v-.95H7.38v.95h6.51Zm-1.34-10.96c-.7-.42-1.33-.92-1.87-1.43-.54,.51-1.19,1-1.85,1.43h3.72Zm2.4,2.84h-3.77v2.35h1.9l-1.05-.32c.31-.54,.66-1.41,.85-1.99l1.33,.37c-.37,.73-.75,1.44-1.05,1.94h1.8v-2.35Z" style="fill: #80292d;"/>
      <path d="M33.85,39.98c1.7,.49,3.74,1.22,5.01,1.77l-1.39,1.1c-1.28-.58-3.57-1.44-5.35-1.95l1.24-.92h-4.91l1.19,.8c-1.36,.82-3.54,1.63-5.27,2.06-.29-.32-.8-.85-1.19-1.14,1.62-.37,3.6-1.07,4.73-1.72h-2.94v-7.36h12.14v7.36h-3.25Zm2.58-8.18h-10.74v-3.98h10.74v3.98Zm-9.91,2.92h8.92v-.97h-8.92v.97Zm0,2.06h8.92v-.99h-8.92v.99Zm0,2.06h8.92v-1h-8.92v1Zm8.24-9.76h-7.5v1.46h7.5v-1.46Z" style="fill: #80292d;"/>
      <path d="M55.73,36.58c.95,.99,2.29,1.85,3.6,2.31-.34,.29-.8,.85-1.04,1.22-1.63-.71-3.25-2.06-4.28-3.54h-5.07c-.41,.6-.94,1.19-1.5,1.72h3.11v-1.27h1.6v1.27h3.37v1.26h-3.37v1.51h5.71v1.31h-12.8v-1.31h5.49v-1.51h-3.25v-1.12c-.85,.76-1.84,1.41-2.8,1.87-.22-.37-.68-.93-1.02-1.21,1.34-.51,2.7-1.46,3.67-2.52h-3.5v-1.31h3.3v-5.25h-2.46v-1.29h2.46v-1.48h1.58v1.48h5.78v-1.46h1.62v1.46h2.43v1.29h-2.43v5.25h3.2v1.31h-3.4Zm-7.19-6.56v.95h5.78v-.95h-5.78Zm0,3.08h5.78v-.97h-5.78v.97Zm0,2.18h5.78v-1.02h-5.78v1.02Z" style="fill: #80292d;"/>
      <path d="M74.37,32.27c1.17,2.69,3.11,5.2,5.29,6.53-.39,.32-.97,.94-1.24,1.39-.73-.51-1.43-1.14-2.06-1.85v1.48h-3.76v3.01h-1.67v-3.01h-3.76v-1.51c-.68,.75-1.38,1.39-2.11,1.94-.27-.41-.78-.97-1.17-1.29,2.14-1.36,4.06-3.94,5.22-6.68h-4.69v-1.6h6.51v-3.43h1.67v3.43h6.59v1.6h-4.83Zm-3.43,5.95v-5.95h-.22c-.83,2.23-2.04,4.32-3.49,5.95h3.71Zm5.3,0c-1.43-1.63-2.62-3.74-3.45-5.95h-.19v5.95h3.64Z" style="fill: #80292d;"/>
      <path d="M95.01,29.78c0,.12,0,.25-.03,.41,.92,.93,2.74,1.51,4.98,1.65-.31,.32-.7,.88-.85,1.29-1.94-.27-3.48-.88-4.55-1.87-.61,.78-1.96,1.51-4.88,1.92-.15-.36-.51-.88-.8-1.17h-4.32v-1.24h4.93v1.12c3.69-.48,4.08-1.43,4.08-2.16v-.22h-1.41c-.37,.61-.8,1.16-1.24,1.58-.25-.22-.83-.63-1.19-.8,.88-.76,1.58-1.94,1.96-3.13l1.41,.31c-.1,.29-.2,.56-.32,.85h5.3l.22-.07,1.09,.36c-.42,.9-1,1.89-1.48,2.52l-1.24-.44c.22-.31,.48-.75,.71-1.17h-2.36v.27Zm-.14,10.3c1.75,.58,3.64,1.29,4.79,1.85l-1.43,.87c-1.04-.56-2.82-1.33-4.57-1.92l.99-.8h-5.08l1.41,.65c-1.38,.83-3.5,1.65-5.2,2.12-.27-.32-.83-.9-1.17-1.19,1.73-.34,3.72-.92,4.9-1.58h-2.74v-6.83h11.08v6.83h-2.97Zm-5.8-10.73h-4.17v-1.19h4.17v1.19Zm-.78,5.86h7.97v-.97h-7.97v.97Zm0,1.9h7.97v-.95h-7.97v.95Zm0,1.96h7.97v-.99h-7.97v.99Z" style="fill: #80292d;"/>
      <path d="M107.44,35.58c-.34,1.9-1.05,4.28-2.02,5.51-.14-.53-.48-1.33-.75-1.84,.7-.93,1.38-2.67,1.65-4.08l1.12,.41Zm2.28-.37c.36,.49,1.58,2.72,1.84,3.25l-1.1,1.21c-.27-.87-.99-2.53-1.43-3.47v6.65h-1.48v-8.48h-2.63v-1.48h2.63v-5.63h1.48v5.63h2.65v1.48h-2.65v1.36l.7-.51Zm-3.89-2.79c-.07-1.02-.44-2.62-.85-3.83l1.12-.29c.48,1.21,.83,2.77,.93,3.81l-1.21,.31Zm5.98-3.86c-.44,1.29-.95,2.87-1.39,3.84l-1-.31c.36-1.02,.82-2.7,1.02-3.84l1.38,.31Zm6.58,9.59v4.69h-1.48v-4.42l-5.03,.92-.25-1.46,5.29-.95v-9.67h1.48v9.4l1.89-.32,.22,1.45-2.11,.37Zm-3.66-2.46c-.58-.61-1.78-1.5-2.79-2.04l.75-1.14c.99,.53,2.23,1.33,2.84,1.92l-.8,1.26Zm.68-4.1c-.53-.66-1.68-1.58-2.65-2.19l.8-1.07c.95,.58,2.12,1.43,2.69,2.06l-.83,1.21Z" style="fill: #80292d;"/>
    </g>
  </g>
</svg>