<?xml version="1.0" encoding="UTF-8"?>
<svg id="b" data-name="圖層 2" xmlns="http://www.w3.org/2000/svg" width="249.14" height="49.27" viewBox="0 0 249.14 49.27">
  <g id="c" data-name="圖層 1">
    <g>
      <line x1="240.93" y1="44.83" x2="7.68" y2="44.83" style="fill: none; stroke: #80292d; stroke-miterlimit: 10;"/>
      <path d="M8.2,44.84s-2.17,3.18,1.77,3.9c3.93,.72-9.47-11.39-9.47-11.39" style="fill: none; stroke: #80292d; stroke-miterlimit: 10;"/>
      <path d="M240.93,44.84s2.17,3.18-1.77,3.9c-3.93,.72,9.47-11.39,9.47-11.39" style="fill: none; stroke: #80292d; stroke-miterlimit: 10;"/>
      <g>
        <line x1="8.2" y1="4.43" x2="241.46" y2="4.43" style="fill: none; stroke: #80292d; stroke-miterlimit: 10;"/>
        <path d="M240.93,4.43s2.17-3.18-1.77-3.9c-3.93-.72,9.47,11.39,9.47,11.39" style="fill: none; stroke: #80292d; stroke-miterlimit: 10;"/>
        <path d="M8.2,4.43s-2.17-3.18,1.77-3.9C13.9-.19,.5,11.92,.5,11.92" style="fill: none; stroke: #80292d; stroke-miterlimit: 10;"/>
      </g>
      <line x1="248.64" y1="16.44" x2="248.64" y2="32.67" style="fill: none; stroke: #80292d; stroke-miterlimit: 10;"/>
      <line x1=".5" y1="16.44" x2=".5" y2="32.67" style="fill: none; stroke: #80292d; stroke-miterlimit: 10;"/>
    </g>
    <g>
      <path d="M26.56,21.27c-.5,.54-1.03,1.04-1.53,1.46-.22-.32-.72-1.03-1.06-1.33,1.64-1.22,3.24-3.12,4.23-5.06l1.48,.5c-.41,.83-.96,1.66-1.51,2.45v7.42h-1.6v-5.44Zm-2.38,10.19c.69-1.04,1.35-2.67,1.77-3.87l1.48,.61c-.45,1.22-1.06,2.9-1.68,4.02l-1.57-.76Zm10.53-.4c.92,0,1.08-.25,1.19-2.04,.38,.29,1.08,.54,1.53,.61-.21,2.38-.72,2.95-2.59,2.95h-3.93c-2.3,0-2.9-.47-2.9-2.11v-2.94h1.67v2.9c0,.52,.22,.61,1.33,.61h3.69Zm-2.77-11.67c-.56,.88-1.17,1.67-1.8,2.29-.27-.29-.88-.83-1.24-1.04,1.19-1.03,2.18-2.59,2.74-4.23l1.53,.38c-.14,.41-.29,.79-.47,1.19h6.21l.25-.05,1.17,.29c-.45,1.06-.99,2.3-1.42,3.08l-1.42-.31c.22-.41,.49-1.01,.72-1.58h-6.27Zm1.19,2.39c-.59,1.4-1.57,2.81-2.52,3.73-.29-.27-.88-.76-1.24-.99,.94-.79,1.77-1.96,2.23-3.15l1.53,.41Zm.05,8.17c-.41-.86-1.48-2.18-2.41-3.12l1.3-.7c.94,.86,2.04,2.12,2.52,3.01l-1.4,.81Zm2.65-3.33h-1.6v-6.66h1.6v6.66Zm2.12-5.29c.88,1.06,1.8,2.49,2.2,3.46l-1.4,.74c-.4-.97-1.31-2.47-2.14-3.56l1.35-.63Zm.45,5.91c.83,1.28,1.66,2.93,1.96,4.07l-1.6,.63c-.25-1.1-1.04-2.83-1.84-4.12l1.48-.58Z" style="fill: #3e3a39;"/>
      <path d="M61.63,19v3.84h-1.66v-2.41h-11.99v2.41h-1.58v-3.84h2.61c-.29-.58-.77-1.28-1.19-1.82l1.46-.59c.61,.67,1.22,1.55,1.51,2.16l-.56,.25h2.81v-2.61h1.68v2.61h2.7l-.4-.14c.49-.63,1.12-1.62,1.44-2.32l1.77,.54c-.49,.68-1.03,1.37-1.48,1.93h2.88Zm-13.99,7.35h12.86v6.57h-1.69v-.43h-9.56v.47h-1.6v-6.61Zm1.6,1.24v1.22h3.87v-1.22h-3.87Zm3.87,3.64v-1.24h-3.87v1.24h3.87Zm5.58-9.69v3.91h-9.4v-3.91h9.4Zm-1.67,1.24h-6.16v1.42h6.16v-1.42Zm1.78,4.81h-4.05v1.22h4.05v-1.22Zm0,3.64v-1.24h-4.05v1.24h4.05Z" style="fill: #3e3a39;"/>
      <path d="M73.43,28.34c-.34-.54-1.06-1.44-1.71-2.25v6.82h-1.73v-6.63c-.67,.76-1.33,1.42-2.02,1.94-.16-.45-.58-1.31-.85-1.64,1.73-1.24,3.56-3.42,4.63-5.6h-4.2v-1.51h3.28c-.32-.67-.96-1.67-1.49-2.39l1.28-.74c.61,.74,1.28,1.73,1.6,2.36l-1.21,.77h1.66l.25-.07,.94,.67c-.54,1.39-1.28,2.74-2.14,4v.16c.14,.14,.31,.29,.49,.47,.49-.52,1.06-1.24,1.39-1.75l1.12,.92c-.61,.58-1.22,1.15-1.75,1.6,.63,.65,1.24,1.3,1.46,1.55l-.99,1.31Zm9.67-10.48s-.02,.63-.02,.86c-.21,9.13-.41,12.21-1.08,13.13-.41,.61-.85,.79-1.48,.88-.61,.09-1.6,.07-2.59,.04-.02-.45-.22-1.15-.5-1.6,1.04,.09,1.94,.09,2.36,.09,.34,0,.54-.07,.7-.32,.56-.63,.77-3.62,.96-11.47h-2.99c-.27,6.28-1.12,10.64-4.39,13.45-.23-.32-.92-1.01-1.31-1.3,3.12-2.38,3.84-6.48,4.02-12.15h-2.65v-1.6h8.98Z" style="fill: #3e3a39;"/>
      <path d="M96.47,19.47l.72-.04-.02,1.57-.7,.05c-.02,2.14-.25,4.88-1.78,7.42,.88,.77,1.67,1.53,2.21,2.16l-1.22,1.28c-.49-.59-1.19-1.3-1.98-2.05-.92,1.1-2.12,2.14-3.73,3.04-.27-.4-.83-.99-1.21-1.28,1.6-.86,2.81-1.85,3.67-2.93-1.03-.9-2.09-1.8-3.03-2.54,.4-1.26,.77-2.95,1.13-4.72l-1.62,.09-.18-1.66,2.09-.09c.18-1.15,.32-2.27,.41-3.29l1.77,.09c-.11,.99-.27,2.04-.43,3.12l2.25-.13v-.86h1.64v.77Zm-1.64,1.69c-.88,.05-1.73,.11-2.56,.16-.31,1.55-.63,3.08-.97,4.36,.67,.5,1.37,1.08,2.07,1.66,1.22-2.16,1.44-4.39,1.46-6.18Zm9.6-2.88v13.92h-1.66v-1.08h-3.46v1.33h-1.57v-14.17h6.68Zm-1.66,11.25v-9.67h-3.46v9.67h3.46Z" style="fill: #3e3a39;"/>
      <path d="M116,16.87c-.41,1.19-.96,2.38-1.55,3.49v12.53h-1.66v-9.83c-.47,.68-.99,1.31-1.49,1.87-.14-.4-.63-1.3-.9-1.71,1.6-1.66,3.12-4.23,4.03-6.82l1.57,.47Zm11.02,2.77h-1.21v11.15c0,1.06-.25,1.55-.95,1.82-.7,.27-1.91,.32-3.6,.31-.07-.47-.32-1.22-.58-1.71,1.3,.05,2.59,.04,2.95,.04,.38-.02,.5-.11,.5-.47v-11.13h-8.19v-1.6h11.07v1.6Zm-9.09,8.55v1.22h-1.58v-7.51h5.74v6.28h-4.16Zm0-4.83v3.38h2.61v-3.38h-2.61Z" style="fill: #3e3a39;"/>
      <path d="M137.6,20.94c-.41,.74-.96,1.49-1.51,2.23v9.72h-1.62v-7.87c-.61,.67-1.28,1.24-1.89,1.75-.14-.38-.58-1.28-.85-1.69,1.6-1.13,3.33-2.93,4.39-4.74l1.48,.59Zm-.25-3.87c-1.12,1.58-2.88,3.28-4.5,4.34-.18-.38-.59-1.04-.86-1.39,1.4-.9,2.99-2.36,3.74-3.58l1.62,.63Zm11.05,11.05h-2.57v3.04c0,.83-.16,1.24-.76,1.48-.59,.25-1.46,.27-2.74,.27-.09-.45-.32-1.08-.54-1.51,.9,.04,1.76,.04,2.02,.02,.27-.02,.34-.07,.34-.29v-3.01h-6.93v-1.44h6.93v-1.31h-6.5v-1.39h10.41v1.39h-2.23v1.31h2.57v1.44Zm-8.61,.11c.79,.72,1.76,1.75,2.21,2.43l-1.26,.9c-.41-.68-1.35-1.76-2.14-2.54l1.19-.79Zm7.54-5.28h-8.68v-6.03h8.68v6.03Zm-1.69-4.81h-5.37v1.21h5.37v-1.21Zm0,2.36h-5.37v1.21h5.37v-1.21Z" style="fill: #3e3a39;"/>
      <path d="M158.86,25.1c-.05,.34-.09,.68-.16,1.03,.9,.88,2.97,3.22,3.49,3.82l-1.15,1.44c-.59-.9-1.8-2.45-2.75-3.55-.59,1.85-1.66,3.66-3.56,5.04-.23-.36-.85-1.03-1.19-1.28,2.54-1.8,3.37-4.25,3.64-6.5h-3.42v-1.58h3.53v-3.22h-1.1c-.38,.99-.85,1.89-1.33,2.61-.31-.29-.97-.74-1.37-.97,1.03-1.31,1.73-3.42,2.14-5.53l1.6,.31c-.14,.68-.31,1.37-.49,2.02h4.92v1.57h-2.68v3.22h3.19v1.58h-3.29Zm10.41-7.17v14.26h-1.69v-1.15h-3.28v1.35h-1.62v-14.46h6.59Zm-1.69,11.54v-9.96h-3.28v9.96h3.28Z" style="fill: #3e3a39;"/>
      <path d="M186.26,21.72c1.24,2.85,3.29,5.51,5.6,6.91-.41,.34-1.03,.99-1.31,1.48-.77-.54-1.51-1.21-2.18-1.96v1.57h-3.98v3.19h-1.76v-3.19h-3.98v-1.6c-.72,.79-1.46,1.48-2.23,2.05-.29-.43-.83-1.03-1.24-1.37,2.27-1.44,4.3-4.18,5.53-7.08h-4.97v-1.69h6.9v-3.64h1.76v3.64h6.99v1.69h-5.11Zm-3.64,6.3v-6.3h-.23c-.88,2.36-2.16,4.57-3.69,6.3h3.93Zm5.62,0c-1.51-1.73-2.77-3.96-3.65-6.3h-.2v6.3h3.85Z" style="fill: #3e3a39;"/>
      <path d="M213.12,18.49v1.58h-13.04v3.01c0,2.83-.27,7.09-1.91,9.85-.31-.29-1.08-.81-1.48-.97,1.53-2.57,1.66-6.28,1.66-8.89v-4.57h6.88c-.22-.58-.5-1.21-.81-1.71l1.66-.38c.43,.63,.81,1.44,1.04,2.09h6Zm-6.16,4.09h5.65v1.53h-5.65v2.07h4.81v6.48h-1.71v-.67h-7.01v.7h-1.64v-6.52h3.82v-5.53h1.73v1.93Zm3.1,5.15h-7.01v2.77h7.01v-2.77Z" style="fill: #3e3a39;"/>
      <path d="M223.62,21.12c0-.99-.63-1.75-1.76-1.75-.85,0-1.58,.43-2.18,1.1l-1.17-1.06c.88-1.01,2.09-1.73,3.58-1.73,2.09,0,3.55,1.19,3.55,3.29,0,2.63-3.21,3.6-2.9,6.28h-1.82c-.43-3.02,2.7-4.18,2.7-6.14Zm-3.15,9.17c0-.85,.59-1.48,1.39-1.48s1.39,.63,1.39,1.48-.61,1.44-1.39,1.44-1.39-.59-1.39-1.44Z" style="fill: #3e3a39;"/>
    </g>
  </g>
</svg>