<?xml version="1.0" encoding="UTF-8"?>
<svg id="b" data-name="圖層 2" xmlns="http://www.w3.org/2000/svg" width="28.41" height="25.89" viewBox="0 0 28.41 25.89">
  <g id="c" data-name="圖層 1">
    <g>
      <path d="M2.88,.37l21.22,.14-1.12,1.22V25.89H.53V2.73C.53,1.43,1.59,.37,2.88,.37Z" style="fill: #fff; opacity: .3;"/>
      <g>
        <path d="M25.16,.39H3.41C-.04,.39,.39,2.71,.39,2.71V25.52" style="fill: none; stroke: #80292d; stroke-linecap: round; stroke-linejoin: round; stroke-width: .75px;"/>
        <path d="M24.44,3h3.53s.51-1.73-1.24-2.42c-.88-.35-1.9-.25-2.71,.25-.65,.4-1.3,1.08-1.3,2.17V25.44" style="fill: none; stroke: #80292d; stroke-linecap: round; stroke-linejoin: round; stroke-width: .75px;"/>
        <line x1="4.39" y1="6.93" x2="10.69" y2="6.93" style="fill: none; stroke: #80292d; stroke-linecap: round; stroke-linejoin: round; stroke-width: .75px;"/>
        <line x1="4.39" y1="9.04" x2="16.37" y2="9.04" style="fill: none; stroke: #80292d; stroke-linecap: round; stroke-linejoin: round; stroke-width: .75px;"/>
        <line x1="4.39" y1="14.3" x2="10.69" y2="14.3" style="fill: none; stroke: #80292d; stroke-linecap: round; stroke-linejoin: round; stroke-width: .75px;"/>
        <line x1="4.39" y1="16.41" x2="16.37" y2="16.41" style="fill: none; stroke: #80292d; stroke-linecap: round; stroke-linejoin: round; stroke-width: .75px;"/>
        <line x1="1.69" y1="25.52" x2="21.26" y2="25.52" style="fill: none; stroke: #80292d; stroke-linecap: round; stroke-linejoin: round; stroke-width: .75px;"/>
      </g>
    </g>
  </g>
</svg>