<?xml version="1.0" encoding="UTF-8"?>
<svg id="b" data-name="圖層 2" xmlns="http://www.w3.org/2000/svg" width="28.85" height="27.4" viewBox="0 0 28.85 27.4">
  <g id="c" data-name="圖層 1">
    <g>
      <path d="M26.3,27.28H2.55c-1.34,0-2.43-1.09-2.43-2.43V5.45C.12,4.11,1.21,3.02,2.55,3.02H26.3c1.34,0,2.43,1.09,2.43,2.43V24.85c0,1.34-1.09,2.43-2.43,2.43ZM2.55,3.38C1.41,3.38,.49,4.31,.49,5.45V24.85c0,1.14,.93,2.07,2.07,2.07H26.3c1.14,0,2.07-.93,2.07-2.07V5.45c0-1.14-.93-2.07-2.07-2.07H2.55Z" style="fill: #80292d; stroke: #80292d; stroke-miterlimit: 10; stroke-width: .25px;"/>
      <path d="M28.38,8.45H.47c-.19,0-.34-.15-.34-.34v-2.62C.12,4.13,1.23,3.02,2.6,3.02H26.25c1.36,0,2.47,1.11,2.47,2.47v2.62c0,.19-.15,.34-.34,.34ZM2.6,3.38C1.43,3.38,.49,4.33,.49,5.49v2.62l27.88-.02v-2.6c0-1.16-.95-2.11-2.11-2.11H2.6Z" style="fill: #80292d; stroke: #80292d; stroke-miterlimit: 10; stroke-width: .25px;"/>
      <path d="M7.73,6.28c-.4,0-.72-.32-.72-.72V.85c0-.4,.32-.72,.72-.72s.72,.32,.72,.72V5.56c0,.4-.32,.72-.72,.72Z" style="fill: #80292d; stroke: #80292d; stroke-miterlimit: 10; stroke-width: .25px;"/>
      <path d="M21.67,6.28c-.4,0-.72-.32-.72-.72V.85c0-.4,.32-.72,.72-.72s.72,.32,.72,.72V5.56c0,.4-.32,.72-.72,.72Z" style="fill: #80292d; stroke: #80292d; stroke-miterlimit: 10; stroke-width: .25px;"/>
      <rect x="3.75" y="11.71" width="5.92" height="4.39" rx="1.5" ry="1.5" style="fill: #80292d; stroke: #80292d; stroke-miterlimit: 10; stroke-width: .25px;"/>
      <rect x="11.64" y="11.71" width="5.92" height="4.39" rx="1.5" ry="1.5" style="fill: #80292d; stroke: #80292d; stroke-miterlimit: 10; stroke-width: .25px;"/>
      <rect x="19.54" y="11.71" width="5.92" height="4.39" rx="1.5" ry="1.5" style="fill: #80292d; stroke: #80292d; stroke-miterlimit: 10; stroke-width: .25px;"/>
      <rect x="3.75" y="18.53" width="5.92" height="4.39" rx="1.5" ry="1.5" style="fill: #80292d; stroke: #80292d; stroke-miterlimit: 10; stroke-width: .25px;"/>
      <rect x="11.64" y="18.53" width="5.92" height="4.39" rx="1.5" ry="1.5" style="fill: #80292d; stroke: #80292d; stroke-miterlimit: 10; stroke-width: .25px;"/>
      <rect x="19.54" y="18.53" width="5.92" height="4.39" rx="1.5" ry="1.5" style="fill: #80292d; stroke: #80292d; stroke-miterlimit: 10; stroke-width: .25px;"/>
    </g>
  </g>
</svg>