<?xml version="1.0" encoding="UTF-8"?>
<svg id="b" data-name="圖層 2" xmlns="http://www.w3.org/2000/svg" width="269.94" height="72.62" viewBox="0 0 269.94 72.62">
  <g id="c" data-name="圖層 1">
    <g>
      <line x1="269.94" y1="72.12" x2="0" y2="72.12" style="fill: none; stroke: #89202a; stroke-miterlimit: 10;"/>
      <line x1="269.94" y1="20.12" x2="0" y2="20.12" style="fill: none; stroke: #89202a; stroke-miterlimit: 10;"/>
    </g>
    <g>
      <path d="M131.28,5.85s-12.84-8.13-19.21-3.34c-1.7,1.28-2.13,3.43-.91,5.16,1.57,2.23,7.52,4.19,18.64,2.41" style="fill: none; stroke: #c7ba99; stroke-miterlimit: 10; stroke-width: 2px;"/>
      <path d="M138.53,5.85s12.84-8.13,19.21-3.34c1.7,1.28,2.13,3.43,.91,5.16-1.57,2.23-7.52,4.19-18.64,2.41" style="fill: none; stroke: #c7ba99; stroke-miterlimit: 10; stroke-width: 2px;"/>
      <path d="M138.53,5.85s12.84-8.13,19.21-3.34c1.7,1.28,2.13,3.43,.91,5.16-1.57,2.23-7.52,4.19-18.64,2.41" style="fill: none; stroke: #89202a; stroke-miterlimit: 10; stroke-width: .5px;"/>
      <line x1="134.88" y1="5.02" x2="134.88" y2="10.77" style="fill: none; stroke: #c7ba99; stroke-linecap: round; stroke-linejoin: round; stroke-width: 1.5px;"/>
      <line x1="136.94" y1="5.02" x2="136.94" y2="10.77" style="fill: none; stroke: #c7ba99; stroke-linecap: round; stroke-linejoin: round; stroke-width: 1.5px;"/>
      <line x1="132.81" y1="5.02" x2="132.81" y2="10.77" style="fill: none; stroke: #c7ba99; stroke-linecap: round; stroke-linejoin: round; stroke-width: 1.5px;"/>
      <path d="M131.28,5.85s-12.84-8.13-19.21-3.34c-1.7,1.28-2.13,3.43-.91,5.16,1.57,2.23,7.52,4.19,18.64,2.41" style="fill: none; stroke: #89202a; stroke-miterlimit: 10; stroke-width: .5px;"/>
      <g>
        <line x1="134.88" y1="5.02" x2="134.88" y2="10.77" style="fill: none; stroke: #89202a; stroke-miterlimit: 10; stroke-width: .5px;"/>
        <line x1="136.94" y1="5.02" x2="136.94" y2="10.77" style="fill: none; stroke: #89202a; stroke-miterlimit: 10; stroke-width: .5px;"/>
        <line x1="132.81" y1="5.02" x2="132.81" y2="10.77" style="fill: none; stroke: #89202a; stroke-miterlimit: 10; stroke-width: .5px;"/>
      </g>
    </g>
    <g>
      <path d="M38.79,32.69c-.14,.17-.25,.36-.42,.53,2.6,2.41,7.34,4.54,11.7,5.46-.53,.45-1.26,1.37-1.65,1.99-.67-.2-1.4-.42-2.1-.67v7.25H27.4v-7.06c-.7,.25-1.37,.48-2.07,.67-.22-.48-.95-1.54-1.4-1.99,5.07-1.29,10.02-3.72,12.57-7l2.3,.81Zm7.42,7.28c-1.51-.53-3.05-1.18-4.48-1.99v.81h-9.69v-.67c-1.29,.73-2.66,1.32-4.06,1.85h18.23Zm-17.22,8.4h15.96v9.21h-2.66v-.76h-10.72v.87h-2.58v-9.32Zm3.81-6.52c.62,.95,1.23,2.24,1.43,3.08l-1.85,.62h3.3v-3.86h-6.08v3.86h2.69c-.2-.87-.73-2.16-1.32-3.14l1.82-.56Zm-1.23,8.32v1.54h10.72v-1.54h-10.72Zm10.72,4.9v-1.57h-10.72v1.57h10.72Zm-2.21-18.06c-1.15-.7-2.18-1.51-3.08-2.35-.9,.84-1.96,1.65-3.05,2.35h6.13Zm3.95,4.68h-6.22v3.86h3.14l-1.74-.53c.5-.9,1.09-2.32,1.4-3.28l2.18,.62c-.62,1.2-1.23,2.38-1.74,3.19h2.97v-3.86Z" style="fill: #80292d;"/>
      <path d="M80.76,53.02c2.8,.81,6.16,2.02,8.26,2.91l-2.3,1.82c-2.1-.95-5.88-2.38-8.82-3.22l2.04-1.51h-8.09l1.96,1.32c-2.24,1.34-5.82,2.69-8.68,3.39-.48-.53-1.32-1.4-1.96-1.88,2.66-.62,5.94-1.76,7.78-2.83h-4.84v-12.12h19.99v12.12h-5.35Zm4.26-13.47h-17.7v-6.55h17.7v6.55Zm-16.32,4.82h14.7v-1.6h-14.7v1.6Zm0,3.39h14.7v-1.62h-14.7v1.62Zm0,3.39h14.7v-1.65h-14.7v1.65Zm13.58-16.07h-12.35v2.41h12.35v-2.41Z" style="fill: #80292d;"/>
      <path d="M122.4,47.42c1.57,1.62,3.78,3.05,5.94,3.81-.56,.48-1.32,1.4-1.71,2.02-2.69-1.18-5.35-3.39-7.06-5.82h-8.34c-.67,.98-1.54,1.96-2.46,2.83h5.12v-2.1h2.63v2.1h5.54v2.07h-5.54v2.49h9.41v2.16h-21.08v-2.16h9.04v-2.49h-5.35v-1.85c-1.4,1.26-3.02,2.32-4.62,3.08-.36-.62-1.12-1.54-1.68-1.99,2.21-.84,4.45-2.41,6.05-4.14h-5.77v-2.16h5.43v-8.65h-4.06v-2.13h4.06v-2.44h2.6v2.44h9.52v-2.41h2.66v2.41h4v2.13h-4v8.65h5.26v2.16h-5.6Zm-11.84-10.81v1.57h9.52v-1.57h-9.52Zm0,5.07h9.52v-1.6h-9.52v1.6Zm0,3.58h9.52v-1.68h-9.52v1.68Z" style="fill: #80292d;"/>
      <path d="M158.72,40.31c1.93,4.42,5.12,8.57,8.71,10.75-.64,.53-1.6,1.54-2.04,2.3-1.2-.84-2.35-1.88-3.39-3.05v2.44h-6.19v4.96h-2.74v-4.96h-6.19v-2.49c-1.12,1.23-2.27,2.3-3.47,3.19-.45-.67-1.29-1.6-1.93-2.13,3.53-2.24,6.69-6.5,8.6-11h-7.73v-2.63h10.72v-5.66h2.74v5.66h10.86v2.63h-7.95Zm-5.66,9.8v-9.8h-.36c-1.37,3.67-3.36,7.11-5.74,9.8h6.1Zm8.74,0c-2.35-2.69-4.31-6.16-5.68-9.8h-.31v9.8h5.99Z" style="fill: #80292d;"/>
      <path d="M198.31,36.22c0,.2,0,.42-.06,.67,1.51,1.54,4.51,2.49,8.2,2.72-.5,.53-1.15,1.46-1.4,2.13-3.19-.45-5.74-1.46-7.5-3.08-1.01,1.29-3.22,2.49-8.04,3.16-.25-.59-.84-1.46-1.32-1.93h-7.11v-2.04h8.12v1.85c6.08-.78,6.72-2.35,6.72-3.56v-.36h-2.32c-.62,1.01-1.32,1.9-2.04,2.6-.42-.36-1.37-1.04-1.96-1.32,1.46-1.26,2.6-3.19,3.22-5.15l2.32,.5c-.17,.48-.34,.92-.53,1.4h8.74l.36-.11,1.79,.59c-.7,1.48-1.65,3.11-2.44,4.14l-2.04-.73c.36-.5,.78-1.23,1.18-1.93h-3.89v.45Zm-.22,16.97c2.88,.95,5.99,2.13,7.9,3.05l-2.35,1.43c-1.71-.92-4.65-2.18-7.53-3.16l1.62-1.32h-8.37l2.32,1.06c-2.27,1.37-5.77,2.72-8.57,3.5-.45-.53-1.37-1.48-1.93-1.96,2.86-.56,6.13-1.51,8.06-2.6h-4.51v-11.26h18.26v11.26h-4.9Zm-9.55-17.67h-6.86v-1.96h6.86v1.96Zm-1.29,9.66h13.13v-1.6h-13.13v1.6Zm0,3.14h13.13v-1.57h-13.13v1.57Zm0,3.22h13.13v-1.62h-13.13v1.62Z" style="fill: #80292d;"/>
      <path d="M224.38,45.77c-.56,3.14-1.74,7.06-3.33,9.07-.22-.87-.78-2.18-1.23-3.02,1.15-1.54,2.27-4.4,2.72-6.72l1.85,.67Zm3.75-.62c.59,.81,2.6,4.48,3.02,5.35l-1.82,1.99c-.45-1.43-1.62-4.17-2.35-5.71v10.95h-2.44v-13.97h-4.34v-2.44h4.34v-9.27h2.44v9.27h4.37v2.44h-4.37v2.24l1.15-.84Zm-6.41-4.59c-.11-1.68-.73-4.31-1.4-6.3l1.85-.48c.78,1.99,1.37,4.56,1.54,6.27l-1.99,.5Zm9.86-6.36c-.73,2.13-1.57,4.73-2.3,6.33l-1.65-.5c.59-1.68,1.34-4.45,1.68-6.33l2.27,.5Zm10.84,15.79v7.73h-2.44v-7.28l-8.29,1.51-.42-2.41,8.71-1.57v-15.93h2.44v15.48l3.11-.53,.36,2.38-3.47,.62Zm-6.02-4.06c-.95-1.01-2.94-2.46-4.59-3.36l1.23-1.88c1.62,.87,3.67,2.18,4.68,3.16l-1.32,2.07Zm1.12-6.75c-.87-1.09-2.77-2.6-4.37-3.61l1.32-1.76c1.57,.95,3.5,2.35,4.42,3.39l-1.37,1.99Z" style="fill: #80292d;"/>
    </g>
  </g>
</svg>