<?xml version="1.0" encoding="UTF-8"?>
<svg id="b" data-name="圖層 2" xmlns="http://www.w3.org/2000/svg" width="95.42" height="52.76" viewBox="0 0 95.42 52.76">
  <g id="c" data-name="圖層 3">
    <line x1="95.42" y1="52.51" x2="0" y2="52.51" style="fill: none; stroke: #89202a; stroke-miterlimit: 10; stroke-width: .5px;"/>
    <line x1="95.42" y1="15.76" x2="0" y2="15.76" style="fill: none; stroke: #89202a; stroke-miterlimit: 10; stroke-width: .5px;"/>
    <g>
      <path d="M44.68,4.59S34.63-1.78,29.63,1.97c-1.33,1-1.67,2.69-.72,4.05,1.23,1.74,5.89,3.28,14.6,1.89" style="fill: none; stroke: #c7ba99; stroke-miterlimit: 10; stroke-width: 1.57px;"/>
      <path d="M50.37,4.59s10.06-6.37,15.05-2.62c1.33,1,1.67,2.69,.72,4.05-1.23,1.74-5.89,3.28-14.6,1.89" style="fill: none; stroke: #c7ba99; stroke-miterlimit: 10; stroke-width: 1.57px;"/>
      <path d="M50.37,4.59s10.06-6.37,15.05-2.62c1.33,1,1.67,2.69,.72,4.05-1.23,1.74-5.89,3.28-14.6,1.89" style="fill: none; stroke: #89202a; stroke-miterlimit: 10; stroke-width: .39px;"/>
      <line x1="47.51" y1="3.93" x2="47.51" y2="8.44" style="fill: none; stroke: #c7ba99; stroke-linecap: round; stroke-linejoin: round; stroke-width: 1.18px;"/>
      <line x1="49.13" y1="3.93" x2="49.13" y2="8.44" style="fill: none; stroke: #c7ba99; stroke-linecap: round; stroke-linejoin: round; stroke-width: 1.18px;"/>
      <line x1="45.89" y1="3.93" x2="45.89" y2="8.44" style="fill: none; stroke: #c7ba99; stroke-linecap: round; stroke-linejoin: round; stroke-width: 1.18px;"/>
      <path d="M44.68,4.59S34.63-1.78,29.63,1.97c-1.33,1-1.67,2.69-.72,4.05,1.23,1.74,5.89,3.28,14.6,1.89" style="fill: none; stroke: #89202a; stroke-miterlimit: 10; stroke-width: .39px;"/>
      <g>
        <line x1="47.51" y1="3.93" x2="47.51" y2="8.44" style="fill: none; stroke: #89202a; stroke-miterlimit: 10; stroke-width: .39px;"/>
        <line x1="49.13" y1="3.93" x2="49.13" y2="8.44" style="fill: none; stroke: #89202a; stroke-miterlimit: 10; stroke-width: .39px;"/>
        <line x1="45.89" y1="3.93" x2="45.89" y2="8.44" style="fill: none; stroke: #89202a; stroke-miterlimit: 10; stroke-width: .39px;"/>
      </g>
    </g>
    <g>
      <path d="M11.86,27.64c-.08,.1-.15,.22-.25,.32,1.58,1.46,4.45,2.75,7.11,3.31-.32,.27-.76,.83-1,1.21-.41-.12-.85-.25-1.28-.41v4.4H4.94v-4.28c-.42,.15-.83,.29-1.26,.41-.14-.29-.58-.94-.85-1.21,3.08-.78,6.09-2.26,7.63-4.25l1.39,.49Zm4.5,4.42c-.92-.32-1.85-.71-2.72-1.21v.49H7.77v-.41c-.78,.44-1.61,.8-2.46,1.12h11.07Zm-10.45,5.1H15.6v5.59h-1.62v-.46H7.48v.53h-1.56v-5.66Zm2.31-3.96c.37,.58,.75,1.36,.87,1.87l-1.12,.37h2.01v-2.35h-3.69v2.35h1.63c-.12-.53-.44-1.31-.8-1.9l1.1-.34Zm-.75,5.05v.94h6.51v-.94H7.48Zm6.51,2.97v-.95H7.48v.95h6.51Zm-1.34-10.96c-.7-.42-1.33-.92-1.87-1.43-.54,.51-1.19,1-1.85,1.43h3.72Zm2.4,2.84h-3.77v2.35h1.9l-1.05-.32c.31-.54,.66-1.41,.85-1.99l1.33,.37c-.37,.73-.75,1.44-1.05,1.94h1.8v-2.35Z" style="fill: #80292d;"/>
      <path d="M37.35,39.98c1.7,.49,3.74,1.22,5.01,1.77l-1.39,1.1c-1.28-.58-3.57-1.44-5.35-1.95l1.24-.92h-4.91l1.19,.8c-1.36,.82-3.54,1.63-5.27,2.06-.29-.32-.8-.85-1.19-1.14,1.62-.37,3.6-1.07,4.73-1.72h-2.94v-7.36h12.14v7.36h-3.25Zm2.58-8.18h-10.74v-3.98h10.74v3.98Zm-9.91,2.92h8.92v-.97h-8.92v.97Zm0,2.06h8.92v-.99h-8.92v.99Zm0,2.06h8.92v-1h-8.92v1Zm8.24-9.76h-7.5v1.46h7.5v-1.46Z" style="fill: #80292d;"/>
      <path d="M56.49,37.72c0,.53-.07,.95-.39,1.19-.31,.24-.7,.27-1.28,.27-.03-.36-.2-.97-.39-1.33,.36,.02,.65,.02,.75,.02,.12-.02,.15-.05,.15-.19v-5.88h-1v11.05h-1.33v-11.05h-.92v7.56h-1.19v-8.98h2.11v-3.13h1.33v3.13h2.16v7.33Zm9.08-.22c-.76,.58-1.62,1.19-2.35,1.67,.83,.9,1.82,1.68,2.89,2.14-.34,.31-.82,.88-1.04,1.27-2.31-1.17-4.11-3.57-5.15-6.31h-.88v4.57l2.53-.8c0,.41,.03,.99,.1,1.31-3.21,1.1-3.76,1.33-4.06,1.58-.12-.39-.49-1.1-.75-1.43,.27-.2,.68-.65,.68-1.34v-3.89h-.73v-1.34h1.1v-6.94h7.5v1.26h-5.97v1.09h5.29v1.14h-5.29v1.12h5.37v1.17h-5.37v1.16h6.41v1.34h-4.52c.29,.7,.68,1.36,1.12,1.97,.7-.53,1.46-1.21,1.94-1.73l1.17,.99Z" style="fill: #80292d;"/>
      <path d="M79.83,36.53s-.02,.37-.03,.58c-.22,3.21-.42,4.54-.88,5.01-.27,.32-.58,.44-1.04,.49-.37,.05-1.02,.05-1.72,0-.02-.39-.17-.95-.39-1.31,.65,.05,1.24,.07,1.5,.07,.24,0,.39-.03,.53-.17,.25-.27,.46-1.17,.61-3.43h-3.37c.2-.75,.46-1.75,.63-2.7h-1.38v-1.38h6.17v1.38h-3.45c-.1,.49-.2,1-.31,1.46h3.13Zm.25-4.01h-5v-4.61h5v4.61Zm-1.22-3.45h-2.62v2.29h2.62v-2.29Zm8.89,5.98c.29,0,.85-.02,1.09-.1,.02,.41,.05,.8,.1,1.16-.25,.1-.71,.12-1.14,.12h-1.92c-1.22,0-1.5-.58-1.5-1.78v-.25l-1.45,.15-.15-1.1,1.6-.15v-1.27h-1.9v3.04c0,2.36-.24,5.76-1.68,8.01-.22-.25-.85-.68-1.16-.83,1.31-2.09,1.46-5.01,1.46-7.19v-4.28h3.3v-3.31h1.5v1.05h3.33v1.27h-3.33v.99h2.91l.24-.07,.95,.24c-.19,1.04-.46,2.26-.68,3.04l-1.17-.29c.1-.44,.22-1.05,.32-1.67h-2.74v1.14l1.92-.19,.14,1.09-2.06,.2v.42c0,.41,.05,.58,.41,.58h1.61Zm-2.82,1.89c-.12,2.75-.49,4.73-2.36,5.92-.15-.32-.54-.83-.85-1.04,1.53-.95,1.82-2.6,1.9-4.88h1.31Zm3.37,4.18c.15,0,.32-.02,.39-.08,.07-.05,.15-.17,.19-.32,.03-.27,.07-.9,.05-1.65,.27,.24,.75,.51,1.12,.63-.02,.8-.08,1.63-.19,1.92-.12,.34-.29,.56-.53,.7-.22,.12-.59,.2-.92,.2h-.92c-.37,0-.8-.08-1.04-.32-.27-.25-.32-.51-.32-1.36v-3.88h1.31v3.82c0,.1,.02,.2,.1,.25,.07,.05,.17,.08,.32,.08h.42Z" style="fill: #80292d;"/>
    </g>
  </g>
</svg>