<?xml version="1.0" encoding="UTF-8"?>
<svg id="b" data-name="圖層 2" xmlns="http://www.w3.org/2000/svg" width="49.37" height="55.92" viewBox="0 0 49.37 55.92">
  <g id="c" data-name="圖層 1">
    <path d="M16.66,53.79c1.67,.59,3.4,1,5.15,1.21,7.05,.85,14.4-1.43,19.8-6.84,9.35-9.35,9.35-24.5,0-33.85-9.35-9.35-24.5-9.35-33.85,0-9.35,9.35-9.35,24.5,0,33.85" style="fill: none; stroke: #80292d; stroke-linecap: round; stroke-linejoin: round; stroke-width: 1.5px;"/>
    <g>
      <path d="M39.52,44.46c0-7.62-6.83-13.79-15.25-13.79s-15.25,6.17-15.25,13.79" style="fill: none; stroke: #80292d; stroke-linecap: round; stroke-linejoin: round; stroke-width: 1.5px;"/>
      <line x1="11.35" y1="44.46" x2="36.85" y2="44.46" style="fill: none; stroke: #80292d; stroke-linecap: round; stroke-linejoin: round; stroke-width: 1.5px;"/>
    </g>
    <path d="M21.49,27.37c.77,.51,1.66,.8,2.61,.8,2.9,0,5.26-2.73,5.26-6.1s-2.35-6.1-5.26-6.1-5.26,2.73-5.26,6.1c0,1.43,.42,2.75,1.13,3.79" style="fill: none; stroke: #80292d; stroke-linecap: round; stroke-linejoin: round; stroke-width: 1.5px;"/>
    <g>
      <path d="M24.69,7.48l-8.51-2.11c-.86-.21-1.28-1.19-.83-1.96l1.15-2c.44-.77,1.5-.9,2.11-.26l6.08,6.32Z" style="fill: none; stroke: #80292d; stroke-linecap: square; stroke-linejoin: round; stroke-width: 1.5px;"/>
      <path d="M24.64,7.48l8.51-2.11c.86-.21,1.28-1.19,.83-1.96l-1.15-2c-.44-.77-1.5-.9-2.11-.26l-6.08,6.32Z" style="fill: none; stroke: #80292d; stroke-linecap: square; stroke-linejoin: round; stroke-width: 1.5px;"/>
      <path d="M35.19,12.18c-5.85,0-10.59-2.18-10.59-4.88" style="fill: none; stroke: #80292d; stroke-linecap: square; stroke-linejoin: round; stroke-width: 1.5px;"/>
      <path d="M24.6,7.3c0,2.69-4.74,4.88-10.59,4.88" style="fill: none; stroke: #80292d; stroke-linecap: square; stroke-linejoin: round; stroke-width: 1.5px;"/>
    </g>
  </g>
</svg>