<?xml version="1.0" encoding="UTF-8"?>
<svg id="b" data-name="圖層 2" xmlns="http://www.w3.org/2000/svg" width="57.82" height="46.61" viewBox="0 0 57.82 46.61">
  <g id="c" data-name="圖層 1">
    <g>
      <path d="M57.82,1.83h0c0-1.01-.88-1.83-1.96-1.83h-5.16c-.84,0-1.55,.5-1.83,1.19-5.07,.53-5.99,3.78-6.09,4.25l-8.24,28.75H12.54c-.38,0-.69,.29-.69,.65s.31,.65,.69,.65h22.53c.31,0,.59-.2,.67-.48L44.12,5.77s.01-.05,.02-.07c.02-.12,.53-2.72,4.75-3.21,.28,.68,.99,1.17,1.82,1.17h5.16c1.08,0,1.96-.82,1.96-1.83Z" style="fill: #80292d;"/>
      <path d="M8.92,38.58c-2.26,0-4.09,1.8-4.09,4.01s1.84,4.01,4.09,4.01,4.09-1.8,4.09-4.01-1.84-4.01-4.09-4.01Zm0,6.73c-1.49,0-2.71-1.22-2.71-2.72s1.22-2.72,2.71-2.72,2.71,1.22,2.71,2.72-1.22,2.72-2.71,2.72Z" style="fill: #80292d;"/>
      <path d="M31.91,38.58c-2.26,0-4.09,1.8-4.09,4.01s1.84,4.01,4.09,4.01,4.09-1.8,4.09-4.01-1.84-4.01-4.09-4.01Zm0,6.73c-1.49,0-2.71-1.22-2.71-2.72s1.22-2.72,2.71-2.72,2.71,1.22,2.71,2.72-1.22,2.72-2.71,2.72Z" style="fill: #80292d;"/>
      <path d="M9.25,35.49c.38,0,.69-.29,.69-.65s-.31-.65-.69-.65h-3.34L1.53,12.45H37c.38,0,.69-.29,.69-.65s-.31-.65-.69-.65H.69c-.21,0-.4,.09-.53,.23-.13,.15-.19,.34-.15,.53l4.65,23.04c.06,.31,.35,.53,.68,.53h3.92Z" style="fill: #80292d;"/>
      <path d="M27.58,19.32c.37-.1,.58-.46,.47-.8-.11-.34-.49-.54-.86-.44l-3.51,.96-.71-2.55c-.1-.35-.47-.55-.84-.46-.37,.09-.59,.44-.49,.79l.72,2.58-6.99,1.91-1.35-4.83c-.1-.35-.47-.55-.84-.46-.37,.09-.59,.44-.49,.79l1.36,4.86-1.84,.5c-.37,.1-.58,.46-.47,.8,.09,.28,.36,.47,.66,.47,.06,0,.13,0,.19-.03l1.8-.49,1.13,4.05-3.32,.91c-.37,.1-.58,.46-.47,.8,.09,.28,.36,.47,.66,.47,.06,0,.13,0,.19-.03l3.28-.9,.96,3.44c.08,.29,.36,.48,.67,.48,.06,0,.12,0,.18-.02,.37-.09,.59-.44,.49-.79l-.97-3.47,6.99-1.91,1.59,5.71c.08,.29,.36,.48,.67,.48,.06,0,.12,0,.18-.02,.37-.09,.59-.44,.49-.79l-1.6-5.75,2.07-.57c.37-.1,.58-.46,.47-.8-.11-.34-.49-.54-.86-.44l-2.03,.56-1.13-4.05,3.55-.97Zm-3.75,5.38l-6.99,1.91-1.13-4.05,6.99-1.91,1.13,4.05Z" style="fill: #80292d;"/>
    </g>
  </g>
</svg>