<?xml version="1.0" encoding="UTF-8"?>
<svg id="b" data-name="圖層 2" xmlns="http://www.w3.org/2000/svg" width="33.68" height="27.15" viewBox="0 0 33.68 27.15">
  <g id="c" data-name="頁面">
    <path d="M20.29,6.5h2.87c.78,0,1.34,.75,1.11,1.5l-3.85,12.68H3.11L.09,6.63H13.89l6.41-.14Z" style="fill: #fff; opacity: .3;"/>
    <g>
      <path d="M33.68,1.07h0c0-.59-.51-1.07-1.14-1.07h-3.01c-.49,0-.91,.29-1.07,.7-2.95,.31-3.49,2.2-3.55,2.48l-4.8,16.75H7.3c-.22,0-.4,.17-.4,.38s.18,.38,.4,.38h13.13c.18,0,.34-.11,.39-.28L25.7,3.36s0-.03,0-.04c.01-.07,.31-1.58,2.77-1.87,.17,.4,.58,.68,1.06,.68h3.01c.63,0,1.14-.48,1.14-1.07Z" style="fill: #80292d;"/>
      <path d="M5.19,22.47c-1.31,0-2.38,1.05-2.38,2.34s1.07,2.34,2.38,2.34,2.38-1.05,2.38-2.34-1.07-2.34-2.38-2.34Zm0,3.92c-.87,0-1.58-.71-1.58-1.58s.71-1.58,1.58-1.58,1.58,.71,1.58,1.58-.71,1.58-1.58,1.58Z" style="fill: #80292d;"/>
      <path d="M18.59,22.47c-1.31,0-2.38,1.05-2.38,2.34s1.07,2.34,2.38,2.34,2.38-1.05,2.38-2.34-1.07-2.34-2.38-2.34Zm0,3.92c-.87,0-1.58-.71-1.58-1.58s.71-1.58,1.58-1.58,1.58,.71,1.58,1.58-.71,1.58-1.58,1.58Z" style="fill: #80292d;"/>
      <path d="M5.39,20.68c.22,0,.4-.17,.4-.38s-.18-.38-.4-.38h-1.95L.89,7.25H21.56c.22,0,.4-.17,.4-.38s-.18-.38-.4-.38H.4c-.12,0-.23,.05-.31,.14-.08,.09-.11,.2-.09,.31l2.71,13.42c.04,.18,.2,.31,.4,.31h2.28Z" style="fill: #80292d;"/>
      <path d="M16.07,11.25c.21-.06,.34-.27,.27-.47-.06-.2-.29-.31-.5-.26l-2.04,.56-.41-1.48c-.06-.2-.28-.32-.49-.27-.22,.05-.34,.26-.29,.46l.42,1.51-4.07,1.12-.78-2.81c-.06-.2-.28-.32-.49-.27-.22,.05-.34,.26-.29,.46l.79,2.83-1.07,.29c-.21,.06-.34,.27-.27,.47,.05,.16,.21,.27,.39,.27,.04,0,.08,0,.11-.02l1.05-.29,.66,2.36-1.93,.53c-.21,.06-.34,.27-.27,.47,.05,.16,.21,.27,.39,.27,.04,0,.08,0,.11-.02l1.91-.52,.56,2c.05,.17,.21,.28,.39,.28,.03,0,.07,0,.1-.01,.22-.05,.34-.26,.29-.46l-.56-2.02,4.07-1.12,.93,3.33c.05,.17,.21,.28,.39,.28,.03,0,.07,0,.1-.01,.22-.05,.34-.26,.29-.46l-.93-3.35,1.2-.33c.21-.06,.34-.27,.27-.47-.06-.2-.29-.31-.5-.26l-1.18,.32-.66-2.36,2.07-.57Zm-2.18,3.14l-4.07,1.12-.66-2.36,4.07-1.12,.66,2.36Z" style="fill: #80292d;"/>
    </g>
  </g>
</svg>