<?xml version="1.0" encoding="UTF-8"?>
<svg id="b" data-name="圖層 2" xmlns="http://www.w3.org/2000/svg" width="192.37" height="72.62" viewBox="0 0 192.37 72.62">
  <g id="c" data-name="圖層 1">
    <g>
      <line x1="192.37" y1="72.12" x2="0" y2="72.12" style="fill: none; stroke: #89202a; stroke-miterlimit: 10;"/>
      <line x1="192.37" y1="20.12" x2="0" y2="20.12" style="fill: none; stroke: #89202a; stroke-miterlimit: 10;"/>
      <g>
        <path d="M92.49,5.85s-12.84-8.13-19.21-3.34c-1.7,1.28-2.13,3.43-.91,5.16,1.57,2.23,7.52,4.19,18.64,2.41" style="fill: none; stroke: #c7ba99; stroke-miterlimit: 10; stroke-width: 2px;"/>
        <path d="M99.74,5.85s12.84-8.13,19.21-3.34c1.7,1.28,2.13,3.43,.91,5.16-1.57,2.23-7.52,4.19-18.64,2.41" style="fill: none; stroke: #c7ba99; stroke-miterlimit: 10; stroke-width: 2px;"/>
        <path d="M99.74,5.85s12.84-8.13,19.21-3.34c1.7,1.28,2.13,3.43,.91,5.16-1.57,2.23-7.52,4.19-18.64,2.41" style="fill: none; stroke: #89202a; stroke-miterlimit: 10; stroke-width: .5px;"/>
        <line x1="96.09" y1="5.02" x2="96.09" y2="10.77" style="fill: none; stroke: #c7ba99; stroke-linecap: round; stroke-linejoin: round; stroke-width: 1.5px;"/>
        <line x1="98.16" y1="5.02" x2="98.16" y2="10.77" style="fill: none; stroke: #c7ba99; stroke-linecap: round; stroke-linejoin: round; stroke-width: 1.5px;"/>
        <line x1="94.03" y1="5.02" x2="94.03" y2="10.77" style="fill: none; stroke: #c7ba99; stroke-linecap: round; stroke-linejoin: round; stroke-width: 1.5px;"/>
        <path d="M92.49,5.85s-12.84-8.13-19.21-3.34c-1.7,1.28-2.13,3.43-.91,5.16,1.57,2.23,7.52,4.19,18.64,2.41" style="fill: none; stroke: #89202a; stroke-miterlimit: 10; stroke-width: .5px;"/>
        <g>
          <line x1="96.09" y1="5.02" x2="96.09" y2="10.77" style="fill: none; stroke: #89202a; stroke-miterlimit: 10; stroke-width: .5px;"/>
          <line x1="98.16" y1="5.02" x2="98.16" y2="10.77" style="fill: none; stroke: #89202a; stroke-miterlimit: 10; stroke-width: .5px;"/>
          <line x1="94.03" y1="5.02" x2="94.03" y2="10.77" style="fill: none; stroke: #89202a; stroke-miterlimit: 10; stroke-width: .5px;"/>
        </g>
      </g>
      <g>
        <path d="M39.16,32.69c-.14,.17-.25,.36-.42,.53,2.6,2.41,7.34,4.54,11.7,5.46-.53,.45-1.26,1.37-1.65,1.99-.67-.2-1.4-.42-2.1-.67v7.25H27.77v-7.06c-.7,.25-1.37,.48-2.07,.67-.22-.48-.95-1.54-1.4-1.99,5.07-1.29,10.02-3.72,12.57-7l2.3,.81Zm7.42,7.28c-1.51-.53-3.05-1.18-4.48-1.99v.81h-9.69v-.67c-1.29,.73-2.66,1.32-4.06,1.85h18.23Zm-17.22,8.4h15.96v9.21h-2.66v-.76h-10.72v.87h-2.58v-9.32Zm3.81-6.52c.62,.95,1.23,2.24,1.43,3.08l-1.85,.62h3.3v-3.86h-6.08v3.86h2.69c-.2-.87-.73-2.16-1.32-3.14l1.82-.56Zm-1.23,8.32v1.54h10.72v-1.54h-10.72Zm10.72,4.9v-1.57h-10.72v1.57h10.72Zm-2.21-18.06c-1.15-.7-2.18-1.51-3.08-2.35-.9,.84-1.96,1.65-3.05,2.35h6.13Zm3.95,4.68h-6.22v3.86h3.14l-1.74-.53c.5-.9,1.09-2.32,1.4-3.28l2.18,.62c-.62,1.2-1.23,2.38-1.74,3.19h2.97v-3.86Z" style="fill: #80292d;"/>
        <path d="M81.14,53.02c2.8,.81,6.16,2.02,8.26,2.91l-2.3,1.82c-2.1-.95-5.88-2.38-8.82-3.22l2.04-1.51h-8.09l1.96,1.32c-2.24,1.34-5.82,2.69-8.68,3.39-.48-.53-1.32-1.4-1.96-1.88,2.66-.62,5.94-1.76,7.78-2.83h-4.84v-12.12h19.99v12.12h-5.35Zm4.26-13.47h-17.7v-6.55h17.7v6.55Zm-16.32,4.82h14.7v-1.6h-14.7v1.6Zm0,3.39h14.7v-1.62h-14.7v1.62Zm0,3.39h14.7v-1.65h-14.7v1.65Zm13.58-16.07h-12.35v2.41h12.35v-2.41Z" style="fill: #80292d;"/>
        <path d="M112.67,49.3c0,.87-.11,1.57-.64,1.96-.5,.39-1.15,.45-2.1,.45-.06-.59-.34-1.6-.64-2.18,.59,.03,1.06,.03,1.23,.03,.2-.03,.25-.08,.25-.31v-9.69h-1.65v18.2h-2.18v-18.2h-1.51v12.46h-1.96v-14.78h3.47v-5.15h2.18v5.15h3.56v12.07Zm14.95-.36c-1.26,.95-2.66,1.96-3.86,2.74,1.37,1.48,3,2.77,4.76,3.53-.56,.5-1.34,1.46-1.71,2.1-3.81-1.93-6.78-5.88-8.48-10.39h-1.46v7.53l4.17-1.32c0,.67,.06,1.62,.17,2.16-5.29,1.82-6.19,2.18-6.69,2.6-.2-.64-.81-1.82-1.23-2.35,.45-.34,1.12-1.06,1.12-2.21v-6.41h-1.2v-2.21h1.82v-11.42h12.35v2.07h-9.83v1.79h8.71v1.88h-8.71v1.85h8.85v1.93h-8.85v1.9h10.56v2.21h-7.45c.48,1.15,1.12,2.24,1.85,3.25,1.15-.87,2.41-1.99,3.19-2.86l1.93,1.62Z" style="fill: #80292d;"/>
        <path d="M151.11,47.34s-.03,.62-.06,.95c-.36,5.29-.7,7.48-1.46,8.26-.45,.53-.95,.73-1.71,.81-.62,.08-1.68,.08-2.83,0-.03-.64-.28-1.57-.64-2.16,1.06,.08,2.04,.11,2.46,.11,.39,0,.64-.06,.87-.28,.42-.45,.76-1.93,1.01-5.66h-5.54c.34-1.23,.76-2.88,1.04-4.45h-2.27v-2.27h10.16v2.27h-5.68c-.17,.81-.34,1.65-.5,2.41h5.15Zm.42-6.61h-8.23v-7.59h8.23v7.59Zm-2.02-5.68h-4.31v3.78h4.31v-3.78Zm14.64,9.86c.48,0,1.4-.03,1.79-.17,.03,.67,.08,1.32,.17,1.9-.42,.17-1.18,.2-1.88,.2h-3.16c-2.02,0-2.46-.95-2.46-2.94v-.42l-2.38,.25-.25-1.82,2.63-.25v-2.1h-3.14v5.01c0,3.89-.39,9.49-2.77,13.19-.36-.42-1.4-1.12-1.9-1.37,2.16-3.44,2.41-8.26,2.41-11.84v-7.06h5.43v-5.46h2.46v1.74h5.49v2.1h-5.49v1.62h4.79l.39-.11,1.57,.39c-.31,1.71-.76,3.72-1.12,5.01l-1.93-.48c.17-.73,.36-1.74,.53-2.74h-4.51v1.88l3.16-.31,.22,1.79-3.39,.34v.7c0,.67,.08,.95,.67,.95h2.66Zm-4.65,3.11c-.2,4.54-.81,7.78-3.89,9.74-.25-.53-.9-1.37-1.4-1.71,2.52-1.57,3-4.28,3.14-8.04h2.16Zm5.54,6.89c.25,0,.53-.03,.64-.14,.11-.08,.25-.28,.31-.53,.06-.45,.11-1.48,.08-2.72,.45,.39,1.23,.84,1.85,1.04-.03,1.32-.14,2.69-.31,3.16-.2,.56-.48,.92-.87,1.15-.36,.2-.98,.34-1.51,.34h-1.51c-.62,0-1.32-.14-1.71-.53-.45-.42-.53-.84-.53-2.24v-6.38h2.16v6.3c0,.17,.03,.34,.17,.42,.11,.08,.28,.14,.53,.14h.7Z" style="fill: #80292d;"/>
      </g>
    </g>
  </g>
</svg>