<?xml version="1.0" encoding="UTF-8"?>
<svg id="b" data-name="圖層 2" xmlns="http://www.w3.org/2000/svg" width="82.04" height="70.91" viewBox="0 0 82.04 70.91">
  <g id="c" data-name="首頁">
    <g>
      <rect x=".38" y="52.98" width="81.65" height=".57" style="fill: #fdf4e5;"/>
      <path d="M47.14,1.26s.05-1.26-1.21-1.26-1.16,1.16-1.16,1.16V3.79s-1.22-1.41-5.15-1.41-9.19,2.42-9.19,8.73,3.68,8.94,6.81,11.31c3.14,2.37,8.44,5.71,10.15,7.78,1.72,2.07,3,5.55,2.57,9.09-.5,4.24-5.15,8.73-12.12,8.73s-13.74-5.5-13.74-11.81,3.64-10.91,8.84-10.91,6.82,4.34,6.82,5.66-.96,2.98-2.37,2.98-.81-1.61-1.47-1.61-1.01,.96-.76,2.17c.25,1.22,1.46,1.67,2.73,1.51,1.26-.15,4.04-1.47,4.24-4.85,.17-2.87-2.93-7.67-9.9-7.67s-11.26,5.56-11.26,11.46,3.44,14.96,17.42,14.9c12.57-.05,16.61-8.84,16.36-14.24-.17-3.68-2.07-9.39-7.47-12.78-5.41-3.38-13.54-6.66-13.54-11.86s3.58-5.76,5.61-5.76,4.44,2.02,5.1,3.64c.65,1.61,.55,2.32,.55,3.38v4.44c0,.51,0,1.57,1.06,1.57s1.06-1.41,1.06-1.82V1.26Z" style="fill: #fdf4e5;"/>
      <g>
        <path d="M27.41,40.18h.11c.06,.28,.16,.49,.3,.62,.14,.13,.3,.2,.48,.2s.3-.05,.37-.14c.08-.09,.11-.18,.11-.29,0-.11-.04-.21-.12-.28-.05-.05-.16-.11-.31-.18l-.24-.12c-.25-.12-.43-.25-.53-.36-.1-.12-.15-.27-.15-.44,0-.19,.07-.36,.2-.52,.13-.16,.34-.24,.62-.24,.14,0,.28,.02,.41,.07,.13,.04,.21,.06,.23,.06,.04,0,.07-.01,.09-.04,.01-.02,.03-.06,.04-.1h.11v.84h-.11c-.05-.19-.14-.36-.27-.5-.13-.14-.29-.21-.47-.21-.13,0-.23,.03-.31,.11-.07,.07-.11,.15-.11,.26,0,.12,.04,.21,.1,.27,.07,.06,.23,.15,.47,.27l.29,.14c.13,.07,.23,.14,.31,.21,.14,.15,.21,.33,.21,.53,0,.19-.07,.37-.23,.55-.15,.17-.4,.26-.73,.26-.08,0-.16,0-.24-.02-.08-.01-.15-.03-.23-.06l-.08-.03s-.03,0-.05,0c-.02,0-.03,0-.05,0-.04,0-.07,.01-.08,.04-.01,.02-.03,.05-.04,.1h-.11v-.95Z" style="fill: #fdf4e5;"/>
        <path d="M29.48,40.98c.1,0,.18-.02,.22-.04,.07-.04,.1-.12,.1-.23v-1.86c0-.11-.03-.18-.09-.22-.04-.02-.12-.04-.23-.05v-.1h1.3v.1c-.12,0-.2,.02-.24,.04-.07,.04-.11,.12-.11,.23v.8h.91v-.8c0-.11-.03-.19-.1-.23-.04-.02-.12-.03-.24-.04v-.1h1.31v.1c-.11,0-.19,.02-.23,.05-.07,.04-.1,.11-.1,.22v1.86c0,.11,.04,.19,.11,.23,.05,.02,.12,.04,.22,.04v.1h-1.31v-.1c.11,0,.19-.02,.23-.05,.07-.04,.11-.11,.11-.23v-.88h-.91v.88c0,.11,.04,.19,.12,.23,.04,.02,.12,.03,.23,.04v.1h-1.3v-.1Z" style="fill: #fdf4e5;"/>
        <path d="M32.46,40.98c.11,0,.18-.02,.23-.04,.08-.04,.12-.12,.12-.23v-1.86c0-.11-.04-.19-.11-.23-.04-.02-.12-.04-.24-.04v-.1h1.34v.1c-.12,0-.21,.02-.24,.04-.08,.04-.11,.11-.11,.23v1.86c0,.1,.03,.18,.09,.21,.07,.04,.15,.06,.27,.06v.1h-1.34v-.1Z" style="fill: #fdf4e5;"/>
        <path d="M35.4,40.17l-.36-.89h-.03l-.35,.89h.74Zm-1.44,.81c.09,0,.16-.05,.22-.12,.03-.05,.09-.16,.16-.32l.85-2.1h.11l.86,2.01c.1,.23,.17,.38,.21,.44,.05,.07,.12,.1,.21,.1v.1h-1.24v-.1c.13,0,.21-.02,.24-.03,.04-.01,.06-.06,.06-.12,0-.03-.01-.07-.03-.14-.01-.04-.03-.08-.05-.13l-.1-.23h-.86c-.05,.16-.09,.25-.11,.3-.03,.1-.05,.17-.05,.21,0,.06,.03,.1,.11,.12,.04,.02,.1,.02,.19,.02v.1h-.78v-.1Z" style="fill: #fdf4e5;"/>
        <path d="M36.72,40.98c.15,0,.24-.03,.28-.08,.04-.05,.06-.13,.06-.22v-1.82c-.12-.13-.19-.21-.22-.23-.03-.02-.07-.04-.11-.04v-.1h.81l1.33,1.62h.02v-1.14c0-.13-.03-.22-.07-.28-.05-.05-.14-.09-.29-.1v-.1h.82v.1c-.12,.02-.2,.04-.24,.08-.04,.03-.06,.11-.06,.23v2.26h-.1l-1.69-2.05h-.03v1.51c0,.12,.02,.2,.05,.25,.05,.08,.16,.12,.32,.13v.1h-.87v-.1Z" style="fill: #fdf4e5;"/>
        <path d="M39.94,38.84c.25-.27,.59-.4,.98-.4,.16,0,.32,.03,.48,.09,.16,.06,.26,.09,.29,.09s.07-.02,.1-.04c.03-.03,.05-.07,.06-.13h.11v.9h-.1c-.1-.2-.19-.35-.28-.46-.18-.21-.38-.31-.61-.31-.25,0-.43,.11-.54,.32-.11,.21-.17,.52-.17,.91,0,.32,.05,.61,.16,.86,.11,.25,.31,.37,.62,.37,.16,0,.27-.03,.33-.1,.03-.04,.05-.09,.05-.17v-.41c0-.12-.04-.19-.11-.22-.04-.02-.14-.04-.28-.04v-.09h1.32v.09c-.14,0-.22,.04-.27,.08-.05,.05-.06,.14-.06,.27v.49c-.09,.05-.22,.1-.41,.16-.19,.05-.4,.07-.64,.07-.42,0-.76-.13-1.02-.4-.24-.25-.36-.56-.36-.95s.12-.7,.37-.96Z" style="fill: #fdf4e5;"/>
        <path d="M42.48,41.08v-.1c.11,0,.19-.02,.23-.05,.07-.04,.1-.11,.1-.23v-1.86c0-.11-.03-.19-.11-.23-.04-.02-.12-.04-.23-.04v-.1h2.21v.78h-.09c-.05-.25-.13-.42-.25-.51-.12-.09-.33-.14-.64-.14-.12,0-.19,.01-.23,.04-.03,.02-.05,.07-.05,.15v.88c.22,0,.37-.04,.44-.11,.08-.09,.14-.23,.18-.45h.09v1.3h-.09c-.03-.22-.09-.37-.17-.46-.09-.09-.23-.14-.45-.14v.93c0,.08,.02,.13,.07,.16,.04,.03,.12,.04,.25,.04,.25,0,.44-.05,.6-.14,.15-.09,.29-.27,.41-.54h.11l-.16,.8h-2.24Z" style="fill: #fdf4e5;"/>
        <path d="M45.04,40.98c.13,0,.21-.03,.27-.07,.05-.04,.07-.14,.07-.27v-1.7c0-.15-.03-.25-.08-.29-.04-.03-.12-.05-.25-.06v-.1h1.24c.25,0,.46,.03,.62,.08,.31,.11,.46,.31,.46,.58,0,.21-.08,.37-.23,.5-.12,.09-.24,.15-.38,.17l.77,1.09s.05,.05,.07,.06c.02,0,.05,.02,.09,.02v.09h-.78l-.8-1.2h-.1v.75c0,.13,.02,.22,.07,.27,.05,.05,.14,.08,.27,.08v.1h-1.3v-.1Zm1.5-1.33c.11-.07,.16-.23,.16-.46,0-.15-.02-.27-.06-.36-.07-.15-.2-.22-.39-.22-.1,0-.17,.01-.2,.04-.03,.02-.05,.07-.05,.12v.98c.25,0,.43-.04,.54-.1Z" style="fill: #fdf4e5;"/>
      </g>
      <g>
        <path d="M55.58,45.41c0,1.59,1.29,2.87,2.87,2.87s2.87-1.29,2.87-2.87-1.29-2.87-2.87-2.87-2.87,1.29-2.87,2.87Zm.4,0c0-1.36,1.11-2.47,2.47-2.47s2.47,1.11,2.47,2.47-1.11,2.47-2.47,2.47-2.47-1.1-2.47-2.47Z" style="fill: #fdf4e5;"/>
        <path d="M58.73,45.33c.2,0,.36-.04,.48-.12,.12-.08,.18-.22,.18-.44,0-.23-.08-.38-.25-.47-.09-.04-.21-.06-.35-.06h-1.06v1.09h1Zm-1.43-1.46h1.47c.24,0,.44,.04,.6,.11,.3,.14,.45,.39,.45,.75,0,.19-.04,.34-.12,.47-.08,.12-.19,.21-.33,.29,.13,.05,.23,.12,.28,.2,.07,.08,.1,.22,.11,.4v.43c.02,.13,.03,.21,.05,.27,.02,.1,.07,.17,.14,.19v.08h-.53s-.03-.07-.04-.11c-.01-.04-.02-.13-.02-.26l-.03-.53c0-.21-.08-.35-.23-.42-.08-.04-.21-.06-.39-.06h-.98v1.37h-.43v-3.19Z" style="fill: #fdf4e5;"/>
      </g>
      <g>
        <rect x="16.69" y="62.6" width="3.17" height="3.17" transform="translate(-40.03 31.7) rotate(-44.98)" style="fill: #fdf4e5;"/>
        <rect x="39.59" y="62.6" width="3.18" height="3.18" transform="translate(-33.33 47.93) rotate(-45.01)" style="fill: #fdf4e5;"/>
        <rect x="62.41" y="62.6" width="3.17" height="3.17" transform="translate(-26.65 64.14) rotate(-45.06)" style="fill: #fdf4e5;"/>
        <path d="M7.81,60.58c1.66,1.35,3.75,2.41,6.28,3.19,.14,.04,.27,.04,.39-.03,.11-.05,.18-.13,.22-.28,.05-.12,.04-.23-.02-.34-.06-.11-.17-.19-.32-.25-2.35-.69-4.29-1.65-5.83-2.9h5.26c.13,0,.25-.05,.33-.14,.07-.1,.12-.21,.13-.33,0-.14-.04-.25-.13-.35-.07-.08-.18-.11-.33-.11H7.81v-1.49c2.46-.22,3.91-.37,4.37-.47,.45-.09,.71-.19,.76-.28,.05-.11,.06-.23,.03-.38-.03-.12-.08-.21-.18-.28-.1-.07-.22-.08-.36-.05-1.1,.23-2.74,.41-4.93,.54-2.17,.13-4.08,.21-5.73,.21-.14,0-.24,.04-.33,.12-.1,.09-.14,.2-.14,.33,0,.14,.04,.24,.1,.33,.14,.17,1.96,.17,5.49,0v1.43H.76c-.13,0-.25,.04-.34,.12-.07,.09-.11,.21-.13,.33,0,.13,.04,.25,.13,.34,.07,.07,.19,.12,.34,.13H6.23c-1.66,1.36-3.61,2.36-5.84,3.02-.14,.03-.24,.1-.31,.22-.08,.09-.09,.21-.06,.34,.05,.12,.11,.22,.2,.3,.4,.22,1.62-.21,3.65-1.27,.91-.47,1.92-1.13,3.03-2.01v2.37c0,.16,.04,.29,.13,.38,.09,.08,.2,.11,.32,.13,.14-.01,.25-.06,.33-.14,.09-.09,.14-.22,.14-.36v-2.38Zm4.26,9.93c.33,0,.6-.12,.83-.33,.19-.2,.3-.47,.3-.81v-4.43c0-.36-.11-.65-.28-.89-.2-.23-.48-.35-.85-.35H3.11c-.39,0-.69,.12-.92,.33-.2,.22-.31,.52-.31,.91v4.43c-.02,.32,.09,.59,.31,.81,.2,.2,.51,.3,.92,.33H12.07Zm.2-2.95v1.33c0,.2-.06,.36-.17,.49-.12,.13-.3,.2-.51,.2H3.38c-.19,0-.33-.05-.44-.16-.1-.13-.15-.3-.14-.53v-1.33H12.27Zm-9.47-.92v-1.42c-.01-.17,.04-.3,.13-.42,.1-.1,.25-.16,.45-.17H11.58c.23,0,.41,.04,.53,.16,.09,.09,.15,.24,.15,.43v1.42H2.8Z" style="fill: #fdf4e5;"/>
        <path d="M29.99,58.61c.69,1.26,1.38,2.29,2.08,3.08-1.19,.85-2.52,1.52-3.98,2-.15,0-.27,.1-.34,.29-.05,.1-.05,.22,0,.36,.04,.12,.12,.21,.24,.26,.31,.12,1.42-.32,3.34-1.35,.42-.25,.82-.52,1.22-.79,.06-.04,.13-.09,.19-.14,.54,.47,1.17,.91,1.89,1.3,.83,.45,1.48,.74,1.96,.87,.14,.04,.27,.04,.39,0,.11-.04,.18-.13,.23-.26,.05-.13,.04-.25,0-.36-.06-.1-.17-.19-.31-.24-1.22-.33-2.37-.95-3.43-1.88,1.29-1.19,2.17-2.55,2.65-4.07,0-.03,0-.05,.01-.05,.08-.26,.03-.51-.12-.75-.18-.25-.45-.35-.8-.28h-4.34c-.42,.04-.72,.15-.89,.33-.19,.19-.33,.41-.4,.66-.32,.79-.89,1.43-1.72,1.9-.01,0-.02,0-.03,.02,0-.14-.04-.25-.12-.35-.07-.08-.19-.11-.33-.11h-1.6v-2.62c0-.14-.05-.25-.15-.35-.09-.07-.2-.11-.32-.12-.14,0-.25,.04-.35,.12-.07,.07-.11,.19-.11,.35v2.62h-1.93c-.13,0-.24,.04-.35,.12-.07,.09-.11,.21-.12,.33,0,.13,.04,.25,.12,.34,.08,.07,.19,.12,.35,.13h1.75c-.5,1.76-1.26,3.4-2.3,4.97-.07,.13-.1,.26-.09,.4,.04,.1,.11,.2,.22,.28,.11,.07,.22,.09,.34,.06,.35-.09,1.01-1.32,2.01-3.68v8.41c0,.16,.04,.28,.13,.37,.09,.07,.2,.11,.33,.12,.14-.01,.24-.06,.32-.14,.1-.09,.15-.21,.15-.36v-8.69c.49,.69,.91,1.32,1.24,1.86,.11,.16,.2,.25,.3,.27,.11,.04,.23,.02,.34-.08,.13-.07,.2-.17,.21-.3,.03-.12,0-.22-.08-.32-.54-.76-1.21-1.68-2.01-2.74v-.42h1.6c.07,0,.15-.02,.23-.06,0,.07,.04,.15,.08,.23,.07,.11,.17,.18,.3,.21,.32,.03,.85-.35,1.57-1.11,.17-.22,.33-.44,.47-.64Zm1.68,1.11c-.45-.73-.82-1.41-1.11-2.04,.1-.09,.24-.14,.42-.14h3.66c.25,0,.4,.06,.45,.19,.04,.1,0,.25-.09,.42-.52,1.1-1.26,2.09-2.24,2.98-.38-.39-.74-.86-1.1-1.42Zm3.72,10.92c.32,0,.6-.11,.84-.33,.19-.2,.29-.47,.29-.81v-3.74c0-.35-.1-.65-.27-.89-.2-.23-.49-.35-.85-.35h-5.44c-.39,0-.7,.11-.93,.33-.19,.22-.3,.52-.31,.91v3.74c-.01,.32,.09,.59,.31,.81,.2,.2,.51,.31,.93,.33h5.44Zm-.48-5.2c.23-.02,.41,.04,.54,.16,.09,.09,.14,.24,.15,.44v2.99c0,.2-.06,.36-.17,.48-.13,.13-.3,.21-.52,.21h-4.69c-.19,0-.34-.05-.44-.16-.1-.13-.15-.3-.14-.53v-2.99c-.01-.17,.04-.31,.12-.43,.11-.1,.26-.15,.46-.17h4.69Z" style="fill: #fdf4e5;"/>
        <path d="M45.72,56.74c-.13,0-.24,.04-.35,.13-.07,.09-.11,.2-.12,.33,0,.13,.04,.25,.12,.34,.08,.07,.19,.12,.35,.13h3.83c.14,0,.25-.05,.33-.15,.07-.09,.12-.2,.12-.32,0-.14-.04-.26-.12-.34-.08-.08-.19-.11-.33-.12h-3.83Zm1.5,3.56v10.12c0,.16,.04,.28,.12,.37,.1,.07,.2,.11,.33,.12,.13-.01,.25-.06,.33-.14,.09-.09,.14-.21,.14-.36v-10.12h1.66c.13,0,.24-.05,.33-.14,.07-.09,.11-.2,.12-.33,0-.14-.04-.25-.12-.34-.08-.07-.18-.11-.33-.11h-4.5c-.14,0-.25,.04-.35,.13-.07,.09-.11,.21-.12,.33,0,.14,.04,.25,.12,.35,.08,.07,.19,.11,.35,.13h1.93Zm-1.68,1.69c0,1.85-.2,3.8-.6,5.86,0,.15,.02,.29,.08,.39,.07,.1,.17,.16,.28,.19,.13,.02,.25-.01,.34-.08,.29-.21,.55-2.3,.8-6.25-.01-.05-.01-.08,0-.12,0-.15-.03-.27-.13-.35-.09-.08-.21-.12-.34-.13-.14,0-.24,.04-.32,.14-.07,.09-.11,.22-.12,.36Zm4.08-.08c0-.16-.06-.28-.17-.38-.09-.06-.22-.09-.36-.08-.12,0-.23,.07-.32,.17-.06,.09-.09,.22-.08,.36l.5,5.14c0,.16,.07,.28,.17,.37,.1,.06,.2,.09,.33,.08,.14,0,.24-.06,.31-.15,.08-.1,.11-.23,.12-.38l-.51-5.14Zm6.84-4.79v-.68c0-.14-.05-.25-.14-.35-.09-.07-.2-.11-.33-.12-.13,0-.24,.04-.34,.12-.08,.07-.11,.19-.11,.35v.68h-1.46v-.68c0-.14-.05-.25-.14-.35-.09-.07-.2-.11-.32-.12-.14,0-.26,.04-.34,.12-.08,.07-.12,.19-.12,.35v.68h-1.45c-.33,0-.59,.11-.8,.33-.22,.2-.33,.46-.31,.8v2.87c-.01,.29,.07,.55,.25,.78,.17,.22,.45,.33,.86,.35h6.32c.33,0,.6-.11,.82-.33,.2-.22,.3-.49,.31-.8v-2.87c0-.33-.11-.6-.31-.81-.2-.22-.47-.32-.82-.31h-1.57Zm-.92,4.2h-1.46v-1.15h1.46v1.15Zm.92-1.15h1.77v.55c0,.19-.06,.33-.15,.43-.11,.1-.25,.15-.43,.16h-1.19v-1.15Zm-.92-.92h-1.46v-1.21h1.46v1.21Zm.92-1.21h1.19c.2,0,.35,.04,.44,.14,.09,.11,.13,.22,.13,.36v.7h-1.77v-1.21Zm-3.3,3.27h-1.14c-.18,0-.31-.05-.37-.14-.08-.11-.12-.26-.12-.45v-.55h1.63v1.15Zm0-2.07h-1.63v-.7c0-.16,.04-.27,.12-.36,.07-.1,.2-.14,.37-.14h1.14v1.21Zm-2.61,3.76c-.14,0-.25,.05-.35,.13-.07,.09-.11,.2-.13,.33,0,.14,.04,.25,.13,.35,.07,.07,.19,.11,.35,.12h8.58c.13,0,.24-.05,.33-.14,.07-.1,.12-.2,.13-.33,0-.14-.04-.25-.13-.34-.07-.08-.18-.12-.33-.12h-8.58Zm2.19,6.46h-2.26c-.13,0-.25,.04-.34,.12-.07,.09-.11,.2-.13,.33,0,.13,.04,.25,.13,.35,.07,.06,.19,.11,.34,.12h8.71c.14,0,.25-.05,.33-.14,.08-.09,.12-.2,.13-.33,0-.14-.05-.25-.13-.35-.07-.08-.18-.11-.33-.11h-2.13c.04-.1,.17-.59,.41-1.46h.41c.25,0,.45-.09,.6-.24,.16-.19,.25-.39,.25-.6v-1.63c0-.23-.07-.43-.22-.61-.16-.19-.38-.29-.62-.29h-5.91c-.26,0-.47,.09-.64,.29-.15,.16-.23,.37-.23,.61v1.63c0,.23,.07,.43,.23,.61,.16,.14,.37,.22,.64,.23h.36c.15,.57,.29,1.05,.4,1.46Zm.94,0c-.19-.73-.32-1.22-.4-1.46h3.27c-.13,.53-.28,1.02-.44,1.46h-2.42Zm3.74-3.9c.14,0,.23,.04,.29,.13,.05,.09,.07,.2,.08,.33v.69c-.01,.11-.04,.19-.1,.27-.04,.08-.13,.11-.27,.11h-4.95c-.14,0-.25-.03-.33-.09-.07-.04-.11-.13-.13-.28v-.69c0-.14,.04-.25,.12-.35,.07-.07,.18-.11,.34-.11h4.95Z" style="fill: #fdf4e5;"/>
        <path d="M69.35,66.75c-.57,.29-1.13,.55-1.7,.8-.14,.04-.22,.12-.25,.25-.05,.1-.04,.23,.02,.36,.06,.11,.15,.18,.27,.25,.28,.12,1.26-.32,2.93-1.33,1.06-.64,1.62-1.08,1.66-1.32,0-.13-.04-.24-.13-.35-.07-.1-.17-.16-.3-.18-.13-.01-.24,.03-.35,.12-.29,.23-.7,.52-1.24,.86v-5.41h1.42c.14,0,.24-.05,.32-.15,.07-.09,.12-.2,.13-.33,0-.14-.05-.25-.13-.35-.07-.07-.18-.1-.32-.11h-1.42v-3.18c0-.14-.04-.25-.14-.35-.09-.07-.21-.12-.33-.12-.13,0-.25,.04-.34,.12-.08,.07-.11,.19-.11,.35v3.18h-1.49c-.14,0-.25,.04-.35,.12-.07,.1-.12,.21-.13,.33,0,.14,.04,.25,.13,.35,.08,.07,.19,.12,.35,.13h1.49v5.95Zm6.18-4.51h4.1c.23,0,.42,.08,.58,.26,.1,.13,.15,.88,.13,2.22-.06,2.1-.13,3.37-.22,3.8-.09,.34-.21,.59-.4,.74-.56,.47-1.82,.44-3.78-.11-.31-.07-.52,.04-.61,.3-.04,.12-.03,.25,.03,.37,.04,.09,.15,.17,.31,.22,.82,.28,1.66,.44,2.54,.47,.82,0,1.47-.13,1.96-.41,.34-.2,.59-.51,.72-.93,.13-.45,.23-1.04,.28-1.78,.05-1.05,.09-2.53,.14-4.46,0-.64-.16-1.09-.48-1.36-.2-.17-.46-.25-.77-.25h-4.48c0-.11,0-.2,.02-.3v-2.1h5.97c.14,0,.25-.04,.33-.14,.07-.09,.11-.2,.12-.32,0-.14-.04-.25-.12-.35-.08-.07-.18-.11-.33-.11h-4.35v-1.67c0-.14-.05-.26-.14-.35-.09-.07-.2-.12-.33-.12-.14,0-.25,.04-.34,.12-.07,.07-.12,.19-.12,.35v1.67h-3.86c-.13,0-.25,.05-.35,.13-.06,.09-.11,.2-.12,.33,0,.13,.04,.25,.12,.34,.08,.07,.2,.12,.35,.12h2.24v2.1c0,3.79-1.26,6.61-3.77,8.46-.41,.12-.52,.38-.33,.77,0,0,0,0,.02,.02,.1,.12,.2,.2,.31,.21,.19,.03,.58-.18,1.18-.63,2.1-2,3.25-4.54,3.46-7.6Z" style="fill: #fdf4e5;"/>
      </g>
    </g>
  </g>
</svg>