<?xml version="1.0" encoding="UTF-8"?>
<svg id="b" data-name="圖層 2" xmlns="http://www.w3.org/2000/svg" width="52" height="44.95" viewBox="0 0 52 44.95">
  <g id="c" data-name="頁面">
    <g>
      <rect x=".24" y="33.58" width="51.76" height=".36" style="fill: #7c282c;"/>
      <path d="M29.88,.8s.03-.8-.77-.8-.74,.74-.74,.74v1.66s-.77-.9-3.26-.9-5.82,1.54-5.82,5.54,2.33,5.67,4.32,7.17c1.99,1.5,5.35,3.62,6.44,4.93,1.09,1.31,1.9,3.52,1.63,5.76-.32,2.69-3.26,5.54-7.68,5.54s-8.71-3.49-8.71-7.49,2.31-6.91,5.6-6.91,4.32,2.75,4.32,3.59-.61,1.89-1.5,1.89-.52-1.02-.93-1.02-.64,.61-.48,1.38c.16,.77,.93,1.06,1.73,.96,.8-.1,2.56-.93,2.69-3.07,.11-1.82-1.85-4.86-6.27-4.86s-7.14,3.52-7.14,7.26,2.18,9.48,11.04,9.44c7.97-.03,10.53-5.6,10.37-9.03-.11-2.33-1.31-5.95-4.73-8.1-3.43-2.14-8.58-4.22-8.58-7.52s2.27-3.65,3.55-3.65,2.82,1.28,3.23,2.3c.41,1.02,.35,1.47,.35,2.14v2.82c0,.32,0,.99,.67,.99s.67-.9,.67-1.15V.8Z" style="fill: #7c282c;"/>
      <g>
        <path d="M17.37,25.47h.07c.04,.18,.1,.31,.19,.39,.09,.08,.19,.13,.3,.13s.19-.03,.24-.09c.05-.06,.07-.12,.07-.18,0-.07-.02-.13-.07-.18-.03-.03-.1-.07-.2-.12l-.16-.08c-.16-.08-.27-.16-.33-.23-.07-.08-.1-.17-.1-.28,0-.12,.04-.23,.13-.33,.09-.1,.22-.16,.39-.16,.09,0,.18,.01,.26,.04,.08,.03,.13,.04,.14,.04,.02,0,.05,0,.05-.02,0-.02,.02-.04,.03-.06h.07v.53h-.07c-.03-.12-.09-.23-.17-.32-.08-.09-.18-.13-.3-.13-.08,0-.15,.02-.2,.07-.05,.04-.07,.1-.07,.16,0,.08,.02,.13,.07,.17,.05,.04,.14,.09,.3,.17l.18,.09c.08,.04,.15,.09,.2,.13,.09,.09,.14,.21,.14,.34,0,.12-.05,.24-.15,.35-.1,.11-.25,.16-.47,.16-.05,0-.1,0-.15-.01-.05,0-.1-.02-.15-.04l-.05-.02s-.02,0-.03,0c-.01,0-.02,0-.03,0-.02,0-.04,0-.05,.02,0,.02-.02,.03-.02,.06h-.07v-.6Z" style="fill: #7c282c;"/>
        <path d="M18.69,25.97c.07,0,.11-.01,.14-.03,.04-.03,.07-.07,.07-.14v-1.18c0-.07-.02-.12-.06-.14-.02-.01-.07-.03-.15-.03v-.06h.83v.06c-.07,0-.12,.01-.15,.03-.05,.03-.07,.07-.07,.14v.5h.58v-.5c0-.07-.02-.12-.07-.14-.03-.01-.08-.02-.15-.03v-.06h.83v.06c-.07,0-.12,.01-.15,.03-.04,.03-.07,.07-.07,.14v1.18c0,.07,.02,.12,.07,.14,.03,.02,.07,.03,.14,.03v.06h-.83v-.06c.07,0,.12-.01,.15-.03,.05-.03,.07-.07,.07-.14v-.56h-.58v.56c0,.07,.02,.12,.07,.15,.03,.01,.07,.02,.15,.02v.06h-.83v-.06Z" style="fill: #7c282c;"/>
        <path d="M20.57,25.97c.07,0,.12-.01,.15-.02,.05-.03,.08-.08,.08-.15v-1.18c0-.07-.02-.12-.07-.14-.03-.02-.08-.03-.15-.03v-.06h.85v.06c-.08,0-.13,.01-.15,.03-.05,.02-.07,.07-.07,.14v1.18c0,.07,.02,.11,.05,.13,.04,.03,.1,.04,.17,.04v.06h-.85v-.06Z" style="fill: #7c282c;"/>
        <path d="M22.44,25.46l-.23-.56h-.02l-.22,.56h.47Zm-.91,.51c.06,0,.1-.03,.14-.08,.02-.03,.06-.1,.1-.2l.54-1.33h.07l.54,1.28c.06,.15,.11,.24,.14,.28,.03,.04,.07,.06,.13,.06v.06h-.79v-.06c.08,0,.13-.01,.15-.02,.02,0,.04-.04,.04-.08,0-.02,0-.05-.02-.09,0-.02-.02-.05-.03-.08l-.06-.15h-.55c-.03,.1-.06,.16-.07,.19-.02,.06-.03,.11-.03,.13,0,.04,.02,.06,.07,.08,.03,.01,.07,.01,.12,.02v.06h-.49v-.06Z" style="fill: #7c282c;"/>
        <path d="M23.28,25.97c.09,0,.15-.02,.18-.05,.02-.03,.04-.08,.04-.14v-1.15c-.07-.08-.12-.13-.14-.15-.02-.01-.04-.03-.07-.03v-.06h.51l.84,1.03h.01v-.72c0-.08-.02-.14-.05-.18-.03-.03-.09-.06-.18-.06v-.06h.52v.06c-.07,.01-.13,.03-.15,.05-.03,.02-.04,.07-.04,.14v1.43h-.06l-1.07-1.3h-.02v.96c0,.08,0,.13,.03,.16,.03,.05,.1,.08,.2,.08v.06h-.55v-.06Z" style="fill: #7c282c;"/>
        <path d="M25.32,24.62c.16-.17,.37-.26,.62-.26,.1,0,.2,.02,.3,.06,.1,.04,.16,.06,.19,.06s.05,0,.06-.03c.02-.02,.03-.05,.04-.08h.07v.57h-.06c-.06-.12-.12-.22-.18-.29-.12-.13-.24-.2-.39-.2-.16,0-.27,.07-.34,.2-.07,.13-.11,.33-.11,.57,0,.2,.03,.38,.1,.54,.07,.16,.2,.24,.39,.24,.1,0,.17-.02,.21-.07,.02-.02,.03-.06,.03-.11v-.26c0-.07-.02-.12-.07-.14-.03-.02-.09-.02-.18-.03v-.06h.83v.06c-.09,0-.14,.02-.17,.05-.03,.03-.04,.09-.04,.17v.31c-.06,.03-.14,.06-.26,.1-.12,.03-.26,.05-.4,.05-.27,0-.48-.08-.65-.25-.15-.16-.23-.36-.23-.6s.08-.45,.23-.61Z" style="fill: #7c282c;"/>
        <path d="M26.93,26.04v-.06c.07,0,.12-.01,.15-.03,.05-.03,.07-.07,.07-.14v-1.18c0-.07-.02-.12-.07-.14-.03-.01-.08-.03-.14-.03v-.06h1.4v.49h-.06c-.03-.16-.08-.26-.16-.32-.07-.06-.21-.09-.4-.09-.07,0-.12,0-.14,.02-.02,.01-.03,.05-.03,.09v.56c.14,0,.23-.02,.28-.07,.05-.05,.09-.15,.11-.29h.06v.82h-.06c-.02-.14-.05-.24-.11-.29-.05-.06-.15-.09-.29-.09v.59s.01,.08,.04,.1c.02,.02,.08,.03,.16,.03,.16,0,.28-.03,.38-.09,.1-.06,.19-.17,.26-.34h.07l-.1,.51h-1.42Z" style="fill: #7c282c;"/>
        <path d="M28.55,25.97c.08,0,.14-.02,.17-.05,.03-.03,.04-.09,.04-.17v-1.08c0-.09-.02-.16-.05-.18-.02-.02-.08-.03-.16-.04v-.06h.78c.16,0,.29,.02,.39,.05,.19,.07,.29,.19,.29,.37,0,.13-.05,.24-.14,.31-.08,.05-.16,.09-.24,.11l.49,.69s.03,.03,.04,.04c.01,0,.03,0,.06,.01v.06h-.5l-.51-.76h-.06v.48c0,.08,.02,.14,.04,.17,.03,.03,.09,.05,.17,.05v.06h-.82v-.06Zm.95-.84c.07-.04,.1-.14,.1-.29,0-.09-.01-.17-.04-.23-.05-.09-.13-.14-.25-.14-.06,0-.11,0-.13,.03-.02,.02-.03,.04-.03,.08v.62c.16,0,.27-.02,.34-.07Z" style="fill: #7c282c;"/>
      </g>
      <g>
        <path d="M35.23,28.78c0,1.01,.82,1.82,1.82,1.82s1.82-.82,1.82-1.82-.82-1.82-1.82-1.82-1.82,.82-1.82,1.82Zm.26,0c0-.86,.7-1.56,1.56-1.56s1.57,.7,1.57,1.56-.7,1.56-1.57,1.56-1.56-.7-1.56-1.56Z" style="fill: #7c282c;"/>
        <path d="M37.23,28.73c.13,0,.23-.03,.3-.08,.08-.05,.11-.14,.11-.28,0-.14-.05-.24-.16-.29-.06-.03-.13-.04-.22-.04h-.67v.69h.63Zm-.91-.93h.93c.15,0,.28,.02,.38,.07,.19,.09,.29,.25,.29,.48,0,.12-.02,.22-.07,.3-.05,.08-.12,.13-.21,.19,.08,.03,.14,.07,.18,.13,.04,.05,.07,.14,.07,.25v.27c.01,.08,.02,.13,.03,.17,.01,.07,.05,.11,.09,.12v.05h-.33s-.02-.04-.02-.07c0-.03-.01-.08-.01-.16l-.02-.34c0-.13-.05-.22-.15-.27-.05-.03-.13-.04-.25-.04h-.62v.87h-.27v-2.02Z" style="fill: #7c282c;"/>
      </g>
      <g>
        <rect x="10.58" y="39.68" width="2.01" height="2.01" transform="translate(-25.37 20.09) rotate(-44.98)" style="fill: #7c282c;"/>
        <rect x="25.09" y="39.68" width="2.01" height="2.01" transform="translate(-21.13 30.38) rotate(-45.01)" style="fill: #7c282c;"/>
        <rect x="39.56" y="39.68" width="2.01" height="2.01" transform="translate(-16.89 40.66) rotate(-45.06)" style="fill: #7c282c;"/>
        <path d="M4.95,38.4c1.05,.85,2.38,1.53,3.98,2.02,.09,.03,.17,.02,.25-.02,.07-.03,.12-.08,.14-.17,.03-.08,.03-.15-.01-.21-.04-.07-.11-.12-.2-.16-1.49-.43-2.72-1.05-3.69-1.84h3.34c.08,0,.16-.03,.21-.09,.04-.06,.08-.13,.08-.21,0-.09-.03-.16-.08-.22-.04-.05-.11-.07-.21-.07h-3.79v-.94c1.56-.14,2.48-.24,2.77-.3,.28-.06,.45-.12,.48-.18,.03-.07,.04-.15,.02-.24-.02-.08-.05-.14-.11-.18-.06-.04-.14-.05-.23-.03-.7,.15-1.74,.26-3.13,.34-1.38,.08-2.59,.13-3.63,.13-.09,0-.15,.03-.21,.08-.06,.06-.09,.13-.09,.21,0,.09,.02,.16,.07,.21,.09,.11,1.25,.11,3.48,0v.9H.48c-.08,0-.16,.03-.22,.08-.04,.06-.07,.13-.08,.21,0,.08,.03,.16,.08,.22,.05,.05,.12,.08,.22,.08H3.95c-1.05,.86-2.29,1.5-3.7,1.91-.09,.02-.15,.07-.2,.14-.05,.06-.06,.13-.04,.22,.03,.08,.07,.14,.13,.19,.25,.14,1.03-.13,2.31-.81,.58-.3,1.21-.72,1.92-1.27v1.5c0,.1,.02,.18,.08,.24,.06,.05,.12,.07,.2,.08,.09,0,.16-.04,.21-.09,.06-.06,.09-.14,.09-.23v-1.51Zm2.7,6.29c.21,0,.38-.07,.53-.21,.12-.13,.19-.3,.19-.52v-2.81c0-.23-.07-.41-.18-.57-.13-.14-.3-.22-.54-.22H1.97c-.25,0-.44,.07-.58,.21-.13,.14-.2,.33-.2,.57v2.81c0,.2,.06,.38,.2,.52,.12,.13,.32,.19,.58,.21H7.65Zm.13-1.87v.85c0,.13-.04,.23-.11,.31-.08,.08-.19,.13-.33,.13H2.14c-.12,0-.21-.03-.28-.1-.07-.08-.1-.19-.09-.34v-.85H7.78Zm-6-.59v-.9c0-.11,.02-.19,.08-.27,.06-.07,.16-.1,.29-.11H7.34c.15,0,.26,.03,.34,.1,.06,.06,.09,.15,.1,.27v.9H1.77Z" style="fill: #7c282c;"/>
        <path d="M19.01,37.15c.44,.8,.88,1.45,1.32,1.95-.75,.54-1.6,.96-2.52,1.27-.09,0-.17,.06-.22,.18-.03,.06-.03,.14,0,.23,.03,.08,.08,.13,.15,.17,.2,.08,.9-.2,2.11-.85,.27-.16,.52-.33,.77-.5,.04-.03,.08-.05,.12-.09,.34,.3,.74,.58,1.2,.82,.53,.28,.94,.47,1.24,.55,.09,.03,.17,.03,.25,0,.07-.02,.12-.08,.15-.17,.03-.08,.03-.16,0-.23-.04-.07-.11-.12-.2-.15-.77-.21-1.5-.6-2.18-1.19,.82-.75,1.38-1.61,1.68-2.58,0-.02,0-.03,0-.03,.05-.17,.02-.32-.08-.48-.12-.16-.29-.22-.5-.18h-2.75c-.26,.03-.45,.1-.57,.21-.12,.12-.21,.26-.26,.42-.2,.5-.56,.9-1.09,1.2,0,0-.01,0-.02,.01,0-.09-.03-.16-.08-.22-.05-.05-.12-.07-.21-.07h-1.01v-1.66c0-.09-.03-.16-.09-.22-.05-.05-.12-.07-.2-.08-.09,0-.16,.03-.22,.08-.05,.05-.07,.12-.07,.22v1.66h-1.22c-.08,0-.15,.03-.22,.08-.04,.06-.07,.13-.08,.21,0,.08,.03,.16,.08,.22,.05,.05,.12,.08,.22,.08h1.11c-.32,1.11-.8,2.16-1.46,3.15-.04,.08-.07,.17-.06,.25,.03,.06,.07,.12,.14,.18,.07,.05,.14,.06,.22,.04,.22-.06,.64-.84,1.27-2.33v5.33c0,.1,.02,.18,.08,.24,.06,.04,.13,.07,.21,.08,.09,0,.15-.04,.2-.09,.06-.06,.09-.13,.09-.23v-5.51c.31,.44,.58,.84,.79,1.18,.07,.1,.13,.16,.19,.17,.07,.03,.14,.01,.22-.05,.08-.05,.13-.11,.13-.19,.02-.08,0-.14-.05-.2-.34-.48-.77-1.06-1.27-1.74v-.27h1.01s.09-.01,.15-.04c0,.05,.02,.09,.05,.15,.05,.07,.11,.11,.19,.13,.2,.02,.54-.22,.99-.71,.11-.14,.21-.28,.3-.41Zm1.06,.7c-.28-.46-.52-.89-.7-1.29,.07-.05,.16-.09,.27-.09h2.32c.16,0,.25,.04,.29,.12,.03,.06,0,.16-.06,.27-.33,.7-.8,1.32-1.42,1.89-.24-.25-.47-.54-.7-.9Zm2.36,6.92c.21,0,.38-.07,.53-.21,.12-.13,.18-.3,.18-.52v-2.37c0-.22-.07-.41-.17-.56-.13-.15-.31-.22-.54-.22h-3.45c-.25,0-.44,.07-.59,.21-.12,.14-.19,.33-.2,.57v2.37c0,.21,.06,.38,.2,.52,.12,.13,.32,.2,.59,.21h3.45Zm-.31-3.3c.15-.01,.26,.02,.34,.1,.06,.06,.09,.15,.1,.28v1.9c0,.12-.04,.23-.11,.31-.08,.08-.19,.13-.33,.13h-2.97c-.12,0-.22-.03-.28-.1-.07-.08-.09-.19-.09-.34v-1.9c0-.11,.02-.2,.08-.27,.07-.06,.16-.1,.29-.11h2.97Z" style="fill: #7c282c;"/>
        <path d="M28.98,35.97c-.08,0-.16,.03-.22,.08-.04,.06-.07,.13-.08,.21,0,.08,.03,.16,.08,.22,.05,.05,.12,.07,.22,.08h2.43c.09,0,.16-.03,.21-.09,.05-.06,.07-.13,.08-.21,0-.09-.03-.16-.08-.22-.05-.05-.12-.07-.21-.07h-2.43Zm.95,2.25v6.41c0,.1,.02,.18,.08,.24,.06,.04,.13,.07,.21,.08,.08,0,.16-.04,.21-.09,.06-.06,.09-.13,.09-.23v-6.41h1.05c.08,0,.16-.03,.21-.09,.04-.06,.07-.12,.08-.21,0-.09-.03-.16-.08-.22-.05-.05-.12-.07-.21-.07h-2.85c-.09,0-.16,.03-.22,.08-.04,.06-.07,.13-.08,.21,0,.09,.03,.16,.08,.22,.05,.05,.12,.07,.22,.08h1.22Zm-1.06,1.07c0,1.17-.13,2.41-.38,3.71,0,.1,0,.18,.05,.25,.05,.06,.11,.1,.18,.12,.09,.01,.16,0,.22-.05,.18-.14,.35-1.46,.51-3.96,0-.03,0-.05,0-.07,0-.1-.02-.17-.08-.22-.06-.05-.13-.08-.22-.08-.09,0-.15,.03-.2,.09-.04,.06-.07,.14-.08,.23Zm2.59-.05c0-.1-.04-.18-.11-.24-.06-.04-.14-.06-.23-.05-.08,0-.14,.04-.2,.11-.04,.06-.05,.14-.05,.23l.32,3.26c0,.1,.04,.18,.11,.24,.06,.04,.13,.06,.21,.05,.09,0,.15-.04,.2-.1,.05-.07,.07-.15,.07-.24l-.32-3.26Zm4.34-3.04v-.43c0-.09-.03-.16-.09-.22-.06-.05-.13-.07-.21-.08-.08,0-.15,.03-.21,.08-.05,.05-.07,.12-.07,.22v.43h-.92v-.43c0-.09-.03-.16-.09-.22-.06-.05-.13-.07-.2-.08-.09,0-.16,.03-.22,.08-.05,.05-.07,.12-.07,.22v.43h-.92c-.21,0-.37,.07-.5,.21-.14,.13-.21,.29-.2,.5v1.82c0,.18,.05,.35,.16,.5,.11,.14,.29,.21,.55,.22h4.01c.21,0,.38-.07,.52-.21,.12-.14,.19-.31,.19-.5v-1.82c0-.21-.07-.38-.19-.51-.13-.14-.3-.21-.52-.2h-.99Zm-.58,2.66h-.92v-.73h.92v.73Zm.58-.73h1.12v.35c0,.12-.04,.21-.09,.27-.07,.06-.16,.1-.27,.1h-.76v-.73Zm-.58-.58h-.92v-.76h.92v.76Zm.58-.76h.76c.13,0,.22,.03,.28,.09,.06,.07,.08,.14,.08,.23v.45h-1.12v-.76Zm-2.09,2.08h-.72c-.12,0-.2-.03-.24-.09-.05-.07-.07-.16-.07-.29v-.35h1.04v.73Zm0-1.31h-1.04v-.45c0-.1,.02-.17,.07-.23,.05-.06,.12-.09,.24-.09h.72v.76Zm-1.65,2.38c-.09,0-.16,.03-.22,.08-.05,.06-.07,.13-.08,.21,0,.09,.02,.16,.08,.22,.05,.04,.12,.07,.22,.08h5.44c.08,0,.16-.03,.21-.09,.05-.06,.08-.13,.08-.21,0-.09-.02-.16-.08-.22-.05-.05-.11-.07-.21-.07h-5.44Zm1.39,4.09h-1.43c-.08,0-.16,.02-.21,.08-.05,.06-.07,.13-.08,.21,0,.08,.03,.16,.08,.22,.04,.04,.12,.07,.21,.08h5.52c.09,0,.16-.03,.21-.09,.05-.06,.08-.13,.08-.21,0-.09-.03-.16-.08-.22-.04-.05-.11-.07-.21-.07h-1.35c.02-.07,.11-.37,.26-.93h.26c.16,0,.28-.06,.38-.16,.1-.12,.16-.25,.16-.38v-1.03c0-.15-.05-.27-.14-.38-.1-.12-.24-.18-.4-.18h-3.74c-.16,0-.3,.06-.41,.18-.1,.1-.15,.23-.15,.38v1.03c0,.14,.04,.28,.15,.39,.1,.09,.24,.14,.41,.15h.23c.1,.36,.18,.67,.26,.93Zm.6,0c-.12-.46-.2-.77-.26-.93h2.07c-.08,.34-.18,.65-.28,.93h-1.54Zm2.37-2.47c.09,0,.15,.03,.18,.08,.03,.06,.04,.13,.05,.21v.44c0,.07-.03,.12-.07,.17-.03,.05-.08,.07-.17,.07h-3.14c-.09,0-.16-.02-.21-.06-.05-.03-.07-.08-.08-.18v-.44c0-.09,.02-.16,.07-.22,.04-.04,.12-.07,.22-.07h3.14Z" style="fill: #7c282c;"/>
        <path d="M43.96,42.31c-.36,.19-.72,.35-1.07,.5-.09,.03-.14,.08-.16,.16-.03,.07-.02,.14,.01,.23,.04,.07,.1,.12,.17,.16,.18,.08,.8-.2,1.86-.84,.67-.4,1.02-.68,1.05-.83,0-.08-.03-.15-.08-.22-.04-.06-.11-.1-.19-.11-.08,0-.15,.02-.22,.08-.19,.15-.45,.33-.79,.55v-3.43h.9c.09,0,.15-.03,.2-.09,.05-.06,.08-.13,.08-.21,0-.09-.03-.16-.08-.22-.04-.05-.11-.07-.2-.07h-.9v-2.01c0-.09-.03-.16-.09-.22-.06-.05-.13-.07-.21-.08-.08,0-.16,.02-.21,.08-.05,.05-.07,.12-.07,.22v2.01h-.95c-.09,0-.16,.03-.22,.08-.05,.06-.07,.13-.08,.21,0,.09,.03,.16,.08,.22,.05,.04,.12,.07,.22,.08h.95v3.77Zm3.92-2.86h2.6c.15,0,.27,.05,.37,.17,.06,.08,.09,.56,.08,1.41-.04,1.33-.09,2.13-.14,2.41-.05,.22-.13,.37-.25,.47-.35,.3-1.15,.28-2.4-.07-.2-.04-.33,.02-.39,.19-.03,.08-.02,.16,.02,.24,.02,.06,.09,.11,.2,.14,.52,.18,1.05,.28,1.61,.3,.52,0,.93-.08,1.24-.26,.22-.13,.37-.32,.46-.59,.09-.28,.15-.66,.18-1.13,.03-.66,.06-1.6,.09-2.83,0-.4-.1-.69-.3-.86-.13-.11-.29-.16-.49-.16h-2.84c0-.07,0-.13,.01-.19v-1.33h3.79c.09,0,.16-.03,.21-.09,.04-.06,.07-.13,.08-.2,0-.09-.03-.16-.08-.22-.05-.04-.12-.07-.21-.07h-2.76v-1.06c0-.09-.03-.16-.09-.22-.06-.04-.13-.07-.21-.08-.09,0-.16,.03-.22,.08-.04,.05-.07,.12-.07,.22v1.06h-2.45c-.08,0-.16,.03-.22,.08-.04,.06-.07,.13-.08,.21,0,.08,.03,.16,.08,.22,.05,.05,.12,.07,.22,.08h1.42v1.33c0,2.4-.8,4.19-2.39,5.36-.26,.08-.33,.24-.21,.49,0,0,0,0,.01,.01,.06,.08,.13,.12,.2,.14,.12,.02,.37-.11,.75-.4,1.33-1.27,2.06-2.88,2.19-4.82Z" style="fill: #7c282c;"/>
      </g>
    </g>
  </g>
</svg>