<?xml version="1.0" encoding="UTF-8"?>
<svg id="b" data-name="圖層 2" xmlns="http://www.w3.org/2000/svg" width="81.18" height="81.18" viewBox="0 0 81.18 81.18">
  <g id="c" data-name="圖層 1">
    <g>
      <polygon points="3.75 40.59 0 45.16 4.66 48.79 2.03 54.08 7.39 56.58 6 62.32 11.78 63.56 11.71 69.47 17.62 69.4 18.86 75.17 24.6 73.79 27.1 79.15 32.39 76.52 36.02 81.18 40.59 77.43 45.16 81.18 48.79 76.51 54.08 79.15 56.58 73.79 62.32 75.17 63.56 69.39 69.47 69.47 69.4 63.56 75.17 62.32 73.79 56.58 79.15 54.08 76.52 48.79 81.18 45.16 77.43 40.59 81.18 36.02 76.51 32.39 79.15 27.1 73.79 24.6 75.17 18.86 69.39 17.62 69.47 11.71 63.56 11.78 62.32 6 56.58 7.39 54.08 2.03 48.79 4.66 45.16 0 40.59 3.75 36.02 0 32.39 4.66 27.1 2.03 24.6 7.39 18.86 6 17.62 11.78 11.71 11.71 11.78 17.62 6 18.86 7.39 24.6 2.03 27.1 4.66 32.39 0 36.02 3.75 40.59" style="fill: #c9bc9c;"/>
      <g>
        <path d="M19.32,35.66c-.29,1.79-1.2,2.85-3.86,3.48-.14-.39-.6-.95-.94-1.23,2.09-.41,2.81-1.06,3.05-2.25h-2.59v-1.45h4.22v-1.36h-3.36v-1.43h3.36v-1.32h1.97v1.32h3.38v1.43h-3.38v1.36h4.18v1.45h-2.78v.89c0,.45,.02,.6,.36,.6h1.22c.26,0,.82-.04,1.1-.11,.02,.37,.07,.84,.12,1.21-.26,.11-.77,.11-1.18,.11h-1.58c-1.42,0-1.7-.54-1.7-1.81v-.89h-1.58Zm-4.68,13.44c1.1-.82,2.21-2.33,2.86-3.74l2.14,.5c-.62,1.47-1.7,3.05-2.88,4.04l-2.11-.8Zm20.14-6.16c.14,0,.26-.02,.34-.11s.12-.3,.17-.67c.05-.43,.07-1.34,.07-2.53,.38,.3,.96,.58,1.44,.71-.02,1.08-.1,2.44-.22,2.92-.12,.48-.34,.8-.6,.99-.29,.2-.74,.28-1.15,.28h-.98c-.46,0-.98-.13-1.32-.43-.34-.32-.46-.71-.46-2.2v-7.15h-1.92c-.07,1.3-.22,2.51-.41,3.59,.89,.58,1.7,1.1,2.23,1.53l-.98,1.71c-.43-.37-1.06-.82-1.73-1.3-.62,1.92-1.66,3.48-3.31,4.69-.24-.32-.72-.82-1.13-1.14-3.58,.35-7.25,.69-9.89,.93l-.17-1.68c1.22-.09,2.76-.2,4.44-.32v-1.66h-3.67v-1.47h3.67v-1.4h1.97v1.4h3.53v1.47h-3.53v1.51c1.34-.11,2.74-.22,4.1-.35l.02,.8c1.13-1.06,1.82-2.36,2.26-3.93-.72-.47-1.44-.97-2.06-1.36l.94-1.47,1.51,.93c.12-.78,.19-1.6,.24-2.46h-2.35v-1.77h2.4c.02-.93,.05-1.9,.05-2.92h2.02c0,1.02-.02,1.99-.05,2.92h3.84v8.95c0,.52,0,.82,.07,.93,.05,.06,.14,.09,.26,.09h.36Zm-11.11,2.85c.29,1.19,.53,2.72,.55,3.63l-2.23,.26c0-.95-.17-2.48-.43-3.7l2.11-.19Zm4.82-.17c.58,1.17,1.18,2.68,1.34,3.65l-2.21,.37c-.17-.95-.67-2.51-1.25-3.7l2.11-.32Zm4.9-.35c1.08,1.19,2.4,2.85,2.98,3.93l-2.26,.69c-.53-1.06-1.78-2.77-2.86-4l2.14-.63Z" style="fill: #fff;"/>
        <path d="M52.11,47.45c-2.95,.6-6.05,1.25-8.4,1.71l-.5-1.82c1.03-.15,2.35-.35,3.82-.58v-5.9h-3.5v-1.71h3.5v-2.03h-2.04v-.69c-.31,.28-.65,.54-.96,.8-.14-.45-.7-1.53-1.06-2.03,1.78-1.25,3.53-3.2,4.54-5.23l1.94,.6c-.14,.24-.26,.5-.43,.76,1.37,1.04,2.95,2.27,3.82,3.05l-1.25,1.53c-.79-.8-2.23-1.99-3.53-3.05-.6,.93-1.32,1.77-2.04,2.55h4.92v1.71h-1.94v2.03h2.88v1.71h-2.88v5.6l3.02-.48,.1,1.47Zm-6.89-5.62c.38,1.23,.79,2.81,.98,3.82l-1.61,.41c-.14-1.06-.55-2.66-.91-3.89l1.54-.35Zm4.27,3.59c.36-1.04,.84-2.68,1.06-3.8l1.73,.41c-.46,1.32-.98,2.81-1.42,3.76l-1.37-.37Zm14.81,2.14c0,.99-.24,1.58-1.01,1.86-.74,.32-1.94,.35-3.74,.35-.07-.52-.36-1.36-.62-1.88,1.22,.06,2.42,.06,2.78,.04s.48-.11,.48-.41v-3.31c-2.26,.54-4.51,1.04-6.34,1.45l-.65-1.53c-.12,2.05-.48,4.26-1.54,5.86-.36-.35-1.25-.91-1.75-1.12,1.18-1.86,1.27-4.47,1.27-6.55v-6.22h4.46v-6.03h2.14v6.03h4.51v11.47Zm-9.55-12.06c-.31-1.08-1.25-2.79-2.21-4.02l1.82-.78c.96,1.21,1.97,2.83,2.33,3.91l-1.94,.89Zm.5,6.81c0,.52,0,1.06-.05,1.64,1.82-.32,4.39-.84,6.98-1.38v-4.73h-6.94v4.47Zm1.15-3.24c1.75,.32,4.06,.99,5.26,1.56l-.94,1.43c-1.15-.63-3.41-1.36-5.23-1.73l.91-1.25Zm8.64-7.76c-.77,1.43-1.68,2.98-2.47,4.04l-1.85-.67c.77-1.1,1.75-2.83,2.26-4.08l2.06,.71Z" style="fill: #fff;"/>
      </g>
    </g>
  </g>
</svg>