<?xml version="1.0" encoding="UTF-8"?>
<svg id="b" data-name="圖層 2" xmlns="http://www.w3.org/2000/svg" width="70.27" height="1489.12" viewBox="0 0 70.27 1489.12">
  <g id="c" data-name="圖層 1">
    <g>
      <path d="M28.15,5.04c0,2.79-1.69,5.04-3.78,5.04s-3.78-2.25-3.78-5.04,1.69-5.04,3.78-5.04,3.78,2.25,3.78,5.04Z" style="fill: #a48b78;"/>
      <path d="M69.73,117.27c-6.01-22.5-32-23.85-45.5-45.18l-.13,.18c8.3,16.92,22.95,27.45,33.28,41.04,8.03,10.62,12.35,23.49,12.35,32.76,0,4.59-.27,6.21-1.28,6.21-.95,0-.95-2.07-.95-3.06,0-1.53,.27-2.97,.47-4.23s.41-2.25,.41-2.79c-7.02-20.88-38.34-21.96-46.44-50.94h-.14v.81c0,25.11,9.59,32.94,17.08,39.51l-.34,.72c-8.57-6.84-17.55-16.11-17.55-39.96,0-1.89,.13-4.23,.13-5.04,0-.72-.13-2.97-.13-4.95,0-1.62,.27-2.43,.81-2.43,.61,0,.95,.63,.95,1.89,0,1.89-.47,4.05-.81,6.84,.88,5.94,10.33,13.95,19.04,19.17,9.86,5.94,21.13,15.48,27.07,31.14l.13-.18c-5.26-27-26.73-37.71-39.49-57.24-3.1-4.77-6.28-10.26-8.24-16.11l.54-.81c12.22,16.74,33.75,14.22,46.65,44.64l.14-.18c-4.93-17.46-16.81-28.62-25.38-37.8-9.11-9.81-22.07-21.42-22.07-38.43,0-6.12,2.7-13.32,7.76-13.32,2.77,0,5.06,1.8,5.06,5.76,0,2.25-1.22,4.05-2.9,4.05-2.03,0-3.17-1.44-3.31-4.05-3.98,.09-5.4,3.96-5.4,8.82,0,6.39,2.57,14.31,8.91,22.41,14.24,18.36,34.83,30.6,39.83,60.21l-.54,.54Z" style="fill: #a48b78;"/>
      <path d="M38.68,178.11c-3.71-3.69-7.43-7.74-11.41-13.59-5.6-8.28-7.36-16.02-7.36-22.68s3.38-11.07,8.24-11.07c8.64,0,17.69,15.57,17.69,26.82,0,5.13-1.55,8.19-4.25,8.19-6.55,0-9.38-19.62-10.4-25.92-.81-.27-1.62-.45-2.43-.45-3.85,0-6.55,3.06-6.55,8.19s2.36,11.34,6.62,17.46c3.31,4.68,7.22,9.18,10.33,12.42l-.47,.63Zm6.35-21.96c0-6.03-8.64-14.58-13.16-16.11,1.49,9.81,7.02,18.54,11.41,18.54,1.21,0,1.76-.99,1.76-2.43Z" style="fill: #a48b78;"/>
      <path d="M38.68,223.74c-3.71-3.69-7.43-7.74-11.41-13.59-5.6-8.28-7.36-16.02-7.36-22.68s3.38-11.07,8.24-11.07c8.64,0,17.69,15.57,17.69,26.82,0,5.13-1.55,8.19-4.25,8.19-6.55,0-9.38-19.62-10.4-25.92-.81-.27-1.62-.45-2.43-.45-3.85,0-6.55,3.06-6.55,8.19s2.36,11.34,6.62,17.46c3.31,4.68,7.22,9.18,10.33,12.42l-.47,.63Zm6.35-21.96c0-6.03-8.64-14.58-13.16-16.11,1.49,9.81,7.02,18.54,11.41,18.54,1.21,0,1.76-.99,1.76-2.43Z" style="fill: #a48b78;"/>
      <path d="M43.54,226.53l1.21,.63v6.93l8.51,6.75,.27,9.72-8.78-7.47v11.43l-1.21-.81v-11.61c-13.37-10.8-17.42-14.49-20.05-14.49-1.15,0-1.96,.9-1.96,2.43,0,2.97,2.43,8.28,6.48,13.86,2.83,3.87,7.02,8.73,10.94,12.69l-.34,.54c-2.7-2.7-6.89-7.11-10.67-12.15-4.19-5.58-7.63-11.88-7.63-17.37,0-3.78,1.15-7.2,4.39-7.2,4.66,0,9.52,5.67,18.83,12.87v-6.75Z" style="fill: #a48b78;"/>
      <path d="M45.03,309.78c-4.79-4.23-14.65-15.48-20.32-15.48-1.49,0-2.77,.81-2.77,2.97,0,4.41,3.71,9.27,10.94,15.3,5,4.14,9.92,7.92,11.88,9.72l.27,9.63c-4.86-4.05-15.46-15.57-20.99-15.57-1.69,0-2.9,1.08-2.9,3.33,0,9.36,12.22,19.35,18.36,19.89,.81-.72,1.75-1.35,3.04-1.35,1.75,0,3.31,1.35,3.31,4.05,0,3.96-2.9,4.86-5.47,4.86-.95,0-2.5-.18-3.78-.45-1.15,1.89-1.82,3.96-1.82,6.3,0,4.05,2.03,7.11,4.25,9.36l-.34,.63c-2.5-2.34-4.73-5.94-4.73-9.99,0-2.61,.74-4.77,1.75-6.48-8.71-3.6-15.39-15.21-15.39-27.27,0-6.48,2.77-9.36,6.48-9.36,.81,0,1.62,.18,2.03,.36l.13-.18c-4.32-3.96-8.64-9.18-8.64-16.38,0-4.5,2.5-6.57,5.67-6.57,5.74,0,14.04,9,18.77,13.14l.27,9.54Z" style="fill: #a48b78;"/>
      <path d="M44.76,383.49c-13.3-11.25-18.5-16.11-21.26-16.11-1.08,0-1.82,.54-1.82,1.62,0,2.34,1.89,6.75,6.89,13.32,4.05,5.31,8.51,10.35,10.4,12.51l-.4,.81c-2.84-2.97-7.7-8.73-11.21-13.41-5.2-6.93-7.02-11.61-7.02-15.84,0-3.96,1.82-6.21,4.39-6.21,3.51,0,7.02,3.33,19.71,14.04l.34,9.27Zm11.81,9.54c-1.82,0-3.58-2.25-3.58-4.68,0-2.61,1.01-4.86,3.11-4.86s3.65,2.52,3.65,5.22c0,2.25-1.49,4.32-3.17,4.32Z" style="fill: #a48b78;"/>
      <path d="M43.54,398.34l1.21,.63v6.93l8.51,6.75,.27,9.72-8.78-7.47v11.43l-1.21-.81v-11.61c-13.37-10.8-17.42-14.49-20.05-14.49-1.15,0-1.96,.9-1.96,2.43,0,2.97,2.43,8.28,6.48,13.86,2.83,3.87,7.02,8.73,10.94,12.69l-.34,.54c-2.7-2.7-6.89-7.11-10.67-12.15-4.19-5.58-7.63-11.88-7.63-17.37,0-3.78,1.15-7.2,4.39-7.2,4.66,0,9.52,5.67,18.83,12.87v-6.75Z" style="fill: #a48b78;"/>
      <path d="M20.99,420.48l46.65,37.71,.34,9.81-35.37-29.88-.13,.18c4.73,5.31,13.37,13.41,13.37,22.77,0,3.78-1.49,6.12-4.46,6.12-4.93,0-13.84-12.6-18.23-12.6-1.15,0-1.62,.72-1.62,1.89,0,5.4,13.03,20.43,17.21,24.39l-.41,.54c-3.04-3.15-7.36-7.74-11-12.51-5-6.48-7.02-10.53-7.02-15.3,0-4.32,2.23-6.21,4.66-6.21,6.21,0,13.23,12.6,17.28,12.6,1.28,0,1.96-1.17,1.96-2.34,0-7.74-16.34-23.4-23.02-27.9l-.2-9.27Z" style="fill: #a48b78;"/>
      <path d="M15.59,499.5c-.07-6.3-2.77-9.54-7.22-9.54s-7.56,3.96-7.56,10.08c0,16.92,16.94,28.35,25.99,36.63l.13-.18c-3.38-3.87-6.62-9.27-6.62-15.66,0-4.86,3.04-7.56,6.41-7.56,8.84,0,19.1,13.23,19.1,25.11,0,4.5-1.08,7.02-4.39,8.46l2.9,2.07,.41,9.18c-8.24-6.48-16.88-12.51-25.18-19.44,2.9,13.41,11.27,23.13,19.37,31.23l-.2,.54c-8.71-8.01-17.21-18.9-20.12-32.49-11.21-8.64-18.63-21.78-18.63-38.97,0-8.82,2.23-16.56,8.71-16.56,4.93,0,7.7,6.12,7.7,12.15,0,1.08-.27,3.78-.34,4.95h-.47Zm7.02,27.27c0,7.56,13.16,17.01,18.29,17.01,1.89,0,4.12-.45,4.12-3.69,0-8.82-11.81-18.18-17.75-18.18-2.63,0-4.66,.81-4.66,4.86Z" style="fill: #a48b78;"/>
      <path d="M44.76,590.93c-13.3-11.25-18.5-16.11-21.26-16.11-1.08,0-1.82,.54-1.82,1.62,0,2.34,1.89,6.75,6.89,13.32,4.05,5.31,8.51,10.35,10.4,12.51l-.4,.81c-2.84-2.97-7.7-8.73-11.21-13.41-5.2-6.93-7.02-11.61-7.02-15.84,0-3.96,1.82-6.21,4.39-6.21,3.51,0,7.02,3.33,19.71,14.04l.34,9.27Zm11.81,9.54c-1.82,0-3.58-2.25-3.58-4.68,0-2.61,1.01-4.86,3.11-4.86s3.65,2.52,3.65,5.22c0,2.25-1.49,4.32-3.17,4.32Z" style="fill: #a48b78;"/>
      <path d="M43.54,621.89C26.39,607.94,.07,594.98,.07,562.86c0-7.29,2.03-17.19,8.84-17.19,5.2,0,8.03,6.57,8.03,13.05,0,1.62-.14,3.06-.27,4.14h-.54c-.27-5.76-3.31-9.63-7.63-9.63-4.66,0-7.63,3.33-7.63,11.07,0,21.33,28.76,36.9,42.66,48.87v-8.64l1.21,.9v8.82c9.05,6.93,23.22,19.17,23.22,35.28,0,4.95-1.75,9.9-5.54,9.9-3.24,0-4.86-3.6-4.86-7.83,0-.63,.07-1.17,.13-1.62,1.62,1.08,3.38,1.89,5.47,1.89,2.57,0,3.98-1.62,3.98-3.96,0-9.18-17.55-21.24-22.41-25.02v23.22l-1.21-.99v-23.22Z" style="fill: #a48b78;"/>
      <path d="M43.54,639.8l1.21,.63v6.93l8.51,6.75,.27,9.72-8.78-7.47v11.43l-1.21-.81v-11.61c-13.37-10.8-17.42-14.49-20.05-14.49-1.15,0-1.96,.9-1.96,2.43,0,2.97,2.43,8.28,6.48,13.86,2.83,3.87,7.02,8.73,10.94,12.69l-.34,.54c-2.7-2.7-6.89-7.11-10.67-12.15-4.19-5.58-7.63-11.88-7.63-17.37,0-3.78,1.15-7.2,4.39-7.2,4.66,0,9.52,5.67,18.83,12.87v-6.75Z" style="fill: #a48b78;"/>
      <path d="M21.2,684.08c2.03,12.24,9.99,20.52,17.55,28.17l-.41,.72c-9.45-9.54-18.43-18.63-18.43-36.09,0-6.21,1.75-12.87,7.22-12.87,2.84,0,6.14,2.25,6.14,6.48,0,2.79-1.42,4.32-2.9,4.32-1.89,0-2.9-1.71-2.9-3.6,0-.72,.07-1.35,.34-1.98-.81-.63-1.76-1.08-2.77-1.08-2.5,0-4.32,2.97-4.32,6.48,0,4.41,2.3,9.18,5.81,9.18,2.36,0,4.25-1.8,6.01-3.6,1.82-1.8,3.58-3.6,5.67-3.6,5.06,0,7.63,6.84,7.63,13.23,0,5.76-1.96,10.17-5.33,10.17-2.57,0-4.46-2.61-4.46-6.03,0-1.08,.2-2.07,.34-2.61,1.75,1.26,3.58,1.8,5.26,1.8,1.82,0,3.38-1.35,3.38-4.14,0-3.33-1.76-5.22-4.12-5.22-2.5,0-4.32,1.8-6.14,3.6-1.75,1.8-3.64,3.6-6.34,3.6-3.51,0-6.48-3.42-7.09-6.93h-.14Z" style="fill: #a48b78;"/>
      <path d="M12.22,703.61c.07,7.29,3.1,15.03,8.78,16.65-.13-.36-.27-.81-.34-1.26s-.07-.9-.07-1.44c0-2.25,1.42-3.69,2.97-3.69,2.29,0,3.51,2.43,3.51,4.95,0,3.51-1.48,6.03-4.19,6.03-7.02,0-11.21-12.15-11.34-21.24h.67Z" style="fill: #a48b78;"/>
      <path d="M33.55,812.42c4.32,4.59,12.29,12.87,12.29,20.88,0,3.87-2.16,6.39-4.46,6.39-6.08,0-13.16-12.78-18.09-12.78-1.01,0-1.75,.63-1.75,1.89,0,2.52,2.09,6.48,6.28,12.06,3.44,4.59,7.49,9.18,10.67,12.42l-.27,.72c-2.63-2.79-7.16-7.56-11-12.69-5.13-6.84-6.88-10.53-6.88-14.94s1.96-6.66,4.66-6.66c5.81,0,13.84,12.78,17.28,12.78,1.28,0,1.96-1.17,1.96-2.43,0-7.74-17.35-22.95-22.95-27.09l-.27-9.54c9.65,8.19,17.75,16.29,21.06,16.29,1.08,0,2.16-.81,2.16-2.61,0-7.56-17.35-23.22-22.95-27.45l-.27-9.09c7.9,6.57,15.8,13.14,23.9,19.35l.41,10.53-12.29-11.97-.13,.18c4.39,5.04,12.96,12.69,12.96,22.23,0,3.33-1.35,6.03-4.05,6.03-2.5,0-5.87-2.7-8.1-4.68l-.13,.18Z" style="fill: #a48b78;"/>
      <path d="M38.68,900.08c-3.71-3.69-7.43-7.74-11.41-13.59-5.6-8.28-7.36-16.02-7.36-22.68s3.38-11.07,8.24-11.07c8.64,0,17.69,15.57,17.69,26.82,0,5.13-1.55,8.19-4.25,8.19-6.55,0-9.38-19.62-10.4-25.92-.81-.27-1.62-.45-2.43-.45-3.85,0-6.55,3.06-6.55,8.19s2.36,11.34,6.62,17.46c3.31,4.68,7.22,9.18,10.33,12.42l-.47,.63Zm6.35-21.96c0-6.03-8.64-14.58-13.16-16.11,1.49,9.81,7.02,18.54,11.41,18.54,1.21,0,1.76-.99,1.76-2.43Z" style="fill: #a48b78;"/>
      <path d="M38.68,945.71c-3.71-3.69-7.43-7.74-11.41-13.59-5.6-8.28-7.36-16.02-7.36-22.68s3.38-11.07,8.24-11.07c8.64,0,17.69,15.57,17.69,26.82,0,5.13-1.55,8.19-4.25,8.19-6.55,0-9.38-19.62-10.4-25.92-.81-.27-1.62-.45-2.43-.45-3.85,0-6.55,3.06-6.55,8.19s2.36,11.34,6.62,17.46c3.31,4.68,7.22,9.18,10.33,12.42l-.47,.63Zm6.35-21.96c0-6.03-8.64-14.58-13.16-16.11,1.49,9.81,7.02,18.54,11.41,18.54,1.21,0,1.76-.99,1.76-2.43Z" style="fill: #a48b78;"/>
      <path d="M43.54,948.5l1.21,.63v6.93l8.51,6.75,.27,9.72-8.78-7.47v11.43l-1.21-.81v-11.61c-13.37-10.8-17.42-14.49-20.05-14.49-1.15,0-1.96,.9-1.96,2.43,0,2.97,2.43,8.28,6.48,13.86,2.83,3.87,7.02,8.73,10.94,12.69l-.34,.54c-2.7-2.7-6.89-7.11-10.67-12.15-4.19-5.58-7.63-11.88-7.63-17.37,0-3.78,1.15-7.2,4.39-7.2,4.66,0,9.52,5.67,18.83,12.87v-6.75Z" style="fill: #a48b78;"/>
      <path d="M45.03,1031.75c-4.79-4.23-14.65-15.48-20.32-15.48-1.49,0-2.77,.81-2.77,2.97,0,4.41,3.71,9.27,10.94,15.3,5,4.14,9.92,7.92,11.88,9.72l.27,9.63c-4.86-4.05-15.46-15.57-20.99-15.57-1.69,0-2.9,1.08-2.9,3.33,0,9.36,12.22,19.35,18.36,19.89,.81-.72,1.75-1.35,3.04-1.35,1.75,0,3.31,1.35,3.31,4.05,0,3.96-2.9,4.86-5.47,4.86-.95,0-2.5-.18-3.78-.45-1.15,1.89-1.82,3.96-1.82,6.3,0,4.05,2.03,7.11,4.25,9.36l-.34,.63c-2.5-2.34-4.73-5.94-4.73-9.99,0-2.61,.74-4.77,1.75-6.48-8.71-3.6-15.39-15.21-15.39-27.27,0-6.48,2.77-9.36,6.48-9.36,.81,0,1.62,.18,2.03,.36l.13-.18c-4.32-3.96-8.64-9.18-8.64-16.38,0-4.5,2.5-6.57,5.67-6.57,5.74,0,14.04,9,18.77,13.14l.27,9.54Z" style="fill: #a48b78;"/>
      <path d="M44.76,1105.46c-13.3-11.25-18.5-16.11-21.26-16.11-1.08,0-1.82,.54-1.82,1.62,0,2.34,1.89,6.75,6.89,13.32,4.05,5.31,8.51,10.35,10.4,12.51l-.4,.81c-2.84-2.97-7.7-8.73-11.21-13.41-5.2-6.93-7.02-11.61-7.02-15.84,0-3.96,1.82-6.21,4.39-6.21,3.51,0,7.02,3.33,19.71,14.04l.34,9.27Zm11.81,9.54c-1.82,0-3.58-2.25-3.58-4.68,0-2.61,1.01-4.86,3.11-4.86s3.65,2.52,3.65,5.22c0,2.25-1.49,4.32-3.17,4.32Z" style="fill: #a48b78;"/>
      <path d="M43.54,1120.31l1.21,.63v6.93l8.51,6.75,.27,9.72-8.78-7.47v11.43l-1.21-.81v-11.61c-13.37-10.8-17.42-14.49-20.05-14.49-1.15,0-1.96,.9-1.96,2.43,0,2.97,2.43,8.28,6.48,13.86,2.83,3.87,7.02,8.73,10.94,12.69l-.34,.54c-2.7-2.7-6.89-7.11-10.67-12.15-4.19-5.58-7.63-11.88-7.63-17.37,0-3.78,1.15-7.2,4.39-7.2,4.66,0,9.52,5.67,18.83,12.87v-6.75Z" style="fill: #a48b78;"/>
      <path d="M20.99,1142.45l46.65,37.71,.34,9.81-35.37-29.88-.13,.18c4.73,5.31,13.37,13.41,13.37,22.77,0,3.78-1.49,6.12-4.46,6.12-4.93,0-13.84-12.6-18.23-12.6-1.15,0-1.62,.72-1.62,1.89,0,5.4,13.03,20.43,17.21,24.39l-.41,.54c-3.04-3.15-7.36-7.74-11-12.51-5-6.48-7.02-10.53-7.02-15.3,0-4.32,2.23-6.21,4.66-6.21,6.21,0,13.23,12.6,17.28,12.6,1.28,0,1.96-1.17,1.96-2.34,0-7.74-16.34-23.4-23.02-27.9l-.2-9.27Z" style="fill: #a48b78;"/>
      <path d="M38.41,1282.57c-8.17-8.82-18.5-20.7-18.5-35.82,0-7.2,3.04-11.16,8.64-11.16,8.64,0,17.28,15.03,17.28,27,0,5.49-1.89,9-4.32,9-3.51,0-5.54-3.87-5.54-7.56,0-.9,.07-1.62,.13-2.07,2.09,.81,4.25,2.07,6.41,2.07,1.55,0,2.5-1.08,2.5-2.7,0-6.3-8.1-17.1-16.67-17.1-3.44,0-6.14,2.97-6.14,7.83,0,11.79,11.14,23.76,16.47,29.7l-.27,.81Z" style="fill: #a48b78;"/>
      <path d="M44.35,1316.42l.41,9.36c-4.79-3.33-16.74-16.11-21.53-16.11-1.21,0-1.69,.9-1.69,2.25,0,2.88,2.77,8.19,6.89,13.59,3.44,4.5,8.3,9.81,10.46,11.97l-.27,.63c-3.11-3.15-7.02-7.11-11.34-12.78s-7.36-11.34-7.36-16.83c0-3.78,1.69-6.03,3.85-6.03,.67,0,1.42,.09,1.75,.36v-.18c-3.1-3.69-5.6-8.55-5.6-13.86,0-5.85,3.58-8.01,7.36-8.01,8.78,0,18.56,14.31,18.56,25.47,0,4.14-1.35,6.39-4.19,7.92l2.7,2.25Zm-22.14-22.5c.41,7.65,13.91,17.55,18.97,17.55,2.43,0,3.85-.99,3.85-4.41,0-8.28-12.49-17.64-17.96-17.64-2.56,0-4.86,.81-4.86,4.5Z" style="fill: #a48b78;"/>
      <path d="M67.98,1367.17l.41,9.9c-12.08-10.08-24.17-19.98-35.85-30.6l-.13,.18c4.79,5.49,13.43,14.67,13.43,23.94,0,3.69-1.69,5.76-4.05,5.76-4.66,0-6.01-5.76-8.03-15.21h-.14c-.27,1.98-2.16,3.78-3.78,3.78-2.63,0-5.06-1.8-7.09-1.8-.74,0-1.21,.54-1.21,1.44,0,6.12,10.8,18.45,16.94,24.66l-.34,.81c-7.02-7.47-18.23-18.54-18.23-29.34,0-3.78,1.75-5.67,4.19-5.67,2.16,0,5.06,1.98,9.38,4.68-.47-2.07-1.08-4.59-1.08-6.03,0-1.08,.41-1.62,1.01-1.62,.74,0,1.21,.72,1.21,3.06,0,1.62-.4,4.32-.4,5.13,0,1.71,2.16,8.01,6.41,8.01,1.62,0,2.77-1.08,2.77-2.79,0-7.74-16.61-23.49-22.21-27.45l-.2-8.73,46.98,37.89Z" style="fill: #a48b78;"/>
      <path d="M38.68,1436.2c-3.71-3.69-7.43-7.74-11.41-13.59-5.6-8.28-7.36-16.02-7.36-22.68s3.38-11.07,8.24-11.07c8.64,0,17.69,15.57,17.69,26.82,0,5.13-1.55,8.19-4.25,8.19-6.55,0-9.38-19.62-10.4-25.92-.81-.27-1.62-.45-2.43-.45-3.85,0-6.55,3.06-6.55,8.19s2.36,11.34,6.62,17.46c3.31,4.68,7.22,9.18,10.33,12.42l-.47,.63Zm6.35-21.96c0-6.03-8.64-14.58-13.16-16.11,1.49,9.81,7.02,18.54,11.41,18.54,1.21,0,1.76-.99,1.76-2.43Z" style="fill: #a48b78;"/>
      <path d="M21.2,1449.25c2.03,12.24,9.99,20.52,17.55,28.17l-.41,.72c-9.45-9.54-18.43-18.63-18.43-36.09,0-6.21,1.75-12.87,7.22-12.87,2.84,0,6.14,2.25,6.14,6.48,0,2.79-1.42,4.32-2.9,4.32-1.89,0-2.9-1.71-2.9-3.6,0-.72,.07-1.35,.34-1.98-.81-.63-1.76-1.08-2.77-1.08-2.5,0-4.32,2.97-4.32,6.48,0,4.41,2.3,9.18,5.81,9.18,2.36,0,4.25-1.8,6.01-3.6,1.82-1.8,3.58-3.6,5.67-3.6,5.06,0,7.63,6.84,7.63,13.23,0,5.76-1.96,10.17-5.33,10.17-2.57,0-4.46-2.61-4.46-6.03,0-1.08,.2-2.07,.34-2.61,1.75,1.26,3.58,1.8,5.26,1.8,1.82,0,3.38-1.35,3.38-4.14,0-3.33-1.76-5.22-4.12-5.22-2.5,0-4.32,1.8-6.14,3.6-1.75,1.8-3.64,3.6-6.34,3.6-3.51,0-6.48-3.42-7.09-6.93h-.14Z" style="fill: #a48b78;"/>
      <path d="M28.15,1484.08c0,2.79-1.69,5.04-3.78,5.04s-3.78-2.25-3.78-5.04,1.69-5.04,3.78-5.04,3.78,2.25,3.78,5.04Z" style="fill: #a48b78;"/>
    </g>
  </g>
</svg>