<?xml version="1.0" encoding="UTF-8"?>
<svg id="b" data-name="圖層 2" xmlns="http://www.w3.org/2000/svg" width="389.69" height="209" viewBox="0 0 389.69 209">
  <g id="c" data-name="圖層 1">
    <g>
      <path d="M145.91,145.78c-1.01,3.35-2.7,6.08-4.82,8.28,1.91,1.33,4.1,2.34,6.62,2.92-.72,.61-1.55,1.87-2.02,2.66-2.59-.76-4.93-1.98-6.91-3.49-2.05,1.58-4.36,2.77-6.8,3.67-.36-.79-1.08-1.94-1.76-2.59v2.7h-3.13v-3.31c-4.32,.47-8.6,.97-11.88,1.37l-.29-2.95c.97-.07,2.09-.18,3.28-.29v-11.55h-2.95v-2.7h31.53v2.7h-16.56v13.93c2.23-.65,4.39-1.73,6.26-3.13-1.58-1.73-2.88-3.78-3.82-6.05l.86-.25h-2.09v-2.63h11.88l.54-.11,2.05,.83Zm-23.22-6.73h-3.2v-11.01h23.22v11.01h-3.35v-8.6h-16.67v8.6Zm-1.51,4.14v2.02h5.9v-2.02h-5.9Zm0,6.44h5.9v-2.02h-5.9v2.02Zm0,4.82c1.87-.18,3.89-.4,5.9-.65v-1.73h-5.9v2.38Zm16.56-22.28v2.09h-13.68v-2.09h13.68Zm-13.68,3.82h13.71v2.09h-13.71v-2.09Zm11.55,11.7c.79,1.58,1.8,3.1,3.1,4.39,1.3-1.26,2.38-2.77,3.17-4.39h-6.26Z" style="fill: #9e8578;"/>
      <path d="M163.67,149.85c-.9,2.52-2.34,5.4-3.64,7.24-.54-.43-1.62-1.22-2.3-1.58,1.33-1.69,2.56-4.14,3.31-6.44l2.63,.79Zm4.64-2.34v12.2h-3.24v-12.2h-6.91v-2.84h6.91v-3.28h-7.13v-2.81h3.92c-.14-1.22-.65-3.1-1.26-4.5l2.74-.68c.58,1.4,1.15,3.24,1.33,4.43l-2.66,.76h5.69c.65-1.51,1.4-3.71,1.76-5.22l3.1,.65c-.61,1.58-1.22,3.24-1.84,4.57h4.21v2.81h-6.62v3.28h6.12v2.84h-6.12Zm6.05-14.18h-15.84v-2.77h6.59c-.4-1.01-.86-2.16-1.3-3.06l3.31-.86c.61,1.22,1.33,2.74,1.8,3.92h5.44v2.77Zm-2.56,15.44c1.19,1.69,2.41,3.96,2.99,5.4l-2.34,1.4c-.58-1.51-1.8-3.85-2.88-5.58l2.23-1.22Zm18.93-6.84h-3.67v17.82h-3.28v-17.82h-4.21v.86c0,5.18-.47,12.38-3.67,16.95-.5-.61-1.87-1.62-2.56-1.98,2.84-4.17,3.1-10.26,3.1-14.97v-12.46c4-.68,8.42-1.8,11.01-2.92l2.63,2.45c-2.95,1.15-6.84,2.02-10.51,2.66v6.3h11.16v3.1Z" style="fill: #9e8578;"/>
      <path d="M207.41,143.44c-1.48-1.01-4.46-2.74-6.62-3.89l1.83-2.45c2.05,.97,5.11,2.56,6.66,3.56l-1.87,2.77Zm3.82,4.64c-1.87,3.74-4.28,8.03-6.37,11.41l-2.88-2.23c1.94-2.74,4.71-7.31,6.8-11.41l2.45,2.23Zm-1.98-14.15c-1.44-1.12-4.36-2.92-6.44-4.17l1.94-2.38c2.05,1.15,5,2.84,6.52,3.89l-2.02,2.66Zm22.75,22.14c0,1.69-.36,2.66-1.55,3.17-1.15,.54-2.99,.54-5.72,.54-.14-.86-.61-2.27-1.04-3.13,1.84,.07,3.78,.07,4.32,.07,.54-.04,.72-.22,.72-.72v-5.94c-4,1.04-8.13,2.09-11.3,2.84l-1.04-2.81c3.13-.61,7.77-1.69,12.35-2.77v-7.31h-12.63v7.34c0,4-.32,9.32-2.34,12.78-.54-.58-1.91-1.55-2.63-1.91,1.73-3.1,1.87-7.42,1.87-10.91v-10.33h7.88v-10.11h3.38v10.11h7.74v19.08Zm-16.52-20.09c-.5-1.8-1.94-4.64-3.42-6.69l2.84-1.26c1.48,1.98,3.02,4.68,3.6,6.48l-3.02,1.48Zm2.81,5.94c2.95,.61,6.73,1.87,8.75,2.92l-1.44,2.34c-1.94-1.08-5.69-2.48-8.67-3.17l1.37-2.09Zm14.97-12.89c-1.19,2.41-2.63,5-3.82,6.73l-2.92-1.15c1.19-1.84,2.74-4.68,3.53-6.8l3.2,1.22Z" style="fill: #9e8578;"/>
      <path d="M244.24,156.76c1.33-1.98,2.7-5.04,3.53-7.34l2.92,1.22c-.86,2.34-2.09,5.51-3.38,7.6l-3.06-1.48Zm15.33-9.39h-10.04v-17.24h8.31c.43-1.12,.94-2.59,1.15-3.63l4,.61c-.5,1.08-1.12,2.12-1.58,3.02h10.26v17.24h-10.98c1.66,1.55,3.46,3.64,4.32,5.08l-2.77,1.66c-.79-1.58-2.77-3.96-4.57-5.62l1.91-1.12Zm5.51,8.89c1.8,0,2.12-.5,2.3-4.03,.76,.54,2.16,1.04,3.1,1.22-.47,4.75-1.48,5.87-5.18,5.87h-7.56c-4.54,0-5.69-.94-5.69-4.17v-5.47h3.35v5.4c0,1.01,.4,1.19,2.59,1.19h7.09Zm-12.31-21.17h15.55v-2.34h-15.55v2.34Zm0,4.79h15.55v-2.34h-15.55v2.34Zm0,4.86h15.55v-2.38h-15.55v2.38Zm19.91,4.07c1.62,2.23,3.38,5.26,4,7.31l-3.17,1.4c-.54-2.05-2.2-5.15-3.78-7.49l2.95-1.22Z" style="fill: #9e8578;"/>
    </g>
    <g>
      <g>
        <line x1="7.64" y1="83.99" x2="383.07" y2="83.99" style="fill: none; stroke: #88202a; stroke-miterlimit: 10; stroke-width: 3.05px;"/>
        <line x1="7.64" y1="76.28" x2="383.07" y2="76.28" style="fill: none; stroke: #88202a; stroke-miterlimit: 10; stroke-width: 1.02px;"/>
      </g>
      <g>
        <rect x="1.18" y="85.37" width="6.62" height="6.62" transform="translate(8.98 177.37) rotate(180)" style="fill: #88202a;"/>
        <rect x="383.07" y="85.55" width="6.62" height="6.62" transform="translate(772.76 177.72) rotate(180)" style="fill: #88202a;"/>
      </g>
    </g>
    <g>
      <g>
        <line x1="382.05" y1="200.78" x2="6.62" y2="200.78" style="fill: none; stroke: #88202a; stroke-miterlimit: 10; stroke-width: 3.05px;"/>
        <line x1="382.05" y1="208.49" x2="6.62" y2="208.49" style="fill: none; stroke: #88202a; stroke-miterlimit: 10; stroke-width: 1.02px;"/>
      </g>
      <g>
        <rect x="381.89" y="192.77" width="6.62" height="6.62" style="fill: #88202a;"/>
        <rect y="192.6" width="6.62" height="6.62" style="fill: #88202a;"/>
      </g>
    </g>
    <g>
      <path d="M184.24,5.83c1-.4,1.73-1.21,1.53-2.51-.15-1.01-1.09-1.78-2.6-1.54-4.86,.74-8.42,10.88-10.91,22.19h-.42c-.04-.69-.06-1.41-.17-2.09-.79-5.16-3.46-9.73-4.36-14.82h-.06c-1.87,6.06-4.68,18.03-12.28,19.19-2.14,.33-4.28-.8-4.63-3.09-.18-1.19,.39-2.19,1.49-2.35,.86-.13,1.57,.34,1.68,1.05,.12,.77-.23,1.31-.94,1.57,.11,1.71,1.22,2.45,2.86,2.2,6.38-.97,9.36-11.63,10.99-16.86l.72-2.42c-.02-3.31,1.39-4.4,1.96-4.49,.21-.03,.31,.04,.33,.19,.04,.3-.37,.54-.07,2.53,.31,2.02,1.04,4.03,1.82,6.13,.75,2.1,1.51,4.29,1.87,6.7,.06,.42,.1,.86,.11,1.29h.06c1.21-5.02,4.79-17.71,10.93-18.65,1.69-.26,3.02,.48,3.26,2.05,.3,1.99-1.46,3.59-3.14,3.91l-.03-.18Z" style="fill: #8a202a;"/>
      <path d="M196.77,13.85c-1.16,1.7-2.44,3.41-4.31,5.26-2.65,2.6-5.2,3.49-7.41,3.59-2.28,.1-3.75-1.34-3.84-3.5-.16-3.84,4.85-8.07,8.6-8.23,1.71-.07,2.76,.57,2.81,1.77,.12,2.91-6.36,4.44-8.44,4.98-.07,.36-.12,.73-.1,1.08,.07,1.71,1.14,2.86,2.85,2.79,1.68-.07,3.73-1.21,5.69-3.18,1.5-1.53,2.92-3.34,3.94-4.76l.22,.2Zm-7.43-2.51c-2.01,.08-4.69,4.04-5.12,6.07,3.24-.8,6.04-3.38,5.96-5.33-.02-.54-.36-.77-.84-.75Z" style="fill: #8a202a;"/>
      <path d="M203.5,11.38c-1.53,2.04-5.53,6.2-5.68,8.71-.04,.66,.2,1.24,.92,1.29,1.47,.09,3.18-1.47,5.38-4.55,1.51-2.14,2.89-4.25,3.54-5.08l3.21,.07c-1.47,2.08-5.58,6.56-5.73,9.01-.04,.75,.28,1.31,1.03,1.35,3.12,.18,6.76-5.04,7.1-7.76-.22-.37-.4-.8-.37-1.37,.05-.78,.54-1.44,1.43-1.39,1.32,.08,1.54,1.38,1.48,2.52-.02,.42-.12,1.11-.25,1.67,.6,.55,1.27,.89,2.05,.93,1.35,.08,2.42-.76,3.23-1.71l.2,.16c-.84,1.06-2.1,1.98-3.45,1.9-.87-.05-1.57-.42-2.11-.91-1.42,3.79-5.46,6.53-9.48,6.3-2.16-.13-3.04-1.41-2.95-3.06,.02-.36,.1-.71,.17-.89l-.06-.06c-1.43,1.84-3.28,3.65-5.68,3.51-1.5-.09-2.12-1.24-2.04-2.64,.15-2.55,3.36-6.05,4.86-8.07l3.18,.07Z" style="fill: #8a202a;"/>
      <path d="M224.43,24.08c4.17-.25,7.45-3.31,10.5-6.23l.21,.22c-3.8,3.65-7.42,7.11-13.17,6.2-2.04-.33-4.12-1.44-3.73-3.84,.2-1.24,1.17-2.58,2.56-2.36,.92,.15,1.32,.85,1.22,1.5-.13,.83-.77,1.18-1.39,1.09-.24-.04-.44-.1-.63-.25-.26,.32-.48,.71-.55,1.16-.17,1.1,.68,2.05,1.83,2.24,1.45,.23,3.18-.53,3.43-2.07,.17-1.04-.3-1.96-.77-2.83-.47-.89-.94-1.76-.79-2.68,.35-2.22,2.79-2.99,4.89-2.66,1.9,.3,3.21,1.39,2.98,2.87-.18,1.13-1.17,1.82-2.3,1.64-.36-.06-.67-.2-.84-.29,.54-.7,.84-1.48,.96-2.22,.13-.8-.21-1.55-1.13-1.7-1.1-.17-1.84,.5-2.01,1.53-.17,1.1,.29,1.99,.76,2.89,.47,.86,.93,1.79,.74,2.97-.25,1.54-1.58,2.67-2.78,2.75v.06Z" style="fill: #8a202a;"/>
    </g>
  </g>
</svg>