<?xml version="1.0" encoding="UTF-8"?>
<svg id="b" data-name="圖層 2" xmlns="http://www.w3.org/2000/svg" width="26.93" height="30.18" viewBox="0 0 26.93 30.18">
  <g id="c" data-name="首頁">
    <path d="M9.12,28.93c.91,.32,1.84,.54,2.79,.65,3.82,.46,7.8-.78,10.73-3.7,5.06-5.06,5.06-13.27,0-18.34-5.06-5.06-13.27-5.06-18.34,0s-5.06,13.27,0,18.34" style="fill: none; stroke: #fdf6ea; stroke-miterlimit: 10;"/>
    <g>
      <path d="M21.5,23.87c0-4.13-3.7-7.47-8.26-7.47s-8.26,3.34-8.26,7.47" style="fill: none; stroke: #fdf6ea; stroke-miterlimit: 10;"/>
      <line x1="6.24" y1="23.87" x2="20.06" y2="23.87" style="fill: none; stroke: #fdf6ea; stroke-miterlimit: 10;"/>
    </g>
    <path d="M11.74,14.61c.42,.28,.9,.43,1.41,.43,1.57,0,2.85-1.48,2.85-3.31s-1.28-3.31-2.85-3.31-2.85,1.48-2.85,3.31c0,.78,.23,1.49,.61,2.05" style="fill: none; stroke: #fdf6ea; stroke-miterlimit: 10;"/>
    <g>
      <path d="M13.47,3.84l-4.01-.99c-.77-.19-1.14-1.07-.75-1.75h0c.4-.69,1.34-.8,1.89-.23l2.86,2.97Z" style="fill: none; stroke: #fdf6ea; stroke-miterlimit: 10;"/>
      <path d="M13.44,3.84l4.01-.99c.77-.19,1.14-1.07,.75-1.75h0c-.4-.69-1.34-.8-1.89-.23l-2.86,2.97Z" style="fill: none; stroke: #fdf6ea; stroke-miterlimit: 10;"/>
      <path d="M19.16,6.38c-3.17,0-5.74-1.18-5.74-2.64" style="fill: none; stroke: #fdf6ea; stroke-miterlimit: 10;"/>
      <path d="M13.42,3.74c0,1.46-2.57,2.64-5.74,2.64" style="fill: none; stroke: #fdf6ea; stroke-miterlimit: 10;"/>
    </g>
  </g>
</svg>