<?xml version="1.0" encoding="UTF-8"?>
<svg id="b" data-name="圖層 2" xmlns="http://www.w3.org/2000/svg" width="31.72" height="25.65" viewBox="0 0 31.72 25.65">
  <g id="c" data-name="首頁">
    <path d="M31.52,1.19h0c0-.55-.47-.99-1.06-.99h-2.79c-.46,0-.84,.27-.99,.65-2.75,.29-3.24,2.05-3.3,2.3l-4.46,15.58H6.99c-.21,0-.37,.16-.37,.35s.17,.35,.37,.35h12.21c.17,0,.32-.11,.36-.26L24.1,3.32s0-.03,0-.04c.01-.07,.29-1.47,2.57-1.74,.15,.37,.54,.63,.99,.63h2.79c.59,0,1.06-.44,1.06-.99Z" style="fill: #fdf6ea; stroke: #fdf6ea; stroke-miterlimit: 10; stroke-width: .4px;"/>
    <path d="M5.03,21.1c-1.22,0-2.22,.98-2.22,2.17s.99,2.17,2.22,2.17,2.22-.98,2.22-2.17-.99-2.17-2.22-2.17Zm0,3.65c-.81,0-1.47-.66-1.47-1.47s.66-1.47,1.47-1.47,1.47,.66,1.47,1.47-.66,1.47-1.47,1.47Z" style="fill: #fdf6ea; stroke: #fdf6ea; stroke-miterlimit: 10; stroke-width: .4px;"/>
    <path d="M17.49,21.1c-1.22,0-2.22,.98-2.22,2.17s.99,2.17,2.22,2.17,2.22-.98,2.22-2.17-.99-2.17-2.22-2.17Zm0,3.65c-.81,0-1.47-.66-1.47-1.47s.66-1.47,1.47-1.47,1.47,.66,1.47,1.47-.66,1.47-1.47,1.47Z" style="fill: #fdf6ea; stroke: #fdf6ea; stroke-miterlimit: 10; stroke-width: .4px;"/>
    <path d="M5.21,19.43c.21,0,.37-.16,.37-.35s-.17-.35-.37-.35h-1.81L1.03,6.94H20.24c.21,0,.37-.16,.37-.35s-.17-.35-.37-.35H.57c-.11,0-.22,.05-.29,.13-.07,.08-.1,.19-.08,.29l2.52,12.48c.03,.17,.19,.29,.37,.29h2.12Z" style="fill: #fdf6ea; stroke: #fdf6ea; stroke-miterlimit: 10; stroke-width: .4px;"/>
    <path d="M15.14,10.66c.2-.05,.31-.25,.25-.43-.06-.19-.27-.29-.46-.24l-1.9,.52-.39-1.38c-.05-.19-.26-.3-.46-.25-.2,.05-.32,.24-.27,.43l.39,1.4-3.79,1.04-.73-2.61c-.05-.19-.26-.3-.46-.25-.2,.05-.32,.24-.27,.43l.73,2.63-1,.27c-.2,.05-.31,.25-.25,.43,.05,.15,.2,.25,.36,.25,.03,0,.07,0,.11-.01l.97-.27,.61,2.19-1.8,.49c-.2,.05-.31,.25-.25,.43,.05,.15,.2,.25,.36,.25,.03,0,.07,0,.11-.01l1.78-.49,.52,1.86c.04,.16,.2,.26,.36,.26,.03,0,.06,0,.09-.01,.2-.05,.32-.24,.27-.43l-.52-1.88,3.79-1.04,.86,3.1c.04,.16,.2,.26,.36,.26,.03,0,.06,0,.09-.01,.2-.05,.32-.24,.27-.43l-.87-3.11,1.12-.31c.2-.05,.31-.25,.25-.43-.06-.19-.27-.29-.46-.24l-1.1,.3-.61-2.19,1.92-.53Zm-2.03,2.92l-3.79,1.04-.61-2.19,3.79-1.04,.61,2.19Z" style="fill: #fdf6ea; stroke: #fdf6ea; stroke-miterlimit: 10; stroke-width: .4px;"/>
  </g>
</svg>