<?xml version="1.0" encoding="UTF-8"?>
<svg id="b" data-name="圖層 2" xmlns="http://www.w3.org/2000/svg" width="389.69" height="203.21" viewBox="0 0 389.69 203.21">
  <g id="c" data-name="圖層 1">
    <g>
      <g>
        <path d="M134.71,154.12v3.38h-40.18v-3.38h17.73v-3.2h-14.4v-3.28h14.4v-2.57h-13v-13.99h13v-2.29h-17.5v-3.33h17.5v-2.65c-4.5,.27-9.09,.4-13.27,.49-.04-.99-.54-2.43-.85-3.28,10.35-.27,22.72-1.08,29.97-2.34l2.12,3.28c-3.87,.68-8.69,1.17-13.77,1.53v2.97h17.95v3.33h-17.95v2.29h13.72v13.99h-13.72v2.57h15.39v3.28h-15.39v3.2h18.27Zm-31.36-17.37h8.91v-2.79h-8.91v2.79Zm8.91,5.4v-2.75h-8.91v2.75h8.91Zm4.19-8.19v2.79h9.45v-2.79h-9.45Zm9.45,5.44h-9.45v2.75h9.45v-2.75Z" style="fill: #a08778;"/>
        <path d="M165.4,128.38h-17.19v-3.33h7.96c-.67-1.67-2.02-4.23-3.24-6.08l3.28-1.67c1.22,1.89,2.7,4.27,3.33,5.89l-3.29,1.85h9.13v3.33Zm-1.89,4.63c4.68-2.61,5.4-6.03,5.4-9.04v-4.86h14.22v10.12c0,1.26,.09,1.71,.67,1.71h2.29c.54,0,1.48-.09,2.02-.27,.09,1.08,.18,2.57,.31,3.51-.54,.23-1.48,.27-2.34,.27h-2.65c-3.46,0-4.19-1.49-4.19-5.35v-6.12h-6.52v1.08c0,4.14-1.22,9-6.66,12.15-.5-.81-1.76-2.25-2.52-2.97v1.08h-13.41v-3.29h13.36v1.98Zm23.49,5.04c-1.53,5.45-4.18,9.67-7.56,13,2.88,1.75,6.25,3.06,9.99,3.87-.85,.86-2.02,2.61-2.61,3.78-4.1-1.04-7.65-2.7-10.75-4.91-3.19,2.25-6.88,3.87-10.8,5.04-.36-.94-1.04-2.25-1.71-3.24v.63h-9.81v2.02h-3.6v-15.21h13.41v11.97c3.33-.86,6.48-2.16,9.27-3.96-2.61-2.57-4.77-5.67-6.39-9.22l2.43-.86h-4.05v-3.92h18.9l.72-.13,2.56,1.12Zm-36.85-1.04h13.45v3.24h-13.45v-3.24Zm9.76,9.41h-6.16v6.43h6.16v-6.43Zm10.26-5.45c1.4,2.92,3.37,5.45,5.89,7.6,2.34-2.11,4.27-4.63,5.67-7.6h-11.56Z" style="fill: #a08778;"/>
        <path d="M219.99,142.74c-2.61,0-4.23-.27-5.22-.94-3.42,1.44-6.97,2.7-10.48,3.73-.54-.95-1.71-2.66-2.43-3.51,4-.95,7.96-2.21,11.65-3.78v-8.41h3.73v6.75c5.4-2.7,10.12-6.03,13.32-10.04l3.51,1.8c-3.69,4.5-8.68,8.14-14.4,11.11h8.95c2.07,0,2.48-.63,2.65-4.63,.85,.58,2.39,1.12,3.42,1.31-.49,5.35-1.62,6.61-5.76,6.61h-8.95Zm-8.5-10.84c-1.35,2.83-3.29,6.17-5.85,8.28l-3.33-2.03c2.43-1.98,4.59-5.08,5.8-7.78l3.38,1.53Zm-3.78-1.71h-4.1v-9h16.96c-.27-1.12-.67-2.43-1.08-3.46l4-.67c.58,1.26,1.08,2.88,1.44,4.14h16.65v9h-4.27v-5.26h-29.61v5.26Zm26.28,15.57h4.18v12.92h-4.18v-1.71h-26.73v-10.67h4.09v6.71h9v-9h4.23v9h9.4v-7.25Zm-10.71-13.59c-1.62-1.49-4.9-3.51-7.65-4.68l2.02-2.43c2.7,1.08,6.12,2.92,7.78,4.36l-2.16,2.75Zm12.28-1.58c2.75,2.34,6.03,5.76,7.51,8.1l-3.19,2.21c-1.4-2.25-4.59-5.8-7.29-8.28l2.97-2.03Z" style="fill: #a08778;"/>
        <path d="M262.92,153.26v3.56h-3.6v-13.23c-.54,.99-1.12,1.93-1.75,2.83-.4-.95-1.67-3.02-2.38-3.87,3.19-4.68,4.99-11.79,6.03-19.3h-4.9v-3.82h16.6v3.82h-7.69c-.54,3.51-1.21,6.97-2.07,10.21h8.23v19.8h-8.46Zm4.77-16.15h-4.77v12.46h4.77v-12.46Zm3.15,18.09c1.85-2.25,2.7-6.03,3.1-9.72l3.15,.76c-.45,3.92-1.26,8.05-3.33,10.58l-2.92-1.62Zm25.74-15.16s0,1.12-.05,1.62c-.49,10.35-.99,14.35-2.11,15.71-.81,.94-1.62,1.3-2.88,1.44-.99,.09-2.88,.13-4.9,.04-.04-1.08-.4-2.65-1.03-3.6,1.8,.13,3.42,.18,4.14,.18,.67,0,1.03-.09,1.35-.5,.45-.54,.81-1.89,1.08-4.68l-1.98,.9c-.49-1.49-1.62-3.69-2.74-5.31l2.16-.9c1.04,1.35,2.07,3.2,2.66,4.59,.13-1.53,.27-3.46,.36-5.85h-18.04v-24.39h21.1v3.69h-8.15v3.33h7.02v3.28h-7.02v3.51h7.02v3.33h-7.02v3.6h9.04Zm-15.48,6.61c.54,2.66,.85,5.94,.81,8.14l-2.97,.5c.09-2.21-.18-5.62-.63-8.23l2.79-.41Zm-2.7-23.67v3.33h5.4v-3.33h-5.4Zm5.4,6.61h-5.4v3.51h5.4v-3.51Zm-5.4,10.44h5.4v-3.6h-5.4v3.6Zm7.2,5.98c.85,2.16,1.71,4.95,2.02,6.79l-2.79,.81c-.27-1.89-.99-4.68-1.85-6.88l2.61-.72Z" style="fill: #a08778;"/>
      </g>
      <g>
        <g>
          <line x1="7.64" y1="78.2" x2="383.07" y2="78.2" style="fill: none; stroke: #88202a; stroke-miterlimit: 10; stroke-width: 3.05px;"/>
          <line x1="7.64" y1="70.48" x2="383.07" y2="70.48" style="fill: none; stroke: #88202a; stroke-miterlimit: 10; stroke-width: 1.02px;"/>
        </g>
        <g>
          <rect x="1.18" y="79.58" width="6.62" height="6.62" transform="translate(8.98 165.79) rotate(180)" style="fill: #88202a;"/>
          <rect x="383.07" y="79.76" width="6.62" height="6.62" transform="translate(772.76 166.14) rotate(180)" style="fill: #88202a;"/>
        </g>
      </g>
      <g>
        <g>
          <line x1="382.05" y1="194.98" x2="6.62" y2="194.98" style="fill: none; stroke: #88202a; stroke-miterlimit: 10; stroke-width: 3.05px;"/>
          <line x1="382.05" y1="202.7" x2="6.62" y2="202.7" style="fill: none; stroke: #88202a; stroke-miterlimit: 10; stroke-width: 1.02px;"/>
        </g>
        <g>
          <rect x="381.89" y="186.98" width="6.62" height="6.62" style="fill: #88202a;"/>
          <rect x="0" y="186.8" width="6.62" height="6.62" style="fill: #88202a;"/>
        </g>
      </g>
      <g>
        <path d="M132.8,3.25l-3.67,14.28,.09,.04c1.06-2.84,2.22-7.05,5.46-8.16,1.59-.54,3.05,.25,3.61,1.91,.74,2.15,.37,4.54-.47,6.41l.09,.04c2.78-1.62,4.82-4.94,5.9-7.86l.31,.15c-.96,2.7-2.91,6.43-6.45,8.31-1.22,2.16-3.28,5.34-5.73,6.18-.93,.32-1.84,.26-2.14-.64-.63-1.86,3.39-3.71,5.18-4.66,.4-1.32,1.06-4.14,.23-6.59-.33-.96-.9-1.88-2.03-1.49-3.94,1.35-6.75,21.51-8.26,27.02l-3.47,1.33c2.66-11.49,5.26-23.37,7.83-34.9l3.52-1.39Zm-.6,20.55c1.26-.43,2.22-2.72,2.69-4.03-1.12,.61-4.38,2.13-3.87,3.62,.16,.46,.51,.64,1.18,.41Z" style="fill: #940e26;"/>
        <path d="M156.67,4.52l3.51-1c-.72,2.71-4.23,9.84-3.69,12.26,.14,.62,.53,.78,1.04,.66,1.09-.24,2.8-2.09,4.38-4.63,1.32-2.12,2.79-5.03,3.36-6.31l.27,.08c-.85,1.84-1.91,4.15-3.57,6.82-1.67,2.67-3.47,4.68-5.56,5.15-1.44,.32-2.48-.34-2.72-1.44-.08-.34-.13-.73-.06-.92l-.07,.02c-1.05,1.88-2.61,3.56-4.63,4.01-2.22,.5-3.44-1.13-3.87-3.05-.99-4.44,3.34-10.61,7.57-11.55,1.57-.35,2.58,.14,3.48,1.45l.55-1.56Zm-6.04,13.11c2.86-.85,5.09-8.52,4.52-11.08-.27-1.23-.81-1.86-2.11-1.57-3.14,.7-5.29,7.81-4.67,10.58,.29,1.3,.86,2.39,2.26,2.08Z" style="fill: #940e26;"/>
        <path d="M178.81,1.42l3.6-.6c-1.02,2.61-5.31,9.3-5.04,11.77,.07,.63,.44,.83,.96,.78,1.11-.12,3.01-1.77,4.88-4.11,1.55-1.96,3.34-4.69,4.05-5.89l.26,.11c-1.05,1.73-2.36,3.91-4.32,6.38-1.95,2.46-3.98,4.26-6.1,4.49-1.46,.16-2.42-.62-2.54-1.73-.04-.35-.04-.73,.04-.92h-.07c-1.26,1.76-3,3.25-5.05,3.47-2.26,.24-3.29-1.51-3.5-3.46-.48-4.52,4.51-10.16,8.83-10.62,1.6-.17,2.55,.43,3.29,1.83l.72-1.49Zm-7.48,12.35c2.94-.53,6.02-7.9,5.74-10.51-.13-1.25-.59-1.94-1.92-1.8-3.2,.34-6.13,7.17-5.83,9.99,.14,1.32,.58,2.47,2.01,2.32Z" style="fill: #940e26;"/>
        <path d="M193.12,12.81c4.74-1.13,7.89-5.31,10.8-9.27l.28,.21c-3.63,4.96-7.09,9.67-13.88,9.78-2.41,.04-5.02-.83-5.06-3.66-.02-1.47,.82-3.2,2.47-3.22,1.08-.02,1.69,.71,1.7,1.48,.02,.98-.64,1.52-1.38,1.53-.28,0-.53-.03-.77-.16-.24,.42-.41,.92-.4,1.44,.02,1.29,1.19,2.22,2.56,2.2,1.71-.03,3.55-1.25,3.52-3.07-.02-1.22-.74-2.19-1.45-3.09-.71-.93-1.43-1.83-1.45-2.92-.04-2.62,2.6-4,5.08-4.04,2.24-.04,3.97,.95,4,2.7,.02,1.33-.98,2.33-2.31,2.35-.42,0-.81-.09-1.02-.16,.48-.92,.67-1.87,.66-2.74-.02-.95-.55-1.74-1.64-1.72-1.29,.02-2.01,.94-1.99,2.17,.02,1.29,.74,2.23,1.45,3.16,.71,.9,1.43,1.87,1.45,3.27,.03,1.82-1.28,3.38-2.63,3.72v.07Z" style="fill: #940e26;"/>
        <path d="M212.41,1.09c-1.9,2.3-6.79,6.92-7.1,9.84-.08,.77,.16,1.46,1,1.55,1.71,.18,3.79-1.53,6.52-5.01,1.87-2.41,3.61-4.79,4.41-5.73l3.74,.26c-1.83,2.34-6.87,7.33-7.17,10.19-.09,.87,.26,1.54,1.13,1.63,3.62,.38,8.15-5.51,8.7-8.65-.23-.45-.43-.96-.36-1.62,.1-.91,.7-1.65,1.75-1.54,1.53,.16,1.72,1.7,1.58,3.02-.05,.49-.21,1.28-.38,1.93,.67,.67,1.43,1.1,2.34,1.2,1.57,.17,2.86-.75,3.85-1.81l.23,.2c-1.04,1.19-2.56,2.19-4.12,2.03-1.01-.11-1.8-.58-2.41-1.17-1.87,4.34-6.72,7.31-11.39,6.82-2.51-.27-3.47-1.81-3.27-3.73,.04-.42,.16-.83,.25-1.03l-.06-.08c-1.77,2.07-4.02,4.08-6.81,3.78-1.74-.18-2.4-1.56-2.23-3.19,.31-2.96,4.25-6.87,6.11-9.14l3.7,.25Z" style="fill: #940e26;"/>
        <path d="M252.77,11.93c-1.19,.94-2.73,1.8-4.23,1.45-1.06-.25-1.66-.89-2.11-1.87-2.13,4.28-7.22,7.11-11.95,5.99-2.49-.59-3.76-2.51-3.17-4.99,1.14-4.84,7.62-7.76,12.15-6.69,2.42,.57,3.52,2.45,3.39,4.36-.08,1.42,.52,2.5,1.79,2.79,1.23,.29,2.42-.18,3.99-1.36l.14,.32Zm-8.5-3.59c.27-1.12-.05-1.92-1.07-2.16-3.44-.81-8.78,5.95-9.45,8.81-.27,1.12,.05,1.92,1.07,2.16,3.44,.81,8.77-5.95,9.45-8.81Z" style="fill: #940e26;"/>
        <path d="M246.82,19.78c3.58-3.1,7.24-6.14,10.88-9.3l3.82,1.16-6.48,4.66,.04,.09c4.72-2.97,6.89-3.04,7.78-3.48,1.29-.63,1.89-.54,4.39,.25-1.24,.91-2.54,1.91-3.05,3.4-.34,.99-.02,1.58,.94,1.91,1.26,.43,2.78-.34,3.86-.9l.08,.21c-1.75,1.1-3.84,1.61-5.83,.93-1.75-.6-2.52-1.94-1.91-3.72,.19-.56,.6-1.09,1.05-1.45l-.04-.09c-4.59,1.2-8.96,4.44-12.15,7.38l-3.38-1.05Z" style="fill: #940e26;"/>
        <path d="M294.58,13.05l3.65,1.45c-7.37,4.97-21.43,12.99-22.56,15.44-.21,.45-.13,.87,.32,1.07,.89,.41,2.91,.3,5.72-.8,2.29-.87,4.42-1.9,7.13-3.35l.24,.31c-1.49,.82-4.37,2.3-6.72,3.22-3,1.16-5.43,1.74-7.52,.78-1.94-.89-1.79-2.56-1.06-3.57l-.03-.09c-1.93,.77-3.94,1.11-5.98,.18s-2.05-2.83-1.26-4.55c1.96-4.26,8.89-6.51,13.02-4.6,1.43,.66,2.05,1.83,1.93,3.35l13.12-8.83Zm-14.26,8.46c.57-1.24,.12-2.1-.87-2.56-2.64-1.21-8.54,2.66-9.99,5.8-.47,1.02-.49,2.16,.65,2.69,2.73,1.26,8.89-3.08,10.21-5.94Z" style="fill: #940e26;"/>
      </g>
    </g>
  </g>
</svg>