<?xml version="1.0" encoding="UTF-8"?>
<svg id="b" data-name="圖層 2" xmlns="http://www.w3.org/2000/svg" width="208.76" height="71.49" viewBox="0 0 208.76 71.49">
  <g id="c" data-name="圖層 1">
    <line x1="208.76" y1="71.12" x2="0" y2="71.12" style="fill: none; stroke: #89202a; stroke-miterlimit: 10; stroke-width: .75px;"/>
    <line x1="208.76" y1="21.12" x2="0" y2="21.12" style="fill: none; stroke: #89202a; stroke-miterlimit: 10; stroke-width: .75px;"/>
    <g>
      <path d="M100.81,5.85s-12.84-8.13-19.21-3.34c-1.7,1.28-2.13,3.43-.91,5.16,1.57,2.23,7.52,4.19,18.64,2.41" style="fill: none; stroke: #c7ba99; stroke-miterlimit: 10; stroke-width: 2px;"/>
      <path d="M108.06,5.85s12.84-8.13,19.21-3.34c1.7,1.28,2.13,3.43,.91,5.16-1.57,2.23-7.52,4.19-18.64,2.41" style="fill: none; stroke: #c7ba99; stroke-miterlimit: 10; stroke-width: 2px;"/>
      <path d="M108.06,5.85s12.84-8.13,19.21-3.34c1.7,1.28,2.13,3.43,.91,5.16-1.57,2.23-7.52,4.19-18.64,2.41" style="fill: none; stroke: #89202a; stroke-miterlimit: 10; stroke-width: .5px;"/>
      <line x1="104.41" y1="5.02" x2="104.41" y2="10.77" style="fill: none; stroke: #c7ba99; stroke-linecap: round; stroke-linejoin: round; stroke-width: 1.5px;"/>
      <line x1="106.48" y1="5.02" x2="106.48" y2="10.77" style="fill: none; stroke: #c7ba99; stroke-linecap: round; stroke-linejoin: round; stroke-width: 1.5px;"/>
      <line x1="102.35" y1="5.02" x2="102.35" y2="10.77" style="fill: none; stroke: #c7ba99; stroke-linecap: round; stroke-linejoin: round; stroke-width: 1.5px;"/>
      <path d="M100.81,5.85s-12.84-8.13-19.21-3.34c-1.7,1.28-2.13,3.43-.91,5.16,1.57,2.23,7.52,4.19,18.64,2.41" style="fill: none; stroke: #89202a; stroke-miterlimit: 10; stroke-width: .5px;"/>
      <g>
        <line x1="104.41" y1="5.02" x2="104.41" y2="10.77" style="fill: none; stroke: #89202a; stroke-miterlimit: 10; stroke-width: .5px;"/>
        <line x1="106.48" y1="5.02" x2="106.48" y2="10.77" style="fill: none; stroke: #89202a; stroke-miterlimit: 10; stroke-width: .5px;"/>
        <line x1="102.35" y1="5.02" x2="102.35" y2="10.77" style="fill: none; stroke: #89202a; stroke-miterlimit: 10; stroke-width: .5px;"/>
      </g>
    </g>
    <g>
      <path d="M37.52,37.17c-.58,5.38-1.9,9.57-3.82,12.8,1.3,1.85,2.9,3.35,4.85,4.38-.53,.45-1.27,1.32-1.6,1.9-1.85-1.07-3.4-2.47-4.7-4.2-1.35,1.72-2.97,3.07-4.77,4.15-.33-.55-.95-1.35-1.45-1.8v2.05h-2.25v-4.28c-3.02,.5-6.1,1-8.42,1.38l-.42-2.32c.7-.07,1.47-.2,2.35-.3v-13.72h-1.83v-2.15h12.25v1.8h7.92l.4-.08,1.5,.4Zm-18.02,.03v2.9h4.27v-2.9h-4.27Zm0,8.02h4.27v-3.05h-4.27v3.05Zm4.27,4.8v-2.7h-4.27v3.3l4.27-.6Zm2.25,4.25c1.85-.97,3.47-2.45,4.85-4.35-1.62-2.88-2.75-6.35-3.55-10.27l2.25-.45c.57,3.1,1.45,5.97,2.7,8.45,1.25-2.38,2.17-5.25,2.7-8.52h-7.92v-1.92h-1.03v17.07Z" style="fill: #727171;"/>
      <path d="M69.78,38.42c-.95,.62-1.9,1.22-2.85,1.7-.35-.45-1.17-1.27-1.67-1.67,2.67-1.15,5.52-3.05,7.2-5.05l2.07,.8c-.7,.9-1.58,1.75-2.52,2.53v5.02h-2.22v-3.32Zm5.2,15.02c-2.03,1.22-5.17,2.42-7.67,3.12-.4-.48-1.22-1.33-1.75-1.75,2.57-.5,5.55-1.38,7.27-2.35l2.15,.97Zm5.65-1c2.55,.85,5.3,1.9,7,2.7l-2,1.32c-1.52-.82-4.17-1.97-6.75-2.85l1.42-1.18h-11.6v-10.05h16.3v10.05h-4.37Zm-9.67-7.15h11.72v-1.42h-11.72v1.42Zm0,2.8h11.72v-1.4h-11.72v1.4Zm0,2.88h11.72v-1.45h-11.72v1.45Zm8.57-9.42c-2.58,0-3.22-.88-3.22-3.05v-4.87h2.32v1.88h7.77v1.88h-7.77v1.15c0,.8,.17,1.12,1.08,1.12h5c.8,0,2.08-.07,2.62-.17,.08,.65,.15,1.37,.25,1.9-.55,.12-1.7,.18-2.72,.18h-5.32Z" style="fill: #727171;"/>
      <path d="M124.95,39.97c-.08,1.18-.15,2.38-.3,3.55h10.62s-.02,.72-.1,1.05c-.48,6.9-.95,9.65-1.95,10.67-.67,.68-1.32,.88-2.37,.97-.92,.08-2.55,.05-4.22-.05-.03-.68-.35-1.62-.83-2.28,1.77,.15,3.47,.18,4.17,.18,.55,0,.88-.05,1.2-.3,.7-.57,1.15-2.9,1.55-8h-8.42c-.8,4.3-2.62,8.32-7.25,10.82-.35-.62-1.07-1.42-1.7-1.9,6.2-3.15,6.77-9.22,7.02-14.72h-6.55v-2.27h10.7c-.32-1-1-2.42-1.57-3.5l2.27-.85c.65,1.12,1.42,2.62,1.77,3.62l-1.67,.72h10.27v2.27h-12.65Z" style="fill: #727171;"/>
      <path d="M180.75,40.27c.55,7.87,2.3,13.82,4.47,13.82,.6,0,.9-1.35,1.05-4.6,.52,.55,1.4,1.1,2.05,1.32-.4,4.5-1.23,5.72-3.3,5.72-4.12,0-6.1-7.27-6.72-16.27h-12.67v-2.27h12.52c-.05-1.43-.1-2.88-.1-4.32h2.5c-.03,1.45,0,2.92,.05,4.32h7.17v2.27h-7.02Zm-7.75,11.8c1.65-.3,3.35-.65,5.02-1l.17,2.1c-4.15,.95-8.62,1.93-11.82,2.62l-.67-2.35c1.35-.22,3.07-.55,4.97-.9v-6.7h-4.15v-2.25h10.85v2.25h-4.37v6.22Zm10.42-18.39c1.22,.8,2.75,2.02,3.47,2.87l-1.62,1.45c-.7-.88-2.15-2.18-3.37-3.05l1.52-1.27Z" style="fill: #727171;"/>
    </g>
  </g>
</svg>