<?xml version="1.0" encoding="UTF-8"?>
<svg id="b" data-name="圖層 2" xmlns="http://www.w3.org/2000/svg" width="389.69" height="212.74" viewBox="0 0 389.69 212.74">
  <g id="c" data-name="圖層 1">
    <g>
      <path d="M132.6,152.21c-.43,2.05-1.33,3.96-2.99,5.65,4.61,1.8,10.65,2.2,18.29,2.27-.61,.79-1.22,2.2-1.4,3.31-8.06-.29-14.61-.9-19.65-3.38-2.34,1.48-5.62,2.7-10.01,3.64-.4-.76-1.3-2.2-2.05-2.95,3.92-.68,6.77-1.58,8.93-2.63-1.62-1.22-2.99-2.77-4.18-4.64l2.92-1.15c1.12,1.62,2.45,2.92,4.03,3.96,1.37-1.22,2.12-2.59,2.56-4.07h-10.37v-14.18h10.91v-2.59h-14.07v-3.02h31.14v3.02h-13.57v2.59h11.3v14.18h-11.77Zm-10.76-8.39h7.74v-3.06h-7.74v3.06Zm7.67,5.65c.07-.58,.07-1.15,.07-1.76v-1.3h-7.74v3.06h7.67Zm11.55-3.06h-7.99v1.33c0,.61,0,1.15-.07,1.73h8.06v-3.06Zm-7.99-5.65v3.06h7.99v-3.06h-7.99Z" style="fill: #a08778;"/>
      <path d="M190.23,147.68c-5,10.69-16.99,14.69-30.09,16.09-.22-.97-.79-2.45-1.33-3.24,5.87-.5,11.45-1.55,16.23-3.46-1.19-1.26-2.92-2.74-4.5-4-1.58,.83-3.31,1.62-5.18,2.38-.43-.83-1.37-2.02-2.09-2.59,7.27-2.48,12.31-6.23,14.97-9.75l3.67,.83c-.72,.9-1.44,1.73-2.27,2.56h7.7l.58-.14,2.3,1.33Zm-5.04-12.85c-4.57,8.1-14.9,12.71-24.58,14.65-.32-.83-1.01-2.23-1.58-2.95,3.85-.65,7.78-1.76,11.37-3.31-1.12-1.22-2.74-2.63-4.28-3.74-1.19,.65-2.45,1.33-3.78,1.94-.5-.79-1.51-1.87-2.27-2.41,5.72-2.3,10.04-5.54,12.35-8.46l3.64,.83c-.65,.79-1.4,1.55-2.23,2.3h8.6l.58-.18,2.2,1.33Zm-14.83,1.8c-.54,.43-1.12,.83-1.69,1.19,1.73,1.22,3.53,2.7,4.72,3.89,2.59-1.4,4.9-3.13,6.62-5.08h-9.65Zm5.83,12.85c-.86,.68-1.84,1.33-2.81,1.98,1.69,1.26,3.6,2.84,4.82,4.1,2.84-1.58,5.29-3.56,7.02-6.08h-9.04Z" style="fill: #a08778;"/>
      <path d="M233.25,137.13h-21.02c.72,1.22,1.62,2.84,2.09,3.82l-2.63,1.01h8.6c.83-1.4,1.8-3.38,2.34-4.75l3.35,.72c-.79,1.37-1.66,2.81-2.52,4.03h7.96v18.29c0,1.66-.4,2.34-1.55,2.77-1.15,.43-3.02,.47-6.01,.47-.14-.79-.58-1.84-1.01-2.56,2.09,.07,4.14,.07,4.64,.04,.61,0,.83-.18,.83-.72v-15.59h-6.55v1.73c0,.79,.07,1.08,.72,1.08h2.56c.54,0,1.55-.04,2.05-.18,.07,.79,.11,1.58,.22,2.34-.47,.14-1.4,.18-2.2,.18h-3.35c-2.48,0-2.95-1.12-2.95-3.46v-1.69h-3.42c-.54,3.53-2.16,5.51-7.09,6.59-.25-.72-.9-1.73-1.51-2.27v14.61h-3.17v-21.63h7.63c-.43-1.08-1.33-2.81-1.98-4l2.41-.83h-9.93v-2.84h14.51c-.32-1.01-.76-2.16-1.12-3.1l3.2-.79c.5,1.22,1.08,2.74,1.44,3.89h13.46v2.84Zm-26.46,11.81c3.92-.72,5.22-1.94,5.65-4.28h-5.65v4.28Zm6.66,10.22v1.58h-2.81v-9.97h13.43v8.39h-10.62Zm0-5.97v3.56h7.88v-3.56h-7.88Z" style="fill: #a08778;"/>
      <path d="M245.64,147.89h13.03v15.51h-3.31v-1.62h-6.55v1.87h-3.17v-15.77Zm3.17,3.2v7.49h6.55v-7.49h-6.55Zm22.03-6.7h-20.12v-12.27h20.12v12.27Zm-3.42-9.07h-13.5v5.87h13.5v-5.87Zm8.46,12.56v15.59h-3.35v-1.69h-7.13v1.87h-3.2v-15.77h13.68Zm-3.35,10.69v-7.49h-7.13v7.49h7.13Z" style="fill: #a08778;"/>
    </g>
    <g>
      <g>
        <line x1="7.64" y1="87.73" x2="383.07" y2="87.73" style="fill: none; stroke: #89202a; stroke-miterlimit: 10; stroke-width: 3.05px;"/>
        <line x1="7.64" y1="80.01" x2="383.07" y2="80.01" style="fill: none; stroke: #89202a; stroke-miterlimit: 10; stroke-width: 1.02px;"/>
      </g>
      <g>
        <rect x="1.18" y="89.11" width="6.62" height="6.62" transform="translate(8.98 184.84) rotate(180)" style="fill: #89202a;"/>
        <rect x="383.07" y="89.28" width="6.62" height="6.62" transform="translate(772.76 185.19) rotate(180)" style="fill: #89202a;"/>
      </g>
    </g>
    <g>
      <g>
        <line x1="382.05" y1="204.51" x2="6.62" y2="204.51" style="fill: none; stroke: #89202a; stroke-miterlimit: 10; stroke-width: 3.05px;"/>
        <line x1="382.05" y1="212.23" x2="6.62" y2="212.23" style="fill: none; stroke: #89202a; stroke-miterlimit: 10; stroke-width: 1.02px;"/>
      </g>
      <g>
        <rect x="381.89" y="196.51" width="6.62" height="6.62" style="fill: #89202a;"/>
        <rect x="0" y="196.33" width="6.62" height="6.62" style="fill: #89202a;"/>
      </g>
    </g>
    <g>
      <path d="M107.61,20.3c-5.3,5.94-.15,16.29-3.52,24.96l.08,.02c3.18-5.94,3.14-13.34,4.91-19.54,1.39-4.83,4.24-8.57,6.95-10.05,1.34-.73,1.87-.89,2.09-.49,.2,.37-.4,.7-.69,.86-.45,.25-.93,.37-1.34,.49-.41,.12-.74,.2-.9,.29-4.61,6.08,1.75,18.46-5,26.25l.03,.05,.24-.13c7.34-4.01,7.59-9,7.91-12.98l.28,.02c-.17,4.44-.97,9.42-7.95,13.23-.55,.3-1.27,.62-1.5,.75-.21,.12-.84,.53-1.42,.84-.47,.26-.77,.28-.88,.07-.13-.24-.02-.47,.35-.67,.55-.3,1.29-.46,2.17-.78,1.55-1.29,1.88-6.26,1.55-10.49-.36-4.79,.02-10.71,3.34-15.53l-.08-.02c-6.77,6.37-5.33,16.45-8.32,24.55-.73,1.97-1.66,4.09-2.96,5.79l-.35-.08c2.29-7.44-3.04-15.43,3.11-25.33l-.08-.02c-4.06,4.71-4.79,11.13-5.65,15.94-.93,5.12-1.56,12.03-6.53,14.75-1.79,.98-4.47,1.08-5.55-.9-.59-1.08-.55-2.26,.6-2.9,.66-.36,1.44-.17,1.8,.48,.43,.79,.26,1.47-.48,1.94,.88,1.54,2.31,1.47,3.73,.7,1.87-1.02,3.64-3.29,4.65-7.06,2.33-8.49,1.52-18.47,9.12-25.16l.27,.12Z" style="fill: #8a202a;"/>
      <path d="M135.61,24.36c-.39,1.24-1.06,2.59-2.29,3.07-.87,.33-1.61,.17-2.4-.3,.57,4.06-1.67,8.52-5.56,10.02-2.04,.79-3.87,.04-4.66-2-1.53-3.98,1.64-9.18,5.36-10.62,1.99-.77,3.68,.03,4.51,1.44,.63,1.04,1.58,1.51,2.62,1.11,1.01-.39,1.62-1.3,2.17-2.89l.25,.16Zm-7.75,1.57c-.36-.92-.96-1.33-1.8-1.01-2.83,1.09-3.33,8.46-2.43,10.81,.36,.92,.96,1.33,1.8,1.01,2.83-1.09,3.33-8.46,2.43-10.81Z" style="fill: #8a202a;"/>
      <path d="M135.25,32.78c.98-3.94,2.05-7.88,3.04-11.89l3.25-1.07-2.24,6.47,.07,.04c1.84-4.41,3.33-5.53,3.73-6.28,.59-1.08,1.06-1.31,3.2-2-.42,1.25-.84,2.59-.46,3.88,.25,.86,.76,1.12,1.6,.88,1.09-.32,1.78-1.61,2.26-2.53l.16,.11c-.68,1.64-1.9,3.02-3.63,3.53-1.53,.45-2.72-.11-3.17-1.67-.14-.49-.12-1.06,.02-1.54l-.07-.04c-2.63,3.11-4.09,7.53-4.87,11.17l-2.88,.93Z" style="fill: #8a202a;"/>
      <path d="M165.14,17.29c-.87,1.87-1.85,3.76-3.4,5.89-2.19,3-4.56,4.29-6.73,4.74-2.23,.46-3.92-.72-4.36-2.83-.78-3.76,3.48-8.75,7.15-9.52,1.67-.35,2.81,.12,3.06,1.29,.59,2.85-5.55,5.42-7.52,6.29-.01,.37,0,.74,.07,1.09,.35,1.67,1.59,2.64,3.27,2.29,1.65-.34,3.49-1.8,5.1-4.07,1.23-1.76,2.34-3.77,3.12-5.34l.25,.16Zm-7.74-1.27c-1.97,.41-3.98,4.75-4.06,6.82,3.07-1.31,5.41-4.32,5.02-6.22-.11-.53-.48-.7-.95-.6Z" style="fill: #8a202a;"/>
      <path d="M205.41,.24c-1.19,.22-2.35,.69-3.41,1.3,2.1,.79,3.6,2.36,3.69,4.7,.13,3.48-3.63,5.72-6.69,5.83-1.53,.06-2.67-.71-2.71-1.76-.03-.78,.58-1.49,1.6-1.53,.6-.02,.99,.08,1.3,.28-.74,.42-1.16,1.03-1.14,1.69,.02,.66,.52,.97,1.03,.95,2.16-.08,4.15-4,4.06-6.45-.06-1.5-.52-2.68-1.68-3.3-6.78,5.05-7.96,18.04-17.53,20.7v.06c1.24,.22,3.41,.45,4.67,.4,6.21-.23,11.42-2.85,15.04-8.33l.21,.11c-3.12,5.04-6.66,8.44-13.25,8.68-2.07,.08-5.14-.23-7.17-.7-1.3,.47-3.54,.91-4.95,.96-1.71,.06-3.71-.34-3.74-1.18-.02-.48,.51-.74,1.47-.77,2.64-.1,5.61,.82,6.63,.78,6.92-1.21,7.3-15.52,17.72-21.04v-.06c-.91-.21-2.15-.31-3.79-.25-5.7,.21-14.95,4.99-14.69,12.16,.06,1.59,.72,3.37,2.58,3.3,3.03-.11,4.72-3.99,4.65-5.96-.01-.36-.03-.93-.11-1.35h.36c.04,.38,.09,.71,.11,1.24,.1,2.76-2.01,6.68-6.2,6.83-2.28,.08-3.7-1.88-3.78-4-.23-6.36,10.24-12.33,17.13-12.58,1.74-.06,2.98,.07,4.37,.35,1.21-.53,2.93-1.13,4.19-1.29l.04,.24Z" style="fill: #8a202a;"/>
      <path d="M200.76,22.93c2.29-3.35,4.66-6.67,6.98-10.08l3.42,.12-4.35,5.28,.06,.06c3.26-3.5,5.04-4.03,5.68-4.58,.93-.8,1.45-.86,3.69-.76-.83,1.02-1.69,2.13-1.78,3.48-.06,.9,.33,1.32,1.19,1.38,1.14,.08,2.23-.89,3-1.59l.11,.16c-1.21,1.3-2.83,2.17-4.63,2.04-1.59-.11-2.51-1.05-2.4-2.67,.04-.51,.25-1.04,.55-1.43l-.06-.06c-3.54,2-6.45,5.64-8.45,8.78l-3.03-.13Z" style="fill: #8a202a;"/>
      <path d="M236.29,19.25c-.96,.88-2.21,1.72-3.52,1.52-.92-.14-1.48-.66-1.93-1.46-1.53,3.8-5.7,6.55-9.82,5.91-2.16-.34-3.38-1.89-3.04-4.06,.66-4.21,6-7.14,9.95-6.53,2.1,.33,3.17,1.86,3.19,3.5,.02,1.22,.61,2.1,1.71,2.27,1.07,.17,2.05-.32,3.32-1.43l.14,.26Zm-7.5-2.51c.15-.98-.17-1.64-1.06-1.77-2.99-.47-7.11,5.66-7.5,8.15-.15,.98,.17,1.64,1.06,1.77,2.99,.47,7.11-5.66,7.5-8.15Z" style="fill: #8a202a;"/>
      <path d="M256.9,11.32l3.3,.66c-5.44,5.33-16.04,14.27-16.61,16.51-.1,.41,.03,.75,.43,.85,.81,.21,2.5-.2,4.7-1.56,1.79-1.09,3.43-2.28,5.49-3.93l.25,.22c-1.13,.92-3.33,2.62-5.17,3.76-2.35,1.45-4.3,2.31-6.22,1.82-1.77-.45-1.91-1.88-1.44-2.84l-.04-.07c-1.51,.95-3.15,1.55-5.01,1.08s-2.17-2.07-1.77-3.64c.99-3.9,6.48-6.86,10.26-5.9,1.31,.33,2.01,1.22,2.14,2.53l9.69-9.48Zm-10.71,9.35c.29-1.13-.23-1.79-1.13-2.02-2.41-.61-6.79,3.56-7.52,6.44-.24,.93-.08,1.9,.97,2.17,2.5,.64,7.02-3.97,7.68-6.59Z" style="fill: #8a202a;"/>
      <path d="M268.5,26.18c-4.73,3.85-7.82,5.74-8.41,7.38-.14,.4-.02,.69,.31,.81,.93,.33,3.12-.44,5-1.33,2.27-1.1,4.59-2.5,5.67-3.2l.17,.25c-1.33,.86-3.46,2.17-5.61,3.21-2.59,1.27-4.62,1.85-6.17,1.3-1.13-.4-1.59-1.43-1.23-2.45,.25-.71,.63-1.24,.92-1.49l-.04-.08c-1.87,.96-4.34,2.33-6.74,1.47-1.16-.41-1.48-1.48-1.12-2.47,.52-1.44,3.12-3.47,7.3-6.85l3.03,.96c-4.59,3.49-7.69,5.63-8.2,7.07-.16,.45,0,.89,.39,1.03,1.41,.51,5.15-1.12,7.89-3.36l3.85-3.08,2.99,.82Z" style="fill: #8a202a;"/>
      <path d="M285.1,36.88c-4.18,2.07-9.7,4.6-14.28,2.5-2.18-1-2.82-2.78-1.78-5.04,1.6-3.49,7.75-4.89,11.38-3.23,1.66,.76,2.38,2.01,1.93,3-.65,1.42-2.2,1.7-3.32,1.19-.27-.12-.48-.25-.6-.34,.63-.73,1.41-1.43,1.81-2.3,.29-.63,.13-1.16-.36-1.38-1.91-.88-6.68,.9-8.27,4.36-.64,1.39-.24,2.89,1.24,3.57,3.57,1.64,9.26-1.2,12.05-2.53l.2,.22Z" style="fill: #8a202a;"/>
      <path d="M287.09,35.6l.44-.37,2.03,1.11,3.78-2.24,2.9,1.45-4.05,2.23,3.34,1.82-.5,.34-3.4-1.85c-6,3.49-7.94,4.48-8.5,5.51-.24,.45-.15,.91,.29,1.15,.87,.47,2.94,.37,5.43-.32,1.74-.49,4.05-1.35,6.04-2.24l.09,.22c-1.36,.62-3.55,1.55-5.82,2.22-2.52,.74-5.1,1.08-6.71,.21-1.11-.6-1.86-1.6-1.17-2.86,.99-1.82,3.68-2.81,7.77-5.29l-1.98-1.08Z" style="fill: #8a202a;"/>
      <path d="M294.8,51.53c3.93,1.43,8.15-.08,12.11-1.56l.11,.28c-4.93,1.84-9.63,3.59-14.54,.47-1.75-1.11-3.2-2.96-1.9-5.01,.67-1.06,2.1-1.9,3.29-1.15,.79,.5,.88,1.3,.52,1.86-.45,.71-1.17,.78-1.7,.45-.2-.13-.36-.27-.48-.48-.37,.19-.72,.47-.96,.85-.59,.94-.19,2.15,.8,2.78,1.24,.79,3.13,.78,3.97-.54,.56-.89,.51-1.92,.42-2.9-.07-1-.16-1.99,.34-2.77,1.21-1.9,3.74-1.64,5.54-.5,1.62,1.03,2.4,2.55,1.59,3.82-.61,.96-1.79,1.21-2.76,.6-.3-.19-.53-.45-.65-.59,.77-.43,1.36-1.02,1.76-1.65,.43-.68,.42-1.51-.36-2.01-.94-.59-1.89-.27-2.45,.61-.59,.94-.52,1.94-.45,2.95,.09,.98,.15,2.01-.5,3.02-.84,1.32-2.51,1.82-3.64,1.42l-.03,.05Z" style="fill: #8a202a;"/>
    </g>
  </g>
</svg>