<?xml version="1.0" encoding="UTF-8"?>
<svg id="b" data-name="圖層 2" xmlns="http://www.w3.org/2000/svg" width="83.25" height="19.84" viewBox="0 0 83.25 19.84">
  <g id="c" data-name="圖層 1">
    <g>
      <path d="M35.75,9.87S14.95-3.31,4.61,4.44c-2.76,2.07-3.46,5.56-1.48,8.37,2.54,3.61,12.18,6.79,30.21,3.91" style="fill: none; stroke: #c7ba99; stroke-miterlimit: 10; stroke-width: 4px;"/>
      <path d="M47.5,9.87s20.8-13.18,31.14-5.42c2.76,2.07,3.46,5.56,1.48,8.37-2.54,3.61-12.18,6.79-30.21,3.91" style="fill: none; stroke: #c7ba99; stroke-miterlimit: 10; stroke-width: 4px;"/>
      <path d="M47.5,9.87s20.8-13.18,31.14-5.42c2.76,2.07,3.46,5.56,1.48,8.37-2.54,3.61-12.18,6.79-30.21,3.91" style="fill: none; stroke: #89202a; stroke-miterlimit: 10; stroke-width: .5px;"/>
      <line x1="41.59" y1="8.51" x2="41.59" y2="17.84" style="fill: none; stroke: #c7ba99; stroke-linecap: round; stroke-linejoin: round; stroke-width: 2.5px;"/>
      <line x1="44.94" y1="8.51" x2="44.94" y2="17.84" style="fill: none; stroke: #c7ba99; stroke-linecap: round; stroke-linejoin: round; stroke-width: 2.5px;"/>
      <line x1="38.24" y1="8.51" x2="38.24" y2="17.84" style="fill: none; stroke: #c7ba99; stroke-linecap: round; stroke-linejoin: round; stroke-width: 2.5px;"/>
      <path d="M35.75,9.87S14.95-3.31,4.61,4.44c-2.76,2.07-3.46,5.56-1.48,8.37,2.54,3.61,12.18,6.79,30.21,3.91" style="fill: none; stroke: #89202a; stroke-miterlimit: 10; stroke-width: .5px;"/>
      <g>
        <line x1="41.59" y1="8.51" x2="41.59" y2="17.84" style="fill: none; stroke: #89202a; stroke-miterlimit: 10; stroke-width: .5px;"/>
        <line x1="44.94" y1="8.51" x2="44.94" y2="17.84" style="fill: none; stroke: #89202a; stroke-miterlimit: 10; stroke-width: .5px;"/>
        <line x1="38.24" y1="8.51" x2="38.24" y2="17.84" style="fill: none; stroke: #89202a; stroke-miterlimit: 10; stroke-width: .5px;"/>
      </g>
    </g>
  </g>
</svg>