<?xml version="1.0" encoding="UTF-8"?>
<svg id="b" data-name="圖層 2" xmlns="http://www.w3.org/2000/svg" width="389.69" height="210.68" viewBox="0 0 389.69 210.68">
  <g id="c" data-name="首頁">
    <g>
      <g>
        <path d="M121.83,137.92c-.43,2.99-1.8,4.75-5.79,5.8-.22-.65-.9-1.58-1.4-2.05,3.13-.68,4.21-1.76,4.57-3.74h-3.89v-2.41h6.34v-2.27h-5.04v-2.38h5.04v-2.2h2.95v2.2h5.08v2.38h-5.08v2.27h6.26v2.41h-4.18v1.48c0,.76,.04,1.01,.54,1.01h1.84c.4,0,1.22-.07,1.66-.18,.04,.61,.11,1.4,.18,2.02-.4,.18-1.15,.18-1.76,.18h-2.38c-2.12,0-2.56-.9-2.56-3.02v-1.48h-2.38Zm-7.02,22.39c1.66-1.37,3.31-3.89,4.28-6.23l3.2,.83c-.94,2.45-2.56,5.08-4.32,6.73l-3.17-1.33Zm30.2-10.26c.22,0,.4-.04,.5-.18,.11-.14,.18-.5,.25-1.12,.07-.72,.11-2.23,.11-4.21,.58,.5,1.44,.97,2.16,1.19-.04,1.8-.14,4.07-.32,4.86-.18,.79-.5,1.33-.9,1.66-.43,.32-1.12,.47-1.73,.47h-1.48c-.68,0-1.48-.22-1.98-.72-.5-.54-.68-1.19-.68-3.67v-11.92h-2.88c-.11,2.16-.32,4.18-.61,5.98,1.33,.97,2.56,1.84,3.35,2.56l-1.48,2.84c-.65-.61-1.58-1.37-2.59-2.16-.94,3.2-2.48,5.8-4.97,7.81-.36-.54-1.08-1.37-1.69-1.91-5.36,.58-10.87,1.15-14.83,1.55l-.25-2.81c1.84-.14,4.14-.32,6.66-.54v-2.77h-5.51v-2.45h5.51v-2.34h2.95v2.34h5.29v2.45h-5.29v2.52c2.02-.18,4.1-.36,6.16-.58l.04,1.33c1.69-1.76,2.74-3.92,3.38-6.55-1.08-.79-2.16-1.62-3.1-2.27l1.4-2.45,2.27,1.55c.18-1.3,.29-2.66,.36-4.1h-3.53v-2.95h3.6c.04-1.55,.07-3.17,.07-4.86h3.02c0,1.69-.04,3.31-.07,4.86h5.76v14.9c0,.86,0,1.37,.11,1.55,.07,.11,.22,.14,.4,.14h.54Zm-16.67,4.75c.43,1.98,.79,4.54,.83,6.05l-3.35,.43c0-1.58-.25-4.14-.65-6.16l3.17-.32Zm7.24-.29c.86,1.94,1.76,4.46,2.02,6.08l-3.31,.61c-.25-1.58-1.01-4.17-1.87-6.16l3.17-.54Zm7.34-.58c1.62,1.98,3.6,4.75,4.46,6.55l-3.38,1.15c-.79-1.76-2.66-4.61-4.28-6.66l3.2-1.04Z" style="fill: #a08778;"/>
        <path d="M171.01,157.58c-4.43,1.01-9.07,2.09-12.6,2.84l-.76-3.02c1.55-.25,3.53-.58,5.72-.97v-9.83h-5.26v-2.84h5.26v-3.38h-3.06v-1.15c-.47,.47-.97,.9-1.44,1.33-.22-.76-1.04-2.56-1.58-3.38,2.66-2.09,5.29-5.33,6.8-8.71l2.92,1.01c-.22,.4-.4,.83-.65,1.26,2.05,1.73,4.43,3.78,5.72,5.08l-1.87,2.56c-1.19-1.33-3.35-3.31-5.29-5.08-.9,1.55-1.98,2.95-3.06,4.25h7.38v2.84h-2.92v3.38h4.32v2.84h-4.32v9.32l4.54-.79,.14,2.45Zm-10.33-9.36c.58,2.05,1.19,4.68,1.48,6.37l-2.41,.68c-.22-1.76-.83-4.43-1.37-6.48l2.3-.58Zm6.41,5.98c.54-1.73,1.26-4.46,1.58-6.33l2.59,.68c-.68,2.2-1.48,4.68-2.12,6.26l-2.05-.61Zm22.21,3.56c0,1.66-.36,2.63-1.51,3.1-1.12,.54-2.92,.58-5.62,.58-.11-.86-.54-2.27-.94-3.13,1.84,.11,3.64,.11,4.18,.07,.54-.04,.72-.18,.72-.68v-5.51c-3.38,.9-6.77,1.73-9.5,2.41l-.97-2.56c-.18,3.42-.72,7.09-2.3,9.75-.54-.58-1.87-1.51-2.63-1.87,1.76-3.1,1.91-7.45,1.91-10.91v-10.37h6.7v-10.04h3.2v10.04h6.77v19.11Zm-14.33-20.09c-.47-1.8-1.87-4.64-3.31-6.69l2.74-1.3c1.44,2.02,2.95,4.71,3.49,6.51l-2.92,1.48Zm.76,11.34c0,.86,0,1.76-.07,2.74,2.74-.54,6.59-1.4,10.48-2.3v-7.88h-10.4v7.45Zm1.73-5.4c2.63,.54,6.08,1.66,7.88,2.59l-1.4,2.38c-1.73-1.04-5.11-2.27-7.85-2.88l1.37-2.09Zm12.96-12.92c-1.15,2.38-2.52,4.97-3.71,6.73l-2.77-1.12c1.15-1.84,2.63-4.72,3.38-6.8l3.1,1.19Z" style="fill: #a08778;"/>
        <path d="M233.25,135.08h-21.02c.72,1.22,1.62,2.84,2.09,3.82l-2.63,1.01h8.6c.83-1.4,1.8-3.38,2.34-4.75l3.35,.72c-.79,1.37-1.66,2.81-2.52,4.03h7.96v18.29c0,1.66-.4,2.34-1.55,2.77-1.15,.43-3.02,.47-6.01,.47-.14-.79-.58-1.84-1.01-2.56,2.09,.07,4.14,.07,4.64,.04,.61,0,.83-.18,.83-.72v-15.59h-6.55v1.73c0,.79,.07,1.08,.72,1.08h2.56c.54,0,1.55-.04,2.05-.18,.07,.79,.11,1.58,.22,2.34-.47,.14-1.4,.18-2.2,.18h-3.35c-2.48,0-2.95-1.12-2.95-3.46v-1.69h-3.42c-.54,3.53-2.16,5.51-7.09,6.59-.25-.72-.9-1.73-1.51-2.27v14.61h-3.17v-21.63h7.63c-.43-1.08-1.33-2.81-1.98-4l2.41-.83h-9.93v-2.84h14.51c-.32-1.01-.76-2.16-1.12-3.1l3.2-.79c.5,1.22,1.08,2.74,1.44,3.89h13.46v2.84Zm-26.46,11.81c3.92-.72,5.22-1.94,5.65-4.28h-5.65v4.28Zm6.66,10.22v1.58h-2.81v-9.97h13.43v8.39h-10.62Zm0-5.97v3.56h7.88v-3.56h-7.88Z" style="fill: #a08778;"/>
        <path d="M245.64,145.84h13.03v15.51h-3.31v-1.62h-6.55v1.87h-3.17v-15.77Zm3.17,3.2v7.49h6.55v-7.49h-6.55Zm22.03-6.7h-20.12v-12.27h20.12v12.27Zm-3.42-9.07h-13.5v5.87h13.5v-5.87Zm8.46,12.56v15.59h-3.35v-1.69h-7.13v1.87h-3.2v-15.77h13.68Zm-3.35,10.69v-7.49h-7.13v7.49h7.13Z" style="fill: #a08778;"/>
      </g>
      <g>
        <g>
          <line x1="7.64" y1="85.67" x2="383.07" y2="85.67" style="fill: none; stroke: #89202a; stroke-miterlimit: 10; stroke-width: 3.05px;"/>
          <line x1="7.64" y1="77.96" x2="383.07" y2="77.96" style="fill: none; stroke: #89202a; stroke-miterlimit: 10; stroke-width: 1.02px;"/>
        </g>
        <g>
          <rect x="1.18" y="87.05" width="6.62" height="6.62" transform="translate(8.98 180.73) rotate(180)" style="fill: #89202a;"/>
          <rect x="383.07" y="87.23" width="6.62" height="6.62" transform="translate(772.76 181.08) rotate(180)" style="fill: #89202a;"/>
        </g>
      </g>
      <g>
        <g>
          <line x1="382.05" y1="202.46" x2="6.62" y2="202.46" style="fill: none; stroke: #89202a; stroke-miterlimit: 10; stroke-width: 3.05px;"/>
          <line x1="382.05" y1="210.17" x2="6.62" y2="210.17" style="fill: none; stroke: #89202a; stroke-miterlimit: 10; stroke-width: 1.02px;"/>
        </g>
        <g>
          <rect x="381.89" y="194.45" width="6.62" height="6.62" style="fill: #89202a;"/>
          <rect y="194.28" width="6.62" height="6.62" style="fill: #89202a;"/>
        </g>
      </g>
      <g>
        <path d="M115.03,14.18c-.98,.72-1.82,1.63-2.51,2.64,2.24-.19,4.27,.57,5.35,2.64,1.62,3.08-.8,6.73-3.51,8.15-1.35,.71-2.71,.51-3.2-.42-.36-.69-.13-1.59,.78-2.07,.53-.28,.93-.36,1.3-.31-.48,.69-.6,1.43-.29,2.02,.31,.58,.89,.65,1.34,.42,1.91-1.01,2.01-5.39,.86-7.57-.7-1.33-1.63-2.19-2.94-2.25-3.93,7.49,.63,19.7-6.84,26.24l.03,.05c1.21-.33,3.27-1.07,4.38-1.66,5.5-2.89,9.06-7.51,9.95-14.01h.24c-.63,5.9-2.35,10.5-8.19,13.57-1.83,.96-4.74,2.02-6.77,2.47-.97,.99-2.8,2.35-4.04,3.01-1.51,.8-3.49,1.29-3.88,.55-.22-.42,.14-.89,.99-1.33,2.34-1.23,5.41-1.7,6.32-2.17,5.71-4.09-.14-17.14,6.87-26.63l-.03-.05c-.91,.21-2.07,.65-3.53,1.41-5.04,2.65-11.31,10.97-7.98,17.31,.74,1.41,2.11,2.72,3.75,1.86,2.68-1.41,2.53-5.63,1.61-7.39-.17-.32-.43-.82-.68-1.17l.32-.17c.21,.33,.39,.61,.64,1.09,1.28,2.44,1.08,6.89-2.64,8.84-2.02,1.06-4.15-.09-5.14-1.97-2.96-5.63,3.9-15.54,10-18.75,1.54-.81,2.71-1.22,4.09-1.57,.87-1,2.15-2.29,3.21-2.98l.14,.2Z" style="fill: #8a202a;"/>
        <path d="M136.81,22.04c-.39,1.24-1.06,2.59-2.29,3.07-.87,.33-1.61,.17-2.4-.3,.56,4.06-1.68,8.52-5.57,10.01-2.04,.79-3.87,.04-4.66-2-1.53-3.98,1.65-9.18,5.37-10.61,1.99-.76,3.68,.03,4.51,1.45,.63,1.04,1.58,1.51,2.61,1.12,1.01-.39,1.62-1.3,2.17-2.89l.25,.16Zm-7.75,1.56c-.35-.92-.96-1.33-1.8-1.01-2.83,1.09-3.34,8.45-2.44,10.8,.35,.92,.96,1.33,1.8,1.01,2.83-1.09,3.34-8.45,2.44-10.8Z" style="fill: #8a202a;"/>
        <path d="M144.6,10.88l-3.8,12.04,.07,.04c1.04-2.38,2.22-5.93,5.05-6.72,1.39-.39,2.59,.36,3,1.8,.53,1.88,.1,3.9-.7,5.46l.07,.04c2.45-1.25,4.36-4,5.41-6.45l.26,.14c-.95,2.26-2.79,5.37-5.9,6.81-1.15,1.79-3.06,4.42-5.19,5.02-.81,.23-1.58,.13-1.8-.64-.46-1.62,3.08-3.02,4.65-3.74,.4-1.11,1.1-3.49,.5-5.63-.24-.84-.68-1.65-1.66-1.37-3.44,.97-6.77,18.09-8.33,22.74l-3.03,.98c2.81-9.71,5.58-19.75,8.32-29.5l3.08-1.03Zm-1.47,17.56c1.1-.31,2.02-2.22,2.49-3.32-.99,.47-3.85,1.62-3.48,2.91,.11,.4,.41,.57,.99,.41Z" style="fill: #8a202a;"/>
        <path d="M167,12.17c-2.14,5.71-3.87,8.9-3.55,10.61,.08,.41,.33,.61,.68,.54,.97-.18,2.47-1.96,3.65-3.67,1.41-2.09,2.71-4.47,3.29-5.62l.27,.13c-.71,1.41-1.89,3.62-3.23,5.6-1.6,2.4-3.05,3.92-4.68,4.23-1.18,.22-2.09-.43-2.29-1.5-.14-.74-.08-1.39,.04-1.75l-.07-.05c-1.14,1.77-2.58,4.2-5.08,4.67-1.21,.22-2.02-.54-2.21-1.57-.28-1.5,.95-4.57,2.86-9.59l3.1-.7c-2.22,5.32-3.81,8.73-3.53,10.24,.09,.47,.45,.77,.86,.69,1.47-.27,3.89-3.56,5.13-6.87l1.77-4.6,2.99-.8Z" style="fill: #8a202a;"/>
        <path d="M183.2,0l-7.59,15.69c-1.28,2.65-2.08,4.39-1.97,5.41,.06,.51,.3,.78,.74,.73,.83-.09,2.28-1.25,3.71-3.04,1.33-1.66,2.62-3.58,3.82-5.55l.28,.06c-.84,1.42-2.15,3.53-3.34,5.05-2.07,2.61-3.52,3.92-5.43,4.13-1.34,.15-2.09-.37-2.23-1.57-.12-1.1,.51-2.77,1.9-5.79l6.81-14.58,3.29-.54Z" style="fill: #8a202a;"/>
        <path d="M193.68,10.38l3.11-.29c-1.04,2.17-5.11,7.62-5.04,9.75,.02,.54,.33,.74,.78,.72,.96-.03,2.69-1.32,4.42-3.21,1.45-1.58,3.14-3.8,3.83-4.78l.21,.11c-1,1.42-2.26,3.2-4.09,5.18-1.82,1.98-3.67,3.4-5.5,3.46-1.26,.04-2.03-.68-2.07-1.64-.01-.3,0-.63,.09-.78h-.06c-1.18,1.42-2.76,2.59-4.53,2.65-1.95,.07-2.72-1.5-2.78-3.18-.13-3.9,4.49-8.41,8.2-8.53,1.38-.05,2.15,.53,2.7,1.77l.71-1.23Zm-7.16,10.09c2.54-.27,5.64-6.38,5.56-8.62-.04-1.08-.39-1.7-1.53-1.66-2.76,.09-5.69,5.75-5.6,8.18,.04,1.14,.34,2.15,1.57,2.11Z" style="fill: #8a202a;"/>
        <path d="M197.89,20.6c2.22-3.4,4.52-6.77,6.77-10.23l3.42,.05-4.24,5.37,.06,.06c3.19-3.56,4.96-4.13,5.59-4.7,.91-.82,1.43-.89,3.68-.83-.8,1.04-1.64,2.17-1.71,3.52-.05,.9,.35,1.31,1.22,1.35,1.14,.06,2.21-.94,2.97-1.65l.11,.16c-1.18,1.32-2.79,2.23-4.59,2.14-1.59-.08-2.53-1-2.45-2.62,.03-.51,.23-1.04,.52-1.45l-.06-.06c-3.5,2.08-6.33,5.78-8.27,8.95l-3.03-.06Z" style="fill: #8a202a;"/>
        <path d="M230.07,23.7c4.18-.14,7.53-3.12,10.65-5.96l.2,.22c-3.89,3.55-7.6,6.92-13.32,5.86-2.04-.38-4.08-1.55-3.63-3.94,.23-1.24,1.23-2.55,2.62-2.29,.91,.17,1.3,.88,1.18,1.53-.15,.83-.79,1.17-1.41,1.05-.24-.04-.44-.11-.62-.27-.27,.31-.5,.7-.58,1.14-.2,1.09,.62,2.07,1.77,2.28,1.45,.27,3.19-.45,3.48-1.98,.19-1.03-.25-1.97-.69-2.84-.44-.91-.89-1.78-.72-2.7,.41-2.21,2.86-2.92,4.95-2.53,1.89,.35,3.17,1.47,2.9,2.95-.21,1.12-1.22,1.79-2.34,1.58-.35-.07-.66-.21-.83-.31,.55-.69,.88-1.46,1.02-2.19,.15-.8-.17-1.56-1.08-1.73-1.09-.2-1.85,.45-2.04,1.48-.2,1.09,.24,2,.68,2.9,.45,.88,.88,1.81,.67,2.99-.28,1.53-1.65,2.62-2.84,2.68v.06Z" style="fill: #8a202a;"/>
        <path d="M252.83,18.53l3.06,.66c-1.64,1.76-7.15,5.75-7.72,7.8-.14,.52,.09,.8,.52,.92,.93,.26,2.96-.46,5.18-1.75,1.85-1.08,4.13-2.69,5.08-3.42l.17,.17c-1.38,1.05-3.11,2.38-5.44,3.73s-4.51,2.15-6.28,1.66c-1.21-.33-1.74-1.26-1.48-2.18,.08-.29,.2-.6,.32-.72l-.06-.02c-1.55,1-3.41,1.64-5.11,1.17-1.88-.52-2.15-2.24-1.71-3.86,1.04-3.76,6.79-6.69,10.37-5.7,1.33,.37,1.89,1.14,2.05,2.49l1.04-.96Zm-9.84,7.49c2.51,.5,7.28-4.4,7.88-6.57,.29-1.04,.14-1.74-.96-2.04-2.66-.73-7.14,3.79-7.79,6.13-.3,1.1-.31,2.15,.87,2.48Z" style="fill: #8a202a;"/>
        <path d="M276.13,15.4l-13.73,10.74c-2.31,1.81-3.8,3.03-4.15,3.99-.17,.48-.08,.83,.35,.99,.79,.28,2.59-.12,4.67-1.09,1.92-.9,3.93-2.06,5.88-3.3l.22,.18c-1.38,.91-3.48,2.22-5.22,3.06-3,1.44-4.89,1.97-6.69,1.32-1.27-.46-1.72-1.26-1.31-2.38,.38-1.04,1.68-2.26,4.25-4.36l12.53-10.08,3.19,.96Z" style="fill: #8a202a;"/>
        <path d="M283.52,33.16c-1.79,1.02-3.69,1.98-6.19,2.82-3.53,1.17-6.2,.85-8.24-.05-2.09-.92-2.77-2.86-1.91-4.84,1.54-3.52,7.91-5.11,11.35-3.6,1.57,.69,2.22,1.73,1.74,2.83-1.17,2.66-7.67,1.19-9.77,.75-.23,.29-.43,.6-.57,.93-.69,1.56-.24,3.07,1.33,3.76,1.54,.68,3.88,.56,6.51-.35,2.02-.72,4.09-1.71,5.64-2.54l.11,.28Zm-5.57-5.53c-1.84-.81-5.99,1.56-7.27,3.2,3.26,.71,6.91-.37,7.7-2.16,.22-.5,.01-.85-.43-1.04Z" style="fill: #8a202a;"/>
        <path d="M283.79,42.32c4.02,1.13,8.13-.69,11.96-2.45l.13,.27c-4.79,2.21-9.34,4.29-14.47,1.55-1.83-.98-3.42-2.71-2.27-4.85,.59-1.11,1.95-2.05,3.19-1.39,.82,.44,.97,1.23,.66,1.82-.4,.74-1.11,.87-1.67,.57-.21-.11-.38-.24-.51-.44-.35,.22-.69,.52-.9,.91-.52,.98-.03,2.16,1,2.71,1.3,.69,3.18,.54,3.92-.83,.5-.93,.36-1.95,.2-2.92-.15-1-.31-1.97,.13-2.79,1.06-1.98,3.61-1.91,5.49-.91,1.69,.9,2.58,2.37,1.87,3.69-.54,1-1.7,1.34-2.71,.8-.32-.17-.57-.4-.7-.54,.74-.49,1.28-1.12,1.63-1.78,.38-.71,.31-1.54-.51-1.97-.98-.52-1.9-.13-2.4,.79-.52,.98-.38,1.98-.23,2.97,.16,.97,.29,1.99-.27,3.05-.74,1.38-2.36,2-3.52,1.69l-.03,.05Z" style="fill: #8a202a;"/>
      </g>
    </g>
  </g>
</svg>