<?xml version="1.0" encoding="UTF-8"?>
<svg id="b" data-name="圖層 2" xmlns="http://www.w3.org/2000/svg" width="389.69" height="211.09" viewBox="0 0 389.69 211.09">
  <g id="c" data-name="圖層 1">
    <g>
      <path d="M146.85,135.49h-21.02c.72,1.22,1.62,2.84,2.09,3.82l-2.63,1.01h8.6c.83-1.4,1.8-3.38,2.34-4.75l3.35,.72c-.79,1.37-1.66,2.81-2.52,4.03h7.96v18.29c0,1.66-.4,2.34-1.55,2.77-1.15,.43-3.02,.47-6.01,.47-.14-.79-.58-1.84-1.01-2.56,2.09,.07,4.14,.07,4.64,.04,.61,0,.83-.18,.83-.72v-15.59h-6.55v1.73c0,.79,.07,1.08,.72,1.08h2.56c.54,0,1.55-.04,2.05-.18,.07,.79,.11,1.58,.22,2.34-.47,.14-1.4,.18-2.2,.18h-3.35c-2.48,0-2.95-1.12-2.95-3.46v-1.69h-3.42c-.54,3.53-2.16,5.51-7.09,6.59-.25-.72-.9-1.73-1.51-2.27v14.61h-3.17v-21.63h7.63c-.43-1.08-1.33-2.81-1.98-4l2.41-.83h-9.93v-2.84h14.51c-.32-1.01-.76-2.16-1.12-3.1l3.2-.79c.5,1.22,1.08,2.74,1.44,3.89h13.46v2.84Zm-26.46,11.81c3.92-.72,5.22-1.94,5.65-4.28h-5.65v4.28Zm6.66,10.22v1.58h-2.81v-9.97h13.43v8.39h-10.62Zm0-5.97v3.56h7.88v-3.56h-7.88Z" style="fill: #9e8578;"/>
      <path d="M159.24,146.25h13.03v15.51h-3.31v-1.62h-6.55v1.87h-3.17v-15.77Zm3.17,3.2v7.49h6.55v-7.49h-6.55Zm22.03-6.7h-20.12v-12.27h20.12v12.27Zm-3.42-9.07h-13.5v5.87h13.5v-5.87Zm8.46,12.56v15.59h-3.35v-1.69h-7.13v1.87h-3.2v-15.77h13.68Zm-3.35,10.69v-7.49h-7.13v7.49h7.13Z" style="fill: #9e8578;"/>
      <path d="M211.51,150.6c-.11-.58-.25-1.22-.43-1.94-7.27,1.4-8.39,1.76-9.07,2.16-.14-.61-.61-2.05-1.01-2.81,.83-.18,1.62-1.08,2.66-2.38,.54-.61,1.55-2.02,2.7-3.85-3.31,.43-4.1,.61-4.61,.86-.18-.61-.65-2.05-.97-2.84,.61-.18,1.19-.9,1.87-1.98,.72-1.04,2.95-5.08,4.14-8.93l2.99,1.22c-1.33,3.2-3.13,6.59-4.97,9.29l3.2-.25c.9-1.55,1.8-3.24,2.52-4.9l2.74,1.44c-2.12,4.03-4.86,8.1-7.6,11.45l4.72-.83c-.25-.94-.58-1.91-.9-2.74l2.3-.65c.86,2.23,1.84,5.15,2.16,6.88l-2.45,.79Zm-6.23,1.94c-.43,3.1-1.12,6.44-1.98,8.64-.54-.29-1.69-.68-2.34-.86,.94-2.16,1.51-5.29,1.87-8.21l2.45,.43Zm3.2-.54c.47,2.41,.86,5.47,.97,7.52l-2.38,.58c-.07-2.09-.47-5.22-.86-7.59l2.27-.5Zm3.28-.83c.61,1.94,1.26,4.39,1.51,5.98l-2.3,.72c-.22-1.66-.83-4.14-1.4-6.05l2.2-.65Zm.83,8.1c1.08-1.98,2.02-5.15,2.48-7.6l2.34,.86c-.54,2.45-1.33,5.76-2.41,7.85l-2.41-1.12Zm19.65-9.94h-17.17v-16.99h5.15c.43-1.15,.94-2.59,1.15-3.6l3.42,.58c-.54,1.04-1.12,2.12-1.55,3.02h9v16.99Zm-6.12,9.47c1.01,0,1.22-.47,1.37-3.56,.58,.47,1.69,.86,2.48,1.04-.32,3.92-1.08,4.93-3.56,4.93h-4.72c-3.1,0-3.85-.76-3.85-3.38v-6.08h2.81v6.08c0,.83,.18,.97,1.4,.97h4.07Zm3.1-23.76h-11.23v11.55h11.23v-11.55Zm-2.3,10.76c-.47-.79-1.19-1.76-1.94-2.7-1.26,1.15-2.66,2.27-4.28,3.24-.29-.5-.9-1.19-1.37-1.51,1.69-.97,3.13-2.09,4.32-3.24-.36-.47-.79-.9-1.22-1.33-.83,.79-1.8,1.55-2.92,2.27-.29-.47-.9-1.19-1.4-1.48,1.12-.68,2.09-1.4,2.92-2.23-.65-.65-1.33-1.26-2.02-1.83l1.76-1.12c.58,.43,1.15,.94,1.69,1.44,.54-.65,.97-1.3,1.26-1.91l2.16,.36c-.54,.97-1.19,1.98-1.98,2.92,.43,.43,.86,.86,1.26,1.26,.72-.83,1.3-1.69,1.73-2.48l2.2,.4c-.68,1.19-1.55,2.41-2.56,3.64,.9,1.04,1.73,2.09,2.27,2.95l-1.87,1.37Zm-1.69,10.51c-.72-1.44-2.16-3.89-3.28-5.72l2.16-1.01c1.12,1.73,2.66,4.1,3.38,5.47l-2.27,1.26Zm5.76-4.86c1.15,2.34,2.45,5.33,3.13,7.24l-2.45,1.12c-.61-1.98-1.91-5.08-2.95-7.42l2.27-.94Z" style="fill: #9e8578;"/>
      <path d="M272.67,158.99c1.26,0,1.48-.36,1.62-3.02,.68,.43,1.94,.86,2.81,1.04-.32,3.67-1.26,4.54-4.07,4.54h-5.8c-3.78,0-4.72-.72-4.72-3.49v-2.02h-4.72c-1.15,3.56-4.07,5.18-12.2,5.94-.22-.72-.94-1.94-1.48-2.56,6.84-.43,9.29-1.3,10.29-3.38h-4.86v-11.73h22.17v11.73h-5.98v2.02c0,.83,.29,.94,1.84,.94h5.08Zm-12.13-15.98h-14.69v-12.92h14.4v2.05h-5.62v1.55h4.75v5.51h-4.75v1.8h5.9v2.02Zm-11.81-10.87v1.55h3.24v-1.55h-3.24Zm7.78,3.42h-7.78v1.76h7.78v-1.76Zm-7.78,5.44h3.24v-1.8h-3.24v1.8Zm4,6.62h15.69v-1.48h-15.69v1.48Zm0,3.28h15.69v-1.51h-15.69v1.51Zm0,3.28h15.69v-1.51h-15.69v1.51Zm12.2-21.02c-.83,1.3-1.87,2.48-3.17,3.6-.5-.65-1.51-1.58-2.2-1.87,2.16-1.69,3.56-3.92,4.25-5.87l2.95,.47c-.18,.5-.4,.97-.65,1.48h10.47v2.2h-11.66Zm-2.88,4.39h13.97v5.65h-13.97v-5.65Zm12.81-3.17v1.98h-10.8v-1.98h10.8Zm-10.51,7.09h1.84v-2.23h-1.84v2.23Zm3.6,0h1.94v-2.23h-1.94v2.23Zm3.71,0h1.98v-2.23h-1.98v2.23Z" style="fill: #9e8578;"/>
    </g>
    <g>
      <g>
        <g>
          <line x1="7.64" y1="86.08" x2="383.07" y2="86.08" style="fill: none; stroke: #88202a; stroke-miterlimit: 10; stroke-width: 3.05px;"/>
          <line x1="7.64" y1="78.37" x2="383.07" y2="78.37" style="fill: none; stroke: #88202a; stroke-miterlimit: 10; stroke-width: 1.02px;"/>
        </g>
        <g>
          <rect x="1.18" y="87.46" width="6.62" height="6.62" transform="translate(8.98 181.55) rotate(180)" style="fill: #88202a;"/>
          <rect x="383.07" y="87.64" width="6.62" height="6.62" transform="translate(772.76 181.9) rotate(180)" style="fill: #88202a;"/>
        </g>
      </g>
      <g>
        <g>
          <line x1="382.05" y1="202.86" x2="6.62" y2="202.86" style="fill: none; stroke: #88202a; stroke-miterlimit: 10; stroke-width: 3.05px;"/>
          <line x1="382.05" y1="210.58" x2="6.62" y2="210.58" style="fill: none; stroke: #88202a; stroke-miterlimit: 10; stroke-width: 1.02px;"/>
        </g>
        <g>
          <rect x="381.89" y="194.86" width="6.62" height="6.62" style="fill: #88202a;"/>
          <rect y="194.68" width="6.62" height="6.62" style="fill: #88202a;"/>
        </g>
      </g>
    </g>
    <g>
      <path d="M160.73,.23c-1.12,.47-2.15,1.17-3.05,1.99,2.22,.33,4.02,1.54,4.6,3.81,.86,3.37-2.34,6.36-5.3,7.12-1.48,.38-2.76-.13-3.02-1.15-.19-.75,.25-1.58,1.23-1.83,.58-.15,.99-.13,1.33,0-.63,.56-.92,1.26-.75,1.9,.16,.64,.71,.84,1.2,.71,2.09-.54,3.21-4.78,2.6-7.17-.37-1.45-1.08-2.51-2.34-2.87-5.55,6.38-3.95,19.31-12.74,23.94v.06c1.27-.04,3.44-.29,4.66-.6,6.02-1.54,10.56-5.21,12.93-11.33l.23,.06c-1.98,5.58-4.71,9.66-11.11,11.29-2.01,.51-5.07,.86-7.16,.84-1.17,.73-3.27,1.64-4.63,1.99-1.66,.42-3.69,.45-3.9-.37-.12-.46,.34-.83,1.27-1.07,2.56-.65,5.66-.39,6.65-.65,6.51-2.65,3.84-16.71,12.86-24.31v-.06c-.95,0-2.18,.15-3.77,.56-5.52,1.41-13.55,8.05-11.77,15,.39,1.54,1.42,3.14,3.22,2.67,2.94-.75,3.77-4.9,3.27-6.81-.09-.35-.23-.9-.39-1.29l.35-.09c.13,.37,.24,.68,.37,1.21,.68,2.67-.55,6.95-4.61,7.99-2.21,.57-4.02-1.05-4.54-3.11-1.58-6.16,7.39-14.21,14.08-15.92,1.69-.43,2.92-.56,4.34-.58,1.07-.77,2.62-1.72,3.82-2.15l.09,.23Z" style="fill: #8a202a;"/>
      <path d="M160.98,23.39c1.53-3.76,3.15-7.51,4.7-11.33l3.37-.6-3.14,6.08,.07,.05c2.45-4.1,4.08-5,4.59-5.68,.74-.98,1.23-1.14,3.45-1.52-.59,1.17-1.2,2.44-1.01,3.78,.13,.89,.6,1.22,1.46,1.1,1.13-.16,1.99-1.34,2.6-2.19l.14,.13c-.91,1.52-2.31,2.72-4.09,2.97-1.57,.22-2.68-.5-2.9-2.1-.07-.5,.03-1.07,.24-1.52l-.07-.05c-3.04,2.7-5.12,6.87-6.42,10.36l-2.99,.51Z" style="fill: #8a202a;"/>
      <path d="M194.98,12.33c-.75,1.06-1.8,2.15-3.12,2.22-.93,.05-1.58-.33-2.19-1.02-.7,4.04-4.19,7.6-8.36,7.84-2.19,.12-3.7-1.14-3.83-3.33-.24-4.25,4.37-8.24,8.35-8.47,2.13-.12,3.49,1.15,3.85,2.75,.28,1.19,1.04,1.92,2.15,1.86,1.08-.06,1.94-.74,2.95-2.09l.19,.23Zm-7.86-.87c-.06-.99-.51-1.56-1.41-1.51-3.03,.17-5.76,7.03-5.62,9.55,.06,.99,.51,1.56,1.41,1.51,3.03-.17,5.76-7.03,5.62-9.55Z" style="fill: #8a202a;"/>
      <path d="M213.45,.2l3.36-.06c-4.19,6.37-12.66,17.35-12.74,19.66-.01,.42,.18,.73,.6,.74,.84,.03,2.4-.73,4.26-2.52,1.52-1.45,2.87-2.96,4.53-5l.29,.16c-.91,1.14-2.7,3.27-4.25,4.77-1.99,1.91-3.72,3.17-5.69,3.1-1.83-.07-2.26-1.43-2.01-2.47l-.06-.06c-1.28,1.25-2.75,2.18-4.67,2.12s-2.56-1.56-2.5-3.18c.14-4.02,4.88-8.08,8.78-7.94,1.35,.05,2.22,.77,2.63,2.01L213.45,.2Zm-8.48,11.41c.04-1.17-.6-1.7-1.53-1.74-2.49-.09-5.88,4.92-5.99,7.89-.03,.96,.32,1.87,1.4,1.91,2.58,.09,6.02-5.37,6.11-8.07Z" style="fill: #8a202a;"/>
      <path d="M227.9,12.24c-3.8,4.77-6.42,7.28-6.64,9-.05,.42,.12,.68,.48,.73,.98,.13,2.96-1.1,4.6-2.37,1.99-1.56,3.95-3.42,4.86-4.33l.21,.21c-1.11,1.13-2.91,2.86-4.8,4.34-2.26,1.79-4.11,2.79-5.75,2.58-1.19-.15-1.86-1.06-1.72-2.13,.1-.74,.36-1.35,.58-1.65l-.05-.07c-1.62,1.33-3.74,3.21-6.27,2.88-1.22-.16-1.76-1.14-1.62-2.18,.2-1.52,2.31-4.06,5.67-8.25l3.17,.29c-3.75,4.38-6.31,7.14-6.51,8.66-.06,.48,.19,.87,.61,.93,1.49,.19,4.79-2.19,7-4.96l3.1-3.83,3.1,.16Z" style="fill: #8a202a;"/>
      <path d="M246.4,19.14c-3.64,2.92-8.49,6.56-13.41,5.49-2.35-.51-3.35-2.11-2.82-4.54,.82-3.75,6.53-6.44,10.43-5.59,1.79,.39,2.75,1.46,2.52,2.51-.33,1.52-1.78,2.13-2.99,1.87-.29-.06-.52-.14-.66-.21,.46-.85,1.08-1.7,1.28-2.64,.15-.67-.12-1.16-.64-1.28-2.05-.45-6.33,2.31-7.14,6.03-.33,1.49,.39,2.88,1.97,3.22,3.84,.84,8.79-3.15,11.23-5.05l.24,.17Z" style="fill: #8a202a;"/>
      <path d="M248.06,17.46l.35-.46,2.22,.65,3.22-3,3.14,.79-3.48,3.05,3.66,1.07-.41,.44-3.71-1.08c-5.12,4.69-6.8,6.08-7.13,7.2-.14,.49,.04,.92,.53,1.06,.95,.28,2.95-.26,5.24-1.47,1.59-.85,3.67-2.18,5.42-3.48l.13,.19c-1.2,.9-3.13,2.27-5.22,3.41-2.31,1.26-4.75,2.14-6.51,1.63-1.21-.35-2.16-1.16-1.76-2.54,.58-1.99,3-3.53,6.46-6.83l-2.16-.63Z" style="fill: #8a202a;"/>
    </g>
  </g>
</svg>