<?xml version="1.0" encoding="UTF-8"?>
<svg id="b" data-name="圖層 2" xmlns="http://www.w3.org/2000/svg" width="389.69" height="213.57" viewBox="0 0 389.69 213.57">
  <g id="c" data-name="圖層 1">
    <g>
      <path d="M145.2,140.74v8.03h-3.31v-5.15h-23.58v5.15h-3.2v-8.03h5.33c-.58-1.12-1.55-2.66-2.45-3.78l3.02-1.19c1.12,1.19,2.27,2.88,2.84,4.03l-2.12,.94h6.7v-5.29h3.46v5.29h6.44l-2.16-.83c.94-1.15,2.2-2.95,2.81-4.18l3.56,1.15c-1.12,1.4-2.3,2.84-3.31,3.85h5.97Zm-2.05,22.89c0,1.62-.36,2.52-1.58,3.02-1.26,.47-3.1,.5-5.79,.5-.18-.9-.68-2.2-1.12-3.06,1.91,.07,3.82,.07,4.32,.07,.58-.04,.72-.14,.72-.58v-4.32h-7.49v9.21h-3.46v-9.21h-7.96v7.59h-3.38v-10.62h11.34v-2.63h-8.06v-7.85h18.93v7.85h-7.42v2.63h10.94v7.38Zm-19.26-12.45h12.31v-2.95h-12.31v2.95Z" style="fill: #a28978;"/>
      <path d="M184.98,165c1.4,0,1.62-.58,1.76-4.93,.72,.61,2.2,1.12,3.13,1.37-.39,5.4-1.33,6.73-4.57,6.73h-5.33c-3.78,0-4.71-1.01-4.71-4.39v-6.51h-5.18c-.83,5.72-3.06,9.39-11.48,11.3-.32-.86-1.22-2.27-1.91-2.95,7.38-1.44,9.14-4.07,9.83-8.35h-4.64v-20.63h22.89v20.63h-6.08v6.51c0,1.08,.25,1.22,1.69,1.22h4.61Zm-19.87-22.35h16.27v-3.02h-16.27v3.02Zm0,5.79h16.27v-3.06h-16.27v3.06Zm0,5.87h16.27v-3.1h-16.27v3.1Z" style="fill: #a28978;"/>
      <path d="M205.04,149.77v18.72h-3.31v-31.6h13.25v12.89h-9.93Zm0-10.22v2.52h6.77v-2.52h-6.77Zm6.77,7.59v-2.7h-6.77v2.7h6.77Zm.83,16.31v2.09h-3.1v-12.89h13.57v10.8h-10.47Zm0-7.99v5.22h7.34v-5.22h-7.34Zm18.75,8.78c0,2.02-.47,3.06-1.76,3.64-1.33,.54-3.46,.58-6.69,.58-.11-.94-.65-2.48-1.15-3.42,2.27,.11,4.61,.07,5.33,.07,.68-.04,.86-.25,.86-.9v-14.4h-10.15v-12.92h13.57v27.36Zm-10.37-24.73v2.56h6.95v-2.56h-6.95Zm6.95,7.67v-2.74h-6.95v2.74h6.95Z" style="fill: #a28978;"/>
      <path d="M253.21,163.88c2.52,.94,5.72,1.12,9.57,1.12,1.98,0,11.19,0,13.64-.07-.43,.68-.97,1.94-1.12,2.81h-12.53c-7.31,0-12.2-.79-15.26-5.22-.5,2.41-1.33,4.54-2.66,6.12-.4-.68-1.33-1.76-2.02-2.27,2.09-2.52,2.59-7.05,2.7-11.41h2.74c-.04,1.37-.11,2.7-.25,4.03,.61,1.33,1.37,2.38,2.3,3.2v-8.93h-6.88v-2.56h16.05v2.56h-6.3v3.38h5.65v2.52h-5.65v4.72Zm4.39-15.55h-12.24v-11.45h12.24v11.45Zm-3.1-9.11h-6.19v2.27h6.19v-2.27Zm0,4.46h-6.19v2.3h6.19v-2.3Zm11.77,15.51c-1.55,1.98-4.07,4.03-6.3,5.26-.5-.54-1.55-1.58-2.2-2.02,2.2-1.01,4.43-2.52,5.72-4.1l2.77,.86Zm-1.15-17.31c.25-.76,.47-1.55,.68-2.34h-6.52v-2.48h16.34v2.48h-6.73c-.32,.79-.65,1.62-.97,2.34h6.41v15.98h-13.79v-15.98h4.57Zm6.08,2.38h-7.63v2.23h7.63v-2.23Zm0,4.46h-7.63v2.23h7.63v-2.23Zm0,4.5h-7.63v2.27h7.63v-2.27Zm-.4,4.97c1.98,1.26,4.25,3.2,5.44,4.57l-2.41,1.51c-1.15-1.44-3.46-3.49-5.36-4.82l2.34-1.26Z" style="fill: #a28978;"/>
    </g>
    <g>
      <g>
        <line x1="7.64" y1="88.56" x2="383.07" y2="88.56" style="fill: none; stroke: #89202a; stroke-miterlimit: 10; stroke-width: 3.05px;"/>
        <line x1="7.64" y1="80.84" x2="383.07" y2="80.84" style="fill: none; stroke: #89202a; stroke-miterlimit: 10; stroke-width: 1.02px;"/>
      </g>
      <g>
        <rect x="1.18" y="89.94" width="6.62" height="6.62" transform="translate(8.98 186.5) rotate(180)" style="fill: #89202a;"/>
        <rect x="383.07" y="90.11" width="6.62" height="6.62" transform="translate(772.76 186.85) rotate(180)" style="fill: #89202a;"/>
      </g>
    </g>
    <g>
      <g>
        <line x1="382.05" y1="205.34" x2="6.62" y2="205.34" style="fill: none; stroke: #89202a; stroke-miterlimit: 10; stroke-width: 3.05px;"/>
        <line x1="382.05" y1="213.06" x2="6.62" y2="213.06" style="fill: none; stroke: #89202a; stroke-miterlimit: 10; stroke-width: 1.02px;"/>
      </g>
      <g>
        <rect x="381.89" y="197.34" width="6.62" height="6.62" style="fill: #89202a;"/>
        <rect y="197.16" width="6.62" height="6.62" style="fill: #89202a;"/>
      </g>
    </g>
    <g>
      <path d="M168.03,16.1l-.07-.42,1.76-.27c1.88-5.75,4.96-10.09,10.87-12.27v-.07c-3.08,.48-6.17,.81-9.23,1.29-6.66,1.04-17.74,4.1-16.8,10.09,.43,2.75,3.92,3.36,6.31,2.99,4.9-.76,8-3.81,7.3-8.29-.08-.49-.12-.74-.19-.98l.42-.07c.06,.35,.15,.7,.2,1.02,.75,4.79-2.82,9.21-7.58,9.95-2.89,.45-6.31-.86-6.81-4.1-.42-2.68,.8-4.57,2.51-6.17,5.09-4.84,12.44-6.6,18.96-7.61,3.88-.6,8.6-.91,10.58-1.14,1.27-.16,1.82,.08,1.97,1.03,.12,.78-.68,1.44-2.69,1.75-1.45,.23-2.92,.27-4.4,.5-4.33,.68-6.63,7.96-7.85,11.51,1.74-.42,4.24-.62,4.66-2.75,1.25-.3,2.55-.54,3.82-.74-2.77,2.82-5.65,5.93-6.58,9.87l-.28,.04c.38-2.41,1.1-4.76,2.07-6.89-.89,.32-2.85,.73-3.79,.92-2.85,6.73-5.77,13.03-13.98,14.31-2.82,.44-7.36-.19-7.9-3.68-.2-1.3,.49-2.64,1.76-2.84,1.02-.16,1.93,.35,2.1,1.41,.11,.71-.19,1.55-1.06,1.75,.56,2.66,2.72,3.3,5.11,2.92,6.31-.98,8.27-8.33,10.38-13.32l-1.55,.24Z" style="fill: #89202a;"/>
      <path d="M220.47,.25c-7.37,8.08-13.94,17.11-14.04,23.63-.02,1.21,.44,1.72,1.15,1.73,1.36,.02,3.84-1.65,6.24-4,1.56-1.54,3.52-3.9,4.36-4.92l.28,.18c-1.09,1.41-2.44,3.17-4.72,5.38-2.46,2.39-4.88,4.17-7.31,4.13-2.39-.04-3-1.69-2.98-3.47,.05-2.89,1.2-5.58,2.52-7.98l-4.99-.08c-3.96,4.54-9.88,11-16.41,10.9-2.82-.05-5.51-1.37-5.46-4.3,.02-1.35,.83-2.73,2.33-2.71,.93,.02,1.7,.71,1.69,1.56-.02,1.28-.85,1.81-2.1,1.79-.03,2.03,2.02,3.21,3.73,3.23,6.38,.1,12.56-7.07,16.49-11.36,5.3-5.76,11.46-11.73,18.99-13.92l.25,.22Zm-14.29,14.25c2.71-4.63,6.24-8.85,10.26-12.5l-.07-.07c-5.65,2.83-10.28,7.32-15.01,12.49l4.81,.08Z" style="fill: #89202a;"/>
      <path d="M240.36,15.46c-1.95,1.93-4.73,3.05-7.54,2.54-2.88-.53-4.86-2.96-4.32-5.9,.98-5.33,8.24-7.99,12.98-7.12,4.24,.78,6.97,3.49,6.17,7.91-1.39,7.58-15.3,12.1-20.86,13.11v.07c2.49,.97,3.75,1.63,6.49,2.13,6.53,1.19,9.53-1.74,14.27-5.65l.21,.26c-4.63,4.08-10.04,8.68-16.67,7.46-2.67-.49-4.94-2.1-7.19-3.49-2.05,.53-4.34,.73-6.41,.35-.91-.17-3.61-.88-3.36-2.25,.28-1.51,3.79-1.52,6.04-1.11,2.25,.41,4.62,1.5,6.21,2.12,6.69-1.71,16.58-6.43,17.81-13.13,.61-3.33-.26-6.68-4.05-7.38-4.35-.8-8.32,2.07-9.13,6.49-.46,2.53,.39,5,3.2,5.52,2.17,.4,4.28-.59,5.9-2.11l.26,.19Zm-21.85,11.19c1.68,.31,3.46,.31,5.13-.08-1.12-.79-3.59-2.4-4.88-2.63-.91-.17-2.17-.22-2.4,1.01-.21,1.12,1.24,1.53,2.15,1.7Z" style="fill: #89202a;"/>
    </g>
  </g>
</svg>