<?xml version="1.0" encoding="UTF-8"?>
<svg id="b" data-name="圖層 2" xmlns="http://www.w3.org/2000/svg" width="140.79" height="52.75" viewBox="0 0 140.79 52.75">
  <g id="c" data-name="圖層 3">
    <line x1="140.79" y1="52.5" x2="0" y2="52.5" style="fill: none; stroke: #89202a; stroke-miterlimit: 10; stroke-width: .5px;"/>
    <line x1="140.79" y1="15.76" x2="0" y2="15.76" style="fill: none; stroke: #89202a; stroke-miterlimit: 10; stroke-width: .5px;"/>
    <g>
      <path d="M67.55,4.59s-10.06-6.37-15.05-2.62c-1.33,1-1.67,2.69-.72,4.05,1.23,1.74,5.89,3.28,14.6,1.89" style="fill: none; stroke: #c7ba99; stroke-miterlimit: 10; stroke-width: 1.57px;"/>
      <path d="M73.23,4.59s10.06-6.37,15.05-2.62c1.33,1,1.67,2.69,.72,4.05-1.23,1.74-5.89,3.28-14.6,1.89" style="fill: none; stroke: #c7ba99; stroke-miterlimit: 10; stroke-width: 1.57px;"/>
      <path d="M73.23,4.59s10.06-6.37,15.05-2.62c1.33,1,1.67,2.69,.72,4.05-1.23,1.74-5.89,3.28-14.6,1.89" style="fill: none; stroke: #89202a; stroke-miterlimit: 10; stroke-width: .39px;"/>
      <line x1="70.38" y1="3.93" x2="70.38" y2="8.44" style="fill: none; stroke: #c7ba99; stroke-linecap: round; stroke-linejoin: round; stroke-width: 1.18px;"/>
      <line x1="71.99" y1="3.93" x2="71.99" y2="8.44" style="fill: none; stroke: #c7ba99; stroke-linecap: round; stroke-linejoin: round; stroke-width: 1.18px;"/>
      <line x1="68.76" y1="3.93" x2="68.76" y2="8.44" style="fill: none; stroke: #c7ba99; stroke-linecap: round; stroke-linejoin: round; stroke-width: 1.18px;"/>
      <path d="M67.55,4.59s-10.06-6.37-15.05-2.62c-1.33,1-1.67,2.69-.72,4.05,1.23,1.74,5.89,3.28,14.6,1.89" style="fill: none; stroke: #89202a; stroke-miterlimit: 10; stroke-width: .39px;"/>
      <g>
        <line x1="70.38" y1="3.93" x2="70.38" y2="8.44" style="fill: none; stroke: #89202a; stroke-miterlimit: 10; stroke-width: .39px;"/>
        <line x1="71.99" y1="3.93" x2="71.99" y2="8.44" style="fill: none; stroke: #89202a; stroke-miterlimit: 10; stroke-width: .39px;"/>
        <line x1="68.76" y1="3.93" x2="68.76" y2="8.44" style="fill: none; stroke: #89202a; stroke-miterlimit: 10; stroke-width: .39px;"/>
      </g>
    </g>
    <g>
      <path d="M8.49,38.28c-.4,1.12-1.04,2.4-1.62,3.22-.24-.19-.72-.54-1.02-.7,.59-.75,1.14-1.84,1.47-2.87l1.17,.35Zm2.06-1.04v5.43h-1.44v-5.43h-3.07v-1.26h3.07v-1.46h-3.17v-1.25h1.74c-.06-.54-.29-1.38-.56-2l1.22-.3c.26,.62,.51,1.44,.59,1.97l-1.18,.34h2.53c.29-.67,.62-1.65,.78-2.32l1.38,.29c-.27,.7-.54,1.44-.82,2.03h1.87v1.25h-2.95v1.46h2.72v1.26h-2.72Zm2.69-6.31H6.2v-1.23h2.93c-.18-.45-.38-.96-.58-1.36l1.47-.38c.27,.54,.59,1.22,.8,1.74h2.42v1.23Zm-1.14,6.87c.53,.75,1.07,1.76,1.33,2.4l-1.04,.62c-.26-.67-.8-1.71-1.28-2.48l.99-.54Zm8.42-3.04h-1.63v7.92h-1.46v-7.92h-1.87v.38c0,2.3-.21,5.51-1.63,7.54-.22-.27-.83-.72-1.13-.88,1.26-1.86,1.38-4.56,1.38-6.66v-5.54c1.78-.3,3.75-.8,4.9-1.3l1.17,1.09c-1.31,.51-3.04,.9-4.67,1.18v2.8h4.96v1.38Z" style="fill: #80292d;"/>
      <path d="M29.74,37.59l.26,1.31c-1.52,.64-3.17,1.3-4.47,1.81l-.48-1.47c.53-.16,1.14-.38,1.83-.62v-5.33h-1.6v-1.38h1.6v-3.65h1.36v3.65h1.54v1.38h-1.54v4.85l1.5-.54Zm9.22-7.23v5.38h-8.6v-5.38h2.06c-.24-.51-.66-1.22-1.06-1.76l1.27-.53c.45,.54,.93,1.3,1.15,1.79l-1.04,.5h2.69c.43-.66,.98-1.63,1.25-2.34l1.54,.51c-.43,.62-.87,1.3-1.28,1.82h2.02Zm-7.79,6.21h7.07v6.18h-1.41v-.77h-4.32v.77h-1.34v-6.18Zm.4-1.86h2.51v-3.33h-2.51v3.33Zm1.15-2.96c.45,.67,.9,1.6,1.04,2.21l-.87,.35c-.11-.62-.54-1.57-.98-2.27l.8-.29Zm-.21,5.94v1.1h4.32v-1.1h-4.32Zm4.32,3.17v-.99h-4.32v.99h4.32Zm.87-9.48h-2.48v3.33h2.48v-3.33Zm-2.27,2.62c.38-.59,.88-1.58,1.1-2.24l.96,.34c-.43,.78-.95,1.65-1.33,2.23l-.74-.32Z" style="fill: #80292d;"/>
      <path d="M58.33,30.42v3.57h-1.47v-2.29h-10.48v2.29h-1.43v-3.57h2.37c-.26-.5-.69-1.18-1.09-1.68l1.34-.53c.5,.53,1.01,1.28,1.27,1.79l-.95,.42h2.98v-2.35h1.54v2.35h2.87l-.96-.37c.42-.51,.98-1.31,1.25-1.86l1.58,.51c-.5,.62-1.02,1.26-1.47,1.71h2.66Zm-.91,10.18c0,.72-.16,1.12-.71,1.34-.56,.21-1.38,.22-2.58,.22-.08-.4-.3-.98-.5-1.36,.85,.03,1.7,.03,1.92,.03,.26-.02,.32-.06,.32-.26v-1.92h-3.33v4.1h-1.54v-4.1h-3.54v3.38h-1.5v-4.72h5.04v-1.17h-3.58v-3.49h8.42v3.49h-3.3v1.17h4.87v3.28Zm-8.56-5.54h5.47v-1.31h-5.47v1.31Z" style="fill: #80292d;"/>
      <path d="M77.02,40.89c0,.86-.21,1.31-.78,1.54-.59,.24-1.52,.27-2.99,.26-.06-.4-.3-1.06-.5-1.44,1.03,.05,2.08,.03,2.38,.03s.4-.1,.4-.4v-2.87h-3.87v4.58h-1.49v-4.58h-3.68c-.26,1.76-.83,3.55-2,4.85-.22-.29-.83-.8-1.17-.98,1.74-1.94,1.9-4.77,1.9-7.03v-5.7h11.8v11.73Zm-6.85-4.29v-2.37h-3.47v.64c0,.54-.02,1.14-.06,1.73h3.54Zm-3.47-6.02v2.26h3.47v-2.26h-3.47Zm8.84,0h-3.87v2.26h3.87v-2.26Zm0,6.02v-2.37h-3.87v2.37h3.87Z" style="fill: #80292d;"/>
      <path d="M87.11,28.32h1.47v14.45h-1.47v-4.26c-2.74,.96-3.23,1.23-3.57,1.49-.1-.37-.37-1.02-.58-1.36,.24-.16,.56-.45,.56-1.09v-7.73h1.46v7.92l2.13-.67v-8.76Zm9.11,4.18c-.43,2.45-1.07,4.48-2.06,6.16,.91,1.22,1.98,2.18,3.28,2.83-.35,.26-.8,.82-1.03,1.2-1.2-.69-2.24-1.63-3.11-2.77-.9,1.15-2.02,2.11-3.42,2.88-.16-.32-.67-.94-.98-1.23,1.5-.72,2.67-1.7,3.57-2.95-.7-1.2-1.26-2.58-1.74-4.05-.3,.61-.67,1.15-1.06,1.62-.21-.3-.74-.96-1.06-1.26,1.36-1.58,2.16-4.15,2.59-6.87l1.52,.26c-.16,.94-.37,1.87-.62,2.77h5.19v1.41h-1.07Zm-4.69,.34c.42,1.62,.99,3.14,1.74,4.47,.69-1.34,1.15-2.94,1.46-4.8h-3.07l-.13,.34Z" style="fill: #80292d;"/>
      <path d="M106.75,28.55c-.42,1.17-.96,2.34-1.57,3.46v10.72h-1.41v-8.48c-.4,.56-.83,1.1-1.25,1.55-.14-.35-.56-1.15-.82-1.5,1.46-1.5,2.82-3.83,3.65-6.16l1.39,.42Zm9.71,8.77h-4.24v5.43h-1.49v-5.43h-4.43v-1.46h4.43v-3.17h-2.27c-.32,.86-.67,1.65-1.07,2.26-.29-.21-.93-.56-1.28-.72,.9-1.28,1.55-3.33,1.9-5.33l1.44,.29c-.14,.69-.32,1.38-.51,2.05h1.79v-2.98h1.49v2.98h3.52v1.46h-3.52v3.17h4.24v1.46Z" style="fill: #80292d;"/>
      <path d="M129.16,28.11c-.02,.61-.03,1.44-.11,2.38,.22,2,1.2,8.39,6.79,10.87-.43,.34-.88,.86-1.09,1.26-3.76-1.78-5.51-5.3-6.35-8.16-.8,3.01-2.5,6.24-6.12,8.24-.26-.38-.74-.86-1.23-1.18,6.55-3.39,6.37-10.85,6.42-13.41h1.7Z" style="fill: #80292d;"/>
    </g>
  </g>
</svg>