<?xml version="1.0" encoding="UTF-8"?>
<svg id="b" data-name="圖層 2" xmlns="http://www.w3.org/2000/svg" width="204.94" height="26.36" viewBox="0 0 204.94 26.36">
  <g id="c" data-name="圖層 1">
    <g>
      <g>
        <path d="M25.96,12.9c-.5,1.4-1.3,3-2.02,4.02-.3-.24-.9-.68-1.28-.88,.74-.94,1.42-2.3,1.84-3.58l1.46,.44Zm2.58-1.3v6.78h-1.8v-6.78h-3.84v-1.58h3.84v-1.82h-3.96v-1.56h2.18c-.08-.68-.36-1.72-.7-2.5l1.52-.38c.32,.78,.64,1.8,.74,2.46l-1.48,.42h3.16c.36-.84,.78-2.06,.98-2.9l1.72,.36c-.34,.88-.68,1.8-1.02,2.54h2.34v1.56h-3.68v1.82h3.4v1.58h-3.4Zm3.36-7.88h-8.8v-1.54h3.66c-.22-.56-.48-1.2-.72-1.7l1.84-.48c.34,.68,.74,1.52,1,2.18h3.02v1.54Zm-1.42,8.58c.66,.94,1.34,2.2,1.66,3l-1.3,.78c-.32-.84-1-2.14-1.6-3.1l1.24-.68Zm10.52-3.8h-2.04v9.9h-1.82V8.5h-2.34v.48c0,2.88-.26,6.88-2.04,9.42-.28-.34-1.04-.9-1.42-1.1,1.58-2.32,1.72-5.7,1.72-8.32V2.06c2.22-.38,4.68-1,6.12-1.62l1.46,1.36c-1.64,.64-3.8,1.12-5.84,1.48v3.5h6.2v1.72Z" style="fill: #80292d;"/>
        <path d="M52.53,12.04l.32,1.64c-1.9,.8-3.96,1.62-5.58,2.26l-.6-1.84c.66-.2,1.42-.48,2.28-.78V6.66h-2v-1.72h2V.38h1.7V4.94h1.92v1.72h-1.92v6.06l1.88-.68Zm11.52-9.04v6.72h-10.74V3h2.58c-.3-.64-.82-1.52-1.32-2.2l1.58-.66c.56,.68,1.16,1.62,1.44,2.24l-1.3,.62h3.36c.54-.82,1.22-2.04,1.56-2.92l1.92,.64c-.54,.78-1.08,1.62-1.6,2.28h2.52Zm-9.74,7.76h8.84v7.72h-1.76v-.96h-5.4v.96h-1.68v-7.72Zm.5-2.32h3.14V4.28h-3.14v4.16Zm1.44-3.7c.56,.84,1.12,2,1.3,2.76l-1.08,.44c-.14-.78-.68-1.96-1.22-2.84l1-.36Zm-.26,7.42v1.38h5.4v-1.38h-5.4Zm5.4,3.96v-1.24h-5.4v1.24h5.4Zm1.08-11.84h-3.1v4.16h3.1V4.28Zm-2.84,3.28c.48-.74,1.1-1.98,1.38-2.8l1.2,.42c-.54,.98-1.18,2.06-1.66,2.78l-.92-.4Z" style="fill: #80292d;"/>
        <path d="M88.27,3.08V7.54h-1.84v-2.86h-13.1v2.86h-1.78V3.08h2.96c-.32-.62-.86-1.48-1.36-2.1l1.68-.66c.62,.66,1.26,1.6,1.58,2.24l-1.18,.52h3.72V.14h1.92V3.08h3.58l-1.2-.46c.52-.64,1.22-1.64,1.56-2.32l1.98,.64c-.62,.78-1.28,1.58-1.84,2.14h3.32Zm-1.14,12.72c0,.9-.2,1.4-.88,1.68-.7,.26-1.72,.28-3.22,.28-.1-.5-.38-1.22-.62-1.7,1.06,.04,2.12,.04,2.4,.04,.32-.02,.4-.08,.4-.32v-2.4h-4.16v5.12h-1.92v-5.12h-4.42v4.22h-1.88v-5.9h6.3v-1.46h-4.48V5.88h10.52v4.36h-4.12v1.46h6.08v4.1Zm-10.7-6.92h6.84v-1.64h-6.84v1.64Z" style="fill: #80292d;"/>
        <path d="M111.63,16.16c0,1.08-.26,1.64-.98,1.92-.74,.3-1.9,.34-3.74,.32-.08-.5-.38-1.32-.62-1.8,1.28,.06,2.6,.04,2.98,.04,.36,0,.5-.12,.5-.5v-3.58h-4.84v5.72h-1.86v-5.72h-4.6c-.32,2.2-1.04,4.44-2.5,6.06-.28-.36-1.04-1-1.46-1.22,2.18-2.42,2.38-5.96,2.38-8.78V1.5h14.74v14.66Zm-8.56-5.36v-2.96h-4.34v.8c0,.68-.02,1.42-.08,2.16h4.42Zm-4.34-7.52v2.82h4.34V3.28h-4.34Zm11.04,0h-4.84v2.82h4.84V3.28Zm0,7.52v-2.96h-4.84v2.96h4.84Z" style="fill: #80292d;"/>
        <path d="M131.17,3.14c0,.14,0,.3-.04,.48,1.08,1.1,3.22,1.78,5.86,1.94-.36,.38-.82,1.04-1,1.52-2.28-.32-4.1-1.04-5.36-2.2-.72,.92-2.3,1.78-5.74,2.26-.18-.42-.6-1.04-.94-1.38h-5.08v-1.46h5.8v1.32c4.34-.56,4.8-1.68,4.8-2.54v-.26h-1.66c-.44,.72-.94,1.36-1.46,1.86-.3-.26-.98-.74-1.4-.94,1.04-.9,1.86-2.28,2.3-3.68l1.66,.36c-.12,.34-.24,.66-.38,1h6.24l.26-.08,1.28,.42c-.5,1.06-1.18,2.22-1.74,2.96l-1.46-.52c.26-.36,.56-.88,.84-1.38h-2.78v.32Zm-.16,12.12c2.06,.68,4.28,1.52,5.64,2.18l-1.68,1.02c-1.22-.66-3.32-1.56-5.38-2.26l1.16-.94h-5.98l1.66,.76c-1.62,.98-4.12,1.94-6.12,2.5-.32-.38-.98-1.06-1.38-1.4,2.04-.4,4.38-1.08,5.76-1.86h-3.22V7.22h13.04V15.26h-3.5Zm-6.82-12.62h-4.9V1.24h4.9v1.4Zm-.92,6.9h9.38v-1.14h-9.38v1.14Zm0,2.24h9.38v-1.12h-9.38v1.12Zm0,2.3h9.38v-1.16h-9.38v1.16Z" style="fill: #80292d;"/>
        <path d="M145.78,9.96c-.4,2.24-1.24,5.04-2.38,6.48-.16-.62-.56-1.56-.88-2.16,.82-1.1,1.62-3.14,1.94-4.8l1.32,.48Zm2.68-.44c.42,.58,1.86,3.2,2.16,3.82l-1.3,1.42c-.32-1.02-1.16-2.98-1.68-4.08v7.82h-1.74V8.52h-3.1v-1.74h3.1V.16h1.74V6.78h3.12v1.74h-3.12v1.6l.82-.6Zm-4.58-3.28c-.08-1.2-.52-3.08-1-4.5l1.32-.34c.56,1.42,.98,3.26,1.1,4.48l-1.42,.36Zm7.04-4.54c-.52,1.52-1.12,3.38-1.64,4.52l-1.18-.36c.42-1.2,.96-3.18,1.2-4.52l1.62,.36Zm7.74,11.28v5.52h-1.74v-5.2l-5.92,1.08-.3-1.72,6.22-1.12V.16h1.74V11.22l2.22-.38,.26,1.7-2.48,.44Zm-4.3-2.9c-.68-.72-2.1-1.76-3.28-2.4l.88-1.34c1.16,.62,2.62,1.56,3.34,2.26l-.94,1.48Zm.8-4.82c-.62-.78-1.98-1.86-3.12-2.58l.94-1.26c1.12,.68,2.5,1.68,3.16,2.42l-.98,1.42Z" style="fill: #80292d;"/>
      </g>
      <g>
        <polyline points="8.68 25.41 200.55 25.41 178.09 15.25" style="fill: none; stroke: #8a202a; stroke-miterlimit: 10; stroke-width: 1.9px;"/>
        <rect y="15.25" width="8.68" height="9.21" transform="translate(8.68 39.7) rotate(180)" style="fill: #8a202a;"/>
      </g>
    </g>
  </g>
</svg>