<?xml version="1.0" encoding="UTF-8"?>
<svg id="b" data-name="圖層 2" xmlns="http://www.w3.org/2000/svg" width="128.31" height="25.94" viewBox="0 0 128.31 25.94">
  <g id="c" data-name="圖層 1">
    <g>
      <path d="M42.28,.6c-.44,1.3-.96,2.62-1.54,3.9v13.86h-1.76V7.76c-.52,.82-1.04,1.56-1.6,2.22-.16-.46-.66-1.5-.94-1.96,1.66-1.94,3.2-4.9,4.12-7.9l1.72,.48Zm11.16,3.02c-.64,1.24-1.48,2.3-2.48,3.2,1.3,.7,2.86,1.24,4.68,1.56-.32,.38-.8,1.06-1.02,1.52-1.96-.44-3.62-1.18-5-2.06-1.4,.96-3.04,1.68-4.82,2.22-.18-.34-.64-.94-.98-1.32v6.34h-1.62V2.44h1.62v2.66c1.44-1.28,2.7-3.14,3.42-5.1l1.7,.42c-.22,.58-.48,1.14-.78,1.7h6.84v1.5h-1.56Zm-9.62,4.96c1.64-.4,3.14-.98,4.42-1.76-.74-.62-1.34-1.28-1.84-1.96-.48,.6-.98,1.12-1.48,1.58-.24-.22-.72-.6-1.1-.88v3.02Zm11.26,5.22c-2,2.36-5.64,3.74-9.78,4.48-.2-.44-.6-1.08-.96-1.46,3.86-.56,7.4-1.72,9.14-3.68l1.6,.66Zm-3.78-4.16c-1.24,1.24-3.24,2.24-5.1,2.84-.24-.32-.66-.8-1.02-1.08,1.72-.48,3.68-1.34,4.72-2.34l1.4,.58Zm1.88,1.84c-1.54,1.7-4.18,2.9-6.86,3.62-.22-.36-.6-.88-.92-1.2,2.48-.56,5.08-1.6,6.4-2.98l1.38,.56Zm-5.88-7.86l-.02,.02c.54,.8,1.28,1.58,2.24,2.28,.8-.66,1.46-1.42,1.98-2.3h-4.2Z" style="fill: #80292d;"/>
      <path d="M77.92,5.36c-.54,3.18-1.34,5.8-2.62,7.9,1.08,1.5,2.44,2.68,4.1,3.44-.42,.36-1,1.08-1.28,1.56-1.58-.82-2.9-1.98-3.96-3.38-1.18,1.44-2.7,2.62-4.6,3.56-.2-.42-.74-1.28-1.1-1.7,1.98-.86,3.5-2.04,4.64-3.56-.84-1.52-1.48-3.24-1.98-5.14-.4,.72-.82,1.38-1.24,1.98-.24-.3-.76-.82-1.16-1.2v.02h-5.06v5.76l5.04-1.76c.02,.54,.12,1.34,.24,1.74-5.74,2.2-6.6,2.58-7.1,3-.1-.52-.42-1.44-.7-1.92,.32-.16,.66-.46,.66-1.18V7h5.08V3.18h-5.32V1.34h7.16v6.98c1.5-2.04,2.54-5.12,3.14-8.32l1.84,.34c-.24,1.12-.52,2.24-.82,3.3h6.14v1.72h-1.1Zm-5.7,.16c.44,2.16,1.06,4.16,1.96,5.88,.86-1.68,1.42-3.68,1.8-6.04h-3.7l-.06,.16Z" style="fill: #80292d;"/>
    </g>
    <polyline points="8.68 25.29 125.3 25.29 102.84 15.13" style="fill: none; stroke: #8a202a; stroke-miterlimit: 10; stroke-width: 1.3px;"/>
    <rect y="15.13" width="8.68" height="9.21" transform="translate(8.68 39.46) rotate(180)" style="fill: #8a202a;"/>
  </g>
</svg>