<?xml version="1.0" encoding="UTF-8"?>
<svg id="b" data-name="圖層 2" xmlns="http://www.w3.org/2000/svg" width="87.57" height="18.69" viewBox="0 0 87.57 18.69">
  <g id="c" data-name="圖層 3">
    <g>
      <path d="M26.18,6.07h.85v1.26h-.85v5.15c0,.54-.08,.92-.42,1.14-.33,.2-.74,.24-1.38,.24-.04-.32-.24-.9-.4-1.2h.82c.13,0,.18-.04,.18-.21V7.33h-1v6.11h-.92V7.33h-.97v6.17h-.95V7.33h-.91v6.55h-1.19V7.33h-.9v-1.26h.9V.79h7.14V6.07Zm-5.04,0V2.01h-.91V6.07h.91Zm1.92,0V2.01h-.97V6.07h.97Zm1.92,0V2.01h-1V6.07h1Zm3.6,4.12h-1.21V1.92h1.21V10.2ZM31.31,.42V12.21c0,.76-.15,1.16-.63,1.38-.48,.23-1.29,.27-2.37,.27-.04-.38-.24-.98-.42-1.37,.81,.03,1.59,.01,1.85,.01,.22-.01,.3-.07,.3-.31V.42h1.28Z" style="fill: #841f29;"/>
      <path d="M47.48,1.18c-.43,1.25-.96,2.73-1.44,3.88,1.02,1.2,1.26,2.28,1.26,3.18s-.2,1.5-.62,1.83c-.22,.15-.49,.24-.82,.3-.27,.03-.66,.03-1.02,.02-.02-.33-.11-.87-.3-1.21,.3,.04,.57,.04,.79,.03,.18-.01,.33-.04,.44-.15,.22-.14,.3-.51,.3-.96,0-.77-.23-1.77-1.23-2.9,.38-.96,.76-2.23,1.05-3.22h-1.59V13.86h-1.21V.72h3.29l.2-.04,.91,.51Zm2.66,8.53c-.57,1.2-1.43,2.48-2.19,3.29-.24-.19-.73-.57-1.03-.75,.76-.73,1.53-1.84,1.99-2.88l1.23,.34Zm2.5-1v3.66c0,.69-.13,1.05-.62,1.26-.45,.21-1.17,.24-2.19,.24-.07-.36-.3-.92-.46-1.28,.75,.03,1.43,.03,1.65,.03,.21-.01,.29-.08,.29-.27v-3.65h-3.75v-1.27h3.75v-1.58h-2.47v-1.02c-.29,.18-.57,.38-.86,.54-.21-.33-.59-.75-.93-1.02,1.84-.93,3.69-2.59,4.66-4.36l1.19,.45c-.11,.2-.22,.39-.35,.58,1.32,1.53,2.7,2.45,3.99,3.14-.33,.25-.73,.73-.93,1.09-.29-.18-.57-.36-.86-.56v1.16h-2.12v1.58h3.53v1.27h-3.53Zm2.04-4.06c-.93-.66-1.85-1.49-2.84-2.64-.79,.99-1.72,1.9-2.74,2.64h5.58Zm-.32,4.6c.79,.92,1.67,2.17,2.09,3l-1.11,.65c-.39-.86-1.28-2.17-2.04-3.11l1.06-.54Z" style="fill: #841f29;"/>
    </g>
    <polyline points="5.43 18.19 85.01 18.19 70.29 12.2" style="fill: none; stroke: #841f29; stroke-miterlimit: 10;"/>
    <rect y="12.2" width="5.43" height="5.43" transform="translate(5.43 29.83) rotate(180)" style="fill: #841f29;"/>
  </g>
</svg>