<?xml version="1.0" encoding="UTF-8"?>
<svg id="b" data-name="圖層 2" xmlns="http://www.w3.org/2000/svg" width="128.31" height="26.08" viewBox="0 0 128.31 26.08">
  <g id="c" data-name="圖層 1">
    <g>
      <path d="M47.56,8.1h1.14v1.68h-1.14v6.86c0,.72-.1,1.22-.56,1.52-.44,.26-.98,.32-1.84,.32-.06-.42-.32-1.2-.54-1.6h1.1c.18,0,.24-.06,.24-.28v-6.82h-1.34v8.14h-1.22V9.78h-1.3v8.22h-1.26V9.78h-1.22v8.74h-1.58V9.78h-1.2v-1.68h1.2V1.06h9.52v7.04Zm-6.72,0V2.68h-1.22v5.42h1.22Zm2.56,0V2.68h-1.3v5.42h1.3Zm2.56,0V2.68h-1.34v5.42h1.34Zm4.8,5.5h-1.62V2.56h1.62V13.6ZM54.4,.56v15.72c0,1.02-.2,1.54-.84,1.84-.64,.3-1.72,.36-3.16,.36-.06-.5-.32-1.3-.56-1.82,1.08,.04,2.12,.02,2.46,.02,.3-.02,.4-.1,.4-.42V.56h1.7Z" style="fill: #80292d;"/>
      <path d="M67.46,1.58c-.58,1.66-1.28,3.64-1.92,5.18,1.36,1.6,1.68,3.04,1.68,4.24s-.26,2-.82,2.44c-.3,.2-.66,.32-1.1,.4-.36,.04-.88,.04-1.36,.02-.02-.44-.14-1.16-.4-1.62,.4,.06,.76,.06,1.06,.04,.24-.02,.44-.06,.58-.2,.3-.18,.4-.68,.4-1.28,0-1.02-.3-2.36-1.64-3.86,.5-1.28,1.02-2.98,1.4-4.3h-2.12v15.84h-1.62V.96h4.38l.26-.06,1.22,.68Zm3.54,11.38c-.76,1.6-1.9,3.3-2.92,4.38-.32-.26-.98-.76-1.38-1,1.02-.98,2.04-2.46,2.66-3.84l1.64,.46Zm3.34-1.34v4.88c0,.92-.18,1.4-.82,1.68-.6,.28-1.56,.32-2.92,.32-.1-.48-.4-1.22-.62-1.7,1,.04,1.9,.04,2.2,.04,.28-.02,.38-.1,.38-.36v-4.86h-5v-1.7h5v-2.1h-3.3v-1.36c-.38,.24-.76,.5-1.14,.72-.28-.44-.78-1-1.24-1.36,2.46-1.24,4.92-3.46,6.22-5.82l1.58,.6c-.14,.26-.3,.52-.46,.78,1.76,2.04,3.6,3.26,5.32,4.18-.44,.34-.98,.98-1.24,1.46-.38-.24-.76-.48-1.14-.74v1.54h-2.82v2.1h4.7v1.7h-4.7Zm2.72-5.42c-1.24-.88-2.46-1.98-3.78-3.52-1.06,1.32-2.3,2.54-3.66,3.52h7.44Zm-.42,6.14c1.06,1.22,2.22,2.9,2.78,4l-1.48,.86c-.52-1.14-1.7-2.9-2.72-4.14l1.42-.72Z" style="fill: #80292d;"/>
    </g>
    <polyline points="8.68 25.43 125.3 25.43 102.84 15.27" style="fill: none; stroke: #8a202a; stroke-miterlimit: 10; stroke-width: 1.3px;"/>
    <rect y="15.27" width="8.68" height="9.21" transform="translate(8.68 39.74) rotate(180)" style="fill: #8a202a;"/>
  </g>
</svg>