<?xml version="1.0" encoding="UTF-8"?>
<svg id="b" data-name="圖層 2" xmlns="http://www.w3.org/2000/svg" width="213.38" height="118.51" viewBox="0 0 213.38 118.51">
  <g id="c" data-name="圖層 3">
    <g>
      <path d="M42.74,23.94l-.12-.15,.63-.49c-.5-2.67-.23-5.04,1.62-7.17l-.02-.03c-1.1,.85-2.24,1.65-3.35,2.5-2.39,1.85-6.08,5.44-4.42,7.59,.76,.99,2.26,.48,3.12-.19,1.76-1.36,2.32-3.22,1.08-4.83-.14-.18-.21-.27-.29-.34l.15-.12c.1,.13,.21,.24,.29,.36,1.33,1.72,.88,4.23-.83,5.55-1.04,.8-2.66,1.02-3.56-.14-.74-.96-.67-1.97-.35-2.96,.96-3,3.46-5.28,5.81-7.08,1.39-1.07,3.18-2.21,3.91-2.73,.47-.34,.73-.36,.99-.02,.21,.28,.04,.71-.68,1.27-.52,.4-1.09,.74-1.62,1.15-1.56,1.2-.89,4.56-.6,6.22,.59-.54,1.53-1.16,1.24-2.09,.43-.39,.89-.76,1.34-1.12-.48,1.71-.94,3.55-.46,5.3l-.1,.08c-.37-1.03-.59-2.11-.68-3.16-.28,.32-.96,.9-1.29,1.18,.33,3.26,.54,6.37-2.41,8.64-1.01,.78-2.93,1.51-3.9,.26-.36-.47-.38-1.14,.08-1.5,.37-.28,.83-.28,1.13,.1,.2,.25,.26,.65-.04,.92,.79,.92,1.78,.71,2.64,.04,2.27-1.75,1.45-5.06,1.21-7.47l-.56,.43Z" style="fill: #7c282c;"/>
      <path d="M49.83,25.19c-.06-2.17-.06-4.34-.12-6.54l1.52-1.01-.24,3.64h.04c.32-2.52,.93-3.3,1.03-3.75,.15-.64,.36-.82,1.36-1.48-.04,.7-.07,1.45,.31,2.06,.25,.41,.55,.47,.95,.23,.52-.32,.69-1.08,.8-1.62l.1,.04c-.12,.94-.55,1.82-1.37,2.33-.72,.45-1.42,.33-1.87-.41-.14-.23-.21-.53-.21-.79h-.04c-.91,1.96-1.04,4.44-.92,6.42l-1.35,.89Z" style="fill: #7c282c;"/>
      <path d="M63,12.97c-.18,1.08-.42,2.2-.91,3.51-.7,1.86-1.73,2.86-2.78,3.4-1.08,.56-2.12,.19-2.64-.83-.94-1.82,.54-5,2.32-5.91,.81-.42,1.46-.34,1.76,.23,.71,1.38-2.08,3.58-2.96,4.3,.04,.19,.1,.38,.19,.55,.42,.81,1.2,1.13,2.01,.71,.8-.41,1.53-1.42,2.04-2.82,.38-1.08,.67-2.27,.84-3.19l.15,.05Zm-4.16,.45c-.95,.49-1.36,3.01-1.11,4.09,1.39-1.11,2.17-2.99,1.69-3.92-.13-.26-.35-.29-.58-.17Z" style="fill: #7c282c;"/>
      <path d="M69.77,8.64l-1.04,6.88c1.88-1.5,2.81-3.91,3.41-6.32l.14,.05c-.54,2.13-1.27,4.69-3.56,6.53l-.69,5.23-1.6,.73c.4-2.52,.77-5.04,1.26-7.51l-.04-.02c-.35,.99-.86,1.95-1.88,2.37-.9,.37-1.55-.19-1.88-.99-.79-1.92,.52-4.99,2.43-5.78,.81-.33,1.38-.19,1.88,.54h.03s.04-1,.04-1l1.5-.72Zm-3.38,7.1c1.36-.56,1.73-4.12,1.23-5.35-.18-.44-.49-.7-.95-.51-1.41,.58-1.93,3.75-1.4,5.06,.2,.49,.58,1.03,1.12,.8Z" style="fill: #7c282c;"/>
      <path d="M78.93,5.69c-.79,3.16-1.5,4.95-1.23,5.84,.07,.21,.21,.3,.39,.25,.5-.16,1.19-1.19,1.71-2.17,.62-1.2,1.16-2.54,1.4-3.18l.15,.05c-.29,.79-.78,2.03-1.37,3.17-.7,1.37-1.38,2.27-2.22,2.53-.61,.19-1.14-.1-1.31-.65-.12-.38-.12-.73-.08-.93l-.04-.02c-.49,1.01-1.11,2.38-2.41,2.79-.63,.19-1.1-.16-1.27-.7-.24-.78,.22-2.48,.92-5.26l1.6-.56c-.85,2.96-1.48,4.86-1.24,5.64,.08,.24,.29,.38,.5,.31,.76-.24,1.84-2.12,2.3-3.96l.66-2.55,1.54-.61Z" style="fill: #7c282c;"/>
      <path d="M89.4,4.86c-.45,1-.97,2.01-1.78,3.16-1.15,1.61-2.41,2.31-3.56,2.57-1.19,.26-2.09-.36-2.34-1.48-.44-2,1.8-4.69,3.76-5.12,.89-.2,1.5,.05,1.64,.67,.33,1.52-2.93,2.92-3.97,3.39,0,.2,0,.39,.05,.58,.2,.89,.86,1.4,1.75,1.2,.88-.19,1.85-.98,2.7-2.2,.64-.94,1.23-2.02,1.63-2.86l.13,.08Zm-4.14-.63c-1.05,.23-2.09,2.56-2.13,3.66,1.63-.72,2.86-2.33,2.64-3.35-.06-.28-.26-.37-.51-.31Z" style="fill: #7c282c;"/>
      <path d="M91.24,6.13c.5-.84,1.93-3.42,3.58-3.64,.7-.09,1.12,.3,1.2,.87,.19,1.43-1.77,3.38-1.62,4.56,.03,.25,.18,.41,.47,.37,.3-.04,.92-.49,1.91-1.89,.77-1.09,1.46-2.23,1.78-2.74l.17,.06c-.47,.72-1.17,1.9-1.94,2.97-.96,1.31-1.56,1.84-2.38,1.95-.81,.11-1.24-.37-1.32-.94-.19-1.43,1.77-3.43,1.64-4.41-.03-.22-.21-.38-.5-.34-1.25,.17-3.58,4.38-4.16,6.06l-1.6,.26c.86-2,1.78-3.98,2.62-6.03l1.8-.31-1.68,3.16,.04,.03Z" style="fill: #7c282c;"/>
      <path d="M99.31,2.62l.09-.29,1.23-.07,1.08-2.09,1.72-.17-1.2,2.16,2.03-.12-.13,.3-2.06,.12c-1.73,3.28-2.32,4.28-2.29,4.9,.02,.27,.19,.45,.46,.44,.53-.03,1.44-.66,2.37-1.68,.65-.71,1.45-1.75,2.1-2.72l.1,.07c-.44,.67-1.16,1.71-2,2.65-.93,1.05-2,1.93-2.97,1.99-.67,.04-1.29-.2-1.34-.96-.07-1.1,.87-2.31,2.02-4.59l-1.2,.07Z" style="fill: #7c282c;"/>
      <path d="M109.12,7.6c1.2-1.81,2.44-3.59,3.66-5.43l1.83,.04-2.28,2.85,.03,.03c1.71-1.89,2.66-2.18,3-2.48,.49-.44,.77-.47,1.96-.43-.43,.55-.89,1.15-.93,1.87-.03,.48,.18,.7,.65,.73,.61,.04,1.18-.49,1.59-.87l.06,.08c-.63,.7-1.5,1.18-2.46,1.12-.85-.05-1.35-.54-1.3-1.41,.02-.27,.13-.55,.29-.77l-.03-.03c-1.88,1.09-3.4,3.05-4.45,4.74l-1.62-.05Z" style="fill: #7c282c;"/>
      <path d="M126.91,5.14c-.77,.78-1.6,1.56-2.75,2.36-1.64,1.12-3.05,1.35-4.23,1.19-1.21-.16-1.84-1.06-1.69-2.2,.27-2.03,3.3-3.78,5.28-3.52,.9,.12,1.39,.56,1.31,1.19-.21,1.54-3.75,1.74-4.89,1.83-.07,.18-.13,.37-.16,.56-.12,.9,.33,1.61,1.24,1.73,.89,.12,2.07-.29,3.29-1.14,.93-.67,1.85-1.48,2.51-2.13l.1,.13Zm-3.67-2.01c-1.06-.14-2.84,1.68-3.25,2.71,1.78-.12,3.49-1.21,3.63-2.24,.04-.29-.12-.44-.37-.47Z" style="fill: #7c282c;"/>
      <path d="M134.94,7.01c-1.94,1.56-4.52,3.51-7.14,2.95-1.25-.27-1.79-1.12-1.51-2.42,.43-2,3.47-3.44,5.55-3,.95,.2,1.47,.77,1.35,1.34-.17,.81-.95,1.14-1.59,1-.16-.03-.28-.08-.35-.11,.24-.46,.57-.91,.68-1.41,.08-.36-.06-.62-.35-.68-1.09-.24-3.37,1.24-3.8,3.23-.17,.8,.21,1.53,1.06,1.71,2.05,.44,4.68-1.69,5.98-2.71l.13,.09Z" style="fill: #7c282c;"/>
      <path d="M138.85,6.68c-2.79,2.48-3.95,3.43-4.13,4.06-.07,.25-.03,.44,.16,.49,.4,.11,1.28-.1,2.72-.92,1.17-.66,2.32-1.43,2.81-1.76l.11,.13c-.69,.5-1.99,1.33-3.02,1.9-1.52,.85-2.44,1.04-3.16,.83-.68-.19-.94-.72-.78-1.3,.23-.8,1.02-1.44,3.68-3.81l1.61,.37Zm2.4-2.23c-.12,.42-.62,.71-1.03,.59-.45-.13-.76-.47-.63-.94,.14-.48,.67-.71,1.13-.58,.38,.11,.64,.55,.53,.93Z" style="fill: #7c282c;"/>
      <path d="M147.32,6.2l-5.4,4.02,.02,.04c1.19-.71,2.81-1.87,4.28-1.33,.72,.26,1.01,.96,.74,1.72-.36,.98-1.17,1.72-2.01,2.15l.02,.04c1.45,.22,3.13-.37,4.35-1.1l.07,.14c-1.12,.68-2.88,1.45-4.68,1.1-1.05,.42-2.7,.96-3.81,.55-.42-.15-.73-.43-.58-.84,.31-.84,2.27-.35,3.18-.17,.52-.35,1.57-1.17,1.97-2.28,.16-.44,.22-.92-.29-1.11-1.79-.65-8.57,5.71-10.69,7.24l-1.61-.52c4.24-3.32,8.57-6.8,12.8-10.17l1.65,.52Zm-6.11,7.14c.57,.21,1.57-.33,2.11-.66-.57-.11-2.17-.5-2.41,.18-.08,.21,0,.38,.3,.48Z" style="fill: #7c282c;"/>
      <path d="M153.27,12.21c-3.12,2.06-4.41,2.83-4.68,3.43-.1,.23-.09,.43,.09,.51,.38,.17,1.28,.08,2.83-.52,1.25-.49,2.5-1.09,3.04-1.34l.09,.15c-.76,.4-2.16,1.03-3.26,1.45-1.63,.62-2.56,.67-3.25,.37-.64-.29-.83-.85-.58-1.4,.34-.76,1.22-1.28,4.19-3.24l1.54,.6Zm2.69-1.86c-.18,.39-.71,.61-1.11,.43-.42-.19-.69-.57-.49-1.03,.2-.45,.76-.61,1.2-.41,.37,.16,.56,.63,.39,1Z" style="fill: #7c282c;"/>
      <path d="M161.87,18.26c-.99,.47-2.04,.91-3.4,1.26-1.92,.49-3.33,.21-4.38-.35-1.07-.57-1.37-1.63-.83-2.65,.96-1.81,4.41-2.41,6.18-1.47,.81,.43,1.12,1.01,.82,1.57-.73,1.37-4.12,.33-5.23,.02-.13,.15-.25,.3-.34,.47-.43,.81-.25,1.63,.56,2.05,.79,.42,2.04,.45,3.48,.07,1.1-.3,2.24-.75,3.1-1.13l.05,.15Zm-2.75-3.16c-.95-.5-3.25,.6-3.99,1.42,1.71,.5,3.69,.07,4.18-.85,.13-.25,.04-.45-.19-.57Z" style="fill: #7c282c;"/>
      <path d="M162.47,20.43c.93-.32,3.69-1.36,5.09-.46,.59,.38,.66,.96,.35,1.44-.78,1.21-3.54,1.44-4.18,2.43-.14,.22-.13,.43,.12,.59,.26,.16,1.02,.22,2.68-.2,1.29-.33,2.56-.76,3.13-.94l.09,.15c-.83,.25-2.12,.7-3.4,1.01-1.57,.38-2.38,.39-3.08-.06-.69-.44-.71-1.08-.4-1.57,.78-1.21,3.57-1.48,4.1-2.31,.12-.19,.08-.42-.16-.58-1.06-.68-5.57,1.03-7.09,1.93l-1.39-.83c1.95-.97,3.93-1.89,5.9-2.91l1.57,.93-3.32,1.33v.04Z" style="fill: #7c282c;"/>
      <path d="M170.88,22.95l.26-.16,.99,.74,2.17-.9,1.42,.98-2.31,.87,1.63,1.22-.29,.14-1.65-1.24c-3.44,1.39-4.54,1.76-4.91,2.26-.16,.22-.15,.47,.07,.63,.42,.32,1.52,.42,2.89,.25,.95-.13,2.24-.4,3.36-.73l.03,.12c-.77,.23-1.99,.55-3.25,.73-1.39,.2-2.77,.18-3.56-.4-.54-.4-.86-.98-.4-1.6,.66-.88,2.16-1.2,4.51-2.21l-.96-.72Z" style="fill: #7c282c;"/>
      <path d="M173.75,31.95c1.97,1.05,4.31,.57,6.51,.09l.04,.16c-2.75,.6-5.36,1.17-7.72-.84-.84-.72-1.47-1.8-.63-2.79,.44-.51,1.25-.85,1.82-.36,.38,.32,.37,.75,.14,1.02-.29,.34-.68,.33-.93,.11-.1-.08-.17-.17-.22-.29-.21,.07-.42,.19-.57,.38-.38,.45-.26,1.12,.21,1.53,.6,.51,1.59,.65,2.14,.01,.36-.43,.41-.97,.44-1.5,.04-.54,.06-1.06,.39-1.44,.78-.91,2.1-.59,2.96,.15,.78,.67,1.08,1.53,.56,2.14-.4,.46-1.04,.5-1.5,.11-.15-.12-.25-.28-.3-.36,.44-.17,.79-.44,1.05-.74,.28-.33,.34-.76-.04-1.09-.45-.38-.98-.29-1.34,.14-.38,.45-.42,.99-.46,1.52-.03,.53-.07,1.07-.49,1.56-.54,.63-1.46,.77-2.03,.48l-.02,.02Z" style="fill: #7c282c;"/>
    </g>
    <g>
      <path d="M60.96,75.37v4.91h-2.02v-3.15h-14.41v3.15h-1.96v-4.91h3.26c-.35-.68-.95-1.63-1.5-2.31l1.85-.73c.68,.73,1.39,1.76,1.74,2.46l-1.3,.57h4.09v-3.23h2.11v3.23h3.94l-1.32-.51c.57-.7,1.34-1.8,1.72-2.55l2.18,.7c-.68,.86-1.41,1.74-2.02,2.35h3.65Zm-1.25,13.99c0,.99-.22,1.54-.97,1.85-.77,.29-1.89,.31-3.54,.31-.11-.55-.42-1.34-.68-1.87,1.17,.04,2.33,.04,2.64,.04,.35-.02,.44-.09,.44-.35v-2.64h-4.58v5.63h-2.11v-5.63h-4.86v4.64h-2.07v-6.49h6.93v-1.61h-4.93v-4.8h11.57v4.8h-4.53v1.61h6.69v4.51Zm-11.77-7.61h7.52v-1.8h-7.52v1.8Z" style="fill: #9d8577;"/>
      <path d="M86.65,89.76c0,1.19-.29,1.8-1.08,2.11-.81,.33-2.09,.37-4.11,.35-.09-.55-.42-1.45-.68-1.98,1.41,.07,2.86,.04,3.28,.04,.4,0,.55-.13,.55-.55v-3.94h-5.33v6.29h-2.05v-6.29h-5.06c-.35,2.42-1.14,4.88-2.75,6.67-.31-.4-1.14-1.1-1.61-1.34,2.4-2.66,2.62-6.56,2.62-9.66v-7.83h16.22v16.13Zm-9.42-5.9v-3.26h-4.77v.88c0,.75-.02,1.56-.09,2.38h4.86Zm-4.77-8.27v3.1h4.77v-3.1h-4.77Zm12.15,0h-5.33v3.1h5.33v-3.1Zm0,8.27v-3.26h-5.33v3.26h5.33Z" style="fill: #9d8577;"/>
      <path d="M100.53,72.49h2.02v19.87h-2.02v-5.85c-3.76,1.32-4.44,1.69-4.91,2.05-.13-.51-.51-1.41-.79-1.87,.33-.22,.77-.62,.77-1.5v-10.63h2v10.89l2.93-.92v-12.04Zm12.52,5.74c-.59,3.37-1.47,6.16-2.84,8.47,1.25,1.67,2.73,2.99,4.51,3.89-.48,.35-1.1,1.12-1.41,1.65-1.65-.95-3.08-2.24-4.27-3.81-1.23,1.58-2.77,2.9-4.71,3.96-.22-.44-.92-1.3-1.34-1.69,2.07-.99,3.67-2.33,4.91-4.05-.97-1.65-1.74-3.54-2.4-5.57-.42,.84-.92,1.58-1.45,2.22-.29-.42-1.01-1.32-1.45-1.74,1.87-2.18,2.97-5.7,3.56-9.44l2.09,.35c-.22,1.3-.51,2.57-.86,3.81h7.13v1.94h-1.47Zm-6.45,.46c.57,2.22,1.36,4.31,2.4,6.14,.95-1.85,1.58-4.05,2-6.6h-4.22l-.18,.46Z" style="fill: #9d8577;"/>
      <path d="M127.52,72.8c-.57,1.61-1.32,3.21-2.16,4.75v14.74h-1.94v-11.66c-.55,.77-1.14,1.52-1.72,2.13-.2-.48-.77-1.58-1.12-2.07,2-2.07,3.87-5.26,5.02-8.47l1.91,.57Zm13.36,12.06h-5.83v7.46h-2.05v-7.46h-6.1v-2h6.1v-4.36h-3.12c-.44,1.19-.92,2.27-1.47,3.1-.4-.29-1.28-.77-1.76-.99,1.23-1.76,2.13-4.58,2.62-7.33l1.98,.4c-.2,.95-.44,1.89-.7,2.82h2.46v-4.09h2.05v4.09h4.84v2h-4.84v4.36h5.83v2Z" style="fill: #9d8577;"/>
      <path d="M158.35,72.21c-.02,.84-.04,1.98-.15,3.28,.31,2.75,1.65,11.53,9.33,14.94-.59,.46-1.21,1.19-1.5,1.74-5.17-2.44-7.57-7.28-8.74-11.22-1.1,4.14-3.43,8.58-8.41,11.33-.35-.53-1.01-1.19-1.69-1.63,9-4.67,8.76-14.92,8.82-18.44h2.33Z" style="fill: #9d8577;"/>
    </g>
    <g>
      <g>
        <line x1="3.55" y1="48.72" x2="209.74" y2="48.72" style="fill: none; stroke: #80292d; stroke-miterlimit: 10; stroke-width: 2px;"/>
        <line x1="3.55" y1="44.49" x2="209.74" y2="44.49" style="fill: none; stroke: #80292d; stroke-miterlimit: 10;"/>
      </g>
      <g>
        <rect y="49.48" width="3.64" height="3.64" transform="translate(3.64 102.6) rotate(180)" style="fill: #80292d;"/>
        <rect x="209.74" y="49.58" width="3.64" height="3.64" transform="translate(423.12 102.8) rotate(180)" style="fill: #80292d;"/>
      </g>
    </g>
    <g>
      <g>
        <line x1="209.83" y1="113.77" x2="3.64" y2="113.77" style="fill: none; stroke: #80292d; stroke-miterlimit: 10; stroke-width: 2px;"/>
        <line x1="209.83" y1="118.01" x2="3.64" y2="118.01" style="fill: none; stroke: #80292d; stroke-miterlimit: 10;"/>
      </g>
      <g>
        <rect x="209.74" y="109.38" width="3.64" height="3.64" style="fill: #80292d;"/>
        <rect y="109.28" width="3.64" height="3.64" style="fill: #80292d;"/>
      </g>
    </g>
  </g>
</svg>