<?xml version="1.0" encoding="UTF-8"?>
<svg id="b" data-name="圖層 2" xmlns="http://www.w3.org/2000/svg" width="87.57" height="18.59" viewBox="0 0 87.57 18.59">
  <g id="c" data-name="圖層 3">
    <g>
      <path d="M22.22,.45c-.33,.97-.72,1.96-1.15,2.92V13.77h-1.32V5.82c-.39,.61-.78,1.17-1.2,1.66-.12-.34-.5-1.12-.71-1.47,1.24-1.46,2.4-3.67,3.09-5.92l1.29,.36Zm8.37,2.26c-.48,.93-1.11,1.73-1.86,2.4,.97,.52,2.14,.93,3.51,1.17-.24,.29-.6,.79-.76,1.14-1.47-.33-2.71-.88-3.75-1.54-1.05,.72-2.28,1.26-3.62,1.67-.13-.25-.48-.71-.73-.99v4.75h-1.21V1.83h1.21v2c1.08-.96,2.02-2.36,2.56-3.83l1.28,.32c-.17,.43-.36,.85-.59,1.27h5.13v1.12h-1.17Zm-7.21,3.72c1.23-.3,2.35-.73,3.31-1.32-.55-.46-1.01-.96-1.38-1.47-.36,.45-.73,.84-1.11,1.19-.18-.17-.54-.45-.82-.66v2.26Zm8.44,3.92c-1.5,1.77-4.23,2.8-7.33,3.36-.15-.33-.45-.81-.72-1.1,2.89-.42,5.55-1.29,6.86-2.76l1.2,.5Zm-2.83-3.12c-.93,.93-2.43,1.68-3.82,2.13-.18-.24-.5-.6-.77-.81,1.29-.36,2.76-1,3.54-1.75l1.05,.43Zm1.41,1.38c-1.16,1.28-3.13,2.18-5.14,2.71-.17-.27-.45-.66-.69-.9,1.86-.42,3.81-1.2,4.8-2.24l1.04,.42Zm-4.41-5.89l-.02,.02c.41,.6,.96,1.18,1.68,1.71,.6-.5,1.1-1.07,1.49-1.73h-3.15Z" style="fill: #841f29;"/>
      <path d="M55.33,4.02c-.4,2.39-1.01,4.35-1.96,5.92,.81,1.12,1.83,2.01,3.07,2.58-.31,.27-.75,.81-.96,1.17-1.19-.62-2.18-1.48-2.97-2.54-.88,1.08-2.03,1.97-3.45,2.67-.15-.31-.55-.96-.83-1.27,1.49-.65,2.62-1.53,3.48-2.67-.63-1.14-1.11-2.43-1.48-3.85-.3,.54-.62,1.03-.93,1.48-.18-.22-.57-.62-.87-.9h0s-3.79,.01-3.79,.01v4.32l3.78-1.32c.01,.41,.09,1,.18,1.3-4.3,1.65-4.95,1.93-5.33,2.25-.07-.39-.31-1.08-.52-1.44,.24-.12,.49-.35,.49-.89V5.25h3.81V2.38h-3.99V1h5.37V6.24c1.12-1.53,1.91-3.84,2.36-6.24l1.38,.25c-.18,.84-.39,1.68-.61,2.48h4.6v1.29h-.82Zm-4.28,.12c.33,1.62,.79,3.12,1.47,4.41,.64-1.26,1.06-2.76,1.35-4.53h-2.78l-.04,.12Z" style="fill: #841f29;"/>
    </g>
    <polyline points="5.43 18.09 85.01 18.09 70.29 12.1" style="fill: none; stroke: #841f29; stroke-miterlimit: 10;"/>
    <rect x="0" y="12.1" width="5.43" height="5.43" transform="translate(5.43 29.62) rotate(180)" style="fill: #841f29;"/>
  </g>
</svg>