<?xml version="1.0" encoding="UTF-8"?>
<svg id="b" data-name="圖層 2" xmlns="http://www.w3.org/2000/svg" width="306.68" height="72.62" viewBox="0 0 306.68 72.62">
  <g id="c" data-name="圖層 1">
    <g>
      <path d="M149.71,5.85s-12.84-8.13-19.21-3.34c-1.7,1.28-2.13,3.43-.91,5.16,1.57,2.23,7.52,4.19,18.64,2.41" style="fill: none; stroke: #c7ba99; stroke-miterlimit: 10; stroke-width: 2px;"/>
      <path d="M156.96,5.85s12.84-8.13,19.21-3.34c1.7,1.28,2.13,3.43,.91,5.16-1.57,2.23-7.52,4.19-18.64,2.41" style="fill: none; stroke: #c7ba99; stroke-miterlimit: 10; stroke-width: 2px;"/>
      <path d="M156.96,5.85s12.84-8.13,19.21-3.34c1.7,1.28,2.13,3.43,.91,5.16-1.57,2.23-7.52,4.19-18.64,2.41" style="fill: none; stroke: #89202a; stroke-miterlimit: 10; stroke-width: .5px;"/>
      <line x1="153.32" y1="5.02" x2="153.32" y2="10.77" style="fill: none; stroke: #c7ba99; stroke-linecap: round; stroke-linejoin: round; stroke-width: 1.5px;"/>
      <line x1="155.38" y1="5.02" x2="155.38" y2="10.77" style="fill: none; stroke: #c7ba99; stroke-linecap: round; stroke-linejoin: round; stroke-width: 1.5px;"/>
      <line x1="151.25" y1="5.02" x2="151.25" y2="10.77" style="fill: none; stroke: #c7ba99; stroke-linecap: round; stroke-linejoin: round; stroke-width: 1.5px;"/>
      <path d="M149.71,5.85s-12.84-8.13-19.21-3.34c-1.7,1.28-2.13,3.43-.91,5.16,1.57,2.23,7.52,4.19,18.64,2.41" style="fill: none; stroke: #89202a; stroke-miterlimit: 10; stroke-width: .5px;"/>
      <g>
        <line x1="153.32" y1="5.02" x2="153.32" y2="10.77" style="fill: none; stroke: #89202a; stroke-miterlimit: 10; stroke-width: .5px;"/>
        <line x1="155.38" y1="5.02" x2="155.38" y2="10.77" style="fill: none; stroke: #89202a; stroke-miterlimit: 10; stroke-width: .5px;"/>
        <line x1="151.25" y1="5.02" x2="151.25" y2="10.77" style="fill: none; stroke: #89202a; stroke-miterlimit: 10; stroke-width: .5px;"/>
      </g>
    </g>
    <g>
      <g>
        <line x1="306.68" y1="72.12" x2="0" y2="72.12" style="fill: none; stroke: #89202a; stroke-miterlimit: 10;"/>
        <line x1="306.68" y1="20.12" x2="0" y2="20.12" style="fill: none; stroke: #89202a; stroke-miterlimit: 10;"/>
      </g>
      <g>
        <path d="M27.06,49.89c-.7,1.96-1.82,4.2-2.83,5.63-.42-.34-1.26-.95-1.79-1.23,1.04-1.32,1.99-3.22,2.58-5.01l2.04,.62Zm3.61-1.82v9.49h-2.52v-9.49h-5.38v-2.21h5.38v-2.55h-5.54v-2.18h3.05c-.11-.95-.5-2.41-.98-3.5l2.13-.53c.45,1.09,.9,2.52,1.04,3.44l-2.07,.59h4.42c.5-1.18,1.09-2.88,1.37-4.06l2.41,.5c-.48,1.23-.95,2.52-1.43,3.56h3.28v2.18h-5.15v2.55h4.76v2.21h-4.76Zm4.7-11.03h-12.32v-2.16h5.12c-.31-.78-.67-1.68-1.01-2.38l2.58-.67c.48,.95,1.04,2.13,1.4,3.05h4.23v2.16Zm-1.99,12.01c.92,1.32,1.88,3.08,2.32,4.2l-1.82,1.09c-.45-1.18-1.4-3-2.24-4.34l1.74-.95Zm14.73-5.32h-2.86v13.86h-2.55v-13.86h-3.28v.67c0,4.03-.36,9.63-2.86,13.19-.39-.48-1.46-1.26-1.99-1.54,2.21-3.25,2.41-7.98,2.41-11.65v-9.69c3.11-.53,6.55-1.4,8.57-2.27l2.04,1.9c-2.3,.9-5.32,1.57-8.18,2.07v4.9h8.68v2.41Z" style="fill: #80292d;"/>
        <path d="M69.84,48.68l.45,2.3c-2.66,1.12-5.54,2.27-7.81,3.16l-.84-2.58c.92-.28,1.99-.67,3.19-1.09v-9.32h-2.8v-2.41h2.8v-6.38h2.38v6.38h2.69v2.41h-2.69v8.48l2.63-.95Zm16.13-12.66v9.41h-15.04v-9.41h3.61c-.42-.9-1.15-2.13-1.85-3.08l2.21-.92c.78,.95,1.62,2.27,2.02,3.14l-1.82,.87h4.7c.76-1.15,1.71-2.86,2.18-4.09l2.69,.9c-.76,1.09-1.51,2.27-2.24,3.19h3.53Zm-13.64,10.86h12.38v10.81h-2.46v-1.34h-7.56v1.34h-2.35v-10.81Zm.7-3.25h4.4v-5.82h-4.4v5.82Zm2.02-5.18c.78,1.18,1.57,2.8,1.82,3.86l-1.51,.62c-.2-1.09-.95-2.74-1.71-3.98l1.4-.5Zm-.36,10.39v1.93h7.56v-1.93h-7.56Zm7.56,5.54v-1.74h-7.56v1.74h7.56Zm1.51-16.58h-4.34v5.82h4.34v-5.82Zm-3.98,4.59c.67-1.04,1.54-2.77,1.93-3.92l1.68,.59c-.76,1.37-1.65,2.88-2.32,3.89l-1.29-.56Z" style="fill: #80292d;"/>
        <path d="M125.48,36.14v6.24h-2.58v-4h-18.34v4h-2.49v-6.24h4.14c-.45-.87-1.2-2.07-1.9-2.94l2.35-.92c.87,.92,1.76,2.24,2.21,3.14l-1.65,.73h5.21v-4.12h2.69v4.12h5.01l-1.68-.64c.73-.9,1.71-2.3,2.18-3.25l2.77,.9c-.87,1.09-1.79,2.21-2.58,3h4.65Zm-1.6,17.81c0,1.26-.28,1.96-1.23,2.35-.98,.36-2.41,.39-4.51,.39-.14-.7-.53-1.71-.87-2.38,1.48,.06,2.97,.06,3.36,.06,.45-.03,.56-.11,.56-.45v-3.36h-5.82v7.17h-2.69v-7.17h-6.19v5.91h-2.63v-8.26h8.82v-2.04h-6.27v-6.1h14.73v6.1h-5.77v2.04h8.51v5.74Zm-14.98-9.69h9.58v-2.3h-9.58v2.3Z" style="fill: #80292d;"/>
        <path d="M163.78,54.45c0,1.51-.36,2.3-1.37,2.69-1.04,.42-2.66,.48-5.24,.45-.11-.7-.53-1.85-.87-2.52,1.79,.08,3.64,.06,4.17,.06,.5,0,.7-.17,.7-.7v-5.01h-6.78v8.01h-2.6v-8.01h-6.44c-.45,3.08-1.46,6.22-3.5,8.48-.39-.5-1.46-1.4-2.04-1.71,3.05-3.39,3.33-8.34,3.33-12.29v-9.97h20.64v20.52Zm-11.98-7.5v-4.14h-6.08v1.12c0,.95-.03,1.99-.11,3.02h6.19Zm-6.08-10.53v3.95h6.08v-3.95h-6.08Zm15.46,0h-6.78v3.95h6.78v-3.95Zm0,10.53v-4.14h-6.78v4.14h6.78Z" style="fill: #80292d;"/>
        <path d="M187.05,32.47h2.58v25.28h-2.58v-7.45c-4.79,1.68-5.66,2.16-6.24,2.6-.17-.64-.64-1.79-1.01-2.38,.42-.28,.98-.78,.98-1.9v-13.52h2.55v13.86l3.72-1.18v-15.32Zm15.93,7.31c-.76,4.28-1.88,7.84-3.61,10.78,1.6,2.13,3.47,3.81,5.74,4.96-.62,.45-1.4,1.43-1.79,2.1-2.1-1.2-3.92-2.86-5.43-4.84-1.57,2.02-3.53,3.7-5.99,5.04-.28-.56-1.18-1.65-1.71-2.16,2.63-1.26,4.68-2.97,6.24-5.15-1.23-2.1-2.21-4.51-3.05-7.08-.53,1.06-1.18,2.02-1.85,2.83-.36-.53-1.29-1.68-1.85-2.21,2.38-2.77,3.78-7.25,4.54-12.01l2.66,.45c-.28,1.65-.64,3.28-1.09,4.84h9.07v2.46h-1.88Zm-8.2,.59c.73,2.83,1.74,5.49,3.05,7.81,1.2-2.35,2.02-5.15,2.55-8.4h-5.38l-.22,.59Z" style="fill: #80292d;"/>
        <path d="M227.01,32.86c-.73,2.04-1.68,4.09-2.74,6.05v18.76h-2.46v-14.84c-.7,.98-1.46,1.93-2.18,2.72-.25-.62-.98-2.02-1.43-2.63,2.55-2.63,4.93-6.69,6.38-10.78l2.44,.73Zm17,15.34h-7.42v9.49h-2.6v-9.49h-7.76v-2.55h7.76v-5.54h-3.98c-.56,1.51-1.18,2.88-1.88,3.95-.5-.36-1.62-.98-2.24-1.26,1.57-2.24,2.72-5.82,3.33-9.32l2.52,.5c-.25,1.2-.56,2.41-.9,3.58h3.14v-5.21h2.6v5.21h6.16v2.55h-6.16v5.54h7.42v2.55Z" style="fill: #80292d;"/>
        <path d="M271.83,32.11c-.03,1.06-.06,2.52-.2,4.17,.39,3.5,2.1,14.67,11.87,19.01-.76,.59-1.54,1.51-1.9,2.21-6.58-3.11-9.63-9.27-11.12-14.28-1.4,5.26-4.37,10.92-10.7,14.42-.45-.67-1.29-1.51-2.16-2.07,11.45-5.94,11.14-18.98,11.23-23.46h2.97Z" style="fill: #80292d;"/>
      </g>
    </g>
  </g>
</svg>