<?xml version="1.0" encoding="UTF-8"?>
<svg id="b" data-name="圖層 2" xmlns="http://www.w3.org/2000/svg" width="95.42" height="52.76" viewBox="0 0 95.42 52.76">
  <g id="c" data-name="圖層 3">
    <line x1="95.42" y1="52.51" x2="0" y2="52.51" style="fill: none; stroke: #89202a; stroke-miterlimit: 10; stroke-width: .5px;"/>
    <line x1="95.42" y1="15.76" x2="0" y2="15.76" style="fill: none; stroke: #89202a; stroke-miterlimit: 10; stroke-width: .5px;"/>
    <g>
      <path d="M44.68,4.59S34.63-1.78,29.63,1.97c-1.33,1-1.67,2.69-.72,4.05,1.23,1.74,5.89,3.28,14.6,1.89" style="fill: none; stroke: #c7ba99; stroke-miterlimit: 10; stroke-width: 1.57px;"/>
      <path d="M50.37,4.59s10.06-6.37,15.05-2.62c1.33,1,1.67,2.69,.72,4.05-1.23,1.74-5.89,3.28-14.6,1.89" style="fill: none; stroke: #c7ba99; stroke-miterlimit: 10; stroke-width: 1.57px;"/>
      <path d="M50.37,4.59s10.06-6.37,15.05-2.62c1.33,1,1.67,2.69,.72,4.05-1.23,1.74-5.89,3.28-14.6,1.89" style="fill: none; stroke: #89202a; stroke-miterlimit: 10; stroke-width: .39px;"/>
      <line x1="47.51" y1="3.93" x2="47.51" y2="8.44" style="fill: none; stroke: #c7ba99; stroke-linecap: round; stroke-linejoin: round; stroke-width: 1.18px;"/>
      <line x1="49.13" y1="3.93" x2="49.13" y2="8.44" style="fill: none; stroke: #c7ba99; stroke-linecap: round; stroke-linejoin: round; stroke-width: 1.18px;"/>
      <line x1="45.89" y1="3.93" x2="45.89" y2="8.44" style="fill: none; stroke: #c7ba99; stroke-linecap: round; stroke-linejoin: round; stroke-width: 1.18px;"/>
      <path d="M44.68,4.59S34.63-1.78,29.63,1.97c-1.33,1-1.67,2.69-.72,4.05,1.23,1.74,5.89,3.28,14.6,1.89" style="fill: none; stroke: #89202a; stroke-miterlimit: 10; stroke-width: .39px;"/>
      <g>
        <line x1="47.51" y1="3.93" x2="47.51" y2="8.44" style="fill: none; stroke: #89202a; stroke-miterlimit: 10; stroke-width: .39px;"/>
        <line x1="49.13" y1="3.93" x2="49.13" y2="8.44" style="fill: none; stroke: #89202a; stroke-miterlimit: 10; stroke-width: .39px;"/>
        <line x1="45.89" y1="3.93" x2="45.89" y2="8.44" style="fill: none; stroke: #89202a; stroke-miterlimit: 10; stroke-width: .39px;"/>
      </g>
    </g>
    <g>
      <path d="M20.22,30.96H10.87c.32,.54,.72,1.26,.93,1.7l-1.17,.45h3.83c.37-.62,.8-1.5,1.04-2.11l1.49,.32c-.35,.61-.74,1.25-1.12,1.79h3.54v8.13c0,.74-.18,1.04-.69,1.23-.51,.19-1.34,.21-2.67,.21-.06-.35-.26-.82-.45-1.14,.93,.03,1.84,.03,2.06,.02,.27,0,.37-.08,.37-.32v-6.93h-2.91v.77c0,.35,.03,.48,.32,.48h1.14c.24,0,.69-.02,.91-.08,.03,.35,.05,.71,.1,1.04-.21,.06-.62,.08-.98,.08h-1.49c-1.1,0-1.31-.5-1.31-1.54v-.75h-1.52c-.24,1.57-.96,2.45-3.15,2.93-.11-.32-.4-.77-.67-1.01v6.5h-1.41v-9.62h3.39c-.19-.48-.59-1.25-.88-1.78l1.07-.37H6.22v-1.26h6.45c-.14-.45-.34-.96-.5-1.38l1.42-.35c.22,.54,.48,1.22,.64,1.73h5.99v1.26Zm-11.76,5.25c1.74-.32,2.32-.86,2.51-1.9h-2.51v1.9Zm2.96,4.55v.7h-1.25v-4.43h5.97v3.73h-4.72Zm0-2.66v1.58h3.51v-1.58h-3.51Z" style="fill: #80292d;"/>
      <path d="M28.92,35.75h5.79v6.9h-1.47v-.72h-2.91v.83h-1.41v-7.01Zm1.41,1.42v3.33h2.91v-3.33h-2.91Zm9.8-2.98h-8.95v-5.46h8.95v5.46Zm-1.52-4.03h-6v2.61h6v-2.61Zm3.76,5.59v6.93h-1.49v-.75h-3.17v.83h-1.42v-7.01h6.08Zm-1.49,4.75v-3.33h-3.17v3.33h3.17Z" style="fill: #80292d;"/>
      <path d="M52.66,38.55v1.44h-1.38v-11h5.01v9.56h-3.63Zm0-8.2v2.69h2.24v-2.69h-2.24Zm2.24,6.83v-2.82h-2.24v2.82h2.24Zm9.8,3.75c0,.85-.19,1.3-.74,1.52-.56,.26-1.44,.29-2.79,.29-.08-.4-.32-1.07-.54-1.44,.96,.03,1.94,.02,2.22,.02,.27-.02,.38-.11,.38-.4v-3.2h-4.02c-.34,1.89-1.12,3.79-2.79,5.14-.22-.29-.8-.8-1.15-.99,2.5-2.02,2.74-5.03,2.74-7.46v-5.67h6.67v12.2Zm-1.46-4.56v-2.48h-3.75v.53c0,.62-.02,1.28-.08,1.95h3.83Zm-3.75-6.26v2.43h3.75v-2.43h-3.75Z" style="fill: #80292d;"/>
      <path d="M74.76,38.57c-.14,1.38-.42,2.87-.75,3.86-.26-.14-.82-.34-1.1-.42,.35-.94,.58-2.35,.69-3.65l1.17,.21Zm-1.38-4.48s-.02,.05-.02,.06c-.06-.27-.26-.9-.42-1.23,.27-.08,.54-.4,.88-.86,.34-.48,1.39-2.26,2-3.97l1.26,.51c-.66,1.41-1.47,2.9-2.32,4.08l1.49-.11c.42-.7,.83-1.46,1.17-2.21l1.15,.71c-.96,1.82-2.21,3.67-3.47,5.14l2.39-.32c-.18-.5-.37-1.01-.58-1.47l1.01-.35c.5,.96,.94,2.22,1.1,3.01l-1.1,.43c-.03-.18-.06-.35-.11-.56-3.49,.53-3.99,.66-4.32,.83-.06-.27-.29-.91-.42-1.25,.34-.1,.7-.48,1.17-1.07,.24-.27,.72-.9,1.25-1.7-1.52,.18-1.89,.26-2.11,.37v-.03Zm3.03,4.19c.21,1.07,.38,2.43,.45,3.34l-1.14,.29c-.03-.93-.19-2.32-.37-3.39l1.06-.24Zm1.7-.42c.37,.98,.77,2.21,.95,3.02l-1.06,.37c-.14-.83-.54-2.11-.88-3.09l.99-.3Zm9.24-9.01v13.51h-1.42v-.83h-4.95v.96h-1.36v-13.64h7.73Zm-6.37,1.5v4.27h1.73v-4.27h-1.73Zm0,9.78h1.73v-4.13h-1.73v4.13Zm4.95-9.78h-1.87v4.27h1.87v-4.27Zm0,9.78v-4.13h-1.87v4.13h1.87Z" style="fill: #80292d;"/>
    </g>
  </g>
</svg>