<?xml version="1.0" encoding="UTF-8"?>
<svg id="b" data-name="圖層 2" xmlns="http://www.w3.org/2000/svg" width="192.37" height="72.62" viewBox="0 0 192.37 72.62">
  <g id="c" data-name="圖層 1">
    <g>
      <line x1="192.37" y1="72.12" x2="0" y2="72.12" style="fill: none; stroke: #89202a; stroke-miterlimit: 10;"/>
      <line x1="192.37" y1="20.12" x2="0" y2="20.12" style="fill: none; stroke: #89202a; stroke-miterlimit: 10;"/>
      <g>
        <path d="M92.49,5.85s-12.84-8.13-19.21-3.34c-1.7,1.28-2.13,3.43-.91,5.16,1.57,2.23,7.52,4.19,18.64,2.41" style="fill: none; stroke: #c7ba99; stroke-miterlimit: 10; stroke-width: 2px;"/>
        <path d="M99.74,5.85s12.84-8.13,19.21-3.34c1.7,1.28,2.13,3.43,.91,5.16-1.57,2.23-7.52,4.19-18.64,2.41" style="fill: none; stroke: #c7ba99; stroke-miterlimit: 10; stroke-width: 2px;"/>
        <path d="M99.74,5.85s12.84-8.13,19.21-3.34c1.7,1.28,2.13,3.43,.91,5.16-1.57,2.23-7.52,4.19-18.64,2.41" style="fill: none; stroke: #89202a; stroke-miterlimit: 10; stroke-width: .5px;"/>
        <line x1="96.09" y1="5.02" x2="96.09" y2="10.77" style="fill: none; stroke: #c7ba99; stroke-linecap: round; stroke-linejoin: round; stroke-width: 1.5px;"/>
        <line x1="98.16" y1="5.02" x2="98.16" y2="10.77" style="fill: none; stroke: #c7ba99; stroke-linecap: round; stroke-linejoin: round; stroke-width: 1.5px;"/>
        <line x1="94.03" y1="5.02" x2="94.03" y2="10.77" style="fill: none; stroke: #c7ba99; stroke-linecap: round; stroke-linejoin: round; stroke-width: 1.5px;"/>
        <path d="M92.49,5.85s-12.84-8.13-19.21-3.34c-1.7,1.28-2.13,3.43-.91,5.16,1.57,2.23,7.52,4.19,18.64,2.41" style="fill: none; stroke: #89202a; stroke-miterlimit: 10; stroke-width: .5px;"/>
        <g>
          <line x1="96.09" y1="5.02" x2="96.09" y2="10.77" style="fill: none; stroke: #89202a; stroke-miterlimit: 10; stroke-width: .5px;"/>
          <line x1="98.16" y1="5.02" x2="98.16" y2="10.77" style="fill: none; stroke: #89202a; stroke-miterlimit: 10; stroke-width: .5px;"/>
          <line x1="94.03" y1="5.02" x2="94.03" y2="10.77" style="fill: none; stroke: #89202a; stroke-miterlimit: 10; stroke-width: .5px;"/>
        </g>
      </g>
      <g>
        <path d="M49.52,37.09h-16.35c.56,.95,1.26,2.21,1.62,2.97l-2.04,.78h6.69c.64-1.09,1.4-2.63,1.82-3.7l2.6,.56c-.62,1.06-1.29,2.18-1.96,3.14h6.19v14.22c0,1.29-.31,1.82-1.2,2.16-.9,.34-2.35,.36-4.68,.36-.11-.62-.45-1.43-.78-1.99,1.62,.06,3.22,.06,3.61,.03,.48,0,.64-.14,.64-.56v-12.12h-5.1v1.34c0,.62,.06,.84,.56,.84h1.99c.42,0,1.2-.03,1.6-.14,.06,.62,.08,1.23,.17,1.82-.36,.11-1.09,.14-1.71,.14h-2.6c-1.93,0-2.3-.87-2.3-2.69v-1.32h-2.66c-.42,2.74-1.68,4.28-5.52,5.12-.2-.56-.7-1.34-1.18-1.76v11.37h-2.46v-16.83h5.94c-.34-.84-1.04-2.18-1.54-3.11l1.88-.64h-7.73v-2.21h11.28c-.25-.78-.59-1.68-.87-2.41l2.49-.62c.39,.95,.84,2.13,1.12,3.02h10.47v2.21Zm-20.58,9.18c3.05-.56,4.06-1.51,4.4-3.33h-4.4v3.33Zm5.18,7.95v1.23h-2.18v-7.76h10.44v6.52h-8.26Zm0-4.65v2.77h6.13v-2.77h-6.13Z" style="fill: #80292d;"/>
        <path d="M64.76,45.46h10.14v12.07h-2.58v-1.26h-5.1v1.46h-2.46v-12.26Zm2.46,2.49v5.82h5.1v-5.82h-5.1Zm17.14-5.21h-15.65v-9.55h15.65v9.55Zm-2.66-7.06h-10.5v4.56h10.5v-4.56Zm6.58,9.77v12.12h-2.6v-1.32h-5.54v1.46h-2.49v-12.26h10.64Zm-2.6,8.32v-5.82h-5.54v5.82h5.54Z" style="fill: #80292d;"/>
        <path d="M106.31,50.36v2.52h-2.41v-19.24h8.76v16.72h-6.36Zm0-14.34v4.7h3.92v-4.7h-3.92Zm3.92,11.96v-4.93h-3.92v4.93h3.92Zm17.14,6.55c0,1.48-.34,2.27-1.29,2.66-.98,.45-2.52,.5-4.87,.5-.14-.7-.56-1.88-.95-2.52,1.68,.06,3.39,.03,3.89,.03,.48-.03,.67-.2,.67-.7v-5.6h-7.03c-.59,3.3-1.96,6.64-4.87,8.99-.39-.5-1.4-1.4-2.02-1.74,4.37-3.53,4.79-8.79,4.79-13.05v-9.91h11.68v21.33Zm-2.55-7.98v-4.34h-6.55v.92c0,1.09-.03,2.24-.14,3.42h6.69Zm-6.55-10.95v4.26h6.55v-4.26h-6.55Z" style="fill: #80292d;"/>
        <path d="M144.98,50.39c-.25,2.41-.73,5.01-1.32,6.75-.45-.25-1.43-.59-1.93-.73,.62-1.65,1.01-4.12,1.2-6.38l2.04,.36Zm-2.41-7.84s-.03,.08-.03,.11c-.11-.48-.45-1.57-.73-2.16,.48-.14,.95-.7,1.54-1.51,.59-.84,2.44-3.95,3.5-6.94l2.21,.9c-1.15,2.46-2.58,5.07-4.06,7.14l2.6-.2c.73-1.23,1.46-2.55,2.04-3.86l2.02,1.23c-1.68,3.19-3.86,6.41-6.08,8.99l4.17-.56c-.31-.87-.64-1.76-1.01-2.58l1.76-.62c.87,1.68,1.65,3.89,1.93,5.26l-1.93,.76c-.06-.31-.11-.62-.2-.98-6.1,.92-6.97,1.15-7.56,1.46-.11-.48-.5-1.6-.73-2.18,.59-.17,1.23-.84,2.04-1.88,.42-.48,1.26-1.57,2.18-2.97-2.66,.31-3.3,.45-3.7,.64v-.06Zm5.29,7.34c.36,1.88,.67,4.26,.78,5.85l-1.99,.5c-.06-1.62-.34-4.06-.64-5.94l1.85-.42Zm2.97-.73c.64,1.71,1.34,3.86,1.65,5.29l-1.85,.64c-.25-1.46-.95-3.7-1.54-5.4l1.74-.53Zm16.16-15.76v23.63h-2.49v-1.46h-8.65v1.68h-2.38v-23.86h13.52Zm-11.14,2.63v7.48h3.02v-7.48h-3.02Zm0,17.11h3.02v-7.22h-3.02v7.22Zm8.65-17.11h-3.28v7.48h3.28v-7.48Zm0,17.11v-7.22h-3.28v7.22h3.28Z" style="fill: #80292d;"/>
      </g>
    </g>
  </g>
</svg>