<?xml version="1.0" encoding="UTF-8"?>
<svg id="b" data-name="圖層 2" xmlns="http://www.w3.org/2000/svg" width="156.95" height="26.23" viewBox="0 0 156.95 26.23">
  <g id="c" data-name="圖層 1">
    <g>
      <g>
        <path d="M47.9,9.54c-.32,1.72-.84,3.48-1.56,4.94,.4,.22,.82,.56,1.56,1,1.36,.84,3.2,.96,5.54,.96s5.82-.18,8.02-.46c-.22,.5-.52,1.42-.54,1.92-1.54,.1-5.22,.22-7.56,.22-2.64,0-4.34-.22-5.78-1.06-.82-.46-1.54-1.16-1.98-1.16s-1.14,1.3-1.66,2.52l-1.28-1.72c.54-.7,1.06-1.3,1.56-1.74l-.02-.02c.78-1.1,1.4-2.68,1.76-4.2h-2.52c.5-1.18,1.08-2.8,1.58-4.36h-2v-1.68h4.32c-.44,1.42-1,3.06-1.5,4.44h.7l.28-.06,1.08,.46Zm-2.58-5.62c-.28-.9-.82-2.34-1.2-3.4l1.68-.46c.4,1.06,.96,2.44,1.24,3.3l-1.72,.56Zm8.38,9.32c-1.04,.98-2.66,1.94-4,2.58-.32-.34-.96-.88-1.38-1.14,1.38-.5,2.8-1.22,3.7-1.96h-4.02v-1.42h3.32v-1.58h-2.56v-1.4h2.56v-1.26h1.7v1.26h2.78v-1.26h1.72v1.26h2.62v1.4h-2.62v1.58h3.44v1.42h-4.3c1.4,.66,2.92,1.54,3.8,2.22l-1.62,.8c-.82-.68-2.24-1.6-3.56-2.28l1.04-.74h-4.14l1.52,.52Zm.18-8.3c-.14,.42-.26,1.02-.32,1.34-3.92,.66-4.54,.8-4.88,.98-.1-.38-.4-1.08-.62-1.4,.26-.14,.56-.46,.56-1.2V.68h5.44v3.56h-3.96v1.26l3.78-.56Zm-3.78-3.06v1.14h2.4V1.88h-2.4Zm2.92,9.42h2.78v-1.58h-2.78v1.58Zm3.8-4.56c-1.54,0-1.92-.58-1.92-2.06V.7h5.52v3.56h-4.02v.44c0,.54,.06,.74,.52,.74h2.32c.38,0,1-.04,1.3-.12,.04,.4,.08,.96,.14,1.3-.28,.1-.84,.12-1.38,.12h-2.48Zm-.42-4.84v1.14h2.42V1.9h-2.42Z" style="fill: #80292d;"/>
        <path d="M89.9,10.04c-.64,.22-1.3,.42-1.94,.62v5.54c0,.92-.18,1.44-.72,1.7-.54,.32-1.32,.36-2.6,.36-.04-.44-.26-1.24-.5-1.72,.8,.04,1.54,.02,1.76,.02,.26-.02,.36-.08,.36-.36v-4.98l-2.06,.64-.44-1.8c.7-.18,1.56-.44,2.5-.72v-3.76h-2.26v-1.72h2.26V0h1.7V3.86h1.9v1.72h-1.9v3.28l1.7-.52,.24,1.7Zm12.18,5.68h-5.22v2.6h-1.74v-2.6h-5.26v-1.4h5.26v-1.22h-4.56v-1.42h2.4c-.14-.44-.32-1-.54-1.42l1.26-.28h-3.52v-1.46h4.96v-1.18h-4.12v-1.36h4.12v-1h-4.36V.66h10.8V4.98h-4.7v1h4.34v1.36h-4.34v1.18h4.96v1.46h-3.12l1.26,.32c-.26,.48-.52,.96-.78,1.38h2.18v1.42h-4.5v1.22h5.22v1.4ZM93.8,1.96h-1.56v1.72h1.56V1.96Zm.18,8.02c.28,.54,.56,1.26,.68,1.7h2.82c.26-.54,.54-1.2,.72-1.7h-4.22Zm1.28-6.3h1.64V1.96h-1.64v1.72Zm3.1,0h1.68V1.96h-1.68v1.72Z" style="fill: #80292d;"/>
      </g>
      <g>
        <polyline points="8.68 25.23 152.98 25.23 134.1 15.07" style="fill: none; stroke: #8a202a; stroke-miterlimit: 10; stroke-width: 2px;"/>
        <rect x="0" y="15.07" width="8.68" height="9.21" transform="translate(8.68 39.34) rotate(180)" style="fill: #8a202a;"/>
      </g>
    </g>
  </g>
</svg>