<?xml version="1.0" encoding="UTF-8"?>
<svg id="b" data-name="圖層 2" xmlns="http://www.w3.org/2000/svg" width="108.71" height="18.54" viewBox="0 0 108.71 18.54">
  <g id="c" data-name="頁面">
    <g>
      <path d="M34.87,7.16c-.24,1.29-.63,2.61-1.17,3.7,.3,.17,.62,.42,1.17,.75,1.02,.63,2.4,.72,4.16,.72s4.36-.14,6.01-.35c-.17,.38-.39,1.07-.41,1.44-1.15,.08-3.92,.17-5.67,.17-1.98,0-3.25-.17-4.33-.79-.62-.35-1.16-.87-1.49-.87s-.86,.97-1.25,1.89l-.96-1.29c.41-.52,.79-.97,1.17-1.3h-.01c.58-.84,1.05-2.03,1.32-3.17h-1.89c.38-.88,.81-2.1,1.19-3.27h-1.5v-1.26h3.24c-.33,1.06-.75,2.29-1.12,3.33h.53l.21-.04,.81,.35Zm-1.93-4.21c-.21-.68-.62-1.75-.9-2.55l1.26-.35c.3,.79,.72,1.83,.93,2.48l-1.29,.42Zm6.29,6.99c-.78,.74-2,1.46-3,1.93-.24-.25-.72-.66-1.04-.85,1.04-.38,2.1-.92,2.77-1.47h-3.01v-1.07h2.49v-1.18h-1.92v-1.05h1.92v-.95h1.27v.95h2.08v-.95h1.29v.95h1.96v1.05h-1.96v1.18h2.58v1.07h-3.22c1.05,.5,2.19,1.15,2.85,1.67l-1.21,.6c-.62-.51-1.68-1.2-2.67-1.71l.78-.55h-3.11l1.14,.39Zm.13-6.22c-.11,.32-.2,.76-.24,1-2.94,.5-3.41,.6-3.66,.74-.07-.29-.3-.81-.46-1.05,.2-.11,.42-.35,.42-.9V.51h4.08V3.18h-2.97v.95l2.83-.42Zm-2.83-2.29v.85h1.8v-.85h-1.8Zm2.19,7.06h2.08v-1.18h-2.08v1.18Zm2.85-3.42c-1.16,0-1.44-.43-1.44-1.54V.53h4.14V3.2h-3.01v.33c0,.4,.04,.55,.39,.55h1.74c.29,0,.75-.03,.97-.09,.03,.3,.06,.72,.11,.97-.21,.08-.63,.09-1.04,.09h-1.86Zm-.32-3.63v.86h1.82v-.86h-1.82Z" style="fill: #841f29;"/>
      <path d="M59.99,7.53c-.48,.17-.97,.31-1.46,.46v4.15c0,.69-.13,1.08-.54,1.28-.4,.24-.99,.27-1.95,.27-.03-.33-.2-.93-.38-1.29,.6,.03,1.15,.02,1.32,.02,.2-.02,.27-.06,.27-.27v-3.73l-1.54,.48-.33-1.35c.53-.13,1.17-.33,1.88-.54v-2.82h-1.7v-1.29h1.7V0h1.27V2.9h1.43v1.29h-1.43v2.46l1.28-.39,.18,1.28Zm9.13,4.26h-3.92v1.95h-1.3v-1.95h-3.94v-1.05h3.94v-.92h-3.42v-1.07h1.8c-.1-.33-.24-.75-.4-1.06l.94-.21h-2.64v-1.1h3.72v-.88h-3.09v-1.02h3.09v-.75h-3.27V.5h8.1V3.74h-3.53v.75h3.25v1.02h-3.25v.88h3.72v1.1h-2.34l.95,.24c-.2,.36-.39,.72-.58,1.04h1.63v1.07h-3.38v.92h3.92v1.05ZM62.92,1.47h-1.17v1.29h1.17V1.47Zm.14,6.02c.21,.4,.42,.94,.51,1.27h2.11c.2-.41,.41-.9,.54-1.27h-3.16Zm.96-4.73h1.23V1.47h-1.23v1.29Zm2.32,0h1.26V1.47h-1.26v1.29Z" style="fill: #841f29;"/>
    </g>
    <polyline points="5.33 18.04 106.15 18.04 91.42 12.05" style="fill: none; stroke: #841f29; stroke-miterlimit: 10;"/>
    <rect y="12.05" width="5.43" height="5.43" transform="translate(5.43 29.53) rotate(180)" style="fill: #841f29;"/>
  </g>
</svg>