<?xml version="1.0" encoding="UTF-8"?>
<svg id="b" data-name="圖層 2" xmlns="http://www.w3.org/2000/svg" width="257.73" height="22.73" viewBox="0 0 257.73 22.73">
  <g id="c" data-name="首頁">
    <g>
      <path d="M1.23,13.55c.68,0,1.23,.55,1.23,1.23s-.55,1.23-1.23,1.23-1.23-.55-1.23-1.23,.55-1.23,1.23-1.23Z" style="fill: #c7b995;"/>
      <path d="M21.96,.4c-3.63,1.76-3.96,9.64-6.78,13.58l.04,.04c3.23-2.79,6.34-6.14,7.75-8.03,.44-.59,.79-1.5,1.1-2.07,1.1-2.09,3.45-3.56,4.03-3.56,.22,0,.33,.11,.33,.33,0,.42-1.21,1.06-1.85,1.85-2.27,2.84-1.76,8.08-5.06,12.48l.04,.04c4.22-2.29,10.87-7.5,11.11-12.56-.37-.18-.66-.51-.66-.92,0-.66,.46-1.21,1.14-1.21,.95,0,1.32,.79,1.32,1.65,0,5.48-11.24,12.87-14.85,14.24l-.2-.13c2.07-2.95,2.6-6.58,3.63-9.75l-.04-.04c-1.85,2.46-5.19,5.79-8.08,8.27-1.01,.88-1.45,1.52-2.31,1.52-.15,0-.31-.11-.31-.29,0-.55,1.06-.35,1.69-2,1.83-4.69,1.87-9.68,5.81-12.63l-.04-.04c-2.57,.88-8.52,2.05-8.52,5.57,0,.86,.59,1.65,1.5,1.65,1.47,0,2.11-1.23,2.11-3.08h.26c0,1.8-.66,3.48-2.79,3.48-1.21,0-2.35-.84-2.35-2.13C9.99,2.77,15.93,2.42,21.87,.22l.09,.18Z" style="fill: #c7b995;"/>
      <path d="M43.54,10.12c-.9,1.21-1.89,2.42-3.32,3.72-2.02,1.83-3.92,2.4-5.54,2.4s-2.71-1.1-2.71-2.68c0-2.82,3.81-5.76,6.56-5.76,1.25,0,2,.51,2,1.39,0,2.13-4.8,3.06-6.34,3.39-.07,.26-.11,.53-.11,.79,0,1.25,.75,2.13,2,2.13s2.77-.77,4.27-2.16c1.14-1.08,2.24-2.35,3.04-3.37l.15,.15Zm-5.37-2.07c-1.47,0-3.56,2.82-3.94,4.29,2.4-.48,4.53-2.29,4.53-3.72,0-.4-.24-.57-.59-.57Z" style="fill: #c7b995;"/>
      <path d="M53.18,.51l-6.8,10.83c-1.14,1.83-1.87,3.04-1.87,3.78,0,.37,.15,.59,.48,.59,.62,0,1.76-.73,2.95-1.91,1.1-1.1,2.2-2.4,3.23-3.74l.2,.07c-.73,.97-1.85,2.4-2.84,3.41-1.72,1.74-2.88,2.57-4.29,2.57-.99,0-1.5-.44-1.5-1.32,0-.81,.59-1.98,1.85-4.07L50.73,.64l2.44-.13Z" style="fill: #c7b995;"/>
      <path d="M62.59,10.21c-2.16,2.66-5.06,6.03-8.76,6.03-1.76,0-2.73-.99-2.73-2.82,0-2.82,3.67-5.63,6.6-5.63,1.34,0,2.2,.62,2.2,1.41,0,1.14-.95,1.8-1.85,1.8-.22,0-.4-.02-.51-.04,.2-.68,.51-1.39,.51-2.09,0-.51-.26-.81-.66-.81-1.54,0-4.18,2.64-4.18,5.43,0,1.12,.73,2,1.91,2,2.88,0,5.81-3.63,7.26-5.37l.2,.09Z" style="fill: #c7b995;"/>
      <path d="M75.33,10.19c-.59,.75-1.41,1.5-2.38,1.5-.68,0-1.14-.31-1.56-.84-.68,2.93-3.39,5.39-6.45,5.39-1.61,0-2.66-.99-2.66-2.6,0-3.12,3.54-5.85,6.47-5.85,1.56,0,2.51,.99,2.71,2.18,.15,.88,.68,1.45,1.5,1.45s1.45-.46,2.24-1.41l.13,.18Zm-5.72-.97c0-.73-.31-1.17-.97-1.17-2.22,0-4.51,4.91-4.51,6.75,0,.73,.31,1.17,.97,1.17,2.22,0,4.51-4.91,4.51-6.75Z" style="fill: #c7b995;"/>
      <path d="M83.18,11.79c1.12-1.41,3.15-4,5.1-4,.95,0,1.56,.7,1.56,1.45,0,1.98-3.12,4.29-3.12,5.9,0,.33,.15,.57,.46,.57,.62,0,1.58-.68,2.95-2.05,1.12-1.12,2.24-2.44,3.04-3.48l.18,.09c-.68,.86-1.85,2.33-3.1,3.59-1.67,1.67-2.57,2.24-3.65,2.24s-1.63-.64-1.63-1.52c0-1.89,3.12-4.51,3.12-5.63,0-.42-.29-.64-.59-.64-1.89,0-5.61,5.66-6.62,7.48l-2.33,.09c2-3.15,3.98-5.79,3.98-6.87,0-.35-.2-.7-.64-.7-1.85,0-5.68,5.66-6.71,7.48l-2.22,.09c1.61-2.57,3.21-5.15,4.73-7.79l2.57-.13-2.93,4,.04,.04c1.23-1.43,3.1-4.22,5.43-4.22,.81,0,1.47,.44,1.47,1.32,0,.81-.66,1.92-1.14,2.64l.04,.04Z" style="fill: #c7b995;"/>
      <path d="M104.61,10.12c-.9,1.21-1.89,2.42-3.32,3.72-2.02,1.83-3.92,2.4-5.54,2.4s-2.71-1.1-2.71-2.68c0-2.82,3.81-5.76,6.56-5.76,1.25,0,2,.51,2,1.39,0,2.13-4.8,3.06-6.34,3.39-.07,.26-.11,.53-.11,.79,0,1.25,.75,2.13,2,2.13s2.77-.77,4.27-2.16c1.14-1.08,2.24-2.35,3.04-3.37l.15,.15Zm-5.37-2.07c-1.47,0-3.56,2.82-3.94,4.29,2.4-.48,4.53-2.29,4.53-3.72,0-.4-.24-.57-.59-.57Z" style="fill: #c7b995;"/>
      <path d="M121.48,8.54l.15-.4h1.69l1.65-2.77,2.38-.09-1.83,2.86h2.79l-.2,.4h-2.84c-2.64,4.36-3.54,5.68-3.54,6.53,0,.37,.22,.64,.59,.64,.73,0,2.02-.79,3.39-2.11,.95-.92,2.13-2.29,3.1-3.56l.13,.11c-.66,.88-1.74,2.25-2.97,3.48-1.36,1.36-2.9,2.49-4.25,2.49-.92,0-1.76-.37-1.76-1.43,0-1.52,1.39-3.1,3.15-6.14h-1.65Z" style="fill: #c7b995;"/>
      <path d="M141.86,10.19c-.59,.75-1.41,1.5-2.38,1.5-.68,0-1.14-.31-1.56-.84-.68,2.93-3.39,5.39-6.45,5.39-1.61,0-2.66-.99-2.66-2.6,0-3.12,3.54-5.85,6.47-5.85,1.56,0,2.51,.99,2.71,2.18,.15,.88,.68,1.45,1.5,1.45s1.45-.46,2.24-1.41l.13,.18Zm-5.72-.97c0-.73-.31-1.17-.97-1.17-2.22,0-4.51,4.91-4.51,6.75,0,.73,.31,1.17,.97,1.17,2.22,0,4.51-4.91,4.51-6.75Z" style="fill: #c7b995;"/>
      <path d="M150.15,9.81c.59,0,1.17,.35,1.17,.99,0,.79-.68,1.23-1.41,1.25-.13,.42-.18,.81-.18,1.23,0,2,2.16,2.68,3.83,2.68,4.42,0,5.06-5.15,5.21-8.49,.18-4.05,1.83-7.48,5.7-7.48,1.65,0,3.21,.64,3.21,2.31,0,1.41-1.21,1.87-2.49,1.87,.4-.68,.64-1.28,.64-2.09,0-1.12-.66-1.83-1.63-1.83-3.41,0-3.17,5.37-3.7,9.64-.31,2.51-1.91,6.34-7.08,6.34-2.55,0-5.1-1.36-5.1-4.2,0-1.1,.62-2.22,1.83-2.22Z" style="fill: #c7b995;"/>
      <path d="M162.2,15.89L171.42,.68l2.4-.11-7.3,11.53,.04,.04c1.3-1.54,3.28-4.36,5.57-4.36,.92,0,1.5,.48,1.5,1.45,0,1.61-3.08,4.51-3.08,5.94,0,.37,.18,.53,.46,.53,1.32,0,5-4.25,5.96-5.61l.13,.13c-.77,.99-1.89,2.4-3.06,3.59-1.58,1.63-2.57,2.29-3.74,2.29-1.06,0-1.52-.73-1.52-1.52,0-2.02,3.08-4.31,3.08-5.63,0-.42-.29-.64-.57-.64-1.89,0-5.72,5.33-6.82,7.5l-2.27,.07Z" style="fill: #c7b995;"/>
      <path d="M182.16,8.14c-2.75,4.33-3.94,6.03-3.94,6.93,0,.35,.13,.59,.4,.59,.57,0,1.65-.62,3.26-2.24,1.3-1.32,2.53-2.77,3.06-3.39l.2,.13c-.73,.92-2.13,2.51-3.28,3.65-1.69,1.69-2.84,2.29-3.87,2.29-.97,0-1.52-.59-1.52-1.43,0-1.14,.81-2.29,3.43-6.42l2.27-.11Zm2.33-3.85c0,.59-.55,1.17-1.14,1.17-.64,0-1.19-.33-1.19-1.01s.62-1.19,1.28-1.19c.55,0,1.06,.48,1.06,1.03Z" style="fill: #c7b995;"/>
      <path d="M193.38,8.27l2.29-.13c-.81,1.56-3.94,5.46-3.94,7.02,0,.4,.22,.55,.55,.55,.7,0,2-.9,3.32-2.24,1.1-1.12,2.4-2.71,2.93-3.41l.15,.09c-.77,1.01-1.74,2.29-3.12,3.7-1.39,1.41-2.77,2.4-4.11,2.4-.92,0-1.47-.55-1.47-1.25,0-.22,.02-.46,.09-.57h-.04c-.9,1.01-2.09,1.83-3.39,1.83-1.43,0-1.96-1.17-1.96-2.4,0-2.86,3.5-6.05,6.23-6.05,1.01,0,1.56,.44,1.94,1.36l.55-.88Zm-5.5,7.22c1.87-.13,4.29-4.53,4.29-6.18,0-.79-.24-1.25-1.08-1.25-2.02,0-4.31,4.07-4.31,5.85,0,.84,.2,1.58,1.1,1.58Z" style="fill: #c7b995;"/>
      <path d="M200.84,12.1c.84-1.06,3.26-4.31,5.54-4.31,.97,0,1.47,.62,1.47,1.41,0,1.98-3.04,4.29-3.04,5.92,0,.35,.18,.59,.57,.59,.42,0,1.34-.51,2.95-2.22,1.25-1.34,2.4-2.77,2.93-3.41l.22,.11c-.77,.9-1.94,2.38-3.19,3.7-1.54,1.61-2.46,2.22-3.61,2.22s-1.63-.73-1.63-1.52c0-1.98,3.04-4.36,3.04-5.72,0-.31-.22-.55-.62-.55-1.74,0-5.68,5.33-6.78,7.5l-2.22,.07c1.54-2.57,3.15-5.1,4.67-7.75l2.51-.09-2.86,4,.04,.04Z" style="fill: #c7b995;"/>
      <path d="M207.72,17.65c-1.54,.02-2.33,.9-2.33,2.35s.97,2.46,2.46,2.46c4.14,0,6.93-5.52,8.96-8.47l-.04-.04c-.95,1.1-2.27,2.16-3.83,2.16-1.19,0-1.85-.99-1.85-2.09,0-2.88,3.24-6.23,6.14-6.23,1.1,0,1.72,.35,2.07,1.43l.51-.95,2.24-.13c-1.58,2.68-3.06,5.5-4.75,8.21,3.28-.95,5.66-3.67,7.64-6.31l.13,.07c-1.96,2.84-4.62,5.61-7.94,6.56-2.11,3.65-5.33,6.07-9.53,6.07-2.16,0-4.05-.73-4.05-2.84,0-1.61,1.5-2.51,2.97-2.51,.26,0,.92,.09,1.21,.11v.15Zm6.67-2.29c1.85,0,4.16-4.29,4.16-5.96,0-.62-.11-1.34-.9-1.34-2.16,0-4.45,3.85-4.45,5.79,0,.86,.2,1.52,1.19,1.52Z" style="fill: #c7b995;"/>
      <path d="M236.28,10.12c-.9,1.21-1.89,2.42-3.32,3.72-2.02,1.83-3.92,2.4-5.54,2.4s-2.71-1.1-2.71-2.68c0-2.82,3.81-5.76,6.56-5.76,1.25,0,2,.51,2,1.39,0,2.13-4.8,3.06-6.34,3.39-.07,.26-.11,.53-.11,.79,0,1.25,.75,2.13,2,2.13s2.77-.77,4.27-2.16c1.14-1.08,2.24-2.35,3.04-3.37l.15,.15Zm-5.37-2.07c-1.47,0-3.56,2.82-3.94,4.29,2.4-.48,4.53-2.29,4.53-3.72,0-.4-.24-.57-.59-.57Z" style="fill: #c7b995;"/>
      <path d="M234.08,15.89c1.5-2.57,3.06-5.13,4.58-7.75l2.51-.09-2.9,4.09,.04,.04c2.2-2.73,3.48-3.21,3.92-3.65,.64-.64,1.01-.7,2.66-.75-.55,.79-1.12,1.65-1.12,2.64,0,.66,.31,.95,.95,.95,.84,0,1.58-.77,2.11-1.32l.09,.11c-.81,1.01-1.96,1.74-3.28,1.74-1.17,0-1.89-.64-1.89-1.83,0-.37,.13-.77,.33-1.08l-.04-.04c-2.49,1.65-4.42,4.47-5.72,6.86l-2.22,.07Z" style="fill: #c7b995;"/>
      <path d="M256.5,13.55c.68,0,1.23,.55,1.23,1.23s-.55,1.23-1.23,1.23-1.23-.55-1.23-1.23,.55-1.23,1.23-1.23Z" style="fill: #c7b995;"/>
    </g>
  </g>
</svg>