<?xml version="1.0" encoding="UTF-8"?>
<svg id="b" data-name="圖層 2" xmlns="http://www.w3.org/2000/svg" width="197.17" height="31.15" viewBox="0 0 197.17 31.15">
  <g id="c" data-name="圖層 1">
    <g>
      <g>
        <path d="M58.9,19.19h-8.89v.95h-1.54V9.64c-.46,.44-.99,.86-1.5,1.25-.18-.33-.62-.95-.95-1.28v7.66h-3.87v1.78h-1.41v-7.2c-.35,.66-.73,1.32-1.14,1.87-.18-.33-.64-1.08-.95-1.41,1.58-2.24,2.55-5.61,3.12-9.24h-2.6V1.58h7.22v1.5h-3.04c-.29,1.7-.64,3.37-1.1,4.88h3.76v1.54c2.02-1.41,3.65-3.43,4.84-5.83h-2.57v2.35h-1.43V2.27h4.66c.29-.73,.55-1.5,.77-2.27l1.54,.31c-.2,.66-.42,1.34-.68,1.96h5.26v3.72h-1.47V3.67h-4.36c-.55,1.19-1.17,2.29-1.87,3.3h2.86c-.29-.66-.64-1.41-.95-2.02l1.36-.55c.44,.81,.97,1.83,1.23,2.57h3.01v1.39h-3.43v2.22h3.15v1.28h-3.15v2.33h3.15v1.28h-3.15v2.31h4.09v1.41Zm-14.3-9.79h-2.44v6.42h2.44v-6.42Zm8.69-1.03h-3.28v2.22h3.28v-2.22Zm0,3.5h-3.28v2.33h3.28v-2.33Zm-3.28,5.92h3.28v-2.31h-3.28v2.31Z" style="fill: #80292d;"/>
        <path d="M75.27,5.04h-7.75v-1.36h7.75v1.36Zm-.53,2.9h-6.64v-1.3h6.64v1.3Zm-6.64,1.61h6.64v1.32h-6.64v-1.32Zm6.54,9.33h-5.15v1.01h-1.39v-7.37h6.54v6.36Zm-5.15-5.02v3.67h3.74v-3.67h-3.74Zm1.65-10.32c-.24-.79-.84-2.05-1.37-2.99l1.39-.48c.57,.9,1.14,2.11,1.45,2.9l-1.47,.57Zm3.54,13.93c.75-1.19,1.28-3.12,1.54-4.62l1.17,.35c-.29,1.58-.77,3.59-1.52,4.8l-1.19-.53Zm7.44-15.16c-.39,3.96-1.5,7.24-5.54,9.07-.18-.37-.62-.92-.95-1.17,1.96-.84,3.15-2,3.87-3.48-.81-.84-2.16-2-3.19-2.86l.86-.92c.92,.73,2.07,1.67,2.9,2.4,.29-.95,.44-1.96,.55-3.04h-4.53V.9h10.71s-.02,.48-.02,.7c-.24,5.57-.48,7.55-1.01,8.23-.37,.44-.79,.59-1.38,.64-.55,.04-1.52,.04-2.49,0-.04-.44-.2-1.03-.46-1.45,1.01,.09,1.94,.11,2.29,.11s.53-.04,.72-.26c.35-.4,.57-2.11,.75-6.56h-3.08Zm.73,16.02c.73,0,.86-.37,.92-2.93,.31,.24,.9,.46,1.3,.55-.15,2.99-.55,3.7-2.07,3.7h-2.86c-1.74,0-2.18-.44-2.18-1.96v-5.35h1.43v5.35c0,.53,.15,.64,.9,.64h2.55Zm-2.09-7.57c.92,.97,1.94,2.31,2.42,3.15l-1.08,.75c-.46-.86-1.45-2.24-2.35-3.26l1.01-.64Zm5.1,1.21c.79,1.45,1.63,3.37,1.94,4.53l-1.25,.48c-.31-1.19-1.08-3.15-1.85-4.62l1.17-.4Z" style="fill: #80292d;"/>
        <path d="M102.11,10.5c-.55,2.02-1.3,4.2-2.18,5.83,.37,.26,.86,.62,1.54,1.04,1.54,.95,3.5,1.1,6.07,1.1,2.79,0,6.36-.2,8.78-.46-.18,.44-.46,1.21-.48,1.69-1.63,.11-5.74,.24-8.32,.24-2.88,0-4.77-.24-6.4-1.21-.88-.53-1.67-1.28-2.18-1.28s-1.23,1.36-1.89,2.77l-1.12-1.5c.9-1.28,1.8-2.29,2.57-2.62,.68-1.23,1.32-2.9,1.72-4.44h-3.06c.62-1.3,1.34-3.15,1.94-4.84h-2.91v-1.47h4.93c-.55,1.56-1.25,3.39-1.89,4.88h1.85l.27-.07,.77,.33Zm-3.32-6.18c-.24-.92-.77-2.42-1.1-3.54l1.45-.42c.4,1.1,.9,2.55,1.19,3.45l-1.54,.51Zm15.34,12.7c-1.1-1.3-3.21-3.37-5.06-5.13-.75,1.87-2.36,3.72-5.61,5.17-.22-.33-.73-.92-1.1-1.21,3.81-1.56,5.1-3.63,5.52-5.52h-5.59v-1.52h5.77c.02-.22,.02-.44,.02-.64v-2.53h-5.17v-1.52h7.44c.77-1.19,1.65-2.86,2.11-4.09l1.65,.53c-.64,1.17-1.43,2.51-2.11,3.56h3.35v1.52h-5.61v2.55c0,.18,0,.4-.02,.62h6.27v1.52h-6.45v.04c1.94,1.76,4.47,4.12,5.74,5.52l-1.14,1.12Zm-8.05-12.96c-.38-.86-1.19-2.33-1.85-3.41l1.34-.53c.7,1.03,1.54,2.44,1.96,3.3l-1.45,.64Z" style="fill: #80292d;"/>
        <path d="M143.4,10.96v9.13h-1.76v-1.25h-15.49v-7.88h1.76v6.27h5.94v-7.66h-6.73V2.05h1.69V7.96h5.04V.04h1.76V7.96h5.17V2.02h1.76v7.55h-6.93v7.66h6.03v-6.27h1.76Z" style="fill: #80292d;"/>
      </g>
      <rect x="4.22" y="4.55" width="13.3" height="13.3" transform="translate(-4.74 10.96) rotate(-45)" style="fill: #c7b299;"/>
      <polyline points="175.32 15.56 194.93 30.4 166.74 30.4 149.58 30.4 37.98 30.4 0 30.4" style="fill: none; stroke: #8a202a; stroke-miterlimit: 10; stroke-width: 1.5px;"/>
    </g>
  </g>
</svg>