<?xml version="1.0" encoding="UTF-8"?>
<svg id="b" data-name="圖層 2" xmlns="http://www.w3.org/2000/svg" width="267.79" height="71.62" viewBox="0 0 267.79 71.62">
  <g id="c" data-name="圖層 1">
    <g>
      <g>
        <g>
          <path d="M130.27,5.85s-12.84-8.13-19.21-3.34c-1.7,1.28-2.13,3.43-.91,5.16,1.57,2.23,7.52,4.19,18.64,2.41" style="fill: none; stroke: #c7ba99; stroke-miterlimit: 10; stroke-width: 2px;"/>
          <path d="M137.52,5.85s12.84-8.13,19.21-3.34c1.7,1.28,2.13,3.43,.91,5.16-1.57,2.23-7.52,4.19-18.64,2.41" style="fill: none; stroke: #c7ba99; stroke-miterlimit: 10; stroke-width: 2px;"/>
          <path d="M137.52,5.85s12.84-8.13,19.21-3.34c1.7,1.28,2.13,3.43,.91,5.16-1.57,2.23-7.52,4.19-18.64,2.41" style="fill: none; stroke: #89202a; stroke-miterlimit: 10; stroke-width: .5px;"/>
          <line x1="133.87" y1="5.02" x2="133.87" y2="10.77" style="fill: none; stroke: #c7ba99; stroke-linecap: round; stroke-linejoin: round; stroke-width: 1.5px;"/>
          <line x1="135.94" y1="5.02" x2="135.94" y2="10.77" style="fill: none; stroke: #c7ba99; stroke-linecap: round; stroke-linejoin: round; stroke-width: 1.5px;"/>
          <line x1="131.81" y1="5.02" x2="131.81" y2="10.77" style="fill: none; stroke: #c7ba99; stroke-linecap: round; stroke-linejoin: round; stroke-width: 1.5px;"/>
          <path d="M130.27,5.85s-12.84-8.13-19.21-3.34c-1.7,1.28-2.13,3.43-.91,5.16,1.57,2.23,7.52,4.19,18.64,2.41" style="fill: none; stroke: #89202a; stroke-miterlimit: 10; stroke-width: .5px;"/>
          <g>
            <line x1="133.87" y1="5.02" x2="133.87" y2="10.77" style="fill: none; stroke: #89202a; stroke-miterlimit: 10; stroke-width: .5px;"/>
            <line x1="135.94" y1="5.02" x2="135.94" y2="10.77" style="fill: none; stroke: #89202a; stroke-miterlimit: 10; stroke-width: .5px;"/>
            <line x1="131.81" y1="5.02" x2="131.81" y2="10.77" style="fill: none; stroke: #89202a; stroke-miterlimit: 10; stroke-width: .5px;"/>
          </g>
        </g>
        <g>
          <line x1=".5" y1="65.53" x2=".5" y2="26.68" style="fill: none; stroke: #a28978; stroke-miterlimit: 10;"/>
          <line x1="267.29" y1="65.53" x2="267.29" y2="26.68" style="fill: none; stroke: #a28978; stroke-miterlimit: 10;"/>
          <line x1="266.95" y1="71.12" x2=".95" y2="71.12" style="fill: none; stroke: #a28978; stroke-miterlimit: 10;"/>
          <line x1="266.95" y1="21.12" x2=".95" y2="21.12" style="fill: none; stroke: #a28978; stroke-miterlimit: 10;"/>
        </g>
      </g>
      <g>
        <path d="M61.91,51.23c-.6,1.97-1.63,3.94-2.71,5.21-.38-.34-1.22-.89-1.68-1.15,1.08-1.13,1.97-2.81,2.42-4.54l1.97,.48Zm3.84-.84h-6.98v-15.12h6.98v15.12Zm-2.02-13.3h-3.02v2.66h3.02v-2.66Zm0,4.37h-3.02v2.71h3.02v-2.71Zm0,4.39h-3.02v2.74h3.02v-2.74Zm.79,4.87c.77,1.18,1.61,2.74,1.99,3.77l-1.75,.84c-.31-1.03-1.18-2.69-1.92-3.89l1.68-.72Zm15.22,1.8h-1.27v1.73c0,.98-.22,1.51-.91,1.82-.72,.31-1.82,.31-3.48,.31-.07-.5-.34-1.3-.6-1.8,1.1,.05,2.21,.05,2.52,.02,.34,0,.41-.1,.41-.38v-1.7h-6.94v3.91h-1.99v-3.91h-1.42v-1.63h1.42v-6.07h4.42v-1.15h-5.74v-1.66h3.24v-1.27h-2.16v-1.58h2.16v-1.18h-2.76v-1.66h2.76v-1.94h1.97v1.94h3.07v-1.94h1.99v1.94h2.76v1.66h-2.76v1.18h2.38v1.58h-2.38v1.27h3.27v1.66h-5.83v1.15h4.61v6.07h1.27v1.63Zm-10.27-6.05v1.42h2.43v-1.42h-2.43Zm0,4.42h2.43v-1.54h-2.43v1.54Zm1.9-11.74h3.07v-1.18h-3.07v1.18Zm0,2.86h3.07v-1.27h-3.07v1.27Zm2.5,4.46v1.42h2.54v-1.42h-2.54Zm2.54,4.42v-1.54h-2.54v1.54h2.54Z" style="fill: #a28978;"/>
        <path d="M110.08,46.9c-.94,.31-1.87,.6-2.81,.89v8.59h-2.06v-7.94l-3.77,1.15-.58-2.14c1.2-.31,2.71-.72,4.34-1.18v-5.04h-1.92c-.29,1.27-.62,2.42-.98,3.34-.36-.29-1.18-.77-1.63-1.01,.84-1.94,1.27-4.97,1.51-7.82l1.89,.31c-.12,1.03-.24,2.06-.41,3.07h1.54v-4.75h2.06v4.75h2.23v2.11h-2.23v4.42l2.52-.72,.29,1.97Zm12.72-8.67s0,.77-.02,1.06c-.53,10.78-.98,14.57-1.92,15.75-.51,.72-.98,.94-1.75,1.06-.65,.12-1.66,.1-2.71,.05-.03-.65-.26-1.56-.62-2.18,1.01,.1,1.9,.1,2.35,.1,.38,0,.62-.1,.86-.43,.7-.79,1.2-4.2,1.63-13.32h-.67c-1.22,6.19-3.79,12.5-7.68,15.62-.43-.41-1.22-.98-1.85-1.32,3.86-2.76,6.38-8.5,7.58-14.3h-1.61c-1.06,4.03-3.14,8.42-5.69,10.68-.41-.41-1.13-.96-1.73-1.27,2.47-1.92,4.44-5.71,5.54-9.41h-1.7c-.74,1.73-1.61,3.24-2.59,4.42-.36-.31-1.25-.98-1.73-1.27,1.94-2.11,3.31-5.52,4.1-9.07l2.02,.38c-.26,1.2-.62,2.38-.98,3.48h9.17Z" style="fill: #a28978;"/>
        <path d="M153.49,40.54c-.07,1.13-.14,2.28-.29,3.41h10.2s-.02,.7-.1,1.01c-.46,6.62-.91,9.26-1.87,10.25-.65,.65-1.27,.84-2.28,.94-.89,.07-2.45,.05-4.06-.05-.02-.65-.34-1.56-.79-2.18,1.7,.14,3.34,.17,4.01,.17,.53,0,.84-.05,1.15-.29,.67-.55,1.1-2.78,1.49-7.68h-8.09c-.77,4.13-2.52,7.99-6.96,10.39-.34-.6-1.03-1.37-1.63-1.82,5.95-3.02,6.5-8.86,6.74-14.14h-6.29v-2.18h10.27c-.31-.96-.96-2.33-1.51-3.36l2.18-.82c.62,1.08,1.37,2.52,1.71,3.48l-1.61,.7h9.87v2.18h-12.14Z" style="fill: #a28978;"/>
        <path d="M202.26,40.83c.53,7.56,2.21,13.27,4.3,13.27,.58,0,.86-1.3,1.01-4.42,.5,.53,1.34,1.06,1.97,1.27-.38,4.32-1.18,5.5-3.17,5.5-3.96,0-5.86-6.98-6.46-15.63h-12.17v-2.18h12.03c-.05-1.37-.1-2.76-.1-4.15h2.4c-.03,1.39,0,2.81,.05,4.15h6.89v2.18h-6.74Zm-7.44,11.33c1.58-.29,3.22-.62,4.82-.96l.17,2.02c-3.98,.91-8.28,1.85-11.35,2.52l-.65-2.26c1.29-.22,2.95-.53,4.78-.86v-6.43h-3.98v-2.16h10.42v2.16h-4.2v5.98Zm10.01-17.67c1.18,.77,2.64,1.94,3.34,2.76l-1.56,1.39c-.67-.84-2.06-2.09-3.24-2.93l1.46-1.22Z" style="fill: #a28978;"/>
      </g>
    </g>
  </g>
</svg>