<?xml version="1.0" encoding="UTF-8"?>
<svg id="b" data-name="圖層 2" xmlns="http://www.w3.org/2000/svg" width="269.79" height="71.62" viewBox="0 0 269.79 71.62">
  <g id="c" data-name="圖層 1">
    <g>
      <path d="M130.27,5.85s-12.84-8.13-19.21-3.34c-1.7,1.28-2.13,3.43-.91,5.16,1.57,2.23,7.52,4.19,18.64,2.41" style="fill: none; stroke: #c7ba99; stroke-miterlimit: 10; stroke-width: 2px;"/>
      <path d="M137.52,5.85s12.84-8.13,19.21-3.34c1.7,1.28,2.13,3.43,.91,5.16-1.57,2.23-7.52,4.19-18.64,2.41" style="fill: none; stroke: #c7ba99; stroke-miterlimit: 10; stroke-width: 2px;"/>
      <path d="M137.52,5.85s12.84-8.13,19.21-3.34c1.7,1.28,2.13,3.43,.91,5.16-1.57,2.23-7.52,4.19-18.64,2.41" style="fill: none; stroke: #89202a; stroke-miterlimit: 10; stroke-width: .5px;"/>
      <line x1="133.87" y1="5.02" x2="133.87" y2="10.77" style="fill: none; stroke: #c7ba99; stroke-linecap: round; stroke-linejoin: round; stroke-width: 1.5px;"/>
      <line x1="135.94" y1="5.02" x2="135.94" y2="10.77" style="fill: none; stroke: #c7ba99; stroke-linecap: round; stroke-linejoin: round; stroke-width: 1.5px;"/>
      <line x1="131.81" y1="5.02" x2="131.81" y2="10.77" style="fill: none; stroke: #c7ba99; stroke-linecap: round; stroke-linejoin: round; stroke-width: 1.5px;"/>
      <path d="M130.27,5.85s-12.84-8.13-19.21-3.34c-1.7,1.28-2.13,3.43-.91,5.16,1.57,2.23,7.52,4.19,18.64,2.41" style="fill: none; stroke: #89202a; stroke-miterlimit: 10; stroke-width: .5px;"/>
      <g>
        <line x1="133.87" y1="5.02" x2="133.87" y2="10.77" style="fill: none; stroke: #89202a; stroke-miterlimit: 10; stroke-width: .5px;"/>
        <line x1="135.94" y1="5.02" x2="135.94" y2="10.77" style="fill: none; stroke: #89202a; stroke-miterlimit: 10; stroke-width: .5px;"/>
        <line x1="131.81" y1="5.02" x2="131.81" y2="10.77" style="fill: none; stroke: #89202a; stroke-miterlimit: 10; stroke-width: .5px;"/>
      </g>
    </g>
    <line x1=".5" y1="65.53" x2=".5" y2="26.68" style="fill: none; stroke: #a28978; stroke-miterlimit: 10;"/>
    <line x1="269.29" y1="65.53" x2="269.29" y2="26.68" style="fill: none; stroke: #a28978; stroke-miterlimit: 10;"/>
    <line x1="266.95" y1="21.12" x2=".95" y2="21.12" style="fill: none; stroke: #a28978; stroke-miterlimit: 10;"/>
    <g>
      <path d="M59.22,35.36h11.3v1.87h-3.19v2.78h2.86v16.01h-1.82v-1.32h-7.01v1.66h-1.75v-16.35h2.81v-2.78h-3.19v-1.87Zm9.14,17.59v-5.88h-1.25c-1.13,0-1.46-.34-1.46-1.75v-3.43h-1.42v1.78c0,1.44-.36,3.22-1.9,4.44-.21-.24-.67-.67-.98-.84v5.69h7.01Zm-7.01-11.06v5.3c1.32-1.08,1.54-2.45,1.54-3.55v-1.75h-1.54Zm.87,7.3h5.28v1.75h-5.28v-1.75Zm3.34-11.95h-1.39v2.78h1.39v-2.78Zm2.81,4.66h-1.39v3.41c0,.34,.05,.38,.31,.38h.74c.19,0,.29-.02,.34-.05v-3.74Zm9.53,12.19c.96,0,1.13-.6,1.25-3.91,.5,.38,1.42,.77,2.02,.91-.26,3.94-.84,5.06-3.07,5.06h-3.6c-2.33,0-3.05-.65-3.05-3.12v-9.91h6.67v-5.5h-6.74v-2.14h8.9v9.77h-6.62v7.75c0,.91,.17,1.08,1.15,1.08h3.1Z" style="fill: #a28978;"/>
      <path d="M109.02,45.68c-.55,2.23-1.37,4.56-2.3,6.36,.38,.24,.82,.58,1.44,.96,1.63,1.01,3.84,1.15,6.62,1.15,2.93,0,6.94-.22,9.6-.55-.26,.62-.62,1.7-.65,2.3-1.87,.12-6.22,.26-9.05,.26-3.12,0-5.16-.26-6.91-1.27-.96-.55-1.82-1.39-2.33-1.39-.53,0-1.37,1.56-1.99,3.02l-1.51-2.09c.98-1.3,1.97-2.33,2.86-2.71,.65-1.25,1.27-2.9,1.68-4.51h-3.26c.6-1.39,1.32-3.31,1.94-5.14h-2.86v-2.02h5.59c-.55,1.66-1.27,3.58-1.9,5.21h1.71l.34-.1,.98,.43v-1.82h6v-3.1h-5.38v-2.02h3.29c-.46-.96-1.22-2.4-1.9-3.48l1.9-.74c.7,1.1,1.61,2.62,2.06,3.53l-1.58,.7h4.29c.79-1.27,1.66-3,2.16-4.3l2.26,.7c-.7,1.2-1.46,2.52-2.16,3.6h3.24v2.02h-5.88v3.1h6.62v2.04h-6.53c2.04,1.85,4.58,4.13,5.9,5.54l-1.58,1.58c-1.13-1.34-3.34-3.48-5.26-5.28-.89,1.9-2.64,3.82-5.98,5.33-.34-.48-1.03-1.27-1.56-1.7,3.89-1.51,5.3-3.55,5.78-5.47h-5.71v-.14Zm-3.98-6.5c-.26-1.03-.87-2.67-1.25-3.91l2.04-.58c.41,1.22,1.01,2.79,1.32,3.79l-2.11,.7Z" style="fill: #a28978;"/>
      <path d="M154.77,40.54c-.07,1.13-.14,2.28-.29,3.41h10.2s-.02,.7-.1,1.01c-.46,6.62-.91,9.26-1.87,10.25-.65,.65-1.27,.84-2.28,.94-.89,.07-2.45,.05-4.06-.05-.02-.65-.34-1.56-.79-2.18,1.7,.14,3.34,.17,4.01,.17,.53,0,.84-.05,1.15-.29,.67-.55,1.1-2.78,1.49-7.68h-8.09c-.77,4.13-2.52,7.99-6.96,10.39-.34-.6-1.03-1.37-1.63-1.82,5.95-3.02,6.5-8.86,6.74-14.14h-6.29v-2.18h10.27c-.31-.96-.96-2.33-1.51-3.36l2.18-.82c.62,1.08,1.37,2.52,1.71,3.48l-1.61,.7h9.87v2.18h-12.14Z" style="fill: #a28978;"/>
      <path d="M203.53,40.83c.53,7.56,2.21,13.27,4.3,13.27,.58,0,.86-1.3,1.01-4.42,.5,.53,1.34,1.06,1.97,1.27-.38,4.32-1.18,5.5-3.17,5.5-3.96,0-5.86-6.98-6.46-15.63h-12.17v-2.18h12.03c-.05-1.37-.1-2.76-.1-4.15h2.4c-.03,1.39,0,2.81,.05,4.15h6.89v2.18h-6.74Zm-7.44,11.33c1.58-.29,3.22-.62,4.82-.96l.17,2.02c-3.98,.91-8.28,1.85-11.35,2.52l-.65-2.26c1.29-.22,2.95-.53,4.78-.86v-6.43h-3.98v-2.16h10.42v2.16h-4.2v5.98Zm10.01-17.67c1.18,.77,2.64,1.94,3.34,2.76l-1.56,1.39c-.67-.84-2.06-2.09-3.24-2.93l1.46-1.22Z" style="fill: #a28978;"/>
    </g>
    <line x1="266.95" y1="71.12" x2=".95" y2="71.12" style="fill: none; stroke: #a28978; stroke-miterlimit: 10;"/>
  </g>
</svg>