<?xml version="1.0" encoding="UTF-8"?>
<svg id="b" data-name="圖層 2" xmlns="http://www.w3.org/2000/svg" width="267.79" height="71.62" viewBox="0 0 267.79 71.62">
  <g id="c" data-name="圖層 1">
    <g>
      <g>
        <g>
          <path d="M130.27,5.85s-12.84-8.13-19.21-3.34c-1.7,1.28-2.13,3.43-.91,5.16,1.57,2.23,7.52,4.19,18.64,2.41" style="fill: none; stroke: #c7ba99; stroke-miterlimit: 10; stroke-width: 2px;"/>
          <path d="M137.52,5.85s12.84-8.13,19.21-3.34c1.7,1.28,2.13,3.43,.91,5.16-1.57,2.23-7.52,4.19-18.64,2.41" style="fill: none; stroke: #c7ba99; stroke-miterlimit: 10; stroke-width: 2px;"/>
          <path d="M137.52,5.85s12.84-8.13,19.21-3.34c1.7,1.28,2.13,3.43,.91,5.16-1.57,2.23-7.52,4.19-18.64,2.41" style="fill: none; stroke: #89202a; stroke-miterlimit: 10; stroke-width: .5px;"/>
          <line x1="133.87" y1="5.02" x2="133.87" y2="10.77" style="fill: none; stroke: #c7ba99; stroke-linecap: round; stroke-linejoin: round; stroke-width: 1.5px;"/>
          <line x1="135.94" y1="5.02" x2="135.94" y2="10.77" style="fill: none; stroke: #c7ba99; stroke-linecap: round; stroke-linejoin: round; stroke-width: 1.5px;"/>
          <line x1="131.81" y1="5.02" x2="131.81" y2="10.77" style="fill: none; stroke: #c7ba99; stroke-linecap: round; stroke-linejoin: round; stroke-width: 1.5px;"/>
          <path d="M130.27,5.85s-12.84-8.13-19.21-3.34c-1.7,1.28-2.13,3.43-.91,5.16,1.57,2.23,7.52,4.19,18.64,2.41" style="fill: none; stroke: #89202a; stroke-miterlimit: 10; stroke-width: .5px;"/>
          <g>
            <line x1="133.87" y1="5.02" x2="133.87" y2="10.77" style="fill: none; stroke: #89202a; stroke-miterlimit: 10; stroke-width: .5px;"/>
            <line x1="135.94" y1="5.02" x2="135.94" y2="10.77" style="fill: none; stroke: #89202a; stroke-miterlimit: 10; stroke-width: .5px;"/>
            <line x1="131.81" y1="5.02" x2="131.81" y2="10.77" style="fill: none; stroke: #89202a; stroke-miterlimit: 10; stroke-width: .5px;"/>
          </g>
        </g>
        <g>
          <line x1=".5" y1="65.53" x2=".5" y2="26.68" style="fill: none; stroke: #a28978; stroke-miterlimit: 10;"/>
          <line x1="267.29" y1="65.53" x2="267.29" y2="26.68" style="fill: none; stroke: #a28978; stroke-miterlimit: 10;"/>
          <line x1="266.95" y1="71.12" x2=".95" y2="71.12" style="fill: none; stroke: #a28978; stroke-miterlimit: 10;"/>
          <line x1="266.95" y1="21.12" x2=".95" y2="21.12" style="fill: none; stroke: #a28978; stroke-miterlimit: 10;"/>
        </g>
      </g>
      <g>
        <path d="M65.89,35.22c-.67,1.7-1.49,3.46-2.42,5.06v16.08h-2.26v-12.6c-.67,.91-1.39,1.75-2.11,2.47-.24-.53-.91-1.73-1.34-2.28,2.38-2.28,4.61-5.81,5.93-9.43l2.21,.7Zm13.87,6.62h-2.86v11.71c0,1.56-.41,2.18-1.42,2.52-1.01,.36-2.69,.41-5.3,.38-.12-.62-.53-1.63-.86-2.23,1.94,.1,3.94,.07,4.51,.05,.55-.02,.77-.19,.77-.72v-11.71h-9.38v-2.23h9.38v-4.97h2.3v4.97h2.86v2.23Zm-9.94,8.98c-.65-1.49-2.14-4.01-3.29-5.88l1.94-.91c1.15,1.8,2.71,4.22,3.43,5.67l-2.09,1.13Z" style="fill: #a28978;"/>
        <path d="M104.65,49.69c-.58,1.78-1.39,3.77-2.11,5.09-.41-.26-1.25-.65-1.75-.82,.79-1.25,1.54-3.1,2.02-4.73l1.85,.46Zm3.26-1.1v7.8h-2.11v-7.8h-4.8v-1.85h11.59v1.85h-4.68Zm-2.14-10.25h-4.46v-1.82h4.46v-1.99h2.09v1.99h4.49v1.82h-4.49v1.7h3.98v1.82h-9.98v-1.82h3.91v-1.7Zm5.83,5.5c1.39-2.38,2.18-5.83,2.62-9.41l2.18,.29c-.19,1.37-.43,2.71-.72,3.98h5.4l.34-.1,1.51,.46c-.43,2.23-1.13,4.78-1.75,6.43l-1.82-.55c.38-1.1,.79-2.66,1.08-4.22h-5.26c-.55,1.87-1.2,3.5-1.99,4.82-.34-.31-1.06-.82-1.58-1.15v.82h-9.53v-1.82h9.53v.46Zm-.96,5.38c.65,1.18,1.39,2.76,1.73,3.7l-1.8,.82c-.29-1.01-.98-2.62-1.61-3.84l1.68-.67Zm7.51-5.64c0,.7-.02,1.44-.07,2.28,.79,3.84,2.47,7.18,5.23,8.64-.5,.46-1.18,1.3-1.51,1.87-2.09-1.3-3.53-3.53-4.49-6.31-.7,2.21-1.9,4.46-4.06,6.41-.38-.48-1.15-1.2-1.7-1.51,4.13-3.62,4.49-8.3,4.49-11.45v-1.1h2.11v1.18Z" style="fill: #a28978;"/>
        <path d="M153.59,40.54c-.07,1.13-.14,2.28-.29,3.41h10.2s-.02,.7-.1,1.01c-.46,6.62-.91,9.26-1.87,10.25-.65,.65-1.27,.84-2.28,.94-.89,.07-2.45,.05-4.06-.05-.02-.65-.34-1.56-.79-2.18,1.7,.14,3.34,.17,4.01,.17,.53,0,.84-.05,1.15-.29,.67-.55,1.1-2.78,1.49-7.68h-8.09c-.77,4.13-2.52,7.99-6.96,10.39-.34-.6-1.03-1.37-1.63-1.82,5.95-3.02,6.5-8.86,6.75-14.14h-6.29v-2.18h10.27c-.31-.96-.96-2.33-1.51-3.36l2.18-.82c.62,1.08,1.37,2.52,1.7,3.48l-1.61,.7h9.87v2.18h-12.15Z" style="fill: #a28978;"/>
        <path d="M202.36,40.83c.53,7.56,2.21,13.27,4.3,13.27,.58,0,.86-1.3,1.01-4.42,.5,.53,1.34,1.06,1.97,1.27-.38,4.32-1.18,5.5-3.17,5.5-3.96,0-5.86-6.98-6.46-15.63h-12.17v-2.18h12.02c-.05-1.37-.1-2.76-.1-4.15h2.4c-.02,1.39,0,2.81,.05,4.15h6.89v2.18h-6.75Zm-7.44,11.33c1.58-.29,3.22-.62,4.82-.96l.17,2.02c-3.98,.91-8.28,1.85-11.35,2.52l-.65-2.26c1.3-.22,2.95-.53,4.78-.86v-6.43h-3.98v-2.16h10.42v2.16h-4.2v5.98Zm10.01-17.67c1.18,.77,2.64,1.94,3.34,2.76l-1.56,1.39c-.67-.84-2.06-2.09-3.24-2.93l1.46-1.22Z" style="fill: #a28978;"/>
      </g>
    </g>
  </g>
</svg>