<?xml version="1.0" encoding="UTF-8"?>
<svg id="b" data-name="圖層 2" xmlns="http://www.w3.org/2000/svg" width="213.38" height="113.31" viewBox="0 0 213.38 113.31">
  <g id="c" data-name="圖層 2">
    <g>
      <path d="M61.36,82.38c-.55,1.8-1.5,3.61-2.49,4.77-.35-.31-1.12-.81-1.54-1.06,.99-1.03,1.8-2.57,2.22-4.16l1.8,.44Zm3.52-.77h-6.4v-13.86h6.4v13.86Zm-1.85-12.19h-2.77v2.44h2.77v-2.44Zm0,4h-2.77v2.49h2.77v-2.49Zm0,4.03h-2.77v2.51h2.77v-2.51Zm.73,4.47c.7,1.08,1.47,2.51,1.83,3.45l-1.61,.77c-.29-.95-1.08-2.46-1.76-3.56l1.54-.66Zm13.95,1.65h-1.17v1.58c0,.9-.2,1.39-.84,1.67-.66,.29-1.67,.29-3.19,.29-.07-.46-.31-1.19-.55-1.65,1.01,.04,2.02,.04,2.31,.02,.31,0,.37-.09,.37-.35v-1.56h-6.36v3.59h-1.83v-3.59h-1.3v-1.5h1.3v-5.57h4.05v-1.06h-5.26v-1.52h2.97v-1.17h-1.98v-1.45h1.98v-1.08h-2.53v-1.52h2.53v-1.78h1.8v1.78h2.82v-1.78h1.83v1.78h2.53v1.52h-2.53v1.08h2.18v1.45h-2.18v1.17h2.99v1.52h-5.35v1.06h4.22v5.57h1.17v1.5Zm-9.42-5.54v1.3h2.22v-1.3h-2.22Zm0,4.05h2.22v-1.41h-2.22v1.41Zm1.74-10.76h2.82v-1.08h-2.82v1.08Zm0,2.62h2.82v-1.17h-2.82v1.17Zm2.29,4.09v1.3h2.33v-1.3h-2.33Zm2.33,4.05v-1.41h-2.33v1.41h2.33Z" style="fill: #9d8577;"/>
      <path d="M92.31,78.42c-.86,.29-1.72,.55-2.57,.81v7.88h-1.89v-7.28l-3.45,1.06-.53-1.96c1.1-.29,2.49-.66,3.98-1.08v-4.62h-1.76c-.26,1.17-.57,2.22-.9,3.06-.33-.26-1.08-.7-1.5-.92,.77-1.78,1.17-4.55,1.39-7.17l1.74,.29c-.11,.95-.22,1.89-.37,2.82h1.41v-4.36h1.89v4.36h2.05v1.94h-2.05v4.05l2.31-.66,.26,1.8Zm11.66-7.94s0,.7-.02,.97c-.48,9.88-.9,13.36-1.76,14.43-.46,.66-.9,.86-1.61,.97-.59,.11-1.52,.09-2.49,.04-.02-.59-.24-1.43-.57-2,.92,.09,1.74,.09,2.16,.09,.35,0,.57-.09,.79-.4,.64-.73,1.1-3.85,1.5-12.21h-.62c-1.12,5.68-3.48,11.46-7.04,14.32-.4-.37-1.12-.9-1.69-1.21,3.54-2.53,5.85-7.79,6.95-13.11h-1.47c-.97,3.7-2.88,7.72-5.21,9.79-.37-.37-1.03-.88-1.58-1.17,2.27-1.76,4.07-5.24,5.08-8.62h-1.56c-.68,1.58-1.47,2.97-2.38,4.05-.33-.29-1.14-.9-1.58-1.17,1.78-1.94,3.04-5.06,3.76-8.32l1.85,.35c-.24,1.1-.57,2.18-.9,3.19h8.41Z" style="fill: #9d8577;"/>
      <path d="M128.33,85c.4,0,.48-.31,.55-2.51,.4,.35,1.23,.68,1.76,.81-.2,2.84-.7,3.56-2.07,3.56h-1.65c-1.72,0-2.09-.59-2.09-2.49v-4.88h-1.45c-.33,3.45-1.19,6.18-4.58,7.75-.2-.48-.77-1.21-1.19-1.58,2.88-1.21,3.52-3.41,3.78-6.16h-1.67v-6.23c-.31,.35-.64,.68-.92,.95-.33-.37-1.1-1.08-1.52-1.43,.2-.18,.4-.35,.59-.55h-7.53v-1.63h7.7v1.47c1.34-1.3,2.57-3.08,3.34-4.86l1.89,.59c-.79,1.78-1.92,3.54-3.12,4.99h8.21c-1.01-1.54-2.49-3.39-3.78-4.84l1.41-.97c1.72,1.83,3.76,4.27,4.64,5.9l-1.56,1.12c-.18-.37-.42-.77-.7-1.19v6.67h-1.56v4.86c0,.57,.07,.64,.44,.64h1.08Zm-10.8,.86h-4.55v.99h-1.78v-7.44h6.34v6.45Zm-.24-10.72h-6.05v-1.61h6.05v1.61Zm-6.05,1.3h6.05v1.58h-6.05v-1.58Zm2.64-5.85c-.2-.79-.75-2.05-1.23-2.95l1.74-.57c.51,.88,1.06,2.07,1.3,2.86l-1.8,.66Zm-.9,10.47v3.15h2.84v-3.15h-2.84Zm8.69-3.34h4.69v-3.1h-4.69v3.1Z" style="fill: #9d8577;"/>
      <path d="M139.5,81.35v1.98h-1.89v-15.12h6.89v13.14h-4.99Zm0-11.27v3.7h3.08v-3.7h-3.08Zm3.08,9.4v-3.87h-3.08v3.87h3.08Zm13.47,5.15c0,1.17-.26,1.78-1.01,2.09-.77,.35-1.98,.4-3.83,.4-.11-.55-.44-1.47-.75-1.98,1.32,.04,2.66,.02,3.06,.02,.37-.02,.53-.15,.53-.55v-4.4h-5.52c-.46,2.6-1.54,5.21-3.83,7.06-.31-.4-1.1-1.1-1.58-1.36,3.43-2.77,3.76-6.91,3.76-10.25v-7.79h9.17v16.77Zm-2-6.27v-3.41h-5.15v.73c0,.86-.02,1.76-.11,2.68h5.26Zm-5.15-8.6v3.34h5.15v-3.34h-5.15Z" style="fill: #9d8577;"/>
    </g>
    <g>
      <g>
        <path d="M40.5,30.44c.76,1.1,2.21,1.23,3.63,.25,1.08-.75,1.6-1.8,1.54-3.15-.06-1.64-1.13-3.25-2.38-5.49-.69-1.25-1.02-2.33-.95-3.37,.09-1.42,.71-2.57,1.72-3.27,1.21-.84,2.44-.71,3.01,.11,.49,.71,.26,1.64-.54,2.19-.09,.06-.18,.12-.31,.19,.07-.66-.07-1.2-.35-1.62-.5-.73-1.38-.92-2.08-.44-1.14,.79-.89,2.35,.52,4.89,1.02,1.83,2.08,3.33,2.33,5.04,.26,1.92-.58,3.77-2.39,5.02-2.04,1.41-3.99,1.16-5.01-.32-.66-.95-.58-1.92,0-2.32,.43-.3,1-.21,1.21,.1,.34,.49,.28,.97-.06,1.2-.04,.03-.11,.06-.2,.09,.06,.33,.15,.62,.32,.87Z" style="fill: #7c282c;"/>
        <path d="M57.41,16.61c-.63,3.95-1.31,6.17-2.34,6.73-.58,.32-1.22,.09-1.61-.62-.23-.43-.33-1.03-.25-1.67l.25-1.84c.07-.62,.02-1.1-.09-1.3-.15-.27-.38-.37-.62-.24-.43,.23-1.07,1.42-1.5,3.42-.3,1.41-.33,2.74-.18,4.18l-1.62,.98,.52-13.9,1.62-.98-.39,6.59c-.06,.91-.17,2.25-.35,3.99l.14-.04c.42-2.77,1.34-4.46,2.18-4.92,.63-.34,1.2-.16,1.54,.45,.2,.36,.29,1.01,.19,1.85l-.21,1.69c-.09,.73-.02,1.28,.14,1.57,.15,.27,.35,.34,.6,.2,.57-.31,1.25-2.37,1.88-6.17l.1,.03Z" style="fill: #7c282c;"/>
        <path d="M65.73,14.05c-.48,.2-.9,.13-1.35-.23,.24,.85,.18,1.8-.19,2.82-.54,1.5-1.57,2.62-2.66,3.08-1.28,.54-2.3,.1-2.84-1.18-.44-1.04-.27-2.44,.6-3.95,.56-.98,1.36-1.69,2.17-2.03,1.16-.49,2.1-.25,2.76,.71,.46,.68,.85,.95,1.51,.67,.56-.24,.91-.85,1.23-1.85l.11,.03c-.32,1.04-.72,1.67-1.33,1.93Zm-5.53,.93c-.34,1.74-.16,3.21,.15,3.96,.25,.6,.7,.82,1.13,.64,.61-.26,1.04-1.14,1.28-2.65,.25-1.57,.13-2.83-.19-3.59-.26-.61-.67-.83-1.15-.63-.53,.22-.98,1.02-1.22,2.28Z" style="fill: #7c282c;"/>
        <path d="M71.57,5.1l-1.11,4.09c-.24,.92-.52,1.84-.83,2.73l.12,.02c.71-2.09,1.44-3.27,2.55-3.62,.77-.24,1.53,.2,1.83,1.17,.26,.84,.11,1.87-.46,3.08,1.43-.86,2.51-2.17,3.27-3.97l.12,.04c-.77,1.88-1.87,3.2-3.5,4.16-.9,1.52-1.96,2.43-2.91,2.73-.4,.12-.7,0-.79-.3-.21-.69,.69-1.19,2.44-2.04,.42-1.43,.5-2.57,.24-3.41-.18-.58-.54-.83-.94-.71-.67,.21-1.58,1.83-2.28,4.76l-1.95,8.24-1.55,.54,4.12-16.88,1.6-.61Zm-1.13,10c.07,.22,.21,.31,.43,.24,.33-.1,.88-.76,1.38-1.99-1.37,.61-1.98,1.22-1.81,1.75Z" style="fill: #7c282c;"/>
        <path d="M82.25,2.09l-1.51,3.96c-.33,.89-.7,1.78-1.1,2.63l.12,.03c.91-2.01,1.75-3.11,2.9-3.35,.79-.16,1.51,.35,1.71,1.34,.18,.86-.08,1.87-.76,3.02,1.51-.71,2.71-1.91,3.65-3.63l.12,.05c-.96,1.79-2.18,3-3.89,3.79-1.05,1.43-2.19,2.23-3.16,2.43-.41,.08-.7-.08-.76-.38-.14-.71,.8-1.12,2.63-1.79,.56-1.38,.76-2.51,.58-3.37-.12-.6-.46-.88-.86-.8-.69,.14-1.76,1.66-2.74,4.51l-2.76,8-1.59,.38,5.77-16.39,1.65-.45Zm-2.11,9.84c.05,.23,.18,.33,.41,.28,.34-.07,.95-.67,1.57-1.85-1.43,.48-2.09,1.01-1.98,1.56Z" style="fill: #7c282c;"/>
        <path d="M89.07,10.59c-.68,.08-1.16-.31-1.25-1.03-.06-.46,.1-1.1,.45-1.87l1.56-3.49,1.75-.26-2.07,4.46c-.26,.57-.38,1.03-.34,1.4,.03,.21,.23,.39,.5,.36,.75-.09,2.37-1.68,4.29-4.98l.1,.04c-1.99,3.47-3.78,5.22-4.97,5.37Zm3.99-9.78c.06,.5-.32,.96-.8,1.02-.5,.06-.96-.32-1.02-.8-.06-.5,.3-.96,.8-1.02,.5-.06,.96,.3,1.02,.8Z" style="fill: #7c282c;"/>
        <path d="M104.63,4.33c-2.32,3.26-3.91,4.95-5.08,5-.67,.03-1.14-.46-1.17-1.27-.02-.49,.16-1.07,.51-1.61l1.04-1.54c.36-.52,.5-.99,.49-1.25-.01-.27-.2-.46-.47-.45-.47,.02-1.59,.8-2.86,2.42-.86,1.1-1.49,2.29-2,3.65l-1.89,.17,3.39-6.28,1.92-.15-2.14,3.18,.15,.03c1.6-2.3,3.18-3.41,4.13-3.44,.72-.03,1.15,.39,1.18,1.09,.02,.41-.18,.98-.62,1.66l-.97,1.5c-.41,.61-.59,1.12-.57,1.41,.01,.34,.2,.51,.49,.5,.61-.02,2.14-1.56,4.39-4.7l.08,.07Z" style="fill: #7c282c;"/>
        <path d="M101.97,9.85c-1.06-.07-1.71,.56-1.78,1.64-.08,1.24,.74,2.1,1.81,2.17,1.35,.08,3.14-.91,4.72-2.9,1.37-1.74,2.09-2.95,2.53-3.38l-.09-.04c-1.09,1.07-2.06,1.57-2.85,1.52-.99-.06-1.54-.71-1.48-1.75,.06-1.06,.78-2.37,1.95-3.32,1.02-.84,2.2-1.24,3.14-1.18,.88,.05,1.34,.46,1.42,1.24l.43-.8h1.71c-.74,1.21-1.32,2.13-1.74,2.77l-2.23,3.42c2.05-.43,4.05-2.02,6.31-4.66l.1,.08c-2.14,2.63-4.22,4.23-6.57,4.83-2.01,3.03-4.8,4.5-7.73,4.32-1.92-.12-3.02-1.09-2.93-2.43,.07-1.11,1.05-1.83,2.88-1.72,.13,0,.29,.04,.5,.08l-.03,.12s-.05,0-.09,0Zm7.16-2.68c1.08-1.18,1.68-2.64,1.72-3.39,.04-.63-.26-.99-.8-1.02-.49-.03-1.16,.34-1.91,1.13-1.04,1.07-1.65,2.44-1.7,3.32-.04,.68,.28,1.08,.78,1.11,.49,.03,1.17-.34,1.91-1.14Z" style="fill: #7c282c;"/>
        <path d="M133.06,7.39c-3.1,2.54-5.07,3.75-6.21,3.49-.65-.15-.98-.74-.79-1.53,.11-.47,.43-.99,.92-1.42l1.41-1.21c.48-.41,.74-.83,.8-1.07,.06-.26-.07-.5-.33-.56-.46-.1-1.74,.36-3.39,1.59-1.12,.83-2.04,1.82-2.89,3l-1.86-.34,4.92-5.17,1.89,.36-2.9,2.51,.13,.07c2.15-1.8,3.96-2.45,4.89-2.24,.7,.16,1.01,.67,.85,1.36-.09,.4-.43,.9-1.03,1.44l-1.33,1.19c-.55,.48-.86,.93-.92,1.21-.08,.33,.06,.55,.34,.61,.6,.14,2.47-.95,5.47-3.38l.05,.09Z" style="fill: #7c282c;"/>
        <path d="M141.01,11.01c-.49-.17-.76-.5-.85-1.07-.39,.8-1.07,1.46-2.02,1.98-1.4,.76-2.91,.92-4.04,.54-1.31-.44-1.79-1.46-1.34-2.77,.36-1.08,1.42-2.01,3.07-2.56,1.07-.36,2.14-.36,2.97-.08,1.19,.4,1.74,1.21,1.6,2.36-.11,.82,0,1.28,.69,1.51,.58,.2,1.25-.04,2.15-.57l.06,.1c-.93,.56-1.65,.77-2.28,.56Zm-4.75-2.98c-1.41,1.08-2.26,2.3-2.52,3.06-.21,.61-.02,1.08,.42,1.23,.63,.21,1.54-.16,2.72-1.13,1.23-1.01,1.98-2.03,2.24-2.82,.21-.63,.06-1.06-.44-1.23-.55-.18-1.41,.11-2.43,.89Z" style="fill: #7c282c;"/>
        <path d="M142.57,15.17c-.76-.33-1-.9-.72-1.57,.19-.45,.7-.97,1.5-1.57l2.78-2.07-1.22-.53,.19-.13,1.24,.54,1.88-1.35,1.7,.62-2,1.41,1.98,.86-.21,.12-2-.86-3.17,2.3c-.89,.66-1.41,1.22-1.55,1.55-.13,.3-.04,.51,.24,.63,.84,.36,3.14-.19,6.43-2.17l.07,.11c-3.37,2.04-5.76,2.71-7.13,2.12Z" style="fill: #7c282c;"/>
        <path d="M148.61,17.58c-.61-.31-.79-.91-.46-1.55,.21-.42,.7-.86,1.41-1.3l3.24-2.03,1.6,.75-4.21,2.54c-.53,.33-.89,.64-1.06,.97-.1,.19-.03,.45,.21,.57,.67,.34,2.91-.07,6.34-1.74l.06,.09c-3.59,1.77-6.05,2.23-7.12,1.68Zm8.77-5.9c-.23,.45-.8,.62-1.24,.4-.45-.23-.62-.8-.4-1.24,.23-.45,.79-.63,1.24-.4,.45,.23,.63,.79,.4,1.23Z" style="fill: #7c282c;"/>
        <path d="M161.2,17.85c.26-.43,.22-.75-.12-.95-.35-.21-1.23-.26-2.34,.14-1.18,.42-2.04,1.06-2.48,1.8-.54,.89-.34,1.73,.48,2.23,1.26,.77,3.67,.61,6.93-.76l.05,.09c-3.56,1.56-6.51,1.6-8.11,.63-1.17-.71-1.47-1.78-.81-2.85,.56-.92,1.58-1.53,3.02-1.75,1.49-.23,2.86,.04,3.77,.59,.86,.52,1.11,1.18,.74,1.8s-1.22,.8-2.01,.32c-.05-.03-.14-.08-.27-.18,.55-.42,.95-.77,1.15-1.09Z" style="fill: #7c282c;"/>
        <path d="M163.12,25.48c-.96-.7-1.16-1.88-.49-2.8s1.93-1.53,3.48-1.6c1.29-.06,2.54,.3,3.3,.86,.78,.58,.99,1.26,.62,1.77-.66,.9-2.46,.58-5.53-.74-.11,.12-.24,.23-.34,.37-.65,.89-.54,1.75,.25,2.33,1.09,.8,3.57,.92,7-.13l.04,.1c-3.75,1.22-6.68,1.04-8.32-.17Zm6.05-2.88c.19-.26,.14-.5-.1-.68-.61-.45-2.62-.41-4.47,.94,2.18,.86,4.01,.51,4.57-.26Z" style="fill: #7c282c;"/>
      </g>
      <g>
        <g>
          <line x1="3.55" y1="43.52" x2="209.74" y2="43.52" style="fill: none; stroke: #7c282c; stroke-miterlimit: 10; stroke-width: 2px;"/>
          <line x1="3.55" y1="39.28" x2="209.74" y2="39.28" style="fill: none; stroke: #7c282c; stroke-miterlimit: 10;"/>
        </g>
        <g>
          <rect y="44.28" width="3.64" height="3.64" transform="translate(3.64 92.19) rotate(180)" style="fill: #7c282c;"/>
          <rect x="209.74" y="44.37" width="3.64" height="3.64" transform="translate(423.12 92.39) rotate(180)" style="fill: #7c282c;"/>
        </g>
      </g>
      <g>
        <g>
          <line x1="209.83" y1="108.57" x2="3.64" y2="108.57" style="fill: none; stroke: #7c282c; stroke-miterlimit: 10; stroke-width: 2px;"/>
          <line x1="209.83" y1="112.81" x2="3.64" y2="112.81" style="fill: none; stroke: #7c282c; stroke-miterlimit: 10;"/>
        </g>
        <g>
          <rect x="209.74" y="104.17" width="3.64" height="3.64" style="fill: #7c282c;"/>
          <rect y="104.08" width="3.64" height="3.64" style="fill: #7c282c;"/>
        </g>
      </g>
    </g>
  </g>
</svg>