<?xml version="1.0" encoding="UTF-8"?>
<svg id="b" data-name="圖層 2" xmlns="http://www.w3.org/2000/svg" width="389.69" height="205.18" viewBox="0 0 389.69 205.18">
  <g id="c" data-name="圖層 1">
    <g>
      <path d="M120.67,149.28c-.9,2.95-2.45,5.9-4.07,7.81-.58-.5-1.84-1.33-2.52-1.73,1.62-1.69,2.95-4.21,3.63-6.8l2.95,.72Zm5.76-1.26h-10.47v-22.68h10.47v22.68Zm-3.02-19.94h-4.54v3.99h4.54v-3.99Zm0,6.55h-4.54v4.07h4.54v-4.07Zm0,6.59h-4.54v4.1h4.54v-4.1Zm1.19,7.31c1.15,1.76,2.41,4.1,2.99,5.65l-2.63,1.26c-.47-1.55-1.76-4.03-2.88-5.83l2.52-1.08Zm22.82,2.7h-1.91v2.59c0,1.48-.32,2.27-1.37,2.74-1.08,.47-2.74,.47-5.22,.47-.11-.76-.5-1.94-.9-2.7,1.66,.07,3.31,.07,3.78,.04,.5,0,.61-.14,.61-.57v-2.56h-10.4v5.87h-2.99v-5.87h-2.12v-2.45h2.12v-9.11h6.62v-1.73h-8.6v-2.48h4.86v-1.91h-3.24v-2.38h3.24v-1.76h-4.14v-2.48h4.14v-2.92h2.95v2.92h4.61v-2.92h2.99v2.92h4.14v2.48h-4.14v1.76h3.56v2.38h-3.56v1.91h4.9v2.48h-8.75v1.73h6.91v9.11h1.91v2.45Zm-15.41-9.07v2.12h3.63v-2.12h-3.63Zm0,6.62h3.63v-2.3h-3.63v2.3Zm2.84-17.6h4.61v-1.76h-4.61v1.76Zm0,4.28h4.61v-1.91h-4.61v1.91Zm3.74,6.7v2.12h3.82v-2.12h-3.82Zm3.82,6.62v-2.3h-3.82v2.3h3.82Z" style="fill: #a28978;"/>
      <path d="M171.32,142.81c-1.4,.47-2.81,.9-4.21,1.33v12.89h-3.1v-11.91l-5.65,1.73-.86-3.21c1.8-.47,4.07-1.08,6.51-1.76v-7.56h-2.88c-.43,1.91-.94,3.64-1.48,5-.54-.43-1.76-1.15-2.45-1.51,1.26-2.92,1.91-7.45,2.27-11.73l2.84,.47c-.18,1.55-.36,3.1-.61,4.61h2.3v-7.13h3.1v7.13h3.35v3.17h-3.35v6.62l3.78-1.08,.43,2.95Zm19.08-13s0,1.15-.04,1.58c-.79,16.16-1.48,21.85-2.88,23.61-.76,1.08-1.48,1.4-2.63,1.58-.97,.18-2.48,.14-4.07,.07-.04-.97-.4-2.34-.94-3.28,1.51,.14,2.84,.14,3.53,.14,.58,0,.94-.14,1.29-.65,1.04-1.19,1.8-6.3,2.45-19.98h-1.01c-1.84,9.29-5.69,18.75-11.52,23.43-.65-.61-1.84-1.48-2.77-1.98,5.79-4.14,9.57-12.74,11.38-21.45h-2.41c-1.58,6.05-4.72,12.63-8.53,16.02-.61-.61-1.69-1.44-2.59-1.91,3.71-2.88,6.66-8.57,8.31-14.11h-2.55c-1.12,2.59-2.41,4.86-3.89,6.62-.54-.47-1.87-1.47-2.59-1.91,2.92-3.17,4.97-8.28,6.16-13.61l3.02,.58c-.4,1.8-.94,3.56-1.48,5.22h13.75Z" style="fill: #a28978;"/>
      <path d="M230.25,153.57c.65,0,.79-.5,.9-4.1,.65,.58,2.02,1.12,2.88,1.33-.32,4.64-1.15,5.83-3.38,5.83h-2.7c-2.81,0-3.42-.97-3.42-4.07v-7.99h-2.38c-.54,5.65-1.94,10.11-7.49,12.67-.32-.79-1.26-1.98-1.94-2.59,4.72-1.98,5.76-5.58,6.19-10.08h-2.74v-10.19c-.5,.58-1.04,1.12-1.51,1.55-.54-.61-1.8-1.76-2.48-2.34,.32-.29,.65-.58,.97-.9h-12.31v-2.66h12.6v2.41c2.2-2.12,4.21-5.04,5.47-7.96l3.1,.97c-1.3,2.92-3.13,5.8-5.11,8.17h13.43c-1.66-2.52-4.07-5.54-6.19-7.92l2.3-1.58c2.81,2.99,6.16,6.98,7.6,9.65l-2.56,1.84c-.29-.61-.68-1.26-1.15-1.95v10.91h-2.56v7.96c0,.94,.11,1.04,.72,1.04h1.76Zm-17.67,1.4h-7.45v1.62h-2.92v-12.17h10.37v10.55Zm-.4-17.53h-9.9v-2.63h9.9v2.63Zm-9.9,2.12h9.9v2.59h-9.9v-2.59Zm4.32-9.57c-.32-1.3-1.22-3.35-2.02-4.82l2.84-.94c.83,1.44,1.73,3.38,2.12,4.68l-2.95,1.08Zm-1.48,17.13v5.15h4.64v-5.15h-4.64Zm14.22-5.47h7.67v-5.08h-7.67v5.08Z" style="fill: #a28978;"/>
      <path d="M248.54,147.59v3.24h-3.1v-24.73h11.27v21.49h-8.17Zm0-18.43v6.05h5.04v-6.05h-5.04Zm5.04,15.37v-6.33h-5.04v6.33h5.04Zm22.03,8.42c0,1.91-.43,2.92-1.66,3.42-1.26,.57-3.24,.65-6.26,.65-.18-.9-.72-2.41-1.22-3.24,2.16,.07,4.36,.04,5,.04,.61-.04,.86-.25,.86-.9v-7.2h-9.04c-.76,4.25-2.52,8.53-6.26,11.55-.5-.65-1.8-1.8-2.59-2.23,5.62-4.54,6.16-11.3,6.16-16.78v-12.74h15.01v27.43Zm-3.28-10.26v-5.58h-8.42v1.19c0,1.4-.04,2.88-.18,4.39h8.6Zm-8.42-14.07v5.47h8.42v-5.47h-8.42Z" style="fill: #a28978;"/>
    </g>
    <g>
      <g>
        <g>
          <line x1="7.64" y1="80.17" x2="383.07" y2="80.17" style="fill: none; stroke: #89202a; stroke-miterlimit: 10; stroke-width: 3.05px;"/>
          <line x1="7.64" y1="72.45" x2="383.07" y2="72.45" style="fill: none; stroke: #89202a; stroke-miterlimit: 10; stroke-width: 1.02px;"/>
        </g>
        <g>
          <rect x="1.18" y="81.55" width="6.62" height="6.62" transform="translate(8.98 169.73) rotate(180)" style="fill: #89202a;"/>
          <rect x="383.07" y="81.73" width="6.62" height="6.62" transform="translate(772.76 170.08) rotate(180)" style="fill: #89202a;"/>
        </g>
      </g>
      <g>
        <g>
          <line x1="382.05" y1="196.95" x2="6.62" y2="196.95" style="fill: none; stroke: #89202a; stroke-miterlimit: 10; stroke-width: 3.05px;"/>
          <line x1="382.05" y1="204.67" x2="6.62" y2="204.67" style="fill: none; stroke: #89202a; stroke-miterlimit: 10; stroke-width: 1.02px;"/>
        </g>
        <g>
          <rect x="381.89" y="188.95" width="6.62" height="6.62" style="fill: #89202a;"/>
          <rect y="188.77" width="6.62" height="6.62" style="fill: #89202a;"/>
        </g>
      </g>
      <g>
        <path d="M85.27,46.4c1.14,1.91,3.54,2.29,6.01,.81,1.88-1.12,2.85-2.83,2.91-5.07,.07-2.74-1.52-5.52-3.35-9.39-1.01-2.16-1.45-3.99-1.21-5.71,.31-2.35,1.47-4.2,3.22-5.25,2.11-1.26,4.14-.91,4.99,.51,.74,1.24,.25,2.75-1.14,3.59-.15,.09-.31,.18-.53,.28,.19-1.09,.02-2.01-.41-2.73-.76-1.26-2.2-1.69-3.41-.97-1.98,1.19-1.74,3.81,.33,8.2,1.5,3.16,3.1,5.77,3.32,8.64,.22,3.23-1.38,6.21-4.53,8.09-3.55,2.13-6.76,1.5-8.3-1.08-.99-1.65-.76-3.25,.25-3.85,.75-.45,1.68-.23,2,.31,.51,.85,.35,1.64-.24,2-.08,.05-.2,.08-.34,.13,.06,.56,.17,1.05,.44,1.49Z" style="fill: #89202a;"/>
        <path d="M114.78,25.19c-1.43,6.52-2.77,10.14-4.53,10.98-1,.48-2.04,.04-2.62-1.18-.35-.73-.46-1.74-.26-2.8l.59-3.03c.18-1.02,.13-1.82-.03-2.17-.22-.46-.6-.64-1.01-.45-.73,.35-1.91,2.27-2.81,5.55-.63,2.32-.81,4.53-.7,6.94l-2.78,1.49,2.18-23.08,2.78-1.48-1.27,10.92c-.18,1.51-.49,3.72-.96,6.6l.24-.05c.96-4.57,2.65-7.3,4.09-7.98,1.08-.51,2.02-.16,2.52,.9,.29,.62,.38,1.71,.14,3.09l-.5,2.79c-.23,1.2-.15,2.13,.08,2.62,.22,.46,.55,.6,.98,.4,.98-.46,2.31-3.82,3.72-10.09l.16,.06Z" style="fill: #89202a;"/>
        <path d="M128.83,21.69c-.82,.3-1.51,.14-2.23-.5,.34,1.44,.14,3.01-.56,4.68-1.02,2.45-2.83,4.23-4.69,4.91-2.17,.79-3.84-.03-4.64-2.2-.65-1.77-.25-4.09,1.32-6.52,1.02-1.59,2.4-2.7,3.78-3.2,1.97-.72,3.52-.24,4.54,1.4,.72,1.17,1.34,1.65,2.47,1.24,.96-.35,1.58-1.35,2.2-2.98l.18,.06c-.62,1.7-1.33,2.72-2.38,3.11Zm-9.28,1.1c-.7,2.88-.54,5.34-.07,6.61,.37,1.01,1.1,1.42,1.83,1.15,1.04-.38,1.83-1.82,2.35-4.31,.55-2.6,.45-4.7-.02-6-.38-1.04-1.04-1.44-1.86-1.14-.9,.33-1.71,1.62-2.23,3.69Z" style="fill: #89202a;"/>
        <path d="M139.16,7.26l-2.12,6.74c-.46,1.52-1,3.03-1.57,4.48l.2,.04c1.33-3.42,2.62-5.35,4.5-5.85,1.3-.35,2.54,.44,2.97,2.07,.38,1.42,.05,3.12-.97,5.1,2.44-1.33,4.33-3.44,5.72-6.39l.21,.07c-1.42,3.08-3.34,5.2-6.11,6.68-1.61,2.47-3.43,3.92-5.02,4.34-.67,.18-1.17-.06-1.3-.56-.31-1.16,1.22-1.94,4.2-3.22,.8-2.35,1.02-4.24,.64-5.66-.26-.99-.84-1.42-1.51-1.24-1.13,.3-2.76,2.93-4.12,7.76l-3.81,13.58-2.62,.79,8.01-27.82,2.71-.91Zm-2.56,16.57c.1,.38,.33,.53,.71,.43,.55-.15,1.51-1.21,2.43-3.22-2.33,.93-3.38,1.89-3.14,2.79Z" style="fill: #89202a;"/>
        <path d="M157.09,2.96l-2.73,6.52c-.6,1.47-1.27,2.92-1.97,4.32l.19,.06c1.63-3.29,3.09-5.09,5.01-5.41,1.33-.23,2.49,.67,2.77,2.33,.25,1.45-.23,3.11-1.43,4.99,2.55-1.1,4.63-3.04,6.28-5.84l.2,.09c-1.69,2.93-3.8,4.87-6.69,6.09-1.83,2.32-3.77,3.59-5.4,3.87-.68,.12-1.16-.17-1.24-.67-.2-1.18,1.39-1.82,4.48-2.83,1.01-2.27,1.4-4.13,1.15-5.58-.17-1.01-.71-1.49-1.39-1.38-1.15,.2-3.01,2.67-4.8,7.36l-5.04,13.18-2.68,.54,10.51-26.98,2.78-.65Zm-4.05,16.27c.07,.38,.28,.56,.66,.5,.56-.1,1.62-1.07,2.72-2.99-2.4,.71-3.54,1.57-3.38,2.49Z" style="fill: #89202a;"/>
        <path d="M167.95,17.51c-1.13,.11-1.92-.57-2.03-1.77-.07-.78,.22-1.83,.82-3.09l2.74-5.74,2.92-.37-3.65,7.33c-.45,.95-.68,1.69-.63,2.32,.03,.36,.36,.66,.81,.62,1.25-.12,4.02-2.7,7.37-8.1l.16,.08c-3.47,5.69-6.52,8.54-8.52,8.72Zm7.07-16.12c.08,.84-.57,1.59-1.38,1.67-.84,.08-1.59-.57-1.67-1.38-.08-.84,.54-1.59,1.38-1.67,.84-.08,1.59,.54,1.67,1.38Z" style="fill: #89202a;"/>
        <path d="M194.13,7.69c-3.97,5.36-6.68,8.12-8.63,8.16-1.11,.02-1.88-.8-1.9-2.15-.02-.81,.29-1.78,.91-2.66l1.78-2.53c.61-.85,.87-1.64,.86-2.06,0-.45-.32-.77-.77-.77-.78,.02-2.67,1.29-4.84,3.94-1.46,1.8-2.56,3.77-3.45,6.01l-3.15,.21,5.85-10.35,3.21-.19-3.67,5.24,.24,.06c2.74-3.78,5.41-5.57,7-5.6,1.2-.02,1.91,.68,1.93,1.85,.01,.69-.33,1.63-1.08,2.75l-1.66,2.46c-.7,1-1.01,1.85-1,2.33,.01,.57,.32,.86,.8,.85,1.02-.02,3.61-2.53,7.47-7.68l.12,.12Z" style="fill: #89202a;"/>
        <path d="M189.55,16.9c-1.77-.13-2.86,.91-2.99,2.7-.15,2.07,1.19,3.52,2.98,3.65,2.24,.16,5.25-1.46,7.92-4.75,2.31-2.87,3.54-4.89,4.29-5.58l-.14-.07c-1.84,1.76-3.47,2.58-4.78,2.48-1.64-.12-2.56-1.21-2.43-2.94,.13-1.77,1.34-3.93,3.32-5.5,1.72-1.38,3.7-2.02,5.25-1.91,1.47,.11,2.23,.79,2.34,2.09l.73-1.33,2.86,.03c-1.26,2.01-2.24,3.54-2.95,4.6l-3.78,5.65c3.42-.68,6.8-3.3,10.6-7.65l.17,.13c-3.62,4.34-7.12,6.97-11.04,7.92-3.4,5.02-8.09,7.42-12.96,7.06-3.2-.23-5.01-1.87-4.85-4.11,.13-1.86,1.78-3.03,4.83-2.81,.21,.02,.48,.07,.83,.15l-.04,.21c-.06,0-.09,0-.15-.01Zm11.99-4.34c1.82-1.94,2.84-4.37,2.93-5.62,.08-1.05-.42-1.66-1.32-1.72-.81-.06-1.93,.55-3.2,1.84-1.75,1.77-2.79,4.04-2.89,5.5-.08,1.14,.44,1.81,1.28,1.87,.81,.06,1.96-.55,3.21-1.87Z" style="fill: #89202a;"/>
        <path d="M241.42,13.15c-5.15,4.24-8.44,6.26-10.34,5.83-1.08-.25-1.63-1.23-1.33-2.55,.18-.79,.72-1.65,1.52-2.36l2.34-2.02c.8-.68,1.24-1.38,1.33-1.79,.1-.44-.12-.83-.56-.93-.76-.17-2.91,.6-5.65,2.65-1.86,1.39-3.4,3.04-4.8,5l-3.1-.55,8.18-8.63,3.16,.6-4.83,4.19,.22,.11c3.58-3,6.6-4.1,8.15-3.74,1.17,.27,1.68,1.12,1.42,2.26-.15,.67-.71,1.5-1.72,2.41l-2.21,1.99c-.92,.8-1.43,1.55-1.54,2.02-.13,.56,.1,.92,.57,1.02,.99,.23,4.12-1.58,9.1-5.65l.09,.14Z" style="fill: #89202a;"/>
        <path d="M254.64,19.08c-.83-.27-1.28-.83-1.44-1.76-.63,1.34-1.75,2.46-3.33,3.33-2.32,1.29-4.84,1.58-6.72,.96-2.2-.72-3-2.4-2.29-4.6,.59-1.8,2.33-3.37,5.07-4.31,1.78-.62,3.55-.64,4.95-.18,2,.65,2.92,1.99,2.7,3.91-.16,1.37,.03,2.12,1.17,2.5,.97,.32,2.08-.08,3.57-.98l.11,.16c-1.54,.95-2.73,1.32-3.79,.97Zm-7.97-4.87c-2.33,1.83-3.72,3.87-4.14,5.15-.33,1.03-.02,1.79,.72,2.04,1.06,.34,2.56-.3,4.51-1.94,2.04-1.7,3.26-3.42,3.69-4.73,.34-1.05,.07-1.77-.75-2.04-.91-.3-2.34,.21-4.03,1.52Z" style="fill: #89202a;"/>
        <path d="M257.3,26c-1.28-.53-1.7-1.48-1.24-2.59,.31-.75,1.13-1.64,2.46-2.65l4.57-3.53-2.05-.85,.32-.22,2.08,.86,3.09-2.3,2.84,.98-3.3,2.41,3.33,1.37-.35,.21-3.36-1.38-5.22,3.92c-1.47,1.12-2.31,2.07-2.54,2.62-.21,.5-.06,.85,.41,1.05,1.41,.58,5.23-.41,10.65-3.79l.12,.18c-5.56,3.48-9.52,4.67-11.83,3.72Z" style="fill: #89202a;"/>
        <path d="M267.46,29.87c-1.03-.5-1.35-1.48-.83-2.56,.34-.7,1.13-1.45,2.3-2.22l5.32-3.49,2.69,1.2-6.92,4.39c-.88,.58-1.46,1.09-1.74,1.66-.16,.32-.03,.75,.38,.95,1.13,.55,4.84-.23,10.5-3.12l.1,.15c-5.91,3.07-9.99,3.93-11.8,3.06Zm14.39-10.14c-.37,.76-1.31,1.06-2.04,.71-.76-.37-1.06-1.31-.71-2.04,.37-.76,1.29-1.08,2.04-.71s1.08,1.29,.71,2.04Z" style="fill: #89202a;"/>
        <path d="M288.42,29.83c.42-.73,.34-1.26-.24-1.59-.6-.34-2.06-.38-3.89,.34-1.95,.75-3.34,1.86-4.06,3.11-.86,1.51-.48,2.9,.9,3.69,2.14,1.22,6.15,.85,11.51-1.58l.08,.15c-5.86,2.77-10.78,2.97-13.49,1.42-1.98-1.13-2.53-2.89-1.49-4.72,.89-1.56,2.56-2.61,4.95-3.05,2.47-.46,4.78-.07,6.31,.8,1.46,.83,1.91,1.92,1.32,2.96-.6,1.04-2,1.38-3.33,.62-.08-.04-.23-.13-.45-.29,.9-.73,1.55-1.33,1.86-1.87Z" style="fill: #89202a;"/>
        <path d="M291.97,42.47c-1.64-1.11-2.05-3.07-.99-4.63s3.12-2.67,5.7-2.87c2.15-.17,4.26,.36,5.55,1.24,1.34,.91,1.73,2.05,1.14,2.92-1.05,1.54-4.06,1.12-9.26-.9-.18,.21-.38,.4-.55,.64-1.03,1.51-.8,2.94,.56,3.87,1.86,1.27,6,1.33,11.65-.63l.07,.16c-6.18,2.25-11.06,2.12-13.87,.21Zm9.9-5.16c.3-.45,.21-.84-.21-1.12-1.04-.71-4.4-.53-7.38,1.83,3.68,1.31,6.7,.61,7.6-.71Z" style="fill: #89202a;"/>
      </g>
    </g>
  </g>
</svg>