<?xml version="1.0" encoding="UTF-8"?>
<svg id="b" data-name="圖層 2" xmlns="http://www.w3.org/2000/svg" width="267.79" height="71.62" viewBox="0 0 267.79 71.62">
  <g id="c" data-name="圖層 1">
    <g>
      <g>
        <g>
          <path d="M130.27,5.85s-12.84-8.13-19.21-3.34c-1.7,1.28-2.13,3.43-.91,5.16,1.57,2.23,7.52,4.19,18.64,2.41" style="fill: none; stroke: #c7ba99; stroke-miterlimit: 10; stroke-width: 2px;"/>
          <path d="M137.52,5.85s12.84-8.13,19.21-3.34c1.7,1.28,2.13,3.43,.91,5.16-1.57,2.23-7.52,4.19-18.64,2.41" style="fill: none; stroke: #c7ba99; stroke-miterlimit: 10; stroke-width: 2px;"/>
          <path d="M137.52,5.85s12.84-8.13,19.21-3.34c1.7,1.28,2.13,3.43,.91,5.16-1.57,2.23-7.52,4.19-18.64,2.41" style="fill: none; stroke: #89202a; stroke-miterlimit: 10; stroke-width: .5px;"/>
          <line x1="133.87" y1="5.02" x2="133.87" y2="10.77" style="fill: none; stroke: #c7ba99; stroke-linecap: round; stroke-linejoin: round; stroke-width: 1.5px;"/>
          <line x1="135.94" y1="5.02" x2="135.94" y2="10.77" style="fill: none; stroke: #c7ba99; stroke-linecap: round; stroke-linejoin: round; stroke-width: 1.5px;"/>
          <line x1="131.81" y1="5.02" x2="131.81" y2="10.77" style="fill: none; stroke: #c7ba99; stroke-linecap: round; stroke-linejoin: round; stroke-width: 1.5px;"/>
          <path d="M130.27,5.85s-12.84-8.13-19.21-3.34c-1.7,1.28-2.13,3.43-.91,5.16,1.57,2.23,7.52,4.19,18.64,2.41" style="fill: none; stroke: #89202a; stroke-miterlimit: 10; stroke-width: .5px;"/>
          <g>
            <line x1="133.87" y1="5.02" x2="133.87" y2="10.77" style="fill: none; stroke: #89202a; stroke-miterlimit: 10; stroke-width: .5px;"/>
            <line x1="135.94" y1="5.02" x2="135.94" y2="10.77" style="fill: none; stroke: #89202a; stroke-miterlimit: 10; stroke-width: .5px;"/>
            <line x1="131.81" y1="5.02" x2="131.81" y2="10.77" style="fill: none; stroke: #89202a; stroke-miterlimit: 10; stroke-width: .5px;"/>
          </g>
        </g>
        <g>
          <line x1=".5" y1="65.53" x2=".5" y2="26.68" style="fill: none; stroke: #a28978; stroke-miterlimit: 10;"/>
          <line x1="267.29" y1="65.53" x2="267.29" y2="26.68" style="fill: none; stroke: #a28978; stroke-miterlimit: 10;"/>
          <line x1="266.95" y1="71.12" x2=".95" y2="71.12" style="fill: none; stroke: #a28978; stroke-miterlimit: 10;"/>
          <line x1="266.95" y1="21.12" x2=".95" y2="21.12" style="fill: none; stroke: #a28978; stroke-miterlimit: 10;"/>
        </g>
      </g>
      <g>
        <path d="M44.2,45.61c-.55,2.26-1.37,4.61-2.33,6.43,.38,.24,.84,.58,1.44,.96,1.66,1.01,3.84,1.15,6.62,1.15,2.93,0,6.96-.22,9.62-.55-.26,.62-.65,1.7-.67,2.3-1.85,.12-6.19,.26-9.02,.26-3.14,0-5.18-.26-6.94-1.27-.96-.55-1.82-1.39-2.33-1.39s-1.37,1.56-1.99,3.02l-1.51-2.09c.98-1.3,1.99-2.33,2.86-2.71,.65-1.25,1.27-2.9,1.68-4.51h-3.26c.6-1.39,1.32-3.29,1.97-5.14h-2.88v-2.02h5.59c-.55,1.66-1.27,3.58-1.9,5.21h1.7l.34-.1,1.01,.43Zm-3.98-6.43c-.29-1.03-.89-2.67-1.27-3.91l2.04-.55c.43,1.2,1.01,2.76,1.32,3.77l-2.09,.7Zm11.86,10.01c-.02,.58,.02,1.44,.1,1.9-5.16,1.25-5.98,1.51-6.53,1.85-.14-.5-.55-1.34-.86-1.75,.38-.22,.86-.62,.86-1.58v-14.23h1.42v-.02h9.91v9.02l.12-.12,1.7,1.37c-1.15,.82-2.47,1.7-3.67,2.38,1.32,1.15,2.5,2.28,3.29,3.22l-1.66,1.3c-1.39-1.8-4.44-4.56-6.96-6.41l1.51-1.13c.77,.58,1.58,1.2,2.42,1.85,1.06-.7,2.28-1.61,3.12-2.35h-9v5.64l4.22-.91Zm2.74-11.95h-6.96v1.8h6.96v-1.8Zm0,5.33v-1.85h-6.96v1.85h6.96Z" style="fill: #a28978;"/>
        <path d="M95.59,50.84c-.91,2.78-2.95,4.58-7.66,5.59-.19-.53-.7-1.32-1.1-1.75,3.84-.7,5.59-1.92,6.48-3.84h-5.76v-1.8h1.87v-6.98c-.14,.12-.29,.26-.43,.38-.26-.43-.84-1.13-1.3-1.46v.14h-2.23v4.06l2.11-.67,.36,1.99-2.47,.84v6.36c0,1.13-.22,1.78-.84,2.14-.67,.36-1.61,.46-3.07,.46-.05-.58-.31-1.56-.6-2.18,.89,.02,1.73,.02,1.99,.02,.29,0,.38-.1,.38-.41v-5.64c-.84,.29-1.68,.55-2.4,.79l-.55-2.14c.84-.24,1.85-.53,2.95-.86v-4.75h-2.66v-2.06h2.66v-4.68h2.14v4.68h2.23v1.85c2.33-1.87,3.82-4.44,4.58-6.5l2.09,.31c-.19,.5-.43,1.01-.67,1.51h3.36l.34-.07,1.32,.84c-.46,.98-1.18,2.14-1.82,3.12h4.2v8.93h1.49v1.8h-6.98Zm-2.88-12.84c-.43,.72-.91,1.42-1.46,2.11h3.5c.43-.62,.89-1.37,1.25-2.11h-3.29Zm1.15,11.04c.14-.65,.22-1.39,.29-2.18h2.16c-.07,.77-.17,1.51-.29,2.18h3.17v-3.24l-.89,1.06c-.7-.7-1.99-1.63-3.17-2.38-.72,.96-1.58,1.82-2.4,2.47-.31-.29-1.03-.82-1.44-1.03,1.42-.96,2.69-2.42,3.41-4.01h-3.43v7.13h2.59Zm5.33-7.13h-3.19l.55,.14c-.17,.41-.38,.79-.62,1.2,1.18,.67,2.5,1.56,3.26,2.23v-3.58Zm-1.92,8.95c1.78,1.27,4.25,3.12,5.5,4.22l-1.44,1.42c-1.18-1.15-3.6-3.07-5.4-4.44l1.34-1.2Z" style="fill: #a28978;"/>
        <path d="M128.16,39.06c-.91,.6-1.82,1.18-2.74,1.63-.34-.43-1.13-1.22-1.61-1.61,2.57-1.1,5.3-2.93,6.91-4.85l1.99,.77c-.67,.86-1.51,1.68-2.42,2.42v4.83h-2.14v-3.19Zm4.99,14.42c-1.94,1.18-4.97,2.33-7.37,3-.38-.46-1.18-1.27-1.68-1.68,2.47-.48,5.33-1.32,6.98-2.26l2.06,.94Zm5.42-.96c2.45,.82,5.09,1.82,6.72,2.59l-1.92,1.27c-1.46-.79-4.01-1.9-6.48-2.74l1.37-1.13h-11.14v-9.65h15.65v9.65h-4.2Zm-9.29-6.86h11.26v-1.37h-11.26v1.37Zm0,2.69h11.26v-1.34h-11.26v1.34Zm0,2.76h11.26v-1.39h-11.26v1.39Zm8.23-9.05c-2.47,0-3.1-.84-3.1-2.93v-4.68h2.23v1.8h7.46v1.8h-7.46v1.1c0,.77,.17,1.08,1.03,1.08h4.8c.77,0,1.99-.07,2.52-.17,.07,.62,.14,1.32,.24,1.82-.53,.12-1.63,.17-2.62,.17h-5.11Z" style="fill: #a28978;"/>
        <path d="M176.32,40.54c-.07,1.13-.14,2.28-.29,3.41h10.2s-.02,.7-.1,1.01c-.46,6.62-.91,9.26-1.87,10.25-.65,.65-1.27,.84-2.28,.94-.89,.07-2.45,.05-4.06-.05-.02-.65-.34-1.56-.79-2.18,1.7,.14,3.34,.17,4.01,.17,.53,0,.84-.05,1.15-.29,.67-.55,1.1-2.78,1.49-7.68h-8.09c-.77,4.13-2.52,7.99-6.96,10.39-.34-.6-1.03-1.37-1.63-1.82,5.95-3.02,6.5-8.86,6.75-14.14h-6.29v-2.18h10.27c-.31-.96-.96-2.33-1.51-3.36l2.18-.82c.62,1.08,1.37,2.52,1.7,3.48l-1.61,.7h9.87v2.18h-12.15Z" style="fill: #a28978;"/>
        <path d="M225.09,40.83c.53,7.56,2.21,13.27,4.3,13.27,.58,0,.86-1.3,1.01-4.42,.5,.53,1.34,1.06,1.97,1.27-.38,4.32-1.18,5.5-3.17,5.5-3.96,0-5.86-6.98-6.46-15.63h-12.17v-2.18h12.02c-.05-1.37-.1-2.76-.1-4.15h2.4c-.02,1.39,0,2.81,.05,4.15h6.89v2.18h-6.75Zm-7.44,11.33c1.58-.29,3.22-.62,4.82-.96l.17,2.02c-3.98,.91-8.28,1.85-11.35,2.52l-.65-2.26c1.3-.22,2.95-.53,4.78-.86v-6.43h-3.98v-2.16h10.42v2.16h-4.2v5.98Zm10.01-17.67c1.18,.77,2.64,1.94,3.34,2.76l-1.56,1.39c-.67-.84-2.06-2.09-3.24-2.93l1.46-1.22Z" style="fill: #a28978;"/>
      </g>
    </g>
  </g>
</svg>