<?xml version="1.0" encoding="UTF-8"?>
<svg id="b" data-name="圖層 2" xmlns="http://www.w3.org/2000/svg" width="911.61" height="122.95" viewBox="0 0 911.61 122.95">
  <g id="c" data-name="圖層 1">
    <g>
      <g>
        <g>
          <rect x="827.72" y="12.26" width="55.77" height="55.77" transform="translate(222.21 616.76) rotate(-45)" style="fill: none; stroke: #8a202a; stroke-miterlimit: 10;"/>
          <g>
            <path d="M841.45,40.04c0-5.1,1.78-7.56,4.58-7.56s4.56,2.48,4.56,7.56-1.78,7.64-4.56,7.64-4.58-2.54-4.58-7.64Zm7.36,0c0-4.28-1.12-6.08-2.78-6.08s-2.8,1.8-2.8,6.08,1.12,6.18,2.8,6.18,2.78-1.86,2.78-6.18Z" style="fill: #8a202a;"/>
            <path d="M856.15,45.68l.92-1.2c.86,.9,1.98,1.68,3.64,1.68s2.98-1.04,2.98-2.72-1.18-2.94-4.56-2.94v-1.4c3.02,0,4.06-1.22,4.06-2.8,0-1.42-.96-2.32-2.48-2.36-1.18,.04-2.22,.64-3.04,1.46l-.98-1.16c1.1-1.02,2.4-1.76,4.1-1.76,2.46,0,4.26,1.32,4.26,3.68,0,1.78-1.06,2.96-2.62,3.54v.08c1.74,.4,3.12,1.72,3.12,3.72,0,2.62-2.1,4.18-4.7,4.18-2.3,0-3.74-.96-4.7-2Z" style="fill: #8a202a;"/>
          </g>
        </g>
        <g>
          <path d="M819.69,120.92c.84,0,.97-.4,1.06-2.9,.37,.29,1.03,.53,1.5,.64-.2,3.04-.66,3.78-2.4,3.78h-3.37c-2,0-2.51-.51-2.51-2.24v-5.48h-3.87c-.33,4.55-1.47,6.93-6.93,8.1-.13-.42-.55-1.06-.86-1.36,4.95-.97,5.87-2.84,6.14-6.73h-5.85v-1.56h19.32v1.56h-6.32v5.46c0,.64,.15,.75,1.06,.75h3.04Zm-14.94-10.89h-1.61v-4.82h8.49c-.31-.73-.73-1.58-1.1-2.24l1.63-.46c.53,.84,1.1,1.91,1.41,2.71h7.74v4.82h-1.67v-3.26h-14.9v3.26Zm1.54,.59v-1.52h11.86v1.52h-11.86Z" style="fill: #333;"/>
          <path d="M849.37,110.14c-.95,2.84-2.24,5.35-3.87,7.44,.81,2.16,1.83,3.41,2.95,3.41,.62,0,.88-1.14,1.03-4.07,.37,.37,.97,.75,1.41,.88-.31,3.74-.9,4.82-2.57,4.82s-3.01-1.34-4.03-3.61c-1.32,1.43-2.84,2.66-4.53,3.65-.24-.33-.81-.99-1.19-1.3,1.96-1.06,3.65-2.42,5.06-4.07-.79-2.49-1.32-5.72-1.61-9.26h-7.59v2.86h5.61v.7c-.11,4.93-.24,6.78-.7,7.35-.33,.42-.7,.57-1.32,.64-.55,.04-1.54,.04-2.62,0-.02-.51-.2-1.12-.46-1.54,1.01,.09,1.96,.11,2.33,.11,.31,0,.53-.04,.66-.24,.31-.33,.42-1.72,.51-5.5h-4v.18c0,3.08-.33,7.5-2.31,10.36-.29-.33-.99-.9-1.36-1.1,1.8-2.68,2-6.45,2-9.29v-6.14h9.18c-.09-1.21-.11-2.44-.13-3.7h1.69c0,1.28,.02,2.51,.09,3.7h7.11v1.61h-7c.22,2.93,.62,5.54,1.21,7.64,1.19-1.74,2.13-3.72,2.82-5.94l1.65,.42Zm-3.81-7.35c1.36,.68,3.08,1.74,3.94,2.51l-1.01,1.12c-.84-.77-2.51-1.89-3.89-2.64l.97-.99Z" style="fill: #333;"/>
          <path d="M859.6,106.42h8.32v1.34h-8.32v-1.34Zm.92,2.88h6.71v1.3h-6.71v-1.3Zm0,2.86h6.69v1.3h-6.69v-1.3Zm6.62,9.29h-5.19v1.03h-1.41v-7.39h6.6v6.36Zm-5.19-4.99v3.63h3.74v-3.63h-3.74Zm1.69-10.28c-.29-.81-1.01-2.05-1.63-2.95l1.28-.64c.64,.9,1.34,2.05,1.69,2.82l-1.34,.77Zm15.89-.07h-3.39v14.21c0,1.1-.26,1.67-1.06,1.91-.79,.29-2.16,.31-4.29,.31-.07-.44-.37-1.23-.66-1.67,1.69,.07,3.3,.07,3.78,.02,.44-.02,.62-.15,.62-.57v-14.21h-6.16v-1.58h11.16v1.58Z" style="fill: #333;"/>
          <path d="M907.76,119.67h-8.93v3.1h-1.67v-3.1h-8.76v-1.43h8.76v-1.67h-6.56v-7.66h15.14v7.66h-6.91v1.67h8.93v1.43Zm-10.54-11.86h-7.22v-4.27h7.22v4.27Zm-1.54-3.17h-4.2v2.07h4.2v-2.07Zm-3.5,7.46h4.97v-1.87h-4.97v1.87Zm4.97,3.15v-1.89h-4.97v1.89h4.97Zm6.91-5.02h-5.24v1.87h5.24v-1.87Zm0,3.12h-5.24v1.89h5.24v-1.89Zm2.18-5.54h-7.26v-4.27h7.26v4.27Zm-1.52-3.17h-4.25v2.07h4.25v-2.07Z" style="fill: #333;"/>
        </g>
      </g>
      <g>
        <g>
          <rect x="443.7" y="12.26" width="55.77" height="55.77" transform="translate(109.74 345.22) rotate(-45)" style="fill: none; stroke: #8a202a; stroke-miterlimit: 10; stroke-width: .86px;"/>
          <g>
            <path d="M457.43,40.04c0-5.1,1.78-7.56,4.58-7.56s4.56,2.48,4.56,7.56-1.78,7.64-4.56,7.64-4.58-2.54-4.58-7.64Zm7.36,0c0-4.28-1.12-6.08-2.78-6.08s-2.8,1.8-2.8,6.08,1.12,6.18,2.8,6.18,2.78-1.86,2.78-6.18Z" style="fill: #8a202a;"/>
            <path d="M472.43,46.34c4.6-4.02,6.72-6.94,6.72-9.46,0-1.68-.88-2.9-2.7-2.9-1.2,0-2.24,.74-3.04,1.7l-1.06-1.04c1.2-1.3,2.46-2.16,4.32-2.16,2.62,0,4.26,1.72,4.26,4.34,0,2.92-2.3,5.9-5.74,9.16,.76-.06,1.66-.14,2.4-.14h4.06v1.58h-9.22v-1.08Z" style="fill: #8a202a;"/>
          </g>
        </g>
        <g>
          <path d="M354.45,103.34c-.66,1.65-1.43,3.28-2.33,4.8v14.59h-1.63v-12.06c-.71,.99-1.47,1.89-2.22,2.66-.2-.37-.7-1.23-1.01-1.61,2.24-2.13,4.33-5.48,5.59-8.89l1.61,.51Zm12.78,5.85h-2.77v11.35c0,1.23-.35,1.74-1.17,1.98-.86,.26-2.33,.29-4.71,.26-.09-.42-.4-1.17-.64-1.61,1.85,.07,3.65,.07,4.18,.04,.48-.04,.68-.18,.68-.68v-11.35h-8.87v-1.63h8.87v-4.62h1.65v4.62h2.77v1.63Zm-8.71,8.45c-.66-1.36-2.07-3.72-3.19-5.48l1.41-.66c1.14,1.69,2.6,3.98,3.3,5.32l-1.52,.81Z" style="fill: #333;"/>
          <path d="M379.09,116.63c-.55,1.58-1.36,3.45-2.07,4.67-.33-.18-.95-.48-1.3-.62,.77-1.19,1.5-2.88,2-4.4l1.36,.35Zm2.88-1.1v7.24h-1.54v-7.24h-4.55v-1.41h10.54v1.41h-4.44Zm-1.56-9.37h-4.27v-1.39h4.27v-2h1.54v2h4.27v1.39h-4.27v1.89h3.83v1.36h-9.13v-1.36h3.76v-1.89Zm5.13,5.43c1.36-2.16,2.16-5.5,2.57-8.89l1.61,.2c-.18,1.28-.42,2.55-.7,3.74h5.41l.29-.07,1.1,.35c-.42,1.96-1.04,4.25-1.63,5.7l-1.34-.42c.42-1.03,.81-2.62,1.12-4.05h-5.33c-.51,1.74-1.1,3.3-1.85,4.51-.29-.24-.88-.66-1.28-.92v.68h-8.65v-1.39h8.65l.02,.55Zm-1.08,4.69c.64,1.08,1.36,2.55,1.69,3.41l-1.3,.62c-.33-.9-1.01-2.4-1.61-3.54l1.21-.48Zm6.89-5.46c0,.64-.02,1.34-.07,2.07,.77,3.81,2.33,7.13,4.91,8.54-.35,.31-.86,.92-1.08,1.34-2.09-1.28-3.45-3.61-4.38-6.51-.57,2.24-1.69,4.55-3.89,6.56-.29-.35-.84-.84-1.25-1.08,3.92-3.5,4.2-7.94,4.2-10.94v-1.01h1.56v1.03Z" style="fill: #333;"/>
          <path d="M412.86,108.1c-.07,1.14-.15,2.31-.31,3.48h9.35s-.02,.55-.07,.79c-.42,6.18-.86,8.56-1.72,9.42-.53,.55-1.03,.7-1.89,.77-.77,.04-2.2,.02-3.67-.09-.04-.48-.26-1.14-.57-1.58,1.56,.13,3.1,.15,3.67,.15,.51,0,.79-.04,1.03-.24,.66-.57,1.08-2.68,1.45-7.64h-7.83c-.7,3.87-2.35,7.5-6.49,9.7-.26-.44-.77-1.01-1.19-1.32,5.61-2.79,6.18-8.43,6.43-13.44h-5.94v-1.61h9.62c-.29-.88-.92-2.29-1.5-3.3l1.56-.62c.59,1.03,1.28,2.35,1.58,3.26l-1.52,.66h9.17v1.61h-11.18Z" style="fill: #333;"/>
          <path d="M446.46,108.38c.55,7.39,2.27,12.74,4.44,12.74,.59,0,.86-1.21,.99-4.14,.37,.37,.99,.73,1.45,.9-.29,3.81-.9,4.93-2.57,4.93-3.56,0-5.39-6.31-5.98-14.43h-11.35v-1.61h11.24c-.07-1.3-.09-2.64-.11-3.98h1.72c0,1.36,.02,2.68,.09,3.98h6.51v1.61h-6.42Zm-6.73,10.87c1.54-.33,3.12-.64,4.71-.99l.13,1.45c-3.72,.88-7.75,1.8-10.54,2.42l-.51-1.61c1.23-.24,2.84-.57,4.6-.92v-6.38h-3.92v-1.58h9.64v1.58h-4.11v6.03Zm11.11-12.74c-.64-.77-2-1.96-3.12-2.75l1.1-.9c1.12,.75,2.51,1.87,3.17,2.62l-1.14,1.03Z" style="fill: #333;"/>
          <path d="M481.66,116.13v1.52h-19.83v-1.52h2.22l-.42-11.62c1.37-.48,3.02-1.14,4.07-1.69l.79,1.34c-1.01,.42-2.22,.84-3.34,1.19l.09,2.57h2.95v1.41h-2.9l.09,2.68h2.9v1.41h-2.84l.09,2.71h12.48c.04-.77,.11-1.69,.15-2.64h-2.86v-1.39h2.9c.04-.88,.07-1.78,.11-2.71h-2.9v-1.41h2.93c.02-.95,.04-1.87,.04-2.75h-3.17v-1.43h4.66c-.02,3.85-.13,9.07-.33,12.32h2.11Zm-12.01,2.86c-1.8,1.36-4.42,2.84-6.56,3.76-.22-.33-.66-.88-.97-1.23,2.09-.86,4.73-2.31,6.12-3.52l1.41,.99Zm1.69-7.88c-.22,1.54-.68,3.06-1.34,4.11-.24-.2-.81-.55-1.14-.7,.68-.97,1.01-2.29,1.21-3.63l1.28,.22Zm1.52-1.17h-3.5v-7.11h1.43v2.05h3.63v1.39h-3.63v2.35h2.88v.02h.59v5.79c0,.68-.13,.97-.62,1.19-.48,.2-1.25,.2-2.31,.2-.07-.35-.24-.79-.42-1.12,.77,.04,1.43,.04,1.65,.02,.24,0,.29-.09,.29-.29v-4.49Zm1.89,7.99c2.33,1.1,4.84,2.46,6.4,3.52l-1.08,1.23c-1.5-1.06-3.94-2.51-6.23-3.63l.9-1.12Z" style="fill: #333;"/>
          <path d="M496.77,108.73h-6.29v-1.32h6.29v1.32Zm1.74,11.35c-1.76,1.06-4.53,2.09-6.71,2.68-.29-.33-.84-.95-1.21-1.23,2.24-.46,4.88-1.25,6.45-2.11l1.47,.66Zm-2.29-14.81h-5.26v-1.28h5.26v1.28Zm-2.86,5.17h14.24v8.82h-14.24v-8.82Zm1.58,2.6h11.02v-1.5h-11.02v1.5Zm0,2.55h11.02v-1.5h-11.02v1.5Zm0,2.6h11.02v-1.54h-11.02v1.54Zm5.28-12.74c-.48,.84-1.06,1.61-1.65,2.2-.26-.24-.88-.66-1.23-.84,1.14-1.03,2.05-2.57,2.53-4.18l1.47,.33c-.13,.42-.31,.81-.46,1.21h7.37l.26-.07,1.1,.37c-.55,1.12-1.25,2.4-1.85,3.17l-1.3-.46c.33-.46,.73-1.1,1.03-1.74h-3.5v.29c0,.22-.02,.46-.07,.73,1.17,1.32,3.56,2.18,6.45,2.42-.31,.31-.73,.9-.92,1.3-2.51-.35-4.62-1.23-5.99-2.57-.73,1.08-2.46,2.09-6.34,2.68-.18-.35-.59-.95-.88-1.21,5.7-.77,6.23-2.27,6.23-3.41v-.22h-2.27Zm3.3,13.95c2.35,.73,4.93,1.67,6.47,2.38l-1.43,.95c-1.41-.7-3.79-1.65-6.16-2.44l1.12-.88Z" style="fill: #333;"/>
          <path d="M522.14,113.22c-.46,2.44-1.39,5.52-2.53,7.11-.18-.55-.55-1.32-.86-1.8,.92-1.28,1.83-3.72,2.2-5.68l1.19,.37Zm1.96-1.65v11.22h-1.52v-11.22h-3.52v-1.54h3.52v-7.33h1.52v7.33h3.59v1.54h-3.59Zm-3.67-2.31c-.13-1.3-.64-3.32-1.21-4.86l1.19-.29c.64,1.52,1.14,3.5,1.3,4.82l-1.28,.33Zm4.69,3.61c.42,.64,2,3.63,2.33,4.38l-1.17,1.21c-.4-1.19-1.61-4-2.07-4.95l.9-.64Zm2.58-8.49c-.53,1.65-1.21,3.7-1.8,4.93l-1.08-.35c.53-1.3,1.14-3.45,1.47-4.93l1.41,.35Zm8.58,12.21v6.18h-1.54v-5.9l-6.82,1.25-.26-1.54,7.08-1.25v-12.63h1.54v12.34l2.6-.46,.24,1.5-2.84,.51Zm-4.47-3.08c-.75-.79-2.33-1.91-3.63-2.64l.77-1.14c1.3,.68,2.9,1.69,3.67,2.46l-.81,1.32Zm.95-5.32c-.7-.84-2.2-2.02-3.45-2.84l.84-1.1c1.23,.75,2.75,1.87,3.45,2.68l-.84,1.25Z" style="fill: #333;"/>
          <path d="M554.1,117.12c-2.13,.92-4.38,1.89-6.14,2.6l-.62-1.63c.75-.22,1.63-.55,2.62-.92v-7.66h-2.46v-1.56h2.46v-5h1.58v5h2.46v1.56h-2.46v7.04c.75-.26,1.52-.57,2.27-.88l.29,1.45Zm5.61,2.53c-1.39,1.14-3.48,2.38-5.13,3.15-.2-.33-.68-.81-1.01-1.14,1.63-.73,3.7-1.94,4.73-2.93l1.41,.92Zm7.88-2.4v1.43h-13.66v-1.43h1.96v-9.7h3.23c.11-.46,.22-.95,.31-1.47h-4.66v-1.34h4.91c.13-.7,.22-1.41,.29-2l1.74,.11c-.13,.59-.26,1.25-.42,1.89h5.72v1.34h-6.03c-.13,.53-.26,1.01-.4,1.47h5.02v9.7h2Zm-10.25-8.56v1.41h6.75v-1.41h-6.75Zm6.75,2.4h-6.75v1.3h6.75v-1.3Zm-6.75,3.67h6.75v-1.36h-6.75v1.36Zm0,2.49h6.75v-1.47h-6.75v1.47Zm5.57,1.45c1.47,.84,3.41,2.11,4.36,2.95l-1.08,1.14c-.92-.86-2.79-2.2-4.29-3.1l1.01-.99Z" style="fill: #333;"/>
          <path d="M594.8,115.67s-.02,.46-.04,.68c-.24,3.74-.48,5.26-1.03,5.81-.35,.42-.77,.55-1.36,.57-.55,.07-1.61,.04-2.68-.02-.04-.44-.2-1.03-.46-1.43,1.08,.09,2.07,.11,2.44,.09,.37,.02,.57,0,.75-.18,.31-.35,.53-1.47,.73-4.18h-11.84c-1.25,1.03-2.71,1.89-4.16,2.55-.2-.33-.68-.99-.97-1.3,2.24-.88,4.51-2.29,5.9-4h-2.6v-6.21c1.8-.37,3.89-.92,5.13-1.43l1.01,1.03c-1.32,.51-3.06,.92-4.67,1.25v1.47h4.27v1.17h-4.27v1.52h10.34v-1.52h-4.18v-1.17h4.18v-1.45h-4.55v-1.21h6.05v6.54h-8.91c-.33,.48-.7,.97-1.14,1.41h12.08Zm.64-11.18v3.85h-1.56v-2.42h-15.51v2.44h-1.52v-3.87h8.41c-.22-.51-.48-.99-.73-1.43l1.63-.46c.35,.57,.73,1.3,.99,1.89h8.29Zm-16.48,17.1c.88-.99,1.63-2.64,2.05-3.89l1.3,.53c-.46,1.3-1.14,2.95-2.02,4l-1.32-.64Zm5.57-3.72c.44,1.21,.79,2.82,.79,3.81l-1.34,.2c.02-1.01-.31-2.62-.73-3.85l1.28-.15Zm2.66-.18c.68,1.03,1.3,2.42,1.5,3.32l-1.25,.4c-.2-.9-.77-2.33-1.43-3.39l1.19-.33Zm3.43,2.77c-.33-.73-1.12-1.76-1.85-2.49l1.08-.51c.75,.68,1.58,1.69,1.92,2.4l-1.14,.59Z" style="fill: #333;"/>
        </g>
      </g>
      <g>
        <g>
          <rect x="52.72" y="12.26" width="55.77" height="55.77" transform="translate(-4.78 68.75) rotate(-45)" style="fill: #8a202a;"/>
          <g>
            <path d="M66.45,40.04c0-5.1,1.78-7.56,4.58-7.56s4.56,2.48,4.56,7.56-1.78,7.64-4.56,7.64-4.58-2.54-4.58-7.64Zm7.36,0c0-4.28-1.12-6.08-2.78-6.08s-2.8,1.8-2.8,6.08,1.12,6.18,2.8,6.18,2.78-1.86,2.78-6.18Z" style="fill: #fff8eb;"/>
            <path d="M82.33,45.9h3.26v-10.94h-2.6v-1.16c1.3-.24,2.24-.58,3.04-1.04h1.4v13.14h2.94v1.52h-8.04v-1.52Z" style="fill: #fff8eb;"/>
          </g>
        </g>
        <g>
          <path d="M0,106.42H8.32v1.34H0v-1.34Zm.92,2.88H7.64v1.3H.92v-1.3Zm0,2.86H7.61v1.3H.92v-1.3Zm6.62,9.29H2.35v1.03H.95v-7.39H7.55v6.36Zm-5.19-4.99v3.63h3.74v-3.63H2.35Zm1.69-10.28c-.29-.81-1.01-2.05-1.63-2.95l1.28-.64c.64,.9,1.34,2.05,1.7,2.82l-1.34,.77Zm15.89-.07h-3.39v14.21c0,1.1-.26,1.67-1.06,1.91-.79,.29-2.16,.31-4.29,.31-.07-.44-.38-1.23-.66-1.67,1.69,.07,3.3,.07,3.78,.02,.44-.02,.62-.15,.62-.57v-14.21h-6.16v-1.58h11.16v1.58Z" style="fill: #333;"/>
          <path d="M48.16,119.67h-8.93v3.1h-1.67v-3.1h-8.76v-1.43h8.76v-1.67h-6.56v-7.66h15.14v7.66h-6.91v1.67h8.93v1.43Zm-10.54-11.86h-7.22v-4.27h7.22v4.27Zm-1.54-3.17h-4.2v2.07h4.2v-2.07Zm-3.5,7.46h4.97v-1.87h-4.97v1.87Zm4.97,3.15v-1.89h-4.97v1.89h4.97Zm6.91-5.02h-5.24v1.87h5.24v-1.87Zm0,3.12h-5.24v1.89h5.24v-1.89Zm2.18-5.54h-7.26v-4.27h7.26v4.27Zm-1.52-3.17h-4.25v2.07h4.25v-2.07Z" style="fill: #333;"/>
          <path d="M75.71,120.64c0,1.03-.22,1.56-.95,1.85-.75,.26-2,.26-3.87,.26-.07-.46-.31-1.21-.55-1.65,1.43,.04,2.79,.04,3.23,.02,.4-.02,.48-.13,.48-.48v-11.46h-5.61c.84,3.37,2.49,5.79,5.37,7.02-.35,.35-.88,.99-1.14,1.43-2.88-1.43-4.58-3.89-5.52-7.19-.92,3.37-2.73,5.81-5.65,7.3-.24-.37-.75-.99-1.1-1.3,2.95-1.43,4.75-3.81,5.5-7.26h-5.72v13.6h-1.63v-15.2h8.01c-.11-.77-.2-1.58-.24-2.44h-3.96v-1.45h5.35c.07,1.39,.2,2.68,.4,3.9h7.61v13.07Z" style="fill: #333;"/>
          <path d="M96.98,109.79c-.13,.18-.26,.37-.42,.57,2.49,2.82,5.59,4.53,9.11,5.92-.37,.35-.81,.92-1.06,1.39-.97-.42-1.91-.9-2.82-1.41v6.47h-1.65v-.66h-9.02v.75h-1.58v-6.31c-.95,.55-1.94,1.03-2.95,1.43-.24-.4-.66-.95-1.03-1.32,4.03-1.5,7.9-4.22,9.99-7.46l1.43,.64Zm-8.85-1.1h-1.58v-3.98h8.54c-.24-.57-.57-1.25-.88-1.78l1.67-.4c.4,.66,.86,1.52,1.12,2.18h7.77v3.98h-1.65v-2.49h-14.98v2.49Zm5.37-.95c-1.45,1.91-3.67,3.72-5.68,4.86-.24-.31-.79-.95-1.14-1.23,1.96-.99,4.03-2.53,5.3-4.14l1.52,.51Zm6.64,12.85v-3.67h-9.02v3.67h9.02Zm.29-5.15c-1.72-1.08-3.28-2.35-4.73-3.94-1.25,1.45-2.79,2.79-4.47,3.94h9.2Zm-1.8-8.19c2,1.19,4.53,2.97,5.74,4.22l-1.14,1.08c-1.19-1.25-3.65-3.12-5.68-4.38l1.08-.92Z" style="fill: #333;"/>
          <path d="M134.18,121.85h-8.89v.95h-1.54v-10.5c-.46,.44-.99,.86-1.5,1.25-.18-.33-.62-.95-.95-1.28v7.66h-3.87v1.78h-1.41v-7.2c-.35,.66-.73,1.32-1.14,1.87-.18-.33-.64-1.08-.95-1.41,1.58-2.24,2.55-5.61,3.12-9.24h-2.6v-1.5h7.22v1.5h-3.04c-.29,1.69-.64,3.37-1.1,4.88h3.76v1.54c2.02-1.41,3.65-3.43,4.84-5.83h-2.57v2.35h-1.43v-3.76h4.66c.29-.73,.55-1.5,.77-2.27l1.54,.31c-.2,.66-.42,1.34-.68,1.96h5.26v3.72h-1.47v-2.31h-4.36c-.55,1.19-1.17,2.29-1.87,3.3h2.86c-.29-.66-.64-1.41-.95-2.02l1.36-.55c.44,.81,.97,1.83,1.23,2.57h3.01v1.39h-3.43v2.22h3.15v1.28h-3.15v2.33h3.15v1.28h-3.15v2.31h4.09v1.41Zm-14.3-9.79h-2.44v6.43h2.44v-6.43Zm8.69-1.03h-3.28v2.22h3.28v-2.22Zm0,3.5h-3.28v2.33h3.28v-2.33Zm-3.28,5.92h3.28v-2.31h-3.28v2.31Z" style="fill: #333;"/>
          <path d="M150.55,107.7h-7.75v-1.36h7.75v1.36Zm-.53,2.9h-6.64v-1.3h6.64v1.3Zm-6.64,1.61h6.64v1.32h-6.64v-1.32Zm6.54,9.33h-5.15v1.01h-1.39v-7.37h6.54v6.36Zm-5.15-5.02v3.67h3.74v-3.67h-3.74Zm1.65-10.32c-.24-.79-.84-2.05-1.37-2.99l1.39-.48c.57,.9,1.14,2.11,1.45,2.9l-1.47,.57Zm3.54,13.93c.75-1.19,1.28-3.12,1.54-4.62l1.17,.35c-.29,1.58-.77,3.59-1.52,4.8l-1.19-.53Zm7.44-15.16c-.4,3.96-1.5,7.24-5.54,9.07-.18-.37-.62-.92-.95-1.17,1.96-.84,3.15-2,3.87-3.48-.81-.84-2.16-2-3.19-2.86l.86-.92c.92,.73,2.07,1.67,2.9,2.4,.29-.95,.44-1.96,.55-3.04h-4.53v-1.41h10.72s-.02,.48-.02,.7c-.24,5.57-.48,7.55-1.01,8.23-.37,.44-.79,.59-1.39,.64-.55,.04-1.52,.04-2.49,0-.04-.44-.2-1.03-.46-1.45,1.01,.09,1.94,.11,2.29,.11s.53-.04,.73-.26c.35-.4,.57-2.11,.75-6.56h-3.08Zm.73,16.02c.73,0,.86-.37,.92-2.93,.31,.24,.9,.46,1.3,.55-.15,2.99-.55,3.7-2.07,3.7h-2.86c-1.74,0-2.18-.44-2.18-1.96v-5.35h1.43v5.35c0,.53,.15,.64,.9,.64h2.55Zm-2.09-7.57c.92,.97,1.94,2.31,2.42,3.15l-1.08,.75c-.46-.86-1.45-2.24-2.35-3.26l1.01-.64Zm5.1,1.21c.79,1.45,1.63,3.37,1.94,4.53l-1.25,.48c-.31-1.19-1.08-3.15-1.85-4.62l1.17-.4Z" style="fill: #333;"/>
        </g>
      </g>
    </g>
    <line x1="146.75" y1="40.34" x2="405.75" y2="40.34" style="fill: none; stroke: #c7ba99; stroke-miterlimit: 10; stroke-width: 2px;"/>
    <line x1="533.75" y1="40.84" x2="792.75" y2="40.84" style="fill: none; stroke: #c7ba99; stroke-miterlimit: 10; stroke-width: 2px;"/>
    <g>
      <rect x="417.33" y="35.89" width="8.52" height="8.52" transform="translate(95.09 309.86) rotate(-45)" style="fill: #8a202a;"/>
      <rect x="517.33" y="35.89" width="8.52" height="8.52" transform="translate(124.38 380.57) rotate(-45)" style="fill: #8a202a;"/>
    </g>
    <g>
      <rect x="801.33" y="35.89" width="8.52" height="8.52" transform="translate(207.56 581.39) rotate(-45)" style="fill: #8a202a;"/>
      <rect x="901.33" y="35.89" width="8.52" height="8.52" transform="translate(236.85 652.1) rotate(-45)" style="fill: #8a202a;"/>
    </g>
    <g>
      <rect x="26.33" y="35.89" width="8.52" height="8.52" transform="translate(-19.43 33.38) rotate(-45)" style="fill: #8a202a;"/>
      <rect x="126.33" y="35.89" width="8.52" height="8.52" transform="translate(9.86 104.1) rotate(-45)" style="fill: #8a202a;"/>
    </g>
  </g>
</svg>