<?xml version="1.0" encoding="UTF-8"?>
<svg id="b" data-name="圖層 2" xmlns="http://www.w3.org/2000/svg" width="911.67" height="122.96" viewBox="0 0 911.67 122.96">
  <g id="c" data-name="圖層 1">
    <g>
      <g>
        <g>
          <rect x="827.78" y="12.16" width="55.77" height="55.77" transform="translate(222.3 616.78) rotate(-45)" style="fill: #8a202a;"/>
          <g>
            <path d="M841.35,39.8c0-5.12,2.12-7.64,5.26-7.64s5.28,2.56,5.28,7.64-2.14,7.8-5.28,7.8-5.26-2.68-5.26-7.8Zm7.18,0c0-4.06-.86-4.9-1.92-4.9s-1.9,.84-1.9,4.9,.84,5.04,1.9,5.04,1.92-.96,1.92-5.04Z" style="fill: #fff8eb;"/>
            <path d="M857.19,45.52l1.64-2.24c.9,.86,1.94,1.44,3.1,1.44,1.38,0,2.28-.58,2.28-1.7,0-1.28-.68-2.04-3.8-2.04v-2.5c2.54,0,3.34-.78,3.34-1.96,0-1.02-.6-1.58-1.7-1.58-1,0-1.76,.46-2.66,1.24l-1.8-2.18c1.38-1.16,2.86-1.84,4.62-1.84,3.08,0,5.1,1.44,5.1,4.1,0,1.48-.8,2.64-2.4,3.28v.1c1.66,.5,2.88,1.7,2.88,3.62,0,2.78-2.54,4.34-5.5,4.34-2.36,0-4.02-.82-5.1-2.08Z" style="fill: #fff8eb;"/>
          </g>
        </g>
        <g>
          <path d="M819.54,120.54c.75,0,.88-.37,.97-2.79,.46,.35,1.32,.68,1.85,.81-.22,3.08-.77,3.85-2.64,3.85h-3.1c-2.24,0-2.77-.59-2.77-2.62v-4.93h-3.45c-.31,4.4-1.41,6.75-6.98,7.9-.18-.53-.7-1.32-1.08-1.74,4.91-.88,5.72-2.57,5.96-6.16h-5.68v-1.91h19.38v1.91h-6.09v4.93c0,.66,.13,.75,.97,.75h2.66Zm-14.37-10.5h-2.05v-5.1h8.25c-.24-.66-.59-1.41-.92-2l2.07-.62c.48,.79,.99,1.8,1.3,2.62h7.63v5.1h-2.11v-3.15h-14.17v3.15Zm1.3,.75v-1.87h11.6v1.87h-11.6Z" style="fill: #333;"/>
          <path d="M849.57,110.04c-.92,2.84-2.22,5.32-3.83,7.44,.75,1.87,1.61,3.01,2.53,3.01,.57,0,.84-1.12,.97-3.96,.48,.48,1.21,.95,1.76,1.14-.33,3.87-1.08,4.91-2.88,4.91-1.61,0-2.88-1.23-3.87-3.3-1.25,1.32-2.64,2.44-4.16,3.37-.31-.44-1.03-1.3-1.5-1.67,1.83-1.01,3.46-2.29,4.8-3.85-.79-2.49-1.3-5.63-1.56-9.07h-7.04v2.66h5.52v.79c-.11,4.77-.22,6.67-.68,7.28-.4,.46-.81,.64-1.41,.7-.55,.09-1.54,.09-2.6,.04-.04-.59-.24-1.39-.55-1.91,.9,.09,1.76,.11,2.11,.11,.31,0,.53-.07,.68-.26,.24-.31,.37-1.56,.44-4.88h-3.52c-.02,3.12-.4,7.53-2.33,10.36-.35-.42-1.25-1.14-1.72-1.41,1.76-2.64,1.91-6.43,1.91-9.26v-6.23h9.04c-.07-1.14-.11-2.33-.11-3.5h2.16c-.02,1.19,0,2.35,.07,3.5h4.25c-.86-.73-2.29-1.67-3.46-2.31l1.23-1.25c1.3,.68,2.95,1.69,3.81,2.44l-1.06,1.12h2.25v2h-6.91c.22,2.62,.57,4.99,1.08,6.95,1.06-1.63,1.87-3.45,2.51-5.48l2.07,.51Z" style="fill: #333;"/>
          <path d="M863.62,106.22h4.38v1.63h-8.41v-1.63h3.98c-.33-.81-.99-2.07-1.58-2.97l1.61-.81c.59,.92,1.32,2.09,1.63,2.88l-1.61,.9Zm-3.08,2.93h6.84v1.61h-6.84v-1.61Zm0,2.9h6.82v1.58h-6.82v-1.58Zm6.75,9.42h-4.97v.99h-1.76v-7.44h6.73v6.45Zm-4.97-4.8v3.15h3.19v-3.15h-3.19Zm17.29-10.36h-3.12v13.6c0,1.25-.31,1.91-1.19,2.22-.88,.35-2.31,.37-4.42,.37-.11-.57-.46-1.54-.81-2.11,1.61,.09,3.26,.07,3.74,.07,.44-.02,.59-.15,.59-.57v-13.58h-5.94v-2h11.16v2Z" style="fill: #333;"/>
          <path d="M907.84,119.79h-8.76v2.93h-2.09v-2.93h-8.54v-1.78h8.54v-1.43h-6.4v-7.9h15.27v7.9h-6.78v1.43h8.76v1.78Zm-10.45-12.1h-7.46v-4.31h7.46v4.31Zm-1.96-2.99h-3.67v1.69h3.67v-1.69Zm-2.84,7.15h4.4v-1.54h-4.4v1.54Zm4.4,3.1v-1.58h-4.4v1.58h4.4Zm9.46-7.26h-7.53v-4.31h7.53v4.31Zm-2.68,2.62h-4.69v1.54h4.69v-1.54Zm0,3.06h-4.69v1.58h4.69v-1.58Zm.75-8.67h-3.74v1.69h3.74v-1.69Z" style="fill: #333;"/>
        </g>
      </g>
      <g>
        <g>
          <rect x="443.76" y="12.16" width="55.77" height="55.77" transform="translate(109.83 345.24) rotate(-45)" style="fill: none; stroke: #8a202a; stroke-miterlimit: 10; stroke-width: .86px;"/>
          <g>
            <path d="M457.33,39.8c0-5.12,2.12-7.64,5.26-7.64s5.28,2.56,5.28,7.64-2.14,7.8-5.28,7.8-5.26-2.68-5.26-7.8Zm7.18,0c0-4.06-.86-4.9-1.92-4.9s-1.9,.84-1.9,4.9,.84,5.04,1.9,5.04,1.92-.96,1.92-5.04Z" style="fill: #8a202a;"/>
            <path d="M473.53,45.28c3.72-3.38,6.22-6.08,6.22-8.24,0-1.36-.76-2.1-1.94-2.1-1.02,0-1.82,.68-2.52,1.44l-1.94-1.92c1.46-1.54,2.82-2.3,4.94-2.3,2.88,0,4.88,1.84,4.88,4.68,0,2.56-2.2,5.38-4.48,7.68,.74-.1,1.76-.2,2.42-.2h2.74v3h-10.32v-2.04Z" style="fill: #8a202a;"/>
          </g>
        </g>
        <g>
          <path d="M354.7,103.31c-.62,1.56-1.37,3.17-2.22,4.64v14.74h-2.07v-11.55c-.62,.84-1.28,1.61-1.94,2.27-.22-.48-.84-1.58-1.23-2.09,2.18-2.09,4.22-5.32,5.43-8.65l2.03,.64Zm12.72,6.07h-2.62v10.74c0,1.43-.37,2-1.3,2.31-.92,.33-2.46,.37-4.86,.35-.11-.57-.48-1.5-.79-2.05,1.78,.09,3.61,.07,4.14,.04,.51-.02,.7-.18,.7-.66v-10.74h-8.6v-2.05h8.6v-4.55h2.11v4.55h2.62v2.05Zm-9.11,8.23c-.59-1.36-1.96-3.67-3.01-5.39l1.78-.84c1.06,1.65,2.49,3.87,3.15,5.19l-1.91,1.03Z" style="fill: #333;"/>
          <path d="M379.22,116.58c-.53,1.63-1.28,3.45-1.94,4.67-.37-.24-1.14-.59-1.61-.75,.73-1.14,1.41-2.84,1.85-4.33l1.7,.42Zm2.99-1.01v7.15h-1.94v-7.15h-4.4v-1.69h10.63v1.69h-4.29Zm-1.96-9.4h-4.09v-1.67h4.09v-1.83h1.91v1.83h4.12v1.67h-4.12v1.56h3.65v1.67h-9.15v-1.67h3.59v-1.56Zm5.35,5.04c1.28-2.18,2-5.35,2.4-8.62l2,.26c-.18,1.25-.4,2.49-.66,3.65h4.95l.31-.09,1.39,.42c-.4,2.05-1.03,4.38-1.61,5.9l-1.67-.51c.35-1.01,.73-2.44,.99-3.87h-4.82c-.51,1.72-1.1,3.21-1.83,4.42-.31-.29-.97-.75-1.45-1.06v.75h-8.74v-1.67h8.74v.42Zm-.88,4.93c.59,1.08,1.28,2.53,1.58,3.39l-1.65,.75c-.26-.92-.9-2.4-1.47-3.52l1.54-.62Zm6.89-5.17c0,.64-.02,1.32-.07,2.09,.73,3.52,2.27,6.58,4.8,7.92-.46,.42-1.08,1.19-1.39,1.72-1.92-1.19-3.24-3.23-4.12-5.79-.64,2.02-1.74,4.09-3.72,5.88-.35-.44-1.06-1.1-1.56-1.39,3.79-3.32,4.12-7.61,4.12-10.5v-1.01h1.94v1.08Z" style="fill: #333;"/>
          <path d="M413.08,108.2c-.07,1.03-.13,2.09-.26,3.12h9.35s-.02,.64-.09,.92c-.42,6.07-.84,8.49-1.72,9.4-.59,.59-1.17,.77-2.09,.86-.81,.07-2.24,.04-3.72-.04-.02-.59-.31-1.43-.73-2,1.56,.13,3.06,.15,3.67,.15,.48,0,.77-.04,1.06-.26,.62-.51,1.01-2.55,1.36-7.04h-7.42c-.7,3.78-2.31,7.33-6.38,9.53-.31-.55-.95-1.25-1.5-1.67,5.46-2.77,5.96-8.12,6.18-12.96h-5.76v-2h9.42c-.29-.88-.88-2.13-1.39-3.08l2-.75c.57,.99,1.25,2.31,1.56,3.19l-1.47,.64h9.04v2h-11.13Z" style="fill: #333;"/>
          <path d="M446.79,108.46c.48,6.93,2.02,12.17,3.94,12.17,.53,0,.79-1.19,.92-4.05,.46,.48,1.23,.97,1.8,1.17-.35,3.96-1.08,5.04-2.9,5.04-3.63,0-5.37-6.4-5.92-14.32h-11.16v-2h11.02c-.04-1.25-.09-2.53-.09-3.81h2.2c-.02,1.28,0,2.57,.04,3.81h6.32v2h-6.18Zm-6.82,10.39c1.45-.26,2.95-.57,4.42-.88l.15,1.85c-3.65,.84-7.59,1.69-10.41,2.31l-.59-2.07c1.19-.2,2.71-.48,4.38-.79v-5.9h-3.65v-1.98h9.55v1.98h-3.85v5.48Zm9.17-16.19c1.08,.7,2.42,1.78,3.06,2.53l-1.43,1.28c-.62-.77-1.89-1.91-2.97-2.68l1.34-1.12Z" style="fill: #333;"/>
          <path d="M481.75,117.66h-19.85v-1.89h2.09l-.4-11.46c1.39-.44,3.01-1.1,4.09-1.63l.95,1.65c-.97,.4-2.09,.73-3.15,1.03l.07,2.35h2.73v1.69h-2.66l.09,2.31h2.66v1.72h-2.62l.09,2.33h11.97c.04-.68,.09-1.45,.13-2.27h-2.6v-1.69h2.68c.02-.77,.04-1.56,.07-2.35h-2.6v-1.69h2.64c.02-.79,.04-1.61,.04-2.38h-2.9v-1.78h4.78c-.02,3.87-.13,8.91-.33,12.17h2.02v1.89Zm-11.88,1.41c-1.83,1.3-4.49,2.73-6.62,3.63-.24-.42-.79-1.12-1.17-1.54,2.07-.79,4.73-2.24,6.09-3.39l1.7,1.3Zm1.56-8.19c-.22,1.5-.64,2.97-1.25,3.96-.31-.22-.97-.66-1.34-.84,.62-.9,.88-2.11,1.01-3.37l1.58,.24Zm1.3-1.03h-3.41v-7.13h1.76v1.8h3.52v1.69h-3.52v2.02h2.69v.02h.68v5.65c0,.77-.15,1.12-.66,1.34-.55,.24-1.32,.24-2.4,.24-.07-.42-.29-.95-.48-1.32,.71,.02,1.34,.02,1.54,0,.22,0,.29-.07,.29-.24v-4.09Zm7.13,12.78c-1.43-1.01-3.85-2.44-6.12-3.52l1.14-1.45c2.29,1.08,4.8,2.44,6.32,3.43l-1.34,1.54Z" style="fill: #333;"/>
          <path d="M504.05,105.84c0,.15,0,.33-.04,.53,1.19,1.21,3.54,1.96,6.45,2.13-.4,.42-.9,1.14-1.1,1.67-2.51-.35-4.51-1.14-5.9-2.42-.79,1.01-2.53,1.96-6.31,2.49-.2-.46-.66-1.14-1.03-1.52h-5.59v-1.61h6.38v1.45c4.78-.62,5.28-1.85,5.28-2.79v-.29h-1.83c-.48,.79-1.04,1.5-1.61,2.05-.33-.29-1.08-.81-1.54-1.03,1.14-.99,2.05-2.51,2.53-4.05l1.83,.4c-.13,.37-.26,.73-.42,1.1h6.87l.29-.09,1.41,.46c-.55,1.17-1.3,2.44-1.92,3.26l-1.61-.57c.29-.4,.62-.97,.92-1.52h-3.06v.35Zm-.18,13.33c2.27,.75,4.71,1.67,6.21,2.4l-1.85,1.12c-1.34-.73-3.65-1.72-5.92-2.49l1.28-1.03h-6.58l1.83,.84c-1.78,1.08-4.53,2.13-6.73,2.75-.35-.42-1.08-1.17-1.52-1.54,2.24-.44,4.82-1.19,6.34-2.05h-3.54v-8.85h14.35v8.85h-3.85Zm-7.5-13.88h-5.39v-1.54h5.39v1.54Zm-1.01,7.59h10.32v-1.25h-10.32v1.25Zm0,2.46h10.32v-1.23h-10.32v1.23Zm0,2.53h10.32v-1.28h-10.32v1.28Z" style="fill: #333;"/>
          <path d="M522.33,113.35c-.44,2.46-1.36,5.54-2.62,7.13-.18-.68-.62-1.72-.97-2.38,.9-1.21,1.78-3.45,2.13-5.28l1.45,.53Zm2.95-.48c.46,.64,2.05,3.52,2.38,4.2l-1.43,1.56c-.35-1.12-1.28-3.28-1.85-4.49v8.6h-1.91v-10.98h-3.41v-1.91h3.41v-7.28h1.91v7.28h3.43v1.91h-3.43v1.76l.9-.66Zm-5.04-3.61c-.09-1.32-.57-3.39-1.1-4.95l1.45-.37c.62,1.56,1.08,3.59,1.21,4.93l-1.56,.4Zm7.74-5c-.57,1.67-1.23,3.72-1.8,4.97l-1.3-.4c.46-1.32,1.06-3.5,1.32-4.97l1.78,.4Zm8.52,12.41v6.07h-1.91v-5.72l-6.51,1.19-.33-1.89,6.84-1.23v-12.52h1.91v12.17l2.44-.42,.29,1.87-2.73,.48Zm-4.73-3.19c-.75-.79-2.31-1.94-3.61-2.64l.97-1.47c1.28,.68,2.88,1.72,3.67,2.49l-1.03,1.63Zm.88-5.3c-.68-.86-2.18-2.05-3.43-2.84l1.04-1.39c1.23,.75,2.75,1.85,3.48,2.66l-1.08,1.56Z" style="fill: #333;"/>
          <path d="M567.7,118.69h-4.27c1.41,.79,3.17,1.87,4.09,2.66l-1.34,1.39c-.92-.84-2.86-2.11-4.36-2.95l1.1-1.1h-4.22l1.43,1.01c-1.43,1.1-3.56,2.29-5.24,3.01-.31-.4-.88-1.03-1.3-1.39,1.56-.66,3.52-1.74,4.67-2.64h-4.14v-1.3c-2.07,.86-4.29,1.76-6.03,2.44l-.75-2.05c.73-.22,1.61-.51,2.55-.84v-7.3h-2.35v-1.94h2.35v-4.91h1.94v4.91h2.38v1.94h-2.38v6.62c.7-.26,1.45-.55,2.16-.81l.29,1.5h1.72v-9.57h3.21c.09-.42,.15-.84,.24-1.3h-4.53v-1.65h4.8c.09-.64,.18-1.28,.22-1.83l2.18,.09c-.11,.55-.24,1.17-.37,1.74h5.41v1.65h-5.79c-.11,.46-.22,.88-.35,1.3h4.84v9.57h1.85v1.74Zm-9.92-9.92v1.17h6.21v-1.17h-6.21Zm6.21,2.31h-6.21v1.1h6.21v-1.1Zm-6.21,3.45h6.21v-1.17h-6.21v1.17Zm0,2.42h6.21v-1.25h-6.21v1.25Z" style="fill: #333;"/>
          <path d="M594.94,115.46s-.02,.51-.04,.77c-.22,3.65-.46,5.17-1.01,5.79-.42,.42-.86,.57-1.5,.62-.55,.09-1.61,.07-2.68,.02-.04-.53-.24-1.28-.57-1.78,.99,.11,1.96,.11,2.31,.11,.37,0,.57-.02,.75-.2,.29-.29,.48-1.32,.64-3.7h-11.38c-1.25,1.01-2.64,1.85-4.07,2.46-.22-.4-.81-1.21-1.17-1.58,2.16-.81,4.29-2.11,5.66-3.74h-2.38v-6.34c1.76-.37,3.83-.92,5.06-1.43l1.23,1.28c-1.28,.48-2.91,.88-4.49,1.21v1.19h3.98v1.41h-3.98v1.23h9.75v-1.23h-3.94v-1.41h3.94v-1.17h-4.31v-1.45h6.16v6.71h-8.76c-.31,.44-.62,.84-.97,1.23h11.77Zm.59-11.24v4.11h-1.94v-2.35h-14.85v2.35h-1.85v-4.11h8.12c-.2-.44-.37-.86-.59-1.23l2.09-.57c.33,.53,.66,1.21,.92,1.8h8.1Zm-16.59,17.21c.81-.95,1.52-2.55,1.89-3.81l1.63,.66c-.46,1.28-1.08,2.9-1.89,3.94l-1.63-.79Zm5.77-3.59c.44,1.23,.75,2.82,.75,3.83l-1.65,.22c.02-.99-.24-2.6-.64-3.85l1.54-.2Zm2.64-.15c.62,1.01,1.19,2.38,1.34,3.26l-1.54,.44c-.15-.88-.68-2.27-1.25-3.3l1.45-.4Zm2.93,2.68c-.31-.68-1.03-1.67-1.67-2.35l1.34-.59c.66,.66,1.43,1.61,1.72,2.27l-1.39,.68Z" style="fill: #333;"/>
        </g>
      </g>
      <g>
        <g>
          <rect x="52.78" y="12.16" width="55.77" height="55.77" transform="translate(-4.69 68.77) rotate(-45)" style="fill: none; stroke: #8a202a; stroke-miterlimit: 10; stroke-width: .86px;"/>
          <g>
            <path d="M66.35,39.8c0-5.12,2.12-7.64,5.26-7.64s5.28,2.56,5.28,7.64-2.14,7.8-5.28,7.8-5.26-2.68-5.26-7.8Zm7.18,0c0-4.06-.86-4.9-1.92-4.9s-1.9,.84-1.9,4.9,.84,5.04,1.9,5.04,1.92-.96,1.92-5.04Z" style="fill: #8a202a;"/>
            <path d="M83.27,44.44h3.16v-8.46h-2.74v-2.2c1.6-.3,2.64-.7,3.68-1.34h2.62v12h2.68v2.88h-9.4v-2.88Z" style="fill: #8a202a;"/>
          </g>
        </g>
        <g>
          <path d="M4.03,106.22h4.38v1.63H0v-1.63H3.98c-.33-.81-.99-2.07-1.58-2.97l1.61-.81c.59,.92,1.32,2.09,1.63,2.88l-1.61,.9Zm-3.08,2.93H7.79v1.61H.95v-1.61Zm0,2.9H7.77v1.58H.95v-1.58Zm6.76,9.42H2.73v.99H.97v-7.44H7.7v6.45Zm-4.97-4.8v3.15h3.19v-3.15H2.73Zm17.29-10.36h-3.12v13.6c0,1.25-.31,1.91-1.19,2.22-.88,.35-2.31,.37-4.42,.37-.11-.57-.46-1.54-.81-2.11,1.61,.09,3.26,.07,3.74,.07,.44-.02,.59-.15,.59-.57v-13.58h-5.94v-2h11.16v2Z" style="fill: #333;"/>
          <path d="M48.25,119.79h-8.76v2.93h-2.09v-2.93h-8.54v-1.78h8.54v-1.43h-6.4v-7.9h15.27v7.9h-6.78v1.43h8.76v1.78Zm-10.45-12.1h-7.46v-4.31h7.46v4.31Zm-1.96-2.99h-3.67v1.69h3.67v-1.69Zm-2.84,7.15h4.4v-1.54h-4.4v1.54Zm4.4,3.1v-1.58h-4.4v1.58h4.4Zm9.46-7.26h-7.52v-4.31h7.52v4.31Zm-2.68,2.62h-4.69v1.54h4.69v-1.54Zm0,3.06h-4.69v1.58h4.69v-1.58Zm.75-8.67h-3.74v1.69h3.74v-1.69Z" style="fill: #333;"/>
          <path d="M75.86,120.23c0,1.17-.24,1.8-1.06,2.13-.81,.33-2.13,.35-3.98,.35-.09-.59-.42-1.52-.73-2.09,1.34,.07,2.77,.04,3.17,.04,.4-.02,.53-.13,.53-.46v-4.36c-.46,.4-1.12,1.21-1.45,1.76-2.6-1.41-4.2-3.67-5.15-6.58-.95,3.06-2.64,5.3-5.35,6.71-.24-.44-.81-1.14-1.25-1.56v6.56h-2.07v-15.34h7.88c-.09-.68-.15-1.41-.22-2.13h-3.81v-1.8h5.59c.07,1.41,.18,2.73,.4,3.94h7.5v12.83Zm-15.27-4.18c2.66-1.34,4.31-3.54,5.08-6.65h-5.08v6.65Zm8.21-6.65c.84,2.99,2.36,5.19,5,6.42v-6.42h-5Z" style="fill: #333;"/>
          <path d="M97.24,109.82c-.11,.2-.24,.37-.37,.55,2.46,2.68,5.48,4.36,8.96,5.65-.48,.44-1.03,1.12-1.32,1.69-.88-.37-1.74-.81-2.55-1.23v6.18h-2.09v-.62h-8.32v.68h-2v-5.98c-.86,.46-1.76,.9-2.66,1.25-.29-.51-.84-1.21-1.3-1.65,4.03-1.43,7.83-4.05,9.88-7.31l1.78,.77Zm-8.69-1.1h-2v-4.27h8.3c-.22-.55-.48-1.12-.75-1.63l2.11-.46c.37,.62,.79,1.43,1.06,2.09h7.63v4.27h-2.07v-2.42h-14.28v2.42Zm5.3-.99c-1.41,1.91-3.63,3.74-5.63,4.86-.29-.37-.99-1.19-1.41-1.54,1.94-.92,3.94-2.42,5.13-3.98l1.91,.66Zm6.01,12.52v-3.08h-8.32v3.08h8.32Zm.2-4.88c-1.54-.99-2.93-2.13-4.27-3.56-1.14,1.32-2.51,2.53-3.98,3.56h8.25Zm-1.3-8.27c1.91,1.14,4.4,2.9,5.61,4.14l-1.47,1.32c-1.14-1.21-3.57-3.06-5.54-4.29l1.41-1.17Z" style="fill: #333;"/>
          <path d="M134.25,121.84h-8.52v.9h-1.94v-10.1c-.44,.37-.88,.75-1.34,1.08-.18-.35-.59-1.03-.97-1.5v7.79h-3.74v1.65h-1.74v-6.49c-.31,.51-.59,.99-.95,1.43-.2-.44-.75-1.43-1.12-1.89,1.54-2.09,2.49-5.32,3.04-8.8h-2.46v-1.85h7.2v1.85h-2.77c-.29,1.58-.62,3.1-1.01,4.55h3.56v1.34c1.91-1.32,3.43-3.15,4.55-5.37h-2.16v2.09h-1.74v-3.83h4.69c.24-.7,.51-1.45,.7-2.2l1.91,.42c-.18,.59-.35,1.21-.57,1.78h5.04v3.76h-1.85v-2.02h-3.89c-.48,1.08-1.06,2.09-1.67,3.04h2.4c-.26-.57-.55-1.23-.84-1.74l1.74-.68c.42,.77,.88,1.72,1.14,2.42h2.71v1.72h-3.15v1.89h2.9v1.54h-2.9v1.98h2.9v1.56h-2.9v1.98h3.74v1.69Zm-14.54-9.59h-1.96v5.98h1.96v-5.98Zm8.91-1.06h-2.88v1.89h2.88v-1.89Zm0,3.43h-2.88v1.98h2.88v-1.98Zm-2.88,5.52h2.88v-1.98h-2.88v1.98Z" style="fill: #333;"/>
          <path d="M150.61,107.8h-7.79v-1.63h3.43c-.24-.79-.79-2.05-1.28-2.95l1.72-.62c.55,.92,1.12,2.11,1.39,2.9l-1.69,.66h4.22v1.63Zm-.59,12.1c.66-1.19,1.1-3.04,1.36-4.55l1.43,.42c-.26,1.67-.68,3.67-1.43,4.91l-1.36-.57v1.45h-4.91v.92h-1.72v-7.39h6.62v4.82Zm.09-9.13h-6.69v-1.61h6.69v1.61Zm-6.69,1.32h6.69v1.61h-6.69v-1.61Zm4.86,4.62h-3.17v3.19h3.17v-3.19Zm9.37-11.62c-.44,3.87-1.54,7.13-5.61,9-.22-.46-.73-1.14-1.17-1.47,1.83-.77,2.97-1.8,3.67-3.08-.84-.86-2.13-1.98-3.15-2.82l1.1-1.1c.84,.66,1.91,1.54,2.75,2.27,.26-.88,.42-1.8,.55-2.79h-4.4v-1.72h10.87s0,.55-.04,.81c-.22,5.5-.44,7.53-1.01,8.23-.42,.46-.84,.64-1.47,.73-.55,.07-1.52,.04-2.51,0-.04-.51-.24-1.25-.55-1.76,.92,.09,1.8,.09,2.16,.09,.33,0,.53-.04,.73-.24,.31-.42,.55-2.02,.73-6.14h-2.64Zm.4,15.58c.66,0,.79-.37,.86-2.82,.37,.29,1.12,.57,1.61,.68-.2,2.99-.68,3.74-2.29,3.74h-2.66c-1.92,0-2.35-.53-2.35-2.27v-5.1h1.76v5.08c0,.57,.11,.68,.84,.68h2.25Zm-1.8-7.46c.9,.99,1.94,2.31,2.4,3.17l-1.32,.95c-.42-.92-1.43-2.31-2.31-3.32l1.23-.79Zm5.02,1.23c.81,1.47,1.63,3.39,1.94,4.6l-1.56,.59c-.26-1.21-1.01-3.19-1.8-4.69l1.43-.51Z" style="fill: #333;"/>
        </g>
      </g>
    </g>
    <line x1="146.82" y1="40.24" x2="405.82" y2="40.24" style="fill: none; stroke: #c7ba99; stroke-miterlimit: 10; stroke-width: 2px;"/>
    <line x1="533.82" y1="40.74" x2="792.82" y2="40.74" style="fill: none; stroke: #c7ba99; stroke-miterlimit: 10; stroke-width: 2px;"/>
    <g>
      <rect x="417.39" y="35.79" width="8.52" height="8.52" transform="translate(95.18 309.88) rotate(-45)" style="fill: #8a202a;"/>
      <rect x="517.39" y="35.79" width="8.52" height="8.52" transform="translate(124.47 380.59) rotate(-45)" style="fill: #8a202a;"/>
    </g>
    <g>
      <rect x="801.39" y="35.79" width="8.52" height="8.52" transform="translate(207.65 581.41) rotate(-45)" style="fill: #8a202a;"/>
      <rect x="901.39" y="35.79" width="8.52" height="8.52" transform="translate(236.94 652.12) rotate(-45)" style="fill: #8a202a;"/>
    </g>
    <g>
      <rect x="26.39" y="35.79" width="8.52" height="8.52" transform="translate(-19.34 33.4) rotate(-45)" style="fill: #8a202a;"/>
      <rect x="126.39" y="35.79" width="8.52" height="8.52" transform="translate(9.95 104.11) rotate(-45)" style="fill: #8a202a;"/>
    </g>
  </g>
</svg>