<?xml version="1.0" encoding="UTF-8"?>
<svg id="b" data-name="圖層 2" xmlns="http://www.w3.org/2000/svg" width="326.87" height="70.43" viewBox="0 0 326.87 70.43">
  <g id="c" data-name="頁面">
    <g>
      <rect x="288.67" y="4.83" width="21.6" height="21.6" transform="translate(76.66 216.33) rotate(-45)" style="fill: none; stroke: #8a202a; stroke-miterlimit: 10; stroke-width: .5px;"/>
      <g>
        <path d="M292.37,15.43c0-3.31,1.16-4.91,2.98-4.91s2.96,1.61,2.96,4.91-1.16,4.97-2.96,4.97-2.98-1.65-2.98-4.97Zm4.78,0c0-2.78-.73-3.95-1.81-3.95s-1.82,1.17-1.82,3.95,.73,4.02,1.82,4.02,1.81-1.21,1.81-4.02Z" style="fill: #8a202a;"/>
        <path d="M299.32,19.09l.6-.78c.56,.58,1.29,1.09,2.37,1.09,1.13,0,1.94-.68,1.94-1.77s-.77-1.91-2.96-1.91v-.91c1.96,0,2.64-.79,2.64-1.82,0-.92-.62-1.51-1.61-1.53-.77,.03-1.44,.42-1.98,.95l-.64-.75c.71-.66,1.56-1.14,2.67-1.14,1.6,0,2.77,.86,2.77,2.39,0,1.16-.69,1.92-1.7,2.3v.05c1.13,.26,2.03,1.12,2.03,2.42,0,1.7-1.37,2.72-3.06,2.72-1.49,0-2.43-.62-3.05-1.3Z" style="fill: #8a202a;"/>
      </g>
    </g>
    <g>
      <path d="M282.63,55.32c.49,0,.57-.23,.62-1.72,.22,.17,.61,.31,.88,.38-.12,1.79-.39,2.24-1.42,2.24h-1.99c-1.18,0-1.48-.3-1.48-1.33v-3.24h-2.29c-.2,2.69-.87,4.1-4.1,4.78-.08-.25-.33-.62-.51-.81,2.92-.57,3.47-1.68,3.63-3.98h-3.46v-.92h11.41v.92h-3.73v3.22c0,.38,.09,.44,.62,.44h1.79Zm-8.83-6.44h-.95v-2.85h5.02c-.18-.43-.43-.94-.65-1.33l.96-.27c.31,.49,.65,1.13,.83,1.6h4.58v2.85h-.99v-1.92h-8.8v1.92Zm.91,.35v-.9h7.01v.9h-7.01Z" style="fill: #333;"/>
      <path d="M297.57,48.95c-.56,1.68-1.33,3.16-2.29,4.39,.48,1.27,1.08,2.02,1.74,2.02,.36,0,.52-.68,.61-2.41,.22,.22,.57,.44,.83,.52-.18,2.21-.53,2.85-1.52,2.85s-1.78-.79-2.38-2.13c-.78,.84-1.68,1.57-2.68,2.16-.14-.19-.48-.58-.7-.77,1.16-.62,2.16-1.43,2.99-2.41-.47-1.47-.78-3.38-.95-5.47h-4.49v1.69h3.32v.42c-.07,2.91-.14,4-.42,4.34-.2,.25-.42,.34-.78,.38-.33,.03-.91,.03-1.55,0-.01-.3-.12-.66-.27-.91,.6,.05,1.16,.06,1.38,.06,.18,0,.31-.03,.39-.14,.18-.19,.25-1.01,.3-3.25h-2.37v.1c0,1.82-.2,4.43-1.37,6.12-.17-.19-.58-.53-.81-.65,1.07-1.59,1.18-3.81,1.18-5.49v-3.63h5.42c-.05-.71-.07-1.44-.08-2.18h1c0,.75,.01,1.48,.05,2.18h4.2v.95h-4.13c.13,1.73,.36,3.28,.71,4.51,.7-1.03,1.26-2.2,1.66-3.51l.97,.25Zm-2.25-4.34c.81,.4,1.82,1.03,2.33,1.48l-.6,.66c-.49-.46-1.48-1.12-2.3-1.56l.57-.58Z" style="fill: #333;"/>
      <path d="M301.02,46.75h4.91v.79h-4.91v-.79Zm.55,1.7h3.97v.77h-3.97v-.77Zm0,1.69h3.95v.77h-3.95v-.77Zm3.91,5.49h-3.07v.61h-.83v-4.37h3.9v3.76Zm-3.07-2.95v2.15h2.21v-2.15h-2.21Zm1-6.07c-.17-.48-.6-1.21-.96-1.74l.75-.38c.38,.53,.79,1.21,1,1.66l-.79,.46Zm9.39-.04h-2v8.4c0,.65-.16,.99-.62,1.13-.47,.17-1.27,.18-2.54,.18-.04-.26-.22-.73-.39-.99,1,.04,1.95,.04,2.24,.01,.26-.01,.36-.09,.36-.34v-8.4h-3.64v-.94h6.59v.94Z" style="fill: #333;"/>
      <path d="M326.87,54.58h-5.28v1.83h-.99v-1.83h-5.17v-.84h5.17v-.99h-3.87v-4.52h8.94v4.52h-4.08v.99h5.28v.84Zm-6.23-7.01h-4.26v-2.52h4.26v2.52Zm-.91-1.87h-2.48v1.22h2.48v-1.22Zm-2.07,4.41h2.94v-1.1h-2.94v1.1Zm2.94,1.86v-1.12h-2.94v1.12h2.94Zm4.08-2.96h-3.09v1.1h3.09v-1.1Zm0,1.85h-3.09v1.12h3.09v-1.12Zm1.29-3.28h-4.29v-2.52h4.29v2.52Zm-.9-1.87h-2.51v1.22h2.51v-1.22Z" style="fill: #333;"/>
    </g>
    <g>
      <rect x="16.08" y="4.83" width="21.6" height="21.6" transform="translate(-3.18 23.58) rotate(-45)" style="fill: #8a202a;"/>
      <g>
        <path d="M20.09,16.02c0-3.31,1.16-4.91,2.98-4.91s2.96,1.61,2.96,4.91-1.16,4.97-2.96,4.97-2.98-1.65-2.98-4.97Zm4.78,0c0-2.78-.73-3.95-1.81-3.95s-1.82,1.17-1.82,3.95,.73,4.02,1.82,4.02,1.81-1.21,1.81-4.02Z" style="fill: #fff;"/>
        <path d="M27.81,19.83h2.12v-7.11h-1.69v-.75c.84-.16,1.46-.38,1.98-.68h.91v8.54h1.91v.99h-5.23v-.99Z" style="fill: #fff;"/>
      </g>
    </g>
    <g>
      <path d="M0,46.75H4.91v.79H0v-.79Zm.55,1.7h3.97v.77H.55v-.77Zm0,1.69h3.95v.77H.55v-.77Zm3.91,5.49H1.39v.61H.56v-4.37h3.9v3.76Zm-3.07-2.95v2.15H3.6v-2.15H1.39Zm1-6.07c-.17-.48-.6-1.21-.96-1.74l.75-.38c.38,.53,.79,1.21,1,1.66l-.79,.46Zm9.39-.04h-2v8.4c0,.65-.16,.99-.62,1.13-.47,.17-1.27,.18-2.54,.18-.04-.26-.22-.73-.39-.99,1,.04,1.95,.04,2.24,.01,.26-.01,.36-.09,.36-.34v-8.4h-3.64v-.94h6.59v.94Z" style="fill: #333;"/>
      <path d="M25.86,54.58h-5.28v1.83h-.99v-1.83h-5.17v-.84h5.17v-.99h-3.87v-4.52h8.94v4.52h-4.08v.99h5.28v.84Zm-6.23-7.01h-4.26v-2.52h4.26v2.52Zm-.91-1.87h-2.48v1.22h2.48v-1.22Zm-2.07,4.41h2.94v-1.1h-2.94v1.1Zm2.94,1.86v-1.12h-2.94v1.12h2.94Zm4.08-2.96h-3.09v1.1h3.09v-1.1Zm0,1.85h-3.09v1.12h3.09v-1.12Zm1.29-3.28h-4.29v-2.52h4.29v2.52Zm-.9-1.87h-2.51v1.22h2.51v-1.22Z" style="fill: #333;"/>
      <path d="M39.53,55.15c0,.61-.13,.92-.56,1.09-.44,.16-1.18,.16-2.29,.16-.04-.27-.18-.72-.33-.98,.84,.03,1.65,.03,1.91,.01,.23-.01,.29-.08,.29-.29v-6.77h-3.32c.49,1.99,1.47,3.42,3.17,4.15-.21,.21-.52,.58-.68,.84-1.7-.84-2.7-2.3-3.26-4.25-.55,1.99-1.61,3.43-3.34,4.32-.14-.22-.44-.58-.65-.77,1.74-.85,2.81-2.25,3.25-4.29h-3.38v8.03h-.96v-8.98h4.73c-.07-.46-.12-.94-.14-1.44h-2.34v-.86h3.16c.04,.82,.12,1.59,.23,2.3h4.5v7.72Z" style="fill: #333;"/>
      <path d="M49.5,48.74c-.08,.1-.16,.22-.25,.34,1.47,1.66,3.3,2.68,5.38,3.5-.22,.21-.48,.55-.62,.82-.57-.25-1.13-.53-1.66-.83v3.82h-.97v-.39h-5.33v.44h-.94v-3.73c-.56,.33-1.14,.61-1.74,.85-.14-.23-.39-.56-.61-.78,2.38-.88,4.67-2.5,5.9-4.41l.84,.38Zm-5.23-.65h-.94v-2.35h5.04c-.14-.34-.34-.74-.52-1.05l.99-.23c.23,.39,.51,.9,.66,1.29h4.59v2.35h-.98v-1.47h-8.85v1.47Zm3.17-.56c-.86,1.13-2.17,2.2-3.35,2.87-.14-.18-.47-.56-.68-.73,1.16-.58,2.38-1.5,3.13-2.44l.9,.3Zm3.93,7.59v-2.17h-5.33v2.17h5.33Zm.17-3.04c-1.01-.64-1.94-1.39-2.79-2.33-.74,.86-1.65,1.65-2.64,2.33h5.43Zm-1.07-4.84c1.18,.7,2.68,1.75,3.39,2.5l-.68,.64c-.7-.74-2.16-1.85-3.35-2.59l.64-.55Z" style="fill: #333;"/>
      <path d="M25.99,69.87h-5.25v.56h-.91v-6.2c-.27,.26-.58,.51-.88,.74-.1-.2-.36-.56-.56-.75v4.52h-2.29v1.05h-.83v-4.25c-.21,.39-.43,.78-.68,1.1-.1-.19-.38-.64-.56-.83,.94-1.33,1.51-3.31,1.85-5.46h-1.53v-.88h4.26v.88h-1.79c-.17,1-.38,1.99-.65,2.89h2.22v.91c1.2-.83,2.16-2.03,2.86-3.44h-1.52v1.39h-.85v-2.22h2.76c.17-.43,.33-.88,.46-1.34l.91,.18c-.12,.39-.25,.79-.4,1.16h3.11v2.2h-.87v-1.36h-2.57c-.33,.7-.69,1.35-1.11,1.95h1.69c-.17-.39-.38-.83-.56-1.2l.81-.33c.26,.48,.57,1.08,.73,1.52h1.78v.82h-2.03v1.31h1.86v.75h-1.86v1.38h1.86v.75h-1.86v1.36h2.42v.83Zm-8.45-5.79h-1.44v3.8h1.44v-3.8Zm5.14-.61h-1.94v1.31h1.94v-1.31Zm0,2.07h-1.94v1.38h1.94v-1.38Zm-1.94,3.5h1.94v-1.36h-1.94v1.36Z" style="fill: #333;"/>
      <path d="M33.06,61.51h-4.58v-.81h4.58v.81Zm-.31,1.72h-3.93v-.77h3.93v.77Zm-3.93,.95h3.93v.78h-3.93v-.78Zm3.86,5.51h-3.04v.6h-.82v-4.35h3.86v3.76Zm-3.04-2.96v2.17h2.21v-2.17h-2.21Zm.98-6.1c-.14-.47-.49-1.21-.81-1.77l.82-.29c.34,.53,.68,1.25,.86,1.72l-.87,.34Zm2.09,8.23c.44-.7,.75-1.85,.91-2.73l.69,.21c-.17,.94-.45,2.12-.9,2.83l-.7-.31Zm4.39-8.96c-.23,2.34-.88,4.28-3.28,5.36-.1-.22-.36-.55-.56-.69,1.16-.49,1.86-1.18,2.29-2.05-.48-.49-1.27-1.18-1.88-1.69l.51-.55c.55,.43,1.22,.99,1.72,1.42,.17-.56,.26-1.16,.32-1.79h-2.68v-.83h6.33s-.01,.29-.01,.42c-.14,3.29-.29,4.46-.6,4.86-.22,.26-.47,.35-.82,.38-.33,.03-.9,.03-1.47,0-.03-.26-.12-.61-.27-.86,.6,.05,1.14,.07,1.35,.07s.31-.03,.43-.16c.21-.23,.34-1.25,.44-3.87h-1.82Zm.43,9.46c.43,0,.51-.22,.55-1.73,.18,.14,.53,.27,.77,.32-.09,1.77-.33,2.18-1.22,2.18h-1.69c-1.03,0-1.29-.26-1.29-1.16v-3.16h.84v3.16c0,.31,.09,.38,.53,.38h1.51Zm-1.24-4.47c.55,.57,1.14,1.37,1.43,1.86l-.64,.44c-.27-.51-.86-1.33-1.39-1.92l.6-.38Zm3.02,.71c.47,.86,.96,1.99,1.14,2.68l-.74,.29c-.18-.7-.64-1.86-1.09-2.73l.69-.23Z" style="fill: #333;"/>
    </g>
    <line x1="192.7" y1="15.7" x2="271.74" y2="15.7" style="fill: none; stroke: #c7ba99; stroke-miterlimit: 10; stroke-width: .5px;"/>
    <line x1="53.85" y1="15.7" x2="137.15" y2="15.7" style="fill: none; stroke: #c7ba99; stroke-miterlimit: 10; stroke-width: .5px;"/>
    <g>
      <path d="M140.27,44.94c-.39,.97-.84,1.94-1.38,2.83v8.62h-.96v-7.12c-.42,.58-.87,1.12-1.31,1.57-.12-.22-.42-.73-.6-.95,1.33-1.26,2.56-3.24,3.3-5.25l.95,.3Zm7.55,3.46h-1.64v6.71c0,.73-.21,1.03-.69,1.17-.51,.16-1.38,.17-2.78,.16-.05-.25-.23-.69-.38-.95,1.09,.04,2.16,.04,2.47,.03,.29-.03,.4-.1,.4-.4v-6.71h-5.24v-.96h5.24v-2.73h.98v2.73h1.64v.96Zm-5.15,4.99c-.39-.81-1.22-2.2-1.88-3.24l.83-.39c.68,1,1.53,2.35,1.95,3.15l-.9,.48Z" style="fill: #333;"/>
      <path d="M152.23,52.79c-.33,.94-.81,2.04-1.22,2.76-.2-.1-.56-.29-.77-.36,.46-.7,.88-1.7,1.18-2.6l.81,.21Zm1.7-.65v4.28h-.91v-4.28h-2.69v-.83h6.23v.83h-2.63Zm-.92-5.54h-2.52v-.82h2.52v-1.18h.91v1.18h2.52v.82h-2.52v1.12h2.26v.81h-5.4v-.81h2.22v-1.12Zm3.03,3.21c.81-1.27,1.27-3.25,1.52-5.25l.95,.12c-.1,.75-.25,1.51-.42,2.21h3.2l.17-.04,.65,.21c-.25,1.16-.61,2.51-.96,3.37l-.79-.25c.25-.61,.48-1.55,.66-2.39h-3.15c-.3,1.03-.65,1.95-1.09,2.67-.17-.14-.52-.39-.75-.55v.4h-5.11v-.82h5.11v.33Zm-.62,2.77c.38,.64,.81,1.51,1,2.02l-.77,.36c-.2-.53-.6-1.42-.95-2.09l.71-.29Zm4.07-3.22c0,.38-.01,.79-.04,1.22,.46,2.25,1.38,4.21,2.9,5.04-.21,.18-.51,.55-.64,.79-1.24-.75-2.04-2.13-2.59-3.85-.34,1.33-1,2.69-2.3,3.87-.17-.21-.49-.49-.74-.64,2.31-2.07,2.48-4.69,2.48-6.46v-.6h.92v.61Z" style="fill: #333;"/>
      <path d="M169.58,47.74c-.04,.68-.09,1.36-.18,2.05h5.53s-.01,.33-.04,.47c-.25,3.65-.51,5.06-1.01,5.56-.31,.33-.61,.42-1.12,.46-.46,.03-1.3,.01-2.17-.05-.03-.29-.16-.68-.34-.94,.92,.08,1.83,.09,2.17,.09,.3,0,.47-.03,.61-.14,.39-.34,.64-1.59,.86-4.51h-4.63c-.42,2.29-1.39,4.43-3.84,5.73-.16-.26-.45-.6-.7-.78,3.31-1.65,3.65-4.98,3.8-7.94h-3.51v-.95h5.68c-.17-.52-.55-1.35-.88-1.95l.92-.36c.35,.61,.75,1.39,.94,1.92l-.9,.39h5.42v.95h-6.6Z" style="fill: #333;"/>
      <path d="M186.83,47.91c.33,4.37,1.34,7.53,2.63,7.53,.35,0,.51-.72,.58-2.44,.22,.22,.58,.43,.86,.53-.17,2.25-.53,2.91-1.52,2.91-2.11,0-3.19-3.73-3.54-8.53h-6.71v-.95h6.64c-.04-.77-.05-1.56-.06-2.35h1.01c0,.81,.01,1.59,.05,2.35h3.85v.95h-3.8Zm-3.98,6.42c.91-.2,1.85-.38,2.78-.59l.08,.86c-2.2,.52-4.58,1.07-6.23,1.43l-.3-.95c.73-.14,1.68-.34,2.72-.55v-3.77h-2.31v-.94h5.69v.94h-2.43v3.56Zm6.57-7.53c-.38-.46-1.18-1.16-1.85-1.62l.65-.53c.66,.44,1.48,1.1,1.87,1.55l-.68,.61Z" style="fill: #333;"/>
      <path d="M140.68,66.49v.9h-11.71v-.9h1.31l-.25-6.86c.81-.29,1.78-.68,2.41-1l.47,.79c-.6,.25-1.31,.49-1.98,.7l.05,1.52h1.74v.83h-1.72l.05,1.59h1.72v.83h-1.68l.05,1.6h7.37c.03-.46,.07-1,.09-1.56h-1.69v-.82h1.72c.03-.52,.04-1.05,.07-1.6h-1.72v-.83h1.73c.01-.56,.03-1.11,.03-1.63h-1.87v-.84h2.76c-.01,2.27-.08,5.36-.2,7.28h1.25Zm-7.1,1.69c-1.07,.81-2.61,1.68-3.88,2.22-.13-.19-.39-.52-.57-.73,1.23-.51,2.79-1.37,3.61-2.08l.83,.58Zm1-4.65c-.13,.91-.4,1.81-.79,2.43-.14-.12-.48-.32-.68-.42,.4-.57,.6-1.35,.72-2.15l.75,.13Zm.9-.69h-2.07v-4.2h.84v1.21h2.14v.82h-2.14v1.39h1.7s.35,.01,.35,.01v3.42c0,.4-.08,.57-.36,.7-.29,.12-.74,.12-1.36,.12-.04-.21-.14-.47-.25-.66,.46,.03,.84,.03,.97,.01,.14,0,.17-.05,.17-.17v-2.65Zm1.12,4.72c1.38,.65,2.86,1.46,3.78,2.08l-.64,.73c-.88-.62-2.33-1.48-3.68-2.15l.53-.66Z" style="fill: #333;"/>
      <path d="M147.02,62.12h-3.72v-.78h3.72v.78Zm1.03,6.71c-1.04,.62-2.68,1.24-3.96,1.59-.17-.2-.49-.56-.71-.73,1.33-.27,2.89-.74,3.81-1.25l.87,.39Zm-1.35-8.75h-3.11v-.75h3.11v.75Zm-1.69,3.06h8.41v5.21h-8.41v-5.21Zm.94,1.53h6.51v-.88h-6.51v.88Zm0,1.51h6.51v-.88h-6.51v.88Zm0,1.53h6.51v-.91h-6.51v.91Zm3.12-7.53c-.29,.49-.62,.95-.98,1.3-.16-.14-.52-.39-.73-.49,.68-.61,1.21-1.52,1.5-2.47l.87,.19c-.08,.25-.18,.48-.27,.71h4.36l.16-.04,.65,.22c-.33,.66-.74,1.42-1.09,1.87l-.77-.27c.2-.27,.43-.65,.61-1.03h-2.07v.17c0,.13-.01,.27-.04,.43,.69,.78,2.11,1.29,3.81,1.43-.18,.18-.43,.53-.55,.77-1.48-.21-2.73-.73-3.54-1.52-.43,.64-1.46,1.23-3.74,1.59-.1-.21-.35-.56-.52-.71,3.37-.46,3.68-1.34,3.68-2.02v-.13h-1.34Zm1.95,8.24c1.39,.43,2.91,.99,3.82,1.4l-.84,.56c-.83-.42-2.24-.98-3.64-1.44l.66-.52Z" style="fill: #333;"/>
      <path d="M159.4,64.77c-.27,1.44-.82,3.26-1.5,4.2-.1-.33-.33-.78-.51-1.07,.55-.75,1.08-2.2,1.3-3.35l.7,.22Zm1.16-.98v6.63h-.9v-6.63h-2.08v-.91h2.08v-4.33h.9v4.33h2.12v.91h-2.12Zm-2.17-1.36c-.08-.77-.38-1.96-.71-2.87l.7-.17c.38,.9,.68,2.07,.77,2.85l-.75,.2Zm2.77,2.13c.25,.38,1.18,2.15,1.38,2.59l-.69,.71c-.23-.7-.95-2.37-1.22-2.93l.53-.38Zm1.52-5.02c-.31,.98-.71,2.18-1.07,2.91l-.64-.21c.31-.77,.68-2.04,.87-2.91l.83,.21Zm5.07,7.22v3.65h-.91v-3.48l-4.03,.74-.16-.91,4.19-.74v-7.46h.91v7.29l1.53-.27,.14,.88-1.68,.3Zm-2.64-1.82c-.44-.47-1.38-1.13-2.15-1.56l.46-.68c.77,.4,1.72,1,2.17,1.46l-.48,.78Zm.56-3.15c-.42-.49-1.3-1.2-2.04-1.68l.49-.65c.73,.44,1.62,1.1,2.04,1.59l-.49,.74Z" style="fill: #333;"/>
      <path d="M175.69,67.07c-1.26,.55-2.59,1.12-3.63,1.53l-.36-.96c.44-.13,.96-.32,1.55-.55v-4.52h-1.46v-.92h1.46v-2.95h.94v2.95h1.46v.92h-1.46v4.16c.44-.16,.9-.34,1.34-.52l.17,.86Zm3.32,1.5c-.82,.68-2.05,1.4-3.03,1.86-.12-.19-.4-.48-.6-.68,.96-.43,2.18-1.14,2.79-1.73l.83,.55Zm4.65-1.42v.84h-8.07v-.84h1.16v-5.73h1.91c.06-.27,.13-.56,.18-.87h-2.76v-.79h2.9c.08-.42,.13-.83,.17-1.18l1.03,.06c-.08,.35-.16,.74-.25,1.12h3.38v.79h-3.56c-.08,.31-.16,.6-.23,.87h2.96v5.73h1.18Zm-6.06-5.06v.83h3.99v-.83h-3.99Zm3.99,1.42h-3.99v.77h3.99v-.77Zm-3.99,2.17h3.99v-.81h-3.99v.81Zm0,1.47h3.99v-.87h-3.99v.87Zm3.29,.86c.87,.49,2.01,1.25,2.57,1.74l-.64,.68c-.55-.51-1.65-1.3-2.54-1.83l.6-.58Z" style="fill: #333;"/>
      <path d="M197.14,66.22s-.01,.27-.03,.4c-.14,2.21-.29,3.11-.61,3.43-.21,.25-.46,.33-.81,.34-.33,.04-.95,.03-1.59-.01-.03-.26-.12-.61-.27-.85,.64,.05,1.22,.06,1.44,.05,.22,.01,.34,0,.44-.1,.18-.21,.31-.87,.43-2.47h-6.99c-.74,.61-1.6,1.12-2.46,1.51-.12-.19-.4-.58-.57-.77,1.33-.52,2.67-1.35,3.48-2.37h-1.53v-3.67c1.07-.22,2.3-.55,3.03-.84l.6,.61c-.78,.3-1.81,.55-2.76,.74v.87h2.52v.69h-2.52v.9h6.11v-.9h-2.47v-.69h2.47v-.86h-2.69v-.71h3.58v3.86h-5.27c-.2,.29-.42,.57-.68,.83h7.14Zm.38-6.6v2.28h-.92v-1.43h-9.17v1.44h-.9v-2.29h4.97c-.13-.3-.29-.58-.43-.84l.96-.27c.21,.34,.43,.77,.58,1.12h4.9Zm-9.74,10.1c.52-.58,.96-1.56,1.21-2.3l.77,.31c-.27,.77-.68,1.74-1.2,2.37l-.78-.38Zm3.29-2.2c.26,.71,.47,1.66,.47,2.25l-.79,.12c.01-.6-.18-1.55-.43-2.28l.75-.09Zm1.57-.1c.4,.61,.77,1.43,.88,1.96l-.74,.23c-.12-.53-.46-1.38-.85-2l.7-.19Zm2.03,1.64c-.2-.43-.66-1.04-1.09-1.47l.64-.3c.44,.4,.94,1,1.13,1.42l-.68,.35Z" style="fill: #333;"/>
    </g>
    <g>
      <g>
        <rect x="153.99" y="4.83" width="21.6" height="21.6" transform="translate(37.21 121.1) rotate(-45)" style="fill: none; stroke: #8a202a; stroke-miterlimit: 10; stroke-width: .5px;"/>
        <g>
          <path d="M157.68,15.43c0-3.31,1.16-4.91,2.98-4.91s2.96,1.61,2.96,4.91-1.16,4.97-2.96,4.97-2.98-1.65-2.98-4.97Zm4.78,0c0-2.78-.73-3.95-1.81-3.95s-1.82,1.17-1.82,3.95,.73,4.02,1.82,4.02,1.81-1.21,1.81-4.02Z" style="fill: #8a202a;"/>
          <path d="M164.83,19.52c2.99-2.61,4.37-4.51,4.37-6.15,0-1.09-.57-1.89-1.75-1.89-.78,0-1.46,.48-1.98,1.1l-.69-.68c.78-.85,1.6-1.4,2.81-1.4,1.7,0,2.77,1.12,2.77,2.82,0,1.9-1.5,3.83-3.73,5.95,.49-.04,1.08-.09,1.56-.09h2.64v1.03h-5.99v-.7Z" style="fill: #8a202a;"/>
        </g>
      </g>
      <g>
        <rect x="143.77" y="13.98" width="3.3" height="3.3" transform="translate(31.54 107.41) rotate(-45)" style="fill: #8a202a;"/>
        <rect x="182.5" y="13.98" width="3.3" height="3.3" transform="translate(42.89 134.79) rotate(-45)" style="fill: #8a202a;"/>
      </g>
    </g>
    <g>
      <rect x="278.45" y="13.98" width="3.3" height="3.3" transform="translate(70.99 202.64) rotate(-45)" style="fill: #8a202a;"/>
      <rect x="317.18" y="13.98" width="3.3" height="3.3" transform="translate(82.33 230.02) rotate(-45)" style="fill: #8a202a;"/>
    </g>
    <g>
      <rect x="5.86" y="13.98" width="3.3" height="3.3" transform="translate(-8.85 9.88) rotate(-45)" style="fill: #8a202a;"/>
      <rect x="44.58" y="13.98" width="3.3" height="3.3" transform="translate(2.49 37.27) rotate(-45)" style="fill: #8a202a;"/>
    </g>
  </g>
</svg>