<?xml version="1.0" encoding="UTF-8"?>
<svg id="b" data-name="圖層 2" xmlns="http://www.w3.org/2000/svg" width="907.92" height="122.88" viewBox="0 0 907.92 122.88">
  <g id="c" data-name="圖層 1">
    <g>
      <g>
        <g>
          <rect x="823.88" y="12.26" width="55.77" height="55.77" transform="translate(221.09 614.05) rotate(-45)" style="fill: none; stroke: #8a202a; stroke-miterlimit: 10;"/>
          <g>
            <path d="M837.45,39.9c0-5.12,2.12-7.64,5.26-7.64s5.28,2.56,5.28,7.64-2.14,7.8-5.28,7.8-5.26-2.68-5.26-7.8Zm7.18,0c0-4.06-.86-4.9-1.92-4.9s-1.9,.84-1.9,4.9,.84,5.04,1.9,5.04,1.92-.96,1.92-5.04Z" style="fill: #8a202a;"/>
            <path d="M853.29,45.62l1.64-2.24c.9,.86,1.94,1.44,3.1,1.44,1.38,0,2.28-.58,2.28-1.7,0-1.28-.68-2.04-3.8-2.04v-2.5c2.54,0,3.34-.78,3.34-1.96,0-1.02-.6-1.58-1.7-1.58-1,0-1.76,.46-2.66,1.24l-1.8-2.18c1.38-1.16,2.86-1.84,4.62-1.84,3.08,0,5.1,1.44,5.1,4.1,0,1.48-.8,2.64-2.4,3.28v.1c1.66,.5,2.88,1.7,2.88,3.62,0,2.78-2.54,4.34-5.5,4.34-2.36,0-4.02-.82-5.1-2.08Z" style="fill: #8a202a;"/>
          </g>
        </g>
        <g>
          <path d="M818.98,120.68c.68,0,.8-.34,.88-2.54,.42,.32,1.2,.62,1.68,.74-.2,2.8-.7,3.5-2.4,3.5h-2.82c-2.04,0-2.52-.54-2.52-2.38v-4.48h-3.14c-.28,4-1.28,6.14-6.34,7.18-.16-.48-.64-1.2-.98-1.58,4.46-.8,5.2-2.34,5.42-5.6h-5.16v-1.74h17.62v1.74h-5.54v4.48c0,.6,.12,.68,.88,.68h2.42Zm-13.06-9.54h-1.86v-4.64h7.5c-.22-.6-.54-1.28-.84-1.82l1.88-.56c.44,.72,.9,1.64,1.18,2.38h6.94v4.64h-1.92v-2.86h-12.88v2.86Zm1.18,.68v-1.7h10.54v1.7h-10.54Z" style="fill: #333;"/>
          <path d="M846.28,111.14c-.84,2.58-2.02,4.84-3.48,6.76,.68,1.7,1.46,2.74,2.3,2.74,.52,0,.76-1.02,.88-3.6,.44,.44,1.1,.86,1.6,1.04-.3,3.52-.98,4.46-2.62,4.46-1.46,0-2.62-1.12-3.52-3-1.14,1.2-2.4,2.22-3.78,3.06-.28-.4-.94-1.18-1.36-1.52,1.66-.92,3.14-2.08,4.36-3.5-.72-2.26-1.18-5.12-1.42-8.24h-6.4v2.42h5.02v.72c-.1,4.34-.2,6.06-.62,6.62-.36,.42-.74,.58-1.28,.64-.5,.08-1.4,.08-2.36,.04-.04-.54-.22-1.26-.5-1.74,.82,.08,1.6,.1,1.92,.1,.28,0,.48-.06,.62-.24,.22-.28,.34-1.42,.4-4.44h-3.2c-.02,2.84-.36,6.84-2.12,9.42-.32-.38-1.14-1.04-1.56-1.28,1.6-2.4,1.74-5.84,1.74-8.42v-5.66h8.22c-.06-1.04-.1-2.12-.1-3.18h1.96c-.02,1.08,0,2.14,.06,3.18h3.86c-.78-.66-2.08-1.52-3.14-2.1l1.12-1.14c1.18,.62,2.68,1.54,3.46,2.22l-.96,1.02h2.04v1.82h-6.28c.2,2.38,.52,4.54,.98,6.32,.96-1.48,1.7-3.14,2.28-4.98l1.88,.46Z" style="fill: #333;"/>
          <path d="M859.06,107.66h3.98v1.48h-7.64v-1.48h3.62c-.3-.74-.9-1.88-1.44-2.7l1.46-.74c.54,.84,1.2,1.9,1.48,2.62l-1.46,.82Zm-2.8,2.66h6.22v1.46h-6.22v-1.46Zm0,2.64h6.2v1.44h-6.2v-1.44Zm6.14,8.56h-4.52v.9h-1.6v-6.76h6.12v5.86Zm-4.52-4.36v2.86h2.9v-2.86h-2.9Zm15.72-9.42h-2.84v12.36c0,1.14-.28,1.74-1.08,2.02-.8,.32-2.1,.34-4.02,.34-.1-.52-.42-1.4-.74-1.92,1.46,.08,2.96,.06,3.4,.06,.4-.02,.54-.14,.54-.52v-12.34h-5.4v-1.82h10.14v1.82Z" style="fill: #333;"/>
          <path d="M899.26,120h-7.96v2.66h-1.9v-2.66h-7.76v-1.62h7.76v-1.3h-5.82v-7.18h13.88v7.18h-6.16v1.3h7.96v1.62Zm-9.5-11h-6.78v-3.92h6.78v3.92Zm-1.78-2.72h-3.34v1.54h3.34v-1.54Zm-2.58,6.5h4v-1.4h-4v1.4Zm4,2.82v-1.44h-4v1.44h4Zm8.6-6.6h-6.84v-3.92h6.84v3.92Zm-2.44,2.38h-4.26v1.4h4.26v-1.4Zm0,2.78h-4.26v1.44h4.26v-1.44Zm.68-7.88h-3.4v1.54h3.4v-1.54Z" style="fill: #333;"/>
        </g>
      </g>
      <g>
        <g>
          <rect x="439.86" y="12.26" width="55.77" height="55.77" transform="translate(108.61 342.51) rotate(-45)" style="fill: #8a202a;"/>
          <g>
            <path d="M453.43,39.9c0-5.12,2.12-7.64,5.26-7.64s5.28,2.56,5.28,7.64-2.14,7.8-5.28,7.8-5.26-2.68-5.26-7.8Zm7.18,0c0-4.06-.86-4.9-1.92-4.9s-1.9,.84-1.9,4.9,.84,5.04,1.9,5.04,1.92-.96,1.92-5.04Z" style="fill: #fff8eb;"/>
            <path d="M469.63,45.38c3.72-3.38,6.22-6.08,6.22-8.24,0-1.36-.76-2.1-1.94-2.1-1.02,0-1.82,.68-2.52,1.44l-1.94-1.92c1.46-1.54,2.82-2.3,4.94-2.3,2.88,0,4.88,1.84,4.88,4.68,0,2.56-2.2,5.38-4.48,7.68,.74-.1,1.76-.2,2.42-.2h2.74v3h-10.32v-2.04Z" style="fill: #fff8eb;"/>
          </g>
        </g>
        <g>
          <path d="M359.04,105.02c-.56,1.42-1.24,2.88-2.02,4.22v13.4h-1.88v-10.5c-.56,.76-1.16,1.46-1.76,2.06-.2-.44-.76-1.44-1.12-1.9,1.98-1.9,3.84-4.84,4.94-7.86l1.84,.58Zm11.56,5.52h-2.38v9.76c0,1.3-.34,1.82-1.18,2.1-.84,.3-2.24,.34-4.42,.32-.1-.52-.44-1.36-.72-1.86,1.62,.08,3.28,.06,3.76,.04,.46-.02,.64-.16,.64-.6v-9.76h-7.82v-1.86h7.82v-4.14h1.92v4.14h2.38v1.86Zm-8.28,7.48c-.54-1.24-1.78-3.34-2.74-4.9l1.62-.76c.96,1.5,2.26,3.52,2.86,4.72l-1.74,.94Z" style="fill: #333;"/>
          <path d="M381.34,117.08c-.48,1.48-1.16,3.14-1.76,4.24-.34-.22-1.04-.54-1.46-.68,.66-1.04,1.28-2.58,1.68-3.94l1.54,.38Zm2.72-.92v6.5h-1.76v-6.5h-4v-1.54h9.66v1.54h-3.9Zm-1.78-8.54h-3.72v-1.52h3.72v-1.66h1.74v1.66h3.74v1.52h-3.74v1.42h3.32v1.52h-8.32v-1.52h3.26v-1.42Zm4.86,4.58c1.16-1.98,1.82-4.86,2.18-7.84l1.82,.24c-.16,1.14-.36,2.26-.6,3.32h4.5l.28-.08,1.26,.38c-.36,1.86-.94,3.98-1.46,5.36l-1.52-.46c.32-.92,.66-2.22,.9-3.52h-4.38c-.46,1.56-1,2.92-1.66,4.02-.28-.26-.88-.68-1.32-.96v.68h-7.94v-1.52h7.94v.38Zm-.8,4.48c.54,.98,1.16,2.3,1.44,3.08l-1.5,.68c-.24-.84-.82-2.18-1.34-3.2l1.4-.56Zm6.26-4.7c0,.58-.02,1.2-.06,1.9,.66,3.2,2.06,5.98,4.36,7.2-.42,.38-.98,1.08-1.26,1.56-1.74-1.08-2.94-2.94-3.74-5.26-.58,1.84-1.58,3.72-3.38,5.34-.32-.4-.96-1-1.42-1.26,3.44-3.02,3.74-6.92,3.74-9.54v-.92h1.76v.98Z" style="fill: #333;"/>
          <path d="M412.12,109.46c-.06,.94-.12,1.9-.24,2.84h8.5s-.02,.58-.08,.84c-.38,5.52-.76,7.72-1.56,8.54-.54,.54-1.06,.7-1.9,.78-.74,.06-2.04,.04-3.38-.04-.02-.54-.28-1.3-.66-1.82,1.42,.12,2.78,.14,3.34,.14,.44,0,.7-.04,.96-.24,.56-.46,.92-2.32,1.24-6.4h-6.74c-.64,3.44-2.1,6.66-5.8,8.66-.28-.5-.86-1.14-1.36-1.52,4.96-2.52,5.42-7.38,5.62-11.78h-5.24v-1.82h8.56c-.26-.8-.8-1.94-1.26-2.8l1.82-.68c.52,.9,1.14,2.1,1.42,2.9l-1.34,.58h8.22v1.82h-10.12Z" style="fill: #333;"/>
          <path d="M442.76,109.7c.44,6.3,1.84,11.06,3.58,11.06,.48,0,.72-1.08,.84-3.68,.42,.44,1.12,.88,1.64,1.06-.32,3.6-.98,4.58-2.64,4.58-3.3,0-4.88-5.82-5.38-13.02h-10.14v-1.82h10.02c-.04-1.14-.08-2.3-.08-3.46h2c-.02,1.16,0,2.34,.04,3.46h5.74v1.82h-5.62Zm-6.2,9.44c1.32-.24,2.68-.52,4.02-.8l.14,1.68c-3.32,.76-6.9,1.54-9.46,2.1l-.54-1.88c1.08-.18,2.46-.44,3.98-.72v-5.36h-3.32v-1.8h8.68v1.8h-3.5v4.98Zm8.34-14.72c.98,.64,2.2,1.62,2.78,2.3l-1.3,1.16c-.56-.7-1.72-1.74-2.7-2.44l1.22-1.02Z" style="fill: #333;"/>
          <path d="M474.54,118.06h-18.04v-1.72h1.9l-.36-10.42c1.26-.4,2.74-1,3.72-1.48l.86,1.5c-.88,.36-1.9,.66-2.86,.94l.06,2.14h2.48v1.54h-2.42l.08,2.1h2.42v1.56h-2.38l.08,2.12h10.88c.04-.62,.08-1.32,.12-2.06h-2.36v-1.54h2.44c.02-.7,.04-1.42,.06-2.14h-2.36v-1.54h2.4c.02-.72,.04-1.46,.04-2.16h-2.64v-1.62h4.34c-.02,3.52-.12,8.1-.3,11.06h1.84v1.72Zm-10.8,1.28c-1.66,1.18-4.08,2.48-6.02,3.3-.22-.38-.72-1.02-1.06-1.4,1.88-.72,4.3-2.04,5.54-3.08l1.54,1.18Zm1.42-7.44c-.2,1.36-.58,2.7-1.14,3.6-.28-.2-.88-.6-1.22-.76,.56-.82,.8-1.92,.92-3.06l1.44,.22Zm1.18-.94h-3.1v-6.48h1.6v1.64h3.2v1.54h-3.2v1.84h2.44v.02h.62v5.14c0,.7-.14,1.02-.6,1.22-.5,.22-1.2,.22-2.18,.22-.06-.38-.26-.86-.44-1.2,.64,.02,1.22,.02,1.4,0,.2,0,.26-.06,.26-.22v-3.72Zm6.48,11.62c-1.3-.92-3.5-2.22-5.56-3.2l1.04-1.32c2.08,.98,4.36,2.22,5.74,3.12l-1.22,1.4Z" style="fill: #333;"/>
          <path d="M494.82,107.32c0,.14,0,.3-.04,.48,1.08,1.1,3.22,1.78,5.86,1.94-.36,.38-.82,1.04-1,1.52-2.28-.32-4.1-1.04-5.36-2.2-.72,.92-2.3,1.78-5.74,2.26-.18-.42-.6-1.04-.94-1.38h-5.08v-1.46h5.8v1.32c4.34-.56,4.8-1.68,4.8-2.54v-.26h-1.66c-.44,.72-.94,1.36-1.46,1.86-.3-.26-.98-.74-1.4-.94,1.04-.9,1.86-2.28,2.3-3.68l1.66,.36c-.12,.34-.24,.66-.38,1h6.24l.26-.08,1.28,.42c-.5,1.06-1.18,2.22-1.74,2.96l-1.46-.52c.26-.36,.56-.88,.84-1.38h-2.78v.32Zm-.16,12.12c2.06,.68,4.28,1.52,5.64,2.18l-1.68,1.02c-1.22-.66-3.32-1.56-5.38-2.26l1.16-.94h-5.98l1.66,.76c-1.62,.98-4.12,1.94-6.12,2.5-.32-.38-.98-1.06-1.38-1.4,2.04-.4,4.38-1.08,5.76-1.86h-3.22v-8.04h13.04v8.04h-3.5Zm-6.82-12.62h-4.9v-1.4h4.9v1.4Zm-.92,6.9h9.38v-1.14h-9.38v1.14Zm0,2.24h9.38v-1.12h-9.38v1.12Zm0,2.3h9.38v-1.16h-9.38v1.16Z" style="fill: #333;"/>
          <path d="M511.44,114.14c-.4,2.24-1.24,5.04-2.38,6.48-.16-.62-.56-1.56-.88-2.16,.82-1.1,1.62-3.14,1.94-4.8l1.32,.48Zm2.68-.44c.42,.58,1.86,3.2,2.16,3.82l-1.3,1.42c-.32-1.02-1.16-2.98-1.68-4.08v7.82h-1.74v-9.98h-3.1v-1.74h3.1v-6.62h1.74v6.62h3.12v1.74h-3.12v1.6l.82-.6Zm-4.58-3.28c-.08-1.2-.52-3.08-1-4.5l1.32-.34c.56,1.42,.98,3.26,1.1,4.48l-1.42,.36Zm7.04-4.54c-.52,1.52-1.12,3.38-1.64,4.52l-1.18-.36c.42-1.2,.96-3.18,1.2-4.52l1.62,.36Zm7.74,11.28v5.52h-1.74v-5.2l-5.92,1.08-.3-1.72,6.22-1.12v-11.38h1.74v11.06l2.22-.38,.26,1.7-2.48,.44Zm-4.3-2.9c-.68-.72-2.1-1.76-3.28-2.4l.88-1.34c1.16,.62,2.62,1.56,3.34,2.26l-.94,1.48Zm.8-4.82c-.62-.78-1.98-1.86-3.12-2.58l.94-1.26c1.12,.68,2.5,1.68,3.16,2.42l-.98,1.42Z" style="fill: #333;"/>
          <path d="M552.68,119h-3.88c1.28,.72,2.88,1.7,3.72,2.42l-1.22,1.26c-.84-.76-2.6-1.92-3.96-2.68l1-1h-3.84l1.3,.92c-1.3,1-3.24,2.08-4.76,2.74-.28-.36-.8-.94-1.18-1.26,1.42-.6,3.2-1.58,4.24-2.4h-3.76v-1.18c-1.88,.78-3.9,1.6-5.48,2.22l-.68-1.86c.66-.2,1.46-.46,2.32-.76v-6.64h-2.14v-1.76h2.14v-4.46h1.76v4.46h2.16v1.76h-2.16v6.02c.64-.24,1.32-.5,1.96-.74l.26,1.36h1.56v-8.7h2.92c.08-.38,.14-.76,.22-1.18h-4.12v-1.5h4.36c.08-.58,.16-1.16,.2-1.66l1.98,.08c-.1,.5-.22,1.06-.34,1.58h4.92v1.5h-5.26c-.1,.42-.2,.8-.32,1.18h4.4v8.7h1.68v1.58Zm-9.02-9.02v1.06h5.64v-1.06h-5.64Zm5.64,2.1h-5.64v1h5.64v-1Zm-5.64,3.14h5.64v-1.06h-5.64v1.06Zm0,2.2h5.64v-1.14h-5.64v1.14Z" style="fill: #333;"/>
          <path d="M577.44,116.06s-.02,.46-.04,.7c-.2,3.32-.42,4.7-.92,5.26-.38,.38-.78,.52-1.36,.56-.5,.08-1.46,.06-2.44,.02-.04-.48-.22-1.16-.52-1.62,.9,.1,1.78,.1,2.1,.1,.34,0,.52-.02,.68-.18,.26-.26,.44-1.2,.58-3.36h-10.34c-1.14,.92-2.4,1.68-3.7,2.24-.2-.36-.74-1.1-1.06-1.44,1.96-.74,3.9-1.92,5.14-3.4h-2.16v-5.76c1.6-.34,3.48-.84,4.6-1.3l1.12,1.16c-1.16,.44-2.64,.8-4.08,1.1v1.08h3.62v1.28h-3.62v1.12h8.86v-1.12h-3.58v-1.28h3.58v-1.06h-3.92v-1.32h5.6v6.1h-7.96c-.28,.4-.56,.76-.88,1.12h10.7Zm.54-10.22v3.74h-1.76v-2.14h-13.5v2.14h-1.68v-3.74h7.38c-.18-.4-.34-.78-.54-1.12l1.9-.52c.3,.48,.6,1.1,.84,1.64h7.36Zm-15.08,15.64c.74-.86,1.38-2.32,1.72-3.46l1.48,.6c-.42,1.16-.98,2.64-1.72,3.58l-1.48-.72Zm5.24-3.26c.4,1.12,.68,2.56,.68,3.48l-1.5,.2c.02-.9-.22-2.36-.58-3.5l1.4-.18Zm2.4-.14c.56,.92,1.08,2.16,1.22,2.96l-1.4,.4c-.14-.8-.62-2.06-1.14-3l1.32-.36Zm2.66,2.44c-.28-.62-.94-1.52-1.52-2.14l1.22-.54c.6,.6,1.3,1.46,1.56,2.06l-1.26,.62Z" style="fill: #333;"/>
        </g>
      </g>
      <g>
        <g>
          <rect x="48.88" y="12.26" width="55.77" height="55.77" transform="translate(-5.9 66.04) rotate(-45)" style="fill: none; stroke: #8a202a; stroke-miterlimit: 10; stroke-width: .86px;"/>
          <g>
            <path d="M62.45,39.9c0-5.12,2.12-7.64,5.26-7.64s5.28,2.56,5.28,7.64-2.14,7.8-5.28,7.8-5.26-2.68-5.26-7.8Zm7.18,0c0-4.06-.86-4.9-1.92-4.9s-1.9,.84-1.9,4.9,.84,5.04,1.9,5.04,1.92-.96,1.92-5.04Z" style="fill: #8a202a;"/>
            <path d="M79.37,44.54h3.16v-8.46h-2.74v-2.2c1.6-.3,2.64-.7,3.68-1.34h2.62v12h2.68v2.88h-9.4v-2.88Z" style="fill: #8a202a;"/>
          </g>
        </g>
        <g>
          <path d="M3.66,107.66h3.98v1.48H0v-1.48H3.62c-.3-.74-.9-1.88-1.44-2.7l1.46-.74c.54,.84,1.2,1.9,1.48,2.62l-1.46,.82Zm-2.8,2.66H7.08v1.46H.86v-1.46Zm0,2.64H7.06v1.44H.86v-1.44Zm6.14,8.56H2.48v.9H.88v-6.76H7v5.86Zm-4.52-4.36v2.86h2.9v-2.86H2.48Zm15.72-9.42h-2.84v12.36c0,1.14-.28,1.74-1.08,2.02-.8,.32-2.1,.34-4.02,.34-.1-.52-.42-1.4-.74-1.92,1.46,.08,2.96,.06,3.4,.06,.4-.02,.54-.14,.54-.52v-12.34h-5.4v-1.82h10.14v1.82Z" style="fill: #333;"/>
          <path d="M43.86,120h-7.96v2.66h-1.9v-2.66h-7.76v-1.62h7.76v-1.3h-5.82v-7.18h13.88v7.18h-6.16v1.3h7.96v1.62Zm-9.5-11h-6.78v-3.92h6.78v3.92Zm-1.78-2.72h-3.34v1.54h3.34v-1.54Zm-2.58,6.5h4v-1.4h-4v1.4Zm4,2.82v-1.44h-4v1.44h4Zm8.6-6.6h-6.84v-3.92h6.84v3.92Zm-2.44,2.38h-4.26v1.4h4.26v-1.4Zm0,2.78h-4.26v1.44h4.26v-1.44Zm.68-7.88h-3.4v1.54h3.4v-1.54Z" style="fill: #333;"/>
          <path d="M68.96,120.4c0,1.06-.22,1.64-.96,1.94-.74,.3-1.94,.32-3.62,.32-.08-.54-.38-1.38-.66-1.9,1.22,.06,2.52,.04,2.88,.04,.36-.02,.48-.12,.48-.42v-3.96c-.42,.36-1.02,1.1-1.32,1.6-2.36-1.28-3.82-3.34-4.68-5.98-.86,2.78-2.4,4.82-4.86,6.1-.22-.4-.74-1.04-1.14-1.42v5.96h-1.88v-13.94h7.16c-.08-.62-.14-1.28-.2-1.94h-3.46v-1.64h5.08c.06,1.28,.16,2.48,.36,3.58h6.82v11.66Zm-13.88-3.8c2.42-1.22,3.92-3.22,4.62-6.04h-4.62v6.04Zm7.46-6.04c.76,2.72,2.14,4.72,4.54,5.84v-5.84h-4.54Z" style="fill: #333;"/>
          <path d="M88.4,110.94c-.1,.18-.22,.34-.34,.5,2.24,2.44,4.98,3.96,8.14,5.14-.44,.4-.94,1.02-1.2,1.54-.8-.34-1.58-.74-2.32-1.12v5.62h-1.9v-.56h-7.56v.62h-1.82v-5.44c-.78,.42-1.6,.82-2.42,1.14-.26-.46-.76-1.1-1.18-1.5,3.66-1.3,7.12-3.68,8.98-6.64l1.62,.7Zm-7.9-1h-1.82v-3.88h7.54c-.2-.5-.44-1.02-.68-1.48l1.92-.42c.34,.56,.72,1.3,.96,1.9h6.94v3.88h-1.88v-2.2h-12.98v2.2Zm4.82-.9c-1.28,1.74-3.3,3.4-5.12,4.42-.26-.34-.9-1.08-1.28-1.4,1.76-.84,3.58-2.2,4.66-3.62l1.74,.6Zm5.46,11.38v-2.8h-7.56v2.8h7.56Zm.18-4.44c-1.4-.9-2.66-1.94-3.88-3.24-1.04,1.2-2.28,2.3-3.62,3.24h7.5Zm-1.18-7.52c1.74,1.04,4,2.64,5.1,3.76l-1.34,1.2c-1.04-1.1-3.24-2.78-5.04-3.9l1.28-1.06Z" style="fill: #333;"/>
          <path d="M122.04,121.86h-7.74v.82h-1.76v-9.18c-.4,.34-.8,.68-1.22,.98-.16-.32-.54-.94-.88-1.36v7.08h-3.4v1.5h-1.58v-5.9c-.28,.46-.54,.9-.86,1.3-.18-.4-.68-1.3-1.02-1.72,1.4-1.9,2.26-4.84,2.76-8h-2.24v-1.68h6.54v1.68h-2.52c-.26,1.44-.56,2.82-.92,4.14h3.24v1.22c1.74-1.2,3.12-2.86,4.14-4.88h-1.96v1.9h-1.58v-3.48h4.26c.22-.64,.46-1.32,.64-2l1.74,.38c-.16,.54-.32,1.1-.52,1.62h4.58v3.42h-1.68v-1.84h-3.54c-.44,.98-.96,1.9-1.52,2.76h2.18c-.24-.52-.5-1.12-.76-1.58l1.58-.62c.38,.7,.8,1.56,1.04,2.2h2.46v1.56h-2.86v1.72h2.64v1.4h-2.64v1.8h2.64v1.42h-2.64v1.8h3.4v1.54Zm-13.22-8.72h-1.78v5.44h1.78v-5.44Zm8.1-.96h-2.62v1.72h2.62v-1.72Zm0,3.12h-2.62v1.8h2.62v-1.8Zm-2.62,5.02h2.62v-1.8h-2.62v1.8Z" style="fill: #333;"/>
          <path d="M136.92,109.1h-7.08v-1.48h3.12c-.22-.72-.72-1.86-1.16-2.68l1.56-.56c.5,.84,1.02,1.92,1.26,2.64l-1.54,.6h3.84v1.48Zm-.54,11c.6-1.08,1-2.76,1.24-4.14l1.3,.38c-.24,1.52-.62,3.34-1.3,4.46l-1.24-.52v1.32h-4.46v.84h-1.56v-6.72h6.02v4.38Zm.08-8.3h-6.08v-1.46h6.08v1.46Zm-6.08,1.2h6.08v1.46h-6.08v-1.46Zm4.42,4.2h-2.88v2.9h2.88v-2.9Zm8.52-10.56c-.4,3.52-1.4,6.48-5.1,8.18-.2-.42-.66-1.04-1.06-1.34,1.66-.7,2.7-1.64,3.34-2.8-.76-.78-1.94-1.8-2.86-2.56l1-1c.76,.6,1.74,1.4,2.5,2.06,.24-.8,.38-1.64,.5-2.54h-4v-1.56h9.88s0,.5-.04,.74c-.2,5-.4,6.84-.92,7.48-.38,.42-.76,.58-1.34,.66-.5,.06-1.38,.04-2.28,0-.04-.46-.22-1.14-.5-1.6,.84,.08,1.64,.08,1.96,.08,.3,0,.48-.04,.66-.22,.28-.38,.5-1.84,.66-5.58h-2.4Zm.36,14.16c.6,0,.72-.34,.78-2.56,.34,.26,1.02,.52,1.46,.62-.18,2.72-.62,3.4-2.08,3.4h-2.42c-1.74,0-2.14-.48-2.14-2.06v-4.64h1.6v4.62c0,.52,.1,.62,.76,.62h2.04Zm-1.64-6.78c.82,.9,1.76,2.1,2.18,2.88l-1.2,.86c-.38-.84-1.3-2.1-2.1-3.02l1.12-.72Zm4.56,1.12c.74,1.34,1.48,3.08,1.76,4.18l-1.42,.54c-.24-1.1-.92-2.9-1.64-4.26l1.3-.46Z" style="fill: #333;"/>
        </g>
      </g>
    </g>
    <line x1="142.92" y1="40.34" x2="401.92" y2="40.34" style="fill: none; stroke: #c7ba99; stroke-miterlimit: 10; stroke-width: 2px;"/>
    <line x1="529.92" y1="40.84" x2="788.92" y2="40.84" style="fill: none; stroke: #c7ba99; stroke-miterlimit: 10; stroke-width: 2px;"/>
    <g>
      <rect x="413.49" y="35.89" width="8.52" height="8.52" transform="translate(93.97 307.15) rotate(-45)" style="fill: #8a202a;"/>
      <rect x="513.49" y="35.89" width="8.52" height="8.52" transform="translate(123.26 377.86) rotate(-45)" style="fill: #8a202a;"/>
    </g>
    <g>
      <rect x="797.5" y="35.88" width="8.51" height="8.54" transform="translate(206.44 578.69) rotate(-45)" style="fill: #8a202a;"/>
      <rect x="897.63" y="36.05" width="8.51" height="8.54" transform="translate(235.64 649.54) rotate(-45)" style="fill: #8a202a;"/>
    </g>
    <g>
      <rect x="22.49" y="35.89" width="8.52" height="8.52" transform="translate(-20.55 30.67) rotate(-45)" style="fill: #8a202a;"/>
      <rect x="122.49" y="35.89" width="8.52" height="8.52" transform="translate(8.74 101.38) rotate(-45)" style="fill: #8a202a;"/>
    </g>
  </g>
</svg>