<?xml version="1.0" encoding="UTF-8"?>
<svg id="b" data-name="圖層 2" xmlns="http://www.w3.org/2000/svg" width="389.69" height="214.28" viewBox="0 0 389.69 214.28">
  <g id="c" data-name="圖層 1">
    <g>
      <g>
        <path d="M129.46,147.09h-9.83v18.07h-3.31v-31.46h13.14v13.39Zm-9.83-10.58v2.56h6.69v-2.56h-6.69Zm6.69,7.85v-2.81h-6.69v2.81h6.69Zm19.65,16.52c0,2.09-.47,3.1-1.84,3.67-1.4,.54-3.6,.61-6.95,.61-.11-.94-.68-2.52-1.19-3.46,2.38,.11,4.9,.07,5.62,.07,.72-.04,.94-.25,.94-.9v-13.75h-10.15v-13.43h13.57v27.18Zm-10.37-24.37v2.56h6.95v-2.56h-6.95Zm6.95,7.92v-2.88h-6.95v2.88h6.95Z" style="fill: #99857a;"/>
        <path d="M175.87,140.51v4.46h11.55v12.35c0,1.76-.36,2.77-1.69,3.28-1.33,.54-3.35,.58-6.26,.58-.14-.94-.68-2.38-1.19-3.28,2.16,.07,4.32,.07,4.9,.07,.61-.04,.79-.18,.79-.68v-9.04h-8.1v16.85h-3.49v-16.85h-7.6v12.99h-3.38v-16.27h10.98v-4.46h-14.25v-3.28h14.9c-.58-1.37-1.4-3.06-2.12-4.39l3.28-.97c.97,1.66,2.23,3.96,2.74,5.36h13.5v3.28h-14.54Z" style="fill: #99857a;"/>
        <path d="M223.42,137.56c0,.25,0,.54-.07,.86,1.94,1.98,5.8,3.2,10.55,3.49-.65,.68-1.48,1.87-1.8,2.74-4.1-.58-7.38-1.87-9.65-3.96-1.3,1.66-4.14,3.2-10.33,4.07-.32-.76-1.08-1.87-1.69-2.48h-9.14v-2.63h10.44v2.38c7.81-1.01,8.64-3.02,8.64-4.57v-.47h-2.99c-.79,1.3-1.69,2.45-2.63,3.35-.54-.47-1.76-1.33-2.52-1.69,1.87-1.62,3.35-4.1,4.14-6.62l2.99,.65c-.22,.61-.43,1.19-.68,1.8h11.23l.47-.14,2.3,.76c-.9,1.91-2.12,4-3.13,5.33l-2.63-.94c.47-.65,1.01-1.58,1.51-2.48h-5v.58Zm-.29,21.81c3.71,1.22,7.7,2.74,10.15,3.92l-3.02,1.84c-2.2-1.19-5.97-2.81-9.68-4.07l2.09-1.69h-10.76l2.99,1.37c-2.92,1.76-7.42,3.49-11.01,4.5-.58-.68-1.76-1.91-2.48-2.52,3.67-.72,7.88-1.94,10.37-3.35h-5.8v-14.47h23.47v14.47h-6.3Zm-12.27-22.71h-8.82v-2.52h8.82v2.52Zm-1.66,12.42h16.88v-2.05h-16.88v2.05Zm0,4.03h16.88v-2.02h-16.88v2.02Zm0,4.14h16.88v-2.09h-16.88v2.09Z" style="fill: #99857a;"/>
        <path d="M257.34,140.83h-12.92v-2.66h6.12c-.54-1.33-1.55-3.38-2.45-4.86l2.41-1.33c.9,1.51,1.98,3.42,2.48,4.71l-2.38,1.48h6.73v2.66Zm-11.48,4.75v-2.63h10.19v2.63h-10.19Zm0,2.12h10.22v2.59h-10.22v-2.59Zm10.22,15.41h-7.59v1.62h-2.63v-12.17h10.22v10.55Zm-7.59-7.85v5.15h4.93v-5.15h-4.93Zm25.12-21.17c-.25,13.32-.29,26.71,1.4,27.21,.22,.07,.47-2.27,.58-4.68,.5,.83,1.33,2.05,1.84,2.56-.43,5.11-1.91,6.26-3.78,5.47-3.49-1.22-3.42-13.28-3.38-27.39h-5.33v10.15h4.21v3.1h-4.21v14.69h-3.13v-14.69h-4.46v-3.1h4.46v-10.15h-4.03v-3.17h15.84Z" style="fill: #99857a;"/>
      </g>
      <g>
        <g>
          <line x1="7.64" y1="89.27" x2="383.07" y2="89.27" style="fill: none; stroke: #7d292d; stroke-miterlimit: 10; stroke-width: 3.05px;"/>
          <line x1="7.64" y1="81.55" x2="383.07" y2="81.55" style="fill: none; stroke: #7d292d; stroke-miterlimit: 10; stroke-width: 1.02px;"/>
        </g>
        <g>
          <rect x="1.18" y="90.65" width="6.62" height="6.62" transform="translate(8.98 187.92) rotate(180)" style="fill: #7d292d;"/>
          <rect x="383.07" y="90.82" width="6.62" height="6.62" transform="translate(772.76 188.27) rotate(180)" style="fill: #7d292d;"/>
        </g>
      </g>
      <g>
        <g>
          <line x1="382.05" y1="206.05" x2="6.62" y2="206.05" style="fill: none; stroke: #7d292d; stroke-miterlimit: 10; stroke-width: 3.05px;"/>
          <line x1="382.05" y1="213.77" x2="6.62" y2="213.77" style="fill: none; stroke: #7d292d; stroke-miterlimit: 10; stroke-width: 1.02px;"/>
        </g>
        <g>
          <rect x="381.89" y="198.05" width="6.62" height="6.62" style="fill: #7d292d;"/>
          <rect y="197.87" width="6.62" height="6.62" style="fill: #7d292d;"/>
        </g>
      </g>
      <g>
        <path d="M152.21,19.51c.93-.17,1.92,.23,2.1,1.22,.22,1.24-.72,2.12-1.86,2.36-.09,.69-.05,1.32,.07,1.98,.56,3.14,4.12,3.6,6.74,3.14,6.93-1.23,6.49-9.47,5.8-14.75-.85-6.39,.77-12.22,6.84-13.3,2.58-.46,5.21,.1,5.67,2.72,.39,2.21-1.37,3.27-3.37,3.62,.43-1.18,.64-2.18,.42-3.45-.31-1.76-1.54-2.68-3.06-2.41-5.34,.95-3.46,9.29-3.1,16.12,.22,4.01-1.23,10.46-9.33,11.9-4,.71-8.37-.71-9.17-5.16-.31-1.72,.35-3.65,2.24-3.99Z" style="fill: #89202a;"/>
        <path d="M175.9,13.82l.19-.65,2.69-.22,2.25-4.61,3.76-.45-2.52,4.77,4.43-.36-.26,.65-4.5,.37c-3.62,7.25-4.88,9.46-4.76,10.82,.05,.59,.43,.98,1.02,.93,1.15-.09,3.11-1.52,5.1-3.79,1.38-1.59,3.08-3.91,4.45-6.06l.22,.16c-.93,1.48-2.46,3.78-4.26,5.9-1.98,2.34-4.28,4.32-6.41,4.5-1.46,.12-2.84-.36-2.98-2.04-.2-2.41,1.79-5.1,4.19-10.14l-2.62,.21Z" style="fill: #89202a;"/>
        <path d="M208.83,15.72c-.96,1.17-2.28,2.34-3.82,2.32-1.08-.02-1.81-.52-2.46-1.37-1.16,4.64-5.53,8.49-10.39,8.41-2.55-.04-4.21-1.64-4.17-4.2,.08-4.97,5.78-9.22,10.44-9.14,2.48,.04,3.96,1.64,4.25,3.53,.22,1.4,1.05,2.33,2.34,2.35,1.26,.02,2.32-.7,3.6-2.18l.21,.28Zm-9.07-1.69c.02-1.16-.46-1.86-1.51-1.88-3.53-.06-7.3,7.69-7.35,10.63-.02,1.15,.46,1.86,1.51,1.88,3.53,.06,7.3-7.69,7.35-10.62Z" style="fill: #89202a;"/>
        <path d="M204.72,24.55c2.78-3.84,5.65-7.63,8.47-11.53l3.98,.26-5.25,6.02,.06,.08c3.92-3.97,6.01-4.53,6.78-5.16,1.11-.91,1.71-.95,4.33-.76-1,1.17-2.04,2.43-2.2,4-.1,1.04,.34,1.55,1.35,1.65,1.32,.13,2.63-.97,3.55-1.75l.12,.19c-1.45,1.47-3.38,2.44-5.46,2.23-1.84-.19-2.89-1.31-2.7-3.19,.06-.59,.33-1.2,.69-1.65l-.06-.08c-4.2,2.22-7.71,6.37-10.14,9.96l-3.53-.25Z" style="fill: #89202a;"/>
        <path d="M243.85,21.09c-1.77,1.62-3.68,3.21-6.31,4.8-3.71,2.24-6.84,2.56-9.38,2.07-2.61-.5-3.89-2.53-3.42-5.01,.85-4.4,7.68-7.85,11.98-7.03,1.96,.38,2.97,1.39,2.71,2.77-.64,3.33-8.41,3.33-10.92,3.38-.18,.39-.33,.79-.41,1.2-.38,1.96,.52,3.56,2.48,3.94,1.92,.37,4.56-.37,7.32-2.08,2.11-1.34,4.21-3,5.76-4.34l.19,.29Zm-7.76-4.85c-2.3-.44-6.42,3.32-7.45,5.51,3.89-.03,7.77-2.21,8.2-4.44,.12-.62-.21-.97-.75-1.07Z" style="fill: #89202a;"/>
      </g>
    </g>
  </g>
</svg>