<?xml version="1.0" encoding="UTF-8"?>
<svg id="b" data-name="圖層 2" xmlns="http://www.w3.org/2000/svg" width="722.37" height="136.27" viewBox="0 0 722.37 136.27">
  <g id="c" data-name="圖層 1">
    <g>
      <path d="M1.84,129.26c1.79-1.07,4.1-.49,5.17,1.3s.49,4.1-1.3,5.17c-1.79,1.07-4.1,.49-5.17-1.3-1.07-1.79-.49-4.1,1.31-5.17Z" style="fill: #c9bc9c;"/>
      <path d="M39.39,63.16c-7.55,9.77,2.27,31.81-.08,46.44l.18,.06c5.06-12.06,9.01-25.46,10.29-32.56,.4-2.23,.13-5.18,.2-7.17,.17-7.23,4.61-14.47,6.18-15.25,.6-.3,1.05-.15,1.35,.46,.57,1.15-1.88,4.54-2.55,7.58-2.35,10.87,6.17,24.53,3.12,41.08l.18,.06c8.46-12.03,19.57-35.37,13.34-49.57-1.26,.03-2.5-.49-3.07-1.63-.9-1.81-.38-3.95,1.49-4.88,2.59-1.29,4.7,.37,5.87,2.72,7.46,15.02-13.28,50.59-21.31,59.24l-.72-.09c1.65-10.9-1.84-21.57-3.33-31.66l-.18-.06c-1.71,9.27-6.35,22.93-10.86,33.67-1.58,3.79-1.91,6.14-4.26,7.31-.42,.21-.99,.12-1.23-.36-.75-1.51,2.42-2.4,1.92-7.79-1.38-15.33-8.06-29.08-1.28-42.53l-.18-.06c-5.86,5.92-20.55,17.21-15.75,26.85,1.17,2.35,3.88,3.71,6.35,2.48,4.04-2.01,4.11-6.25,1.59-11.32l.72-.36c2.46,4.94,2.93,10.43-2.92,13.33-3.32,1.65-7.59,.92-9.36-2.64-5.24-10.55,10.56-19.61,23.84-33.73l.48,.36Z" style="fill: #c9bc9c;"/>
      <path d="M113.92,63.93c-1.2,4.46-2.65,9.02-5.26,14.32-3.7,7.48-8.44,11.24-13.07,13.08-4.76,1.89-8.94-.08-10.73-4.58-3.18-8.01,4.33-20.69,12.15-23.79,3.57-1.41,6.27-.82,7.26,1.69,2.41,6.07-10.2,14.11-14.21,16.78,.11,.83,.28,1.63,.58,2.38,1.41,3.57,4.54,5.23,8.1,3.81,3.51-1.39,7.02-5.32,9.71-10.95,2.04-4.36,3.73-9.23,4.84-13l.61,.26Zm-17.6,.17c-4.19,1.66-6.96,12.03-6.37,16.65,6.28-4.08,10.31-11.62,8.7-15.69-.45-1.13-1.33-1.35-2.34-.96Z" style="fill: #c9bc9c;"/>
      <path d="M132.59,26.69l-8.87,38.11c-1.49,6.43-2.38,10.65-1.63,12.82,.37,1.08,1.04,1.57,1.99,1.24,1.78-.62,4.37-3.86,6.62-8.48,2.08-4.28,3.97-9.13,5.62-14.05h.64c-1.13,3.52-2.95,8.78-4.81,12.69-3.23,6.74-5.77,10.33-9.84,11.73-2.86,.99-4.77,.22-5.65-2.33-.81-2.36-.26-6.32,1.29-13.62l7.7-35.28,6.93-2.82Z" style="fill: #c9bc9c;"/>
      <path d="M170.26,46.85c-4.02,9.68-9.63,22.08-20.48,25.28-5.17,1.52-8.86-.54-10.45-5.9-2.44-8.27,5.91-19.71,14.49-22.25,3.94-1.16,6.99-.1,7.68,2.23,.99,3.36-1.21,6.12-3.86,6.9-.65,.19-1.18,.28-1.52,.31,0-2.17,.28-4.51-.33-6.57-.44-1.49-1.48-2.16-2.64-1.82-4.52,1.33-9.98,11.37-7.56,19.57,.97,3.29,3.87,5.25,7.35,4.22,8.46-2.5,13.9-15.69,16.66-22.05l.66,.09Z" style="fill: #c9bc9c;"/>
      <path d="M208.58,37.99c-1.25,2.64-3.15,5.44-6.04,6.12-2.03,.48-3.62-.12-5.24-1.4,0,9.2-6.34,18.43-15.45,20.56-4.79,1.12-8.62-1.09-9.74-5.88-2.18-9.31,6.47-19.91,15.19-21.95,4.66-1.09,8.17,1.2,9.58,4.6,1.07,2.51,3.05,3.85,5.47,3.28,2.36-.55,4-2.39,5.71-5.76l.52,.43Zm-17.72,1.11c-.51-2.16-1.73-3.26-3.7-2.8-6.62,1.55-10.02,17.77-8.73,23.28,.51,2.16,1.73,3.26,3.7,2.8,6.62-1.55,10.02-17.77,8.73-23.28Z" style="fill: #c9bc9c;"/>
      <path d="M233.54,39.04c2.72-4.79,7.6-13.61,13.52-14.54,2.86-.45,5.06,1.38,5.42,3.64,.95,5.99-7.39,14.46-6.63,19.32,.16,1,.74,1.66,1.67,1.51,1.86-.29,4.46-2.82,7.94-7.59,2.86-3.93,5.62-8.46,7.52-11.96l.57,.18c-1.65,2.92-4.47,7.93-7.66,12.32-4.26,5.85-6.71,8.01-9.97,8.53-3.13,.49-5.23-1.15-5.65-3.81-.9-5.72,7.29-15.13,6.75-18.52-.2-1.26-1.17-1.79-2.1-1.64-5.72,.9-14.26,19.77-16.45,25.78l-7.01,1.38c4.55-10.47,9.27-19.4,8.76-22.66-.17-1.06-.94-2.03-2.27-1.82-5.59,.88-14.46,19.81-16.71,25.82l-6.68,1.33c3.63-8.55,7.25-17.1,10.58-25.81l7.72-1.63-6.93,13.5,.15,.11c3.04-4.91,7.36-14.25,14.41-15.37,2.46-.39,4.67,.63,5.09,3.29,.39,2.46-1.08,6.1-2.2,8.53l.15,.11Z" style="fill: #c9bc9c;"/>
      <path d="M298.33,26.69c-2.42,3.93-5.12,7.89-9.13,12.23-5.68,6.11-11.29,8.37-16.26,8.8-5.1,.45-8.55-2.62-8.97-7.46-.76-8.59,10.05-18.6,18.44-19.34,3.82-.34,6.24,1,6.48,3.69,.57,6.51-13.8,10.61-18.41,12.04-.13,.82-.19,1.64-.12,2.44,.34,3.82,2.85,6.31,6.68,5.97,3.76-.33,8.24-3.09,12.43-7.72,3.2-3.59,6.21-7.78,8.35-11.08l.51,.43Zm-16.92-4.86c-4.49,.4-10.11,9.54-10.85,14.14,7.18-2.12,13.2-8.2,12.82-12.56-.11-1.21-.89-1.68-1.96-1.58Z" style="fill: #c9bc9c;"/>
      <path d="M350.51,21.19l.47-1.21h5.19l5.05-8.48,7.27-.27-5.59,8.75h8.55l-.61,1.21h-8.69c-8.08,13.33-10.84,17.37-10.84,20,0,1.14,.67,1.95,1.82,1.95,2.22,0,6.19-2.42,10.37-6.46,2.9-2.83,6.53-7,9.49-10.91l.4,.34c-2.02,2.69-5.32,6.87-9.09,10.64-4.17,4.17-8.89,7.61-13,7.61-2.83,0-5.39-1.15-5.39-4.38,0-4.65,4.24-9.5,9.63-18.79h-5.05Z" style="fill: #c9bc9c;"/>
      <path d="M412.88,26.29c-1.82,2.29-4.32,4.57-7.28,4.56-2.09,0-3.5-.95-4.78-2.57-2.11,8.95-10.4,16.48-19.76,16.46-4.92,0-8.14-3.05-8.13-7.96,.02-9.56,10.88-17.89,19.83-17.87,4.78,0,7.67,3.05,8.27,6.68,.47,2.69,2.08,4.45,4.57,4.45,2.42,0,4.45-1.4,6.88-4.29l.4,.54Zm-17.5-3c0-2.22-.94-3.57-2.96-3.58-6.8-.01-13.83,14.99-13.85,20.64,0,2.22,.94,3.57,2.96,3.57,6.8,.01,13.83-14.99,13.85-20.64Z" style="fill: #c9bc9c;"/>
      <path d="M438.83,26.15c1.81,.16,3.46,1.39,3.29,3.33-.21,2.42-2.41,3.57-4.63,3.45-.51,1.24-.75,2.43-.87,3.71-.54,6.1,5.85,8.76,10.95,9.21,13.48,1.19,16.81-14.34,18.18-24.49,1.62-12.29,7.58-22.32,19.38-21.28,5.03,.44,9.62,2.81,9.17,7.91-.38,4.29-4.19,5.38-8.08,5.03,1.39-1.97,2.29-3.72,2.51-6.2,.3-3.42-1.52-5.75-4.47-6-10.4-.92-11.1,15.52-13.86,28.39-1.61,7.56-7.54,18.8-23.3,17.42-7.78-.68-15.2-5.53-14.43-14.18,.3-3.35,2.47-6.61,6.16-6.29Z" style="fill: #c9bc9c;"/>
      <path d="M473.26,47.75L508.2,6.03l7.31,.78-27.44,31.49,.11,.15c4.64-4.06,11.94-11.66,18.86-10.6,2.8,.43,4.3,2.16,3.85,5.09-.74,4.86-11.41,12.22-12.07,16.54-.17,1.13,.29,1.68,1.15,1.81,3.99,.61,17.08-10.53,20.64-14.21l.34,.46c-2.79,2.64-6.83,6.38-10.91,9.43-5.55,4.19-8.85,5.73-12.38,5.19-3.19-.49-4.26-2.9-3.89-5.3,.94-6.12,11.32-11.62,11.93-15.61,.19-1.26-.57-2.06-1.43-2.2-5.72-.88-19.77,13.46-24.11,19.54l-6.89-.85Z" style="fill: #c9bc9c;"/>
      <path d="M537.6,34.79c-10.89,11.32-15.49,15.67-16.04,18.38-.21,1.06,.03,1.86,.83,2.02,1.71,.35,5.32-.84,11.13-4.74,4.7-3.17,9.28-6.77,11.24-8.29l.51,.52c-2.74,2.33-7.93,6.22-12.06,8.95-6.11,4.05-9.91,5.13-13.01,4.5-2.9-.59-4.19-2.71-3.68-5.21,.7-3.43,3.84-6.37,14.21-17.17l6.86,1.05Zm9.34-10.12c-.36,1.78-2.36,3.16-4.14,2.8-1.91-.39-3.36-1.71-2.95-3.76,.42-2.05,2.57-3.19,4.55-2.78,1.65,.34,2.87,2.1,2.54,3.75Z" style="fill: #c9bc9c;"/>
      <path d="M571.46,43.44l6.88,1.35c-3.6,4.01-15.84,13.17-17.03,17.8-.3,1.17,.23,1.8,1.21,2.05,2.09,.54,6.62-1.15,11.56-4.12,4.12-2.49,9.17-6.19,11.28-7.88l.39,.38c-3.05,2.41-6.9,5.46-12.08,8.57-5.18,3.12-10.05,4.99-14.03,3.97-2.74-.71-3.95-2.75-3.41-4.84,.17-.65,.42-1.35,.7-1.63l-.13-.03c-3.45,2.31-7.59,3.82-11.44,2.83-4.24-1.09-4.92-4.95-3.97-8.6,2.18-8.48,14.99-15.27,23.07-13.18,3,.77,4.29,2.5,4.7,5.52l2.3-2.19Zm-21.81,17.19c5.64,1.04,16.17-10.16,17.43-15.05,.6-2.35,.24-3.9-2.24-4.54-6-1.54-15.89,8.78-17.25,14.06-.64,2.48-.62,4.85,2.05,5.54Z" style="fill: #c9bc9c;"/>
      <path d="M590.46,61.19c3.43-2.28,13.56-9.46,20.22-7.3,2.82,.92,3.71,3.19,2.96,5.49-1.88,5.76-12.9,9.61-14.44,14.35-.33,1.02-.05,1.9,1.1,2.27,1.22,.4,4.39-.2,10.68-3.67,4.92-2.72,9.61-5.79,11.75-7.15l.54,.53c-3.09,1.9-7.88,5.08-12.79,7.73-6,3.21-9.28,4.13-12.61,3.05-3.27-1.06-4.05-3.66-3.3-5.96,1.88-5.76,12.96-9.8,14.25-13.77,.29-.9-.12-1.81-1.27-2.18-5.06-1.65-21.56,10.12-26.83,15.41l-6.53-1.91c6.92-6.03,13.99-11.87,20.91-18.12l7.38,2.12-12.12,8.94,.09,.17Z" style="fill: #c9bc9c;"/>
      <path d="M604.42,83.03c-4.41-1.67-7.65-.06-9.29,4.07-1.56,3.94-.03,8.1,4.23,9.79,11.77,4.66,25.94-7.9,35.03-14l-.08-.17c-3.93,2.06-8.88,3.58-13.32,1.82-3.38-1.34-4.14-4.9-2.9-8.03,3.25-8.2,16.22-14.07,24.49-10.79,3.13,1.24,4.48,2.94,4.27,6.4l2.51-2.12,6.53,2.16c-7.53,5.85-14.9,12.2-22.77,17.99,10.39,1.01,20.23-4.08,28.84-9.35l.3,.34c-8.77,5.87-19.47,10.75-29.99,9.7-10.13,8.01-21.99,11.27-33.95,6.53-6.13-2.43-10.7-6.63-8.32-12.64,1.81-4.57,7.08-5.45,11.28-3.79,.75,.3,2.53,1.29,3.32,1.68l-.17,.44Zm21.55,1.01c5.26,2.08,16.67-7.52,18.55-12.27,.69-1.75,1.2-3.94-1.05-4.84-6.13-2.43-16.99,5.94-19.17,11.45-.97,2.44-1.15,4.54,1.67,5.66Z" style="fill: #c9bc9c;"/>
      <path d="M693.55,96.17c-4.07,2.19-8.38,4.27-14.02,6.02-7.98,2.45-13.96,1.59-18.48-.51-4.64-2.16-6.08-6.55-4.04-10.94,3.64-7.81,18.01-11.07,25.64-7.52,3.48,1.62,4.9,3.99,3.76,6.43-2.76,5.92-17.26,2.28-21.96,1.21-.52,.65-.99,1.32-1.33,2.05-1.62,3.48-.68,6.89,2.79,8.51,3.42,1.59,8.69,1.45,14.63-.46,4.57-1.51,9.27-3.63,12.78-5.41l.23,.63Zm-12.22-12.68c-4.09-1.91-13.53,3.21-16.47,6.81,7.28,1.76,15.53-.49,17.38-4.46,.51-1.1,.07-1.9-.91-2.35Z" style="fill: #c9bc9c;"/>
      <path d="M679.49,108.96c7.74-4.81,15.62-9.47,23.48-14.37l6.91,3.36-13.72,6.9,.06,.18c9.86-4.22,14.01-3.7,15.83-4.25,2.64-.81,3.75-.45,8.27,1.8-2.62,1.35-5.4,2.85-6.82,5.53-.95,1.78-.53,3,1.2,3.92,2.26,1.2,5.39,.19,7.6-.54l.08,.42c-3.65,1.57-7.79,1.89-11.36,0-3.15-1.67-4.2-4.44-2.49-7.65,.54-1.01,1.46-1.89,2.44-2.44l-.06-.18c-9.09,.89-18.36,5.73-25.31,10.35l-6.1-3.01Z" style="fill: #c9bc9c;"/>
      <path d="M714.71,119.84c1.81,1.04,2.43,3.34,1.39,5.15s-3.34,2.43-5.15,1.39c-1.81-1.04-2.43-3.34-1.39-5.15,1.04-1.81,3.34-2.43,5.15-1.39Z" style="fill: #c9bc9c;"/>
    </g>
  </g>
</svg>