<?xml version="1.0" encoding="UTF-8"?>
<svg id="b" data-name="圖層 2" xmlns="http://www.w3.org/2000/svg" width="184.64" height="26.26" viewBox="0 0 184.64 26.26">
  <g id="c" data-name="圖層 1">
    <g>
      <g>
        <path d="M55.06,17.58h-7.74v.82h-1.76V9.22c-.4,.34-.8,.68-1.22,.98-.16-.32-.54-.94-.88-1.36v7.08h-3.4v1.5h-1.58v-5.9c-.28,.46-.54,.9-.86,1.3-.18-.4-.68-1.3-1.02-1.72,1.4-1.9,2.26-4.84,2.76-8h-2.24V1.42h6.54v1.68h-2.52c-.26,1.44-.56,2.82-.92,4.14h3.24v1.22c1.74-1.2,3.12-2.86,4.14-4.88h-1.96v1.9h-1.58V2h4.26c.22-.64,.46-1.32,.64-2l1.74,.38c-.16,.54-.32,1.1-.52,1.62h4.58v3.42h-1.68v-1.84h-3.54c-.44,.98-.96,1.9-1.52,2.76h2.18c-.24-.52-.5-1.12-.76-1.58l1.58-.62c.38,.7,.8,1.56,1.04,2.2h2.46v1.56h-2.86v1.72h2.64v1.4h-2.64v1.8h2.64v1.42h-2.64v1.8h3.4v1.54Zm-13.22-8.72h-1.78v5.44h1.78v-5.44Zm8.1-.96h-2.62v1.72h2.62v-1.72Zm0,3.12h-2.62v1.8h2.62v-1.8Zm-2.62,5.02h2.62v-1.8h-2.62v1.8Z" style="fill: #762f30;"/>
        <path d="M67.94,4.82h-7.08v-1.48h3.12c-.22-.72-.72-1.86-1.16-2.68l1.56-.56c.5,.84,1.02,1.92,1.26,2.64l-1.54,.6h3.84v1.48Zm-.54,11c.6-1.08,1-2.76,1.24-4.14l1.3,.38c-.24,1.52-.62,3.34-1.3,4.46l-1.24-.52v1.32h-4.46v.84h-1.56v-6.72h6.02v4.38Zm.08-8.3h-6.08v-1.46h6.08v1.46Zm-6.08,1.2h6.08v1.46h-6.08v-1.46Zm4.42,4.2h-2.88v2.9h2.88v-2.9Zm8.52-10.56c-.4,3.52-1.4,6.48-5.1,8.18-.2-.42-.66-1.04-1.06-1.34,1.66-.7,2.7-1.64,3.34-2.8-.76-.78-1.94-1.8-2.86-2.56l1-1c.76,.6,1.74,1.4,2.5,2.06,.24-.8,.38-1.64,.5-2.54h-4V.8h9.88s0,.5-.04,.74c-.2,5-.4,6.84-.92,7.48-.38,.42-.76,.58-1.34,.66-.5,.06-1.38,.04-2.28,0-.04-.46-.22-1.14-.5-1.6,.84,.08,1.64,.08,1.96,.08,.3,0,.48-.04,.66-.22,.28-.38,.5-1.84,.66-5.58h-2.4Zm.36,14.16c.6,0,.72-.34,.78-2.56,.34,.26,1.02,.52,1.46,.62-.18,2.72-.62,3.4-2.08,3.4h-2.42c-1.74,0-2.14-.48-2.14-2.06v-4.64h1.6v4.62c0,.52,.1,.62,.76,.62h2.04Zm-1.64-6.78c.82,.9,1.76,2.1,2.18,2.88l-1.2,.86c-.38-.84-1.3-2.1-2.1-3.02l1.12-.72Zm4.56,1.12c.74,1.34,1.48,3.08,1.76,4.18l-1.42,.54c-.24-1.1-.92-2.9-1.64-4.26l1.3-.46Z" style="fill: #762f30;"/>
        <path d="M90.54,9.46c-.46,1.86-1.14,3.8-1.92,5.3,.32,.2,.68,.48,1.2,.8,1.36,.84,3.2,.96,5.52,.96,2.44,0,5.78-.18,8-.46-.22,.52-.52,1.42-.54,1.92-1.56,.1-5.18,.22-7.54,.22-2.6,0-4.3-.22-5.76-1.06-.8-.46-1.52-1.16-1.94-1.16s-1.14,1.3-1.66,2.52l-1.26-1.74c.82-1.08,1.64-1.94,2.38-2.26,.54-1.04,1.06-2.42,1.4-3.76h-2.72c.5-1.16,1.1-2.76,1.62-4.28h-2.38v-1.68h4.66c-.46,1.38-1.06,2.98-1.58,4.34h1.42l.28-.08,.82,.36v-1.52h5v-2.58h-4.48v-1.68h2.74c-.38-.8-1.02-2-1.58-2.9l1.58-.62c.58,.92,1.34,2.18,1.72,2.94l-1.32,.58h3.58c.66-1.06,1.38-2.5,1.8-3.58l1.88,.58c-.58,1-1.22,2.1-1.8,3h2.7v1.68h-4.9v2.58h5.52v1.7h-5.44c1.7,1.54,3.82,3.44,4.92,4.62l-1.32,1.32c-.94-1.12-2.78-2.9-4.38-4.4-.74,1.58-2.2,3.18-4.98,4.44-.28-.4-.86-1.06-1.3-1.42,3.24-1.26,4.42-2.96,4.82-4.56h-4.76v-.12Zm-3.32-5.42c-.22-.86-.72-2.22-1.04-3.26l1.7-.48c.34,1.02,.84,2.32,1.1,3.16l-1.76,.58Z" style="fill: #762f30;"/>
        <path d="M125.98,9.94v8.44h-2.06v-1.1h-13.88v-7.34h2.08v5.48h4.84v-6.64h-5.96V1.78h1.96V6.98h4V.06h2.06V6.98h4.12V1.78h2.06v7h-6.18v6.64h4.9v-5.48h2.06Z" style="fill: #762f30;"/>
      </g>
      <g>
        <polyline points="8.68 25.31 180.25 25.31 157.79 15.15" style="fill: none; stroke: #7f292d; stroke-miterlimit: 10; stroke-width: 1.9px;"/>
        <rect y="15.15" width="8.68" height="9.21" transform="translate(8.68 39.51) rotate(180)" style="fill: #7f292d;"/>
      </g>
    </g>
  </g>
</svg>