<?xml version="1.0" encoding="UTF-8"?>
<svg id="b" data-name="圖層 2" xmlns="http://www.w3.org/2000/svg" width="208.76" height="71.49" viewBox="0 0 208.76 71.49">
  <g id="c" data-name="圖層 1">
    <line x1="208.76" y1="71.12" x2="0" y2="71.12" style="fill: none; stroke: #89202a; stroke-miterlimit: 10; stroke-width: .75px;"/>
    <line x1="208.76" y1="21.12" x2="0" y2="21.12" style="fill: none; stroke: #89202a; stroke-miterlimit: 10; stroke-width: .75px;"/>
    <g>
      <path d="M100.81,5.85s-12.84-8.13-19.21-3.34c-1.7,1.28-2.13,3.43-.91,5.16,1.57,2.23,7.52,4.19,18.64,2.41" style="fill: none; stroke: #c7ba99; stroke-miterlimit: 10; stroke-width: 2px;"/>
      <path d="M108.06,5.85s12.84-8.13,19.21-3.34c1.7,1.28,2.13,3.43,.91,5.16-1.57,2.23-7.52,4.19-18.64,2.41" style="fill: none; stroke: #c7ba99; stroke-miterlimit: 10; stroke-width: 2px;"/>
      <path d="M108.06,5.85s12.84-8.13,19.21-3.34c1.7,1.28,2.13,3.43,.91,5.16-1.57,2.23-7.52,4.19-18.64,2.41" style="fill: none; stroke: #89202a; stroke-miterlimit: 10; stroke-width: .5px;"/>
      <line x1="104.41" y1="5.02" x2="104.41" y2="10.77" style="fill: none; stroke: #c7ba99; stroke-linecap: round; stroke-linejoin: round; stroke-width: 1.5px;"/>
      <line x1="106.48" y1="5.02" x2="106.48" y2="10.77" style="fill: none; stroke: #c7ba99; stroke-linecap: round; stroke-linejoin: round; stroke-width: 1.5px;"/>
      <line x1="102.35" y1="5.02" x2="102.35" y2="10.77" style="fill: none; stroke: #c7ba99; stroke-linecap: round; stroke-linejoin: round; stroke-width: 1.5px;"/>
      <path d="M100.81,5.85s-12.84-8.13-19.21-3.34c-1.7,1.28-2.13,3.43-.91,5.16,1.57,2.23,7.52,4.19,18.64,2.41" style="fill: none; stroke: #89202a; stroke-miterlimit: 10; stroke-width: .5px;"/>
      <g>
        <line x1="104.41" y1="5.02" x2="104.41" y2="10.77" style="fill: none; stroke: #89202a; stroke-miterlimit: 10; stroke-width: .5px;"/>
        <line x1="106.48" y1="5.02" x2="106.48" y2="10.77" style="fill: none; stroke: #89202a; stroke-miterlimit: 10; stroke-width: .5px;"/>
        <line x1="102.35" y1="5.02" x2="102.35" y2="10.77" style="fill: none; stroke: #89202a; stroke-miterlimit: 10; stroke-width: .5px;"/>
      </g>
    </g>
    <g>
      <path d="M23.6,34.42c-.7,1.77-1.55,3.6-2.52,5.27v16.75h-2.35v-13.12c-.7,.95-1.45,1.82-2.2,2.57-.25-.55-.95-1.8-1.4-2.37,2.47-2.38,4.8-6.05,6.17-9.82l2.3,.73Zm14.45,6.9h-2.97v12.2c0,1.62-.42,2.28-1.47,2.62-1.05,.38-2.8,.43-5.52,.4-.12-.65-.55-1.7-.9-2.32,2.02,.1,4.1,.07,4.7,.05,.58-.03,.8-.2,.8-.75v-12.2h-9.77v-2.32h9.77v-5.17h2.4v5.17h2.97v2.32Zm-10.35,9.35c-.67-1.55-2.22-4.18-3.42-6.12l2.02-.95c1.2,1.88,2.82,4.4,3.57,5.9l-2.17,1.18Z" style="fill: #727171;"/>
      <path d="M68.98,49.49c-.6,1.85-1.45,3.92-2.2,5.3-.42-.28-1.3-.68-1.83-.85,.83-1.3,1.6-3.22,2.1-4.92l1.92,.47Zm3.4-1.15v8.12h-2.2v-8.12h-5v-1.92h12.07v1.92h-4.87Zm-2.22-10.67h-4.65v-1.9h4.65v-2.08h2.17v2.08h4.67v1.9h-4.67v1.78h4.15v1.9h-10.4v-1.9h4.07v-1.78Zm6.07,5.72c1.45-2.47,2.27-6.07,2.72-9.8l2.27,.3c-.2,1.42-.45,2.82-.75,4.15h5.62l.35-.1,1.57,.47c-.45,2.32-1.17,4.97-1.82,6.7l-1.9-.58c.4-1.15,.83-2.77,1.12-4.4h-5.47c-.58,1.95-1.25,3.65-2.08,5.02-.35-.32-1.1-.85-1.65-1.2v.85h-9.92v-1.9h9.92v.48Zm-1,5.6c.67,1.22,1.45,2.88,1.8,3.85l-1.87,.85c-.3-1.05-1.03-2.72-1.67-4l1.75-.7Zm7.82-5.87c0,.72-.02,1.5-.07,2.38,.82,4,2.57,7.47,5.45,9-.53,.48-1.22,1.35-1.57,1.95-2.17-1.35-3.67-3.68-4.67-6.57-.72,2.3-1.97,4.65-4.22,6.67-.4-.5-1.2-1.25-1.77-1.57,4.3-3.78,4.67-8.65,4.67-11.92v-1.15h2.2v1.22Z" style="fill: #727171;"/>
      <path d="M124.95,39.97c-.08,1.18-.15,2.38-.3,3.55h10.62s-.02,.72-.1,1.05c-.48,6.9-.95,9.65-1.95,10.67-.67,.68-1.32,.88-2.37,.97-.92,.08-2.55,.05-4.22-.05-.03-.68-.35-1.62-.83-2.28,1.77,.15,3.47,.18,4.17,.18,.55,0,.88-.05,1.2-.3,.7-.57,1.15-2.9,1.55-8h-8.42c-.8,4.3-2.62,8.32-7.25,10.82-.35-.62-1.07-1.42-1.7-1.9,6.2-3.15,6.77-9.22,7.02-14.72h-6.55v-2.27h10.7c-.32-1-1-2.42-1.57-3.5l2.27-.85c.65,1.12,1.42,2.62,1.77,3.62l-1.67,.72h10.27v2.27h-12.65Z" style="fill: #727171;"/>
      <path d="M180.75,40.27c.55,7.87,2.3,13.82,4.47,13.82,.6,0,.9-1.35,1.05-4.6,.52,.55,1.4,1.1,2.05,1.32-.4,4.5-1.23,5.72-3.3,5.72-4.12,0-6.1-7.27-6.72-16.27h-12.67v-2.27h12.52c-.05-1.43-.1-2.88-.1-4.32h2.5c-.03,1.45,0,2.92,.05,4.32h7.17v2.27h-7.02Zm-7.75,11.8c1.65-.3,3.35-.65,5.02-1l.17,2.1c-4.15,.95-8.62,1.93-11.82,2.62l-.67-2.35c1.35-.22,3.07-.55,4.97-.9v-6.7h-4.15v-2.25h10.85v2.25h-4.37v6.22Zm10.42-18.39c1.22,.8,2.75,2.02,3.47,2.87l-1.62,1.45c-.7-.88-2.15-2.18-3.37-3.05l1.52-1.27Z" style="fill: #727171;"/>
    </g>
  </g>
</svg>