<?xml version="1.0" encoding="UTF-8"?>
<svg id="b" data-name="圖層 2" xmlns="http://www.w3.org/2000/svg" width="109.16" height="37.52" viewBox="0 0 109.16 37.52">
  <g id="c" data-name="頁面">
    <line x1="109.16" y1="37.27" x2="0" y2="37.27" style="fill: none; stroke: #89202a; stroke-miterlimit: 10; stroke-width: .5px;"/>
    <line x1="109.16" y1="11.12" x2="0" y2="11.12" style="fill: none; stroke: #89202a; stroke-miterlimit: 10; stroke-width: .5px;"/>
    <g>
      <path d="M14.82,16.42c-.48,1.21-1.05,2.45-1.72,3.59v11.39h-1.6v-8.92c-.48,.65-.99,1.24-1.5,1.75-.17-.37-.65-1.22-.95-1.62,1.68-1.61,3.26-4.11,4.2-6.68l1.56,.49Zm9.83,4.69h-2.02v8.29c0,1.1-.29,1.55-1,1.78-.71,.25-1.9,.29-3.76,.27-.08-.44-.37-1.16-.61-1.58,1.38,.07,2.79,.05,3.2,.03,.39-.02,.54-.14,.54-.51v-8.29h-6.65v-1.58h6.65v-3.52h1.63v3.52h2.02v1.58Zm-7.04,6.36c-.46-1.05-1.51-2.84-2.33-4.16l1.38-.65c.82,1.28,1.92,2.99,2.43,4.01l-1.48,.8Z" style="fill: #727171;"/>
      <path d="M35.48,26.67c-.41,1.26-.99,2.67-1.5,3.6-.29-.19-.88-.46-1.24-.58,.56-.88,1.09-2.19,1.43-3.35l1.31,.32Zm2.31-.78v5.52h-1.5v-5.52h-3.4v-1.31h8.21v1.31h-3.31Zm-1.51-7.26h-3.16v-1.29h3.16v-1.41h1.48v1.41h3.18v1.29h-3.18v1.21h2.82v1.29h-7.07v-1.29h2.77v-1.21Zm4.13,3.89c.99-1.68,1.55-4.13,1.85-6.66l1.55,.2c-.14,.97-.31,1.92-.51,2.82h3.82l.24-.07,1.07,.32c-.31,1.58-.8,3.38-1.24,4.56l-1.29-.39c.27-.78,.56-1.89,.76-2.99h-3.72c-.39,1.33-.85,2.48-1.41,3.42-.24-.22-.75-.58-1.12-.82v.58h-6.75v-1.29h6.75v.32Zm-.68,3.81c.46,.83,.99,1.96,1.22,2.62l-1.28,.58c-.2-.71-.7-1.85-1.14-2.72l1.19-.48Zm5.32-3.99c0,.49-.02,1.02-.05,1.61,.56,2.72,1.75,5.08,3.71,6.12-.36,.32-.83,.92-1.07,1.33-1.48-.92-2.5-2.5-3.18-4.47-.49,1.56-1.34,3.16-2.87,4.54-.27-.34-.82-.85-1.21-1.07,2.92-2.57,3.18-5.88,3.18-8.11v-.78h1.5v.83Z" style="fill: #727171;"/>
      <path d="M63.34,20.19c-.05,.8-.1,1.61-.2,2.41h7.22s-.02,.49-.07,.71c-.32,4.69-.65,6.56-1.33,7.26-.46,.46-.9,.59-1.62,.66-.63,.05-1.73,.03-2.87-.03-.02-.46-.24-1.11-.56-1.55,1.21,.1,2.36,.12,2.84,.12,.37,0,.59-.03,.82-.2,.48-.39,.78-1.97,1.05-5.44h-5.73c-.54,2.92-1.79,5.66-4.93,7.36-.24-.42-.73-.97-1.16-1.29,4.22-2.14,4.61-6.27,4.78-10.01h-4.45v-1.55h7.28c-.22-.68-.68-1.65-1.07-2.38l1.55-.58c.44,.76,.97,1.79,1.21,2.46l-1.14,.49h6.99v1.55h-8.6Z" style="fill: #727171;"/>
      <path d="M91.08,20.4c.37,5.35,1.56,9.4,3.04,9.4,.41,0,.61-.92,.71-3.13,.36,.37,.95,.75,1.39,.9-.27,3.06-.83,3.89-2.24,3.89-2.8,0-4.15-4.95-4.57-11.07h-8.62v-1.55h8.52c-.03-.97-.07-1.95-.07-2.94h1.7c-.02,.99,0,1.99,.03,2.94h4.88v1.55h-4.78Zm-5.27,8.02c1.12-.2,2.28-.44,3.42-.68l.12,1.43c-2.82,.65-5.86,1.31-8.04,1.79l-.46-1.6c.92-.15,2.09-.37,3.38-.61v-4.56h-2.82v-1.53h7.38v1.53h-2.98v4.23Zm7.09-12.51c.83,.54,1.87,1.38,2.36,1.96l-1.1,.99c-.48-.59-1.46-1.48-2.29-2.07l1.04-.87Z" style="fill: #727171;"/>
    </g>
    <g>
      <path d="M52.8,3.04s-6.71-4.25-10.05-1.75c-.89,.67-1.12,1.79-.48,2.7,.82,1.16,3.93,2.19,9.75,1.26" style="fill: none; stroke: #c7ba99; stroke-miterlimit: 10;"/>
      <path d="M56.59,3.04s6.71-4.25,10.05-1.75c.89,.67,1.12,1.79,.48,2.7-.82,1.16-3.93,2.19-9.75,1.26" style="fill: none; stroke: #c7ba99; stroke-miterlimit: 10;"/>
      <path d="M56.59,3.04s6.71-4.25,10.05-1.75c.89,.67,1.12,1.79,.48,2.7-.82,1.16-3.93,2.19-9.75,1.26" style="fill: none; stroke: #89202a; stroke-miterlimit: 10; stroke-width: .25px;"/>
      <line x1="54.68" y1="2.6" x2="54.68" y2="5.61" style="fill: none; stroke: #c7ba99; stroke-linecap: round; stroke-linejoin: round; stroke-width: .75px;"/>
      <line x1="55.76" y1="2.6" x2="55.76" y2="5.61" style="fill: none; stroke: #c7ba99; stroke-linecap: round; stroke-linejoin: round; stroke-width: .75px;"/>
      <line x1="53.6" y1="2.6" x2="53.6" y2="5.61" style="fill: none; stroke: #c7ba99; stroke-linecap: round; stroke-linejoin: round; stroke-width: .75px;"/>
      <path d="M52.8,3.04s-6.71-4.25-10.05-1.75c-.89,.67-1.12,1.79-.48,2.7,.82,1.16,3.93,2.19,9.75,1.26" style="fill: none; stroke: #89202a; stroke-miterlimit: 10; stroke-width: .25px;"/>
      <g>
        <line x1="54.68" y1="2.6" x2="54.68" y2="5.61" style="fill: none; stroke: #89202a; stroke-miterlimit: 10; stroke-width: .25px;"/>
        <line x1="55.76" y1="2.6" x2="55.76" y2="5.61" style="fill: none; stroke: #89202a; stroke-miterlimit: 10; stroke-width: .25px;"/>
        <line x1="53.6" y1="2.6" x2="53.6" y2="5.61" style="fill: none; stroke: #89202a; stroke-miterlimit: 10; stroke-width: .25px;"/>
      </g>
    </g>
  </g>
</svg>